<svg width="122" height="112" viewBox="0 0 122 112" fill="none" xmlns="http://www.w3.org/2000/svg">
<path d="M36.5066 91.9533H23.7688C21.8734 91.8581 19.8539 93.141 17.9834 93.0375H30.7212C32.6166 93.1369 34.5616 91.8664 36.5066 91.9533Z" fill="#16DB93" stroke="#0F142D" stroke-miterlimit="10"/>
<path d="M36.0638 19.5155C35.4927 19.4866 34.9299 19.3914 34.3754 19.2424C33.3367 18.9031 32.2897 18.4975 31.1847 18.4727C31.0316 18.4603 30.8785 18.4478 30.7212 18.452H17.9834C18.749 18.4685 19.5146 18.5596 20.2554 18.7872C21.0127 19.0189 21.7658 19.3459 22.5604 19.4369C22.8956 19.6562 35.7948 19.4907 36.5108 19.5363C36.3618 19.5363 36.2128 19.5238 36.0638 19.5155Z" fill="#16DB93" stroke="#0F142D" stroke-miterlimit="10"/>
<path d="M61.027 105.675C62.5623 103.792 64.9336 102.625 67.3669 102.638H54.6291C54.4015 102.638 54.178 102.65 53.9504 102.671C52.1047 102.82 50.3335 103.635 49.0009 104.914C48.1857 105.646 47.6477 106.623 46.9773 107.476C45.4792 109.334 43.1659 110.505 40.7656 110.488C42.301 110.385 54.4305 110.761 55.5975 110.203C57.0376 109.814 58.337 108.982 59.3509 107.893C59.9924 107.223 60.4476 106.4 61.027 105.679V105.675Z" fill="#16DB93" stroke="#0F142D" stroke-miterlimit="10"/>
<path d="M67.094 8.84309C64.8304 8.78101 62.6453 7.70091 61.1721 5.9835C60.2782 4.89925 59.5953 3.61221 58.4449 2.75971C57.2655 1.80375 55.8129 1.19127 54.3024 1.04643C54.0334 1.0216 53.7685 1.00505 53.4996 1.00505H40.7617C43.1827 0.9885 45.5208 2.18033 47.0148 4.07156C47.8217 5.15167 48.5335 6.33524 49.6468 7.13395C50.8469 8.06921 52.3119 8.66512 53.8265 8.80583C54.0913 8.83066 54.3603 8.84723 54.6252 8.84723H67.363C67.272 8.84723 67.1809 8.84308 67.0899 8.83894L67.094 8.84309Z" fill="#16DB93" stroke="#0F142D" stroke-miterlimit="10"/>
<path d="M97.9901 19.5277C93.9387 19.4491 90.4914 16.0391 89.912 12.1035C89.672 10.6799 89.912 9.21077 89.552 7.80374C88.9437 4.94828 86.8248 2.48597 84.0728 1.50518C83.1624 1.17825 82.2023 1.00443 81.2339 1.00029H68.4961C72.2868 0.967185 75.8044 3.75644 76.719 7.42302C77.1328 8.76798 76.988 10.1874 77.1039 11.5696C77.348 13.9575 78.5564 16.2335 80.4394 17.7275C81.6436 18.6834 83.1045 19.3125 84.6357 19.4822C84.9171 19.5111 85.2067 19.5277 85.4923 19.5277H98.2301C98.1515 19.5277 98.0729 19.5277 97.9901 19.5194V19.5277Z" fill="#16DB93" stroke="#0F142D" stroke-miterlimit="10"/>
<path d="M89.8176 100.127C90.0907 95.8105 93.8111 91.908 98.2309 91.9535H85.493C85.2406 91.9535 84.9882 91.9659 84.7399 91.9908C82.8942 92.1646 81.1436 93.0171 79.8152 94.3C79.8152 94.3 79.8152 94.3 79.8111 94.3041C79.1821 94.9124 78.6482 95.616 78.2178 96.3774C77.5805 97.5279 77.1915 98.8108 77.0839 100.127C77.0094 101.323 77.1087 102.544 76.8108 103.711C76.5087 105.031 75.9128 106.285 75.0561 107.336C73.4753 109.281 71.013 110.489 68.501 110.485H81.2388C81.5078 110.485 81.7809 110.468 82.0458 110.444C84.2722 110.224 86.3786 109.074 87.7898 107.34C88.6465 106.289 89.2424 105.039 89.5445 103.715C89.5445 103.715 89.5445 103.711 89.5445 103.706C89.8424 102.539 89.7431 101.319 89.8176 100.127Z" fill="#16DB93" stroke="#0F142D" stroke-miterlimit="10"/>
<path d="M120.971 56.5209C121.149 54.2035 120.516 51.8073 119.084 49.9616C118.306 48.9767 117.312 48.1573 116.179 47.6111C115.272 47.1476 114.238 46.9572 113.36 46.4275C110.559 44.8756 108.874 41.7056 108.862 38.5357C108.829 36.4334 109.553 34.3684 110.815 32.7006C111.829 31.186 112.417 29.3858 112.417 27.5608C112.45 23.7369 109.934 19.8883 106.209 18.7792C105.502 18.5599 104.761 18.4605 104.02 18.4523H91.2822C96.8483 18.4233 100.829 24.5687 99.4058 29.75C99.0706 31.3101 98.1229 32.5971 97.2911 33.9214C96.2565 35.7795 95.9006 37.9894 96.2689 40.0793C96.8524 43.601 99.3479 46.3737 102.787 47.3214C106.184 48.5753 108.295 52.1301 108.27 55.685C108.32 58.9667 106.602 62.3022 103.619 63.8044C102.551 64.3548 101.326 64.5741 100.316 65.2487C98.3133 66.4778 96.9145 68.5677 96.3848 70.8438C95.8592 73.0454 96.1448 75.4415 97.2208 77.4403C97.6139 78.2017 98.185 78.8597 98.5781 79.6212C99.0913 80.5647 99.4348 81.5993 99.5879 82.6629C100.391 87.6248 96.4965 93.0791 91.2822 93.0419H104.02C104.765 93.0377 105.506 92.926 106.222 92.7108C109.706 91.6638 112.135 88.2248 112.396 84.6576C112.524 82.9195 112.152 81.1482 111.316 79.6171C110.923 78.8556 110.348 78.2017 109.959 77.4361C109.379 76.356 109.027 75.16 108.907 73.9434C108.593 70.7527 109.979 67.3882 112.628 65.5301C113.907 64.5369 115.587 64.3465 116.928 63.4734C119.332 62.0125 120.768 59.2936 120.975 56.5251L120.971 56.5209Z" fill="#16DB93" stroke="#0F142D" stroke-miterlimit="10"/>
<path d="M68.4923 1C72.8831 1 77.1911 4.59624 77.0421 10.2741C76.9097 15.5215 80.9198 19.5357 85.4885 19.5357C87.3839 19.6309 89.4034 18.3479 91.2739 18.4514C97.8001 18.4514 102.369 26.7695 97.8787 32.9812C94.2535 37.9927 96.4882 45.3217 102.195 47.1095C110.285 49.6504 110.285 61.8461 102.195 64.3829C96.4882 66.1707 94.2535 73.4956 97.8787 78.5112C103.139 85.7534 95.9875 95.5364 88.3398 92.4865C82.8234 90.3635 76.8683 94.8577 77.0463 101.218C77.1953 106.896 72.8872 110.492 68.4965 110.492C65.9431 110.492 63.3649 109.28 61.6144 106.557C58.254 101.338 51.0161 101.338 47.6516 106.557C45.9011 109.28 43.3187 110.492 40.7695 110.492C36.3787 110.492 32.0707 106.896 32.2197 101.218C32.3563 95.9709 28.3462 91.9609 23.7733 91.9609C21.878 91.8657 19.8585 93.1486 17.9879 93.0451C11.4617 93.0451 6.89301 84.7271 11.3831 78.5154C15.0083 73.5039 12.7736 66.1748 7.07096 64.3871C-1.02365 61.8503 -1.02365 49.6546 7.07096 47.1136C12.7736 45.3258 15.0083 38.001 11.3831 32.9853C6.88887 26.7736 11.4617 18.4555 17.9879 18.4555C19.8626 18.3521 21.8821 19.635 23.7775 19.5398C28.3462 19.5398 32.3563 15.5297 32.2197 10.2782C32.0707 4.60036 36.3787 1.00828 40.7695 1.00414C43.3229 1.00414 45.9011 2.21668 47.6516 4.93972C51.0161 10.1582 58.2499 10.1582 61.6144 4.93972C63.3649 2.21668 65.9472 1.00414 68.4965 1.00414L68.4923 1Z" fill="#DCFCF0" stroke="#0F142D" stroke-miterlimit="10"/>
<path d="M71.2482 39.6858C74.5257 39.6237 76.1645 44.1345 73.8636 46.4023C72.4897 47.1762 50.1633 73.3595 48.4335 71.8407C46.2194 72.7305 34.3589 57.8738 32.7781 56.8103C30.4854 54.5466 32.1035 50.0275 35.3935 50.0937C37.7234 49.415 46.8071 61.1762 48.4293 62.3391C49.5756 61.7308 69.928 37.8483 71.2482 39.6858Z" fill="#16DB93" stroke="#0F142D" stroke-miterlimit="10"/>
</svg>
