<svg xmlns="http://www.w3.org/2000/svg" viewBox="0 0 100 100" width="100" height="100" preserveAspectRatio="xMidYMid meet" style="width: 100%; height: 100%; transform: translate3d(0px, 0px, 0px);"><defs><clipPath id="__lottie_element_102"><rect width="100" height="100" x="0" y="0"></rect></clipPath><image href="https://cowrywise.com/lottie/duo/images/img_0.png"></image></defs><g clip-path="url(#__lottie_element_102)"><g transform="matrix(1,0,0,1,29.402999877929688,12.408000946044922)" opacity="1" style="display: block;"><g opacity="1" transform="matrix(1,0,0,1,51.220001220703125,13.104000091552734)"><path fill="rgb(0,45,105)" fill-opacity="1" d=" M3.7339999675750732,-1.3489999771118164 C3.7339999675750732,-1.3489999771118164 2.740000009536743,-2.0510001182556152 2.740000009536743,-2.0510001182556152 C2.740000009536743,-2.0510001182556152 0.6769999861717224,-3.503999948501587 0.6769999861717224,-3.503999948501587 C0.6769999861717224,-3.503999948501587 -0.3179999887943268,-4.205999851226807 -0.3179999887943268,-4.205999851226807 C-0.3179999887943268,-4.205999851226807 -2.9149999618530273,-3.1110000610351562 -2.9149999618530273,-3.1110000610351562 C-2.9149999618530273,-3.1110000610351562 -3.7339999675750732,2.753000020980835 -3.7339999675750732,2.753000020980835 C-3.7339999675750732,2.753000020980835 -1.6729999780654907,4.205999851226807 -1.6729999780654907,4.205999851226807 C-1.6729999780654907,4.205999851226807 3.5759999752044678,1.465000033378601 3.5759999752044678,1.465000033378601 C3.5759999752044678,1.465000033378601 3.7339999675750732,-1.3489999771118164 3.7339999675750732,-1.3489999771118164z"></path></g><g opacity="1" transform="matrix(1,0,0,1,33.73899841308594,43.40399932861328)"><path stroke-linecap="butt" stroke-linejoin="bevel" fill-opacity="0" stroke="rgb(0,45,105)" stroke-opacity="1" stroke-width="5.046" d=" M13.508000373840332,6.831999778747559 C5.961999893188477,21.753000259399414 -6.203000068664551,30.788999557495117 -13.663000106811523,27.016000747680664 C-21.124000549316406,23.243000030517578 -21.054000854492188,8.08899974822998 -13.508000373840332,-6.830999851226807 C-5.961999893188477,-21.75200080871582 6.203000068664551,-30.788999557495117 13.663000106811523,-27.016000747680664 C21.124000549316406,-23.243000030517578 21.054000854492188,-8.08899974822998 13.508000373840332,6.831999778747559z"></path></g></g><g transform="matrix(1,0,0,1,41.76799774169922,24.772998809814453)" opacity="1" style="display: block;"><g opacity="1" transform="matrix(1,0,0,1,21.374000549316406,31.038999557495117)"><path fill="rgb(0,99,251)" fill-opacity="1" d=" M13.508000373840332,6.831999778747559 C5.961999893188477,21.753000259399414 -6.203000068664551,30.788999557495117 -13.663000106811523,27.016000747680664 C-21.124000549316406,23.243000030517578 -21.054000854492188,8.08899974822998 -13.508000373840332,-6.830999851226807 C-5.961999893188477,-21.75200080871582 6.203000068664551,-30.788999557495117 13.663000106811523,-27.016000747680664 C21.124000549316406,-23.243000030517578 21.054000854492188,-8.08899974822998 13.508000373840332,6.831999778747559z"></path></g></g><g transform="matrix(1,0,0,1,2.341999053955078,12.408000946044922)" opacity="1" style="display: block;"><g opacity="1" transform="matrix(1,0,0,1,33.73899841308594,43.40399932861328)"><path stroke-linecap="butt" stroke-linejoin="bevel" fill-opacity="0" stroke="rgb(0,99,251)" stroke-opacity="1" stroke-width="5.046" d=" M-13.508000373840332,6.831999778747559 C-5.961999893188477,21.753000259399414 6.203000068664551,30.788999557495117 13.663000106811523,27.016000747680664 C21.124000549316406,23.243000030517578 21.054000854492188,8.08899974822998 13.508000373840332,-6.830999851226807 C5.961999893188477,-21.75200080871582 -6.203000068664551,-30.788999557495117 -13.663000106811523,-27.016000747680664 C-21.124000549316406,-23.243000030517578 -21.054000854492188,-8.08899974822998 -13.508000373840332,6.831999778747559z"></path></g></g><g transform="matrix(1,0,0,1,14.707000732421875,24.772998809814453)" opacity="1" style="display: block;"><image width="43px" height="63px" preserveAspectRatio="xMidYMid slice" href="https://cowrywise.com/lottie/duo/images/img_0.png"></image></g></g></svg>