<svg xmlns="http://www.w3.org/2000/svg" version="1.1" viewBox="-5.0 -10.0 110.0 135.0">
 <path d="m23.992 62.922h-12.414c-1.9727-0.007813-3.5703-1.6055-3.5781-3.5781v-19.219c0.007812-1.9766 1.6055-3.5742 3.5781-3.582h30.355v-14.391c0-1.9766 1.6016-3.5781 3.5781-3.5781h42.91c1.9727 0.007812 3.5703 1.6055 3.5781 3.5781v19.223c-0.003906 1.9766-1.6055 3.5742-3.5781 3.5742h-2.9492l-1.082 1.8867-2.1992 3.8047c-0.15625 0.26562-0.40625 0.45703-0.69922 0.53516-0.29688 0.082031-0.60938 0.039063-0.875-0.11328-0.19531-0.11719-0.35156-0.28516-0.45703-0.48438l-3.2422-5.6289h-18.852v4.3398l12.414-0.003906c1.9727 0 3.5742 1.5977 3.5781 3.5703v19.223c-0.007813 1.9766-1.6055 3.5742-3.5781 3.582h-4.9766l-3 5.1836c-0.31641 0.54688-1.0156 0.73438-1.5664 0.41797-0.17188-0.10156-0.32031-0.24609-0.42578-0.41797l-2.1953-3.8047c-0.011718-0.015624-0.023437-0.042968-0.035156-0.058593l-0.76172-1.3242h-29.949c-1.9766 0-3.5781-1.6016-3.5781-3.5781zm41.797-22.953c0-0.63672 0.51563-1.1523 1.1523-1.1523 0.63672 0 1.1523 0.51562 1.1523 1.1523v0.45312c0 0.63672-0.51562 1.1523-1.1523 1.1523-0.63672 0-1.1523-0.51562-1.1523-1.1523zm-2.4688-11.484c-0.054687 0.59375-0.55469 1.0469-1.1523 1.0469-0.59766 0-1.0938-0.45312-1.1523-1.0469 0-2.2109 1.2266-4.2422 3.1836-5.2695s4.3242-0.88672 6.1445 0.37109c1.8203 1.2578 2.793 3.418 2.5273 5.6133-0.26562 2.1992-1.7305 4.0625-3.7969 4.8477-0.28516 0.10547-0.53125 0.29297-0.70312 0.54297-0.17578 0.25391-0.26953 0.55469-0.27344 0.86328l-0.019531 1.3125c0.015625 0.31641-0.10156 0.625-0.32031 0.85156-0.21875 0.22656-0.52344 0.35547-0.83984 0.34766-0.31641-0.003906-0.61719-0.13672-0.82812-0.37109-0.21484-0.23047-0.32422-0.54297-0.30078-0.85547l0.011719-1.3086c0.007813-0.76953 0.24219-1.5234 0.67969-2.1562 0.44531-0.62891 1.0664-1.1133 1.7891-1.3789 0.69141-0.26562 1.2891-0.73047 1.7109-1.3398 0.65625-0.95703 0.82031-2.1641 0.44141-3.2617-0.37891-1.0938-1.2578-1.9414-2.3633-2.2891-1.1055-0.34375-2.3125-0.14062-3.2461 0.54688-0.92969 0.68359-1.4844 1.7734-1.4844 2.9336zm-19.082 8.0625h10.25c1.9766 0 3.582 1.6016 3.582 3.5781v2.5156h19.504v0.007813c0.41406-0.003907 0.79297 0.21875 0.99609 0.57812l2.6172 4.5391 1.2109-2.082 1.3594-2.3633c0.1875-0.41016 0.59766-0.67578 1.0508-0.67578h3.6133c0.69922 0 1.2656-0.5625 1.2695-1.2617v-19.23c0-0.69922-0.56641-1.2695-1.2695-1.2695h-42.91c-0.33984 0-0.66016 0.13281-0.89844 0.37109-0.23828 0.23828-0.375 0.5625-0.375 0.89844zm-14.176 33.859c-0.59375-0.054688-1.0508-0.55469-1.0508-1.1523s0.45703-1.0977 1.0508-1.1523h37.922c0.59766 0.054688 1.0547 0.55469 1.0547 1.1523s-0.45703 1.0977-1.0547 1.1523zm0-4.5273v0.003906c-0.63672 0-1.1523-0.51953-1.1523-1.1562 0-0.63281 0.51562-1.1523 1.1523-1.1523h37.922c0.63672 0 1.1523 0.51953 1.1523 1.1523 0 0.63672-0.51562 1.1562-1.1523 1.1562zm0-4.5273v0.003907c-0.59375-0.058594-1.0469-0.55469-1.0469-1.1523s0.45312-1.0977 1.0469-1.1523h37.922c0.63672 0 1.1523 0.51562 1.1523 1.1523s-0.51562 1.1523-1.1523 1.1523zm0-4.5273v0.003906c-0.59375-0.054687-1.0469-0.55469-1.0469-1.1523 0-0.59766 0.45312-1.0977 1.0469-1.1523h22.715c0.63672 0 1.1523 0.51562 1.1523 1.1523s-0.51563 1.1523-1.1523 1.1523zm25.695-7.5469 0.003907-9.1523c0-0.33594-0.13672-0.66016-0.375-0.89453-0.23438-0.23828-0.55859-0.375-0.89844-0.37891h-42.91c-0.69531 0.011719-1.2578 0.57422-1.2695 1.2734v19.223c0.011718 0.69531 0.57422 1.2578 1.2695 1.2695h12.414v-7.7617c0.003906-0.94531 0.37891-1.8555 1.0508-2.5273 0.67188-0.66797 1.582-1.043 2.5312-1.043zm14.719 2.3047-42.906 0.003907c-0.69922 0-1.2656 0.5625-1.2695 1.2617v19.23c0 0.70312 0.56641 1.2695 1.2695 1.2734h30.609v0.007813-0.003906c0.40625 0 0.78516 0.21875 0.99219 0.57422l1.0977 1.8945c0.011719 0.023437 0.023438 0.042969 0.035157 0.058593l1.207 2.0859 2.2773-3.9453c0.1875-0.41016 0.59766-0.67188 1.0469-0.67188h5.6406c0.69922-0.003906 1.2695-0.57031 1.2695-1.2734v-19.223c-0.003906-0.69531-0.57031-1.2617-1.2695-1.2617z"/>
<text x="0.0" y="117.5" font-size="5.0" font-weight="bold" font-family="Arbeit Regular, Helvetica, Arial-Unicode, Arial, Sans-serif" fill="#000000">Created by feri ulan taufiq</text><text x="0.0" y="122.5" font-size="5.0" font-weight="bold" font-family="Arbeit Regular, Helvetica, Arial-Unicode, Arial, Sans-serif" fill="#000000">from Noun Project</text></svg>