<svg width="417" height="535" viewBox="0 0 417 535" fill="none" xmlns="http://www.w3.org/2000/svg">
<path d="M319.236 4.51339L319.904 3.64482L316.496 1.90764C313.834 0.474518 310.819 -0.17326 307.803 0.0396422C304.787 0.252545 301.893 1.31738 299.459 3.1103L23.1816 162.462C16.4391 166.847 10.8298 172.765 6.81192 179.732C2.79406 186.7 0.481755 194.519 0.0639146 202.551V378.941C-0.166449 381.572 0.227883 384.22 1.21478 386.67C2.20168 389.12 3.75323 391.302 5.74312 393.038L12.8922 396.646L14.0949 395.11C17.3367 394.734 20.4591 393.663 23.2485 391.969L299.459 232.55C306.201 228.166 311.811 222.248 315.828 215.28C319.846 208.313 322.159 200.494 322.576 192.462V16.3395C322.761 12.1411 321.59 7.99468 319.236 4.51339Z" fill="#4F4752"/>
<path d="M327.055 18.5443V194.867C326.63 202.905 324.307 210.728 320.277 217.696C316.248 224.664 310.625 230.578 303.87 234.956L286.298 245.045L173.382 310.322L112.047 345.734L89.0624 359.097L27.9273 394.441C16.5021 401.123 7.01446 396.98 5.14366 385.555C5.03659 384.109 5.03659 382.658 5.14366 381.212V204.488C5.57209 196.459 7.88888 188.644 11.9058 181.678C15.9227 174.712 21.5263 168.793 28.2614 164.4L62.7375 144.356L175.72 79.1448L236.989 44.1342L303.803 5.38189C316.699 -2.03449 327.055 4.0456 327.055 18.5443Z" fill="#E4E4EA"/>
<path d="M327.055 87.7645L4.80957 273.842V215.179L327.055 29.1016V87.7645Z" fill="white"/>
<g style="mix-blend-mode:screen">
<path d="M175.385 79.5449L112.045 345.599L27.926 394.173C16.5007 400.855 7.01313 396.712 5.14233 385.287L62.4022 144.756L175.385 79.5449Z" fill="#A4B0C4"/>
</g>
<g style="mix-blend-mode:multiply">
<path d="M327.054 18.5443V73.8665L286.297 244.911L173.381 310.189L236.988 44.1342L303.803 5.38189C316.698 -2.03449 327.054 4.0456 327.054 18.5443Z" fill="#A4B0C4"/>
</g>
<path d="M221.154 167.807L213.47 200.078L177.257 220.991L184.941 188.653L221.154 167.807Z" fill="#E3BE70"/>
<g style="mix-blend-mode:multiply" opacity="0.9">
<path d="M294.584 152.239L236.255 185.646L123.405 251.258L73.4284 280.122C66.6896 284.51 61.0831 290.429 57.0658 297.396C53.0484 304.362 50.7338 312.18 50.3107 320.21V381.546L89.1966 359.096L112.181 345.733L173.516 310.322L286.432 245.044L303.804 234.822C310.559 230.444 316.181 224.53 320.211 217.562C324.241 210.594 326.563 202.771 326.989 194.733V133.531L294.584 152.239Z" fill="#D4DEED"/>
</g>
<path d="M409.236 142.151L410.105 141.015L405.628 138.81H405.16L404.292 138.409C401.769 137.602 399.095 137.388 396.476 137.782C393.858 138.176 391.365 139.168 389.192 140.681L113.249 300.033C106.483 304.398 100.852 310.31 96.8203 317.28C92.7891 324.25 90.4734 332.08 90.0642 340.121V515.977C89.8205 518.686 90.2477 521.414 91.3081 523.919C92.3685 526.425 94.0294 528.63 96.1442 530.342C96.9199 530.835 97.7493 531.239 98.6164 531.544L103.16 533.816L104.496 532.079C107.546 531.683 110.481 530.659 113.115 529.072L389.058 369.72C395.813 365.343 401.435 359.428 405.465 352.46C409.495 345.492 411.817 337.669 412.243 329.631V153.576C412.437 149.549 411.387 145.56 409.236 142.151Z" fill="#4F4752"/>
<path d="M416.788 155.514V332.171C416.37 340.203 414.058 348.022 410.04 354.989C406.022 361.957 400.412 367.875 393.67 372.259L388.592 375.199L320.575 414.286L278.282 438.673L275.676 440.21L246.144 457.247L217.28 473.884L120.667 529.674L117.66 531.411C114.048 533.781 109.733 534.842 105.433 534.418C98.7518 533.549 94.5425 527.736 94.5425 518.249V341.859C94.9656 333.828 97.2802 326.011 101.298 319.045C105.315 312.078 110.921 306.159 117.66 301.77L167.637 272.907L280.62 207.696L338.949 174.289L393.67 142.752C395.978 141.104 398.668 140.073 401.487 139.758C404.305 139.442 407.157 139.852 409.772 140.948C411.103 141.676 412.282 142.651 413.247 143.821C414.105 144.98 414.822 146.236 415.385 147.563C416.305 150.113 416.779 152.803 416.788 155.514Z" fill="white"/>
<path d="M280.619 207.896L217.279 473.884L120.666 529.674L117.659 531.411C114.047 533.781 109.732 534.842 105.432 534.418L167.636 273.107L280.619 207.896Z" fill="#A4B0C4"/>
<path d="M416.786 155.515V256.471L388.59 375L320.573 414.286L278.28 438.674L275.674 440.21L338.947 174.156L393.668 142.62C395.976 140.972 398.667 139.941 401.485 139.625C404.303 139.309 407.155 139.719 409.77 140.816C411.101 141.543 412.28 142.518 413.245 143.689C414.103 144.847 414.82 146.103 415.383 147.43C416.318 150.023 416.793 152.759 416.786 155.515Z" fill="#A4B0C4"/>
<path d="M371.486 226.469L351.442 237.961C343.491 242.505 337.077 237.961 337.077 227.071C337.162 221.69 338.505 216.404 341 211.635C343.494 206.867 347.07 202.748 351.442 199.61L371.486 188.185C379.37 183.641 385.785 188.185 385.785 199.075C385.707 204.441 384.373 209.714 381.89 214.471C379.407 219.229 375.844 223.338 371.486 226.469Z" fill="#FFD70E"/>
<path d="M348.635 239.7L338.546 245.513C330.662 250.056 324.181 245.513 324.181 234.622C324.281 229.245 325.632 223.964 328.125 219.198C330.618 214.432 334.186 210.311 338.546 207.162L348.635 201.416C356.519 196.805 363 201.416 363 212.24C362.899 217.617 361.549 222.898 359.056 227.664C356.563 232.43 352.995 236.551 348.635 239.7Z" fill="#FF3434"/>
<path d="M162.223 389.162L127.479 409.206C122.669 411.946 118.86 409.206 118.86 402.525V388.561C118.914 385.338 119.722 382.173 121.219 379.319C122.716 376.465 124.86 374.001 127.479 372.124L162.223 352.08C166.967 349.341 170.842 352.08 170.842 358.761V372.926C170.762 376.115 169.942 379.242 168.446 382.06C166.95 384.878 164.82 387.309 162.223 389.162Z" fill="#132541"/>
<path d="M155.609 369.452L170.843 360.632V358.828L155.609 367.581V355.889L153.939 356.824V362.637L136.767 372.592V366.846L135.097 367.782V379.474L118.928 388.828V390.699L135.097 381.345V391.567L118.928 400.921V402.792L135.097 393.438V404.93L136.767 403.928V398.249L154.006 388.294V394.04L155.676 393.104V381.278L170.91 372.525V370.655L155.676 379.407L155.609 369.452ZM153.939 374.463V386.289L136.767 396.244V374.463L153.939 364.842V374.463Z" fill="#FFE600"/>
<path d="M220.018 391.569C220.033 392.388 219.897 393.204 219.617 393.974C219.355 394.709 218.996 395.406 218.548 396.045C218.014 396.69 217.408 397.272 216.744 397.782C216.048 398.348 215.311 398.861 214.539 399.319C213.825 399.761 213.063 400.12 212.268 400.388C211.695 400.509 211.103 400.509 210.53 400.388C210.297 400.36 210.076 400.271 209.888 400.131C209.701 399.99 209.554 399.802 209.461 399.586C209.157 399.036 209.018 398.41 209.061 397.782V389.631C209.103 388.13 209.618 386.681 210.53 385.489C211.647 384.091 213.033 382.933 214.606 382.081C215.299 381.662 216.039 381.326 216.811 381.079C217.384 380.958 217.975 380.958 218.548 381.079C218.991 381.205 219.372 381.491 219.617 381.881C219.923 382.406 220.063 383.012 220.018 383.618V391.569Z" fill="#020414"/>
<path d="M235.987 382.081C236.002 382.9 235.866 383.716 235.586 384.486C235.354 385.234 234.992 385.935 234.517 386.557C233.983 387.202 233.378 387.785 232.713 388.294C232.017 388.86 231.28 389.373 230.509 389.831C229.794 390.273 229.032 390.632 228.237 390.9C227.664 391.021 227.072 391.021 226.5 390.9C226.267 390.872 226.045 390.783 225.858 390.643C225.67 390.502 225.523 390.314 225.431 390.098C225.127 389.548 224.987 388.922 225.03 388.294V380.41C225.039 378.903 225.556 377.443 226.5 376.268C227.616 374.871 229.002 373.712 230.575 372.86C231.269 372.441 232.009 372.105 232.78 371.858C233.353 371.737 233.945 371.737 234.517 371.858C234.741 371.911 234.952 372.009 235.136 372.147C235.319 372.285 235.473 372.46 235.586 372.66C235.881 373.189 236.021 373.792 235.987 374.397V382.081Z" fill="#020414"/>
<path d="M251.957 372.86C251.972 373.68 251.836 374.495 251.556 375.265C251.295 376.001 250.935 376.697 250.487 377.337C249.953 377.981 249.348 378.564 248.683 379.074C247.987 379.639 247.25 380.153 246.478 380.61C245.764 381.052 245.002 381.411 244.207 381.679C243.634 381.8 243.042 381.8 242.47 381.679C242.237 381.651 242.015 381.563 241.828 381.422C241.64 381.281 241.493 381.093 241.401 380.878C241.097 380.327 240.957 379.701 241 379.074V371.524C241.043 370.023 241.557 368.573 242.47 367.381C243.586 365.984 244.972 364.825 246.545 363.974C247.238 363.555 247.979 363.218 248.75 362.971C249.323 362.851 249.915 362.851 250.487 362.971C250.93 363.098 251.311 363.383 251.556 363.773C251.851 364.303 251.991 364.905 251.957 365.51V372.86Z" fill="#020414"/>
<path d="M276.543 358.694C276.558 359.514 276.422 360.329 276.142 361.1C275.856 361.837 275.474 362.534 275.006 363.171C274.496 363.815 273.913 364.398 273.269 364.908C272.549 365.474 271.79 365.987 270.997 366.445C270.29 366.899 269.526 367.258 268.725 367.514C268.153 367.635 267.561 367.635 266.988 367.514C266.767 367.477 266.557 367.392 266.372 367.265C266.188 367.138 266.033 366.972 265.919 366.779C265.681 366.185 265.567 365.548 265.585 364.908V357.024C265.59 355.548 266.083 354.115 266.988 352.948C268.105 351.508 269.518 350.323 271.131 349.474C271.824 349.055 272.564 348.719 273.336 348.472C273.881 348.314 274.46 348.314 275.006 348.472C275.236 348.508 275.456 348.593 275.652 348.719C275.847 348.846 276.014 349.012 276.142 349.207C276.437 349.736 276.576 350.339 276.543 350.944V358.694Z" fill="#020414"/>
<path d="M292.512 349.476C292.527 350.295 292.391 351.111 292.111 351.881C291.826 352.619 291.444 353.315 290.975 353.952C290.465 354.596 289.882 355.179 289.238 355.689C288.518 356.255 287.759 356.769 286.966 357.226C286.259 357.68 285.495 358.04 284.695 358.295C284.122 358.416 283.53 358.416 282.957 358.295C282.736 358.258 282.526 358.173 282.342 358.046C282.157 357.919 282.002 357.753 281.888 357.56C281.65 356.966 281.536 356.329 281.554 355.689V347.805C281.559 346.329 282.052 344.896 282.957 343.73C284.068 342.308 285.454 341.127 287.033 340.255C287.755 339.847 288.516 339.511 289.305 339.253C289.85 339.095 290.43 339.095 290.975 339.253C291.205 339.29 291.425 339.374 291.621 339.5C291.816 339.627 291.983 339.793 292.111 339.988C292.406 340.518 292.545 341.12 292.512 341.725V349.476Z" fill="#020414"/>
<path d="M308.479 340.255C308.494 341.075 308.358 341.89 308.078 342.66C307.792 343.398 307.411 344.094 306.942 344.732C306.432 345.375 305.849 345.958 305.205 346.469C304.502 347.057 303.741 347.572 302.933 348.005C302.226 348.459 301.462 348.819 300.662 349.074C300.089 349.195 299.497 349.195 298.924 349.074C298.703 349.037 298.493 348.952 298.309 348.825C298.124 348.698 297.969 348.533 297.855 348.339C297.585 347.755 297.47 347.111 297.521 346.469V338.585C297.526 337.108 298.019 335.675 298.924 334.509C300.035 333.088 301.421 331.906 303 331.035C303.722 330.626 304.483 330.29 305.272 330.032C305.817 329.875 306.396 329.875 306.942 330.032C307.172 330.069 307.392 330.153 307.588 330.28C307.783 330.406 307.95 330.572 308.078 330.767C308.373 331.297 308.512 331.899 308.479 332.505V340.255Z" fill="#020414"/>
<path d="M349.636 316.47C349.678 317.291 349.542 318.112 349.235 318.875C349.003 319.623 348.641 320.324 348.166 320.946C347.632 321.591 347.027 322.173 346.362 322.683C345.666 323.249 344.929 323.762 344.157 324.22C343.429 324.634 342.669 324.992 341.886 325.289C341.313 325.41 340.721 325.41 340.149 325.289C339.923 325.24 339.711 325.143 339.527 325.005C339.342 324.866 339.19 324.69 339.08 324.487C338.775 323.937 338.636 323.311 338.679 322.683V314.799C338.721 313.298 339.236 311.849 340.149 310.657C341.265 309.26 342.651 308.101 344.224 307.249C344.934 306.817 345.698 306.48 346.496 306.247C347.046 306.123 347.616 306.123 348.166 306.247C348.395 306.287 348.611 306.38 348.797 306.519C348.983 306.659 349.133 306.84 349.235 307.049C349.542 307.574 349.681 308.18 349.636 308.786V316.47Z" fill="#020414"/>
<path d="M365.605 307.249C365.648 308.07 365.511 308.891 365.205 309.654C364.972 310.402 364.611 311.103 364.136 311.725C363.601 312.37 362.996 312.952 362.332 313.462C361.635 314.028 360.898 314.541 360.127 314.999C359.405 315.426 358.644 315.784 357.855 316.068C357.282 316.189 356.691 316.189 356.118 316.068C355.893 316.019 355.68 315.922 355.496 315.784C355.311 315.646 355.159 315.469 355.049 315.266C354.745 314.716 354.606 314.09 354.648 313.462V305.578C354.691 304.077 355.205 302.628 356.118 301.436C357.235 300.039 358.621 298.88 360.194 298.028C360.887 297.609 361.627 297.273 362.398 297.026C362.971 296.905 363.563 296.905 364.136 297.026C364.364 297.066 364.581 297.159 364.766 297.299C364.952 297.438 365.102 297.619 365.205 297.828C365.511 298.353 365.651 298.959 365.605 299.565V307.249Z" fill="#020414"/>
<path d="M381.575 298.03C381.59 298.85 381.454 299.665 381.174 300.435C380.941 301.183 380.58 301.884 380.105 302.507C379.57 303.151 378.965 303.734 378.301 304.244C377.604 304.809 376.867 305.323 376.096 305.78C375.382 306.222 374.62 306.581 373.824 306.849C373.251 306.97 372.66 306.97 372.087 306.849C371.854 306.821 371.633 306.733 371.445 306.592C371.257 306.451 371.11 306.263 371.018 306.048C370.79 305.636 370.653 305.18 370.617 304.711V296.36C370.66 294.859 371.174 293.409 372.087 292.217C373.204 290.82 374.59 289.661 376.163 288.81C376.856 288.39 377.596 288.054 378.368 287.807C378.94 287.687 379.532 287.687 380.105 287.807C380.328 287.86 380.539 287.959 380.723 288.097C380.907 288.235 381.06 288.409 381.174 288.609C381.48 289.134 381.62 289.74 381.575 290.346V298.03Z" fill="#020414"/>
<path d="M397.343 288.807C397.505 289.646 397.505 290.508 397.343 291.346C397.111 292.094 396.749 292.795 396.274 293.418C395.739 294.062 395.134 294.645 394.47 295.155C393.774 295.72 393.037 296.234 392.265 296.691C391.551 297.133 390.789 297.492 389.993 297.76C389.421 297.881 388.829 297.881 388.256 297.76C388.023 297.732 387.802 297.644 387.614 297.503C387.427 297.362 387.279 297.174 387.187 296.959C386.883 296.408 386.744 295.782 386.786 295.155V287.137C386.829 285.636 387.343 284.187 388.256 282.994C389.373 281.597 390.759 280.439 392.332 279.587C393.025 279.168 393.765 278.831 394.537 278.585C395.11 278.464 395.701 278.464 396.274 278.585C396.498 278.638 396.708 278.736 396.892 278.874C397.076 279.012 397.23 279.186 397.343 279.386C397.638 279.916 397.777 280.518 397.744 281.124L397.343 288.807Z" fill="#020414"/>
<path d="M324.449 331.034C324.464 331.854 324.328 332.669 324.048 333.44C323.762 334.177 323.38 334.874 322.912 335.511C322.402 336.155 321.819 336.738 321.175 337.248C320.472 337.837 319.711 338.352 318.903 338.785C318.196 339.239 317.432 339.598 316.631 339.854C316.059 339.975 315.467 339.975 314.894 339.854C314.673 339.817 314.463 339.732 314.278 339.605C314.094 339.478 313.939 339.312 313.825 339.119C313.587 338.525 313.473 337.888 313.491 337.248V329.364C313.496 327.888 313.989 326.454 314.894 325.288C316.004 323.867 317.391 322.685 318.97 321.814C319.692 321.405 320.453 321.07 321.242 320.812C321.787 320.654 322.366 320.654 322.912 320.812C323.142 320.848 323.362 320.932 323.558 321.059C323.753 321.186 323.92 321.352 324.048 321.547C324.343 322.076 324.482 322.678 324.449 323.284V331.034Z" fill="#020414"/>
<path d="M347.433 346.736C347.508 347.268 347.508 347.808 347.433 348.34C347.247 348.85 346.976 349.324 346.631 349.743C346.304 350.189 345.922 350.593 345.496 350.946C345.011 351.34 344.497 351.697 343.959 352.015C343.469 352.285 342.954 352.509 342.422 352.683C342.031 352.806 341.611 352.806 341.219 352.683C341.068 352.67 340.922 352.621 340.794 352.54C340.666 352.458 340.56 352.347 340.484 352.215C340.403 351.796 340.403 351.365 340.484 350.946V345.467C340.508 344.479 340.834 343.523 341.42 342.728C342.186 341.765 343.141 340.969 344.226 340.389L345.696 339.654C346.068 339.558 346.459 339.558 346.832 339.654C347.156 339.726 347.442 339.917 347.634 340.189C347.717 340.563 347.717 340.951 347.634 341.325L347.433 346.736Z" fill="#020414"/>
<path d="M385.85 324.753C385.952 325.305 385.952 325.871 385.85 326.423C385.686 326.929 385.437 327.403 385.115 327.826C384.749 328.26 384.346 328.662 383.913 329.029L382.376 330.031C381.897 330.341 381.381 330.588 380.839 330.766C380.466 330.859 380.076 330.859 379.704 330.766C379.398 330.691 379.134 330.499 378.969 330.232C378.877 329.836 378.877 329.425 378.969 329.029V323.416C378.978 322.395 379.331 321.406 379.971 320.61C380.745 319.681 381.671 318.891 382.71 318.272C383.194 317.99 383.71 317.765 384.247 317.604C384.623 317.549 385.006 317.549 385.383 317.604C385.539 317.629 385.686 317.69 385.814 317.783C385.942 317.876 386.046 317.997 386.118 318.138C386.241 318.53 386.241 318.949 386.118 319.341L385.85 324.753Z" fill="#020414"/>
<path d="M130.754 434.93C130.914 434.362 130.914 433.761 130.754 433.193C130.485 432.81 130.078 432.546 129.619 432.458C129.096 432.298 128.538 432.298 128.015 432.458C127.243 432.705 126.503 433.041 125.81 433.46C124.185 434.291 122.769 435.479 121.668 436.934C120.739 438.092 120.221 439.526 120.198 441.01V449.161C120.196 449.785 120.333 450.401 120.599 450.965C120.817 451.296 121.15 451.534 121.534 451.634C122.103 451.79 122.703 451.79 123.271 451.634C124.067 451.365 124.829 451.006 125.543 450.565C126.323 450.145 127.061 449.653 127.748 449.095C128.432 448.557 129.039 447.927 129.552 447.224C130.008 446.603 130.389 445.93 130.688 445.219C130.968 444.449 131.103 443.634 131.088 442.814L130.754 434.93Z" fill="#020414"/>
<path d="M145.32 423.172C144.814 423.052 144.288 423.052 143.783 423.172C142.989 423.417 142.227 423.753 141.511 424.174C139.962 425.06 138.582 426.214 137.436 427.581C136.523 428.774 136.008 430.223 135.966 431.724V439.808C135.957 440.433 136.094 441.05 136.366 441.612C136.449 441.797 136.579 441.956 136.743 442.073C136.908 442.191 137.101 442.262 137.302 442.28C137.875 442.401 138.466 442.401 139.039 442.28C139.84 442.025 140.603 441.665 141.311 441.211C142.092 440.77 142.831 440.255 143.516 439.675C144.195 439.183 144.803 438.598 145.32 437.938C145.795 437.315 146.156 436.614 146.389 435.866C146.695 435.103 146.832 434.282 146.789 433.461V425.711C146.859 425.103 146.717 424.489 146.389 423.973C146.272 423.776 146.118 423.603 145.934 423.466C145.751 423.328 145.542 423.228 145.32 423.172Z" fill="#020414"/>
<path d="M203.583 390.899C203.477 390.7 203.324 390.529 203.138 390.401C202.952 390.273 202.738 390.192 202.514 390.164C201.945 390.008 201.345 390.008 200.777 390.164C199.994 390.383 199.251 390.721 198.572 391.166C196.977 392.015 195.586 393.2 194.496 394.641C193.567 395.798 193.05 397.232 193.026 398.716V406.935C192.984 407.562 193.123 408.188 193.427 408.739C193.529 408.947 193.679 409.129 193.865 409.268C194.051 409.407 194.267 409.501 194.496 409.54C195.069 409.657 195.66 409.657 196.233 409.54C197.022 409.256 197.783 408.898 198.505 408.471C199.276 408.014 200.013 407.5 200.71 406.935C201.376 406.402 201.981 405.797 202.514 405.131C202.998 404.539 203.362 403.858 203.583 403.126C203.888 402.339 204.025 401.497 203.984 400.654V392.57C204.012 391.986 203.872 391.407 203.583 390.899Z" fill="#020414"/>
<path d="M161.222 414.019C160.677 413.861 160.097 413.861 159.552 414.019C158.785 414.278 158.046 414.614 157.347 415.021C155.768 415.892 154.381 417.074 153.271 418.495C152.352 419.68 151.858 421.139 151.868 422.638V430.722C151.816 431.343 151.931 431.966 152.202 432.526C152.463 432.843 152.812 433.076 153.204 433.194C153.773 433.348 154.373 433.348 154.942 433.194C155.742 432.939 156.506 432.579 157.213 432.125C158.014 431.706 158.774 431.214 159.485 430.655C160.098 430.088 160.678 429.486 161.222 428.851C161.697 428.229 162.059 427.528 162.291 426.78C162.597 426.017 162.734 425.196 162.692 424.375V416.491C162.725 415.886 162.586 415.283 162.291 414.754C162.185 414.554 162.033 414.383 161.847 414.255C161.661 414.127 161.446 414.046 161.222 414.019Z" fill="#020414"/>
<path d="M177.192 404.931C176.642 404.807 176.071 404.807 175.521 404.931C174.755 405.19 174.016 405.526 173.316 405.933C171.749 406.821 170.366 408 169.241 409.407C168.336 410.573 167.842 412.007 167.838 413.483V421.567C167.778 422.188 167.894 422.813 168.172 423.371C168.275 423.553 168.419 423.709 168.593 423.825C168.767 423.941 168.966 424.014 169.174 424.039C169.747 424.16 170.338 424.16 170.911 424.039C171.7 423.782 172.461 423.446 173.183 423.037L175.454 421.434C176.098 420.923 176.681 420.34 177.192 419.697C178.197 418.422 178.739 416.843 178.728 415.22V407.269C178.729 406.667 178.592 406.073 178.327 405.532C178.036 405.199 177.631 404.985 177.192 404.931Z" fill="#020414"/>
<path d="M357.253 340.723C357.359 341.252 357.359 341.797 357.253 342.327C357.09 342.833 356.841 343.307 356.518 343.73C356.187 344.195 355.781 344.601 355.316 344.932C354.831 345.326 354.317 345.684 353.779 346.001C353.295 346.284 352.779 346.508 352.242 346.67C351.873 346.792 351.475 346.792 351.106 346.67C350.952 346.671 350.8 346.627 350.67 346.544C350.539 346.461 350.436 346.342 350.371 346.202C350.258 345.786 350.258 345.348 350.371 344.932V339.454C350.39 338.454 350.743 337.49 351.374 336.714C352.115 335.753 353.048 334.957 354.113 334.376C354.605 334.09 355.118 333.844 355.65 333.641C356.022 333.542 356.413 333.542 356.786 333.641C356.941 333.666 357.089 333.727 357.217 333.82C357.345 333.913 357.449 334.035 357.52 334.175C357.634 334.545 357.634 334.941 357.52 335.311L357.253 340.723Z" fill="#020414"/>
<path d="M374.759 330.967C374.861 331.497 374.861 332.041 374.759 332.571C374.541 333.052 374.295 333.52 374.025 333.974C373.658 334.407 373.255 334.81 372.822 335.176C372.336 335.549 371.822 335.884 371.285 336.179C370.801 336.479 370.286 336.725 369.748 336.913C369.375 337.002 368.986 337.002 368.613 336.913C368.453 336.901 368.299 336.844 368.17 336.75C368.04 336.656 367.939 336.527 367.878 336.379C367.755 335.988 367.755 335.568 367.878 335.176V329.698C367.887 328.676 368.24 327.687 368.88 326.891C369.622 325.932 370.555 325.136 371.619 324.553L373.089 323.885C373.484 323.788 373.897 323.788 374.292 323.885C374.584 323.949 374.845 324.115 375.027 324.352C375.118 324.748 375.118 325.159 375.027 325.555L374.759 330.967Z" fill="#020414"/>
</svg>
