<svg width="230" height="264" viewBox="0 0 230 264" fill="none" xmlns="http://www.w3.org/2000/svg">
<path d="M224.951 34.1962L225.568 33.6192L223.174 31.8969L222.902 31.8512L222.435 31.5327C221.044 30.8162 219.506 30.4298 217.942 30.4036C216.377 30.3773 214.827 30.7119 213.413 31.3813L37.0348 97.2873C32.6652 99.1702 28.8061 102.065 25.7759 105.733C22.7457 109.402 20.6312 113.738 19.6071 118.384L2.42652 220.867C2.0198 222.422 2.00227 224.053 2.37547 225.617C2.74866 227.181 3.50109 228.628 4.56635 229.832C4.97015 230.196 5.41409 230.512 5.88953 230.775L8.31531 232.542L9.26376 231.661C11.0798 231.728 12.8902 231.418 14.5804 230.75L190.959 164.845C195.323 162.953 199.177 160.056 202.206 156.389C205.236 152.722 207.353 148.39 208.386 143.747L225.587 41.1482C226.093 38.8205 225.871 36.3934 224.951 34.1962Z" fill="#4F4752"/>
<path d="M228.046 42.7211L210.787 145.671C209.759 150.311 207.647 154.641 204.625 158.309C201.603 161.977 197.756 164.878 193.398 166.774L190.152 167.991L146.695 184.125L119.666 194.205L117.997 194.846L99.1221 201.889L80.676 208.765L18.9225 231.838L17.0006 232.557C14.6638 233.585 12.0455 233.782 9.58137 233.115C5.77252 231.956 3.8874 228.157 4.81431 222.628L22.0471 119.834C23.0783 115.195 25.1909 110.866 28.2127 107.198C31.2345 103.531 35.08 100.63 39.4359 98.7303L71.3807 86.7921L143.594 59.8277L180.85 46.0578L215.82 33.0256C217.326 32.2906 218.995 31.9527 220.668 32.044C222.341 32.1354 223.964 32.6529 225.381 33.5474C226.085 34.1013 226.677 34.7849 227.125 35.5612C227.511 36.32 227.807 37.1221 228.005 37.9505C228.292 39.5266 228.306 41.1403 228.046 42.7211Z" fill="#5383D0"/>
<path d="M143.576 59.9434L80.677 208.764L18.9235 231.837L17.0016 232.556C14.6649 233.584 12.0465 233.781 9.58237 233.113L71.3621 86.9079L143.576 59.9434Z" fill="#4577C9"/>
<path d="M228.045 42.7218L218.182 101.556L190.17 167.875L146.694 184.125L119.664 194.205L117.996 194.846L180.862 45.9806L215.832 32.9485C217.338 32.2134 219.007 31.8756 220.68 31.9669C222.353 32.0582 223.975 32.5758 225.392 33.4703C226.097 34.0242 226.689 34.7077 227.136 35.484C227.523 36.2429 227.819 37.0449 228.017 37.8734C228.309 39.4756 228.318 41.1164 228.045 42.7218Z" fill="#315EA7"/>
<path d="M194.714 79.6451L181.91 84.384C176.833 86.255 173.539 82.9806 174.603 76.6339C175.178 73.5064 176.477 70.5571 178.397 68.0219C180.316 65.4867 182.803 63.4361 185.657 62.0342L198.454 57.3342C203.493 55.4567 206.787 58.7311 205.723 65.0778C205.153 68.1972 203.861 71.1398 201.949 73.6696C200.037 76.1994 197.559 78.2459 194.714 79.6451Z" fill="#132541"/>
<path d="M180.104 85.1234L173.657 87.5253C168.618 89.4028 165.285 86.1219 166.349 79.7751C166.933 76.651 168.236 73.7055 170.155 71.1717C172.073 68.6378 174.555 66.5849 177.404 65.1754L183.845 62.8125C188.889 60.8961 192.216 64.2159 191.158 70.5237C190.574 73.6479 189.272 76.5933 187.353 79.1272C185.434 81.6611 182.953 83.7139 180.104 85.1234Z" fill="white"/>
<path d="M56.867 154.013L34.6614 162.299C31.5903 163.426 29.6386 161.457 30.2913 157.564L31.6556 149.426C32.002 147.553 32.7819 145.788 33.9329 144.271C35.084 142.754 36.5742 141.527 38.2842 140.689L60.4898 132.403C63.5219 131.27 65.5127 133.245 64.8599 137.138L63.4761 145.393C63.1179 147.244 62.3344 148.986 61.1874 150.482C60.0404 151.978 58.5613 153.186 56.867 154.013Z" fill="#132541"/>
<path d="M54.9392 141.88L64.6785 138.229L64.8547 137.178L55.122 140.79L56.2643 133.976L55.1995 134.358L54.6316 137.746L43.6521 141.87L44.2135 138.521L43.1487 138.903L42.0063 145.717L31.6697 149.589L31.4869 150.679L41.8236 146.807L40.8248 152.765L30.4882 156.636L30.3055 157.726L40.6421 153.855L39.5193 160.552L40.5907 160.131L41.1455 156.822L52.1639 152.704L51.6025 156.053L52.6673 155.671L53.8227 148.779L63.5555 145.166L63.7382 144.076L54.0055 147.689L54.9392 141.88ZM53.4762 144.638L52.3208 151.529L41.3413 155.653L43.4693 142.96L54.4162 139.031L53.4762 144.638Z" fill="#F5F4F9" fill-opacity="0.4"/>
<path d="M90.3135 161.061C90.2422 161.54 90.0833 162.002 89.8448 162.424C89.6205 162.827 89.3429 163.198 89.0195 163.527C88.645 163.85 88.2354 164.13 87.7985 164.363C87.3374 164.624 86.8577 164.851 86.3634 165.043C85.9041 165.23 85.425 165.365 84.9351 165.444C84.5895 165.458 84.2447 165.4 83.9227 165.274C83.7898 165.235 83.6694 165.162 83.5738 165.061C83.4782 164.961 83.4107 164.837 83.3781 164.702C83.2547 164.352 83.2348 163.973 83.3207 163.612L84.1171 158.862C84.2887 157.991 84.7299 157.197 85.3784 156.591C86.1657 155.886 87.0866 155.346 88.0864 155.004C88.5314 154.827 88.9955 154.703 89.4693 154.635C89.8149 154.62 90.1597 154.678 90.4817 154.805C90.7274 154.922 90.9213 155.125 91.0263 155.376C91.1534 155.712 91.1758 156.079 91.0903 156.428L90.3135 161.061Z" fill="white"/>
<path d="M100.547 157.093C100.476 157.572 100.317 158.034 100.078 158.456C99.8699 158.869 99.5906 159.242 99.253 159.558C98.8785 159.882 98.4689 160.162 98.032 160.394C97.5709 160.656 97.0912 160.883 96.5969 161.075C96.1377 161.262 95.6585 161.397 95.1686 161.476C94.8231 161.49 94.4782 161.432 94.1562 161.306C94.0233 161.267 93.903 161.193 93.8073 161.093C93.7117 160.993 93.6442 160.869 93.6116 160.734C93.4882 160.384 93.4683 160.005 93.5543 159.644L94.3245 155.049C94.4768 154.172 94.9213 153.372 95.5858 152.779C96.3731 152.074 97.294 151.534 98.2939 151.191C98.7388 151.015 99.2029 150.891 99.6767 150.822C100.022 150.808 100.367 150.866 100.689 150.992C100.814 151.045 100.927 151.123 101.021 151.221C101.115 151.32 101.187 151.436 101.234 151.564C101.354 151.901 101.376 152.266 101.298 152.615L100.547 157.093Z" fill="white"/>
<path d="M110.755 153.279C110.683 153.758 110.525 154.22 110.286 154.642C110.062 155.045 109.784 155.416 109.461 155.744C109.086 156.068 108.677 156.348 108.24 156.581C107.779 156.842 107.299 157.069 106.805 157.261C106.345 157.448 105.866 157.583 105.376 157.662C105.031 157.676 104.686 157.618 104.364 157.492C104.231 157.453 104.111 157.38 104.015 157.279C103.919 157.179 103.852 157.055 103.819 156.92C103.696 156.57 103.676 156.191 103.762 155.83L104.5 151.43C104.671 150.56 105.113 149.765 105.761 149.16C106.548 148.454 107.469 147.915 108.469 147.572C108.914 147.395 109.378 147.272 109.852 147.203C110.197 147.189 110.542 147.247 110.864 147.373C111.11 147.49 111.304 147.694 111.409 147.945C111.529 148.282 111.551 148.647 111.473 148.996L110.755 153.279Z" fill="white"/>
<path d="M126.466 147.427C126.395 147.906 126.236 148.368 125.998 148.79C125.759 149.192 125.468 149.56 125.133 149.886C124.773 150.211 124.376 150.494 123.951 150.728C123.476 150.988 122.984 151.213 122.477 151.402C122.021 151.597 121.54 151.732 121.049 151.803C120.703 151.817 120.358 151.76 120.037 151.633C119.911 151.59 119.797 151.52 119.702 151.428C119.607 151.336 119.533 151.224 119.485 151.101C119.405 150.731 119.4 150.349 119.473 149.978L120.244 145.383C120.391 144.523 120.818 143.736 121.46 143.145C122.251 142.415 123.19 141.862 124.213 141.525C124.658 141.348 125.122 141.225 125.596 141.156C125.929 141.118 126.267 141.174 126.569 141.32C126.7 141.363 126.82 141.434 126.921 141.527C127.023 141.62 127.104 141.733 127.159 141.859C127.28 142.196 127.302 142.561 127.223 142.91L126.466 147.427Z" fill="white"/>
<path d="M136.673 143.615C136.601 144.094 136.442 144.556 136.204 144.977C135.966 145.379 135.675 145.748 135.34 146.073C134.979 146.399 134.583 146.681 134.158 146.916C133.683 147.175 133.19 147.4 132.684 147.59C132.227 147.785 131.747 147.92 131.255 147.991C130.91 148.005 130.565 147.947 130.243 147.821C130.118 147.778 130.004 147.708 129.908 147.616C129.813 147.523 129.739 147.412 129.692 147.288C129.611 146.919 129.607 146.536 129.68 146.165L130.45 141.571C130.597 140.711 131.025 139.924 131.666 139.333C132.452 138.613 133.375 138.059 134.381 137.706C134.841 137.538 135.318 137.417 135.802 137.344C136.136 137.305 136.473 137.362 136.776 137.507C136.906 137.551 137.026 137.621 137.128 137.714C137.229 137.807 137.311 137.92 137.366 138.046C137.486 138.384 137.508 138.748 137.43 139.098L136.673 143.615Z" fill="white"/>
<path d="M146.878 139.799C146.807 140.278 146.648 140.74 146.41 141.162C146.171 141.564 145.881 141.932 145.545 142.258C145.185 142.583 144.789 142.866 144.363 143.1C143.896 143.375 143.402 143.601 142.889 143.774C142.433 143.97 141.953 144.104 141.461 144.175C141.115 144.19 140.771 144.132 140.449 144.005C140.324 143.962 140.209 143.892 140.114 143.8C140.019 143.708 139.945 143.596 139.898 143.473C139.797 143.106 139.793 142.719 139.886 142.35L140.656 137.755C140.803 136.895 141.23 136.108 141.872 135.517C142.658 134.797 143.581 134.244 144.586 133.891C145.047 133.723 145.523 133.602 146.008 133.529C146.341 133.49 146.679 133.546 146.982 133.692C147.112 133.735 147.232 133.806 147.334 133.899C147.435 133.992 147.516 134.105 147.572 134.231C147.692 134.568 147.714 134.933 147.636 135.283L146.878 139.799Z" fill="white"/>
<path d="M173.187 129.96C173.132 130.442 172.972 130.907 172.719 131.322C172.51 131.735 172.231 132.108 171.893 132.425C171.519 132.748 171.109 133.029 170.672 133.261C170.211 133.522 169.731 133.75 169.237 133.941C168.772 134.111 168.295 134.245 167.809 134.342C167.463 134.357 167.119 134.299 166.797 134.172C166.67 134.122 166.556 134.045 166.462 133.946C166.368 133.847 166.296 133.73 166.252 133.601C166.128 133.25 166.109 132.872 166.194 132.51L166.965 127.916C167.136 127.045 167.578 126.251 168.226 125.645C169.013 124.94 169.934 124.4 170.934 124.058C171.39 123.875 171.868 123.753 172.356 123.695C172.688 123.677 173.021 123.733 173.329 123.859C173.459 123.904 173.576 123.98 173.67 124.079C173.765 124.178 173.835 124.299 173.874 124.43C174.001 124.766 174.023 125.133 173.938 125.482L173.187 129.96Z" fill="white"/>
<path d="M183.395 126.146C183.339 126.629 183.179 127.094 182.926 127.508C182.718 127.921 182.438 128.295 182.101 128.611C181.726 128.934 181.317 129.215 180.88 129.447C180.419 129.709 179.939 129.936 179.445 130.127C178.982 130.306 178.504 130.44 178.016 130.528C177.671 130.543 177.326 130.485 177.004 130.359C176.878 130.308 176.763 130.231 176.669 130.132C176.575 130.034 176.504 129.916 176.459 129.787C176.336 129.437 176.316 129.058 176.402 128.696L177.172 124.102C177.344 123.231 177.785 122.437 178.434 121.831C179.221 121.126 180.142 120.586 181.142 120.244C181.587 120.067 182.051 119.944 182.525 119.875C182.87 119.861 183.215 119.919 183.537 120.045C183.666 120.09 183.783 120.166 183.878 120.265C183.973 120.365 184.042 120.485 184.082 120.617C184.209 120.953 184.231 121.319 184.145 121.668L183.395 126.146Z" fill="white"/>
<path d="M193.602 122.335C193.531 122.814 193.372 123.276 193.134 123.697C192.925 124.11 192.646 124.483 192.309 124.8C191.934 125.123 191.524 125.404 191.087 125.636C190.626 125.897 190.147 126.125 189.652 126.316C189.193 126.504 188.714 126.638 188.224 126.717C187.879 126.732 187.534 126.674 187.212 126.547C187.079 126.508 186.958 126.435 186.863 126.334C186.767 126.234 186.7 126.11 186.667 125.976C186.574 125.714 186.539 125.435 186.564 125.158L187.38 120.291C187.552 119.42 187.993 118.626 188.641 118.02C189.429 117.315 190.35 116.775 191.349 116.433C191.794 116.256 192.258 116.132 192.732 116.064C193.078 116.049 193.423 116.107 193.745 116.234C193.87 116.286 193.983 116.364 194.077 116.463C194.17 116.561 194.243 116.678 194.289 116.805C194.416 117.141 194.439 117.508 194.353 117.857L193.602 122.335Z" fill="white"/>
<path d="M203.692 118.499C203.704 119.004 203.62 119.506 203.444 119.979C203.235 120.392 202.956 120.765 202.618 121.081C202.244 121.405 201.834 121.685 201.397 121.918C200.936 122.179 200.456 122.406 199.962 122.598C199.503 122.785 199.024 122.92 198.534 122.999C198.188 123.013 197.843 122.955 197.521 122.829C197.388 122.79 197.268 122.717 197.173 122.616C197.077 122.516 197.009 122.392 196.977 122.257C196.853 121.907 196.833 121.528 196.919 121.167L197.703 116.494C197.874 115.624 198.316 114.83 198.964 114.224C199.751 113.519 200.672 112.979 201.672 112.636C202.117 112.46 202.581 112.336 203.055 112.268C203.401 112.253 203.745 112.311 204.067 112.437C204.193 112.49 204.306 112.568 204.399 112.666C204.493 112.765 204.565 112.882 204.612 113.009C204.732 113.347 204.754 113.711 204.676 114.061L203.692 118.499Z" fill="white"/>
<path d="M168.946 147.383C168.938 147.701 168.885 148.015 168.79 148.318C168.631 148.597 168.427 148.847 168.185 149.057C167.951 149.285 167.689 149.484 167.406 149.647C167.085 149.829 166.751 149.988 166.406 150.12C166.094 150.23 165.772 150.31 165.445 150.359C165.205 150.393 164.96 150.352 164.744 150.242C164.657 150.22 164.577 150.177 164.51 150.117C164.444 150.057 164.393 149.982 164.362 149.897C164.355 149.645 164.397 149.394 164.486 149.158L165.021 145.965C165.131 145.392 165.415 144.866 165.834 144.46C166.374 143.974 167.009 143.603 167.698 143.371L168.626 143.086C168.852 143.067 169.08 143.105 169.288 143.197C169.47 143.271 169.618 143.41 169.703 143.587C169.715 143.813 169.677 144.039 169.592 144.249L168.946 147.383Z" fill="white"/>
<path d="M193.483 138.326C193.488 138.658 193.433 138.988 193.32 139.3C193.174 139.578 192.983 139.83 192.754 140.046C192.498 140.262 192.224 140.458 191.936 140.629L190.942 141.063C190.633 141.197 190.308 141.29 189.975 141.341C189.749 141.359 189.521 141.321 189.313 141.23C189.142 141.156 189.007 141.019 188.937 140.847C188.922 140.607 188.963 140.368 189.055 140.146L189.603 136.875C189.708 136.281 190.01 135.739 190.461 135.338C191.003 134.872 191.62 134.502 192.286 134.243C192.596 134.125 192.918 134.045 193.247 134.003C193.472 134.008 193.695 134.046 193.909 134.114C193.997 134.144 194.077 134.194 194.143 134.261C194.208 134.328 194.257 134.409 194.285 134.498C194.318 134.738 194.277 134.982 194.167 135.199L193.483 138.326Z" fill="white"/>
<path d="M34.0575 177.61C34.2061 177.295 34.2648 176.945 34.2272 176.598C34.1079 176.348 33.8962 176.155 33.637 176.059C33.3481 175.914 33.0227 175.86 32.7025 175.902C32.2288 175.97 31.7646 176.094 31.3197 176.271C30.2914 176.596 29.35 177.15 28.5662 177.891C27.9117 178.474 27.4702 179.26 27.3114 180.122L26.515 184.873C26.4531 185.236 26.4727 185.608 26.5724 185.963C26.6674 186.177 26.8384 186.348 27.0522 186.444C27.3683 186.59 27.718 186.649 28.0646 186.613C28.5544 186.535 29.0336 186.4 29.4929 186.212C29.9883 186.044 30.4665 185.83 30.9214 185.571C31.3727 185.325 31.788 185.017 32.1555 184.657C32.4822 184.34 32.7701 183.985 33.0132 183.6C33.2517 183.178 33.4105 182.717 33.4818 182.237L34.0575 177.61Z" fill="white"/>
<path d="M43.694 172.181C43.4112 172.062 43.1046 172.011 42.7984 172.031C42.3121 172.096 41.835 172.218 41.3767 172.393C40.3873 172.758 39.4704 173.295 38.6686 173.981C38.0202 174.586 37.5789 175.381 37.4073 176.251L36.6175 180.962C36.5514 181.325 36.571 181.699 36.6748 182.053C36.7048 182.168 36.7651 182.274 36.8494 182.358C36.9338 182.443 37.0391 182.503 37.1547 182.534C37.4766 182.66 37.8214 182.718 38.167 182.703C38.6586 182.633 39.1388 182.498 39.5953 182.302C40.094 182.121 40.5745 181.894 41.0304 181.622C41.4745 181.402 41.8856 181.121 42.2514 180.786C42.589 180.47 42.8684 180.096 43.0768 179.683C43.3298 179.268 43.4897 178.804 43.5454 178.321L44.3026 173.804C44.4022 173.457 44.3797 173.085 44.2387 172.753C44.1901 172.626 44.1169 172.51 44.0235 172.412C43.93 172.314 43.818 172.236 43.694 172.181Z" fill="white"/>
<path d="M80.8006 159.066C80.7583 158.939 80.6862 158.825 80.5902 158.732C80.4942 158.639 80.3773 158.571 80.2493 158.533C79.9333 158.386 79.5836 158.328 79.237 158.363C78.7598 158.414 78.2934 158.539 77.8542 158.732C76.8418 159.071 75.9155 159.626 75.1396 160.359C74.485 160.942 74.0435 161.728 73.8848 162.59L73.0819 167.379C72.9959 167.741 73.0158 168.119 73.1392 168.47C73.1784 168.601 73.2482 168.722 73.3429 168.821C73.4376 168.921 73.5544 168.996 73.6839 169.042C74.0065 169.166 74.3508 169.223 74.6963 169.211C75.1839 169.123 75.6621 168.988 76.1246 168.81C76.6189 168.619 77.0986 168.392 77.5597 168.13C78.0001 167.885 78.4117 167.591 78.7872 167.255C79.1274 166.958 79.4057 166.596 79.606 166.191C79.861 165.763 80.0229 165.285 80.0811 164.79L80.871 160.078C80.9442 159.741 80.9198 159.39 80.8006 159.066Z" fill="white"/>
<path d="M53.857 168.4C53.5544 168.255 53.2169 168.198 52.8835 168.237C52.4114 168.313 51.9482 168.437 51.5007 168.605C50.4953 168.959 49.5719 169.512 48.7861 170.232C48.1347 170.832 47.7042 171.634 47.5637 172.509L46.7739 177.22C46.6828 177.577 46.6892 177.951 46.7923 178.304C46.9131 178.515 47.0937 178.684 47.3111 178.792C47.6277 178.937 47.9769 178.995 48.3235 178.961C48.815 178.891 49.2952 178.756 49.7518 178.56C50.2592 178.394 50.7504 178.181 51.2192 177.926C51.632 177.655 52.0289 177.361 52.4078 177.044C52.7454 176.728 53.0248 176.354 53.2332 175.941C53.4862 175.527 53.6461 175.062 53.7018 174.579L54.4721 169.984C54.5506 169.635 54.5284 169.27 54.4082 168.933C54.366 168.806 54.2938 168.692 54.1978 168.599C54.1019 168.506 53.9849 168.438 53.857 168.4Z" fill="white"/>
<path d="M64.0505 164.665C63.7421 164.539 63.4096 164.483 63.0771 164.501C62.605 164.578 62.1417 164.701 61.6942 164.87C60.6942 165.235 59.7728 165.787 58.9796 166.497C58.3382 167.088 57.9107 167.875 57.7638 168.735L56.9739 173.446C56.8788 173.802 56.8852 174.178 56.9924 174.53C57.0347 174.646 57.1036 174.751 57.1937 174.835C57.2838 174.92 57.3926 174.982 57.5112 175.017C57.8332 175.144 58.1779 175.202 58.5235 175.187C59.0083 175.114 59.4846 174.993 59.9453 174.825L61.4258 174.112C61.8509 173.878 62.2476 173.595 62.6079 173.27C63.3185 172.625 63.7885 171.758 63.9408 170.811L64.7176 166.178C64.7769 165.827 64.755 165.467 64.6537 165.126C64.5161 164.903 64.3014 164.739 64.0505 164.665Z" fill="white"/>
<path d="M175.257 144.838C175.267 145.156 175.214 145.474 175.1 145.772C174.956 146.051 174.765 146.303 174.535 146.518C174.296 146.757 174.02 146.954 173.717 147.101C173.396 147.284 173.061 147.442 172.717 147.574C172.407 147.691 172.084 147.772 171.756 147.813C171.529 147.849 171.297 147.81 171.094 147.703C171.004 147.688 170.92 147.648 170.852 147.587C170.784 147.526 170.735 147.446 170.711 147.358C170.686 147.105 170.728 146.849 170.835 146.618L171.371 143.426C171.479 142.845 171.779 142.317 172.222 141.927C172.748 141.439 173.369 141.066 174.047 140.832C174.362 140.713 174.685 140.62 175.014 140.554C175.241 140.532 175.469 140.57 175.676 140.665C175.765 140.694 175.845 140.745 175.91 140.811C175.976 140.878 176.024 140.959 176.052 141.048C176.082 141.275 176.044 141.505 175.942 141.71L175.257 144.838Z" fill="white"/>
<path d="M186.413 140.862C186.42 141.181 186.367 141.498 186.256 141.797C186.081 142.056 185.893 142.305 185.69 142.543C185.434 142.76 185.161 142.955 184.872 143.126C184.552 143.296 184.22 143.441 183.879 143.56C183.567 143.688 183.243 143.781 182.911 143.838C182.685 143.853 182.458 143.815 182.249 143.727C182.157 143.704 182.074 143.656 182.007 143.589C181.941 143.521 181.894 143.436 181.873 143.344C181.84 143.104 181.881 142.859 181.991 142.643L182.526 139.45C182.631 138.856 182.934 138.314 183.384 137.913C183.911 137.426 184.532 137.053 185.209 136.818L186.131 136.572C186.371 136.554 186.611 136.595 186.832 136.689C186.996 136.756 187.132 136.878 187.215 137.034C187.229 137.273 187.189 137.513 187.097 137.735L186.413 140.862Z" fill="white"/>
</svg>
