<svg width="70" height="70" viewBox="0 0 70 70" fill="none" xmlns="http://www.w3.org/2000/svg">
<circle cx="35" cy="35" r="35" fill="white"/>
<path d="M43.75 36.25C44.175 36.25 44.5875 36.3 45 36.3625V32.5C45 31.837 44.7366 31.2011 44.2678 30.7322C43.7989 30.2634 43.163 30 42.5 30H41.25V27.5C41.25 24.05 38.45 21.25 35 21.25C31.55 21.25 28.75 24.05 28.75 27.5V30H27.5C26.837 30 26.2011 30.2634 25.7322 30.7322C25.2634 31.2011 25 31.837 25 32.5V45C25 46.3875 26.1125 47.5 27.5 47.5H37.2625C36.625 46.4 36.25 45.125 36.25 43.75C36.25 39.6125 39.6125 36.25 43.75 36.25ZM31.25 27.5C31.25 25.425 32.925 23.75 35 23.75C37.075 23.75 38.75 25.425 38.75 27.5V30H31.25V27.5ZM35 41.25C34.5055 41.25 34.0222 41.1034 33.6111 40.8287C33.2 40.554 32.8795 40.1635 32.6903 39.7067C32.5011 39.2499 32.4516 38.7472 32.548 38.2623C32.6445 37.7773 32.8826 37.3319 33.2322 36.9822C33.5819 36.6326 34.0273 36.3945 34.5123 36.298C34.9972 36.2016 35.4999 36.2511 35.9567 36.4403C36.4135 36.6295 36.804 36.95 37.0787 37.3611C37.3534 37.7722 37.5 38.2555 37.5 38.75C37.5 40.1375 36.3875 41.25 35 41.25ZM48.125 41.5625L42.1875 47.5L38.75 43.75L40.2 42.3L42.1875 44.2875L46.675 39.8L48.125 41.5625Z" fill="#6689C4"/>
</svg>
