<svg width="70" height="70" viewBox="0 0 70 70" fill="none" xmlns="http://www.w3.org/2000/svg">
<circle cx="35" cy="35" r="35" fill="white"/>
<g clip-path="url(#clip0_423_4)">
<path d="M30.4015 30.1513C31.8658 28.687 31.8658 26.3122 30.4015 24.8479C28.9373 23.3837 26.5625 23.3837 25.0982 24.8479C23.6339 26.3122 23.6339 28.687 25.0982 30.1513C26.563 31.6161 28.9373 31.6161 30.4015 30.1513ZM45.4015 39.8479C43.9373 38.3837 41.5625 38.3837 40.0982 39.8479C38.6339 41.3122 38.6339 43.687 40.0982 45.1513C41.5625 46.6155 43.9373 46.6155 45.4015 45.1513C46.8664 43.687 46.8664 41.3128 45.4015 39.8479ZM45.2878 26.2876L43.9625 24.9622C43.23 24.2298 42.0429 24.2298 41.3111 24.9622L25.2125 41.0608C24.48 41.7933 24.48 42.9804 25.2125 43.7122L26.5378 45.0376C27.2703 45.77 28.4574 45.77 29.1892 45.0376L45.2878 28.939C46.0203 28.2071 46.0203 27.02 45.2878 26.2876Z" fill="#6689C4"/>
</g>
<defs>
<clipPath id="clip0_423_4">
<rect width="22.5" height="30" fill="white" transform="translate(24 20)"/>
</clipPath>
</defs>
</svg>
