<svg width="765" height="774" viewBox="0 0 765 774" fill="none" xmlns="http://www.w3.org/2000/svg">
<g filter="url(#filter0_d_131_2)">
<g clip-path="url(#clip0_131_2)">
<rect x="150" y="146.422" width="218" height="343" rx="10" transform="rotate(-15 150 146.422)" fill="white"/>
<rect width="218" height="203" transform="translate(150 146.422) rotate(-15)" fill="#1155D4"/>
<path d="M355.075 165.375C354.682 165.367 354.198 165.033 354.011 164.641C353.89 164.385 353.902 164.182 354.092 163.333C354.859 159.9 354.807 156.943 353.919 153.576C353.06 150.322 351.792 147.951 349.497 145.317C349.005 144.751 348.582 144.217 348.559 144.129C348.474 143.807 348.622 143.266 348.867 143.003C349.202 142.644 349.89 142.51 350.292 142.726C350.447 142.809 350.909 143.25 351.318 143.706C352.939 145.512 354.277 147.612 355.269 149.905C355.883 151.324 356.667 154.116 356.845 155.518C357.175 158.104 357.101 160.51 356.618 162.977C356.326 164.468 356.068 165.118 355.731 165.209C355.663 165.227 355.559 165.273 355.498 165.311C355.436 165.349 355.245 165.378 355.075 165.375ZM350.125 164.271C349.524 164.259 348.94 163.682 348.965 163.126C348.971 162.992 349.085 162.349 349.216 161.698C349.77 158.944 349.58 156.201 348.66 153.704C347.905 151.653 347.176 150.427 345.71 148.74C344.727 147.608 344.644 147.414 344.877 146.789C345.1 146.195 345.961 145.878 346.536 146.178C346.936 146.385 348.483 148.199 349.18 149.274C351.485 152.831 352.394 157.069 351.769 161.338C351.449 163.525 351.02 164.29 350.125 164.271ZM345.032 163.172C344.645 163.11 344.251 162.825 344.074 162.479C343.965 162.268 343.986 161.998 344.176 161.06C344.882 157.613 344.124 154.678 341.867 152.101C340.875 150.969 340.792 150.713 341.204 150.052C341.408 149.725 341.51 149.65 341.89 149.548C342.526 149.378 342.939 149.608 343.815 150.62C345.162 152.177 345.929 153.634 346.452 155.626C346.988 157.672 347.024 159.167 346.589 161.305C346.338 162.53 346.15 162.886 345.633 163.103C345.475 163.169 345.205 163.2 345.032 163.172ZM340.28 162.15C339.976 162.111 339.566 161.823 339.388 161.525C339.189 161.191 339.198 160.882 339.431 160.098C339.731 159.089 339.732 158.591 339.433 157.458C339.134 156.324 338.888 155.892 338.131 155.167C337.874 154.921 337.601 154.617 337.523 154.491C337.203 153.965 337.495 153.137 338.106 152.845C338.623 152.597 339.06 152.739 339.765 153.384C341.807 155.249 342.601 158.259 341.743 160.88C341.439 161.806 340.943 162.237 340.28 162.15Z" fill="white"/>
<g clip-path="url(#clip1_131_2)">
<rect x="276.264" y="154.001" width="29.0909" height="40" rx="4" transform="rotate(-15 276.264 154.001)" fill="url(#paint0_linear_131_2)"/>
<path fill-rule="evenodd" clip-rule="evenodd" d="M311.814 171.936L304.435 167.33L308.547 159.645L307.943 159.268L303.732 167.137L300.548 167.991L299.037 162.305L298.848 161.594L294.691 145.958L294.026 146.136L298.183 161.772L288.88 164.265L284.724 148.628L284.059 148.806L288.216 164.443L288.405 165.153L289.917 170.839L286.732 171.693L279.176 166.976L278.84 167.605L286.219 172.211L282.107 179.896L282.711 180.272L286.921 172.403L290.106 171.55L291.617 177.236L291.806 177.947L295.963 193.583L296.628 193.405L292.471 177.769L301.773 175.276L305.93 190.912L306.595 190.734L302.343 174.743C302.291 174.546 302.1 174.427 301.916 174.476L292.282 177.058L290.676 171.017L289.069 164.975L298.372 162.483L299.978 168.524C300.03 168.72 300.221 168.84 300.405 168.79L303.921 167.848L311.477 172.564L311.814 171.936Z" fill="#47453F"/>
</g>
<rect x="276.264" y="154.001" width="29.0909" height="40" rx="4" transform="rotate(-15 276.264 154.001)" stroke="#47453F" stroke-width="0.6"/>
<g clip-path="url(#clip2_131_2)">
<rect width="218" height="140" transform="translate(202.54 342.505) rotate(-15)" fill="#0C49BA"/>
<path d="M228.977 361.174L228.586 359.714L237.285 357.383L237.676 358.843L234.169 359.783L236.79 369.563L235.099 370.016L232.479 360.236L228.977 361.174ZM244.461 367.69C243.671 367.901 242.933 367.905 242.247 367.701C241.561 367.496 240.967 367.112 240.467 366.548C239.967 365.984 239.6 365.267 239.367 364.396C239.133 363.521 239.091 362.713 239.241 361.971C239.391 361.229 239.712 360.598 240.204 360.078C240.696 359.558 241.337 359.192 242.128 358.98C242.918 358.768 243.656 358.764 244.342 358.969C245.028 359.173 245.622 359.559 246.123 360.127C246.624 360.695 246.992 361.416 247.226 362.29C247.459 363.161 247.501 363.966 247.349 364.704C247.198 365.443 246.877 366.072 246.385 366.592C245.893 367.112 245.252 367.478 244.461 367.69ZM244.098 366.311C244.61 366.173 244.998 365.924 245.262 365.563C245.526 365.202 245.678 364.775 245.719 364.282C245.763 363.788 245.712 363.27 245.567 362.729C245.423 362.191 245.208 361.719 244.923 361.313C244.641 360.902 244.294 360.605 243.884 360.421C243.474 360.237 243.013 360.213 242.501 360.35C241.985 360.489 241.593 360.741 241.327 361.106C241.064 361.471 240.911 361.902 240.867 362.4C240.827 362.893 240.879 363.408 241.023 363.946C241.168 364.488 241.381 364.962 241.663 365.369C241.948 365.775 242.295 366.068 242.705 366.249C243.117 366.428 243.582 366.449 244.098 366.311ZM250.177 365.976L247.918 357.546L249.493 357.124L249.861 358.496L249.965 358.468C250.016 357.956 250.206 357.517 250.536 357.15C250.864 356.78 251.306 356.52 251.862 356.371C252.426 356.22 252.933 356.226 253.384 356.387C253.839 356.548 254.219 356.834 254.526 357.246L254.614 357.222C254.694 356.718 254.918 356.274 255.286 355.889C255.652 355.501 256.139 355.225 256.747 355.063C257.511 354.858 258.199 354.93 258.811 355.28C259.426 355.629 259.863 356.286 260.122 357.252L261.636 362.905L259.995 363.345L258.522 357.846C258.369 357.275 258.103 356.903 257.723 356.73C257.343 356.558 256.938 356.529 256.506 356.645C255.972 356.788 255.601 357.064 255.393 357.473C255.183 357.878 255.147 358.336 255.285 358.848L256.724 364.221L255.089 364.66L253.587 359.056C253.465 358.599 253.224 358.269 252.864 358.068C252.504 357.866 252.095 357.827 251.638 357.949C251.327 358.032 251.062 358.192 250.842 358.427C250.626 358.658 250.476 358.939 250.392 359.271C250.312 359.602 250.323 359.958 250.425 360.339L251.818 365.536L250.177 365.976ZM269.007 360.93L267.207 361.413L268.24 349.089L270.199 348.564L277.256 358.72L275.456 359.202L269.813 350.856L269.726 350.879L269.007 360.93ZM268.129 356.448L273.969 354.883L274.351 356.31L268.512 357.875L268.129 356.448ZM281.811 357.676C281.131 357.858 280.477 357.847 279.849 357.643C279.225 357.434 278.674 357.046 278.197 356.48C277.722 355.909 277.363 355.168 277.119 354.257C276.875 353.346 276.818 352.526 276.948 351.797C277.082 351.067 277.37 350.458 277.812 349.971C278.254 349.484 278.813 349.15 279.49 348.969C280.013 348.828 280.457 348.803 280.823 348.894C281.191 348.98 281.494 349.114 281.731 349.298C281.972 349.48 282.165 349.646 282.311 349.795L282.41 349.768L281.291 345.592L282.932 345.152L285.944 356.392L284.341 356.822L283.99 355.51L283.852 355.547C283.802 355.752 283.714 355.995 283.589 356.276C283.468 356.556 283.269 356.824 282.993 357.083C282.718 357.341 282.323 357.539 281.811 357.676ZM281.798 356.179C282.27 356.053 282.636 355.822 282.895 355.486C283.157 355.145 283.312 354.729 283.36 354.237C283.413 353.745 283.36 353.202 283.201 352.61C283.044 352.024 282.822 351.534 282.537 351.14C282.251 350.747 281.912 350.471 281.521 350.313C281.129 350.155 280.694 350.14 280.215 350.269C279.721 350.401 279.343 350.639 279.083 350.984C278.822 351.328 278.667 351.744 278.617 352.232C278.571 352.719 278.623 353.24 278.772 353.796C278.923 354.36 279.143 354.844 279.432 355.249C279.72 355.654 280.065 355.944 280.465 356.119C280.867 356.29 281.312 356.31 281.798 356.179ZM291.965 354.961C291.134 355.184 290.371 355.198 289.676 355.004C288.984 354.805 288.388 354.425 287.889 353.865C287.392 353.3 287.027 352.58 286.792 351.706C286.561 350.842 286.518 350.038 286.664 349.293C286.813 348.548 287.129 347.912 287.611 347.387C288.098 346.86 288.733 346.492 289.516 346.282C289.991 346.155 290.473 346.11 290.962 346.148C291.45 346.185 291.917 346.325 292.362 346.567C292.807 346.808 293.204 347.17 293.553 347.653C293.901 348.133 294.178 348.754 294.383 349.519L294.539 350.101L287.838 351.896L287.508 350.667L292.601 349.302C292.486 348.871 292.295 348.512 292.03 348.226C291.765 347.936 291.447 347.737 291.076 347.629C290.71 347.519 290.314 347.521 289.89 347.635C289.429 347.758 289.057 347.98 288.773 348.299C288.493 348.613 288.308 348.976 288.218 349.389C288.132 349.796 288.145 350.21 288.257 350.631L288.515 351.592C288.666 352.155 288.893 352.608 289.196 352.95C289.503 353.291 289.864 353.518 290.279 353.631C290.692 353.739 291.138 353.73 291.618 353.601C291.929 353.518 292.201 353.398 292.433 353.242C292.665 353.081 292.85 352.887 292.988 352.657C293.127 352.428 293.21 352.169 293.239 351.879L294.867 351.742C294.865 352.233 294.749 352.694 294.519 353.124C294.292 353.549 293.962 353.922 293.531 354.242C293.101 354.557 292.579 354.796 291.965 354.961ZM300.953 352.553C300.163 352.765 299.424 352.768 298.738 352.564C298.052 352.359 297.459 351.975 296.959 351.411C296.459 350.847 296.092 350.13 295.859 349.259C295.624 348.385 295.582 347.576 295.732 346.834C295.883 346.092 296.204 345.461 296.696 344.941C297.188 344.421 297.829 344.055 298.619 343.843C299.409 343.631 300.148 343.628 300.834 343.832C301.52 344.036 302.113 344.422 302.615 344.99C303.116 345.558 303.483 346.279 303.718 347.153C303.951 348.024 303.992 348.829 303.841 349.567C303.69 350.306 303.368 350.935 302.876 351.455C302.384 351.975 301.743 352.341 300.953 352.553ZM300.589 351.174C301.101 351.036 301.49 350.787 301.754 350.426C302.018 350.066 302.17 349.638 302.21 349.145C302.254 348.651 302.204 348.133 302.059 347.592C301.915 347.054 301.7 346.582 301.415 346.176C301.132 345.766 300.786 345.468 300.376 345.284C299.966 345.1 299.504 345.076 298.992 345.214C298.476 345.352 298.085 345.604 297.818 345.969C297.555 346.334 297.402 346.765 297.359 347.263C297.319 347.756 297.37 348.272 297.515 348.809C297.66 349.351 297.873 349.825 298.155 350.232C298.44 350.638 298.787 350.931 299.196 351.112C299.609 351.291 300.073 351.312 300.589 351.174ZM305.298 339.159L308.31 350.399L306.669 350.839L303.657 339.599L305.298 339.159ZM313.02 349.337C312.486 349.48 311.977 349.511 311.492 349.429C311.006 349.343 310.586 349.144 310.232 348.831C309.881 348.517 309.632 348.084 309.484 347.532C309.356 347.056 309.343 346.64 309.443 346.284C309.544 345.927 309.726 345.618 309.989 345.355C310.252 345.093 310.563 344.864 310.923 344.67C311.282 344.475 311.655 344.301 312.041 344.146C312.531 343.953 312.928 343.795 313.232 343.674C313.536 343.55 313.748 343.424 313.867 343.298C313.986 343.172 314.019 343.011 313.966 342.813L313.956 342.775C313.828 342.295 313.593 341.96 313.251 341.769C312.914 341.577 312.48 341.553 311.949 341.695C311.397 341.843 310.994 342.082 310.741 342.412C310.491 342.738 310.346 343.065 310.305 343.394L308.668 343.456C308.714 342.895 308.87 342.41 309.137 342.001C309.407 341.588 309.753 341.248 310.176 340.982C310.598 340.712 311.063 340.509 311.571 340.372C311.908 340.282 312.275 340.227 312.674 340.206C313.075 340.181 313.468 340.229 313.853 340.349C314.242 340.469 314.595 340.694 314.911 341.025C315.226 341.352 315.466 341.823 315.63 342.438L317.13 348.036L315.528 348.465L315.219 347.313L315.153 347.33C315.104 347.571 315.001 347.822 314.843 348.084C314.686 348.346 314.459 348.589 314.162 348.813C313.866 349.038 313.485 349.212 313.02 349.337ZM313.024 347.924C313.478 347.803 313.842 347.609 314.116 347.343C314.393 347.077 314.577 346.777 314.668 346.442C314.762 346.104 314.764 345.768 314.675 345.435L314.384 344.348C314.341 344.422 314.242 344.508 314.087 344.604C313.936 344.696 313.758 344.788 313.556 344.882C313.353 344.972 313.154 345.058 312.961 345.141C312.766 345.221 312.604 345.288 312.474 345.342C312.166 345.468 311.893 345.614 311.655 345.779C311.421 345.944 311.249 346.137 311.14 346.358C311.033 346.575 311.019 346.83 311.098 347.123C311.207 347.529 311.439 347.796 311.795 347.924C312.15 348.049 312.559 348.049 313.024 347.924Z" fill="white"/>
<path d="M251.888 446.269L254.022 445.697C255.867 445.203 256.68 443.753 256.079 441.512C255.515 439.406 253.988 438.459 252.249 438.925L250.076 439.507L251.888 446.269ZM252.634 445.075L251.319 440.168L252.469 439.86C253.695 439.531 254.657 440.185 255.084 441.778C255.524 443.421 255.078 444.42 253.735 444.78L252.634 445.075ZM257.387 442.052C257.82 443.665 259.078 444.497 260.498 444.117C261.474 443.856 262.111 443.219 262.337 442.247L261.471 441.951C261.229 442.751 260.91 443.106 260.263 443.279C259.848 443.391 259.471 443.336 259.13 443.107C258.789 442.877 258.55 442.527 258.419 442.076L262.157 441.074L262.051 440.678C261.639 439.142 260.43 438.338 259.039 438.71C257.638 439.086 256.96 440.458 257.387 442.052ZM258.244 441.346C258.056 440.568 258.491 439.758 259.264 439.551C260.076 439.333 260.762 439.771 261.026 440.601L258.244 441.346ZM264.822 442.275C265.247 442.586 265.872 442.677 266.5 442.509C267.823 442.154 268.489 440.775 268.064 439.191C267.64 437.607 266.374 436.745 265.041 437.102C264.461 437.257 264.002 437.629 263.765 438.096L263.745 438.102L263.103 435.706L262.157 435.96L264.046 443.011L264.935 442.773L264.803 442.28L264.822 442.275ZM267.118 439.444C267.418 440.565 267.037 441.423 266.148 441.661C265.395 441.863 264.631 441.405 264.426 440.642L264.185 439.744C263.983 438.99 264.426 438.209 265.199 438.002C266.078 437.766 266.818 438.324 267.118 439.444ZM270.024 441.409L270.971 441.156L269.599 436.036L268.652 436.29L270.024 441.409ZM268.366 435.414L269.399 435.137L269.133 434.142L268.099 434.419L268.366 435.414ZM273.852 435.808L273.624 434.958L272.369 435.294L272.048 434.096L271.101 434.35L271.422 435.548L270.62 435.762L270.848 436.612L271.65 436.398L272.437 439.334C272.698 440.31 273.171 440.566 274.204 440.289L274.755 440.142L274.514 439.243L274.05 439.368C273.635 439.479 273.469 439.399 273.378 439.061L272.596 436.144L273.852 435.808ZM277.699 435.729C278.271 437.864 279.774 438.952 281.522 438.484C282.266 438.284 282.815 437.899 283.167 437.318C283.518 436.737 283.621 436.037 283.478 435.237L282.445 435.358C282.63 436.551 282.23 437.3 281.274 437.556C280.105 437.869 279.129 437.085 278.694 435.463C278.262 433.85 278.713 432.673 279.881 432.36C280.78 432.119 281.49 432.529 281.956 433.533L282.887 433.107C282.33 431.724 281.024 431.06 279.633 431.432C277.904 431.896 277.132 433.614 277.699 435.729ZM284.764 436.031C285.004 436.929 285.826 437.33 286.84 437.059C287.468 436.89 287.935 436.507 288.109 436.035L288.128 436.03L288.26 436.523L289.129 436.29L288.187 432.774C287.897 431.692 286.985 431.222 285.797 431.541C285.246 431.688 284.814 431.97 284.508 432.373C284.212 432.773 284.086 433.231 284.134 433.757L285.103 433.704C285.055 433.023 285.391 432.54 286.019 432.371C286.599 432.216 287.029 432.391 287.14 432.806C287.241 433.183 287 433.444 286.135 433.924C284.914 434.583 284.533 435.171 284.764 436.031ZM287.729 434.812C287.887 435.401 287.472 435.978 286.729 436.178C286.159 436.33 285.792 436.159 285.675 435.725C285.572 435.338 285.821 435.033 286.579 434.613C287.153 434.283 287.411 434.048 287.438 433.803L287.457 433.798L287.729 434.812ZM290.546 435.91L291.493 435.657L290.696 432.682C290.458 431.793 290.648 431.307 291.237 431.149C291.392 431.108 291.574 431.09 291.792 431.094L291.722 430.098C291.516 430.101 291.315 430.124 291.131 430.173C290.658 430.3 290.314 430.6 290.196 430.973L290.177 430.978L290.063 430.553L289.174 430.791L290.546 435.91ZM292.947 432.524C293.372 434.108 294.638 434.969 295.961 434.615C296.589 434.446 297.084 434.055 297.297 433.573L297.316 433.568L297.448 434.061L298.337 433.823L296.448 426.772L295.501 427.025L296.143 429.421L296.124 429.426C295.685 429.14 295.101 429.048 294.521 429.203C293.188 429.56 292.523 430.939 292.947 432.524ZM296.824 431.961C297.028 432.724 296.595 433.503 295.841 433.705C294.953 433.943 294.194 433.39 293.894 432.27C293.594 431.149 293.955 430.297 294.834 430.061C295.607 429.854 296.381 430.309 296.583 431.063L296.824 431.961Z" fill="white"/>
<path d="M397.394 414.288L393.479 415.337L391.948 399.713L395.861 398.664L397.394 414.288Z" fill="white"/>
<path d="M407.695 395.886C406.842 395.79 405.529 395.783 404.015 396.189C400.151 397.224 397.971 399.991 398.73 402.91C399.269 405.068 401.567 405.731 403.239 406.052C404.948 406.379 405.589 406.719 405.762 407.372C406.014 408.378 404.929 409.164 403.802 409.466C402.24 409.885 401.339 409.871 399.92 409.654L399.34 409.553L399.686 413.059C400.714 413.227 402.502 413.142 404.263 412.687C408.368 411.587 410.507 408.864 409.714 405.75C409.276 404.042 407.883 403.016 405.345 402.554C403.794 402.235 402.834 401.998 402.647 401.298C402.494 400.656 403.014 399.819 404.558 399.405C405.822 399.032 406.837 399.083 407.625 399.197L408.022 399.26L407.695 395.886Z" fill="white"/>
<path d="M415.365 403.792C415.459 402.846 415.814 399.185 415.814 399.185C415.806 399.222 415.902 398.223 415.948 397.615L416.565 398.831C416.565 398.831 418.258 402.215 418.618 402.921C418.006 403.084 416.139 403.585 415.365 403.792ZM417.626 392.832L414.599 393.643C413.665 393.893 413.028 394.354 412.884 395.434L410.721 410.717L414.827 409.617C414.827 409.617 415.011 407.589 415.051 407.151C415.502 407.03 419.496 405.96 420.075 405.805C420.327 406.301 421.139 407.926 421.139 407.926L424.762 406.955L417.626 392.832Z" fill="white"/>
<path d="M386.234 401.244L385.115 412.478L384.147 410.52C382.803 408.321 379.891 406.322 377.069 405.696L384.059 417.845L388.196 416.736L390.371 400.135L386.234 401.244Z" fill="white"/>
<path d="M378.845 403.224L372.549 404.91L372.566 405.231C377.806 405.156 381.855 407.279 384.148 410.52L380.95 404.008C380.471 403.112 379.706 403.027 378.845 403.224Z" fill="white"/>
</g>
<path opacity="0.09" d="M303.568 105.274L89.1467 162.728L156.059 218.778L322.063 174.297C322.063 174.297 339.596 184.395 345.144 205.102C349.712 222.151 340.558 243.321 340.558 243.321L216.055 276.681L413.094 431.026L503.012 406.933L379.803 306.784C379.803 306.784 437.002 224.564 401.847 167.715C360.059 100.14 303.568 105.274 303.568 105.274Z" fill="#171717"/>
<path d="M175.938 163.033L178.802 162.265C179.399 162.105 179.935 162.071 180.411 162.163C180.886 162.254 181.29 162.47 181.622 162.811C181.955 163.151 182.2 163.616 182.357 164.204C182.487 164.687 182.532 165.117 182.493 165.495C182.453 165.87 182.343 166.204 182.163 166.497C181.982 166.786 181.742 167.044 181.443 167.268L180.985 167.739L178.661 168.362L178.256 166.874L179.868 166.442C180.113 166.376 180.302 166.269 180.432 166.12C180.566 165.965 180.646 165.78 180.671 165.563C180.699 165.341 180.678 165.097 180.606 164.831C180.531 164.549 180.429 164.318 180.302 164.137C180.178 163.951 180.024 163.826 179.84 163.761C179.659 163.692 179.446 163.69 179.201 163.755L178.134 164.041L180.127 171.479L178.33 171.96L175.938 163.033ZM182.383 170.874L179.68 167.333L181.561 166.823L184.279 170.274L184.302 170.36L182.383 170.874ZM186.544 161.9L186.589 169.747L184.695 170.255L185.092 160.58L186.276 160.263L186.544 161.9ZM190.023 168.827L186.127 162.011L185.522 160.465L186.723 160.143L191.93 168.316L190.023 168.827ZM189.198 165.479L189.598 166.969L185.569 168.049L185.17 166.559L189.198 165.479ZM197.504 165.232L197.902 166.716L194.021 167.756L193.623 166.272L197.504 165.232ZM192.186 158.679L194.579 167.606L192.782 168.088L190.39 159.16L192.186 158.679ZM195.958 161.546L196.344 162.987L192.984 163.887L192.598 162.446L195.958 161.546ZM195.497 157.792L195.897 159.282L192.028 160.318L191.629 158.828L195.497 157.792ZM202.8 155.835L205.192 164.762L203.457 165.227L199.158 160.392L200.655 165.978L198.95 166.435L196.558 157.508L198.269 157.049L202.608 161.939L201.095 156.292L202.8 155.835ZM211.361 161.519L211.759 163.003L207.877 164.043L207.48 162.559L211.361 161.519ZM206.043 154.966L208.435 163.893L206.639 164.375L204.247 155.447L206.043 154.966ZM209.815 157.833L210.201 159.274L206.841 160.174L206.455 158.733L209.815 157.833ZM209.354 154.079L209.754 155.569L205.885 156.605L205.485 155.116L209.354 154.079ZM215.955 159.362C215.912 159.202 215.859 159.061 215.795 158.938C215.732 158.815 215.638 158.71 215.514 158.625C215.395 158.539 215.232 158.464 215.027 158.401C214.826 158.337 214.57 158.282 214.261 158.238C213.892 158.188 213.532 158.127 213.18 158.055C212.826 157.979 212.497 157.87 212.192 157.728C211.887 157.586 211.623 157.394 211.4 157.152C211.18 156.904 211.019 156.588 210.916 156.204C210.815 155.828 210.791 155.468 210.844 155.125C210.901 154.782 211.027 154.467 211.222 154.183C211.417 153.894 211.667 153.645 211.975 153.436C212.287 153.225 212.653 153.064 213.074 152.951C213.646 152.797 214.172 152.783 214.653 152.909C215.137 153.033 215.55 153.271 215.889 153.622C216.233 153.973 216.476 154.416 216.62 154.951L214.829 155.431C214.761 155.178 214.665 154.965 214.54 154.792C214.418 154.615 214.264 154.492 214.079 154.423C213.895 154.354 213.679 154.353 213.434 154.418C213.205 154.48 213.028 154.578 212.902 154.712C212.779 154.841 212.702 154.996 212.671 155.175C212.643 155.349 212.655 155.534 212.708 155.73C212.747 155.877 212.818 156.001 212.919 156.101C213.023 156.195 213.151 156.273 213.303 156.333C213.454 156.389 213.627 156.437 213.821 156.477C214.02 156.515 214.235 156.548 214.465 156.573C214.913 156.624 215.317 156.704 215.679 156.813C216.04 156.918 216.357 157.061 216.629 157.242C216.9 157.419 217.128 157.641 217.313 157.907C217.498 158.173 217.641 158.494 217.742 158.87C217.842 159.242 217.867 159.598 217.818 159.94C217.773 160.276 217.657 160.588 217.471 160.874C217.284 161.157 217.032 161.404 216.716 161.615C216.405 161.826 216.036 161.988 215.611 162.102C215.198 162.213 214.793 162.26 214.394 162.244C213.995 162.224 213.622 162.133 213.276 161.972C212.934 161.805 212.634 161.559 212.376 161.234C212.116 160.905 211.919 160.487 211.783 159.98L213.58 159.499C213.652 159.768 213.74 159.992 213.845 160.17C213.949 160.344 214.071 160.473 214.212 160.558C214.352 160.639 214.509 160.686 214.684 160.701C214.862 160.71 215.055 160.687 215.263 160.631C215.5 160.568 215.676 160.472 215.791 160.345C215.91 160.217 215.98 160.069 216.001 159.901C216.022 159.734 216.006 159.554 215.955 159.362ZM220.753 151.025L223.145 159.952L221.36 160.43L218.968 151.503L220.753 151.025ZM222.972 150.43L223.371 151.92L217.191 153.576L216.792 152.086L222.972 150.43Z" fill="white"/>
</g>
</g>
<g filter="url(#filter1_d_131_2)">
<g clip-path="url(#clip3_131_2)">
<rect x="447.775" y="176" width="218" height="343" rx="10" transform="rotate(15 447.775 176)" fill="white"/>
<rect width="218" height="203" transform="translate(447.775 176) rotate(15)" fill="#FF385C"/>
<path d="M615.899 294.95C615.563 294.748 615.31 294.216 615.344 293.783C615.367 293.501 615.48 293.331 616.069 292.69C618.45 290.101 619.882 287.515 620.797 284.154C621.68 280.907 621.768 278.22 621.097 274.791C620.953 274.055 620.855 273.381 620.879 273.294C620.966 272.971 621.365 272.577 621.708 272.472C622.178 272.329 622.84 272.556 623.081 272.945C623.173 273.093 623.353 273.707 623.48 274.306C623.98 276.681 624.089 279.169 623.802 281.651C623.624 283.187 622.907 285.996 622.36 287.299C621.353 289.703 620.086 291.75 618.434 293.645C617.435 294.791 616.887 295.225 616.55 295.135C616.482 295.116 616.369 295.104 616.297 295.107C616.224 295.109 616.044 295.038 615.899 294.95ZM612.164 291.52C611.649 291.208 611.432 290.417 611.732 289.948C611.804 289.835 612.224 289.335 612.663 288.837C614.52 286.728 615.727 284.258 616.179 281.636C616.551 279.482 616.532 278.055 616.106 275.861C615.821 274.39 615.846 274.18 616.36 273.756C616.85 273.353 617.754 273.509 618.103 274.056C618.345 274.436 618.778 276.779 618.844 278.059C619.062 282.292 617.729 286.417 615.053 289.802C613.683 291.536 612.93 291.983 612.164 291.52ZM608.302 288.021C607.999 287.774 607.8 287.33 607.82 286.942C607.83 286.705 607.984 286.481 608.618 285.764C610.952 283.132 611.764 280.212 611.097 276.851C610.804 275.375 610.86 275.112 611.547 274.745C611.888 274.564 612.013 274.55 612.394 274.652C613.03 274.822 613.272 275.228 613.525 276.543C613.913 278.564 613.849 280.21 613.305 282.196C612.747 284.237 612.031 285.549 610.584 287.183C609.755 288.118 609.413 288.333 608.858 288.262C608.688 288.241 608.439 288.132 608.302 288.021ZM604.698 284.761C604.455 284.574 604.244 284.12 604.238 283.773C604.233 283.385 604.396 283.121 604.989 282.559C605.753 281.835 606.003 281.404 606.311 280.273C606.619 279.142 606.622 278.645 606.329 277.638C606.229 277.296 606.145 276.897 606.14 276.749C606.126 276.134 606.793 275.562 607.468 275.615C608.04 275.659 608.347 276.001 608.636 276.911C609.471 279.547 608.654 282.551 606.6 284.392C605.875 285.042 605.229 285.167 604.698 284.761Z" fill="white"/>
<g clip-path="url(#clip4_131_2)">
<rect x="553.333" y="245.695" width="29.0909" height="40" rx="4" transform="rotate(15 553.333 245.695)" fill="url(#paint1_linear_131_2)"/>
<path fill-rule="evenodd" clip-rule="evenodd" d="M575.153 279.002L571.066 271.324L578.469 266.724L578.134 266.096L570.553 270.806L567.369 269.952L568.903 264.272L569.095 263.562L573.313 247.942L572.648 247.764L568.43 263.384L559.128 260.892L563.346 245.272L562.681 245.094L558.463 260.714L558.271 261.424L556.738 267.104L553.553 266.25L549.367 258.388L548.762 258.764L552.849 266.442L545.446 271.042L545.781 271.67L553.361 266.96L556.546 267.814L555.012 273.494L554.82 274.204L550.602 289.824L551.267 290.002L555.485 274.382L564.787 276.874L560.569 292.494L561.234 292.672L565.548 276.697C565.601 276.501 565.495 276.302 565.311 276.253L555.676 273.672L557.306 267.637L558.936 261.602L568.239 264.094L566.609 270.129C566.556 270.325 566.662 270.524 566.845 270.573L570.362 271.516L574.547 279.378L575.153 279.002Z" fill="#47453F"/>
</g>
<rect x="553.333" y="245.695" width="29.0909" height="40" rx="4" transform="rotate(15 553.333 245.695)" stroke="#47453F" stroke-width="0.6"/>
<g clip-path="url(#clip5_131_2)">
<rect width="218" height="140" transform="translate(395.235 372.083) rotate(15)" fill="white"/>
<path d="M415.08 404.753C415.161 404.218 415.027 403.75 414.679 403.351C414.332 402.949 413.837 402.661 413.193 402.488C412.732 402.365 412.313 402.331 411.938 402.387C411.563 402.44 411.248 402.567 410.994 402.77C410.744 402.969 410.577 403.229 410.492 403.547C410.42 403.814 410.42 404.061 410.493 404.288C410.569 404.517 410.692 404.724 410.861 404.911C411.036 405.095 411.23 405.262 411.444 405.414C411.66 405.562 411.87 405.693 412.074 405.806L413.096 406.386C413.431 406.57 413.766 406.787 414.103 407.038C414.44 407.289 414.736 407.58 414.993 407.912C415.249 408.243 415.427 408.616 415.528 409.032C415.632 409.448 415.616 409.908 415.481 410.413C415.311 411.05 414.994 411.571 414.533 411.977C414.075 412.383 413.497 412.646 412.798 412.765C412.103 412.884 411.317 412.827 410.439 412.591C409.597 412.366 408.905 412.037 408.362 411.605C407.819 411.174 407.439 410.666 407.223 410.083C407.008 409.496 406.972 408.859 407.117 408.172L408.818 408.628C408.743 409.043 408.784 409.417 408.942 409.749C409.104 410.079 409.349 410.358 409.676 410.587C410.007 410.813 410.391 410.984 410.826 411.101C411.306 411.23 411.752 411.269 412.165 411.219C412.583 411.166 412.937 411.033 413.225 410.82C413.514 410.604 413.708 410.313 413.806 409.947C413.895 409.614 413.873 409.316 413.74 409.052C413.61 408.79 413.403 408.546 413.118 408.321C412.837 408.097 412.51 407.878 412.136 407.664L410.904 406.946C410.07 406.459 409.453 405.908 409.054 405.291C408.658 404.675 408.565 403.976 408.775 403.193C408.948 402.545 409.275 402.027 409.756 401.638C410.237 401.249 410.813 401.002 411.484 400.895C412.157 400.785 412.87 400.831 413.624 401.033C414.385 401.237 415.021 401.551 415.531 401.974C416.045 402.398 416.407 402.889 416.618 403.447C416.83 404.002 416.863 404.583 416.716 405.191L415.08 404.753ZM422.82 411.962L424.142 407.028L425.789 407.469L423.53 415.899L421.917 415.467L422.308 414.007L422.22 413.983C421.905 414.381 421.494 414.673 420.985 414.859C420.482 415.041 419.913 415.048 419.28 414.878C418.739 414.733 418.291 414.486 417.938 414.136C417.589 413.784 417.359 413.34 417.248 412.804C417.14 412.269 417.179 411.654 417.366 410.959L418.802 405.597L420.443 406.037L419.06 411.201C418.906 411.776 418.942 412.276 419.169 412.701C419.397 413.127 419.764 413.408 420.273 413.544C420.58 413.626 420.906 413.631 421.251 413.559C421.6 413.488 421.916 413.324 422.201 413.067C422.489 412.81 422.696 412.442 422.82 411.962ZM433.759 411.811L432.201 411.676C432.19 411.469 432.14 411.261 432.051 411.053C431.965 410.846 431.823 410.657 431.626 410.486C431.429 410.316 431.16 410.185 430.819 410.094C430.355 409.969 429.939 409.969 429.572 410.095C429.206 410.216 428.98 410.44 428.892 410.765C428.817 411.047 428.86 411.302 429.023 411.53C429.185 411.758 429.484 411.989 429.919 412.223L431.176 412.889C431.904 413.276 432.408 413.707 432.688 414.183C432.969 414.658 433.029 415.194 432.869 415.79C432.734 416.295 432.467 416.706 432.069 417.022C431.675 417.336 431.188 417.535 430.609 417.619C430.033 417.704 429.405 417.656 428.724 417.473C427.78 417.22 427.064 416.813 426.576 416.251C426.088 415.685 425.877 415.01 425.941 414.228L427.592 414.411C427.58 414.851 427.699 415.218 427.95 415.513C428.201 415.804 428.574 416.015 429.068 416.148C429.606 416.292 430.065 416.295 430.447 416.159C430.83 416.018 431.065 415.785 431.152 415.459C431.223 415.196 431.183 414.948 431.034 414.716C430.888 414.484 430.626 414.269 430.248 414.07L428.905 413.375C428.166 412.985 427.661 412.543 427.389 412.051C427.121 411.559 427.067 411.014 427.228 410.414C427.361 409.916 427.617 409.518 427.995 409.219C428.373 408.92 428.835 408.733 429.381 408.655C429.928 408.575 430.518 408.619 431.151 408.789C432.062 409.033 432.727 409.422 433.144 409.958C433.562 410.489 433.767 411.107 433.759 411.811ZM436.424 419.554C435.89 419.411 435.433 419.183 435.055 418.869C434.677 418.553 434.413 418.17 434.262 417.722C434.115 417.275 434.116 416.775 434.264 416.222C434.391 415.747 434.588 415.38 434.853 415.121C435.118 414.863 435.43 414.686 435.789 414.59C436.149 414.494 436.532 414.452 436.941 414.463C437.35 414.475 437.76 414.51 438.171 414.569C438.692 414.646 439.115 414.708 439.439 414.756C439.764 414.8 440.01 414.797 440.177 414.748C440.343 414.698 440.452 414.575 440.505 414.377L440.516 414.339C440.644 413.859 440.608 413.452 440.408 413.116C440.211 412.781 439.848 412.542 439.317 412.4C438.765 412.252 438.297 412.258 437.913 412.418C437.533 412.575 437.244 412.786 437.043 413.05L435.595 412.285C435.916 411.822 436.293 411.48 436.729 411.259C437.169 411.036 437.639 410.915 438.138 410.896C438.638 410.873 439.143 410.93 439.651 411.066C439.988 411.156 440.334 411.292 440.689 411.474C441.049 411.652 441.366 411.89 441.639 412.187C441.916 412.485 442.109 412.856 442.217 413.301C442.326 413.742 442.299 414.27 442.134 414.884L440.634 420.482L439.032 420.053L439.34 418.9L439.274 418.883C439.112 419.066 438.896 419.232 438.629 419.38C438.362 419.528 438.044 419.625 437.675 419.672C437.306 419.718 436.889 419.679 436.424 419.554ZM437.134 418.332C437.587 418.454 437.999 418.468 438.369 418.375C438.743 418.283 439.053 418.115 439.298 417.871C439.549 417.625 439.719 417.335 439.808 417.002L440.099 415.915C440.025 415.958 439.897 415.983 439.715 415.989C439.537 415.992 439.337 415.984 439.115 415.964C438.894 415.94 438.679 415.915 438.47 415.891C438.262 415.862 438.088 415.839 437.948 415.821C437.619 415.776 437.31 415.766 437.021 415.791C436.735 415.816 436.49 415.897 436.285 416.034C436.084 416.169 435.944 416.382 435.866 416.675C435.757 417.081 435.825 417.429 436.069 417.718C436.314 418.003 436.669 418.208 437.134 418.332ZM445.802 416.502L444.461 421.508L442.82 421.068L445.079 412.638L446.654 413.06L446.286 414.432L446.39 414.46C446.704 414.066 447.104 413.788 447.59 413.628C448.079 413.469 448.641 413.475 449.274 413.644C449.848 413.798 450.319 414.054 450.686 414.411C451.054 414.764 451.293 415.209 451.405 415.745C451.516 416.28 451.479 416.896 451.292 417.591L449.856 422.953L448.215 422.513L449.598 417.349C449.762 416.738 449.731 416.218 449.505 415.789C449.28 415.356 448.889 415.065 448.333 414.916C447.952 414.814 447.592 414.805 447.251 414.891C446.915 414.977 446.617 415.156 446.36 415.428C446.108 415.698 445.922 416.056 445.802 416.502ZM460.986 413.889L457.974 425.128L456.278 424.674L459.29 413.434L460.986 413.889ZM462.588 423.3L463.113 421.294L463.399 421.37L467.713 418.703L469.678 419.229L464.759 422.264L464.501 422.195L462.588 423.3ZM460.312 425.755L463.324 414.515L464.965 414.955L461.953 426.195L460.312 425.755ZM465.636 427.181L463.691 422.366L465.129 421.522L467.65 427.721L465.636 427.181ZM472.155 429.111C471.325 428.888 470.657 428.519 470.152 428.003C469.652 427.485 469.326 426.858 469.173 426.123C469.026 425.386 469.069 424.58 469.304 423.705C469.535 422.842 469.9 422.124 470.398 421.552C470.901 420.98 471.492 420.588 472.173 420.374C472.857 420.162 473.591 420.16 474.374 420.37C474.85 420.497 475.289 420.7 475.694 420.977C476.098 421.253 476.432 421.608 476.697 422.039C476.962 422.471 477.125 422.983 477.185 423.576C477.247 424.165 477.175 424.842 476.971 425.607L476.815 426.189L470.114 424.393L470.443 423.164L475.536 424.528C475.652 424.097 475.666 423.691 475.58 423.311C475.495 422.927 475.319 422.596 475.052 422.316C474.79 422.038 474.446 421.842 474.022 421.728C473.561 421.605 473.128 421.611 472.723 421.745C472.323 421.877 471.981 422.099 471.697 422.412C471.418 422.721 471.223 423.086 471.11 423.507L470.852 424.467C470.701 425.031 470.672 425.537 470.764 425.985C470.859 426.434 471.058 426.811 471.361 427.115C471.664 427.416 472.056 427.631 472.535 427.759C472.846 427.843 473.141 427.875 473.421 427.856C473.702 427.833 473.959 427.757 474.194 427.627C474.429 427.498 474.631 427.315 474.8 427.078L476.278 427.774C476.031 428.198 475.701 428.539 475.286 428.797C474.877 429.052 474.405 429.21 473.871 429.27C473.342 429.329 472.77 429.275 472.155 429.111Z" fill="black"/>
<path d="M386.089 486.618L388.224 487.19C390.069 487.685 391.497 486.835 392.098 484.594C392.662 482.489 391.813 480.905 390.074 480.439L387.901 479.857L386.089 486.618ZM387.332 485.958L388.647 481.051L389.797 481.359C391.023 481.687 391.53 482.734 391.103 484.328C390.663 485.97 389.776 486.612 388.434 486.253L387.332 485.958ZM392.961 485.716C392.528 487.329 393.202 488.679 394.622 489.06C395.597 489.321 396.467 489.089 397.149 488.36L396.547 487.671C395.938 488.243 395.484 488.39 394.837 488.217C394.422 488.106 394.123 487.87 393.942 487.501C393.762 487.132 393.73 486.709 393.842 486.252L397.58 487.254L397.686 486.858C398.098 485.322 397.452 484.021 396.061 483.648C394.661 483.273 393.388 484.122 392.961 485.716ZM394.055 485.533C394.282 484.766 395.064 484.281 395.836 484.489C396.648 484.706 397.024 485.428 396.837 486.279L394.055 485.533ZM399.288 489.627C399.5 490.108 399.996 490.5 400.624 490.668C401.947 491.023 403.213 490.161 403.638 488.577C404.062 486.993 403.396 485.614 402.063 485.256C401.484 485.101 400.9 485.193 400.461 485.479L400.442 485.474L401.084 483.079L400.137 482.825L398.248 489.876L399.136 490.114L399.268 489.622L399.288 489.627ZM402.691 488.323C402.391 489.444 401.632 489.996 400.743 489.758C399.99 489.556 399.557 488.778 399.761 488.014L400.002 487.116C400.204 486.363 400.978 485.908 401.751 486.115C402.63 486.35 402.991 487.203 402.691 488.323ZM404.225 491.478L405.172 491.732L406.544 486.612L405.597 486.359L404.225 491.478ZM405.787 485.457L406.821 485.734L407.087 484.739L406.054 484.462L405.787 485.457ZM410.341 488.541L410.569 487.691L409.314 487.354L409.634 486.157L408.688 485.903L408.367 487.101L407.565 486.886L407.337 487.736L408.139 487.951L407.352 490.887C407.091 491.863 407.372 492.321 408.405 492.598L408.956 492.746L409.197 491.847L408.733 491.723C408.318 491.612 408.214 491.46 408.304 491.121L409.086 488.204L410.341 488.541ZM413.712 490.396C413.14 492.531 413.898 494.225 415.646 494.693C416.39 494.893 417.058 494.834 417.653 494.506C418.248 494.179 418.686 493.624 418.964 492.86L418.008 492.448C417.571 493.574 416.851 494.022 415.894 493.766C414.726 493.453 414.272 492.286 414.707 490.663C415.139 489.05 416.118 488.256 417.287 488.569C418.185 488.81 418.595 489.52 418.497 490.622L419.516 490.72C419.725 489.244 418.926 488.015 417.535 487.642C415.806 487.179 414.279 488.281 413.712 490.396ZM419.679 494.19C419.439 495.088 419.95 495.847 420.964 496.118C421.592 496.287 422.188 496.187 422.574 495.866L422.593 495.872L422.461 496.364L423.331 496.597L424.273 493.081C424.563 491.999 424.007 491.136 422.819 490.818C422.269 490.67 421.754 490.698 421.287 490.894C420.83 491.092 420.492 491.426 420.271 491.905L421.137 492.344C421.436 491.731 421.969 491.48 422.597 491.649C423.176 491.804 423.461 492.17 423.35 492.585C423.249 492.962 422.91 493.068 421.92 493.051C420.534 493.011 419.91 493.33 419.679 494.19ZM422.857 494.617C422.699 495.206 422.052 495.499 421.308 495.299C420.738 495.147 420.506 494.815 420.622 494.381C420.726 493.994 421.094 493.855 421.96 493.87C422.622 493.871 422.963 493.797 423.11 493.598L423.129 493.603L422.857 494.617ZM424.748 496.977L425.694 497.23L426.491 494.255C426.729 493.367 427.138 493.041 427.727 493.199C427.881 493.241 428.047 493.316 428.235 493.428L428.672 492.531C428.492 492.431 428.306 492.35 428.123 492.301C427.649 492.174 427.202 492.261 426.913 492.526L426.894 492.521L427.008 492.096L426.119 491.857L424.748 496.977ZM428.52 495.244C428.096 496.828 428.761 498.208 430.085 498.562C430.713 498.73 431.338 498.639 431.762 498.328L431.782 498.334L431.65 498.826L432.538 499.064L434.428 492.013L433.481 491.759L432.839 494.155L432.82 494.15C432.583 493.683 432.123 493.311 431.544 493.156C430.211 492.798 428.945 493.66 428.52 495.244ZM432.159 496.695C431.954 497.458 431.19 497.916 430.436 497.714C429.548 497.476 429.167 496.618 429.467 495.498C429.767 494.377 430.507 493.82 431.386 494.055C432.158 494.262 432.601 495.044 432.399 495.797L432.159 496.695Z" fill="black"/>
<path d="M528.091 531.675L524.177 530.626L530.663 516.329L534.576 517.378L528.091 531.675Z" fill="black"/>
<path d="M546.213 520.889C545.523 520.38 544.389 519.717 542.875 519.312C539.012 518.276 535.74 519.583 534.938 522.49C534.326 524.628 535.984 526.352 537.272 527.465C538.588 528.602 538.973 529.218 538.797 529.87C538.511 530.867 537.179 531.005 536.052 530.704C534.49 530.285 533.717 529.823 532.596 528.925L532.145 528.548L530.691 531.757C531.498 532.416 533.089 533.237 534.84 533.723C538.946 534.823 542.16 533.535 543.03 530.441C543.505 528.743 542.811 527.158 540.844 525.489C539.661 524.438 538.947 523.752 539.136 523.052C539.324 522.42 540.193 521.954 541.738 522.368C543.019 522.677 543.872 523.229 544.498 523.721L544.81 523.975L546.213 520.889Z" fill="black"/>
<path d="M548.903 531.571C549.457 530.798 551.595 527.806 551.595 527.806C551.57 527.833 552.153 527.017 552.496 526.512L552.422 527.875C552.422 527.875 552.196 531.652 552.156 532.443C551.544 532.279 549.677 531.778 548.903 531.571ZM556.341 523.21L553.314 522.399C552.381 522.149 551.598 522.229 550.933 523.092L541.419 535.247L545.525 536.347C545.525 536.347 546.698 534.682 546.952 534.323C547.402 534.444 551.396 535.514 551.976 535.669C551.946 536.225 551.836 538.038 551.836 538.038L555.46 539.009L556.341 523.21Z" fill="black"/>
<path d="M524.948 514.798L518.363 523.969L518.503 521.788C518.438 519.212 516.917 516.025 514.785 514.071L514.765 528.088L518.902 529.196L529.086 515.907L524.948 514.798Z" fill="black"/>
<path d="M517.56 512.818L511.265 511.132L511.118 511.417C515.694 513.973 518.139 517.835 518.504 521.789L518.991 514.55C519.024 513.535 518.404 513.079 517.56 512.818Z" fill="black"/>
</g>
<path opacity="0.09" d="M601.343 217.148L386.922 159.694L416.845 241.691L582.848 286.171C582.848 286.171 592.983 303.683 587.435 324.39C582.867 341.438 564.354 355.195 564.354 355.195L439.851 321.834L533.319 554.021L623.237 578.114L566.609 429.778C566.609 429.778 657.255 387.173 655.234 320.363C652.833 240.947 601.343 217.148 601.343 217.148Z" fill="#171717"/>
<path d="M461.933 203.354L464.796 204.121C465.393 204.281 465.875 204.519 466.241 204.837C466.607 205.154 466.849 205.543 466.967 206.004C467.084 206.465 467.064 206.989 466.906 207.578C466.777 208.06 466.601 208.456 466.378 208.764C466.156 209.068 465.894 209.302 465.592 209.467C465.29 209.627 464.954 209.729 464.583 209.774L463.95 209.953L461.626 209.331L462.019 207.839L463.632 208.271C463.877 208.337 464.094 208.338 464.281 208.274C464.475 208.208 464.636 208.087 464.766 207.911C464.902 207.733 465.005 207.511 465.076 207.245C465.152 206.963 465.18 206.712 465.16 206.492C465.145 206.269 465.074 206.084 464.948 205.936C464.826 205.785 464.642 205.677 464.397 205.611L463.33 205.325L461.337 212.762L459.541 212.281L461.933 203.354ZM463.594 213.367L463.023 208.949L464.907 209.447L465.536 213.795L465.513 213.881L463.594 213.367ZM471.684 207.675L467.8 214.494L465.905 213.986L471.087 205.807L472.27 206.124L471.684 207.675ZM471.233 215.414L471.267 207.563L471.516 205.922L472.718 206.244L473.14 215.925L471.233 215.414ZM472.193 212.103L471.794 213.593L467.765 212.513L468.165 211.023L472.193 212.103ZM479.51 216.041L479.112 217.525L475.231 216.485L475.629 215.001L479.51 216.041ZM478.181 207.707L475.789 216.635L473.993 216.153L476.385 207.226L478.181 207.707ZM480.014 212.076L479.628 213.517L476.268 212.616L476.654 211.175L480.014 212.076ZM481.492 208.595L481.093 210.085L477.224 209.048L477.623 207.558L481.492 208.595ZM488.795 210.551L486.402 219.479L484.667 219.014L483.362 212.677L481.865 218.263L480.161 217.806L482.553 208.879L484.263 209.337L485.577 215.742L487.09 210.095L488.795 210.551ZM493.367 219.754L492.969 221.238L489.088 220.198L489.486 218.714L493.367 219.754ZM492.038 211.42L489.646 220.348L487.849 219.866L490.242 210.939L492.038 211.42ZM493.871 215.789L493.485 217.23L490.125 216.329L490.511 214.888L493.871 215.789ZM495.349 212.308L494.95 213.797L491.081 212.761L491.48 211.271L495.349 212.308ZM498.424 220.183C498.466 220.023 498.491 219.874 498.497 219.736C498.504 219.597 498.475 219.46 498.41 219.325C498.35 219.19 498.247 219.044 498.101 218.887C497.959 218.731 497.764 218.556 497.518 218.363C497.224 218.135 496.943 217.902 496.674 217.664C496.406 217.421 496.175 217.162 495.982 216.887C495.788 216.611 495.656 216.313 495.584 215.992C495.518 215.667 495.536 215.313 495.639 214.928C495.74 214.552 495.899 214.229 496.116 213.959C496.337 213.689 496.603 213.48 496.915 213.332C497.227 213.179 497.569 213.089 497.94 213.061C498.315 213.034 498.713 213.078 499.134 213.19C499.706 213.344 500.169 213.595 500.523 213.944C500.88 214.293 501.118 214.706 501.236 215.18C501.359 215.655 501.348 216.16 501.205 216.696L499.414 216.216C499.482 215.963 499.505 215.73 499.483 215.518C499.466 215.303 499.395 215.12 499.269 214.968C499.143 214.816 498.958 214.707 498.713 214.641C498.484 214.58 498.281 214.576 498.105 214.63C497.933 214.68 497.79 214.775 497.673 214.915C497.562 215.052 497.48 215.218 497.428 215.414C497.388 215.562 497.387 215.704 497.425 215.841C497.468 215.975 497.54 216.106 497.642 216.234C497.744 216.358 497.87 216.486 498.019 216.618C498.172 216.751 498.341 216.886 498.528 217.023C498.89 217.291 499.2 217.563 499.459 217.838C499.72 218.109 499.922 218.392 500.067 218.685C500.213 218.973 500.3 219.279 500.327 219.602C500.355 219.925 500.318 220.274 500.217 220.65C500.118 221.022 499.961 221.344 499.748 221.615C499.541 221.884 499.285 222.096 498.98 222.251C498.677 222.402 498.336 222.49 497.956 222.515C497.581 222.542 497.181 222.498 496.756 222.384C496.343 222.274 495.968 222.112 495.631 221.899C495.295 221.682 495.018 221.417 494.799 221.104C494.586 220.789 494.449 220.425 494.388 220.015C494.328 219.6 494.366 219.139 494.502 218.632L496.298 219.114C496.226 219.384 496.191 219.622 496.192 219.828C496.195 220.03 496.236 220.203 496.316 220.347C496.397 220.487 496.509 220.607 496.653 220.707C496.803 220.804 496.982 220.881 497.19 220.937C497.427 221 497.627 221.005 497.79 220.953C497.957 220.901 498.092 220.808 498.194 220.673C498.296 220.538 498.372 220.375 498.424 220.183ZM506.747 215.362L504.355 224.289L502.571 223.811L504.963 214.884L506.747 215.362ZM508.967 215.956L508.567 217.446L502.387 215.79L502.786 214.3L508.967 215.956Z" fill="white"/>
</g>
</g>
<g filter="url(#filter2_d_131_2)">
<g clip-path="url(#clip6_131_2)">
<rect x="569" y="146.423" width="218" height="343" rx="10" transform="rotate(-15 569 146.423)" fill="white"/>
<rect width="218" height="203" transform="translate(569 146.423) rotate(-15)" fill="white"/>
<path d="M774.075 165.375C773.682 165.368 773.198 165.034 773.011 164.641C772.89 164.386 772.902 164.183 773.092 163.333C773.859 159.9 773.807 156.944 772.919 153.577C772.06 150.323 770.792 147.951 768.497 145.317C768.005 144.752 767.582 144.217 767.559 144.13C767.474 143.807 767.622 143.266 767.867 143.004C768.202 142.644 768.89 142.511 769.292 142.726C769.447 142.809 769.909 143.25 770.318 143.706C771.939 145.513 773.277 147.613 774.269 149.906C774.883 151.325 775.667 154.116 775.845 155.518C776.175 158.104 776.101 160.51 775.618 162.977C775.326 164.468 775.068 165.119 774.731 165.209C774.663 165.227 774.559 165.273 774.498 165.311C774.436 165.35 774.245 165.379 774.075 165.375ZM769.125 164.272C768.524 164.259 767.94 163.683 767.965 163.127C767.971 162.992 768.085 162.349 768.216 161.699C768.77 158.944 768.58 156.201 767.66 153.705C766.905 151.653 766.176 150.427 764.71 148.74C763.727 147.608 763.644 147.414 763.877 146.79C764.1 146.196 764.961 145.879 765.536 146.178C765.936 146.386 767.483 148.199 768.18 149.274C770.485 152.832 771.394 157.07 770.769 161.339C770.449 163.526 770.02 164.29 769.125 164.272ZM764.032 163.173C763.645 163.11 763.251 162.825 763.074 162.479C762.965 162.269 762.986 161.998 763.176 161.06C763.882 157.613 763.124 154.679 760.867 152.102C759.875 150.97 759.792 150.714 760.204 150.053C760.408 149.726 760.51 149.65 760.89 149.548C761.526 149.378 761.939 149.609 762.815 150.621C764.162 152.177 764.929 153.635 765.452 155.626C765.988 157.673 766.024 159.167 765.589 161.306C765.338 162.53 765.15 162.887 764.633 163.103C764.475 163.17 764.205 163.201 764.032 163.173ZM759.28 162.151C758.976 162.111 758.566 161.823 758.388 161.525C758.189 161.192 758.198 160.882 758.431 160.098C758.731 159.09 758.732 158.591 758.433 157.458C758.134 156.325 757.888 155.893 757.131 155.167C756.874 154.921 756.601 154.617 756.523 154.492C756.203 153.966 756.495 153.138 757.106 152.846C757.623 152.598 758.06 152.74 758.765 153.384C760.807 155.249 761.601 158.259 760.743 160.881C760.439 161.806 759.943 162.237 759.28 162.151Z" fill="#F4500C"/>
<g clip-path="url(#clip7_131_2)">
<rect x="695.264" y="154.001" width="29.0909" height="40" rx="4" transform="rotate(-15 695.264 154.001)" fill="url(#paint2_linear_131_2)"/>
<path fill-rule="evenodd" clip-rule="evenodd" d="M730.814 171.936L723.435 167.33L727.547 159.645L726.943 159.269L722.732 167.138L719.548 167.991L718.037 162.305L717.848 161.594L713.691 145.958L713.026 146.136L717.183 161.772L707.88 164.265L703.724 148.629L703.059 148.807L707.216 164.443L707.405 165.154L708.917 170.84L705.732 171.693L698.176 166.977L697.84 167.605L705.219 172.211L701.107 179.896L701.711 180.273L705.921 172.404L709.106 171.551L710.617 177.236L710.806 177.947L714.963 193.584L715.628 193.406L711.471 177.769L720.773 175.277L724.93 190.913L725.595 190.735L721.343 174.743C721.291 174.547 721.1 174.428 720.916 174.477L711.282 177.058L709.676 171.017L708.069 164.976L717.372 162.483L718.978 168.524C719.03 168.721 719.221 168.84 719.405 168.791L722.921 167.849L730.477 172.565L730.814 171.936Z" fill="#47453F"/>
</g>
<rect x="695.264" y="154.001" width="29.0909" height="40" rx="4" transform="rotate(-15 695.264 154.001)" stroke="#47453F" stroke-width="0.6"/>
<g clip-path="url(#clip8_131_2)">
<rect width="218" height="140" transform="translate(621.54 342.506) rotate(-15)" fill="#F4500C"/>
<path d="M647.977 361.174L647.586 359.715L656.285 357.384L656.676 358.844L653.169 359.783L655.79 369.563L654.099 370.016L651.479 360.236L647.977 361.174ZM663.461 367.69C662.671 367.902 661.933 367.906 661.247 367.701C660.561 367.497 659.967 367.113 659.467 366.549C658.967 365.985 658.6 365.267 658.367 364.396C658.133 363.522 658.091 362.714 658.241 361.971C658.391 361.229 658.712 360.598 659.204 360.078C659.696 359.558 660.337 359.192 661.128 358.98C661.918 358.769 662.656 358.765 663.342 358.969C664.028 359.174 664.622 359.56 665.123 360.127C665.624 360.695 665.992 361.416 666.226 362.291C666.459 363.161 666.501 363.966 666.349 364.705C666.198 365.443 665.877 366.072 665.385 366.592C664.893 367.112 664.252 367.478 663.461 367.69ZM663.098 366.311C663.61 366.174 663.998 365.925 664.262 365.564C664.526 365.203 664.678 364.776 664.719 364.283C664.763 363.788 664.712 363.271 664.567 362.729C664.423 362.191 664.208 361.719 663.923 361.314C663.641 360.903 663.294 360.606 662.884 360.421C662.474 360.237 662.013 360.214 661.501 360.351C660.985 360.489 660.593 360.741 660.327 361.107C660.064 361.471 659.911 361.902 659.867 362.4C659.827 362.893 659.879 363.409 660.023 363.947C660.168 364.488 660.381 364.962 660.663 365.369C660.948 365.775 661.295 366.069 661.705 366.249C662.117 366.429 662.582 366.449 663.098 366.311ZM667.806 354.297L670.818 365.537L669.177 365.976L666.165 354.736L667.806 354.297ZM675.529 364.474C674.995 364.617 674.485 364.648 674.001 364.566C673.515 364.481 673.095 364.281 672.74 363.969C672.39 363.655 672.14 363.222 671.992 362.669C671.865 362.193 671.851 361.777 671.952 361.421C672.052 361.065 672.234 360.755 672.497 360.493C672.76 360.23 673.072 360.001 673.431 359.807C673.791 359.613 674.164 359.438 674.55 359.284C675.039 359.09 675.436 358.933 675.741 358.812C676.045 358.687 676.256 358.562 676.375 358.436C676.495 358.31 676.528 358.148 676.475 357.95L676.464 357.912C676.336 357.433 676.101 357.098 675.76 356.907C675.422 356.715 674.988 356.69 674.458 356.832C673.905 356.98 673.502 357.219 673.25 357.55C673 357.876 672.854 358.203 672.813 358.532L671.177 358.594C671.222 358.032 671.379 357.547 671.646 357.138C671.915 356.725 672.261 356.385 672.684 356.119C673.106 355.849 673.571 355.646 674.08 355.51C674.416 355.42 674.784 355.364 675.182 355.344C675.583 355.319 675.976 355.366 676.362 355.487C676.751 355.606 677.103 355.831 677.419 356.162C677.734 356.489 677.974 356.96 678.139 357.575L679.639 363.173L678.036 363.602L677.727 362.45L677.662 362.468C677.612 362.708 677.509 362.959 677.352 363.221C677.194 363.483 676.967 363.726 676.671 363.951C676.374 364.175 675.993 364.35 675.529 364.474ZM675.533 363.062C675.986 362.94 676.35 362.746 676.624 362.481C676.902 362.214 677.086 361.914 677.177 361.58C677.27 361.241 677.272 360.905 677.183 360.572L676.892 359.486C676.849 359.56 676.75 359.645 676.596 359.741C676.444 359.833 676.267 359.926 676.064 360.019C675.861 360.109 675.663 360.195 675.469 360.279C675.275 360.358 675.112 360.425 674.982 360.48C674.674 360.605 674.402 360.751 674.164 360.917C673.929 361.081 673.758 361.274 673.648 361.496C673.542 361.713 673.528 361.967 673.606 362.26C673.715 362.666 673.947 362.933 674.303 363.062C674.658 363.186 675.068 363.186 675.533 363.062ZM682.124 357.142L683.466 362.148L681.825 362.587L679.566 354.157L681.141 353.735L681.509 355.107L681.613 355.08C681.687 354.581 681.895 354.141 682.236 353.76C682.58 353.377 683.069 353.101 683.702 352.932C684.276 352.778 684.812 352.764 685.308 352.889C685.804 353.011 686.234 353.277 686.598 353.685C686.962 354.093 687.237 354.645 687.424 355.34L688.86 360.702L687.219 361.142L685.836 355.977C685.672 355.366 685.385 354.932 684.974 354.673C684.563 354.411 684.079 354.354 683.523 354.503C683.142 354.605 682.826 354.778 682.574 355.022C682.325 355.265 682.158 355.569 682.071 355.933C681.987 356.293 682.005 356.696 682.124 357.142ZM691.061 360.112L688.802 351.682L690.443 351.243L692.702 359.673L691.061 360.112ZM689.283 350.16C688.997 350.236 688.727 350.207 688.471 350.071C688.218 349.931 688.055 349.728 687.984 349.461C687.911 349.19 687.95 348.933 688.1 348.688C688.253 348.44 688.472 348.277 688.758 348.2C689.043 348.124 689.312 348.156 689.566 348.296C689.821 348.431 689.986 348.634 690.058 348.905C690.13 349.172 690.089 349.43 689.936 349.679C689.786 349.923 689.568 350.083 689.283 350.16ZM704.678 348.223C704.483 347.918 704.26 347.658 704.01 347.443C703.763 347.223 703.492 347.052 703.197 346.931C702.901 346.807 702.582 346.737 702.241 346.723C701.903 346.707 701.548 346.75 701.175 346.85C700.542 347.019 700.015 347.335 699.593 347.797C699.172 348.259 698.898 348.844 698.77 349.553C698.645 350.257 698.704 351.063 698.947 351.97C699.191 352.881 699.546 353.612 700.011 354.162C700.476 354.711 701.01 355.08 701.613 355.267C702.216 355.455 702.847 355.46 703.505 355.284C704.116 355.12 704.615 354.853 705.002 354.483C705.393 354.111 705.652 353.666 705.779 353.145C705.909 352.62 705.891 352.049 705.726 351.43L706.187 351.395L702.971 352.257L702.596 350.857L707.014 349.673L707.356 350.952C707.609 351.896 707.628 352.77 707.412 353.573C707.198 354.371 706.789 355.053 706.183 355.619C705.582 356.184 704.828 356.588 703.92 356.832C702.903 357.104 701.947 357.109 701.054 356.847C700.163 356.583 699.389 356.079 698.731 355.334C698.071 354.585 697.583 353.618 697.265 352.433C697.025 351.536 696.934 350.698 696.991 349.918C697.049 349.138 697.236 348.438 697.553 347.82C697.872 347.197 698.302 346.672 698.842 346.245C699.386 345.813 700.021 345.5 700.749 345.305C701.357 345.142 701.946 345.08 702.517 345.119C703.092 345.158 703.629 345.286 704.127 345.506C704.628 345.724 705.075 346.024 705.468 346.405C705.859 346.783 706.176 347.233 706.418 347.757L704.678 348.223ZM710.576 354.883L708.317 346.454L709.903 346.029L710.262 347.368L710.35 347.344C710.382 346.849 710.557 346.42 710.875 346.056C711.196 345.688 711.604 345.438 712.098 345.305C712.2 345.278 712.322 345.249 712.463 345.219C712.607 345.188 712.722 345.168 712.805 345.157L713.226 346.727C713.155 346.726 713.032 346.737 712.858 346.76C712.683 346.78 712.511 346.812 712.343 346.857C711.955 346.961 711.631 347.136 711.372 347.382C711.115 347.623 710.937 347.912 710.839 348.248C710.74 348.581 710.739 348.93 710.838 349.296L712.217 354.444L710.576 354.883ZM718.935 352.844C718.401 352.987 717.891 353.017 717.407 352.935C716.921 352.85 716.501 352.651 716.147 352.338C715.796 352.024 715.547 351.591 715.398 351.038C715.271 350.563 715.258 350.147 715.358 349.79C715.459 349.434 715.641 349.124 715.904 348.862C716.166 348.599 716.478 348.371 716.837 348.176C717.197 347.982 717.57 347.808 717.956 347.653C718.445 347.459 718.842 347.302 719.147 347.181C719.451 347.056 719.663 346.931 719.782 346.805C719.901 346.679 719.934 346.517 719.881 346.32L719.871 346.281C719.742 345.802 719.507 345.467 719.166 345.276C718.828 345.084 718.394 345.059 717.864 345.201C717.311 345.349 716.909 345.589 716.656 345.919C716.406 346.245 716.261 346.572 716.219 346.901L714.583 346.963C714.629 346.402 714.785 345.917 715.052 345.508C715.321 345.094 715.668 344.755 716.09 344.488C716.512 344.218 716.977 344.015 717.486 343.879C717.823 343.789 718.19 343.734 718.589 343.713C718.99 343.688 719.383 343.736 719.768 343.856C720.157 343.975 720.509 344.2 720.825 344.531C721.141 344.859 721.38 345.33 721.545 345.944L723.045 351.542L721.443 351.972L721.134 350.819L721.068 350.837C721.019 351.077 720.915 351.329 720.758 351.59C720.601 351.852 720.374 352.095 720.077 352.32C719.78 352.545 719.4 352.719 718.935 352.844ZM718.939 351.431C719.393 351.309 719.756 351.116 720.03 350.85C720.308 350.584 720.492 350.283 720.583 349.949C720.677 349.61 720.679 349.275 720.589 348.942L720.298 347.855C720.255 347.929 720.157 348.014 720.002 348.111C719.85 348.202 719.673 348.295 719.471 348.388C719.267 348.478 719.069 348.565 718.876 348.648C718.681 348.727 718.519 348.794 718.388 348.849C718.081 348.975 717.808 349.12 717.57 349.286C717.336 349.451 717.164 349.644 717.055 349.865C716.948 350.082 716.934 350.337 717.012 350.629C717.121 351.036 717.354 351.303 717.71 351.431C718.064 351.555 718.474 351.555 718.939 351.431ZM728.827 350.175C728.011 350.394 727.259 350.397 726.571 350.186C725.886 349.969 725.298 349.576 724.808 349.005C724.318 348.435 723.96 347.727 723.733 346.882C723.504 346.025 723.462 345.227 723.609 344.486C723.754 343.741 724.07 343.105 724.557 342.579C725.043 342.052 725.683 341.683 726.477 341.47C727.117 341.298 727.72 341.264 728.285 341.368C728.849 341.468 729.341 341.689 729.763 342.031C730.187 342.372 730.505 342.818 730.715 343.37L729.118 343.797C728.925 343.426 728.632 343.14 728.241 342.938C727.854 342.736 727.398 342.705 726.875 342.846C726.418 342.968 726.049 343.196 725.77 343.53C725.494 343.859 725.32 344.27 725.248 344.764C725.175 345.254 725.219 345.799 725.38 346.399C725.545 347.014 725.78 347.519 726.087 347.916C726.393 348.312 726.749 348.587 727.155 348.741C727.564 348.894 728.002 348.908 728.466 348.784C728.777 348.701 729.044 348.568 729.266 348.387C729.491 348.202 729.66 347.978 729.774 347.716C729.892 347.453 729.945 347.16 729.933 346.838L731.53 346.41C731.618 346.971 731.571 347.505 731.389 348.013C731.207 348.52 730.9 348.963 730.469 349.341C730.04 349.719 729.493 349.997 728.827 350.175ZM737.678 347.804C736.848 348.026 736.085 348.04 735.39 347.846C734.697 347.648 734.102 347.268 733.602 346.708C733.106 346.143 732.741 345.423 732.506 344.548C732.275 343.685 732.232 342.881 732.377 342.136C732.527 341.39 732.843 340.755 733.325 340.229C733.812 339.703 734.446 339.335 735.229 339.125C735.705 338.997 736.187 338.952 736.676 338.99C737.164 339.028 737.631 339.168 738.076 339.409C738.521 339.651 738.918 340.013 739.267 340.496C739.615 340.975 739.892 341.597 740.097 342.362L740.253 342.943L733.551 344.739L733.222 343.51L738.315 342.145C738.199 341.713 738.009 341.354 737.744 341.069C737.478 340.779 737.16 340.58 736.79 340.471C736.424 340.362 736.028 340.364 735.604 340.477C735.143 340.601 734.771 340.822 734.487 341.141C734.207 341.456 734.022 341.819 733.932 342.231C733.845 342.639 733.858 343.053 733.971 343.474L734.229 344.434C734.379 344.998 734.607 345.45 734.91 345.793C735.217 346.134 735.578 346.361 735.993 346.473C736.406 346.582 736.852 346.572 737.332 346.444C737.643 346.36 737.914 346.24 738.147 346.084C738.379 345.924 738.564 345.729 738.702 345.5C738.841 345.271 738.924 345.011 738.952 344.721L740.581 344.585C740.579 345.076 740.463 345.536 740.233 345.966C740.006 346.392 739.676 346.764 739.244 347.084C738.815 347.399 738.293 347.639 737.678 347.804Z" fill="white"/>
<path d="M670.888 446.269L673.022 445.697C674.867 445.203 675.68 443.753 675.079 441.512C674.515 439.407 672.988 438.46 671.249 438.926L669.076 439.508L670.888 446.269ZM671.634 445.075L670.319 440.169L671.469 439.861C672.695 439.532 673.657 440.185 674.084 441.779C674.524 443.421 674.078 444.421 672.735 444.78L671.634 445.075ZM676.387 442.052C676.82 443.665 678.078 444.498 679.498 444.117C680.474 443.856 681.111 443.22 681.337 442.248L680.471 441.952C680.229 442.752 679.91 443.106 679.263 443.28C678.848 443.391 678.471 443.337 678.13 443.107C677.789 442.878 677.55 442.527 677.419 442.076L681.157 441.074L681.051 440.678C680.639 439.143 679.43 438.338 678.039 438.711C676.638 439.086 675.96 440.458 676.387 442.052ZM677.244 441.346C677.056 440.569 677.491 439.758 678.264 439.551C679.076 439.334 679.762 439.771 680.026 440.601L677.244 441.346ZM683.822 442.276C684.247 442.586 684.872 442.678 685.5 442.509C686.823 442.155 687.489 440.775 687.064 439.191C686.64 437.607 685.374 436.746 684.041 437.103C683.461 437.258 683.002 437.63 682.765 438.097L682.745 438.102L682.103 435.707L681.157 435.96L683.046 443.011L683.935 442.773L683.803 442.281L683.822 442.276ZM686.118 439.445C686.418 440.565 686.037 441.423 685.148 441.661C684.395 441.863 683.631 441.406 683.426 440.642L683.185 439.744C682.983 438.991 683.426 438.209 684.199 438.002C685.078 437.767 685.818 438.324 686.118 439.445ZM689.024 441.41L689.971 441.156L688.599 436.037L687.652 436.29L689.024 441.41ZM687.366 435.415L688.399 435.138L688.133 434.143L687.099 434.42L687.366 435.415ZM692.852 435.808L692.624 434.958L691.369 435.294L691.048 434.097L690.101 434.35L690.422 435.548L689.62 435.763L689.848 436.613L690.65 436.398L691.437 439.335C691.698 440.31 692.171 440.567 693.204 440.29L693.755 440.142L693.514 439.244L693.05 439.368C692.635 439.479 692.469 439.4 692.378 439.062L691.596 436.145L692.852 435.808ZM696.699 435.73C697.271 437.864 698.774 438.953 700.522 438.484C701.266 438.285 701.815 437.9 702.167 437.319C702.518 436.738 702.621 436.038 702.478 435.237L701.445 435.359C701.63 436.552 701.23 437.301 700.274 437.557C699.105 437.87 698.129 437.086 697.694 435.463C697.262 433.85 697.713 432.673 698.881 432.36C699.78 432.119 700.49 432.53 700.956 433.533L701.887 433.108C701.33 431.725 700.024 431.06 698.633 431.433C696.904 431.896 696.132 433.614 696.699 435.73ZM703.764 436.032C704.004 436.93 704.826 437.331 705.84 437.059C706.468 436.891 706.935 436.507 707.109 436.036L707.128 436.031L707.26 436.523L708.129 436.29L707.187 432.774C706.897 431.693 705.985 431.223 704.797 431.541C704.246 431.689 703.814 431.97 703.508 432.373C703.212 432.773 703.086 433.232 703.134 433.757L704.103 433.704C704.055 433.024 704.391 432.54 705.019 432.372C705.599 432.217 706.029 432.391 706.14 432.807C706.241 433.183 706 433.445 705.135 433.925C703.914 434.583 703.533 435.172 703.764 436.032ZM706.729 434.812C706.887 435.402 706.472 435.979 705.729 436.178C705.159 436.331 704.792 436.16 704.675 435.725C704.572 435.339 704.821 435.034 705.579 434.614C706.153 434.284 706.411 434.049 706.438 433.803L706.457 433.798L706.729 434.812ZM709.546 435.911L710.493 435.657L709.696 432.682C709.458 431.793 709.648 431.308 710.237 431.15C710.392 431.108 710.574 431.091 710.792 431.094L710.722 430.098C710.516 430.102 710.315 430.125 710.131 430.174C709.658 430.301 709.314 430.6 709.196 430.973L709.177 430.978L709.063 430.553L708.174 430.791L709.546 435.911ZM711.947 432.524C712.372 434.108 713.638 434.97 714.961 434.615C715.589 434.447 716.084 434.055 716.297 433.574L716.316 433.569L716.448 434.061L717.337 433.823L715.448 426.772L714.501 427.026L715.143 429.421L715.124 429.426C714.685 429.14 714.101 429.048 713.521 429.203C712.188 429.561 711.523 430.94 711.947 432.524ZM715.824 431.962C716.028 432.725 715.595 433.503 714.841 433.705C713.953 433.943 713.194 433.391 712.894 432.27C712.594 431.15 712.955 430.297 713.834 430.062C714.607 429.855 715.381 430.31 715.583 431.063L715.824 431.962Z" fill="white"/>
</g>
<path opacity="0.09" d="M722.568 105.274L508.147 162.729L575.059 218.778L741.063 174.298C741.063 174.298 758.596 184.396 764.144 205.103C768.712 222.151 759.558 243.321 759.558 243.321L635.055 276.682L832.094 431.027L922.012 406.933L798.803 306.785C798.803 306.785 856.002 224.565 820.847 167.716C779.059 100.141 722.568 105.274 722.568 105.274Z" fill="#171717"/>
<path d="M594.938 163.033L597.802 162.266C598.399 162.106 598.935 162.072 599.411 162.163C599.886 162.255 600.29 162.471 600.622 162.811C600.955 163.152 601.2 163.616 601.357 164.205C601.487 164.687 601.532 165.117 601.493 165.496C601.453 165.87 601.343 166.204 601.163 166.498C600.982 166.787 600.742 167.044 600.443 167.269L599.985 167.74L597.661 168.363L597.256 166.874L598.868 166.442C599.113 166.377 599.302 166.269 599.432 166.12C599.566 165.966 599.646 165.78 599.671 165.563C599.699 165.341 599.678 165.097 599.606 164.832C599.531 164.549 599.429 164.318 599.302 164.138C599.178 163.952 599.024 163.827 598.84 163.762C598.659 163.692 598.446 163.69 598.201 163.756L597.134 164.042L599.127 171.479L597.33 171.96L594.938 163.033ZM601.383 170.874L598.68 167.334L600.561 166.823L603.279 170.274L603.302 170.36L601.383 170.874ZM605.544 161.9L605.589 169.747L603.695 170.255L604.092 160.58L605.276 160.263L605.544 161.9ZM609.023 168.827L605.127 162.012L604.522 160.465L605.723 160.143L610.93 168.316L609.023 168.827ZM608.198 165.48L608.598 166.97L604.569 168.049L604.17 166.559L608.198 165.48ZM616.504 165.232L616.902 166.716L613.021 167.756L612.623 166.272L616.504 165.232ZM611.186 158.679L613.579 167.607L611.782 168.088L609.39 159.161L611.186 158.679ZM614.958 161.546L615.344 162.987L611.984 163.887L611.598 162.446L614.958 161.546ZM614.497 157.792L614.897 159.282L611.028 160.319L610.629 158.829L614.497 157.792ZM621.8 155.836L624.192 164.763L622.457 165.228L618.158 160.393L619.655 165.979L617.95 166.435L615.558 157.508L617.269 157.05L621.608 161.939L620.095 156.292L621.8 155.836ZM630.361 161.52L630.759 163.003L626.877 164.043L626.48 162.559L630.361 161.52ZM625.043 154.966L627.435 163.894L625.639 164.375L623.247 155.448L625.043 154.966ZM628.815 157.833L629.201 159.274L625.841 160.174L625.455 158.734L628.815 157.833ZM628.354 154.079L628.754 155.569L624.885 156.606L624.485 155.116L628.354 154.079ZM634.955 159.362C634.912 159.203 634.859 159.061 634.795 158.938C634.732 158.815 634.638 158.711 634.514 158.626C634.395 158.539 634.232 158.465 634.027 158.401C633.826 158.337 633.57 158.283 633.261 158.239C632.892 158.189 632.532 158.127 632.18 158.055C631.826 157.979 631.497 157.87 631.192 157.729C630.887 157.587 630.623 157.395 630.4 157.152C630.18 156.904 630.019 156.588 629.916 156.204C629.815 155.828 629.791 155.469 629.844 155.126C629.901 154.782 630.027 154.468 630.222 154.183C630.417 153.895 630.667 153.646 630.975 153.436C631.287 153.226 631.653 153.064 632.074 152.951C632.646 152.798 633.172 152.784 633.653 152.909C634.137 153.034 634.55 153.271 634.889 153.623C635.233 153.973 635.476 154.416 635.62 154.952L633.829 155.432C633.761 155.178 633.665 154.965 633.54 154.793C633.418 154.615 633.264 154.492 633.079 154.423C632.895 154.355 632.679 154.353 632.434 154.419C632.205 154.48 632.028 154.578 631.902 154.713C631.779 154.842 631.702 154.996 631.671 155.175C631.643 155.349 631.655 155.534 631.708 155.731C631.747 155.878 631.818 156.001 631.919 156.101C632.023 156.196 632.151 156.273 632.303 156.333C632.454 156.389 632.627 156.437 632.821 156.477C633.02 156.516 633.235 156.548 633.465 156.574C633.913 156.625 634.317 156.705 634.679 156.814C635.04 156.919 635.357 157.062 635.629 157.243C635.9 157.42 636.128 157.641 636.313 157.907C636.498 158.173 636.641 158.494 636.742 158.87C636.842 159.242 636.867 159.599 636.818 159.94C636.773 160.277 636.657 160.588 636.471 160.875C636.284 161.157 636.032 161.404 635.716 161.616C635.405 161.826 635.036 161.989 634.611 162.102C634.198 162.213 633.793 162.26 633.394 162.245C632.995 162.225 632.622 162.134 632.276 161.972C631.934 161.806 631.634 161.56 631.376 161.235C631.116 160.905 630.919 160.487 630.783 159.98L632.58 159.499C632.652 159.769 632.74 159.993 632.845 160.17C632.949 160.344 633.071 160.474 633.212 160.558C633.352 160.639 633.509 160.687 633.684 160.701C633.862 160.711 634.055 160.688 634.263 160.632C634.5 160.568 634.676 160.473 634.791 160.346C634.91 160.217 634.98 160.069 635.001 159.902C635.022 159.734 635.006 159.554 634.955 159.362ZM639.753 151.025L642.145 159.952L640.36 160.431L637.968 151.503L639.753 151.025ZM641.972 150.43L642.371 151.92L636.191 153.576L635.792 152.087L641.972 150.43Z" fill="#F4500C"/>
</g>
</g>
<defs>
<filter id="filter0_d_131_2" x="0" y="0" width="599.347" height="687.735" filterUnits="userSpaceOnUse" color-interpolation-filters="sRGB">
<feFlood flood-opacity="0" result="BackgroundImageFix"/>
<feColorMatrix in="SourceAlpha" type="matrix" values="0 0 0 0 0 0 0 0 0 0 0 0 0 0 0 0 0 0 127 0" result="hardAlpha"/>
<feOffset dy="60"/>
<feGaussianBlur stdDeviation="75"/>
<feComposite in2="hardAlpha" operator="out"/>
<feColorMatrix type="matrix" values="0 0 0 0 0.203922 0 0 0 0 0.25098 0 0 0 0 0.329412 0 0 0 0.3 0"/>
<feBlend mode="normal" in2="BackgroundImageFix" result="effect1_dropShadow_131_2"/>
<feBlend mode="normal" in="SourceGraphic" in2="effect1_dropShadow_131_2" result="shape"/>
</filter>
<filter id="filter1_d_131_2" x="209" y="85.9995" width="599.347" height="687.735" filterUnits="userSpaceOnUse" color-interpolation-filters="sRGB">
<feFlood flood-opacity="0" result="BackgroundImageFix"/>
<feColorMatrix in="SourceAlpha" type="matrix" values="0 0 0 0 0 0 0 0 0 0 0 0 0 0 0 0 0 0 127 0" result="hardAlpha"/>
<feOffset dy="60"/>
<feGaussianBlur stdDeviation="75"/>
<feComposite in2="hardAlpha" operator="out"/>
<feColorMatrix type="matrix" values="0 0 0 0 0.203922 0 0 0 0 0.25098 0 0 0 0 0.329412 0 0 0 0.3 0"/>
<feBlend mode="normal" in2="BackgroundImageFix" result="effect1_dropShadow_131_2"/>
<feBlend mode="normal" in="SourceGraphic" in2="effect1_dropShadow_131_2" result="shape"/>
</filter>
<filter id="filter2_d_131_2" x="419" y="0.000488281" width="599.347" height="687.735" filterUnits="userSpaceOnUse" color-interpolation-filters="sRGB">
<feFlood flood-opacity="0" result="BackgroundImageFix"/>
<feColorMatrix in="SourceAlpha" type="matrix" values="0 0 0 0 0 0 0 0 0 0 0 0 0 0 0 0 0 0 127 0" result="hardAlpha"/>
<feOffset dy="60"/>
<feGaussianBlur stdDeviation="75"/>
<feComposite in2="hardAlpha" operator="out"/>
<feColorMatrix type="matrix" values="0 0 0 0 0.203922 0 0 0 0 0.25098 0 0 0 0 0.329412 0 0 0 0.3 0"/>
<feBlend mode="normal" in2="BackgroundImageFix" result="effect1_dropShadow_131_2"/>
<feBlend mode="normal" in="SourceGraphic" in2="effect1_dropShadow_131_2" result="shape"/>
</filter>
<linearGradient id="paint0_linear_131_2" x1="276.499" y1="154.001" x2="324.661" y2="196.042" gradientUnits="userSpaceOnUse">
<stop stop-color="#F8ECC1"/>
<stop offset="1" stop-color="#C8AC48"/>
</linearGradient>
<linearGradient id="paint1_linear_131_2" x1="553.568" y1="245.695" x2="601.73" y2="287.736" gradientUnits="userSpaceOnUse">
<stop stop-color="#F8ECC1"/>
<stop offset="1" stop-color="#C8AC48"/>
</linearGradient>
<linearGradient id="paint2_linear_131_2" x1="695.498" y1="154.001" x2="743.661" y2="196.043" gradientUnits="userSpaceOnUse">
<stop stop-color="#F8ECC1"/>
<stop offset="1" stop-color="#C8AC48"/>
</linearGradient>
<clipPath id="clip0_131_2">
<rect x="150" y="146.422" width="218" height="343" rx="10" transform="rotate(-15 150 146.422)" fill="white"/>
</clipPath>
<clipPath id="clip1_131_2">
<rect x="276.264" y="154.001" width="29.0909" height="40" rx="4" transform="rotate(-15 276.264 154.001)" fill="white"/>
</clipPath>
<clipPath id="clip2_131_2">
<rect width="218" height="140" fill="white" transform="translate(202.54 342.505) rotate(-15)"/>
</clipPath>
<clipPath id="clip3_131_2">
<rect x="447.775" y="176" width="218" height="343" rx="10" transform="rotate(15 447.775 176)" fill="white"/>
</clipPath>
<clipPath id="clip4_131_2">
<rect x="553.333" y="245.695" width="29.0909" height="40" rx="4" transform="rotate(15 553.333 245.695)" fill="white"/>
</clipPath>
<clipPath id="clip5_131_2">
<rect width="218" height="140" fill="white" transform="translate(395.235 372.083) rotate(15)"/>
</clipPath>
<clipPath id="clip6_131_2">
<rect x="569" y="146.423" width="218" height="343" rx="10" transform="rotate(-15 569 146.423)" fill="white"/>
</clipPath>
<clipPath id="clip7_131_2">
<rect x="695.264" y="154.001" width="29.0909" height="40" rx="4" transform="rotate(-15 695.264 154.001)" fill="white"/>
</clipPath>
<clipPath id="clip8_131_2">
<rect width="218" height="140" fill="white" transform="translate(621.54 342.506) rotate(-15)"/>
</clipPath>
</defs>
</svg>
