<svg width="131" height="119" viewBox="0 0 131 119" fill="none" xmlns="http://www.w3.org/2000/svg">
<path d="M7.26562 85.4971C13.0395 85.4971 25.8783 85.4971 31.5344 85.4971C25.7605 85.4971 12.9217 85.4971 7.26562 85.4971Z" fill="#16DB93" stroke="#0F142D" stroke-miterlimit="10"/>
<path d="M26.1914 85.4971C33.5952 85.4971 48.4977 85.4971 55.9014 85.4971" stroke="#0F142D" stroke-miterlimit="10"/>
<path d="M72.5108 28.0994C69.2097 27.9403 66.6419 24.8727 66.6047 21.648C66.4415 18.1031 69.2138 14.7442 72.864 14.7751C72.2836 14.8392 56.6704 14.614 56.6663 14.9321C54.9641 15.3184 53.4933 16.4897 52.6483 18.006C51.1383 20.644 51.5969 24.2426 53.8011 26.358C54.6604 27.1967 55.7615 27.7957 56.9452 28.0106C57.1848 28.056 57.4286 28.087 57.6723 28.1015C57.7901 28.1077 57.9078 28.1139 58.0256 28.1118H72.862C72.7442 28.1118 72.6265 28.1056 72.5087 28.1015L72.5108 28.0994Z" fill="#0075FF" stroke="#0F142D" stroke-miterlimit="10"/>
<path d="M50.5576 85.4971C57.9634 85.4971 72.866 85.4971 80.2697 85.4971C72.8639 85.4971 57.9614 85.4971 50.5576 85.4971Z" fill="#16DB93" stroke="#0F142D" stroke-miterlimit="10"/>
<path d="M74.8643 85.4971C82.2701 85.4971 97.1726 85.4971 104.576 85.4971C97.1705 85.4971 82.268 85.4971 74.8643 85.4971Z" fill="#16DB93" stroke="#0F142D" stroke-miterlimit="10"/>
<path d="M114.068 41.9199H99.2314V85.4975H114.068V41.9199Z" fill="#0075FF" stroke="#0F142D" stroke-miterlimit="10"/>
<path d="M75.523 1.50612C74.8516 1.20038 74.1224 1.02272 73.3829 1.00413C73.3271 1 73.2692 1 73.2114 1H58.375C59.1703 1 59.9615 1.17353 60.6845 1.50612L106.89 21.3087H121.726L75.523 1.50612Z" fill="#0075FF" stroke="#0F142D" stroke-miterlimit="10" stroke-linejoin="bevel"/>
<path d="M99.2314 85.4971C105.005 85.4971 117.844 85.4971 123.5 85.4971C117.726 85.4971 104.888 85.4971 99.2314 85.4971Z" fill="#16DB93" stroke="#0F142D" stroke-miterlimit="10"/>
<path d="M125.651 27.5069C125.684 24.9082 124.167 22.3094 121.728 21.3096H106.891C108.976 22.1751 110.432 24.212 110.736 26.4306C110.878 26.8417 110.798 34.6008 110.816 35.2515C110.864 38.6972 108.096 41.9508 104.551 41.9198H119.387C119.947 41.9198 120.505 41.8393 121.04 41.6823C122.978 41.1266 124.537 39.5545 125.221 37.6747C125.51 36.9 125.651 36.0778 125.655 35.2515V27.5069H125.651Z" fill="#0075FF" stroke="#0F142D" stroke-miterlimit="10"/>
<path d="M108.662 85.497C112.145 85.497 114.93 88.4614 114.93 92.1653V111.834C114.93 115.469 112.145 118.5 108.662 118.5H7.2655C3.78467 118.5 1 115.538 1 111.834V92.1653C1 88.4593 3.78467 85.497 7.2655 85.497H16.6958V41.9855H11.3805C7.89763 41.9855 5.11296 38.955 5.11296 35.3172V27.5726C5.11296 24.8788 6.63338 22.3854 9.03794 21.3753L56.0654 1.50663C57.5217 0.831123 59.2301 0.831123 60.6865 1.50663L106.892 21.3092C109.296 22.3193 110.815 24.7425 110.815 27.5065V35.2511C110.815 38.8889 108.03 41.9194 104.547 41.9194H99.2298V85.497H108.66H108.662ZM50.558 85.497H65.4337L65.3717 41.9194H50.5601V85.497M74.8639 85.497H89.7375L89.6756 41.9194H74.8639V85.497ZM41.0637 85.497V41.9855H26.1901V85.497H41.0637ZM58.0278 14.7751C54.547 14.7751 51.7623 17.7374 51.7623 21.4414C52.1239 30.2912 63.936 30.287 64.2933 21.4414C64.2933 17.7374 61.5087 14.7751 58.0258 14.7751" fill="#DBECFF"/>
<path d="M50.558 85.497H65.4337L65.3717 41.9194H50.5601V85.497M58.0278 14.7751C54.547 14.7751 51.7623 17.7374 51.7623 21.4414C52.1239 30.2912 63.936 30.287 64.2933 21.4414C64.2933 17.7374 61.5087 14.7751 58.0258 14.7751M108.662 85.497C112.145 85.497 114.93 88.4614 114.93 92.1653V111.834C114.93 115.469 112.145 118.5 108.662 118.5H7.2655C3.78467 118.5 1 115.538 1 111.834V92.1653C1 88.4593 3.78467 85.497 7.2655 85.497H16.6958V41.9855H11.3805C7.89763 41.9855 5.11296 38.955 5.11296 35.3172V27.5726C5.11296 24.8788 6.63338 22.3854 9.03794 21.3753L56.0654 1.50663C57.5217 0.831123 59.2301 0.831123 60.6865 1.50663L106.892 21.3092C109.296 22.3193 110.815 24.7425 110.815 27.5065V35.2511C110.815 38.8889 108.03 41.9194 104.547 41.9194H99.2298V85.497H108.66H108.662ZM74.8639 85.497H89.7375L89.6756 41.9194H74.8639V85.497ZM41.0637 85.497V41.9855H26.1901V85.497H41.0637Z" stroke="#0F142D" stroke-miterlimit="10"/>
<path d="M129.766 92.1671C129.807 89.3308 127.942 86.5027 125.159 85.7322C124.664 85.5876 124.147 85.5132 123.629 85.4988C123.344 85.476 108.91 85.5132 108.662 85.4988C111.589 85.4595 114.149 87.7463 114.748 90.562C114.868 91.0888 114.928 91.6279 114.93 92.1692V111.837C114.928 112.341 114.876 112.843 114.766 113.335C114.196 116.171 111.614 118.543 108.662 118.504H123.499C124.315 118.504 125.128 118.332 125.874 118.004C127.752 117.19 129.128 115.413 129.58 113.43C129.702 112.907 129.762 112.375 129.764 111.835V92.1671H129.766Z" fill="#0075FF" stroke="#0F142D" stroke-miterlimit="10"/>
</svg>
