<svg width="302" height="260" viewBox="0 0 302 260" fill="none" xmlns="http://www.w3.org/2000/svg">
<rect width="302" height="260" rx="11.8898" fill="#EBECF0"/>
<path d="M119.465 16.4216V23.5117C119.465 26.6665 117.887 28.2277 114.749 28.2277C113.106 28.2277 111.903 27.8374 111.122 27.0568C110.342 26.2763 109.968 25.0891 109.968 23.4792V16.4216H112V23.8858C112 25.6746 112.927 26.5527 114.781 26.5527C115.334 26.5527 115.806 26.4877 116.164 26.325C116.521 26.1787 116.798 25.951 116.977 25.6258C117.139 25.3168 117.269 24.9753 117.334 24.6175C117.399 24.2598 117.432 23.8045 117.432 23.2516V16.4216H119.465ZM130.127 19.8366H128.192C128.062 18.4869 127.233 17.8039 125.671 17.8039C124.972 17.8039 124.436 17.9502 124.045 18.2429C123.655 18.5356 123.46 18.9259 123.46 19.4138C123.46 19.8854 123.59 20.2106 123.883 20.3732C124.175 20.5521 124.81 20.7635 125.802 21.0074C126.062 21.0887 126.257 21.1375 126.403 21.17C127.688 21.4953 128.566 21.788 129.038 22.0482C130.062 22.6011 130.583 23.463 130.583 24.6338C130.583 25.1542 130.485 25.6095 130.322 26.0161C130.143 26.4389 129.916 26.7804 129.623 27.0568C129.33 27.3333 128.973 27.5609 128.582 27.7398C128.176 27.935 127.753 28.065 127.33 28.1464C126.891 28.2277 126.436 28.2602 125.98 28.2602C124.517 28.2602 123.346 27.9187 122.452 27.2194C121.541 26.5364 121.102 25.5119 121.102 24.1622H123.102C123.102 25.0078 123.379 25.642 123.931 26.0486C124.484 26.4551 125.2 26.6503 126.094 26.6503C126.875 26.6503 127.477 26.5039 127.916 26.1787C128.355 25.8534 128.582 25.4144 128.582 24.829C128.582 24.4712 128.452 24.1622 128.225 23.9346C127.997 23.7069 127.737 23.528 127.477 23.4304C127.2 23.3329 126.728 23.2028 126.062 23.0239C125.98 23.0076 125.915 22.9914 125.883 22.9751C124.436 22.6173 123.492 22.3084 123.037 22.0644C122.094 21.5766 121.59 20.8286 121.525 19.8041V19.5764C121.525 18.5519 121.899 17.7388 122.679 17.1209C123.46 16.5029 124.501 16.1939 125.802 16.1939C127.054 16.1939 128.078 16.5029 128.875 17.0883C129.656 17.69 130.078 18.6007 130.127 19.8366ZM132.346 16.4216H136.753C137.55 16.4216 138.249 16.5192 138.867 16.6818C139.469 16.8444 140.021 17.1534 140.542 17.6087C141.68 18.6332 142.249 20.0968 142.249 22.0157C142.249 24.0646 141.696 25.642 140.623 26.7153C140.135 27.2032 139.615 27.5284 139.062 27.7235C138.509 27.9187 137.777 28 136.867 28H132.346V16.4216ZM134.362 18.1454V26.2925H136.753C138.021 26.2925 138.916 25.9348 139.436 25.1867C139.956 24.4549 140.217 23.4304 140.217 22.1132C140.217 20.8773 139.924 19.9016 139.338 19.2024C138.753 18.5031 137.842 18.1454 136.623 18.1454H134.362ZM147.518 16.4216H149.583L151.697 25.2355L154.072 16.4216H156.137L158.43 25.2355L160.609 16.4216H162.674L159.471 28H157.405L155.064 19.1048L152.673 28H150.575L147.518 16.4216ZM163.036 22.1945C163.231 20.3082 164.45 19.3487 166.711 19.3487C167.751 19.3487 168.597 19.5601 169.215 19.9667C169.833 20.3895 170.158 21.0237 170.158 21.8856V26.1462C170.158 26.3901 170.174 26.5527 170.24 26.634C170.305 26.7316 170.418 26.7641 170.597 26.7641C170.727 26.7641 170.857 26.7641 171.02 26.7316V28.0325C170.532 28.1626 170.142 28.2114 169.817 28.2114C169.02 28.2114 168.565 27.8862 168.451 27.2032C167.735 27.8862 166.76 28.2114 165.507 28.2114C164.629 28.2114 163.946 28 163.442 27.5447C162.922 27.0893 162.678 26.4877 162.678 25.7071C162.678 25.4794 162.694 25.2518 162.759 25.0404C162.808 24.8452 162.873 24.6663 162.938 24.5037C163.003 24.3574 163.117 24.211 163.279 24.0809C163.442 23.9508 163.572 23.8532 163.67 23.7557C163.767 23.6744 163.946 23.5931 164.174 23.5117C164.402 23.4467 164.58 23.3817 164.694 23.3491C164.808 23.3166 165.003 23.2678 165.296 23.219C165.572 23.1865 165.751 23.154 165.849 23.1377C165.946 23.1215 166.142 23.0889 166.434 23.0564C167.085 22.9751 167.54 22.9101 167.784 22.845C168.012 22.78 168.174 22.6987 168.272 22.5686C168.337 22.4873 168.386 22.2921 168.386 21.9669C168.386 21.1213 167.8 20.6985 166.662 20.6985C166.044 20.6985 165.605 20.8123 165.328 21.04C165.036 21.2676 164.857 21.6579 164.792 22.1945H163.036ZM168.369 23.7882C168.223 23.8695 168.06 23.9346 167.882 23.9996C167.686 24.0646 167.54 24.0972 167.426 24.1134C167.312 24.1297 167.134 24.146 166.89 24.1785C166.646 24.211 166.483 24.2435 166.418 24.2435C166.19 24.2761 166.011 24.3086 165.881 24.3411C165.751 24.3736 165.589 24.4061 165.394 24.4712C165.198 24.5362 165.052 24.6175 164.954 24.7151C164.857 24.8127 164.759 24.9265 164.694 25.0891C164.613 25.2518 164.58 25.4306 164.58 25.642C164.58 26.0486 164.711 26.3576 164.971 26.569C165.231 26.7966 165.605 26.8942 166.093 26.8942C166.906 26.8942 167.54 26.6828 167.995 26.2275C168.239 25.9835 168.369 25.4957 168.369 24.7802V23.7882ZM174.056 16.4216V28H172.218V16.4216H174.056ZM177.978 16.4216V28H176.141V16.4216H177.978ZM187.511 25.3819C187.3 26.2925 186.844 27.008 186.161 27.5121C185.478 28.0325 184.649 28.2765 183.706 28.2765C182.437 28.2765 181.429 27.8699 180.681 27.0568C179.933 26.2437 179.575 25.1867 179.575 23.902C179.575 22.6011 179.949 21.5115 180.714 20.6497C181.478 19.8041 182.454 19.365 183.641 19.365C184.86 19.365 185.836 19.7878 186.552 20.6334C187.267 21.479 187.625 22.6173 187.625 24.0646V24.2598H181.429C181.445 25.1054 181.657 25.7721 182.063 26.2275C182.454 26.6828 183.023 26.9105 183.738 26.9105C184.242 26.9105 184.649 26.7966 184.974 26.5527C185.299 26.3088 185.543 25.9185 185.738 25.3819H187.511ZM185.771 23.0239C185.706 22.3246 185.494 21.7717 185.104 21.3652C184.714 20.9586 184.226 20.7472 183.624 20.7472C183.006 20.7472 182.519 20.9424 182.145 21.3327C181.771 21.7229 181.543 22.2921 181.462 23.0239H185.771ZM193.132 19.6089V20.9586H191.441V25.3819C191.441 25.642 191.441 25.8372 191.457 25.9348C191.457 26.0323 191.49 26.1462 191.555 26.2763C191.603 26.4063 191.701 26.4877 191.831 26.5202C191.961 26.569 192.156 26.5852 192.4 26.5852C192.693 26.5852 192.937 26.5852 193.132 26.5527V28.0163C192.758 28.065 192.335 28.0813 191.88 28.0813C191.555 28.0813 191.262 28.065 191.018 28.0163C190.774 27.9675 190.579 27.9024 190.416 27.8374C190.254 27.7723 190.107 27.6748 190.01 27.5121C189.896 27.3495 189.815 27.2194 189.75 27.1219C189.685 27.0243 189.652 26.8292 189.62 26.569C189.587 26.3088 189.587 26.1136 189.587 25.9835V25.268V25.1704V25.0729V24.959V20.9586H188.188V19.6089H189.587V17.0883H191.441V19.6089H193.132Z" fill="black"/>
<g clip-path="url(#clip0_1824_4251)">
<path d="M186.051 63.5332H111.897V102.561H186.051V63.5332Z" fill="#B22234"/>
<path d="M111.897 68.0371H186.051ZM186.051 74.0415H111.897ZM111.897 80.0458H186.051ZM186.051 86.0502H111.897ZM111.897 92.0545H186.051ZM186.051 98.0589H111.897Z" fill="white"/>
<path d="M111.897 68.0371H186.051M186.051 74.0415H111.897M111.897 80.0458H186.051M186.051 86.0502H111.897M111.897 92.0545H186.051M186.051 98.0589H111.897" stroke="white" stroke-width="3.25236"/>
<path d="M148.53 63.5332H118.868V84.5484H148.53V63.5332Z" fill="#3C3B6E"/>
<path d="M132.633 64.4922L133.339 66.6646L131.491 65.322H133.775L131.927 66.6646L132.633 64.4922Z" fill="white"/>
<path d="M137.555 64.4922L138.261 66.6646L136.413 65.322H138.697L136.849 66.6646L137.555 64.4922Z" fill="white"/>
<path d="M142.477 64.4922L143.183 66.6646L141.335 65.322H143.619L141.771 66.6646L142.477 64.4922Z" fill="white"/>
<path d="M147.399 64.4922L148.105 66.6646L146.257 65.322H148.541L146.693 66.6646L147.399 64.4922Z" fill="white"/>
<path d="M145 66.5947L145.706 68.7671L143.858 67.4245H146.143L144.295 68.7671L145 66.5947Z" fill="white"/>
<path d="M145 70.7969L145.706 72.9693L143.858 71.6267H146.143L144.295 72.9693L145 70.7969Z" fill="white"/>
<path d="M145 75.001L145.706 77.1734L143.858 75.8308H146.143L144.295 77.1734L145 75.001Z" fill="white"/>
<path d="M145 79.2041L145.706 81.3765L143.858 80.0339H146.143L144.295 81.3765L145 79.2041Z" fill="white"/>
<path d="M140.016 66.5938L140.722 68.7661L138.874 67.4235H141.158L139.31 68.7661L140.016 66.5938Z" fill="white"/>
<path d="M135.151 66.5947L135.857 68.7671L134.009 67.4245H136.293L134.445 68.7671L135.151 66.5947Z" fill="white"/>
<path d="M130.168 66.5938L130.874 68.7661L129.026 67.4235H131.311L129.463 68.7661L130.168 66.5938Z" fill="white"/>
<path d="M140.016 70.7969L140.722 72.9693L138.874 71.6267H141.158L139.31 72.9693L140.016 70.7969Z" fill="white"/>
<path d="M135.151 70.7969L135.857 72.9693L134.009 71.6267H136.293L134.445 72.9693L135.151 70.7969Z" fill="white"/>
<path d="M130.168 70.7969L130.874 72.9693L129.026 71.6267H131.311L129.463 72.9693L130.168 70.7969Z" fill="white"/>
<path d="M140.016 75L140.722 77.1724L138.874 75.8298H141.158L139.31 77.1724L140.016 75Z" fill="white"/>
<path d="M135.151 75.001L135.857 77.1734L134.009 75.8308H136.293L134.445 77.1734L135.151 75.001Z" fill="white"/>
<path d="M130.168 75L130.874 77.1724L129.026 75.8298H131.311L129.463 77.1724L130.168 75Z" fill="white"/>
<path d="M140.016 79.2041L140.722 81.3765L138.874 80.0339H141.158L139.31 81.3765L140.016 79.2041Z" fill="white"/>
<path d="M135.151 79.2041L135.857 81.3765L134.009 80.0339H136.293L134.445 81.3765L135.151 79.2041Z" fill="white"/>
<path d="M130.168 79.2041L130.874 81.3765L129.026 80.0339H131.311L129.463 81.3765L130.168 79.2041Z" fill="white"/>
<path d="M132.633 68.707L133.339 70.8794L131.491 69.5368H133.775L131.927 70.8794L132.633 68.707Z" fill="white"/>
<path d="M137.555 68.707L138.261 70.8794L136.413 69.5368H138.697L136.849 70.8794L137.555 68.707Z" fill="white"/>
<path d="M142.477 68.707L143.183 70.8794L141.335 69.5368H143.619L141.771 70.8794L142.477 68.707Z" fill="white"/>
<path d="M147.399 68.707L148.105 70.8794L146.257 69.5368H148.541L146.693 70.8794L147.399 68.707Z" fill="white"/>
<path d="M132.633 72.9209L133.339 75.0933L131.491 73.7507H133.775L131.927 75.0933L132.633 72.9209Z" fill="white"/>
<path d="M137.555 72.9209L138.261 75.0933L136.413 73.7507H138.697L136.849 75.0933L137.555 72.9209Z" fill="white"/>
<path d="M142.477 72.9209L143.183 75.0933L141.335 73.7507H143.619L141.771 75.0933L142.477 72.9209Z" fill="white"/>
<path d="M147.399 72.9209L148.105 75.0933L146.257 73.7507H148.541L146.693 75.0933L147.399 72.9209Z" fill="white"/>
<path d="M132.633 77.1338L133.339 79.3062L131.491 77.9636H133.775L131.927 79.3062L132.633 77.1338Z" fill="white"/>
<path d="M137.555 77.1348L138.261 79.3072L136.413 77.9645H138.697L136.849 79.3072L137.555 77.1348Z" fill="white"/>
<path d="M142.477 77.1348L143.183 79.3072L141.335 77.9645H143.619L141.771 79.3072L142.477 77.1348Z" fill="white"/>
<path d="M147.399 77.1348L148.105 79.3072L146.257 77.9645H148.541L146.693 79.3072L147.399 77.1348Z" fill="white"/>
<path d="M132.633 81.3486L133.339 83.521L131.491 82.1784H133.775L131.927 83.521L132.633 81.3486Z" fill="white"/>
<path d="M137.555 81.3486L138.261 83.521L136.413 82.1784H138.697L136.849 83.521L137.555 81.3486Z" fill="white"/>
<path d="M142.477 81.3486L143.183 83.521L141.335 82.1784H143.619L141.771 83.521L142.477 81.3486Z" fill="white"/>
<path d="M147.399 81.3486L148.105 83.521L146.257 82.1784H148.541L146.693 83.521L147.399 81.3486Z" fill="white"/>
</g>
<circle cx="165.157" cy="95.2436" r="7.3178" fill="#DEEBFF"/>
<g clip-path="url(#clip1_1824_4251)">
<path d="M169.22 97.4872C169.22 97.2309 169.021 97.0258 168.773 97.0258H168.1V94.0102H168.479C168.727 94.0102 168.926 93.8005 168.926 93.5488V93.0128C168.926 92.8217 168.818 92.6539 168.646 92.584L165.349 91.2137C165.245 91.1671 165.123 91.1671 165.019 91.2137L161.663 92.5886C161.491 92.6585 161.382 92.831 161.382 93.0174V93.5534C161.382 93.8051 161.581 94.0149 161.83 94.0149H162.209V97.0258H161.536C161.288 97.0258 161.089 97.2309 161.089 97.4872V98.8482C161.089 99.1045 161.288 99.3096 161.536 99.3096H168.773C169.021 99.3096 169.22 99.0999 169.22 98.8482V97.4872ZM167.422 97.0258H166.36V94.0102H167.417V97.0211L167.422 97.0258ZM165.687 97.0258H164.626V94.0102H165.683V97.0211L165.687 97.0258ZM165.159 92.1319C165.407 92.1319 165.606 92.3369 165.606 92.5933C165.606 92.845 165.407 93.0547 165.159 93.0547C164.91 93.0547 164.712 92.845 164.712 92.5933C164.712 92.3369 164.91 92.1319 165.159 92.1319ZM162.887 94.0149H163.948V97.0258H162.887V94.0149Z" fill="#42526E"/>
</g>
<path d="M81.1209 117.163C81.1795 115.055 81.7942 113.416 82.9943 112.186C84.1651 110.986 85.7751 110.372 87.7948 110.372C89.6681 110.372 91.2195 110.899 92.3904 111.894C93.5612 112.918 94.1466 114.235 94.1466 115.875C94.1466 116.87 93.8832 117.748 93.3563 118.509C92.8294 119.27 92.1562 119.768 91.2781 120.06C92.4196 120.353 93.327 120.939 94.0003 121.787C94.6442 122.636 94.9955 123.661 94.9955 124.89C94.9955 126.851 94.3223 128.432 92.9758 129.661C91.6293 130.891 89.873 131.505 87.7362 131.505C85.5994 131.505 83.8724 130.891 82.5845 129.661C81.2673 128.432 80.6233 126.822 80.6233 124.773V124.334H83.8432C83.931 127.203 85.2482 128.637 87.824 128.637C88.9364 128.637 89.8438 128.315 90.517 127.671C91.161 127.027 91.5122 126.12 91.5122 124.978C91.5122 123.807 91.1317 122.929 90.3706 122.373C89.6096 121.846 88.6144 121.553 87.4143 121.553C87.0337 121.553 86.6825 121.583 86.3605 121.583V119.065H86.6532C87.2386 119.065 87.7655 119.036 88.2046 118.977C88.6144 118.919 89.0534 118.772 89.4925 118.597C89.9316 118.421 90.2828 118.099 90.517 117.689C90.7512 117.28 90.8683 116.753 90.8683 116.109C90.8683 115.231 90.5755 114.499 90.0194 113.943C89.434 113.416 88.6729 113.123 87.7362 113.123C85.5409 113.123 84.3993 114.47 84.3115 117.163H81.1209ZM102.157 127.115V130.1C102.157 131.623 101.864 132.852 101.279 133.789C100.694 134.725 99.6398 135.34 98.1762 135.662V133.906C99.3763 133.554 100.02 132.589 100.079 131.066H98.1762V127.115H102.157ZM112.324 110.401C117.066 110.401 119.466 113.943 119.466 121.026C119.466 124.451 118.851 127.056 117.68 128.813C116.48 130.598 114.724 131.476 112.441 131.476C107.669 131.476 105.299 127.993 105.299 120.968C105.299 117.514 105.884 114.909 107.084 113.094C108.255 111.308 110.011 110.401 112.324 110.401ZM112.353 113.211C111.767 113.211 111.241 113.328 110.831 113.562C110.392 113.796 110.04 114.118 109.777 114.587C109.514 115.055 109.309 115.494 109.162 115.962C108.987 116.431 108.87 116.987 108.811 117.689C108.753 118.392 108.694 118.977 108.694 119.446C108.665 119.914 108.665 120.47 108.665 121.173C108.665 123.807 108.957 125.739 109.543 126.91C110.128 128.11 111.094 128.695 112.411 128.695C112.909 128.695 113.348 128.608 113.758 128.403C114.168 128.198 114.49 127.934 114.753 127.642C114.987 127.349 115.221 126.968 115.397 126.471C115.573 126.002 115.69 125.563 115.778 125.154C115.865 124.744 115.924 124.246 115.983 123.661C116.041 123.075 116.07 122.607 116.07 122.285C116.07 121.963 116.1 121.553 116.1 121.026C116.1 120.382 116.07 119.856 116.07 119.504C116.07 119.153 116.041 118.597 115.983 117.865C115.924 117.133 115.807 116.548 115.631 116.08C115.456 115.64 115.251 115.172 114.987 114.675C114.724 114.206 114.373 113.826 113.934 113.591C113.465 113.357 112.938 113.211 112.353 113.211ZM128.589 110.401C133.33 110.401 135.731 113.943 135.731 121.026C135.731 124.451 135.116 127.056 133.945 128.813C132.745 130.598 130.989 131.476 128.706 131.476C123.934 131.476 121.563 127.993 121.563 120.968C121.563 117.514 122.149 114.909 123.349 113.094C124.52 111.308 126.276 110.401 128.589 110.401ZM128.618 113.211C128.032 113.211 127.506 113.328 127.096 113.562C126.657 113.796 126.305 114.118 126.042 114.587C125.779 115.055 125.574 115.494 125.427 115.962C125.252 116.431 125.135 116.987 125.076 117.689C125.017 118.392 124.959 118.977 124.959 119.446C124.93 119.914 124.93 120.47 124.93 121.173C124.93 123.807 125.222 125.739 125.808 126.91C126.393 128.11 127.359 128.695 128.676 128.695C129.174 128.695 129.613 128.608 130.023 128.403C130.433 128.198 130.755 127.934 131.018 127.642C131.252 127.349 131.486 126.968 131.662 126.471C131.838 126.002 131.955 125.563 132.043 125.154C132.13 124.744 132.189 124.246 132.247 123.661C132.306 123.075 132.335 122.607 132.335 122.285C132.335 121.963 132.365 121.553 132.365 121.026C132.365 120.382 132.335 119.856 132.335 119.504C132.335 119.153 132.306 118.597 132.247 117.865C132.189 117.133 132.072 116.548 131.896 116.08C131.721 115.64 131.516 115.172 131.252 114.675C130.989 114.206 130.638 113.826 130.198 113.591C129.73 113.357 129.203 113.211 128.618 113.211ZM144.854 110.401C149.595 110.401 151.996 113.943 151.996 121.026C151.996 124.451 151.381 127.056 150.21 128.813C149.01 130.598 147.254 131.476 144.971 131.476C140.199 131.476 137.828 127.993 137.828 120.968C137.828 117.514 138.414 114.909 139.614 113.094C140.785 111.308 142.541 110.401 144.854 110.401ZM144.883 113.211C144.297 113.211 143.77 113.328 143.361 113.562C142.922 113.796 142.57 114.118 142.307 114.587C142.043 115.055 141.839 115.494 141.692 115.962C141.517 116.431 141.4 116.987 141.341 117.689C141.282 118.392 141.224 118.977 141.224 119.446C141.195 119.914 141.195 120.47 141.195 121.173C141.195 123.807 141.487 125.739 142.073 126.91C142.658 128.11 143.624 128.695 144.941 128.695C145.439 128.695 145.878 128.608 146.288 128.403C146.698 128.198 147.02 127.934 147.283 127.642C147.517 127.349 147.751 126.968 147.927 126.471C148.103 126.002 148.22 125.563 148.308 125.154C148.395 124.744 148.454 124.246 148.512 123.661C148.571 123.075 148.6 122.607 148.6 122.285C148.6 121.963 148.63 121.553 148.63 121.026C148.63 120.382 148.6 119.856 148.6 119.504C148.6 119.153 148.571 118.597 148.512 117.865C148.454 117.133 148.337 116.548 148.161 116.08C147.986 115.64 147.781 115.172 147.517 114.675C147.254 114.206 146.903 113.826 146.463 113.591C145.995 113.357 145.468 113.211 144.883 113.211ZM159.099 127.115V131.066H155.118V127.115H159.099ZM169.265 110.401C174.007 110.401 176.407 113.943 176.407 121.026C176.407 124.451 175.793 127.056 174.622 128.813C173.422 130.598 171.665 131.476 169.382 131.476C164.611 131.476 162.24 127.993 162.24 120.968C162.24 117.514 162.826 114.909 164.026 113.094C165.197 111.308 166.953 110.401 169.265 110.401ZM169.295 113.211C168.709 113.211 168.182 113.328 167.772 113.562C167.333 113.796 166.982 114.118 166.719 114.587C166.455 115.055 166.25 115.494 166.104 115.962C165.928 116.431 165.811 116.987 165.753 117.689C165.694 118.392 165.636 118.977 165.636 119.446C165.606 119.914 165.606 120.47 165.606 121.173C165.606 123.807 165.899 125.739 166.484 126.91C167.07 128.11 168.036 128.695 169.353 128.695C169.851 128.695 170.29 128.608 170.7 128.403C171.109 128.198 171.431 127.934 171.695 127.642C171.929 127.349 172.163 126.968 172.339 126.471C172.514 126.002 172.631 125.563 172.719 125.154C172.807 124.744 172.866 124.246 172.924 123.661C172.983 123.075 173.012 122.607 173.012 122.285C173.012 121.963 173.041 121.553 173.041 121.026C173.041 120.382 173.012 119.856 173.012 119.504C173.012 119.153 172.983 118.597 172.924 117.865C172.866 117.133 172.749 116.548 172.573 116.08C172.397 115.64 172.192 115.172 171.929 114.675C171.665 114.206 171.314 113.826 170.875 113.591C170.407 113.357 169.88 113.211 169.295 113.211ZM185.53 110.401C190.272 110.401 192.672 113.943 192.672 121.026C192.672 124.451 192.058 127.056 190.887 128.813C189.687 130.598 187.93 131.476 185.647 131.476C180.876 131.476 178.505 127.993 178.505 120.968C178.505 117.514 179.091 114.909 180.291 113.094C181.462 111.308 183.218 110.401 185.53 110.401ZM185.559 113.211C184.974 113.211 184.447 113.328 184.037 113.562C183.598 113.796 183.247 114.118 182.984 114.587C182.72 115.055 182.515 115.494 182.369 115.962C182.193 116.431 182.076 116.987 182.018 117.689C181.959 118.392 181.901 118.977 181.901 119.446C181.871 119.914 181.871 120.47 181.871 121.173C181.871 123.807 182.164 125.739 182.749 126.91C183.335 128.11 184.301 128.695 185.618 128.695C186.116 128.695 186.555 128.608 186.965 128.403C187.374 128.198 187.696 127.934 187.96 127.642C188.194 127.349 188.428 126.968 188.604 126.471C188.779 126.002 188.896 125.563 188.984 125.154C189.072 124.744 189.131 124.246 189.189 123.661C189.248 123.075 189.277 122.607 189.277 122.285C189.277 121.963 189.306 121.553 189.306 121.026C189.306 120.382 189.277 119.856 189.277 119.504C189.277 119.153 189.248 118.597 189.189 117.865C189.131 117.133 189.013 116.548 188.838 116.08C188.662 115.64 188.457 115.172 188.194 114.675C187.93 114.206 187.579 113.826 187.14 113.591C186.672 113.357 186.145 113.211 185.559 113.211ZM205.676 122.962V127.925C205.676 130.133 204.571 131.226 202.374 131.226C201.225 131.226 200.382 130.953 199.836 130.406C199.29 129.86 199.028 129.029 199.028 127.902V122.962H200.451V128.186C200.451 129.439 201.1 130.053 202.397 130.053C202.784 130.053 203.114 130.008 203.365 129.894C203.615 129.791 203.809 129.632 203.934 129.404C204.048 129.188 204.139 128.949 204.184 128.699C204.23 128.448 204.253 128.13 204.253 127.742V122.962H205.676ZM213.139 125.352H211.785C211.694 124.407 211.113 123.929 210.02 123.929C209.531 123.929 209.155 124.032 208.882 124.236C208.609 124.441 208.472 124.715 208.472 125.056C208.472 125.386 208.563 125.614 208.768 125.728C208.973 125.853 209.417 126.001 210.111 126.172C210.294 126.229 210.43 126.263 210.533 126.285C211.432 126.513 212.047 126.718 212.377 126.9C213.094 127.287 213.458 127.89 213.458 128.71C213.458 129.074 213.39 129.393 213.276 129.678C213.151 129.974 212.991 130.213 212.786 130.406C212.582 130.6 212.331 130.759 212.058 130.884C211.773 131.021 211.477 131.112 211.181 131.169C210.874 131.226 210.555 131.249 210.237 131.249C209.212 131.249 208.393 131.009 207.766 130.52C207.129 130.042 206.822 129.325 206.822 128.38H208.222C208.222 128.972 208.415 129.416 208.802 129.7C209.189 129.985 209.69 130.122 210.316 130.122C210.863 130.122 211.284 130.019 211.591 129.791C211.899 129.564 212.058 129.256 212.058 128.847C212.058 128.596 211.967 128.38 211.807 128.221C211.648 128.061 211.466 127.936 211.284 127.868C211.09 127.799 210.76 127.708 210.294 127.583C210.237 127.572 210.191 127.56 210.168 127.549C209.155 127.299 208.495 127.082 208.176 126.912C207.516 126.57 207.163 126.046 207.118 125.329V125.17C207.118 124.453 207.379 123.884 207.926 123.451C208.472 123.018 209.201 122.802 210.111 122.802C210.988 122.802 211.705 123.018 212.263 123.428C212.809 123.849 213.105 124.487 213.139 125.352ZM214.692 122.962H217.777C218.335 122.962 218.825 123.03 219.257 123.144C219.678 123.257 220.065 123.474 220.43 123.793C221.226 124.51 221.625 125.534 221.625 126.877C221.625 128.312 221.238 129.416 220.487 130.167C220.145 130.509 219.781 130.736 219.394 130.873C219.007 131.009 218.494 131.066 217.857 131.066H214.692V122.962ZM216.104 124.168V129.871H217.777C218.665 129.871 219.291 129.621 219.656 129.097C220.02 128.585 220.202 127.868 220.202 126.946C220.202 126.081 219.997 125.398 219.587 124.908C219.177 124.419 218.54 124.168 217.686 124.168H216.104Z" fill="black"/>
<rect x="56.5576" y="157.346" width="28.0817" height="28.0817" rx="14.0408" fill="#C1C7D0"/>
<path d="M76.5487 165.437C76.459 165.347 76.3452 165.285 76.2212 165.259C76.0971 165.232 75.968 165.242 75.8494 165.287L64.8792 169.439H64.877C64.7505 169.488 64.6421 169.574 64.5666 169.687C64.4911 169.8 64.4522 169.933 64.4552 170.068C64.4582 170.204 64.503 170.335 64.5834 170.444C64.6638 170.553 64.7759 170.635 64.9044 170.678L64.9156 170.681L68.6809 172.289C68.7543 172.311 68.8323 172.314 68.9071 172.297C68.9819 172.28 69.0508 172.243 69.1071 172.191L75.1501 166.56C75.1681 166.542 75.1895 166.528 75.213 166.518C75.2365 166.508 75.2617 166.503 75.2872 166.503C75.3127 166.503 75.3379 166.508 75.3614 166.518C75.3849 166.528 75.4063 166.542 75.4243 166.56C75.4423 166.578 75.4566 166.599 75.4664 166.623C75.4761 166.646 75.4811 166.672 75.4811 166.697C75.4811 166.722 75.4761 166.748 75.4664 166.771C75.4566 166.795 75.4423 166.816 75.4243 166.834L69.7932 172.874C69.7409 172.931 69.7044 173 69.6871 173.074C69.6698 173.149 69.6724 173.227 69.6947 173.301L71.3031 177.068C71.3048 177.073 71.3064 177.078 71.3083 177.084C71.3961 177.338 71.6182 177.517 71.8867 177.529C71.8985 177.529 71.9026 177.529 71.9141 177.529C72.0497 177.53 72.1823 177.49 72.2948 177.414C72.4073 177.339 72.4944 177.231 72.5449 177.105L76.6965 166.138C76.7423 166.019 76.7526 165.89 76.7264 165.766C76.7002 165.641 76.6384 165.527 76.5487 165.437Z" fill="black"/>
<path d="M60.0199 198.218L60.4411 197.741C60.5628 197.9 60.7032 198.031 60.8717 198.143C61.1618 198.359 61.6112 198.546 62.2196 198.546C63.2024 198.546 63.7173 198.04 63.7173 197.329C63.7173 195.653 60.1603 196.571 60.1603 194.24C60.1603 193.295 60.9653 192.461 62.2664 192.461C62.9029 192.461 63.3709 192.667 63.6986 192.883C63.8858 193.004 64.0449 193.145 64.1853 193.304L63.7173 193.772C63.6143 193.65 63.4926 193.547 63.3522 193.444C63.0995 193.285 62.7531 193.117 62.2664 193.117C61.3678 193.117 60.8623 193.65 60.8623 194.24C60.8623 195.925 64.4193 194.998 64.4193 197.329C64.4193 198.405 63.6237 199.201 62.2196 199.201C61.4707 199.201 60.9185 198.967 60.5534 198.714C60.3381 198.574 60.1603 198.405 60.0199 198.218ZM69.01 197.844L69.4312 198.265C69.3002 198.443 69.1411 198.593 68.9539 198.733C68.6262 198.967 68.1676 199.201 67.5591 199.201C66.3329 199.201 65.3126 198.171 65.3126 196.861C65.3126 195.55 66.3423 194.521 67.5123 194.521C68.7386 194.521 69.6653 195.457 69.6653 196.767C69.6653 196.87 69.6465 196.945 69.6372 197.011L69.6184 197.104L65.9678 197.095C66.0146 197.891 66.7073 198.593 67.5591 198.593C68.0365 198.593 68.3829 198.405 68.6356 198.218C68.776 198.106 68.907 197.984 69.01 197.844ZM65.9678 196.533H69.01C68.907 195.738 68.308 195.129 67.5123 195.129C66.7073 195.129 66.0708 195.784 65.9678 196.533ZM70.8324 199.107V194.614H71.4876V195.27C71.5812 195.129 71.7029 195.007 71.8433 194.895C72.0961 194.708 72.4424 194.521 72.9385 194.521C74.015 194.521 74.7638 195.27 74.7638 196.44V199.107H74.1086V196.44C74.1086 195.644 73.6031 195.129 72.8917 195.129C72.0961 195.129 71.4876 195.728 71.4876 196.627V199.107H70.8324ZM79.6789 199.107V198.452C79.5759 198.593 79.4448 198.714 79.2951 198.827C79.033 199.014 78.6586 199.201 78.1344 199.201C76.9175 199.201 75.9346 198.218 75.9346 196.861C75.9346 195.504 76.9175 194.521 78.1344 194.521C78.6586 194.521 79.033 194.708 79.2951 194.895C79.4448 195.007 79.5759 195.129 79.6789 195.27V192.555H80.3341V199.107H79.6789ZM78.1344 198.593C78.9206 198.593 79.6789 197.844 79.6789 196.861C79.6789 195.878 78.9206 195.129 78.1344 195.129C77.2825 195.129 76.5899 195.841 76.5899 196.861C76.5899 197.881 77.2825 198.593 78.1344 198.593Z" fill="black"/>
<rect x="110.348" y="157.346" width="28.0817" height="28.0817" rx="14.0408" fill="#C1C7D0"/>
<path d="M124.972 171.97L128.525 171.974C128.681 171.974 128.83 171.912 128.941 171.802C129.051 171.692 129.113 171.543 129.113 171.387C129.113 171.231 129.051 171.082 128.941 170.971C128.83 170.861 128.681 170.799 128.525 170.799L124.972 170.803L124.976 167.25C124.976 167.094 124.914 166.945 124.804 166.835C124.694 166.724 124.544 166.662 124.388 166.662C124.233 166.662 124.083 166.724 123.973 166.835C123.863 166.945 123.801 167.094 123.801 167.25L123.805 170.803L120.252 170.799C120.174 170.799 120.098 170.814 120.026 170.843C119.955 170.873 119.89 170.916 119.836 170.971C119.781 171.025 119.738 171.09 119.708 171.162C119.679 171.233 119.664 171.31 119.664 171.387C119.664 171.464 119.679 171.54 119.708 171.612C119.738 171.683 119.781 171.748 119.836 171.803C119.89 171.857 119.955 171.901 120.026 171.93C120.098 171.959 120.174 171.974 120.252 171.974L123.805 171.97L123.801 175.524C123.801 175.601 123.816 175.677 123.845 175.749C123.874 175.82 123.918 175.885 123.972 175.94C124.027 175.994 124.092 176.038 124.163 176.067C124.235 176.096 124.311 176.111 124.388 176.111C124.466 176.111 124.542 176.096 124.614 176.067C124.685 176.038 124.75 175.994 124.804 175.94C124.859 175.885 124.902 175.82 124.932 175.749C124.961 175.677 124.976 175.601 124.976 175.524L124.972 171.97Z" fill="black"/>
<path d="M105.076 199.108L107.79 192.556H108.446L111.16 199.108H110.411L109.663 197.283H106.574L105.825 199.108H105.076ZM106.854 196.627H109.382L108.118 193.538L106.854 196.627ZM115.517 199.108V198.453C115.414 198.593 115.283 198.715 115.133 198.827C114.871 199.014 114.497 199.202 113.972 199.202C112.756 199.202 111.773 198.219 111.773 196.861C111.773 195.504 112.756 194.521 113.972 194.521C114.497 194.521 114.871 194.708 115.133 194.896C115.283 195.008 115.414 195.13 115.517 195.27V192.556H116.172V199.108H115.517ZM113.972 198.593C114.759 198.593 115.517 197.844 115.517 196.861C115.517 195.879 114.759 195.13 113.972 195.13C113.121 195.13 112.428 195.841 112.428 196.861C112.428 197.882 113.121 198.593 113.972 198.593ZM121.13 199.108V198.453C121.027 198.593 120.896 198.715 120.746 198.827C120.484 199.014 120.109 199.202 119.585 199.202C118.368 199.202 117.385 198.219 117.385 196.861C117.385 195.504 118.368 194.521 119.585 194.521C120.109 194.521 120.484 194.708 120.746 194.896C120.896 195.008 121.027 195.13 121.13 195.27V192.556H121.785V199.108H121.13ZM119.585 198.593C120.371 198.593 121.13 197.844 121.13 196.861C121.13 195.879 120.371 195.13 119.585 195.13C118.733 195.13 118.041 195.841 118.041 196.861C118.041 197.882 118.733 198.593 119.585 198.593ZM128.614 197.844L129.082 198.265C128.942 198.443 128.773 198.593 128.586 198.733C128.258 198.968 127.8 199.202 127.21 199.202C125.984 199.202 124.963 198.172 124.963 196.861C124.963 195.551 125.984 194.521 127.21 194.521C127.8 194.521 128.249 194.746 128.558 194.971C128.736 195.102 128.895 195.251 129.035 195.41L128.567 195.879C128.464 195.738 128.352 195.616 128.221 195.504C127.996 195.317 127.65 195.13 127.21 195.13C126.367 195.13 125.619 195.879 125.619 196.861C125.619 197.844 126.367 198.593 127.21 198.593C127.65 198.593 127.996 198.406 128.249 198.219C128.389 198.106 128.511 197.985 128.614 197.844ZM132.823 199.108V198.499C132.729 198.631 132.608 198.752 132.467 198.855C132.215 199.033 131.859 199.202 131.372 199.202C130.436 199.202 129.781 198.546 129.781 197.891C129.781 197.142 130.239 196.674 131.091 196.534L132.823 196.253C132.823 195.588 132.364 195.13 131.7 195.13C131.297 195.13 130.988 195.298 130.773 195.457C130.651 195.56 130.539 195.663 130.436 195.785L130.015 195.364C130.137 195.205 130.286 195.064 130.455 194.942C130.745 194.727 131.147 194.521 131.7 194.521C132.729 194.521 133.478 195.27 133.478 196.253V199.108H132.823ZM132.823 197.095V196.815L131.278 197.095C130.717 197.198 130.436 197.47 130.436 197.891C130.436 198.265 130.764 198.593 131.372 198.593C132.224 198.593 132.823 197.994 132.823 197.095ZM134.55 198.406L135.018 197.938C135.103 198.06 135.206 198.172 135.318 198.265C135.514 198.443 135.814 198.593 136.188 198.593C136.853 198.593 137.171 198.265 137.171 197.844C137.171 196.815 134.738 197.329 134.738 195.785C134.738 195.139 135.337 194.521 136.235 194.521C136.713 194.521 137.059 194.68 137.312 194.83C137.452 194.914 137.583 195.017 137.686 195.13L137.218 195.598C137.153 195.513 137.068 195.429 136.975 195.364C136.797 195.251 136.563 195.13 136.235 195.13C135.72 195.13 135.393 195.457 135.393 195.785C135.393 196.768 137.826 196.253 137.826 197.844C137.826 198.593 137.209 199.202 136.188 199.202C135.627 199.202 135.215 199.005 134.943 198.808C134.784 198.696 134.653 198.565 134.55 198.406ZM139.04 199.108V192.556H139.696V195.27C139.789 195.13 139.911 195.008 140.051 194.896C140.304 194.708 140.65 194.521 141.147 194.521C142.223 194.521 142.972 195.27 142.972 196.44V199.108H142.317V196.44C142.317 195.645 141.811 195.13 141.1 195.13C140.304 195.13 139.696 195.729 139.696 196.627V199.108H139.04Z" fill="black"/>
<rect x="164.139" y="157.346" width="28.0817" height="28.0817" rx="14.0408" fill="#C1C7D0"/>
<path d="M175.255 174.312L181.105 168.461M181.105 168.461H175.255M181.105 168.461V174.312" stroke="black" stroke-width="0.877552" stroke-linecap="round" stroke-linejoin="round"/>
<path d="M165.358 197.423L165.826 197.844C165.629 198.096 165.404 198.33 165.133 198.527C164.674 198.864 164.01 199.201 163.111 199.201C161.239 199.201 159.741 197.703 159.741 195.831C159.741 193.959 161.239 192.461 163.111 192.461C164.01 192.461 164.665 192.808 165.114 193.145C165.367 193.341 165.592 193.566 165.779 193.819L165.311 194.24C165.161 194.025 164.983 193.837 164.768 193.678C164.403 193.388 163.86 193.117 163.111 193.117C161.613 193.117 160.443 194.287 160.443 195.831C160.443 197.376 161.613 198.546 163.111 198.546C163.86 198.546 164.422 198.274 164.796 197.984C165.011 197.825 165.199 197.638 165.358 197.423ZM169.572 199.107V198.499C169.478 198.63 169.357 198.752 169.216 198.855C168.964 199.033 168.608 199.201 168.121 199.201C167.185 199.201 166.53 198.546 166.53 197.891C166.53 197.142 166.989 196.674 167.84 196.533L169.572 196.252C169.572 195.588 169.113 195.129 168.449 195.129C168.046 195.129 167.737 195.298 167.522 195.457C167.4 195.56 167.288 195.663 167.185 195.784L166.764 195.363C166.886 195.204 167.035 195.064 167.204 194.942C167.494 194.727 167.897 194.521 168.449 194.521C169.478 194.521 170.227 195.27 170.227 196.252V199.107H169.572ZM169.572 197.095V196.814L168.028 197.095C167.466 197.198 167.185 197.469 167.185 197.891C167.185 198.265 167.513 198.593 168.121 198.593C168.973 198.593 169.572 197.994 169.572 197.095ZM171.299 198.405L171.767 197.937C171.852 198.059 171.955 198.171 172.067 198.265C172.264 198.443 172.563 198.593 172.938 198.593C173.602 198.593 173.92 198.265 173.92 197.844C173.92 196.814 171.487 197.329 171.487 195.784C171.487 195.139 172.086 194.521 172.984 194.521C173.462 194.521 173.808 194.68 174.061 194.83C174.201 194.914 174.332 195.017 174.435 195.129L173.967 195.597C173.902 195.513 173.817 195.429 173.724 195.363C173.546 195.251 173.312 195.129 172.984 195.129C172.469 195.129 172.142 195.457 172.142 195.784C172.142 196.767 174.576 196.252 174.576 197.844C174.576 198.593 173.958 199.201 172.938 199.201C172.376 199.201 171.964 199.004 171.693 198.808C171.533 198.696 171.402 198.565 171.299 198.405ZM175.79 199.107V192.555H176.445V195.27C176.538 195.129 176.66 195.007 176.8 194.895C177.053 194.708 177.4 194.521 177.896 194.521C178.972 194.521 179.721 195.27 179.721 196.44V199.107H179.066V196.44C179.066 195.644 178.56 195.129 177.849 195.129C177.053 195.129 176.445 195.728 176.445 196.627V199.107H175.79ZM185.149 199.201C183.886 199.201 182.856 198.171 182.856 196.861C182.856 195.55 183.886 194.521 185.149 194.521C186.413 194.521 187.443 195.55 187.443 196.861C187.443 198.171 186.413 199.201 185.149 199.201ZM185.149 198.593C186.039 198.593 186.787 197.844 186.787 196.861C186.787 195.878 186.039 195.129 185.149 195.129C184.26 195.129 183.511 195.878 183.511 196.861C183.511 197.834 184.26 198.593 185.149 198.593ZM188.614 197.235V194.614H189.269V197.235C189.269 198.031 189.83 198.593 190.532 198.593C191.281 198.593 191.89 197.994 191.89 197.095V194.614H192.545V199.107H191.89V198.499C191.796 198.63 191.674 198.752 191.534 198.855C191.281 199.033 190.926 199.201 190.439 199.201C189.409 199.201 188.614 198.405 188.614 197.235ZM194.463 197.891V195.223H193.621V194.614H194.136C194.389 194.614 194.51 194.455 194.51 194.146V193.117H195.119V194.614H196.102V195.223H195.119V197.891C195.119 198.368 195.353 198.593 195.727 198.593C195.886 198.593 196.045 198.565 196.158 198.527C196.223 198.499 196.289 198.48 196.336 198.452V199.061C196.279 199.089 196.214 199.107 196.148 199.136C196.036 199.173 195.877 199.201 195.699 199.201C194.922 199.201 194.463 198.742 194.463 197.891Z" fill="black"/>
<rect x="218.027" y="157.346" width="28.0817" height="28.0817" rx="14.0408" fill="#C1C7D0"/>
<path fill-rule="evenodd" clip-rule="evenodd" d="M233.807 166.644C233.965 166.486 234.222 166.486 234.38 166.644L236 168.264C236.158 168.422 236.158 168.679 236 168.837L234.38 170.457C234.222 170.616 233.965 170.616 233.807 170.457C233.649 170.299 233.649 170.043 233.807 169.885L235.141 168.551L233.807 167.217C233.649 167.059 233.649 166.802 233.807 166.644Z" fill="black"/>
<path fill-rule="evenodd" clip-rule="evenodd" d="M230.043 168.956C229.721 168.956 229.412 169.084 229.184 169.312C228.956 169.54 228.828 169.849 228.828 170.171V170.981C228.828 171.205 228.646 171.387 228.423 171.387C228.199 171.387 228.018 171.205 228.018 170.981V170.171C228.018 169.634 228.231 169.119 228.611 168.739C228.991 168.359 229.506 168.146 230.043 168.146H235.714C235.938 168.146 236.119 168.327 236.119 168.551C236.119 168.775 235.938 168.956 235.714 168.956H230.043Z" fill="black"/>
<path fill-rule="evenodd" clip-rule="evenodd" d="M230.329 172.315C230.488 172.473 230.488 172.73 230.329 172.888L228.995 174.222L230.329 175.555C230.488 175.714 230.488 175.97 230.329 176.128C230.171 176.287 229.915 176.287 229.756 176.128L228.136 174.508C227.978 174.35 227.978 174.093 228.136 173.935L229.756 172.315C229.915 172.157 230.171 172.157 230.329 172.315Z" fill="black"/>
<path fill-rule="evenodd" clip-rule="evenodd" d="M235.714 171.387C235.938 171.387 236.119 171.568 236.119 171.792V172.602C236.119 173.139 235.906 173.654 235.526 174.034C235.146 174.414 234.631 174.627 234.094 174.627H228.423C228.199 174.627 228.018 174.446 228.018 174.222C228.018 173.998 228.199 173.817 228.423 173.817H234.094C234.416 173.817 234.725 173.689 234.953 173.461C235.181 173.233 235.309 172.924 235.309 172.602V171.792C235.309 171.568 235.49 171.387 235.714 171.387Z" fill="black"/>
<path d="M220.99 198.218L221.411 197.741C221.532 197.9 221.673 198.031 221.841 198.143C222.132 198.359 222.581 198.546 223.189 198.546C224.172 198.546 224.687 198.04 224.687 197.329C224.687 195.653 221.13 196.571 221.13 194.24C221.13 193.295 221.935 192.461 223.236 192.461C223.873 192.461 224.341 192.667 224.668 192.883C224.855 193.004 225.015 193.145 225.155 193.304L224.687 193.772C224.584 193.65 224.462 193.547 224.322 193.444C224.069 193.285 223.723 193.117 223.236 193.117C222.338 193.117 221.832 193.65 221.832 194.24C221.832 195.925 225.389 194.998 225.389 197.329C225.389 198.405 224.593 199.201 223.189 199.201C222.44 199.201 221.888 198.967 221.523 198.714C221.308 198.574 221.13 198.405 220.99 198.218ZM227.455 199.107L225.91 194.614H226.612L227.782 198.078L228.905 194.614H229.467L230.59 198.078L231.76 194.614H232.462L230.918 199.107H230.31L229.186 195.691L228.063 199.107H227.455ZM236.071 199.107V198.499C235.977 198.63 235.855 198.752 235.715 198.855C235.462 199.033 235.107 199.201 234.62 199.201C233.684 199.201 233.029 198.546 233.029 197.891C233.029 197.142 233.487 196.674 234.339 196.533L236.071 196.252C236.071 195.588 235.612 195.129 234.947 195.129C234.545 195.129 234.236 195.298 234.021 195.457C233.899 195.56 233.787 195.663 233.684 195.784L233.263 195.363C233.384 195.204 233.534 195.064 233.702 194.942C233.993 194.727 234.395 194.521 234.947 194.521C235.977 194.521 236.726 195.27 236.726 196.252V199.107H236.071ZM236.071 197.095V196.814L234.526 197.095C233.965 197.198 233.684 197.469 233.684 197.891C233.684 198.265 234.011 198.593 234.62 198.593C235.472 198.593 236.071 197.994 236.071 197.095ZM238.219 201.073V194.614H238.874V195.27C238.977 195.129 239.099 195.007 239.258 194.895C239.511 194.708 239.895 194.521 240.419 194.521C241.636 194.521 242.619 195.504 242.619 196.861C242.619 198.218 241.636 199.201 240.419 199.201C239.895 199.201 239.511 199.014 239.258 198.827C239.099 198.714 238.977 198.593 238.874 198.452V201.073H238.219ZM240.419 198.593C241.271 198.593 241.963 197.881 241.963 196.861C241.963 195.841 241.271 195.129 240.419 195.129C239.633 195.129 238.874 195.878 238.874 196.861C238.874 197.844 239.633 198.593 240.419 198.593Z" fill="black"/>
<rect x="90.3516" y="220.387" width="121.963" height="26.0189" rx="13.0094" fill="#C1C7D0"/>
<path d="M115.083 236.088C115.083 235.781 114.845 235.535 114.547 235.535H113.739V231.916H114.194C114.492 231.916 114.731 231.664 114.731 231.362V230.719C114.731 230.49 114.601 230.288 114.395 230.204L110.438 228.56C110.313 228.504 110.167 228.504 110.042 228.56L106.015 230.21C105.809 230.294 105.679 230.501 105.679 230.725V231.368C105.679 231.67 105.917 231.921 106.215 231.921H106.67V235.535H105.863C105.565 235.535 105.326 235.781 105.326 236.088V237.721C105.326 238.029 105.565 238.275 105.863 238.275H114.547C114.845 238.275 115.083 238.023 115.083 237.721V236.088ZM112.926 235.535H111.652V231.916H112.92V235.529L112.926 235.535ZM110.844 235.535H109.57V231.916H110.839V235.529L110.844 235.535ZM110.21 229.662C110.508 229.662 110.747 229.908 110.747 230.216C110.747 230.518 110.508 230.769 110.21 230.769C109.912 230.769 109.673 230.518 109.673 230.216C109.673 229.908 109.912 229.662 110.21 229.662ZM107.484 231.921H108.757V235.535H107.484V231.921Z" fill="black"/>
<path d="M124.334 227.792L127.498 235.897H126.303L125.404 233.415H122L121.078 235.897H119.94L123.127 227.792H124.334ZM125.085 232.562L123.708 228.817L122.308 232.562H125.085ZM133.195 233.757C133.104 234.463 132.842 235.032 132.387 235.442C131.931 235.863 131.351 236.068 130.622 236.068C129.734 236.068 129.051 235.795 128.562 235.248C128.084 234.702 127.833 233.962 127.833 233.04C127.833 232.061 128.095 231.287 128.596 230.718C129.108 230.148 129.791 229.852 130.656 229.852C131.385 229.852 131.954 230.035 132.387 230.399C132.819 230.763 133.081 231.275 133.149 231.947H132.148C131.977 231.093 131.487 230.672 130.679 230.672C130.11 230.672 129.666 230.877 129.347 231.287C129.017 231.697 128.858 232.266 128.858 232.971C128.858 233.677 129.006 234.246 129.325 234.656C129.632 235.066 130.064 235.271 130.611 235.271C131.043 235.271 131.408 235.134 131.681 234.884C131.954 234.622 132.136 234.246 132.216 233.757H133.195ZM139.309 233.757C139.218 234.463 138.956 235.032 138.501 235.442C138.045 235.863 137.465 236.068 136.736 236.068C135.848 236.068 135.165 235.795 134.676 235.248C134.198 234.702 133.947 233.962 133.947 233.04C133.947 232.061 134.209 231.287 134.71 230.718C135.222 230.148 135.905 229.852 136.77 229.852C137.499 229.852 138.068 230.035 138.501 230.399C138.933 230.763 139.195 231.275 139.263 231.947H138.262C138.091 231.093 137.601 230.672 136.793 230.672C136.224 230.672 135.78 230.877 135.461 231.287C135.131 231.697 134.972 232.266 134.972 232.971C134.972 233.677 135.12 234.246 135.439 234.656C135.746 235.066 136.179 235.271 136.725 235.271C137.158 235.271 137.522 235.134 137.795 234.884C138.068 234.622 138.25 234.246 138.33 233.757H139.309ZM142.941 229.852C143.829 229.852 144.512 230.126 145.013 230.672C145.503 231.207 145.753 231.958 145.753 232.926C145.753 233.928 145.503 234.702 145.013 235.248C144.512 235.806 143.818 236.079 142.93 236.079C142.031 236.079 141.325 235.806 140.824 235.26C140.312 234.713 140.061 233.962 140.061 232.983C140.061 232.027 140.312 231.264 140.836 230.695C141.348 230.137 142.054 229.852 142.941 229.852ZM142.919 230.672C142.35 230.672 141.894 230.877 141.564 231.287C141.223 231.708 141.063 232.266 141.063 232.96C141.063 233.689 141.223 234.246 141.553 234.656C141.883 235.066 142.35 235.26 142.941 235.26C143.511 235.26 143.955 235.055 144.273 234.645C144.592 234.235 144.763 233.677 144.763 232.949C144.763 232.254 144.592 231.697 144.262 231.287C143.932 230.877 143.488 230.672 142.919 230.672ZM151.777 230.023L151.766 235.897H150.867V234.975C150.366 235.703 149.694 236.056 148.84 236.056C148.226 236.056 147.736 235.886 147.395 235.544C147.053 235.203 146.883 234.713 146.883 234.064V230.023H147.85V233.802C147.85 234.269 147.941 234.622 148.123 234.861C148.305 235.1 148.624 235.214 149.091 235.214C150.229 235.214 150.81 234.508 150.81 233.097V230.023H151.777ZM154.141 230.023V230.934C154.619 230.228 155.291 229.864 156.145 229.864C156.828 229.864 157.329 230.046 157.636 230.41C157.943 230.775 158.103 231.298 158.103 231.993V235.897H157.135V232.436C157.135 232.152 157.124 231.924 157.101 231.765C157.078 231.605 157.033 231.423 156.964 231.241C156.885 231.059 156.759 230.922 156.577 230.831C156.395 230.752 156.156 230.706 155.871 230.706C154.756 230.706 154.198 231.412 154.198 232.823V235.897H153.231V230.023H154.141ZM162.072 230.023V230.82H160.899V234.246C160.899 234.44 160.899 234.565 160.899 234.622C160.899 234.69 160.922 234.77 160.967 234.872C161.001 234.975 161.07 235.043 161.161 235.066C161.252 235.1 161.377 235.112 161.548 235.112C161.684 235.112 161.867 235.1 162.072 235.077V235.908C161.798 235.943 161.548 235.954 161.332 235.954C161.058 235.954 160.831 235.931 160.649 235.863C160.466 235.806 160.319 235.738 160.227 235.658C160.136 235.59 160.068 235.453 160.023 235.26C159.977 235.066 159.943 234.907 159.943 234.77C159.931 234.633 159.931 234.417 159.931 234.098V234.053V233.996V233.939V230.82H158.941V230.023H159.931V228.282H160.899V230.023H162.072ZM171.608 227.792V235.897H170.697V235.032C170.322 235.715 169.673 236.056 168.762 236.056C167.92 236.056 167.259 235.783 166.77 235.225C166.28 234.668 166.041 233.905 166.041 232.949C166.041 232.061 166.269 231.332 166.724 230.74C167.18 230.148 167.851 229.852 168.716 229.852C169.559 229.852 170.196 230.171 170.64 230.809V227.792H171.608ZM168.842 230.683C168.284 230.683 167.84 230.888 167.521 231.287C167.203 231.697 167.043 232.243 167.043 232.926C167.043 233.643 167.203 234.212 167.533 234.633C167.863 235.055 168.307 235.26 168.864 235.26C169.422 235.26 169.866 235.066 170.185 234.656C170.504 234.246 170.663 233.689 170.663 232.96C170.663 232.323 170.504 231.776 170.208 231.344C169.912 230.911 169.456 230.683 168.842 230.683ZM178.082 234.042C177.786 235.407 176.933 236.09 175.521 236.09C174.656 236.09 173.973 235.829 173.483 235.282C172.994 234.747 172.755 233.996 172.755 233.04C172.755 232.095 173.005 231.332 173.506 230.74C174.007 230.148 174.667 229.852 175.487 229.852C176.386 229.852 177.058 230.16 177.49 230.775C177.923 231.389 178.151 232.152 178.151 233.085V233.222H173.734L173.723 233.29C173.723 233.916 173.882 234.406 174.212 234.759C174.531 235.123 174.986 235.294 175.555 235.294C175.976 235.294 176.307 235.203 176.557 234.998C176.807 234.804 177.001 234.485 177.138 234.042H178.082ZM177.149 232.436C177.103 231.879 176.933 231.446 176.637 231.127C176.341 230.809 175.942 230.649 175.464 230.649C174.986 230.649 174.599 230.809 174.292 231.127C173.973 231.446 173.791 231.89 173.734 232.436H177.149ZM181.692 230.023V230.82H180.52V234.246C180.52 234.44 180.52 234.565 180.52 234.622C180.52 234.69 180.542 234.77 180.588 234.872C180.622 234.975 180.69 235.043 180.781 235.066C180.872 235.1 180.998 235.112 181.168 235.112C181.305 235.112 181.487 235.1 181.692 235.077V235.908C181.419 235.943 181.168 235.954 180.952 235.954C180.679 235.954 180.451 235.931 180.269 235.863C180.087 235.806 179.939 235.738 179.848 235.658C179.757 235.59 179.689 235.453 179.643 235.26C179.598 235.066 179.563 234.907 179.563 234.77C179.552 234.633 179.552 234.417 179.552 234.098V234.053V233.996V233.939V230.82H178.562V230.023H179.552V228.282H180.52V230.023H181.692ZM187.969 235.123V235.886C187.764 235.954 187.548 235.999 187.309 235.999C186.751 235.999 186.467 235.703 186.455 235.134C185.897 235.749 185.192 236.068 184.326 236.068C183.746 236.068 183.291 235.92 182.949 235.624C182.608 235.328 182.448 234.918 182.448 234.406C182.448 233.359 183.143 232.744 184.531 232.573C184.622 232.55 184.748 232.539 184.93 232.528C185.59 232.448 185.988 232.357 186.148 232.266C186.319 232.141 186.41 231.936 186.41 231.64C186.41 230.991 185.966 230.672 185.078 230.672C184.622 230.672 184.27 230.763 184.042 230.945C183.803 231.127 183.666 231.435 183.621 231.867H182.676C182.687 231.23 182.915 230.74 183.348 230.399C183.78 230.046 184.372 229.875 185.135 229.875C185.954 229.875 186.569 230.057 186.979 230.444C187.104 230.558 187.195 230.718 187.263 230.922C187.32 231.116 187.354 231.275 187.366 231.401C187.366 231.526 187.377 231.719 187.377 231.97C187.377 232.254 187.366 232.687 187.354 233.267C187.332 233.859 187.332 234.292 187.332 234.577C187.332 234.793 187.354 234.941 187.411 235.032C187.468 235.123 187.571 235.157 187.73 235.157C187.787 235.157 187.867 235.146 187.969 235.123ZM186.41 232.858C186.341 232.903 186.262 232.949 186.193 232.994C186.114 233.028 186.011 233.063 185.897 233.085C185.784 233.108 185.704 233.119 185.658 233.131C185.613 233.142 185.522 233.154 185.362 233.176C185.203 233.199 185.112 233.211 185.112 233.211C184.873 233.233 184.714 233.256 184.645 233.267C184.577 233.279 184.44 233.313 184.235 233.37C184.031 233.415 183.894 233.484 183.814 233.552C183.723 233.62 183.643 233.711 183.564 233.848C183.484 233.985 183.45 234.144 183.45 234.326C183.45 234.622 183.552 234.861 183.757 235.043C183.962 235.214 184.258 235.305 184.622 235.305C185.078 235.305 185.499 235.168 185.863 234.895C186.227 234.622 186.41 234.292 186.41 233.928V232.858ZM189.906 227.792V228.976H188.927V227.792H189.906ZM189.906 230.023V235.897H188.927V230.023H189.906ZM192.429 227.792V235.897H191.45V227.792H192.429ZM198.288 231.731H197.32C197.252 231.025 196.774 230.661 195.886 230.661C195.51 230.661 195.214 230.74 195.009 230.877C194.793 231.025 194.691 231.218 194.691 231.458C194.691 231.526 194.691 231.594 194.713 231.662C194.725 231.731 194.747 231.788 194.793 231.833C194.839 231.879 194.873 231.924 194.907 231.958C194.941 232.004 194.998 232.038 195.078 232.072C195.157 232.106 195.214 232.129 195.26 232.152C195.305 232.175 195.374 232.209 195.487 232.232C195.601 232.254 195.681 232.277 195.726 232.288C195.772 232.3 195.852 232.323 195.988 232.345C196.125 232.38 196.205 232.402 196.25 232.402C196.523 232.471 196.74 232.516 196.876 232.55C197.013 232.596 197.206 232.664 197.457 232.767C197.707 232.869 197.889 232.971 198.026 233.085C198.151 233.199 198.265 233.347 198.367 233.541C198.47 233.734 198.527 233.95 198.527 234.189C198.527 234.759 198.299 235.225 197.855 235.567C197.411 235.908 196.819 236.079 196.091 236.079C195.294 236.079 194.679 235.908 194.247 235.555C193.814 235.214 193.586 234.702 193.564 234.042H194.52C194.565 234.872 195.1 235.282 196.113 235.282C196.546 235.282 196.888 235.203 197.149 235.02C197.411 234.838 197.548 234.599 197.548 234.303C197.548 234.11 197.479 233.95 197.343 233.814C197.206 233.689 197.047 233.598 196.888 233.541C196.717 233.484 196.478 233.415 196.17 233.336C196.125 233.336 196.091 233.324 196.068 233.313C196 233.302 195.852 233.267 195.624 233.222C195.396 233.176 195.237 233.131 195.146 233.097C195.043 233.074 194.895 233.028 194.713 232.96C194.531 232.892 194.395 232.823 194.304 232.755C194.212 232.687 194.11 232.596 193.996 232.482C193.882 232.368 193.814 232.243 193.769 232.095C193.723 231.947 193.7 231.776 193.7 231.583C193.7 231.059 193.894 230.638 194.304 230.319C194.713 230.012 195.26 229.852 195.943 229.852C196.626 229.852 197.195 230.023 197.627 230.342C198.06 230.672 198.288 231.139 198.288 231.731Z" fill="black"/>
<defs>
<clipPath id="clip0_1824_4251">
<rect x="130.192" y="63.5332" width="39.0283" height="39.0283" rx="19.5141" fill="white"/>
</clipPath>
<clipPath id="clip1_1824_4251">
<rect width="8.13089" height="8.13089" fill="white" transform="translate(161.089 91.1787)"/>
</clipPath>
</defs>
</svg>
