<svg width="32" height="32" viewBox="0 0 32 32" fill="none" xmlns="http://www.w3.org/2000/svg">
<path d="M7.95334 4.18115C7.04881 4.42341 6.22401 4.89954 5.56187 5.56168C4.89973 6.22382 4.42359 7.04862 4.18134 7.95315M24.0467 4.18115C24.9512 4.42341 25.776 4.89954 26.4381 5.56168C27.1003 6.22382 27.5764 7.04862 27.8187 7.95315" stroke="#214DC0" stroke-width="2" stroke-linecap="round"/>
<path fill-rule="evenodd" clip-rule="evenodd" d="M16 26.6663C18.829 26.6663 21.5421 25.5425 23.5425 23.5421C25.5429 21.5418 26.6667 18.8287 26.6667 15.9997C26.6667 13.1707 25.5429 10.4576 23.5425 8.4572C21.5421 6.45681 18.829 5.33301 16 5.33301C13.171 5.33301 10.4579 6.45681 8.45754 8.4572C6.45715 10.4576 5.33334 13.1707 5.33334 15.9997C5.33334 18.8287 6.45715 21.5418 8.45754 23.5421C10.4579 25.5425 13.171 26.6663 16 26.6663ZM17.3333 10.6663C17.3333 10.3127 17.1929 9.97358 16.9428 9.72353C16.6928 9.47348 16.3536 9.33301 16 9.33301C15.6464 9.33301 15.3073 9.47348 15.0572 9.72353C14.8072 9.97358 14.6667 10.3127 14.6667 10.6663V15.6663C14.6667 16.5863 15.4133 17.333 16.3333 17.333H20C20.3536 17.333 20.6928 17.1925 20.9428 16.9425C21.1929 16.6924 21.3333 16.3533 21.3333 15.9997C21.3333 15.6461 21.1929 15.3069 20.9428 15.0569C20.6928 14.8068 20.3536 14.6663 20 14.6663H17.3333V10.6663Z" fill="#214DC0"/>
</svg>
