<svg width="15" height="13" viewBox="0 0 15 13" fill="none" xmlns="http://www.w3.org/2000/svg">
<path d="M5.35156 0.684896V12.0182M0.351562 6.35156C0.351562 3.85156 0.351562 2.60156 0.988229 1.72556C1.1936 1.44268 1.4422 1.19386 1.7249 0.988229C2.60156 0.351562 3.85223 0.351562 6.35156 0.351562H7.6849C10.1849 0.351562 11.4349 0.351562 12.3109 0.988229C12.5938 1.1938 12.8427 1.44263 13.0482 1.72556C13.6849 2.60156 13.6849 3.85223 13.6849 6.35156C13.6849 8.8509 13.6849 10.1016 13.0482 10.9776C12.8427 11.2605 12.5938 11.5093 12.3109 11.7149C11.4349 12.3516 10.1842 12.3516 7.6849 12.3516H6.35156C3.85156 12.3516 2.60156 12.3516 1.72556 11.7149C1.44263 11.5093 1.1938 11.2605 0.988229 10.9776C0.351562 10.1016 0.351562 8.8509 0.351562 6.35156Z" stroke="white" stroke-width="0.7" stroke-linejoin="round"/>
</svg>
