<svg width="300" height="300" viewBox="0 0 300 300" fill="none" xmlns="http://www.w3.org/2000/svg">
<g clip-path="url(#clip0_101_3126)">
<path d="M149.979 300L271.155 230.027L224.709 203.166L177.225 230.597C176.82 230.82 176.366 230.934 175.904 230.931C175.442 230.927 174.989 230.805 174.588 230.576C174.189 230.341 173.856 230.008 173.623 229.608C173.39 229.207 173.264 228.754 173.257 228.291V163.144C173.257 161.224 174.251 159.488 175.912 158.531L232.336 125.946C232.738 125.717 233.193 125.599 233.656 125.602C234.119 125.606 234.572 125.732 234.97 125.967C235.795 126.424 236.311 127.289 236.32 128.231V183.07L282.797 209.916V69.9727L149.977 146.639L149.979 300Z" fill="#214DC0"/>
<path d="M122.805 230.628L75.2977 203.164L28.8164 230.023L149.979 300V146.639L17.2031 69.9707V209.907L63.668 183.071V128.236C63.6891 127.296 64.1953 126.432 65.0086 125.972C65.4094 125.737 65.8651 125.611 66.33 125.607C66.7949 125.603 67.2526 125.722 67.657 125.951L124.109 158.532C124.916 159.002 125.587 159.676 126.053 160.486C126.519 161.296 126.764 162.214 126.764 163.149V228.305C126.758 228.769 126.633 229.224 126.401 229.626C126.169 230.028 125.838 230.364 125.44 230.602C125.041 230.836 124.589 230.962 124.126 230.967C123.664 230.972 123.209 230.856 122.805 230.63" fill="#214DC0" fill-opacity="0.8"/>
<path d="M161.623 0V53.6719L209.11 81.0867C209.925 81.5625 210.411 82.4367 210.411 83.393C210.411 84.3375 209.914 85.2023 209.11 85.6781L152.665 118.284C151.854 118.745 150.938 118.986 150.005 118.986C149.073 118.986 148.156 118.745 147.345 118.284L90.9168 85.6781C90.516 85.4467 90.1835 85.1135 89.953 84.7122C89.7225 84.3109 89.6022 83.8558 89.6043 83.393C89.6009 82.9271 89.7204 82.4685 89.9509 82.0636C90.1813 81.6587 90.5145 81.3217 90.9168 81.0867L138.394 53.6719V0L17.2012 69.9727L149.979 146.639L282.788 69.975L161.623 0Z" fill="#214DC0" fill-opacity="0.6"/>
</g>
<defs>
<clipPath id="clip0_101_3126">
<rect width="300" height="300" fill="white"/>
</clipPath>
</defs>
</svg>
