<svg width="32" height="32" viewBox="0 0 32 32" fill="none" xmlns="http://www.w3.org/2000/svg">
<path d="M28 10.6665C26.0667 10.6665 24.9867 12.5865 25.4267 14.0132L20.6933 18.7598C20.2933 18.6398 19.7067 18.6398 19.3067 18.7598L15.9067 15.3598C16.36 13.9332 15.28 11.9998 13.3333 11.9998C11.4 11.9998 10.3067 13.9198 10.76 15.3598L4.68001 21.4265C3.25334 20.9865 1.33334 22.0665 1.33334 23.9998C1.33334 25.4665 2.53334 26.6665 4.00001 26.6665C5.93334 26.6665 7.01334 24.7465 6.57334 23.3198L12.64 17.2398C13.04 17.3598 13.6267 17.3598 14.0267 17.2398L17.4267 20.6398C16.9733 22.0665 18.0533 23.9998 20 23.9998C21.9333 23.9998 23.0267 22.0798 22.5733 20.6398L27.32 15.9065C28.7467 16.3465 30.6667 15.2665 30.6667 13.3332C30.6667 11.8665 29.4667 10.6665 28 10.6665Z" fill="#214DC0"/>
<path d="M20 12L21.2533 9.24L24 8L21.2533 6.76L20 4L18.7733 6.76L16 8L18.7733 9.24L20 12ZM4.66668 14.6667L5.33334 12L8.00001 11.3333L5.33334 10.6667L4.66668 8L4.00001 10.6667L1.33334 11.3333L4.00001 12L4.66668 14.6667Z" fill="#214DC0"/>
</svg>
