<svg width="20" height="20" viewBox="0 0 20 20" fill="none" xmlns="http://www.w3.org/2000/svg">
<path d="M9.75 0C7.82164 0 5.93657 0.571828 4.33319 1.64317C2.72982 2.71451 1.48013 4.23726 0.742179 6.01884C0.00422452 7.80042 -0.188858 9.76082 0.187348 11.6521C0.563554 13.5434 1.49215 15.2807 2.85571 16.6443C4.21928 18.0079 5.95656 18.9365 7.84787 19.3127C9.73919 19.6889 11.6996 19.4958 13.4812 18.7578C15.2627 18.0199 16.7855 16.7702 17.8568 15.1668C18.9282 13.5634 19.5 11.6784 19.5 9.75C19.4973 7.16498 18.4692 4.68661 16.6413 2.85872C14.8134 1.03084 12.335 0.00272983 9.75 0ZM13.5 15H6C5.80109 15 5.61033 14.921 5.46967 14.7803C5.32902 14.6397 5.25 14.4489 5.25 14.25C5.25 14.0511 5.32902 13.8603 5.46967 13.7197C5.61033 13.579 5.80109 13.5 6 13.5C6.39783 13.5 6.77936 13.342 7.06066 13.0607C7.34197 12.7794 7.5 12.3978 7.5 12V10.5H6C5.80109 10.5 5.61033 10.421 5.46967 10.2803C5.32902 10.1397 5.25 9.94891 5.25 9.75C5.25 9.55109 5.32902 9.36032 5.46967 9.21967C5.61033 9.07902 5.80109 9 6 9H7.5V6.75C7.50002 6.09175 7.67331 5.44509 8.00245 4.87503C8.33158 4.30498 8.80498 3.8316 9.37505 3.50248C9.94512 3.17336 10.5918 3.00009 11.25 3.0001C11.9083 3.0001 12.5549 3.17337 13.125 3.5025C13.2917 3.6047 13.4118 3.76794 13.4599 3.95743C13.5079 4.14692 13.4801 4.34769 13.3823 4.51697C13.2846 4.68625 13.1246 4.81067 12.9364 4.86371C12.7482 4.91675 12.5468 4.89423 12.375 4.80094C12.0329 4.60344 11.6449 4.49947 11.2499 4.49949C10.8549 4.49952 10.4668 4.60353 10.1248 4.80106C9.78273 4.9986 9.4987 5.28271 9.30126 5.62482C9.10382 5.96694 8.99992 6.355 9 6.75V9H10.5C10.6989 9 10.8897 9.07902 11.0303 9.21967C11.171 9.36032 11.25 9.55109 11.25 9.75C11.25 9.94891 11.171 10.1397 11.0303 10.2803C10.8897 10.421 10.6989 10.5 10.5 10.5H9V12C9.00069 12.527 8.86124 13.0447 8.59594 13.5H13.5C13.6989 13.5 13.8897 13.579 14.0303 13.7197C14.171 13.8603 14.25 14.0511 14.25 14.25C14.25 14.4489 14.171 14.6397 14.0303 14.7803C13.8897 14.921 13.6989 15 13.5 15Z" fill="#214DC0"/>
</svg>
