<svg width="24" height="24" viewBox="0 0 24 24" fill="none" xmlns="http://www.w3.org/2000/svg">
<path d="M10.74 18C10.6081 18 10.4793 18.0391 10.3696 18.1124C10.26 18.1856 10.1745 18.2897 10.1241 18.4115C10.0736 18.5334 10.0604 18.6674 10.0861 18.7967C10.1119 18.926 10.1754 19.0448 10.2686 19.1381C10.3618 19.2313 10.4806 19.2948 10.6099 19.3205C10.7393 19.3462 10.8733 19.333 10.9951 19.2826C11.1169 19.2321 11.2211 19.1467 11.2943 19.037C11.3676 18.9274 11.4067 18.7985 11.4067 18.6667C11.4067 18.4899 11.3364 18.3203 11.2114 18.1953C11.0864 18.0702 10.9168 18 10.74 18Z" fill="#214DC0"/>
<path d="M21.3933 13.9998H21.3333V11.5465C20.0667 13.4998 14.36 13.7465 12 13.7465C9.7576 13.7762 7.51964 13.539 5.33332 13.0398V11.9198C7.51599 12.4442 9.7554 12.695 12 12.6665C15.3333 12.6665 20.8 12.1198 21.3333 10.1198V7.14646C19.86 9.38646 14.34 9.45312 12 9.45312C9.75722 9.48323 7.51895 9.24373 5.33332 8.73979V7.33313C7.51542 7.86199 9.75485 8.11728 12 8.09313C15.3333 8.09313 20.8533 7.53979 21.3333 5.50646V5.21979C21.2067 3.03979 15.44 2.45312 12 2.45312C8.55999 2.45312 2.80666 3.03979 2.66666 5.21979V18.3531C2.66666 19.7931 5.09332 20.5531 7.75332 20.9131L9.64666 22.9131L10.04 23.3265H21.3733C21.9038 23.3265 22.4125 23.1157 22.7875 22.7407C23.1626 22.3656 23.3733 21.8569 23.3733 21.3265V15.9531C23.3612 15.4343 23.1479 14.9404 22.7785 14.5759C22.409 14.2114 21.9123 14.0048 21.3933 13.9998ZM5.33332 17.3865V16.2665C6.09075 16.4741 6.86142 16.63 7.63999 16.7331L6.81332 17.6931C6.30666 17.6131 5.80666 17.5131 5.33332 17.3865ZM22.06 21.3331C22.06 21.5099 21.9898 21.6795 21.8647 21.8045C21.7397 21.9296 21.5701 21.9998 21.3933 21.9998H10.6133L7.59999 18.8198L10.6133 15.3331H21.3933C21.5701 15.3331 21.7397 15.4034 21.8647 15.5284C21.9898 15.6534 22.06 15.823 22.06 15.9998V21.3331Z" fill="#214DC0"/>
</svg>
