<svg width="24" height="24" viewBox="0 0 24 24" fill="none" xmlns="http://www.w3.org/2000/svg">
<g clip-path="url(#clip0_476_5950)">
<path d="M22.26 3.35C22.1661 3.24023 22.0496 3.15211 21.9184 3.09169C21.7872 3.03127 21.6444 2.99999 21.5 3H12.5C12.358 3.00018 12.2177 3.03059 12.0884 3.08922C11.9591 3.14784 11.8437 3.23333 11.75 3.34C11.6561 3.447 11.586 3.57283 11.5447 3.70907C11.5033 3.84531 11.4915 3.98882 11.51 4.13L12.51 11.63C12.5271 11.7613 12.5698 11.888 12.6359 12.0028C12.7019 12.1176 12.7899 12.2182 12.8948 12.299C12.9997 12.3798 13.1196 12.4391 13.2474 12.4736C13.3753 12.5081 13.5087 12.5171 13.64 12.5C13.7713 12.4829 13.898 12.4402 14.0128 12.3741C14.1276 12.3081 14.2282 12.2201 14.309 12.1152C14.3898 12.0103 14.4491 11.8904 14.4836 11.7626C14.5181 11.6347 14.5271 11.5013 14.51 11.37L13.7 5.28C13.6943 5.24584 13.6968 5.21083 13.7073 5.17782C13.7177 5.1448 13.7358 5.11471 13.76 5.09C13.781 5.06452 13.8068 5.04344 13.836 5.028C13.8652 5.01255 13.8971 5.00303 13.93 5H20C20.0367 4.99795 20.0733 5.00512 20.1064 5.02084C20.1396 5.03656 20.1684 5.06033 20.19 5.09C20.2144 5.11666 20.2325 5.1485 20.2429 5.18313C20.2533 5.21777 20.2557 5.2543 20.25 5.29L19.16 11.86C19.1162 12.1252 19.1796 12.397 19.3362 12.6154C19.4928 12.8339 19.7298 12.9812 19.995 13.025C20.1263 13.0467 20.2606 13.0423 20.3902 13.012C20.5199 12.9818 20.6423 12.9263 20.7504 12.8488C20.9689 12.6922 21.1162 12.4552 21.16 12.19L22.5 4.19C22.5262 4.04095 22.5182 3.88791 22.4766 3.74241C22.435 3.5969 22.361 3.46273 22.26 3.35Z" fill="#214DC0"/>
<path d="M19 14.0001H13C12.9535 14.0018 12.9075 13.9893 12.8682 13.9643C12.829 13.9393 12.7982 13.9029 12.78 13.8601L11.82 12.0001C11.7837 11.9244 11.729 11.8591 11.6608 11.8102C11.5927 11.7613 11.5133 11.7303 11.43 11.7201C11.3459 11.7104 11.2608 11.7218 11.1823 11.7532C11.1037 11.7846 11.0342 11.8351 10.98 11.9001L9.1 14.2101C8.94533 14.374 8.73479 14.4739 8.51 14.4901H7.51C7.44265 14.4887 7.37572 14.501 7.31323 14.5261C7.25074 14.5513 7.19398 14.5888 7.14634 14.6364C7.09871 14.6841 7.0612 14.7408 7.03605 14.8033C7.0109 14.8658 6.99864 14.9327 7 15.0001V21.0001C6.99837 21.078 7.01572 21.1551 7.05057 21.2248C7.08541 21.2945 7.1367 21.3546 7.2 21.4001C9.5 23.1301 11.28 24.0001 12.5 24.0001H18.05C18.4854 24.0737 18.9324 23.9751 19.2964 23.725C19.6603 23.4749 19.9127 23.093 20 22.6601C20.4872 20.2974 20.8212 17.9058 21 15.5001C21 14.7501 20.31 14.0001 19 14.0001ZM4.83 13.5001H1.75C1.6837 13.5001 1.62011 13.5264 1.57322 13.5733C1.52634 13.6202 1.5 13.6838 1.5 13.7501V22.7501C1.5 22.8164 1.52634 22.88 1.57322 22.9269C1.62011 22.9737 1.6837 23.0001 1.75 23.0001H4.83C4.91363 23.0099 4.99839 23.002 5.07878 22.9769C5.15916 22.9519 5.23336 22.9101 5.29656 22.8545C5.35975 22.7988 5.41053 22.7305 5.44558 22.6539C5.48063 22.5774 5.49917 22.4943 5.5 22.4101V14.0901C5.49917 14.0059 5.48063 13.9228 5.44558 13.8462C5.41053 13.7697 5.35975 13.7013 5.29656 13.6457C5.23336 13.59 5.15916 13.5483 5.07878 13.5232C4.99839 13.4981 4.91363 13.4903 4.83 13.5001ZM15.5 9.00008C15.5 9.39791 15.658 9.77944 15.9393 10.0607C16.2206 10.342 16.6022 10.5001 17 10.5001C17.3978 10.5001 17.7794 10.342 18.0607 10.0607C18.342 9.77944 18.5 9.39791 18.5 9.00008C18.5 8.60226 18.342 8.22073 18.0607 7.93942C17.7794 7.65812 17.3978 7.50008 17 7.50008C16.6022 7.50008 16.2206 7.65812 15.9393 7.93942C15.658 8.22073 15.5 8.60226 15.5 9.00008ZM10 11.0001C10.1459 11.002 10.2905 10.9719 10.4236 10.9119C10.5567 10.852 10.675 10.7637 10.7703 10.6531C10.8656 10.5426 10.9355 10.4125 10.9752 10.272C11.0149 10.1316 11.0234 9.98415 11 9.84008L9.73 2.29008C9.70538 2.22569 9.70538 2.15448 9.73 2.09008C9.76051 2.0494 9.8027 2.01899 9.85094 2.00291C9.89918 1.98683 9.95118 1.98584 10 2.00008H18C18.2652 2.00008 18.5196 1.89473 18.7071 1.70719C18.8946 1.51965 19 1.2653 19 1.00008C19 0.734867 18.8946 0.480513 18.7071 0.292976C18.5196 0.10544 18.2652 8.31726e-05 18 8.31726e-05H8.5C8.35406 -0.00179908 8.20948 0.0282869 8.0764 0.0882289C7.94333 0.148171 7.82499 0.236516 7.72969 0.34706C7.6344 0.457605 7.56445 0.58767 7.52477 0.728124C7.48509 0.868577 7.47664 1.01601 7.5 1.16008L9 10.1601C9.03833 10.3967 9.16039 10.6117 9.34394 10.7659C9.52748 10.9201 9.76031 11.0032 10 11.0001Z" fill="#214DC0"/>
</g>
<defs>
<clipPath id="clip0_476_5950">
<rect width="24" height="24" fill="white"/>
</clipPath>
</defs>
</svg>
