<svg width="24" height="24" viewBox="0 0 24 24" fill="none" xmlns="http://www.w3.org/2000/svg">
<path d="M12 0.85083C8.19844 0.85083 5.12813 3.92161 5.12813 7.71567V11.1047H7.45312V7.86567C7.45312 5.34849 9.4875 3.30755 12 3.30755C14.5078 3.30755 16.5469 5.40942 16.5469 7.86567V11.1047H18.8719V7.71567C18.8719 4.01536 15.7922 0.85083 12 0.85083ZM4.07344 11.9813C3.38906 13.05 3 14.2829 3 15.5813C3 19.7204 6.98438 23.1516 12 23.1516C17.0156 23.1516 21 19.7204 21 15.5813C21 14.2829 20.6109 13.05 19.9266 11.9813H4.07344Z" fill="#8621C0"/>
</svg>
