<svg width="200" height="200" viewBox="0 0 200 200" fill="none" xmlns="http://www.w3.org/2000/svg">
<path opacity="0.5" d="M16.6665 100C16.6665 60.7168 16.6665 41.0751 28.8665 28.8667C41.0832 16.6667 60.7165 16.6667 99.9998 16.6667C139.283 16.6667 158.925 16.6667 171.125 28.8667C183.333 41.0834 183.333 60.7168 183.333 100C183.333 139.283 183.333 158.925 171.125 171.125C158.933 183.333 139.283 183.333 99.9998 183.333C60.7165 183.333 41.0748 183.333 28.8665 171.125C16.6665 158.933 16.6665 139.283 16.6665 100Z" fill="#214DC0" fill-opacity="0.2"/>
<path fill-rule="evenodd" clip-rule="evenodd" d="M138.8 22.9167C137.142 22.9167 135.553 22.2583 134.381 21.0862C133.208 19.9141 132.55 18.3244 132.55 16.6667C132.55 15.0091 133.208 13.4194 134.381 12.2473C135.553 11.0752 137.142 10.4167 138.8 10.4167H183.333C184.991 10.4167 186.581 11.0752 187.753 12.2473C188.925 13.4194 189.583 15.0091 189.583 16.6667V61.2001C189.583 62.8577 188.925 64.4474 187.753 65.6195C186.581 66.7916 184.991 67.4501 183.333 67.4501C181.676 67.4501 180.086 66.7916 178.914 65.6195C177.742 64.4474 177.083 62.8577 177.083 61.2001V31.7501L115.083 93.7417H133.333C134.991 93.7417 136.581 94.4002 137.753 95.5723C138.925 96.7444 139.583 98.3341 139.583 99.9917C139.583 101.649 138.925 103.239 137.753 104.411C136.581 105.583 134.991 106.242 133.333 106.242H100C98.3424 106.242 96.7527 105.583 95.5806 104.411C94.4085 103.239 93.75 101.649 93.75 99.9917V66.6667C93.75 65.0091 94.4085 63.4194 95.5806 62.2473C96.7527 61.0752 98.3424 60.4167 100 60.4167C101.658 60.4167 103.247 61.0752 104.419 62.2473C105.592 63.4194 106.25 65.0091 106.25 66.6667V84.9167L168.25 22.9167H138.8Z" fill="#214DC0"/>
</svg>
