<svg width="28" height="28" viewBox="0 0 28 28" fill="none" xmlns="http://www.w3.org/2000/svg">
<path d="M27.9999 10.4875V2.8C28.0011 2.43245 27.9296 2.06829 27.7897 1.72843C27.6497 1.38856 27.444 1.07968 27.1844 0.819524C26.9247 0.559363 26.6163 0.353044 26.2767 0.212408C25.9371 0.0717716 25.5731 -0.000411543 25.2055 1.76489e-06H17.5224C17.0186 0.0010383 16.5356 0.200686 16.178 0.555627L0.818029 15.9113C0.294164 16.4368 0 17.1486 0 17.8906C0 18.6327 0.294164 19.3445 0.818029 19.87L8.13053 27.1825C8.65589 27.7065 9.3676 28.0007 10.1096 28.0007C10.8516 28.0007 11.5633 27.7065 12.0887 27.1825L27.4443 11.8319C27.7993 11.4744 27.999 10.9913 27.9999 10.4875ZM21.9999 8C21.6043 8 21.2177 7.8827 20.8888 7.66294C20.5599 7.44318 20.3035 7.13082 20.1521 6.76537C20.0008 6.39992 19.9612 5.99778 20.0383 5.60982C20.1155 5.22186 20.306 4.86549 20.5857 4.58579C20.8654 4.30608 21.2218 4.1156 21.6097 4.03843C21.9977 3.96126 22.3998 4.00087 22.7653 4.15224C23.1307 4.30362 23.4431 4.55996 23.6628 4.88886C23.8826 5.21776 23.9999 5.60444 23.9999 6C23.9999 6.53044 23.7892 7.03914 23.4141 7.41422C23.039 7.78929 22.5303 8 21.9999 8Z" fill="#214DC0"/>
</svg>
