<svg width="200" height="200" viewBox="0 0 200 200" fill="none" xmlns="http://www.w3.org/2000/svg">
<path d="M99.9859 200L180.77 153.352L149.806 135.444L118.15 153.731C117.88 153.88 117.577 153.956 117.269 153.954C116.961 153.951 116.659 153.87 116.392 153.717C116.126 153.561 115.904 153.339 115.749 153.072C115.593 152.805 115.509 152.503 115.505 152.194V108.762C115.505 107.483 116.167 106.325 117.275 105.687L154.891 83.9641C155.159 83.8114 155.462 83.7323 155.771 83.7348C156.079 83.7373 156.381 83.8212 156.647 83.9781C157.197 84.2828 157.541 84.8594 157.547 85.4875V122.047L188.531 139.944V46.6484L99.9844 97.7594L99.9859 200Z" fill="white"/>
<path d="M81.8703 153.752L50.1984 135.442L19.2109 153.348L99.9859 200V97.7594L11.4688 46.6469V139.937L42.4453 122.047V85.4906C42.4594 84.864 42.7969 84.2875 43.3391 83.9812C43.6062 83.8241 43.9101 83.7401 44.22 83.7376C44.5299 83.7352 44.835 83.8143 45.1047 83.9672L82.7391 105.687C83.2776 106.001 83.7244 106.45 84.0351 106.99C84.3457 107.53 84.5092 108.143 84.5094 108.766V152.203C84.5051 152.512 84.4218 152.816 84.2673 153.084C84.1127 153.352 83.8922 153.576 83.6266 153.734C83.3609 153.89 83.059 153.974 82.7509 153.978C82.4428 153.981 82.1392 153.903 81.8703 153.753" fill="white" fill-opacity="0.8"/>
<path d="M107.749 0V35.7812L139.406 54.0578C139.95 54.375 140.274 54.9578 140.274 55.5953C140.274 56.225 139.942 56.8016 139.406 57.1188L101.777 78.8562C101.236 79.163 100.625 79.3243 100.003 79.3243C99.3815 79.3243 98.7705 79.163 98.2298 78.8562L60.611 57.1188C60.3438 56.9645 60.1222 56.7423 59.9685 56.4748C59.8148 56.2072 59.7346 55.9038 59.736 55.5953C59.7338 55.2847 59.8135 54.979 59.9671 54.7091C60.1207 54.4391 60.3428 54.2145 60.611 54.0578L92.2626 35.7812V0L11.4673 46.6484L99.986 97.7594L188.525 46.65L107.749 0Z" fill="white" fill-opacity="0.6"/>
</svg>
