<svg width="636" height="763" viewBox="0 0 636 763" fill="none" xmlns="http://www.w3.org/2000/svg">
<rect width="636" height="763" rx="32" fill="#020304"/>
<path d="M75.256 90.288C73.1653 90.288 71.3413 89.8187 69.784 88.88C68.248 87.92 67.0533 86.576 66.2 84.848C65.368 83.12 64.952 81.072 64.952 78.704C64.952 76.336 65.368 74.288 66.2 72.56C67.032 70.832 68.216 69.4987 69.752 68.56C71.3093 67.6213 73.144 67.152 75.256 67.152C77.3893 67.152 79.224 67.6213 80.76 68.56C82.3173 69.4987 83.512 70.832 84.344 72.56C85.1973 74.2667 85.624 76.304 85.624 78.672C85.624 81.04 85.1973 83.0987 84.344 84.848C83.4907 86.576 82.2853 87.92 80.728 88.88C79.192 89.8187 77.368 90.288 75.256 90.288ZM75.256 87.952C77.6667 87.952 79.5333 87.1413 80.856 85.52C82.1787 83.8987 82.84 81.6267 82.84 78.704C82.84 75.7813 82.1787 73.52 80.856 71.92C79.5333 70.2987 77.6667 69.488 75.256 69.488C72.888 69.488 71.0427 70.2987 69.72 71.92C68.3973 73.52 67.736 75.7813 67.736 78.704C67.736 81.6053 68.3973 83.8773 69.72 85.52C71.0427 87.1413 72.888 87.952 75.256 87.952ZM95.4673 90.288C91.7339 90.288 89.8673 88.2293 89.8673 84.112V74.448H92.4593V84.08C92.4593 85.4667 92.7366 86.4907 93.2913 87.152C93.8673 87.8133 94.7633 88.144 95.9792 88.144C97.3019 88.144 98.3793 87.7067 99.2113 86.832C100.043 85.936 100.459 84.752 100.459 83.28V74.448H103.051V90H100.523V87.376C100.033 88.3147 99.3393 89.04 98.4433 89.552C97.5686 90.0427 96.5766 90.288 95.4673 90.288ZM107.901 90V74.448H110.429V77.232C111.261 75.3547 112.967 74.32 115.549 74.128L116.477 74.032L116.669 76.272L115.037 76.464C113.565 76.592 112.445 77.0613 111.677 77.872C110.909 78.6613 110.525 79.7493 110.525 81.136V90H107.901ZM132.836 90.288C131.62 90.288 130.468 90.1173 129.38 89.776C128.292 89.4347 127.396 88.9547 126.692 88.336L127.524 86.512C128.292 87.1307 129.135 87.5893 130.052 87.888C130.991 88.1653 131.94 88.304 132.9 88.304C134.116 88.304 135.034 88.08 135.652 87.632C136.271 87.184 136.58 86.576 136.58 85.808C136.58 85.2107 136.378 84.7413 135.972 84.4C135.567 84.0373 134.927 83.76 134.052 83.568L131.14 82.928C128.495 82.352 127.172 80.9867 127.172 78.832C127.172 77.424 127.727 76.2933 128.836 75.44C129.967 74.5867 131.439 74.16 133.252 74.16C134.319 74.16 135.332 74.3307 136.292 74.672C137.274 74.992 138.084 75.472 138.724 76.112L137.86 77.936C137.242 77.36 136.516 76.9227 135.684 76.624C134.874 76.304 134.063 76.144 133.252 76.144C132.058 76.144 131.151 76.3787 130.532 76.848C129.914 77.3173 129.604 77.936 129.604 78.704C129.604 79.8987 130.394 80.6667 131.972 81.008L134.884 81.616C136.25 81.9147 137.284 82.3947 137.988 83.056C138.692 83.696 139.044 84.5707 139.044 85.68C139.044 87.1093 138.479 88.24 137.348 89.072C136.218 89.8827 134.714 90.288 132.836 90.288ZM150.003 90.288C147.549 90.288 145.608 89.5733 144.179 88.144C142.749 86.6933 142.035 84.7307 142.035 82.256C142.035 80.656 142.355 79.248 142.995 78.032C143.635 76.7947 144.509 75.8453 145.619 75.184C146.749 74.5013 148.051 74.16 149.523 74.16C151.635 74.16 153.288 74.8427 154.483 76.208C155.677 77.552 156.275 79.408 156.275 81.776V82.768H144.562C144.648 84.5387 145.16 85.8933 146.099 86.832C147.037 87.7493 148.339 88.208 150.003 88.208C150.941 88.208 151.837 88.0693 152.691 87.792C153.544 87.4933 154.355 87.0133 155.123 86.352L156.019 88.176C155.315 88.8373 154.419 89.36 153.331 89.744C152.243 90.1067 151.133 90.288 150.003 90.288ZM149.587 76.08C148.115 76.08 146.952 76.5387 146.099 77.456C145.245 78.3733 144.744 79.5787 144.595 81.072H154.035C153.971 79.4933 153.555 78.2667 152.787 77.392C152.04 76.5173 150.973 76.08 149.587 76.08ZM160.026 90V74.448H162.554V77.232C163.386 75.3547 165.092 74.32 167.674 74.128L168.602 74.032L168.794 76.272L167.162 76.464C165.69 76.592 164.57 77.0613 163.802 77.872C163.034 78.6613 162.65 79.7493 162.65 81.136V90H160.026ZM177.039 90L170.351 74.448H173.167L178.319 87.056L183.535 74.448H186.191L179.471 90H177.039ZM188.612 70.576V67.664H191.812V70.576H188.612ZM188.932 90V74.448H191.524V90H188.932ZM202.962 90.288C201.404 90.288 200.06 89.9573 198.93 89.296C197.799 88.6133 196.924 87.664 196.306 86.448C195.708 85.2107 195.41 83.7707 195.41 82.128C195.41 79.6533 196.082 77.712 197.426 76.304C198.77 74.8747 200.615 74.16 202.962 74.16C203.922 74.16 204.871 74.3307 205.81 74.672C206.748 75.0133 207.527 75.4933 208.146 76.112L207.25 78C206.631 77.4027 205.948 76.9653 205.202 76.688C204.476 76.4107 203.783 76.272 203.122 76.272C201.5 76.272 200.252 76.784 199.378 77.808C198.503 78.8107 198.066 80.2613 198.066 82.16C198.066 84.016 198.503 85.488 199.378 86.576C200.252 87.6427 201.5 88.176 203.122 88.176C203.783 88.176 204.476 88.0373 205.202 87.76C205.948 87.4827 206.631 87.0347 207.25 86.416L208.146 88.304C207.527 88.9227 206.738 89.4133 205.778 89.776C204.839 90.1173 203.9 90.288 202.962 90.288ZM217.878 90.288C215.424 90.288 213.483 89.5733 212.054 88.144C210.624 86.6933 209.91 84.7307 209.91 82.256C209.91 80.656 210.23 79.248 210.87 78.032C211.51 76.7947 212.384 75.8453 213.494 75.184C214.624 74.5013 215.926 74.16 217.398 74.16C219.51 74.16 221.163 74.8427 222.358 76.208C223.552 77.552 224.15 79.408 224.15 81.776V82.768H212.438C212.523 84.5387 213.035 85.8933 213.974 86.832C214.912 87.7493 216.214 88.208 217.878 88.208C218.816 88.208 219.712 88.0693 220.566 87.792C221.419 87.4933 222.23 87.0133 222.998 86.352L223.894 88.176C223.19 88.8373 222.294 89.36 221.206 89.744C220.118 90.1067 219.008 90.288 217.878 90.288ZM217.462 76.08C215.99 76.08 214.827 76.5387 213.974 77.456C213.12 78.3733 212.619 79.5787 212.47 81.072H221.91C221.846 79.4933 221.43 78.2667 220.662 77.392C219.915 76.5173 218.848 76.08 217.462 76.08ZM233.149 90.288C231.933 90.288 230.781 90.1173 229.693 89.776C228.605 89.4347 227.709 88.9547 227.005 88.336L227.837 86.512C228.605 87.1307 229.447 87.5893 230.365 87.888C231.303 88.1653 232.253 88.304 233.213 88.304C234.429 88.304 235.346 88.08 235.965 87.632C236.583 87.184 236.893 86.576 236.893 85.808C236.893 85.2107 236.69 84.7413 236.285 84.4C235.879 84.0373 235.239 83.76 234.365 83.568L231.453 82.928C228.807 82.352 227.485 80.9867 227.485 78.832C227.485 77.424 228.039 76.2933 229.149 75.44C230.279 74.5867 231.751 74.16 233.565 74.16C234.631 74.16 235.645 74.3307 236.605 74.672C237.586 74.992 238.397 75.472 239.037 76.112L238.173 77.936C237.554 77.36 236.829 76.9227 235.997 76.624C235.186 76.304 234.375 76.144 233.565 76.144C232.37 76.144 231.463 76.3787 230.845 76.848C230.226 77.3173 229.917 77.936 229.917 78.704C229.917 79.8987 230.706 80.6667 232.285 81.008L235.197 81.616C236.562 81.9147 237.597 82.3947 238.301 83.056C239.005 83.696 239.357 84.5707 239.357 85.68C239.357 87.1093 238.791 88.24 237.661 89.072C236.53 89.8827 235.026 90.288 233.149 90.288ZM256.422 90.288C255.355 90.288 254.395 90.0853 253.542 89.68C252.71 89.2533 252.048 88.6773 251.558 87.952C251.067 87.2267 250.822 86.416 250.822 85.52C250.822 84.3893 251.11 83.4933 251.686 82.832C252.283 82.1707 253.254 81.7013 254.598 81.424C255.963 81.1253 257.819 80.976 260.166 80.976H261.19V79.984C261.19 78.6613 260.912 77.712 260.358 77.136C259.824 76.5387 258.96 76.24 257.766 76.24C256.827 76.24 255.92 76.3787 255.046 76.656C254.171 76.912 253.275 77.3387 252.358 77.936L251.462 76.048C252.272 75.472 253.254 75.0133 254.406 74.672C255.579 74.3307 256.699 74.16 257.766 74.16C259.771 74.16 261.254 74.6507 262.214 75.632C263.195 76.6133 263.686 78.1387 263.686 80.208V90H261.254V87.312C260.848 88.2293 260.219 88.9547 259.366 89.488C258.534 90.0213 257.552 90.288 256.422 90.288ZM256.838 88.336C258.118 88.336 259.163 87.8987 259.974 87.024C260.784 86.128 261.19 84.9973 261.19 83.632V82.672H260.198C258.47 82.672 257.104 82.7573 256.102 82.928C255.12 83.0773 254.427 83.3547 254.022 83.76C253.638 84.144 253.446 84.6773 253.446 85.36C253.446 86.2347 253.744 86.9493 254.342 87.504C254.96 88.0587 255.792 88.336 256.838 88.336ZM268.495 90V74.448H271.023V77.232C271.855 75.3547 273.561 74.32 276.143 74.128L277.071 74.032L277.263 76.272L275.631 76.464C274.159 76.592 273.039 77.0613 272.271 77.872C271.503 78.6613 271.119 79.7493 271.119 81.136V90H268.495ZM286.784 90.288C284.33 90.288 282.389 89.5733 280.96 88.144C279.53 86.6933 278.816 84.7307 278.816 82.256C278.816 80.656 279.136 79.248 279.776 78.032C280.416 76.7947 281.29 75.8453 282.4 75.184C283.53 74.5013 284.832 74.16 286.304 74.16C288.416 74.16 290.069 74.8427 291.264 76.208C292.458 77.552 293.056 79.408 293.056 81.776V82.768H281.344C281.429 84.5387 281.941 85.8933 282.88 86.832C283.818 87.7493 285.12 88.208 286.784 88.208C287.722 88.208 288.618 88.0693 289.472 87.792C290.325 87.4933 291.136 87.0133 291.904 86.352L292.8 88.176C292.096 88.8373 291.2 89.36 290.112 89.744C289.024 90.1067 287.914 90.288 286.784 90.288ZM286.368 76.08C284.896 76.08 283.733 76.5387 282.88 77.456C282.026 78.3733 281.525 79.5787 281.376 81.072H290.816C290.752 79.4933 290.336 78.2667 289.568 77.392C288.821 76.5173 287.754 76.08 286.368 76.08ZM73.304 130.288C72.0667 130.288 70.9787 130.011 70.04 129.456C69.1227 128.901 68.4293 128.144 67.96 127.184V130H65.432V107.44H68.024V117.136C68.472 116.219 69.1653 115.493 70.104 114.96C71.0427 114.427 72.1093 114.16 73.304 114.16C74.6907 114.16 75.896 114.491 76.92 115.152C77.9653 115.792 78.7653 116.72 79.32 117.936C79.896 119.131 80.184 120.56 80.184 122.224C80.184 123.867 79.896 125.296 79.32 126.512C78.7653 127.707 77.9653 128.635 76.92 129.296C75.896 129.957 74.6907 130.288 73.304 130.288ZM72.76 128.208C74.2107 128.208 75.3733 127.696 76.248 126.672C77.1227 125.627 77.56 124.144 77.56 122.224C77.56 120.283 77.1227 118.8 76.248 117.776C75.3733 116.752 74.2107 116.24 72.76 116.24C71.3093 116.24 70.1467 116.752 69.272 117.776C68.3973 118.8 67.96 120.283 67.96 122.224C67.96 124.144 68.3973 125.627 69.272 126.672C70.1467 127.696 71.3093 128.208 72.76 128.208ZM85.6615 135.76L88.3175 129.744L81.7575 114.448H84.5735L89.7255 127.056L94.9095 114.448H97.6295L88.3815 135.76H85.6615ZM114.99 130.288C113.475 130.288 112.163 129.957 111.054 129.296C109.944 128.635 109.08 127.707 108.462 126.512C107.864 125.296 107.566 123.867 107.566 122.224C107.566 120.581 107.864 119.163 108.462 117.968C109.08 116.752 109.944 115.813 111.054 115.152C112.163 114.491 113.475 114.16 114.99 114.16C116.483 114.16 117.784 114.491 118.894 115.152C120.024 115.813 120.888 116.752 121.486 117.968C122.104 119.163 122.414 120.581 122.414 122.224C122.414 123.867 122.104 125.296 121.486 126.512C120.888 127.707 120.024 128.635 118.894 129.296C117.784 129.957 116.483 130.288 114.99 130.288ZM114.99 128.208C116.44 128.208 117.603 127.696 118.478 126.672C119.352 125.627 119.79 124.144 119.79 122.224C119.79 120.283 119.352 118.8 118.478 117.776C117.603 116.752 116.44 116.24 114.99 116.24C113.518 116.24 112.344 116.752 111.47 117.776C110.616 118.8 110.19 120.283 110.19 122.224C110.19 124.144 110.616 125.627 111.47 126.672C112.344 127.696 113.518 128.208 114.99 128.208ZM130.664 130L123.976 114.448H126.792L131.944 127.056L137.16 114.448H139.816L133.096 130H130.664ZM149.346 130.288C146.893 130.288 144.952 129.573 143.522 128.144C142.093 126.693 141.378 124.731 141.378 122.256C141.378 120.656 141.698 119.248 142.338 118.032C142.978 116.795 143.853 115.845 144.962 115.184C146.093 114.501 147.394 114.16 148.866 114.16C150.978 114.16 152.632 114.843 153.826 116.208C155.021 117.552 155.618 119.408 155.618 121.776V122.768H143.906C143.992 124.539 144.504 125.893 145.442 126.832C146.381 127.749 147.682 128.208 149.346 128.208C150.285 128.208 151.181 128.069 152.034 127.792C152.888 127.493 153.698 127.013 154.466 126.352L155.362 128.176C154.658 128.837 153.762 129.36 152.674 129.744C151.586 130.107 150.477 130.288 149.346 130.288ZM148.93 116.08C147.458 116.08 146.296 116.539 145.442 117.456C144.589 118.373 144.088 119.579 143.938 121.072H153.378C153.314 119.493 152.898 118.267 152.13 117.392C151.384 116.517 150.317 116.08 148.93 116.08ZM159.37 130V114.448H161.898V117.232C162.73 115.355 164.436 114.32 167.018 114.128L167.946 114.032L168.138 116.272L166.506 116.464C165.034 116.592 163.914 117.061 163.146 117.872C162.378 118.661 161.994 119.749 161.994 121.136V130H159.37ZM179.505 130V128.016L187.217 119.696C188.305 118.501 189.084 117.413 189.553 116.432C190.044 115.451 190.289 114.448 190.289 113.424C190.289 110.8 188.764 109.488 185.713 109.488C183.43 109.488 181.414 110.341 179.665 112.048L178.673 110C179.505 109.147 180.561 108.464 181.841 107.952C183.142 107.419 184.508 107.152 185.937 107.152C188.198 107.152 189.926 107.685 191.121 108.752C192.337 109.797 192.945 111.291 192.945 113.232C192.945 114.576 192.614 115.899 191.953 117.2C191.292 118.48 190.278 119.845 188.913 121.296L182.865 127.76H193.873V130H179.505ZM205.413 130.288C202.831 130.288 200.869 129.296 199.525 127.312C198.181 125.328 197.509 122.459 197.509 118.704C197.509 114.928 198.181 112.059 199.525 110.096C200.869 108.133 202.831 107.152 205.413 107.152C208.015 107.152 209.978 108.133 211.301 110.096C212.645 112.037 213.317 114.896 213.317 118.672C213.317 122.448 212.634 125.328 211.269 127.312C209.925 129.296 207.973 130.288 205.413 130.288ZM205.413 128.016C207.205 128.016 208.527 127.259 209.381 125.744C210.255 124.229 210.693 121.872 210.693 118.672C210.693 115.472 210.266 113.136 209.413 111.664C208.559 110.171 207.226 109.424 205.413 109.424C203.621 109.424 202.287 110.171 201.413 111.664C200.559 113.157 200.133 115.493 200.133 118.672C200.133 121.872 200.559 124.229 201.413 125.744C202.287 127.259 203.621 128.016 205.413 128.016ZM224.6 130.288C222.019 130.288 220.056 129.296 218.712 127.312C217.368 125.328 216.696 122.459 216.696 118.704C216.696 114.928 217.368 112.059 218.712 110.096C220.056 108.133 222.019 107.152 224.6 107.152C227.203 107.152 229.165 108.133 230.488 110.096C231.832 112.037 232.504 114.896 232.504 118.672C232.504 122.448 231.821 125.328 230.456 127.312C229.112 129.296 227.16 130.288 224.6 130.288ZM224.6 128.016C226.392 128.016 227.715 127.259 228.568 125.744C229.443 124.229 229.88 121.872 229.88 118.672C229.88 115.472 229.453 113.136 228.6 111.664C227.747 110.171 226.413 109.424 224.6 109.424C222.808 109.424 221.475 110.171 220.6 111.664C219.747 113.157 219.32 115.493 219.32 118.672C219.32 121.872 219.747 124.229 220.6 125.744C221.475 127.259 222.808 128.016 224.6 128.016ZM243.788 130.288C241.206 130.288 239.244 129.296 237.9 127.312C236.556 125.328 235.884 122.459 235.884 118.704C235.884 114.928 236.556 112.059 237.9 110.096C239.244 108.133 241.206 107.152 243.788 107.152C246.39 107.152 248.353 108.133 249.676 110.096C251.02 112.037 251.692 114.896 251.692 118.672C251.692 122.448 251.009 125.328 249.644 127.312C248.3 129.296 246.348 130.288 243.788 130.288ZM243.788 128.016C245.58 128.016 246.902 127.259 247.756 125.744C248.63 124.229 249.068 121.872 249.068 118.672C249.068 115.472 248.641 113.136 247.788 111.664C246.934 110.171 245.601 109.424 243.788 109.424C241.996 109.424 240.662 110.171 239.788 111.664C238.934 113.157 238.508 115.493 238.508 118.672C238.508 121.872 238.934 124.229 239.788 125.744C240.662 127.259 241.996 128.016 243.788 128.016ZM271.898 130.288C270.66 130.288 269.572 130.011 268.634 129.456C267.716 128.901 267.023 128.144 266.554 127.184V130H264.026V107.44H266.618V117.136C267.066 116.219 267.759 115.493 268.698 114.96C269.636 114.427 270.703 114.16 271.898 114.16C273.284 114.16 274.49 114.491 275.514 115.152C276.559 115.792 277.359 116.72 277.914 117.936C278.49 119.131 278.778 120.56 278.778 122.224C278.778 123.867 278.49 125.296 277.914 126.512C277.359 127.707 276.559 128.635 275.514 129.296C274.49 129.957 273.284 130.288 271.898 130.288ZM271.354 128.208C272.804 128.208 273.967 127.696 274.842 126.672C275.716 125.627 276.154 124.144 276.154 122.224C276.154 120.283 275.716 118.8 274.842 117.776C273.967 116.752 272.804 116.24 271.354 116.24C269.903 116.24 268.74 116.752 267.866 117.776C266.991 118.8 266.554 120.283 266.554 122.224C266.554 124.144 266.991 125.627 267.866 126.672C268.74 127.696 269.903 128.208 271.354 128.208ZM288.186 130.288C284.453 130.288 282.586 128.229 282.586 124.112V114.448H285.178V124.08C285.178 125.467 285.455 126.491 286.01 127.152C286.586 127.813 287.482 128.144 288.698 128.144C290.021 128.144 291.098 127.707 291.93 126.832C292.762 125.936 293.178 124.752 293.178 123.28V114.448H295.77V130H293.242V127.376C292.751 128.315 292.058 129.04 291.162 129.552C290.287 130.043 289.295 130.288 288.186 130.288ZM305.868 130.288C304.652 130.288 303.5 130.117 302.411 129.776C301.323 129.435 300.428 128.955 299.724 128.336L300.556 126.512C301.324 127.131 302.166 127.589 303.084 127.888C304.022 128.165 304.972 128.304 305.932 128.304C307.148 128.304 308.065 128.08 308.684 127.632C309.302 127.184 309.612 126.576 309.612 125.808C309.612 125.211 309.409 124.741 309.004 124.4C308.598 124.037 307.958 123.76 307.084 123.568L304.172 122.928C301.526 122.352 300.204 120.987 300.204 118.832C300.204 117.424 300.758 116.293 301.868 115.44C302.998 114.587 304.47 114.16 306.284 114.16C307.35 114.16 308.364 114.331 309.324 114.672C310.305 114.992 311.116 115.472 311.756 116.112L310.892 117.936C310.273 117.36 309.548 116.923 308.716 116.624C307.905 116.304 307.094 116.144 306.284 116.144C305.089 116.144 304.182 116.379 303.564 116.848C302.945 117.317 302.636 117.936 302.636 118.704C302.636 119.899 303.425 120.667 305.004 121.008L307.916 121.616C309.281 121.915 310.316 122.395 311.02 123.056C311.724 123.696 312.076 124.571 312.076 125.68C312.076 127.109 311.51 128.24 310.38 129.072C309.249 129.883 307.745 130.288 305.868 130.288ZM315.706 110.576V107.664H318.906V110.576H315.706ZM316.026 130V114.448H318.618V130H316.026ZM323.463 130V114.448H325.991V117.104C326.503 116.123 327.229 115.387 328.167 114.896C329.106 114.405 330.162 114.16 331.335 114.16C335.026 114.16 336.871 116.208 336.871 120.304V130H334.279V120.464C334.279 119.013 333.991 117.957 333.415 117.296C332.861 116.613 331.965 116.272 330.727 116.272C329.298 116.272 328.157 116.72 327.303 117.616C326.471 118.491 326.055 119.664 326.055 121.136V130H323.463ZM348.659 130.288C346.205 130.288 344.264 129.573 342.835 128.144C341.405 126.693 340.691 124.731 340.691 122.256C340.691 120.656 341.011 119.248 341.651 118.032C342.291 116.795 343.165 115.845 344.275 115.184C345.405 114.501 346.707 114.16 348.179 114.16C350.291 114.16 351.944 114.843 353.139 116.208C354.333 117.552 354.931 119.408 354.931 121.776V122.768H343.219C343.304 124.539 343.816 125.893 344.755 126.832C345.693 127.749 346.995 128.208 348.659 128.208C349.597 128.208 350.493 128.069 351.347 127.792C352.2 127.493 353.011 127.013 353.779 126.352L354.675 128.176C353.971 128.837 353.075 129.36 351.987 129.744C350.899 130.107 349.789 130.288 348.659 130.288ZM348.243 116.08C346.771 116.08 345.608 116.539 344.755 117.456C343.901 118.373 343.4 119.579 343.251 121.072H352.691C352.627 119.493 352.211 118.267 351.443 117.392C350.696 116.517 349.629 116.08 348.243 116.08ZM363.93 130.288C362.714 130.288 361.562 130.117 360.474 129.776C359.386 129.435 358.49 128.955 357.786 128.336L358.618 126.512C359.386 127.131 360.229 127.589 361.146 127.888C362.085 128.165 363.034 128.304 363.994 128.304C365.21 128.304 366.127 128.08 366.746 127.632C367.365 127.184 367.674 126.576 367.674 125.808C367.674 125.211 367.471 124.741 367.066 124.4C366.661 124.037 366.021 123.76 365.146 123.568L362.234 122.928C359.589 122.352 358.266 120.987 358.266 118.832C358.266 117.424 358.821 116.293 359.93 115.44C361.061 114.587 362.533 114.16 364.346 114.16C365.413 114.16 366.426 114.331 367.386 114.672C368.367 114.992 369.178 115.472 369.818 116.112L368.954 117.936C368.335 117.36 367.61 116.923 366.778 116.624C365.967 116.304 365.157 116.144 364.346 116.144C363.151 116.144 362.245 116.379 361.626 116.848C361.007 117.317 360.698 117.936 360.698 118.704C360.698 119.899 361.487 120.667 363.066 121.008L365.978 121.616C367.343 121.915 368.378 122.395 369.082 123.056C369.786 123.696 370.138 124.571 370.138 125.68C370.138 127.109 369.573 128.24 368.442 129.072C367.311 129.883 365.807 130.288 363.93 130.288ZM379.336 130.288C378.12 130.288 376.968 130.117 375.88 129.776C374.792 129.435 373.896 128.955 373.192 128.336L374.024 126.512C374.792 127.131 375.635 127.589 376.552 127.888C377.491 128.165 378.44 128.304 379.4 128.304C380.616 128.304 381.534 128.08 382.152 127.632C382.771 127.184 383.08 126.576 383.08 125.808C383.08 125.211 382.878 124.741 382.472 124.4C382.067 124.037 381.427 123.76 380.552 123.568L377.64 122.928C374.995 122.352 373.672 120.987 373.672 118.832C373.672 117.424 374.227 116.293 375.336 115.44C376.467 114.587 377.939 114.16 379.752 114.16C380.819 114.16 381.832 114.331 382.792 114.672C383.774 114.992 384.584 115.472 385.224 116.112L384.36 117.936C383.742 117.36 383.016 116.923 382.184 116.624C381.374 116.304 380.563 116.144 379.752 116.144C378.558 116.144 377.651 116.379 377.032 116.848C376.414 117.317 376.104 117.936 376.104 118.704C376.104 119.899 376.894 120.667 378.472 121.008L381.384 121.616C382.75 121.915 383.784 122.395 384.488 123.056C385.192 123.696 385.544 124.571 385.544 125.68C385.544 127.109 384.979 128.24 383.848 129.072C382.718 129.883 381.214 130.288 379.336 130.288ZM396.503 130.288C394.049 130.288 392.108 129.573 390.679 128.144C389.249 126.693 388.535 124.731 388.535 122.256C388.535 120.656 388.855 119.248 389.495 118.032C390.135 116.795 391.009 115.845 392.119 115.184C393.249 114.501 394.551 114.16 396.023 114.16C398.135 114.16 399.788 114.843 400.983 116.208C402.177 117.552 402.775 119.408 402.775 121.776V122.768H391.062C391.148 124.539 391.66 125.893 392.599 126.832C393.537 127.749 394.839 128.208 396.503 128.208C397.441 128.208 398.337 128.069 399.191 127.792C400.044 127.493 400.855 127.013 401.623 126.352L402.519 128.176C401.815 128.837 400.919 129.36 399.831 129.744C398.743 130.107 397.633 130.288 396.503 130.288ZM396.087 116.08C394.615 116.08 393.452 116.539 392.599 117.456C391.745 118.373 391.244 119.579 391.095 121.072H400.535C400.471 119.493 400.055 118.267 399.287 117.392C398.54 116.517 397.473 116.08 396.087 116.08ZM411.774 130.288C410.558 130.288 409.406 130.117 408.318 129.776C407.23 129.435 406.334 128.955 405.63 128.336L406.462 126.512C407.23 127.131 408.072 127.589 408.99 127.888C409.928 128.165 410.878 128.304 411.838 128.304C413.054 128.304 413.971 128.08 414.59 127.632C415.208 127.184 415.518 126.576 415.518 125.808C415.518 125.211 415.315 124.741 414.91 124.4C414.504 124.037 413.864 123.76 412.99 123.568L410.078 122.928C407.432 122.352 406.11 120.987 406.11 118.832C406.11 117.424 406.664 116.293 407.774 115.44C408.904 114.587 410.376 114.16 412.19 114.16C413.256 114.16 414.27 114.331 415.23 114.672C416.211 114.992 417.022 115.472 417.662 116.112L416.798 117.936C416.179 117.36 415.454 116.923 414.622 116.624C413.811 116.304 413 116.144 412.19 116.144C410.995 116.144 410.088 116.379 409.47 116.848C408.851 117.317 408.542 117.936 408.542 118.704C408.542 119.899 409.331 120.667 410.91 121.008L413.822 121.616C415.187 121.915 416.222 122.395 416.926 123.056C417.63 123.696 417.982 124.571 417.982 125.68C417.982 127.109 417.416 128.24 416.286 129.072C415.155 129.883 413.651 130.288 411.774 130.288Z" fill="#E0E2ED"/>
<path d="M310.21 90.288C308.396 90.288 307.063 89.776 306.21 88.752C305.378 87.728 305.1 86.3627 305.378 84.656L306.69 76.464H303.618L303.97 74.448H307.01L307.746 69.68H310.338L309.602 74.448H314.53L314.178 76.464H309.25L308.002 84.4C307.788 85.7013 307.916 86.64 308.386 87.216C308.876 87.792 309.644 88.08 310.69 88.08C311.052 88.08 311.383 88.048 311.682 87.984C312.002 87.8987 312.3 87.8133 312.578 87.728L312.834 89.744C312.556 89.8933 312.162 90.0213 311.65 90.128C311.159 90.2347 310.679 90.288 310.21 90.288ZM322.265 90.288C320.046 90.288 318.286 89.68 316.985 88.464C315.684 87.2267 315.033 85.5413 315.033 83.408C315.033 81.7227 315.374 80.1867 316.057 78.8C316.74 77.392 317.7 76.272 318.937 75.44C320.174 74.5867 321.646 74.16 323.353 74.16C324.974 74.16 326.254 74.5333 327.193 75.28C328.153 76.0267 328.804 77.008 329.145 78.224C329.486 79.4187 329.561 80.7093 329.369 82.096L329.273 82.768H317.561C317.412 84.432 317.764 85.7547 318.617 86.736C319.47 87.7173 320.729 88.208 322.393 88.208C323.374 88.208 324.281 88.0693 325.113 87.792C325.966 87.4933 326.745 87.0347 327.449 86.416L328.313 88.176C327.588 88.8587 326.681 89.3813 325.593 89.744C324.505 90.1067 323.396 90.288 322.265 90.288ZM323.321 76.08C322.19 76.08 321.252 76.3253 320.505 76.816C319.758 77.2853 319.161 77.904 318.713 78.672C318.286 79.44 317.988 80.24 317.817 81.072H327.289C327.417 79.664 327.172 78.48 326.553 77.52C325.956 76.56 324.878 76.08 323.321 76.08ZM337.792 90.288C336.534 90.288 335.36 90.1173 334.272 89.776C333.184 89.4347 332.299 88.9653 331.616 88.368L332.576 86.576C333.344 87.1733 334.166 87.6107 335.04 87.888C335.936 88.1653 336.864 88.304 337.824 88.304C338.976 88.304 339.872 88.08 340.512 87.632C341.174 87.1627 341.504 86.512 341.504 85.68C341.504 84.6133 340.822 83.92 339.456 83.6L336.416 82.864C335.35 82.6293 334.507 82.1707 333.888 81.488C333.291 80.8053 332.992 79.9733 332.992 78.992C332.992 77.6053 333.558 76.4533 334.688 75.536C335.84 74.6187 337.398 74.16 339.36 74.16C340.427 74.16 341.451 74.3413 342.432 74.704C343.414 75.0453 344.203 75.5147 344.8 76.112L343.904 77.872C342.667 76.72 341.12 76.144 339.264 76.144C338.07 76.144 337.131 76.3893 336.448 76.88C335.766 77.3707 335.424 78.032 335.424 78.864C335.424 79.376 335.574 79.824 335.872 80.208C336.192 80.5707 336.683 80.8267 337.344 80.976L340.384 81.712C341.515 81.9893 342.39 82.448 343.008 83.088C343.648 83.7067 343.968 84.5173 343.968 85.52C343.968 87.0133 343.392 88.1867 342.24 89.04C341.11 89.872 339.627 90.288 337.792 90.288ZM353.522 90.288C351.709 90.288 350.376 89.776 349.522 88.752C348.69 87.728 348.413 86.3627 348.69 84.656L350.002 76.464H346.93L347.282 74.448H350.322L351.058 69.68H353.65L352.914 74.448H357.842L357.49 76.464H352.562L351.314 84.4C351.101 85.7013 351.229 86.64 351.698 87.216C352.189 87.792 352.957 88.08 354.002 88.08C354.365 88.08 354.696 88.048 354.994 87.984C355.314 87.8987 355.613 87.8133 355.89 87.728L356.146 89.744C355.869 89.8933 355.474 90.0213 354.962 90.128C354.472 90.2347 353.992 90.288 353.522 90.288ZM365.578 90.288C363.359 90.288 361.599 89.68 360.298 88.464C358.996 87.2267 358.346 85.5413 358.346 83.408C358.346 81.7227 358.687 80.1867 359.37 78.8C360.052 77.392 361.012 76.272 362.25 75.44C363.487 74.5867 364.959 74.16 366.666 74.16C368.287 74.16 369.567 74.5333 370.506 75.28C371.466 76.0267 372.116 77.008 372.458 78.224C372.799 79.4187 372.874 80.7093 372.682 82.096L372.586 82.768H360.874C360.724 84.432 361.076 85.7547 361.93 86.736C362.783 87.7173 364.042 88.208 365.706 88.208C366.687 88.208 367.594 88.0693 368.426 87.792C369.279 87.4933 370.058 87.0347 370.762 86.416L371.626 88.176C370.9 88.8587 369.994 89.3813 368.906 89.744C367.818 90.1067 366.708 90.288 365.578 90.288ZM366.634 76.08C365.503 76.08 364.564 76.3253 363.818 76.816C363.071 77.2853 362.474 77.904 362.026 78.672C361.599 79.44 361.3 80.24 361.13 81.072H370.602C370.73 79.664 370.484 78.48 369.866 77.52C369.268 76.56 368.191 76.08 366.634 76.08ZM381.361 90.288C379.569 90.288 378.118 89.6907 377.009 88.496C375.921 87.3013 375.377 85.68 375.377 83.632C375.377 81.904 375.675 80.3253 376.273 78.896C376.891 77.4453 377.777 76.2933 378.929 75.44C380.102 74.5867 381.51 74.16 383.153 74.16C384.326 74.16 385.382 74.4373 386.321 74.992C387.259 75.5253 387.942 76.3573 388.369 77.488L389.937 67.44H392.529L388.945 90H386.417L386.833 87.408C386.235 88.304 385.467 89.008 384.529 89.52C383.611 90.032 382.555 90.288 381.361 90.288ZM382.193 88.208C383.387 88.208 384.39 87.8773 385.201 87.216C386.011 86.5547 386.63 85.68 387.057 84.592C387.483 83.4827 387.697 82.256 387.697 80.912C387.697 79.376 387.323 78.2133 386.577 77.424C385.83 76.6347 384.806 76.24 383.505 76.24C382.31 76.24 381.307 76.5707 380.497 77.232C379.686 77.872 379.067 78.7467 378.641 79.856C378.214 80.9653 378.001 82.192 378.001 83.536C378.001 85.0507 378.374 86.2133 379.121 87.024C379.867 87.8133 380.891 88.208 382.193 88.208ZM407.212 90.288C406.316 90.288 405.473 90.0853 404.684 89.68C403.916 89.2747 403.297 88.72 402.828 88.016C402.358 87.312 402.124 86.512 402.124 85.616C402.124 83.9733 402.817 82.7893 404.204 82.064C405.612 81.3387 407.852 80.976 410.924 80.976H413.132L413.292 80.016C413.505 78.8 413.345 77.872 412.812 77.232C412.278 76.5707 411.34 76.24 409.996 76.24C408.097 76.24 406.337 76.784 404.716 77.872L403.98 75.984C404.748 75.4293 405.697 74.992 406.828 74.672C407.98 74.3307 409.132 74.16 410.284 74.16C412.46 74.16 413.985 74.7573 414.86 75.952C415.734 77.1467 416.012 78.736 415.692 80.72L414.22 90H411.756L412.14 87.568C411.606 88.4853 410.892 89.168 409.996 89.616C409.1 90.064 408.172 90.288 407.212 90.288ZM407.852 88.336C409.004 88.336 410.038 87.952 410.956 87.184C411.873 86.3947 412.449 85.3067 412.684 83.92L412.876 82.672H411.276C409.633 82.672 408.332 82.7573 407.372 82.928C406.433 83.0987 405.761 83.3867 405.356 83.792C404.95 84.1973 404.748 84.752 404.748 85.456C404.748 86.3947 405.057 87.1093 405.676 87.6C406.294 88.0907 407.02 88.336 407.852 88.336ZM418.997 90L421.493 74.448H424.021L423.573 77.104C424.149 76.1653 424.906 75.44 425.845 74.928C426.805 74.416 427.914 74.16 429.173 74.16C430.901 74.16 432.202 74.6827 433.077 75.728C433.973 76.7733 434.239 78.3947 433.877 80.592L432.405 90H429.813L431.285 80.592C431.754 77.712 430.794 76.272 428.405 76.272C426.847 76.272 425.61 76.752 424.693 77.712C423.775 78.672 423.189 79.952 422.933 81.552L421.589 90H418.997ZM443.392 90.288C441.6 90.288 440.149 89.6907 439.04 88.496C437.952 87.3013 437.408 85.68 437.408 83.632C437.408 81.904 437.707 80.3253 438.304 78.896C438.923 77.4453 439.808 76.2933 440.96 75.44C442.133 74.5867 443.541 74.16 445.184 74.16C446.357 74.16 447.413 74.4373 448.352 74.992C449.291 75.5253 449.973 76.3573 450.4 77.488L451.968 67.44H454.56L450.976 90H448.448L448.864 87.408C448.267 88.304 447.499 89.008 446.56 89.52C445.643 90.032 444.587 90.288 443.392 90.288ZM444.224 88.208C445.419 88.208 446.421 87.8773 447.232 87.216C448.043 86.5547 448.661 85.68 449.088 84.592C449.515 83.4827 449.728 82.256 449.728 80.912C449.728 79.376 449.355 78.2133 448.608 77.424C447.861 76.6347 446.837 76.24 445.536 76.24C444.341 76.24 443.339 76.5707 442.528 77.232C441.717 77.872 441.099 78.7467 440.672 79.856C440.245 80.9653 440.032 82.192 440.032 83.536C440.032 85.0507 440.405 86.2133 441.152 87.024C441.899 87.8133 442.923 88.208 444.224 88.208ZM470.491 90.288C468.678 90.288 467.344 89.776 466.491 88.752C465.659 87.728 465.382 86.3627 465.659 84.656L466.971 76.464H463.899L464.251 74.448H467.291L468.027 69.68H470.619L469.883 74.448H474.811L474.459 76.464H469.531L468.283 84.4C468.07 85.7013 468.198 86.64 468.667 87.216C469.158 87.792 469.926 88.08 470.971 88.08C471.334 88.08 471.664 88.048 471.963 87.984C472.283 87.8987 472.582 87.8133 472.859 87.728L473.115 89.744C472.838 89.8933 472.443 90.0213 471.931 90.128C471.44 90.2347 470.96 90.288 470.491 90.288ZM475.247 90L477.743 74.448H480.271L479.855 77.04C480.324 76.208 480.975 75.5467 481.807 75.056C482.66 74.544 483.695 74.2347 484.911 74.128L486.159 74.032L486.191 76.272L484.399 76.432C482.692 76.6027 481.455 77.1147 480.687 77.968C479.94 78.8213 479.449 79.9733 479.215 81.424L477.871 90H475.247ZM492.251 90.288C490.566 90.288 489.286 89.7653 488.411 88.72C487.537 87.6747 487.281 86.0427 487.643 83.824L489.115 74.448H491.707L490.235 83.824C489.766 86.704 490.694 88.144 493.019 88.144C494.513 88.144 495.707 87.664 496.603 86.704C497.521 85.744 498.107 84.464 498.363 82.864L499.675 74.448H502.267L499.803 90H497.275L497.691 87.376C497.115 88.2933 496.358 89.008 495.419 89.52C494.502 90.032 493.446 90.288 492.251 90.288ZM510.605 90.288C509.346 90.288 508.173 90.1173 507.085 89.776C505.997 89.4347 505.111 88.9653 504.429 88.368L505.389 86.576C506.157 87.1733 506.978 87.6107 507.853 87.888C508.749 88.1653 509.677 88.304 510.637 88.304C511.789 88.304 512.685 88.08 513.325 87.632C513.986 87.1627 514.317 86.512 514.317 85.68C514.317 84.6133 513.634 83.92 512.269 83.6L509.229 82.864C508.162 82.6293 507.319 82.1707 506.701 81.488C506.103 80.8053 505.805 79.9733 505.805 78.992C505.805 77.6053 506.37 76.4533 507.501 75.536C508.653 74.6187 510.21 74.16 512.173 74.16C513.239 74.16 514.263 74.3413 515.245 74.704C516.226 75.0453 517.015 75.5147 517.613 76.112L516.717 77.872C515.479 76.72 513.933 76.144 512.077 76.144C510.882 76.144 509.943 76.3893 509.261 76.88C508.578 77.3707 508.237 78.032 508.237 78.864C508.237 79.376 508.386 79.824 508.685 80.208C509.005 80.5707 509.495 80.8267 510.157 80.976L513.197 81.712C514.327 81.9893 515.202 82.448 515.821 83.088C516.461 83.7067 516.781 84.5173 516.781 85.52C516.781 87.0133 516.205 88.1867 515.053 89.04C513.922 89.872 512.439 90.288 510.605 90.288ZM526.335 90.288C524.521 90.288 523.188 89.776 522.335 88.752C521.503 87.728 521.225 86.3627 521.503 84.656L522.815 76.464H519.743L520.095 74.448H523.135L523.871 69.68H526.463L525.727 74.448H530.655L530.303 76.464H525.375L524.127 84.4C523.913 85.7013 524.041 86.64 524.511 87.216C525.001 87.792 525.769 88.08 526.815 88.08C527.177 88.08 527.508 88.048 527.807 87.984C528.127 87.8987 528.425 87.8133 528.703 87.728L528.959 89.744C528.681 89.8933 528.287 90.0213 527.775 90.128C527.284 90.2347 526.804 90.288 526.335 90.288ZM538.39 90.288C536.171 90.288 534.411 89.68 533.11 88.464C531.809 87.2267 531.158 85.5413 531.158 83.408C531.158 81.7227 531.499 80.1867 532.182 78.8C532.865 77.392 533.825 76.272 535.062 75.44C536.299 74.5867 537.771 74.16 539.478 74.16C541.099 74.16 542.379 74.5333 543.318 75.28C544.278 76.0267 544.929 77.008 545.27 78.224C545.611 79.4187 545.686 80.7093 545.494 82.096L545.398 82.768H533.686C533.537 84.432 533.889 85.7547 534.742 86.736C535.595 87.7173 536.854 88.208 538.518 88.208C539.499 88.208 540.406 88.0693 541.238 87.792C542.091 87.4933 542.87 87.0347 543.574 86.416L544.438 88.176C543.713 88.8587 542.806 89.3813 541.718 89.744C540.63 90.1067 539.521 90.288 538.39 90.288ZM539.446 76.08C538.315 76.08 537.377 76.3253 536.63 76.816C535.883 77.2853 535.286 77.904 534.838 78.672C534.411 79.44 534.113 80.24 533.942 81.072H543.414C543.542 79.664 543.297 78.48 542.678 77.52C542.081 76.56 541.003 76.08 539.446 76.08ZM554.173 90.288C552.381 90.288 550.931 89.6907 549.821 88.496C548.733 87.3013 548.189 85.68 548.189 83.632C548.189 81.904 548.488 80.3253 549.085 78.896C549.704 77.4453 550.589 76.2933 551.741 75.44C552.915 74.5867 554.323 74.16 555.965 74.16C557.139 74.16 558.195 74.4373 559.133 74.992C560.072 75.5253 560.755 76.3573 561.181 77.488L562.749 67.44H565.341L561.757 90H559.229L559.645 87.408C559.048 88.304 558.28 89.008 557.341 89.52C556.424 90.032 555.368 90.288 554.173 90.288ZM555.005 88.208C556.2 88.208 557.203 87.8773 558.013 87.216C558.824 86.5547 559.443 85.68 559.869 84.592C560.296 83.4827 560.509 82.256 560.509 80.912C560.509 79.376 560.136 78.2133 559.389 77.424C558.643 76.6347 557.619 76.24 556.317 76.24C555.123 76.24 554.12 76.5707 553.309 77.232C552.499 77.872 551.88 78.7467 551.453 79.856C551.027 80.9653 550.813 82.192 550.813 83.536C550.813 85.0507 551.187 86.2133 551.933 87.024C552.68 87.8133 553.704 88.208 555.005 88.208Z" fill="#F6C859"/>
<rect x="69" y="318.609" width="64.8077" height="172.82" rx="12.3443" fill="#0E0F11"/>
<rect x="275.768" y="367.986" width="64.8077" height="123.443" rx="12.3443" fill="#0E0F11"/>
<rect x="379.151" y="295.463" width="64.8077" height="195.966" rx="12.3443" fill="#0E0F11"/>
<rect x="482.535" y="394.218" width="64.8077" height="97.2115" rx="12.3443" fill="#0E0F11"/>
<path d="M94.834 525.876H107.888V534.116H106.61V527.357H102.092V533.727H100.815V527.357H96.1116V534.116H94.834V525.876ZM99.1483 536.023H100.389V541.208H99.1483V536.023ZM94.6673 553.811C94.6673 552.527 94.9389 551.429 95.4821 550.515C96.0252 549.602 96.7967 548.898 97.7966 548.404C98.7965 547.923 99.9877 547.682 101.37 547.682C102.741 547.682 103.926 547.923 104.925 548.404C105.925 548.898 106.697 549.602 107.24 550.515C107.783 551.429 108.055 552.527 108.055 553.811C108.055 554.712 107.913 555.539 107.629 556.292C107.345 557.058 106.931 557.706 106.388 558.236L105.148 557.644C105.678 557.076 106.061 556.484 106.296 555.866C106.543 555.261 106.666 554.589 106.666 553.848C106.666 552.379 106.203 551.256 105.277 550.478C104.351 549.7 103.049 549.311 101.37 549.311C99.6791 549.311 98.3706 549.7 97.4448 550.478C96.519 551.256 96.0561 552.379 96.0561 553.848C96.0561 554.589 96.1733 555.261 96.4079 555.866C96.6548 556.484 97.0436 557.076 97.5744 557.644L96.3338 558.236C95.803 557.706 95.3895 557.058 95.0932 556.292C94.8093 555.539 94.6673 554.712 94.6673 553.811ZM94.6673 563.138C94.6673 562.261 94.8587 561.502 95.2413 560.86C95.624 560.218 96.161 559.718 96.8523 559.36C97.5559 559.015 98.383 558.842 99.3335 558.842C100.284 558.842 101.105 559.015 101.796 559.36C102.5 559.718 103.043 560.218 103.426 560.86C103.808 561.502 104 562.261 104 563.138C104 564.002 103.808 564.755 103.426 565.397C103.043 566.051 102.5 566.551 101.796 566.897C101.105 567.254 100.284 567.433 99.3335 567.433C98.383 567.433 97.5559 567.254 96.8523 566.897C96.161 566.551 95.624 566.051 95.2413 565.397C94.8587 564.755 94.6673 564.002 94.6673 563.138ZM95.8709 563.138C95.8709 563.977 96.1672 564.65 96.7597 565.156C97.3646 565.662 98.2225 565.915 99.3335 565.915C100.457 565.915 101.315 565.662 101.907 565.156C102.5 564.65 102.796 563.977 102.796 563.138C102.796 562.286 102.5 561.607 101.907 561.101C101.315 560.607 100.457 560.36 99.3335 560.36C98.2225 560.36 97.3646 560.607 96.7597 561.101C96.1672 561.607 95.8709 562.286 95.8709 563.138ZM94.834 569.353H103.833V570.816H102.315C102.858 571.087 103.271 571.464 103.555 571.945C103.852 572.427 104 572.988 104 573.63C104 575.038 103.389 575.939 102.167 576.334C102.734 576.605 103.179 577.006 103.5 577.537C103.833 578.068 104 578.679 104 579.37C104 581.37 102.815 582.37 100.444 582.37H94.834L94.834 580.87H100.37C101.197 580.87 101.802 580.722 102.185 580.426C102.58 580.142 102.778 579.667 102.778 579C102.778 578.272 102.518 577.692 102 577.26C101.481 576.827 100.79 576.611 99.926 576.611H94.834V575.112H100.37C101.197 575.112 101.802 574.963 102.185 574.667C102.58 574.383 102.778 573.908 102.778 573.241C102.778 572.501 102.518 571.914 102 571.482C101.481 571.063 100.79 570.853 99.926 570.853H94.834V569.353ZM94.834 584.841H103.833V586.304H102.315C102.858 586.575 103.271 586.952 103.555 587.433C103.852 587.915 104 588.476 104 589.118C104 590.526 103.389 591.427 102.167 591.822C102.734 592.093 103.179 592.494 103.5 593.025C103.833 593.556 104 594.167 104 594.858C104 596.858 102.815 597.858 100.444 597.858H94.834V596.358H100.37C101.197 596.358 101.802 596.21 102.185 595.914C102.58 595.63 102.778 595.155 102.778 594.488C102.778 593.76 102.518 593.18 102 592.748C101.481 592.315 100.79 592.099 99.926 592.099H94.834V590.6H100.37C101.197 590.6 101.802 590.451 102.185 590.155C102.58 589.871 102.778 589.396 102.778 588.729C102.778 587.989 102.518 587.402 102 586.97C101.481 586.551 100.79 586.341 99.926 586.341H94.834V584.841ZM94.6673 604.347C94.6673 602.927 95.0809 601.804 95.9079 600.977C96.7474 600.15 97.883 599.736 99.315 599.736C100.241 599.736 101.056 599.922 101.759 600.292C102.475 600.662 103.024 601.168 103.407 601.81C103.802 602.465 104 603.218 104 604.069C104 605.291 103.605 606.248 102.815 606.939C102.037 607.631 100.963 607.976 99.5927 607.976H99.0187V601.199C97.9941 601.249 97.2103 601.545 96.6671 602.088C96.1363 602.631 95.8709 603.384 95.8709 604.347C95.8709 604.89 95.9511 605.409 96.1116 605.902C96.2844 606.396 96.5622 606.865 96.9449 607.31L95.8894 607.828C95.5067 607.421 95.2043 606.902 94.9821 606.273C94.7723 605.643 94.6673 605.001 94.6673 604.347ZM102.889 604.106C102.889 603.255 102.623 602.582 102.092 602.088C101.562 601.594 100.864 601.304 100 601.218V606.68C100.914 606.643 101.623 606.402 102.129 605.958C102.636 605.526 102.889 604.909 102.889 604.106ZM94.834 609.777H103.833V611.239H102.222C103.308 611.721 103.907 612.708 104.018 614.202L104.074 614.739L102.778 614.85L102.666 613.906C102.592 613.054 102.321 612.406 101.852 611.962C101.395 611.517 100.765 611.295 99.963 611.295H94.834V609.777ZM94.6673 619.748C94.6673 618.847 94.8587 618.07 95.2413 617.415C95.6364 616.761 96.1857 616.255 96.8893 615.897C97.6053 615.551 98.4385 615.379 99.389 615.379C100.821 615.379 101.944 615.767 102.759 616.545C103.586 617.323 104 618.391 104 619.748C104 620.304 103.901 620.853 103.703 621.396C103.506 621.94 103.228 622.39 102.87 622.748L101.778 622.23C102.123 621.872 102.376 621.477 102.537 621.045C102.697 620.625 102.778 620.224 102.778 619.841C102.778 618.903 102.481 618.181 101.889 617.675C101.309 617.168 100.469 616.915 99.3705 616.915C98.2966 616.915 97.4448 617.168 96.8152 617.675C96.198 618.181 95.8894 618.903 95.8894 619.841C95.8894 620.224 95.9697 620.625 96.1301 621.045C96.2906 621.477 96.5498 621.872 96.9078 622.23L95.8154 622.748C95.4574 622.39 95.1735 621.933 94.9636 621.378C94.7661 620.835 94.6673 620.292 94.6673 619.748ZM94.6673 628.009C94.6673 626.59 95.0809 625.466 95.9079 624.639C96.7474 623.812 97.883 623.399 99.315 623.399C100.241 623.399 101.056 623.584 101.759 623.954C102.475 624.324 103.024 624.83 103.407 625.472C103.802 626.127 104 626.88 104 627.731C104 628.953 103.605 629.91 102.815 630.601C102.037 631.293 100.963 631.638 99.5927 631.638H99.0187V624.861C97.9941 624.911 97.2103 625.207 96.6671 625.75C96.1363 626.293 95.8709 627.046 95.8709 628.009C95.8709 628.552 95.9511 629.071 96.1116 629.565C96.2844 630.058 96.5622 630.527 96.9449 630.972L95.8894 631.49C95.5067 631.083 95.2043 630.564 94.9821 629.935C94.7723 629.305 94.6673 628.663 94.6673 628.009ZM102.889 627.768C102.889 626.917 102.623 626.244 102.092 625.75C101.562 625.256 100.864 624.966 100 624.88V630.342C100.914 630.305 101.623 630.064 102.129 629.62C102.636 629.188 102.889 628.571 102.889 627.768Z" fill="#E0E2ED"/>
<path d="M201.305 525.75H214.359V530.972C214.359 532.317 214.056 533.354 213.451 534.083C212.859 534.823 212.026 535.194 210.952 535.194C210.236 535.194 209.625 535.008 209.119 534.638C208.613 534.268 208.242 533.755 208.008 533.101C207.81 533.854 207.446 534.441 206.915 534.86C206.384 535.292 205.712 535.508 204.897 535.508C203.737 535.508 202.848 535.132 202.231 534.379C201.613 533.626 201.305 532.564 201.305 531.194V525.75ZM208.526 527.231V530.75C208.526 532.712 209.291 533.694 210.822 533.694C212.365 533.694 213.137 532.712 213.137 530.75V527.231H208.526ZM202.527 527.231V531.046C202.527 533.021 203.323 534.008 204.915 534.008C206.508 534.008 207.304 533.021 207.304 531.046V527.231H202.527ZM201.305 537.948H202.453L207.267 542.411C207.958 543.04 208.588 543.491 209.156 543.763C209.724 544.047 210.304 544.188 210.896 544.188C212.415 544.188 213.174 543.306 213.174 541.541C213.174 540.22 212.68 539.053 211.692 538.041L212.877 537.467C213.371 537.948 213.766 538.559 214.063 539.3C214.371 540.053 214.525 540.843 214.525 541.67C214.525 542.979 214.217 543.979 213.6 544.67C212.995 545.374 212.131 545.725 211.007 545.725C210.23 545.725 209.464 545.534 208.711 545.151C207.971 544.769 207.181 544.182 206.341 543.392L202.601 539.893V546.262H201.305V537.948ZM201.305 548.625H214.359V553.847C214.359 555.192 214.056 556.229 213.451 556.958C212.859 557.698 212.026 558.069 210.952 558.069C210.236 558.069 209.625 557.883 209.119 557.513C208.613 557.143 208.242 556.63 208.008 555.976C207.81 556.729 207.446 557.316 206.915 557.735C206.384 558.167 205.712 558.383 204.897 558.383C203.737 558.383 202.848 558.007 202.231 557.254C201.613 556.501 201.305 555.439 201.305 554.069V548.625ZM208.526 550.106V553.625C208.526 555.587 209.291 556.569 210.822 556.569C212.365 556.569 213.137 555.587 213.137 553.625V550.106H208.526ZM202.527 550.106V553.921C202.527 555.896 203.323 556.884 204.915 556.884C206.508 556.884 207.304 555.896 207.304 553.921V550.106H202.527Z" fill="#E0E2ED"/>
<path d="M301.602 525.451H314.656V529.858C314.656 531.969 314.094 533.598 312.971 534.746C311.86 535.894 310.249 536.468 308.138 536.468C306.027 536.468 304.41 535.894 303.287 534.746C302.163 533.598 301.602 531.969 301.602 529.858V525.451ZM302.898 526.97V529.747C302.898 533.154 304.644 534.858 308.138 534.858C311.619 534.858 313.36 533.154 313.36 529.747V526.97H302.898ZM312.841 538.435H314.526V540.286H312.841V538.435ZM301.602 538.62H310.601V540.12H301.602V538.62ZM298.102 546.534C298.102 545.757 298.207 545.022 298.417 544.331C298.614 543.652 298.917 543.047 299.324 542.516L300.417 543.016C300.021 543.572 299.738 544.121 299.565 544.664C299.392 545.22 299.306 545.818 299.306 546.46C299.306 548.238 300.219 549.127 302.046 549.127H303.638C303.071 548.867 302.62 548.46 302.287 547.904C301.966 547.361 301.805 546.738 301.805 546.034C301.805 545.207 301.997 544.491 302.379 543.886C302.762 543.281 303.287 542.812 303.953 542.479C304.632 542.158 305.416 541.998 306.305 541.998C307.194 541.998 307.971 542.158 308.638 542.479C309.317 542.812 309.841 543.281 310.212 543.886C310.582 544.491 310.767 545.207 310.767 546.034C310.767 546.738 310.607 547.361 310.286 547.904C309.965 548.46 309.527 548.867 308.971 549.127H310.601V550.589H302.25C300.867 550.589 299.83 550.244 299.139 549.552C298.448 548.873 298.102 547.867 298.102 546.534ZM303.027 546.312C303.027 547.176 303.324 547.861 303.916 548.367C304.509 548.873 305.305 549.127 306.305 549.127C307.305 549.127 308.095 548.873 308.675 548.367C309.267 547.861 309.564 547.176 309.564 546.312C309.564 545.46 309.267 544.781 308.675 544.275C308.095 543.769 307.305 543.516 306.305 543.516C305.305 543.516 304.509 543.769 303.916 544.275C303.324 544.781 303.027 545.46 303.027 546.312ZM312.841 552.847H314.526V554.699H312.841V552.847ZM301.602 553.032H310.601V554.532H301.602V553.032ZM301.435 560.576C301.435 559.515 301.713 558.719 302.268 558.188C302.836 557.657 303.651 557.392 304.712 557.392H309.434V555.632H310.601V557.392H313.36V558.891H310.601V561.743H309.434V558.891H304.86C304.157 558.891 303.62 559.039 303.25 559.336C302.892 559.632 302.713 560.113 302.713 560.78C302.713 560.978 302.737 561.175 302.787 561.373C302.836 561.57 302.885 561.749 302.935 561.91L301.787 562.169C301.7 562.008 301.62 561.774 301.546 561.465C301.472 561.157 301.435 560.86 301.435 560.576ZM301.435 565.902C301.435 565.285 301.552 564.729 301.787 564.235C302.034 563.754 302.367 563.371 302.787 563.087C303.206 562.803 303.675 562.661 304.194 562.661C304.848 562.661 305.367 562.828 305.749 563.161C306.132 563.507 306.404 564.069 306.564 564.846C306.737 565.636 306.823 566.71 306.823 568.068V568.661H307.397C308.163 568.661 308.712 568.5 309.045 568.179C309.391 567.871 309.564 567.371 309.564 566.68C309.564 566.136 309.483 565.612 309.323 565.106C309.175 564.6 308.928 564.081 308.582 563.55L309.675 563.032C310.008 563.501 310.273 564.069 310.471 564.735C310.668 565.414 310.767 566.062 310.767 566.68C310.767 567.84 310.483 568.698 309.915 569.253C309.348 569.821 308.465 570.105 307.268 570.105H301.602V568.698H303.157C302.626 568.463 302.206 568.099 301.898 567.605C301.589 567.124 301.435 566.556 301.435 565.902ZM302.564 566.143C302.564 566.883 302.817 567.488 303.324 567.957C303.842 568.426 304.496 568.661 305.286 568.661H305.842V568.087C305.842 567.087 305.792 566.297 305.694 565.717C305.607 565.149 305.447 564.748 305.212 564.513C304.99 564.291 304.681 564.18 304.286 564.18C303.78 564.18 303.367 564.353 303.046 564.698C302.725 565.056 302.564 565.538 302.564 566.143ZM301.435 575.276C301.435 574.363 301.7 573.672 302.231 573.202C302.774 572.746 303.558 572.517 304.583 572.517H314.656V574.017H304.694C303.373 574.017 302.713 574.542 302.713 575.591C302.713 575.9 302.75 576.177 302.824 576.424L301.565 576.387C301.478 576.005 301.435 575.634 301.435 575.276ZM301.602 582.215H314.656V583.733H308.879V591.566H314.656V593.084H301.602V591.566H307.564V583.733H301.602V582.215ZM301.435 599.782C301.435 598.363 301.848 597.239 302.676 596.412C303.515 595.585 304.651 595.172 306.083 595.172C307.008 595.172 307.823 595.357 308.527 595.727C309.243 596.098 309.792 596.604 310.175 597.246C310.57 597.9 310.767 598.653 310.767 599.505C310.767 600.727 310.372 601.683 309.582 602.375C308.804 603.066 307.731 603.412 306.36 603.412H305.786V596.635C304.762 596.684 303.978 596.98 303.435 597.523C302.904 598.067 302.638 598.82 302.638 599.782C302.638 600.326 302.719 600.844 302.879 601.338C303.052 601.832 303.33 602.301 303.712 602.745L302.657 603.263C302.274 602.856 301.972 602.338 301.75 601.708C301.54 601.079 301.435 600.437 301.435 599.782ZM309.656 599.542C309.656 598.69 309.391 598.017 308.86 597.523C308.329 597.03 307.632 596.74 306.768 596.653V602.115C307.681 602.078 308.391 601.838 308.897 601.393C309.403 600.961 309.656 600.344 309.656 599.542ZM301.435 608.045C301.435 607.428 301.552 606.872 301.787 606.378C302.034 605.897 302.367 605.514 302.787 605.23C303.206 604.947 303.675 604.805 304.194 604.805C304.848 604.805 305.367 604.971 305.749 605.304C306.132 605.65 306.404 606.212 306.564 606.989C306.737 607.78 306.823 608.853 306.823 610.211V610.804H307.397C308.163 610.804 308.712 610.643 309.045 610.322C309.391 610.014 309.564 609.514 309.564 608.823C309.564 608.279 309.483 607.755 309.323 607.249C309.175 606.743 308.928 606.224 308.582 605.693L309.675 605.175C310.008 605.644 310.273 606.212 310.471 606.878C310.668 607.557 310.767 608.205 310.767 608.823C310.767 609.983 310.483 610.841 309.915 611.396C309.348 611.964 308.465 612.248 307.268 612.248H301.602V610.841H303.157C302.626 610.606 302.206 610.242 301.898 609.748C301.589 609.267 301.435 608.699 301.435 608.045ZM302.564 608.286C302.564 609.026 302.817 609.631 303.324 610.1C303.842 610.569 304.496 610.804 305.286 610.804H305.842V610.23C305.842 609.23 305.792 608.44 305.694 607.86C305.607 607.292 305.447 606.891 305.212 606.656C304.99 606.434 304.681 606.323 304.286 606.323C303.78 606.323 303.367 606.496 303.046 606.841C302.725 607.199 302.564 607.681 302.564 608.286ZM301.435 617.419C301.435 616.506 301.7 615.815 302.231 615.345C302.774 614.889 303.558 614.66 304.583 614.66H314.656V616.16H304.694C303.373 616.16 302.713 616.685 302.713 617.734C302.713 618.043 302.75 618.32 302.824 618.567L301.565 618.53C301.478 618.148 301.435 617.777 301.435 617.419ZM301.435 623.217C301.435 622.155 301.713 621.359 302.268 620.828C302.836 620.298 303.651 620.032 304.712 620.032H309.434V618.273H310.601V620.032H313.36V621.532H310.601V624.384H309.434V621.532H304.86C304.157 621.532 303.62 621.68 303.25 621.976C302.892 622.273 302.713 622.754 302.713 623.421C302.713 623.618 302.737 623.816 302.787 624.013C302.836 624.211 302.885 624.39 302.935 624.55L301.787 624.809C301.7 624.649 301.62 624.414 301.546 624.106C301.472 623.797 301.435 623.501 301.435 623.217ZM301.602 625.709H314.656V627.209H309.119C309.662 627.506 310.07 627.919 310.341 628.45C310.625 628.993 310.767 629.598 310.767 630.265C310.767 632.4 309.582 633.468 307.212 633.468H301.602V631.968H307.119C307.959 631.968 308.57 631.801 308.953 631.468C309.348 631.147 309.545 630.629 309.545 629.913C309.545 629.086 309.286 628.425 308.767 627.931C308.261 627.45 307.582 627.209 306.731 627.209H301.602V625.709Z" fill="#E0E2ED"/>
<path d="M401.899 525.772H414.954V534.012H413.676V527.253H409.158V533.623H407.88V527.253H403.177V534.012H401.899V525.772ZM401.899 534.845L406.547 538.585L410.898 535.067V536.845L407.584 539.456L410.898 542.085V543.844L406.547 540.326L401.899 544.066V542.289L405.473 539.437L401.899 536.623V534.845ZM398.566 545.351H410.898V546.814H409.287C409.843 547.085 410.275 547.487 410.584 548.017C410.905 548.561 411.065 549.19 411.065 549.906C411.065 550.709 410.874 551.406 410.491 551.999C410.121 552.603 409.584 553.066 408.88 553.387C408.189 553.721 407.362 553.887 406.399 553.887C405.448 553.887 404.621 553.721 403.918 553.387C403.226 553.066 402.689 552.603 402.307 551.999C401.924 551.406 401.733 550.709 401.733 549.906C401.733 549.215 401.887 548.598 402.196 548.055C402.504 547.511 402.93 547.11 403.473 546.851H398.566V545.351ZM402.936 549.591C402.936 550.431 403.233 551.104 403.825 551.61C404.43 552.116 405.288 552.369 406.399 552.369C407.522 552.369 408.38 552.116 408.973 551.61C409.565 551.104 409.861 550.431 409.861 549.591C409.861 548.752 409.565 548.079 408.973 547.573C408.38 547.067 407.522 546.814 406.399 546.814C405.288 546.814 404.43 547.067 403.825 547.573C403.233 548.079 402.936 548.752 402.936 549.591ZM401.733 559.831C401.733 558.412 402.146 557.288 402.973 556.461C403.813 555.634 404.948 555.221 406.38 555.221C407.306 555.221 408.121 555.406 408.825 555.776C409.541 556.146 410.09 556.652 410.473 557.294C410.868 557.949 411.065 558.702 411.065 559.553C411.065 560.775 410.67 561.732 409.88 562.423C409.102 563.115 408.028 563.46 406.658 563.46H406.084V556.683C405.06 556.733 404.276 557.029 403.733 557.572C403.202 558.115 402.936 558.868 402.936 559.831C402.936 560.374 403.017 560.893 403.177 561.387C403.35 561.88 403.628 562.349 404.01 562.794L402.955 563.312C402.572 562.905 402.27 562.386 402.048 561.757C401.838 561.127 401.733 560.485 401.733 559.831ZM409.954 559.59C409.954 558.739 409.689 558.066 409.158 557.572C408.627 557.078 407.93 556.788 407.066 556.702V562.164C407.979 562.127 408.689 561.886 409.195 561.442C409.701 561.01 409.954 560.393 409.954 559.59ZM401.899 565.261H410.898V566.723H409.362C409.929 567.02 410.355 567.439 410.639 567.983C410.923 568.526 411.065 569.137 411.065 569.816C411.065 571.951 409.88 573.019 407.51 573.019H401.899V571.519H407.417C408.257 571.519 408.868 571.353 409.25 571.019C409.645 570.698 409.843 570.18 409.843 569.464C409.843 568.637 409.584 567.976 409.065 567.483C408.559 567.001 407.88 566.76 407.028 566.76H401.899V565.261ZM401.733 578.451C401.733 577.747 401.832 577.081 402.029 576.451C402.227 575.822 402.504 575.303 402.862 574.896L403.918 575.377C403.56 575.822 403.294 576.309 403.122 576.84C402.961 577.383 402.881 577.933 402.881 578.488C402.881 579.192 403.01 579.723 403.27 580.08C403.529 580.438 403.881 580.617 404.325 580.617C404.671 580.617 404.942 580.5 405.14 580.266C405.35 580.031 405.51 579.661 405.621 579.155L405.992 577.47C406.325 575.939 407.115 575.174 408.362 575.174C409.176 575.174 409.831 575.495 410.324 576.136C410.818 576.791 411.065 577.642 411.065 578.692C411.065 579.309 410.966 579.895 410.769 580.451C410.584 581.019 410.306 581.488 409.936 581.858L408.88 581.358C409.213 581 409.466 580.58 409.639 580.099C409.824 579.63 409.917 579.161 409.917 578.692C409.917 578 409.781 577.476 409.51 577.118C409.238 576.76 408.88 576.581 408.436 576.581C407.744 576.581 407.3 577.038 407.103 577.951L406.751 579.636C406.578 580.426 406.3 581.025 405.917 581.432C405.547 581.84 405.041 582.043 404.399 582.043C403.572 582.043 402.918 581.716 402.436 581.062C401.967 580.408 401.733 579.537 401.733 578.451ZM401.733 588.014C401.733 586.594 402.146 585.471 402.973 584.644C403.813 583.817 404.948 583.403 406.38 583.403C407.306 583.403 408.121 583.588 408.825 583.959C409.541 584.329 410.09 584.835 410.473 585.477C410.868 586.131 411.065 586.884 411.065 587.736C411.065 588.958 410.67 589.915 409.88 590.606C409.102 591.297 408.028 591.643 406.658 591.643H406.084V584.866C405.06 584.915 404.276 585.212 403.733 585.755C403.202 586.298 402.936 587.051 402.936 588.014C402.936 588.557 403.017 589.075 403.177 589.569C403.35 590.063 403.628 590.532 404.01 590.976L402.955 591.495C402.572 591.088 402.27 590.569 402.048 589.939C401.838 589.31 401.733 588.668 401.733 588.014ZM409.954 587.773C409.954 586.921 409.689 586.249 409.158 585.755C408.627 585.261 407.93 584.971 407.066 584.885V590.347C407.979 590.31 408.689 590.069 409.195 589.625C409.701 589.193 409.954 588.575 409.954 587.773ZM401.899 598.069H414.954V599.347L405.529 604.365L414.954 609.346V610.624H401.899V609.216H412.102L403.918 604.865V603.865L412.083 599.458H401.899V598.069ZM401.733 616.132C401.733 615.514 401.85 614.959 402.085 614.465C402.331 613.984 402.665 613.601 403.084 613.317C403.504 613.033 403.973 612.891 404.492 612.891C405.146 612.891 405.664 613.058 406.047 613.391C406.43 613.737 406.701 614.298 406.862 615.076C407.035 615.866 407.121 616.94 407.121 618.298V618.891H407.695C408.46 618.891 409.01 618.73 409.343 618.409C409.689 618.101 409.861 617.601 409.861 616.909C409.861 616.366 409.781 615.842 409.621 615.335C409.473 614.829 409.226 614.311 408.88 613.78L409.973 613.262C410.306 613.731 410.571 614.298 410.769 614.965C410.966 615.644 411.065 616.292 411.065 616.909C411.065 618.07 410.781 618.928 410.213 619.483C409.645 620.051 408.763 620.335 407.565 620.335H401.899V618.928H403.455C402.924 618.693 402.504 618.329 402.196 617.835C401.887 617.354 401.733 616.786 401.733 616.132ZM402.862 616.372C402.862 617.113 403.115 617.718 403.621 618.187C404.14 618.656 404.794 618.891 405.584 618.891H406.14V618.317C406.14 617.317 406.09 616.527 405.992 615.946C405.905 615.379 405.745 614.977 405.51 614.743C405.288 614.521 404.979 614.41 404.584 614.41C404.078 614.41 403.665 614.582 403.344 614.928C403.023 615.286 402.862 615.767 402.862 616.372ZM401.899 622.747H410.898V624.21H409.362C409.929 624.506 410.355 624.926 410.639 625.469C410.923 626.012 411.065 626.623 411.065 627.302C411.065 629.438 409.88 630.505 407.51 630.505H401.899V629.006H407.417C408.257 629.006 408.868 628.839 409.25 628.506C409.645 628.185 409.843 627.666 409.843 626.95C409.843 626.123 409.584 625.463 409.065 624.969C408.559 624.488 407.88 624.247 407.028 624.247H401.899V622.747ZM401.733 635.734C401.733 635.117 401.85 634.561 402.085 634.067C402.331 633.586 402.665 633.203 403.084 632.919C403.504 632.635 403.973 632.493 404.492 632.493C405.146 632.493 405.664 632.66 406.047 632.993C406.43 633.339 406.701 633.901 406.862 634.678C407.035 635.468 407.121 636.542 407.121 637.9V638.493H407.695C408.46 638.493 409.01 638.332 409.343 638.011C409.689 637.703 409.861 637.203 409.861 636.511C409.861 635.968 409.781 635.444 409.621 634.938C409.473 634.431 409.226 633.913 408.88 633.382L409.973 632.864C410.306 633.333 410.571 633.901 410.769 634.567C410.966 635.246 411.065 635.894 411.065 636.511C411.065 637.672 410.781 638.53 410.213 639.085C409.645 639.653 408.763 639.937 407.565 639.937H401.899V638.53H403.455C402.924 638.295 402.504 637.931 402.196 637.437C401.887 636.956 401.733 636.388 401.733 635.734ZM402.862 635.974C402.862 636.715 403.115 637.32 403.621 637.789C404.14 638.258 404.794 638.493 405.584 638.493H406.14V637.919C406.14 636.919 406.09 636.129 405.992 635.549C405.905 634.981 405.745 634.58 405.51 634.345C405.288 634.123 404.979 634.012 404.584 634.012C404.078 634.012 403.665 634.185 403.344 634.53C403.023 634.888 402.862 635.37 402.862 635.974ZM398.4 646.33C398.4 645.553 398.505 644.818 398.715 644.127C398.912 643.448 399.215 642.843 399.622 642.312L400.714 642.812C400.319 643.368 400.035 643.917 399.863 644.46C399.69 645.016 399.603 645.614 399.603 646.256C399.603 648.034 400.517 648.923 402.344 648.923H403.936C403.368 648.663 402.918 648.256 402.585 647.7C402.264 647.157 402.103 646.534 402.103 645.83C402.103 645.003 402.294 644.287 402.677 643.682C403.06 643.078 403.584 642.608 404.251 642.275C404.93 641.954 405.714 641.794 406.603 641.794C407.491 641.794 408.269 641.954 408.936 642.275C409.615 642.608 410.139 643.078 410.51 643.682C410.88 644.287 411.065 645.003 411.065 645.83C411.065 646.534 410.905 647.157 410.584 647.7C410.263 648.256 409.824 648.663 409.269 648.923H410.898V650.385H402.547C401.165 650.385 400.128 650.04 399.437 649.348C398.745 648.67 398.4 647.663 398.4 646.33ZM403.325 646.108C403.325 646.972 403.621 647.657 404.214 648.163C404.807 648.67 405.603 648.923 406.603 648.923C407.602 648.923 408.393 648.67 408.973 648.163C409.565 647.657 409.861 646.972 409.861 646.108C409.861 645.256 409.565 644.577 408.973 644.071C408.393 643.565 407.602 643.312 406.603 643.312C405.603 643.312 404.807 643.565 404.214 644.071C403.621 644.577 403.325 645.256 403.325 646.108ZM401.733 656.883C401.733 655.464 402.146 654.341 402.973 653.513C403.813 652.686 404.948 652.273 406.38 652.273C407.306 652.273 408.121 652.458 408.825 652.828C409.541 653.199 410.09 653.705 410.473 654.347C410.868 655.001 411.065 655.754 411.065 656.606C411.065 657.828 410.67 658.785 409.88 659.476C409.102 660.167 408.028 660.513 406.658 660.513H406.084V653.736C405.06 653.785 404.276 654.081 403.733 654.624C403.202 655.168 402.936 655.921 402.936 656.883C402.936 657.427 403.017 657.945 403.177 658.439C403.35 658.933 403.628 659.402 404.01 659.846L402.955 660.365C402.572 659.957 402.27 659.439 402.048 658.809C401.838 658.18 401.733 657.538 401.733 656.883ZM409.954 656.643C409.954 655.791 409.689 655.118 409.158 654.624C408.627 654.131 407.93 653.841 407.066 653.754V659.217C407.979 659.18 408.689 658.939 409.195 658.494C409.701 658.062 409.954 657.445 409.954 656.643ZM401.899 662.35H410.898V663.813H409.38C409.923 664.084 410.337 664.461 410.621 664.942C410.917 665.424 411.065 665.985 411.065 666.627C411.065 668.035 410.454 668.936 409.232 669.331C409.8 669.602 410.244 670.004 410.565 670.534C410.898 671.065 411.065 671.676 411.065 672.367C411.065 674.367 409.88 675.367 407.51 675.367H401.899V673.867H407.436C408.263 673.867 408.868 673.719 409.25 673.423C409.645 673.139 409.843 672.664 409.843 671.997C409.843 671.269 409.584 670.689 409.065 670.257C408.547 669.825 407.856 669.609 406.991 669.609H401.899V668.109H407.436C408.263 668.109 408.868 667.961 409.25 667.664C409.645 667.38 409.843 666.905 409.843 666.239C409.843 665.498 409.584 664.911 409.065 664.479C408.547 664.06 407.856 663.85 406.991 663.85H401.899V662.35ZM401.733 681.856C401.733 680.437 402.146 679.313 402.973 678.486C403.813 677.659 404.948 677.246 406.38 677.246C407.306 677.246 408.121 677.431 408.825 677.801C409.541 678.171 410.09 678.677 410.473 679.319C410.868 679.974 411.065 680.727 411.065 681.578C411.065 682.8 410.67 683.757 409.88 684.448C409.102 685.14 408.028 685.485 406.658 685.485H406.084V678.708C405.06 678.758 404.276 679.054 403.733 679.597C403.202 680.14 402.936 680.893 402.936 681.856C402.936 682.399 403.017 682.918 403.177 683.412C403.35 683.905 403.628 684.374 404.01 684.819L402.955 685.337C402.572 684.93 402.27 684.411 402.048 683.782C401.838 683.152 401.733 682.51 401.733 681.856ZM409.954 681.615C409.954 680.764 409.689 680.091 409.158 679.597C408.627 679.103 407.93 678.813 407.066 678.727V684.189C407.979 684.152 408.689 683.911 409.195 683.467C409.701 683.035 409.954 682.418 409.954 681.615ZM401.899 687.286H410.898V688.748H409.362C409.929 689.045 410.355 689.464 410.639 690.008C410.923 690.551 411.065 691.162 411.065 691.841C411.065 693.976 409.88 695.044 407.51 695.044H401.899V693.544H407.417C408.257 693.544 408.868 693.378 409.25 693.044C409.645 692.723 409.843 692.205 409.843 691.489C409.843 690.662 409.584 690.001 409.065 689.508C408.559 689.026 407.88 688.786 407.028 688.786H401.899V687.286ZM401.733 701.05C401.733 699.988 402.011 699.192 402.566 698.661C403.134 698.131 403.949 697.865 405.01 697.865H409.732V696.106H410.898V697.865H413.657V699.365H410.898V702.217H409.732V699.365H405.158C404.455 699.365 403.918 699.513 403.547 699.809C403.189 700.106 403.01 700.587 403.01 701.254C403.01 701.451 403.035 701.649 403.084 701.846C403.134 702.044 403.183 702.223 403.233 702.383L402.085 702.642C401.998 702.482 401.918 702.247 401.844 701.939C401.77 701.63 401.733 701.334 401.733 701.05Z" fill="#E0E2ED"/>
<path d="M508.369 524.542L521.423 530.301V531.597L508.369 537.355V535.781L511.702 534.337V527.542L508.369 526.116V524.542ZM519.646 530.93L512.98 528.097V533.8L519.646 530.967V530.93ZM508.202 542.441C508.202 541.539 508.394 540.762 508.777 540.108C509.172 539.453 509.721 538.947 510.424 538.589C511.14 538.244 511.974 538.071 512.924 538.071C514.356 538.071 515.479 538.46 516.294 539.237C517.121 540.015 517.535 541.083 517.535 542.441C517.535 542.996 517.436 543.545 517.239 544.089C517.041 544.632 516.763 545.082 516.405 545.44L515.313 544.922C515.658 544.564 515.912 544.169 516.072 543.737C516.232 543.317 516.313 542.916 516.313 542.533C516.313 541.595 516.016 540.873 515.424 540.367C514.844 539.861 514.004 539.608 512.906 539.608C511.832 539.608 510.98 539.861 510.35 540.367C509.733 540.873 509.425 541.595 509.425 542.533C509.425 542.916 509.505 543.317 509.665 543.737C509.826 544.169 510.085 544.564 510.443 544.922L509.351 545.44C508.993 545.082 508.709 544.626 508.499 544.07C508.301 543.527 508.202 542.984 508.202 542.441ZM508.202 550.461C508.202 549.559 508.394 548.782 508.777 548.128C509.172 547.473 509.721 546.967 510.424 546.609C511.14 546.264 511.974 546.091 512.924 546.091C514.356 546.091 515.479 546.48 516.294 547.257C517.121 548.035 517.535 549.103 517.535 550.461C517.535 551.016 517.436 551.565 517.239 552.109C517.041 552.652 516.763 553.102 516.405 553.46L515.313 552.942C515.658 552.584 515.912 552.189 516.072 551.757C516.232 551.337 516.313 550.936 516.313 550.553C516.313 549.615 516.016 548.893 515.424 548.387C514.844 547.881 514.004 547.628 512.906 547.628C511.832 547.628 510.98 547.881 510.35 548.387C509.733 548.893 509.425 549.615 509.425 550.553C509.425 550.936 509.505 551.337 509.665 551.757C509.826 552.189 510.085 552.584 510.443 552.942L509.351 553.46C508.993 553.102 508.709 552.646 508.499 552.09C508.301 551.547 508.202 551.004 508.202 550.461ZM508.202 558.406C508.202 557.53 508.394 556.771 508.777 556.129C509.159 555.487 509.696 554.987 510.387 554.629C511.091 554.283 511.918 554.111 512.869 554.111C513.819 554.111 514.64 554.283 515.331 554.629C516.035 554.987 516.578 555.487 516.961 556.129C517.343 556.771 517.535 557.53 517.535 558.406C517.535 559.271 517.343 560.024 516.961 560.665C516.578 561.32 516.035 561.82 515.331 562.165C514.64 562.523 513.819 562.702 512.869 562.702C511.918 562.702 511.091 562.523 510.387 562.165C509.696 561.82 509.159 561.32 508.777 560.665C508.394 560.024 508.202 559.271 508.202 558.406ZM509.406 558.406C509.406 559.246 509.702 559.919 510.295 560.425C510.9 560.931 511.758 561.184 512.869 561.184C513.992 561.184 514.85 560.931 515.442 560.425C516.035 559.919 516.331 559.246 516.331 558.406C516.331 557.555 516.035 556.876 515.442 556.37C514.85 555.876 513.992 555.629 512.869 555.629C511.758 555.629 510.9 555.876 510.295 556.37C509.702 556.876 509.406 557.555 509.406 558.406ZM508.202 567.77C508.202 565.609 509.394 564.529 511.776 564.529H517.368V566.029H511.795C510.992 566.029 510.4 566.19 510.017 566.51C509.634 566.844 509.443 567.362 509.443 568.066C509.443 568.831 509.696 569.455 510.202 569.936C510.721 570.417 511.406 570.658 512.258 570.658H517.368V572.158H508.369V570.695H509.887C509.344 570.411 508.925 570.01 508.628 569.492C508.344 568.985 508.202 568.411 508.202 567.77ZM508.369 574.594H517.368V576.057H515.831C516.399 576.353 516.825 576.773 517.109 577.316C517.393 577.859 517.535 578.47 517.535 579.149C517.535 581.284 516.35 582.352 513.98 582.352H508.369V580.852H513.887C514.726 580.852 515.338 580.686 515.72 580.352C516.115 580.031 516.313 579.513 516.313 578.797C516.313 577.97 516.053 577.31 515.535 576.816C515.029 576.334 514.35 576.094 513.498 576.094H508.369V574.594ZM508.202 588.358C508.202 587.297 508.48 586.5 509.036 585.97C509.604 585.439 510.418 585.173 511.48 585.173H516.202V583.414H517.368V585.173H520.127V586.673H517.368V589.525H516.202V586.673H511.628C510.924 586.673 510.387 586.821 510.017 587.118C509.659 587.414 509.48 587.895 509.48 588.562C509.48 588.759 509.505 588.957 509.554 589.154C509.604 589.352 509.653 589.531 509.702 589.691L508.554 589.951C508.468 589.79 508.388 589.556 508.314 589.247C508.24 588.938 508.202 588.642 508.202 588.358ZM519.609 590.665H521.294V592.517H519.609V590.665ZM508.369 590.851H517.368V592.35H508.369V590.851ZM508.369 594.784H517.368V596.247H515.831C516.399 596.543 516.825 596.963 517.109 597.506C517.393 598.049 517.535 598.66 517.535 599.339C517.535 601.475 516.35 602.542 513.98 602.542H508.369V601.043H513.887C514.726 601.043 515.338 600.876 515.72 600.543C516.115 600.222 516.313 599.703 516.313 598.987C516.313 598.16 516.053 597.5 515.535 597.006C515.029 596.525 514.35 596.284 513.498 596.284H508.369V594.784ZM504.87 608.919C504.87 608.141 504.974 607.406 505.184 606.715C505.382 606.036 505.684 605.431 506.092 604.901L507.184 605.401C506.789 605.956 506.505 606.505 506.332 607.049C506.16 607.604 506.073 608.203 506.073 608.845C506.073 610.622 506.987 611.511 508.814 611.511H510.406C509.838 611.252 509.388 610.844 509.054 610.289C508.733 609.746 508.573 609.122 508.573 608.419C508.573 607.592 508.764 606.876 509.147 606.271C509.53 605.666 510.054 605.197 510.721 604.864C511.4 604.543 512.184 604.382 513.072 604.382C513.961 604.382 514.739 604.543 515.405 604.864C516.084 605.197 516.609 605.666 516.979 606.271C517.35 606.876 517.535 607.592 517.535 608.419C517.535 609.122 517.374 609.746 517.053 610.289C516.732 610.844 516.294 611.252 515.739 611.511H517.368V612.974H509.017C507.635 612.974 506.598 612.628 505.906 611.937C505.215 611.258 504.87 610.252 504.87 608.919ZM509.795 608.696C509.795 609.561 510.091 610.246 510.684 610.752C511.276 611.258 512.072 611.511 513.072 611.511C514.072 611.511 514.862 611.258 515.442 610.752C516.035 610.246 516.331 609.561 516.331 608.696C516.331 607.845 516.035 607.166 515.442 606.66C514.862 606.154 514.072 605.9 513.072 605.9C512.072 605.9 511.276 606.154 510.684 606.66C510.091 607.166 509.795 607.845 509.795 608.696ZM508.202 624.228C508.202 623.203 508.332 622.277 508.591 621.45C508.863 620.623 509.252 619.907 509.758 619.302L510.98 619.839C510.499 620.469 510.141 621.129 509.906 621.82C509.671 622.512 509.554 623.314 509.554 624.228C509.554 625.339 509.758 626.159 510.165 626.69C510.585 627.233 511.134 627.505 511.813 627.505C512.356 627.505 512.788 627.308 513.109 626.912C513.43 626.53 513.683 625.882 513.869 624.968L514.257 623.043C514.504 621.882 514.905 621.012 515.461 620.432C516.029 619.864 516.782 619.58 517.72 619.58C518.498 619.58 519.177 619.777 519.757 620.172C520.337 620.58 520.788 621.142 521.108 621.857C521.429 622.573 521.59 623.401 521.59 624.339C521.59 625.215 521.448 626.03 521.164 626.783C520.892 627.536 520.497 628.172 519.979 628.69L518.794 628.153C519.3 627.598 519.664 627.011 519.886 626.394C520.121 625.777 520.238 625.086 520.238 624.32C520.238 623.345 520.01 622.567 519.553 621.987C519.109 621.407 518.516 621.117 517.776 621.117C517.183 621.117 516.714 621.296 516.368 621.654C516.023 622.024 515.77 622.623 515.609 623.45L515.202 625.376C514.942 626.622 514.547 627.542 514.017 628.135C513.498 628.739 512.788 629.042 511.887 629.042C511.159 629.042 510.517 628.844 509.962 628.449C509.406 628.067 508.974 627.511 508.665 626.783C508.357 626.067 508.202 625.215 508.202 624.228ZM508.202 634.564C508.202 633.688 508.394 632.929 508.777 632.287C509.159 631.645 509.696 631.145 510.387 630.787C511.091 630.441 511.918 630.268 512.869 630.268C513.819 630.268 514.64 630.441 515.331 630.787C516.035 631.145 516.578 631.645 516.961 632.287C517.343 632.929 517.535 633.688 517.535 634.564C517.535 635.428 517.343 636.181 516.961 636.823C516.578 637.477 516.035 637.977 515.331 638.323C514.64 638.681 513.819 638.86 512.869 638.86C511.918 638.86 511.091 638.681 510.387 638.323C509.696 637.977 509.159 637.477 508.777 636.823C508.394 636.181 508.202 635.428 508.202 634.564ZM509.406 634.564C509.406 635.404 509.702 636.076 510.295 636.582C510.9 637.089 511.758 637.342 512.869 637.342C513.992 637.342 514.85 637.089 515.442 636.582C516.035 636.076 516.331 635.404 516.331 634.564C516.331 633.712 516.035 633.033 515.442 632.527C514.85 632.034 513.992 631.787 512.869 631.787C511.758 631.787 510.9 632.034 510.295 632.527C509.702 633.033 509.406 633.712 509.406 634.564ZM508.202 643.501C508.202 642.588 508.468 641.897 508.999 641.428C509.542 640.971 510.326 640.742 511.35 640.742H521.423V642.242H511.461C510.141 642.242 509.48 642.767 509.48 643.816C509.48 644.125 509.517 644.403 509.591 644.649L508.332 644.612C508.246 644.23 508.202 643.859 508.202 643.501ZM508.202 649.036C508.202 646.876 509.394 645.796 511.776 645.796H517.368V647.295H511.795C510.992 647.295 510.4 647.456 510.017 647.777C509.634 648.11 509.443 648.629 509.443 649.332C509.443 650.098 509.696 650.721 510.202 651.202C510.721 651.684 511.406 651.924 512.258 651.924H517.368V653.424H508.369V651.962H509.887C509.344 651.678 508.925 651.276 508.628 650.758C508.344 650.252 508.202 649.678 508.202 649.036ZM508.202 659.471C508.202 658.409 508.48 657.613 509.036 657.082C509.604 656.551 510.418 656.286 511.48 656.286H516.202V654.527H517.368V656.286H520.127V657.786H517.368V660.637H516.202V657.786H511.628C510.924 657.786 510.387 657.934 510.017 658.23C509.659 658.526 509.48 659.008 509.48 659.674C509.48 659.872 509.505 660.07 509.554 660.267C509.604 660.465 509.653 660.644 509.702 660.804L508.554 661.063C508.468 660.903 508.388 660.668 508.314 660.36C508.24 660.051 508.202 659.755 508.202 659.471ZM519.609 661.778H521.294V663.63H519.609V661.778ZM508.369 661.963H517.368V663.463H508.369V661.963ZM508.202 669.637C508.202 668.76 508.394 668.001 508.777 667.359C509.159 666.718 509.696 666.218 510.387 665.86C511.091 665.514 511.918 665.341 512.869 665.341C513.819 665.341 514.64 665.514 515.331 665.86C516.035 666.218 516.578 666.718 516.961 667.359C517.343 668.001 517.535 668.76 517.535 669.637C517.535 670.501 517.343 671.254 516.961 671.896C516.578 672.55 516.035 673.05 515.331 673.396C514.64 673.754 513.819 673.933 512.869 673.933C511.918 673.933 511.091 673.754 510.387 673.396C509.696 673.05 509.159 672.55 508.777 671.896C508.394 671.254 508.202 670.501 508.202 669.637ZM509.406 669.637C509.406 670.476 509.702 671.149 510.295 671.655C510.9 672.161 511.758 672.414 512.869 672.414C513.992 672.414 514.85 672.161 515.442 671.655C516.035 671.149 516.331 670.476 516.331 669.637C516.331 668.785 516.035 668.106 515.442 667.6C514.85 667.106 513.992 666.859 512.869 666.859C511.758 666.859 510.9 667.106 510.295 667.6C509.702 668.106 509.406 668.785 509.406 669.637ZM508.369 675.815H517.368V677.278H515.831C516.399 677.574 516.825 677.994 517.109 678.537C517.393 679.08 517.535 679.691 517.535 680.37C517.535 682.506 516.35 683.574 513.98 683.574H508.369V682.074H513.887C514.726 682.074 515.338 681.907 515.72 681.574C516.115 681.253 516.313 680.734 516.313 680.018C516.313 679.191 516.053 678.531 515.535 678.037C515.029 677.556 514.35 677.315 513.498 677.315H508.369V675.815ZM508.202 689.006C508.202 688.302 508.301 687.635 508.499 687.006C508.696 686.376 508.974 685.858 509.332 685.45L510.387 685.932C510.029 686.376 509.764 686.864 509.591 687.395C509.431 687.938 509.351 688.487 509.351 689.043C509.351 689.746 509.48 690.277 509.739 690.635C509.999 690.993 510.35 691.172 510.795 691.172C511.14 691.172 511.412 691.055 511.61 690.82C511.819 690.586 511.98 690.215 512.091 689.709L512.461 688.024C512.795 686.494 513.585 685.728 514.831 685.728C515.646 685.728 516.3 686.049 516.794 686.691C517.288 687.345 517.535 688.197 517.535 689.246C517.535 689.864 517.436 690.45 517.239 691.005C517.053 691.573 516.776 692.042 516.405 692.413L515.35 691.913C515.683 691.555 515.936 691.135 516.109 690.654C516.294 690.184 516.387 689.715 516.387 689.246C516.387 688.555 516.251 688.03 515.979 687.672C515.708 687.314 515.35 687.135 514.905 687.135C514.214 687.135 513.77 687.592 513.572 688.506L513.22 690.191C513.048 690.981 512.77 691.579 512.387 691.987C512.017 692.394 511.511 692.598 510.869 692.598C510.042 692.598 509.388 692.271 508.906 691.616C508.437 690.962 508.202 690.092 508.202 689.006Z" fill="#E0E2ED"/>
<g clip-path="url(#clip0_1734_1856)">
<rect x="175.47" y="243" width="64.8077" height="248.429" rx="12.3443" fill="#2540CE"/>
<rect x="213.507" y="279.97" width="57.0925" height="57.0925" rx="3.08608" transform="rotate(10.4194 213.507 279.97)" fill="#1532CB"/>
<rect x="195.053" y="391.132" width="57.0925" height="57.0925" rx="3.08608" transform="rotate(10.4194 195.053 391.132)" fill="#1532CB"/>
<rect x="131.788" y="435.88" width="57.0925" height="57.0925" rx="3.08608" transform="rotate(10.4194 131.788 435.88)" fill="#1532CB"/>
<rect x="148.762" y="324.781" width="57.0925" height="57.0925" rx="3.08608" transform="rotate(10.4194 148.762 324.781)" fill="#1532CB"/>
</g>
<path d="M197.896 218.16C197.16 218.16 196.445 218.048 195.752 217.824C195.059 217.589 194.493 217.275 194.056 216.88L194.728 215.312C195.699 216.059 196.744 216.432 197.864 216.432C198.536 216.432 199.059 216.261 199.432 215.92C199.816 215.568 200.008 215.099 200.008 214.512C200.008 213.915 199.827 213.435 199.464 213.072C199.101 212.699 198.605 212.512 197.976 212.512C197.08 212.512 196.339 212.869 195.752 213.584H194.376V206.72H201.304V208.416H196.376V211.472C196.941 211.045 197.635 210.832 198.456 210.832C199.171 210.832 199.789 210.987 200.312 211.296C200.845 211.595 201.256 212.016 201.544 212.56C201.843 213.093 201.992 213.717 201.992 214.432C201.992 215.168 201.827 215.819 201.496 216.384C201.165 216.939 200.691 217.376 200.072 217.696C199.464 218.005 198.739 218.16 197.896 218.16ZM207.394 218.16C206.06 218.16 205.042 217.659 204.338 216.656C203.634 215.643 203.282 214.203 203.282 212.336C203.282 210.448 203.634 209.013 204.338 208.032C205.042 207.051 206.06 206.56 207.394 206.56C208.738 206.56 209.756 207.051 210.45 208.032C211.154 209.013 211.506 210.443 211.506 212.32C211.506 214.197 211.154 215.643 210.45 216.656C209.746 217.659 208.727 218.16 207.394 218.16ZM207.394 216.48C208.119 216.48 208.652 216.149 208.994 215.488C209.346 214.816 209.522 213.76 209.522 212.32C209.522 210.891 209.346 209.856 208.994 209.216C208.652 208.565 208.119 208.24 207.394 208.24C206.679 208.24 206.146 208.565 205.794 209.216C205.442 209.856 205.266 210.891 205.266 212.32C205.266 213.76 205.442 214.816 205.794 215.488C206.146 216.149 206.679 216.48 207.394 216.48ZM216.988 218.16C215.654 218.16 214.636 217.659 213.932 216.656C213.228 215.643 212.876 214.203 212.876 212.336C212.876 210.448 213.228 209.013 213.932 208.032C214.636 207.051 215.654 206.56 216.988 206.56C218.332 206.56 219.35 207.051 220.044 208.032C220.748 209.013 221.1 210.443 221.1 212.32C221.1 214.197 220.748 215.643 220.044 216.656C219.34 217.659 218.321 218.16 216.988 218.16ZM216.988 216.48C217.713 216.48 218.246 216.149 218.588 215.488C218.94 214.816 219.116 213.76 219.116 212.32C219.116 210.891 218.94 209.856 218.588 209.216C218.246 208.565 217.713 208.24 216.988 208.24C216.273 208.24 215.74 208.565 215.388 209.216C215.036 209.856 214.86 210.891 214.86 212.32C214.86 213.76 215.036 214.816 215.388 215.488C215.74 216.149 216.273 216.48 216.988 216.48Z" fill="white"/>
<path d="M293.28 338V336.48L296.928 332.592C297.419 332.059 297.771 331.589 297.984 331.184C298.197 330.768 298.304 330.347 298.304 329.92C298.304 328.832 297.648 328.288 296.336 328.288C295.312 328.288 294.368 328.672 293.504 329.44L292.816 327.904C293.264 327.499 293.824 327.173 294.496 326.928C295.168 326.683 295.867 326.56 296.592 326.56C297.797 326.56 298.72 326.832 299.36 327.376C300.011 327.92 300.336 328.699 300.336 329.712C300.336 330.395 300.171 331.051 299.84 331.68C299.52 332.309 299.013 332.987 298.32 333.712L295.84 336.304H300.768V338H293.28ZM306.394 338.16C305.06 338.16 304.042 337.659 303.338 336.656C302.634 335.643 302.282 334.203 302.282 332.336C302.282 330.448 302.634 329.013 303.338 328.032C304.042 327.051 305.06 326.56 306.394 326.56C307.738 326.56 308.756 327.051 309.45 328.032C310.154 329.013 310.506 330.443 310.506 332.32C310.506 334.197 310.154 335.643 309.45 336.656C308.746 337.659 307.727 338.16 306.394 338.16ZM306.394 336.48C307.119 336.48 307.652 336.149 307.994 335.488C308.346 334.816 308.522 333.76 308.522 332.32C308.522 330.891 308.346 329.856 307.994 329.216C307.652 328.565 307.119 328.24 306.394 328.24C305.679 328.24 305.146 328.565 304.794 329.216C304.442 329.856 304.266 330.891 304.266 332.32C304.266 333.76 304.442 334.816 304.794 335.488C305.146 336.149 305.679 336.48 306.394 336.48ZM315.988 338.16C314.654 338.16 313.636 337.659 312.932 336.656C312.228 335.643 311.876 334.203 311.876 332.336C311.876 330.448 312.228 329.013 312.932 328.032C313.636 327.051 314.654 326.56 315.988 326.56C317.332 326.56 318.35 327.051 319.044 328.032C319.748 329.013 320.1 330.443 320.1 332.32C320.1 334.197 319.748 335.643 319.044 336.656C318.34 337.659 317.321 338.16 315.988 338.16ZM315.988 336.48C316.713 336.48 317.246 336.149 317.588 335.488C317.94 334.816 318.116 333.76 318.116 332.32C318.116 330.891 317.94 329.856 317.588 329.216C317.246 328.565 316.713 328.24 315.988 328.24C315.273 328.24 314.74 328.565 314.388 329.216C314.036 329.856 313.86 330.891 313.86 332.32C313.86 333.76 314.036 334.816 314.388 335.488C314.74 336.149 315.273 336.48 315.988 336.48Z" fill="white"/>
<path d="M398.576 274.16C397.808 274.16 397.072 274.048 396.368 273.824C395.675 273.589 395.099 273.275 394.64 272.88L395.312 271.312C396.272 272.059 397.339 272.432 398.512 272.432C399.952 272.432 400.672 271.867 400.672 270.736C400.672 270.203 400.491 269.808 400.128 269.552C399.776 269.285 399.259 269.152 398.576 269.152H396.768V267.456H398.384C398.981 267.456 399.456 267.312 399.808 267.024C400.16 266.725 400.336 266.315 400.336 265.792C400.336 265.301 400.171 264.928 399.84 264.672C399.52 264.416 399.051 264.288 398.432 264.288C397.323 264.288 396.347 264.672 395.504 265.44L394.832 263.904C395.28 263.477 395.84 263.147 396.512 262.912C397.184 262.677 397.883 262.56 398.608 262.56C399.781 262.56 400.693 262.827 401.344 263.36C401.995 263.883 402.32 264.613 402.32 265.552C402.32 266.16 402.165 266.693 401.856 267.152C401.547 267.611 401.125 267.941 400.592 268.144C401.243 268.325 401.749 268.661 402.112 269.152C402.475 269.632 402.656 270.219 402.656 270.912C402.656 271.915 402.293 272.709 401.568 273.296C400.843 273.872 399.845 274.16 398.576 274.16ZM405.338 274V272.304H407.882V265.056L405.914 266.24L405.114 264.736L408.474 262.72H409.93V272.304H412.314V274H405.338ZM417.988 274.16C416.654 274.16 415.636 273.659 414.932 272.656C414.228 271.643 413.876 270.203 413.876 268.336C413.876 266.448 414.228 265.013 414.932 264.032C415.636 263.051 416.654 262.56 417.988 262.56C419.332 262.56 420.35 263.051 421.044 264.032C421.748 265.013 422.1 266.443 422.1 268.32C422.1 270.197 421.748 271.643 421.044 272.656C420.34 273.659 419.321 274.16 417.988 274.16ZM417.988 272.48C418.713 272.48 419.246 272.149 419.588 271.488C419.94 270.816 420.116 269.76 420.116 268.32C420.116 266.891 419.94 265.856 419.588 265.216C419.246 264.565 418.713 264.24 417.988 264.24C417.273 264.24 416.74 264.565 416.388 265.216C416.036 265.856 415.86 266.891 415.86 268.32C415.86 269.76 416.036 270.816 416.388 271.488C416.74 272.149 417.273 272.48 417.988 272.48Z" fill="white"/>
<path d="M500.744 362V360.304H503.288V353.056L501.32 354.24L500.52 352.736L503.88 350.72H505.336V360.304H507.72V362H500.744ZM513.394 362.16C512.06 362.16 511.042 361.659 510.338 360.656C509.634 359.643 509.282 358.203 509.282 356.336C509.282 354.448 509.634 353.013 510.338 352.032C511.042 351.051 512.06 350.56 513.394 350.56C514.738 350.56 515.756 351.051 516.45 352.032C517.154 353.013 517.506 354.443 517.506 356.32C517.506 358.197 517.154 359.643 516.45 360.656C515.746 361.659 514.727 362.16 513.394 362.16ZM513.394 360.48C514.119 360.48 514.652 360.149 514.994 359.488C515.346 358.816 515.522 357.76 515.522 356.32C515.522 354.891 515.346 353.856 514.994 353.216C514.652 352.565 514.119 352.24 513.394 352.24C512.679 352.24 512.146 352.565 511.794 353.216C511.442 353.856 511.266 354.891 511.266 356.32C511.266 357.76 511.442 358.816 511.794 359.488C512.146 360.149 512.679 360.48 513.394 360.48ZM522.988 362.16C521.654 362.16 520.636 361.659 519.932 360.656C519.228 359.643 518.876 358.203 518.876 356.336C518.876 354.448 519.228 353.013 519.932 352.032C520.636 351.051 521.654 350.56 522.988 350.56C524.332 350.56 525.35 351.051 526.044 352.032C526.748 353.013 527.1 354.443 527.1 356.32C527.1 358.197 526.748 359.643 526.044 360.656C525.34 361.659 524.321 362.16 522.988 362.16ZM522.988 360.48C523.713 360.48 524.246 360.149 524.588 359.488C524.94 358.816 525.116 357.76 525.116 356.32C525.116 354.891 524.94 353.856 524.588 353.216C524.246 352.565 523.713 352.24 522.988 352.24C522.273 352.24 521.74 352.565 521.388 353.216C521.036 353.856 520.86 354.891 520.86 356.32C520.86 357.76 521.036 358.816 521.388 359.488C521.74 360.149 522.273 360.48 522.988 360.48Z" fill="white"/>
<path d="M87.28 290V288.48L90.928 284.592C91.4187 284.059 91.7707 283.589 91.984 283.184C92.1973 282.768 92.304 282.347 92.304 281.92C92.304 280.832 91.648 280.288 90.336 280.288C89.312 280.288 88.368 280.672 87.504 281.44L86.816 279.904C87.264 279.499 87.824 279.173 88.496 278.928C89.168 278.683 89.8667 278.56 90.592 278.56C91.7973 278.56 92.72 278.832 93.36 279.376C94.0107 279.92 94.336 280.699 94.336 281.712C94.336 282.395 94.1707 283.051 93.84 283.68C93.52 284.309 93.0133 284.987 92.32 285.712L89.84 288.304H94.768V290H87.28ZM100.394 290.16C99.0818 290.16 98.0524 289.877 97.3058 289.312C96.5698 288.747 96.2018 287.963 96.2018 286.96C96.2018 286.277 96.3778 285.696 96.7298 285.216C97.0924 284.736 97.5618 284.4 98.1378 284.208C97.6258 283.984 97.2204 283.643 96.9218 283.184C96.6338 282.725 96.4898 282.197 96.4898 281.6C96.4898 280.651 96.8418 279.909 97.5458 279.376C98.2498 278.832 99.1991 278.56 100.394 278.56C101.599 278.56 102.554 278.832 103.258 279.376C103.962 279.909 104.314 280.651 104.314 281.6C104.314 282.197 104.164 282.731 103.866 283.2C103.578 283.659 103.183 283.995 102.682 284.208C103.258 284.4 103.716 284.741 104.058 285.232C104.41 285.712 104.586 286.288 104.586 286.96C104.586 287.963 104.212 288.747 103.466 289.312C102.73 289.877 101.706 290.16 100.394 290.16ZM100.394 283.488C101.023 283.488 101.514 283.339 101.866 283.04C102.228 282.741 102.41 282.331 102.41 281.808C102.41 281.296 102.228 280.896 101.866 280.608C101.514 280.309 101.023 280.16 100.394 280.16C99.7644 280.16 99.2738 280.309 98.9218 280.608C98.5698 280.896 98.3938 281.296 98.3938 281.808C98.3938 282.331 98.5698 282.741 98.9218 283.04C99.2738 283.339 99.7644 283.488 100.394 283.488ZM100.394 288.56C101.919 288.56 102.682 287.979 102.682 286.816C102.682 285.664 101.919 285.088 100.394 285.088C99.6471 285.088 99.0764 285.232 98.6818 285.52C98.2978 285.808 98.1058 286.24 98.1058 286.816C98.1058 287.392 98.2978 287.829 98.6818 288.128C99.0764 288.416 99.6471 288.56 100.394 288.56ZM109.988 290.16C108.654 290.16 107.636 289.659 106.932 288.656C106.228 287.643 105.876 286.203 105.876 284.336C105.876 282.448 106.228 281.013 106.932 280.032C107.636 279.051 108.654 278.56 109.988 278.56C111.332 278.56 112.35 279.051 113.044 280.032C113.748 281.013 114.1 282.443 114.1 284.32C114.1 286.197 113.748 287.643 113.044 288.656C112.34 289.659 111.321 290.16 109.988 290.16ZM109.988 288.48C110.713 288.48 111.246 288.149 111.588 287.488C111.94 286.816 112.116 285.76 112.116 284.32C112.116 282.891 111.94 281.856 111.588 281.216C111.246 280.565 110.713 280.24 109.988 280.24C109.273 280.24 108.74 280.565 108.388 281.216C108.036 281.856 107.86 282.891 107.86 284.32C107.86 285.76 108.036 286.816 108.388 287.488C108.74 288.149 109.273 288.48 109.988 288.48Z" fill="white"/>
<path d="M73 508H539" stroke="#E0E2ED" stroke-opacity="0.3" stroke-width="0.8"/>
<defs>
<clipPath id="clip0_1734_1856">
<rect x="175.47" y="243" width="64.8077" height="248.429" rx="12.3443" fill="white"/>
</clipPath>
</defs>
</svg>
