<svg width="686" height="393" viewBox="0 0 686 393" fill="none" xmlns="http://www.w3.org/2000/svg">
<g clip-path="url(#clip0_1740_1871)">
<rect width="686" height="393" rx="20" fill="#020304"/>
<path d="M686 186.756C676.2 186.756 676.2 215.787 666.4 215.787C656.6 215.787 657.008 203.604 646.8 203.604C636.592 203.604 637.408 239.375 627.2 239.375C616.992 239.375 618.625 225.015 607.6 225.015C596.575 225.015 599.433 259.904 588 259.904C576.567 259.904 578.2 208.529 568.4 208.529C558.6 208.529 559.417 246.011 548.8 246.011C538.183 246.011 539.817 235.746 529.2 235.746C518.583 235.746 520.217 261.407 509.6 261.407C498.983 261.407 500.208 273.849 490 273.849C479.792 273.849 480.608 245.855 470.4 245.855C460.192 245.855 461.417 275.301 450.8 275.301C440.183 275.301 442.633 257.519 431.2 257.519C419.767 257.519 421.808 237.716 411.6 237.716C401.392 237.716 402.617 282.922 392 282.922C381.383 282.922 383.017 218.379 372.4 218.379C361.783 218.379 363.008 256.949 352.8 256.949C342.592 256.949 344.633 280.019 333.2 280.019C321.767 280.019 324.625 266.021 313.6 266.021C302.575 266.021 305.433 294.534 294 294.534C282.567 294.534 285.425 283.544 274.4 283.544C263.375 283.544 265.417 266.903 254.8 266.903C244.183 266.903 245.817 326.676 235.2 326.676C224.583 326.676 227.033 312.057 215.6 312.057C204.167 312.057 205.8 334.919 196 334.919C186.2 334.919 187.425 318.589 176.4 318.589C165.375 318.589 167.008 365.765 156.8 365.765C146.592 365.765 148.633 351.56 137.2 351.56C125.767 351.56 128.625 341.244 117.6 341.244C106.575 341.244 108.617 372.867 98 372.867C87.3833 372.867 89.8333 379.503 78.4 379.503C66.9666 379.503 70.2333 362.032 58.8 362.032C47.3667 362.032 48.9999 352.701 39.1999 352.701C29.3999 352.701 29.4 383.028 19.6 383.028C9.79997 383.028 10.6166 372.348 -1.81198e-05 372.348" stroke="#1532CB" stroke-width="3.81111"/>
<path opacity="0.5" d="M40.904 63.168L40.76 61.512L42.2 61.416C43.016 61.352 43.64 61.072 44.072 60.576C44.504 60.064 44.72 59.368 44.72 58.488V46.08H46.688V58.512C46.688 59.904 46.328 60.992 45.608 61.776C44.888 62.544 43.84 62.976 42.464 63.072L40.904 63.168ZM54.7333 63.216C51.9333 63.216 50.5333 61.672 50.5333 58.584V51.336H52.4773V58.56C52.4773 59.6 52.6853 60.368 53.1013 60.864C53.5333 61.36 54.2053 61.608 55.1172 61.608C56.1093 61.608 56.9173 61.28 57.5413 60.624C58.1653 59.952 58.4773 59.064 58.4773 57.96V51.336H60.4213V63H58.5253V61.032C58.1573 61.736 57.6373 62.28 56.9653 62.664C56.3093 63.032 55.5653 63.216 54.7333 63.216ZM67.6344 63.216C66.4504 63.216 65.5544 62.872 64.9464 62.184C64.3544 61.48 64.0584 60.464 64.0584 59.136V46.08H66.0024V58.992C66.0024 60.704 66.6824 61.56 68.0424 61.56C68.4424 61.56 68.8024 61.512 69.1224 61.416L69.0744 63.048C68.5784 63.16 68.0984 63.216 67.6344 63.216ZM72.2461 67.32L74.2381 62.808L69.3181 51.336H71.4301L75.2941 60.792L79.1821 51.336H81.2221L74.2861 67.32H72.2461ZM90.5463 63V61.32H94.4103V48.456L91.3623 50.376L90.5223 48.912L94.9623 46.08H96.3783V61.32H100.002V63H90.5463ZM104.649 63L112.521 47.784H103.569V46.08H114.753V47.568L106.833 63H104.649Z" fill="#E0E2ED"/>
<path opacity="0.5" d="M48.56 179.216C47.232 179.216 46.032 179.048 44.96 178.712C43.888 178.36 42.96 177.856 42.176 177.2L42.872 175.616C43.688 176.24 44.544 176.704 45.44 177.008C46.336 177.312 47.376 177.464 48.56 177.464C50 177.464 51.064 177.2 51.752 176.672C52.456 176.128 52.808 175.416 52.808 174.536C52.808 173.832 52.552 173.272 52.04 172.856C51.544 172.44 50.704 172.112 49.52 171.872L47.024 171.368C45.52 171.048 44.392 170.528 43.64 169.808C42.904 169.072 42.536 168.096 42.536 166.88C42.536 165.872 42.792 164.992 43.304 164.24C43.832 163.488 44.56 162.904 45.488 162.488C46.416 162.072 47.488 161.864 48.704 161.864C49.84 161.864 50.896 162.048 51.872 162.416C52.848 162.768 53.672 163.28 54.344 163.952L53.648 165.488C52.928 164.832 52.168 164.36 51.368 164.072C50.568 163.768 49.672 163.616 48.68 163.616C47.416 163.616 46.408 163.912 45.656 164.504C44.904 165.08 44.528 165.848 44.528 166.808C44.528 167.576 44.76 168.184 45.224 168.632C45.704 169.08 46.48 169.408 47.552 169.616L50.048 170.144C51.664 170.48 52.856 170.992 53.624 171.68C54.408 172.352 54.8 173.272 54.8 174.44C54.8 175.384 54.544 176.216 54.032 176.936C53.536 177.656 52.816 178.216 51.872 178.616C50.944 179.016 49.84 179.216 48.56 179.216ZM61.2616 179.216C60.4616 179.216 59.7416 179.064 59.1016 178.76C58.4776 178.44 57.9816 178.008 57.6136 177.464C57.2456 176.92 57.0616 176.312 57.0616 175.64C57.0616 174.792 57.2776 174.12 57.7096 173.624C58.1576 173.128 58.8856 172.776 59.8936 172.568C60.9176 172.344 62.3096 172.232 64.0696 172.232H64.8376V171.488C64.8376 170.496 64.6296 169.784 64.2136 169.352C63.8136 168.904 63.1656 168.68 62.2696 168.68C61.5656 168.68 60.8856 168.784 60.2296 168.992C59.5736 169.184 58.9016 169.504 58.2136 169.952L57.5416 168.536C58.1496 168.104 58.8856 167.76 59.7496 167.504C60.6296 167.248 61.4696 167.12 62.2696 167.12C63.7736 167.12 64.8856 167.488 65.6056 168.224C66.3416 168.96 66.7096 170.104 66.7096 171.656V179H64.8856V176.984C64.5816 177.672 64.1096 178.216 63.4696 178.616C62.8456 179.016 62.1096 179.216 61.2616 179.216ZM61.5736 177.752C62.5336 177.752 63.3176 177.424 63.9256 176.768C64.5336 176.096 64.8376 175.248 64.8376 174.224V173.504H64.0936C62.7976 173.504 61.7736 173.568 61.0216 173.696C60.2856 173.808 59.7656 174.016 59.4616 174.32C59.1736 174.608 59.0296 175.008 59.0296 175.52C59.0296 176.176 59.2536 176.712 59.7016 177.128C60.1656 177.544 60.7896 177.752 61.5736 177.752ZM73.631 179L68.615 167.336H70.727L74.591 176.792L78.503 167.336H80.495L75.455 179H73.631ZM82.3106 164.432V162.248H84.7106V164.432H82.3106ZM82.5506 179V167.336H84.4946V179H82.5506ZM88.1287 179V167.336H90.0247V169.328C90.4087 168.592 90.9527 168.04 91.6567 167.672C92.3607 167.304 93.1527 167.12 94.0327 167.12C96.8007 167.12 98.1847 168.656 98.1847 171.728V179H96.2407V171.848C96.2407 170.76 96.0247 169.968 95.5927 169.472C95.1767 168.96 94.5047 168.704 93.5767 168.704C92.5047 168.704 91.6487 169.04 91.0087 169.712C90.3847 170.368 90.0727 171.248 90.0727 172.352V179H88.1287ZM106.929 183.536C105.921 183.536 104.969 183.4 104.073 183.128C103.193 182.872 102.409 182.48 101.721 181.952L102.369 180.536C103.089 181.048 103.801 181.416 104.505 181.64C105.225 181.864 106.001 181.976 106.833 181.976C109.137 181.976 110.289 180.792 110.289 178.424V176.36C109.953 177.096 109.425 177.68 108.705 178.112C108.001 178.528 107.193 178.736 106.281 178.736C105.209 178.736 104.281 178.488 103.497 177.992C102.713 177.496 102.105 176.816 101.673 175.952C101.257 175.072 101.049 174.056 101.049 172.904C101.049 171.752 101.257 170.744 101.673 169.88C102.105 169 102.713 168.32 103.497 167.84C104.281 167.36 105.209 167.12 106.281 167.12C107.193 167.12 108.001 167.328 108.705 167.744C109.425 168.16 109.953 168.728 110.289 169.448V167.336H112.185V178.16C112.185 179.952 111.737 181.296 110.841 182.192C109.961 183.088 108.657 183.536 106.929 183.536ZM106.641 177.152C107.761 177.152 108.649 176.768 109.305 176C109.961 175.232 110.289 174.2 110.289 172.904C110.289 171.608 109.961 170.584 109.305 169.832C108.649 169.064 107.761 168.68 106.641 168.68C105.537 168.68 104.657 169.064 104.001 169.832C103.345 170.584 103.017 171.608 103.017 172.904C103.017 174.2 103.345 175.232 104.001 176C104.657 176.768 105.537 177.152 106.641 177.152ZM119.768 179.216C118.856 179.216 117.992 179.088 117.176 178.832C116.36 178.576 115.688 178.216 115.16 177.752L115.784 176.384C116.36 176.848 116.992 177.192 117.68 177.416C118.384 177.624 119.096 177.728 119.816 177.728C120.728 177.728 121.416 177.56 121.88 177.224C122.344 176.888 122.576 176.432 122.576 175.856C122.576 175.408 122.424 175.056 122.12 174.8C121.816 174.528 121.336 174.32 120.68 174.176L118.496 173.696C116.512 173.264 115.52 172.24 115.52 170.624C115.52 169.568 115.936 168.72 116.768 168.08C117.616 167.44 118.72 167.12 120.08 167.12C120.88 167.12 121.64 167.248 122.36 167.504C123.096 167.744 123.704 168.104 124.184 168.584L123.536 169.952C123.072 169.52 122.528 169.192 121.904 168.968C121.296 168.728 120.688 168.608 120.08 168.608C119.184 168.608 118.504 168.784 118.04 169.136C117.576 169.488 117.344 169.952 117.344 170.528C117.344 171.424 117.936 172 119.12 172.256L121.304 172.712C122.328 172.936 123.104 173.296 123.632 173.792C124.16 174.272 124.424 174.928 124.424 175.76C124.424 176.832 124 177.68 123.152 178.304C122.304 178.912 121.176 179.216 119.768 179.216ZM139.455 179.216C138.527 179.216 137.711 179.008 137.007 178.592C136.319 178.176 135.799 177.608 135.447 176.888V179H133.551V162.08H135.495V169.352C135.831 168.664 136.351 168.12 137.055 167.72C137.759 167.32 138.559 167.12 139.455 167.12C140.495 167.12 141.399 167.368 142.167 167.864C142.951 168.344 143.551 169.04 143.967 169.952C144.399 170.848 144.615 171.92 144.615 173.168C144.615 174.4 144.399 175.472 143.967 176.384C143.551 177.28 142.951 177.976 142.167 178.472C141.399 178.968 140.495 179.216 139.455 179.216ZM139.047 177.656C140.135 177.656 141.007 177.272 141.663 176.504C142.319 175.72 142.647 174.608 142.647 173.168C142.647 171.712 142.319 170.6 141.663 169.832C141.007 169.064 140.135 168.68 139.047 168.68C137.959 168.68 137.087 169.064 136.431 169.832C135.775 170.6 135.447 171.712 135.447 173.168C135.447 174.608 135.775 175.72 136.431 176.504C137.087 177.272 137.959 177.656 139.047 177.656ZM151.215 179.216C150.415 179.216 149.695 179.064 149.055 178.76C148.431 178.44 147.935 178.008 147.567 177.464C147.199 176.92 147.015 176.312 147.015 175.64C147.015 174.792 147.231 174.12 147.663 173.624C148.111 173.128 148.839 172.776 149.847 172.568C150.871 172.344 152.263 172.232 154.023 172.232H154.791V171.488C154.791 170.496 154.583 169.784 154.167 169.352C153.767 168.904 153.119 168.68 152.223 168.68C151.519 168.68 150.839 168.784 150.183 168.992C149.527 169.184 148.855 169.504 148.167 169.952L147.495 168.536C148.103 168.104 148.839 167.76 149.703 167.504C150.583 167.248 151.423 167.12 152.223 167.12C153.727 167.12 154.839 167.488 155.559 168.224C156.295 168.96 156.663 170.104 156.663 171.656V179H154.839V176.984C154.535 177.672 154.063 178.216 153.423 178.616C152.799 179.016 152.063 179.216 151.215 179.216ZM151.527 177.752C152.487 177.752 153.271 177.424 153.879 176.768C154.487 176.096 154.791 175.248 154.791 174.224V173.504H154.047C152.751 173.504 151.727 173.568 150.975 173.696C150.239 173.808 149.719 174.016 149.415 174.32C149.127 174.608 148.983 175.008 148.983 175.52C148.983 176.176 149.207 176.712 149.655 177.128C150.119 177.544 150.743 177.752 151.527 177.752ZM163.845 179.216C162.661 179.216 161.765 178.872 161.157 178.184C160.565 177.48 160.269 176.464 160.269 175.136V162.08H162.213V174.992C162.213 176.704 162.893 177.56 164.253 177.56C164.653 177.56 165.013 177.512 165.333 177.416L165.285 179.048C164.789 179.16 164.309 179.216 163.845 179.216ZM171.043 179.216C170.243 179.216 169.523 179.064 168.883 178.76C168.259 178.44 167.763 178.008 167.395 177.464C167.027 176.92 166.843 176.312 166.843 175.64C166.843 174.792 167.059 174.12 167.491 173.624C167.939 173.128 168.667 172.776 169.675 172.568C170.699 172.344 172.091 172.232 173.851 172.232H174.619V171.488C174.619 170.496 174.411 169.784 173.995 169.352C173.595 168.904 172.947 168.68 172.051 168.68C171.347 168.68 170.667 168.784 170.011 168.992C169.355 169.184 168.683 169.504 167.995 169.952L167.323 168.536C167.931 168.104 168.667 167.76 169.531 167.504C170.411 167.248 171.251 167.12 172.051 167.12C173.555 167.12 174.667 167.488 175.387 168.224C176.123 168.96 176.491 170.104 176.491 171.656V179H174.667V176.984C174.363 177.672 173.891 178.216 173.251 178.616C172.627 179.016 171.891 179.216 171.043 179.216ZM171.355 177.752C172.315 177.752 173.099 177.424 173.707 176.768C174.315 176.096 174.619 175.248 174.619 174.224V173.504H173.875C172.579 173.504 171.555 173.568 170.803 173.696C170.067 173.808 169.547 174.016 169.243 174.32C168.955 174.608 168.811 175.008 168.811 175.52C168.811 176.176 169.035 176.712 169.483 177.128C169.947 177.544 170.571 177.752 171.355 177.752ZM180.097 179V167.336H181.993V169.328C182.377 168.592 182.921 168.04 183.625 167.672C184.329 167.304 185.121 167.12 186.001 167.12C188.769 167.12 190.153 168.656 190.153 171.728V179H188.209V171.848C188.209 170.76 187.993 169.968 187.561 169.472C187.145 168.96 186.473 168.704 185.545 168.704C184.473 168.704 183.617 169.04 182.977 169.712C182.353 170.368 182.041 171.248 182.041 172.352V179H180.097ZM198.682 179.216C197.514 179.216 196.506 178.968 195.658 178.472C194.81 177.96 194.154 177.248 193.69 176.336C193.242 175.408 193.018 174.328 193.018 173.096C193.018 171.24 193.522 169.784 194.53 168.728C195.538 167.656 196.922 167.12 198.682 167.12C199.402 167.12 200.114 167.248 200.818 167.504C201.522 167.76 202.106 168.12 202.57 168.584L201.898 170C201.434 169.552 200.922 169.224 200.362 169.016C199.818 168.808 199.298 168.704 198.802 168.704C197.586 168.704 196.65 169.088 195.994 169.856C195.338 170.608 195.01 171.696 195.01 173.12C195.01 174.512 195.338 175.616 195.994 176.432C196.65 177.232 197.586 177.632 198.802 177.632C199.298 177.632 199.818 177.528 200.362 177.32C200.922 177.112 201.434 176.776 201.898 176.312L202.57 177.728C202.106 178.192 201.514 178.56 200.794 178.832C200.09 179.088 199.386 179.216 198.682 179.216ZM209.869 179.216C208.029 179.216 206.573 178.68 205.501 177.608C204.429 176.52 203.893 175.048 203.893 173.192C203.893 171.992 204.133 170.936 204.613 170.024C205.093 169.096 205.749 168.384 206.581 167.888C207.429 167.376 208.405 167.12 209.509 167.12C211.093 167.12 212.333 167.632 213.229 168.656C214.125 169.664 214.573 171.056 214.573 172.832V173.576H205.789C205.853 174.904 206.237 175.92 206.941 176.624C207.645 177.312 208.621 177.656 209.869 177.656C210.573 177.656 211.245 177.552 211.885 177.344C212.525 177.12 213.133 176.76 213.709 176.264L214.381 177.632C213.853 178.128 213.181 178.52 212.365 178.808C211.549 179.08 210.717 179.216 209.869 179.216ZM209.557 168.56C208.453 168.56 207.581 168.904 206.941 169.592C206.301 170.28 205.925 171.184 205.813 172.304H212.893C212.845 171.12 212.533 170.2 211.957 169.544C211.397 168.888 210.597 168.56 209.557 168.56Z" fill="#E0E2ED"/>
<path d="M51.76 127.6V123.2C49.9733 123.093 48.2933 122.773 46.72 122.24C45.1467 121.68 43.7733 120.907 42.6 119.92L43.96 116.64C45.24 117.653 46.6 118.413 48.04 118.92C49.5067 119.427 51.16 119.68 53 119.68C55.1067 119.68 56.6667 119.28 57.68 118.48C58.72 117.68 59.24 116.653 59.24 115.4C59.24 114.333 58.88 113.493 58.16 112.88C57.44 112.24 56.2267 111.733 54.52 111.36L50.4 110.48C48 109.947 46.2 109.08 45 107.88C43.8 106.653 43.2 105.027 43.2 103C43.2 101.48 43.5467 100.133 44.24 98.96C44.96 97.7867 45.96 96.8267 47.24 96.08C48.52 95.3333 50.0267 94.8667 51.76 94.68V90.2H55.04V94.68C56.4267 94.8133 57.7733 95.16 59.08 95.72C60.4133 96.2533 61.56 97 62.52 97.96L61.2 101.12C60.16 100.107 58.9867 99.36 57.68 98.88C56.3733 98.3733 54.9333 98.12 53.36 98.12C51.52 98.12 50.04 98.56 48.92 99.44C47.8267 100.32 47.28 101.467 47.28 102.88C47.28 103.973 47.6267 104.84 48.32 105.48C49.0133 106.12 50.12 106.613 51.64 106.96L55.76 107.84C58.32 108.373 60.2267 109.24 61.48 110.44C62.7333 111.613 63.36 113.173 63.36 115.12C63.36 117.333 62.5867 119.147 61.04 120.56C59.4933 121.947 57.4933 122.787 55.04 123.08V127.6H51.76ZM76.9844 123.36C73.7577 123.36 71.2377 122.667 69.4244 121.28C67.6377 119.893 66.7444 117.96 66.7444 115.48C66.7444 113.747 67.1977 112.28 68.1044 111.08C69.0377 109.853 70.251 109.013 71.7444 108.56C70.411 108 69.3577 107.147 68.5844 106C67.811 104.827 67.4244 103.48 67.4244 101.96C67.4244 99.6133 68.291 97.7733 70.0244 96.44C71.7577 95.1067 74.0777 94.44 76.9844 94.44C79.9177 94.44 82.251 95.1067 83.9844 96.44C85.7177 97.7733 86.5844 99.6133 86.5844 101.96C86.5844 103.48 86.1844 104.827 85.3844 106C84.611 107.173 83.5577 108.027 82.2244 108.56C83.7444 109.013 84.9577 109.853 85.8644 111.08C86.771 112.28 87.2244 113.747 87.2244 115.48C87.2244 117.96 86.3177 119.893 84.5044 121.28C82.7177 122.667 80.211 123.36 76.9844 123.36ZM76.9844 107.08C78.771 107.08 80.1577 106.667 81.1444 105.84C82.1577 104.987 82.6644 103.827 82.6644 102.36C82.6644 100.92 82.1577 99.7867 81.1444 98.96C80.1577 98.1333 78.771 97.72 76.9844 97.72C75.1977 97.72 73.811 98.1333 72.8244 98.96C71.8377 99.7867 71.3444 100.92 71.3444 102.36C71.3444 103.827 71.8377 104.987 72.8244 105.84C73.811 106.667 75.1977 107.08 76.9844 107.08ZM76.9844 120.08C81.2244 120.08 83.3444 118.453 83.3444 115.2C83.3444 111.973 81.2244 110.36 76.9844 110.36C74.9044 110.36 73.3177 110.76 72.2244 111.56C71.1577 112.36 70.6244 113.573 70.6244 115.2C70.6244 118.453 72.7444 120.08 76.9844 120.08ZM100.969 123.36C97.6888 123.36 95.1821 122.12 93.4488 119.64C91.7421 117.133 90.8888 113.547 90.8888 108.88C90.8888 104.133 91.7421 100.547 93.4488 98.12C95.1821 95.6667 97.6888 94.44 100.969 94.44C104.275 94.44 106.782 95.6667 108.489 98.12C110.195 100.547 111.049 104.12 111.049 108.84C111.049 113.533 110.182 117.133 108.449 119.64C106.742 122.12 104.249 123.36 100.969 123.36ZM100.969 119.92C102.995 119.92 104.502 119.027 105.489 117.24C106.475 115.453 106.969 112.653 106.969 108.84C106.969 105.027 106.475 102.253 105.489 100.52C104.529 98.76 103.022 97.88 100.969 97.88C98.9421 97.88 97.4354 98.76 96.4488 100.52C95.4621 102.28 94.9688 105.053 94.9688 108.84C94.9688 112.653 95.4621 115.453 96.4488 117.24C97.4354 119.027 98.9421 119.92 100.969 119.92ZM117.353 127.92L115.593 126.56C116.206 125.893 116.66 125.28 116.953 124.72C117.246 124.16 117.433 123.587 117.513 123H115.313V118.24H120.073V121.48C120.073 122.707 119.873 123.827 119.473 124.84C119.073 125.88 118.366 126.907 117.353 127.92ZM134.445 123.36C131.165 123.36 128.659 122.12 126.925 119.64C125.219 117.133 124.365 113.547 124.365 108.88C124.365 104.133 125.219 100.547 126.925 98.12C128.659 95.6667 131.165 94.44 134.445 94.44C137.752 94.44 140.259 95.6667 141.965 98.12C143.672 100.547 144.525 104.12 144.525 108.84C144.525 113.533 143.659 117.133 141.925 119.64C140.219 122.12 137.725 123.36 134.445 123.36ZM134.445 119.92C136.472 119.92 137.979 119.027 138.965 117.24C139.952 115.453 140.445 112.653 140.445 108.84C140.445 105.027 139.952 102.253 138.965 100.52C138.005 98.76 136.499 97.88 134.445 97.88C132.419 97.88 130.912 98.76 129.925 100.52C128.939 102.28 128.445 105.053 128.445 108.84C128.445 112.653 128.939 115.453 129.925 117.24C130.912 119.027 132.419 119.92 134.445 119.92ZM158.43 123.36C155.15 123.36 152.643 122.12 150.91 119.64C149.203 117.133 148.35 113.547 148.35 108.88C148.35 104.133 149.203 100.547 150.91 98.12C152.643 95.6667 155.15 94.44 158.43 94.44C161.736 94.44 164.243 95.6667 165.95 98.12C167.656 100.547 168.51 104.12 168.51 108.84C168.51 113.533 167.643 117.133 165.91 119.64C164.203 122.12 161.71 123.36 158.43 123.36ZM158.43 119.92C160.456 119.92 161.963 119.027 162.95 117.24C163.936 115.453 164.43 112.653 164.43 108.84C164.43 105.027 163.936 102.253 162.95 100.52C161.99 98.76 160.483 97.88 158.43 97.88C156.403 97.88 154.896 98.76 153.91 100.52C152.923 102.28 152.43 105.053 152.43 108.84C152.43 112.653 152.923 115.453 153.91 117.24C154.896 119.027 156.403 119.92 158.43 119.92ZM182.414 123.36C179.134 123.36 176.627 122.12 174.894 119.64C173.187 117.133 172.334 113.547 172.334 108.88C172.334 104.133 173.187 100.547 174.894 98.12C176.627 95.6667 179.134 94.44 182.414 94.44C185.721 94.44 188.227 95.6667 189.934 98.12C191.641 100.547 192.494 104.12 192.494 108.84C192.494 113.533 191.627 117.133 189.894 119.64C188.187 122.12 185.694 123.36 182.414 123.36ZM182.414 119.92C184.441 119.92 185.947 119.027 186.934 117.24C187.921 115.453 188.414 112.653 188.414 108.84C188.414 105.027 187.921 102.253 186.934 100.52C185.974 98.76 184.467 97.88 182.414 97.88C180.387 97.88 178.881 98.76 177.894 100.52C176.907 102.28 176.414 105.053 176.414 108.84C176.414 112.653 176.907 115.453 177.894 117.24C178.881 119.027 180.387 119.92 182.414 119.92Z" fill="#F6C859"/>
<g clip-path="url(#clip1_1740_1871)">
<path d="M525.5 45.2474L519.495 45.2474V43.7527C519.495 43.3383 519.159 43.0027 518.745 43.0027C518.33 43.0027 517.995 43.3383 517.995 43.7527V45.2471H511.995V43.7527C511.995 43.3383 511.659 43.0027 511.245 43.0027C510.83 43.0027 510.495 43.3383 510.495 43.7527V45.2471H504.5C503.672 45.2471 503 45.9187 503 46.7471V65.4971C503 66.3254 503.672 66.9971 504.5 66.9971H525.5C526.328 66.9971 527 66.3254 527 65.4971V46.7471C527 45.919 526.328 45.2474 525.5 45.2474ZM525.5 65.4971H504.5V46.7471H510.495V47.5027C510.495 47.917 510.83 48.2527 511.245 48.2527C511.659 48.2527 511.995 47.917 511.995 47.5027V46.7474H517.995V47.5031C517.995 47.9174 518.33 48.2531 518.745 48.2531C519.159 48.2531 519.495 47.9174 519.495 47.5031V46.7474H525.5V65.4971ZM520.25 54.9974H521.75C522.164 54.9974 522.5 54.6614 522.5 54.2474V52.7474C522.5 52.3334 522.164 51.9974 521.75 51.9974H520.25C519.836 51.9974 519.5 52.3334 519.5 52.7474V54.2474C519.5 54.6614 519.836 54.9974 520.25 54.9974ZM520.25 60.997H521.75C522.164 60.997 522.5 60.6614 522.5 60.247V58.747C522.5 58.333 522.164 57.997 521.75 57.997H520.25C519.836 57.997 519.5 58.333 519.5 58.747V60.247C519.5 60.6618 519.836 60.997 520.25 60.997ZM515.75 57.997H514.25C513.836 57.997 513.5 58.333 513.5 58.747V60.247C513.5 60.6614 513.836 60.997 514.25 60.997H515.75C516.164 60.997 516.5 60.6614 516.5 60.247V58.747C516.5 58.3334 516.164 57.997 515.75 57.997ZM515.75 51.9974H514.25C513.836 51.9974 513.5 52.3334 513.5 52.7474V54.2474C513.5 54.6614 513.836 54.9974 514.25 54.9974H515.75C516.164 54.9974 516.5 54.6614 516.5 54.2474V52.7474C516.5 52.333 516.164 51.9974 515.75 51.9974ZM509.75 51.9974H508.25C507.836 51.9974 507.5 52.3334 507.5 52.7474V54.2474C507.5 54.6614 507.836 54.9974 508.25 54.9974H509.75C510.164 54.9974 510.5 54.6614 510.5 54.2474V52.7474C510.5 52.333 510.164 51.9974 509.75 51.9974ZM509.75 57.997H508.25C507.836 57.997 507.5 58.333 507.5 58.747V60.247C507.5 60.6614 507.836 60.997 508.25 60.997H509.75C510.164 60.997 510.5 60.6614 510.5 60.247V58.747C510.5 58.3334 510.164 57.997 509.75 57.997Z" fill="#E0E2ED" fill-opacity="0.5"/>
</g>
<path opacity="0.5" d="M546.56 63.216C545.472 63.216 544.432 63.04 543.44 62.688C542.448 62.336 541.608 61.84 540.92 61.2L541.664 59.64C543.152 60.856 544.776 61.464 546.536 61.464C547.704 61.464 548.624 61.136 549.296 60.48C549.968 59.824 550.304 58.96 550.304 57.888C550.304 56.784 549.984 55.88 549.344 55.176C548.704 54.472 547.824 54.12 546.704 54.12C545.088 54.12 543.816 54.792 542.888 56.136H541.448V46.08H551.264V47.76H543.392V53.808C544.32 52.88 545.544 52.416 547.064 52.416C548.12 52.416 549.04 52.64 549.824 53.088C550.608 53.536 551.208 54.168 551.624 54.984C552.056 55.784 552.272 56.72 552.272 57.792C552.272 58.848 552.04 59.784 551.576 60.6C551.112 61.416 550.448 62.056 549.584 62.52C548.736 62.984 547.728 63.216 546.56 63.216ZM561.691 63V46.08H563.347L569.851 58.296L576.307 46.08H577.963V63H576.139V49.776L570.499 60.384H569.203L563.491 49.8V63H561.691ZM586.758 63.216C585.622 63.216 584.638 62.968 583.806 62.472C582.974 61.976 582.326 61.28 581.862 60.384C581.414 59.472 581.19 58.4 581.19 57.168C581.19 55.936 581.414 54.872 581.862 53.976C582.326 53.064 582.974 52.36 583.806 51.864C584.638 51.368 585.622 51.12 586.758 51.12C587.878 51.12 588.854 51.368 589.686 51.864C590.534 52.36 591.182 53.064 591.63 53.976C592.094 54.872 592.326 55.936 592.326 57.168C592.326 58.4 592.094 59.472 591.63 60.384C591.182 61.28 590.534 61.976 589.686 62.472C588.854 62.968 587.878 63.216 586.758 63.216ZM586.758 61.656C587.846 61.656 588.718 61.272 589.374 60.504C590.03 59.72 590.358 58.608 590.358 57.168C590.358 55.712 590.03 54.6 589.374 53.832C588.718 53.064 587.846 52.68 586.758 52.68C585.654 52.68 584.774 53.064 584.118 53.832C583.478 54.6 583.158 55.712 583.158 57.168C583.158 58.608 583.478 59.72 584.118 60.504C584.774 61.272 585.654 61.656 586.758 61.656ZM595.246 63V51.336H597.142V53.328C597.526 52.592 598.07 52.04 598.774 51.672C599.478 51.304 600.27 51.12 601.15 51.12C603.918 51.12 605.302 52.656 605.302 55.728V63H603.358V55.848C603.358 54.76 603.142 53.968 602.71 53.472C602.294 52.96 601.622 52.704 600.694 52.704C599.622 52.704 598.766 53.04 598.126 53.712C597.502 54.368 597.19 55.248 597.19 56.352V63H595.246ZM613.567 63.216C612.191 63.216 611.159 62.856 610.471 62.136C609.783 61.4 609.439 60.344 609.439 58.968V52.848H607.159V51.336H609.439V47.76H611.383V51.336H615.079V52.848H611.383V58.776C611.383 59.688 611.575 60.384 611.959 60.864C612.343 61.328 612.967 61.56 613.831 61.56C614.087 61.56 614.343 61.528 614.599 61.464C614.855 61.4 615.087 61.336 615.295 61.272L615.631 62.76C615.423 62.872 615.119 62.976 614.719 63.072C614.319 63.168 613.935 63.216 613.567 63.216ZM617.277 63V46.08H619.221V53.256C619.605 52.552 620.141 52.024 620.829 51.672C621.533 51.304 622.317 51.12 623.181 51.12C625.949 51.12 627.333 52.656 627.333 55.728V63H625.389V55.848C625.389 54.76 625.173 53.968 624.741 53.472C624.325 52.96 623.653 52.704 622.725 52.704C621.653 52.704 620.797 53.04 620.157 53.712C619.533 54.368 619.221 55.248 619.221 56.352V63H617.277ZM634.854 63.216C633.942 63.216 633.078 63.088 632.262 62.832C631.446 62.576 630.774 62.216 630.246 61.752L630.87 60.384C631.446 60.848 632.078 61.192 632.766 61.416C633.47 61.624 634.182 61.728 634.902 61.728C635.814 61.728 636.502 61.56 636.966 61.224C637.43 60.888 637.662 60.432 637.662 59.856C637.662 59.408 637.51 59.056 637.206 58.8C636.902 58.528 636.422 58.32 635.766 58.176L633.582 57.696C631.598 57.264 630.606 56.24 630.606 54.624C630.606 53.568 631.022 52.72 631.854 52.08C632.702 51.44 633.806 51.12 635.166 51.12C635.966 51.12 636.726 51.248 637.446 51.504C638.182 51.744 638.79 52.104 639.27 52.584L638.622 53.952C638.158 53.52 637.614 53.192 636.99 52.968C636.382 52.728 635.774 52.608 635.166 52.608C634.27 52.608 633.59 52.784 633.126 53.136C632.662 53.488 632.43 53.952 632.43 54.528C632.43 55.424 633.022 56 634.206 56.256L636.39 56.712C637.414 56.936 638.19 57.296 638.718 57.792C639.246 58.272 639.51 58.928 639.51 59.76C639.51 60.832 639.086 61.68 638.238 62.304C637.39 62.912 636.262 63.216 634.854 63.216Z" fill="#E0E2ED"/>
</g>
<defs>
<clipPath id="clip0_1740_1871">
<rect width="686" height="393" rx="20" fill="white"/>
</clipPath>
<clipPath id="clip1_1740_1871">
<rect width="24" height="24" fill="white" transform="translate(503 43)"/>
</clipPath>
</defs>
</svg>
