<svg width="686" height="393" viewBox="0 0 686 393" fill="none" xmlns="http://www.w3.org/2000/svg">
<rect width="686" height="393" rx="20" fill="#020304"/>
<g clip-path="url(#clip0_1740_1844)">
<path d="M49 194C49 185.163 56.1634 178 65 178L617 178C625.837 178 633 185.163 633 194V393H49L49 194Z" fill="#E0E2ED"/>
<g clip-path="url(#clip1_1740_1844)">
<path opacity="0.96" fill-rule="evenodd" clip-rule="evenodd" d="M84.9131 206.759C85.4754 206.759 86.0378 206.759 86.6001 206.759C89.5367 207.26 92.4808 207.784 95.4323 208.33C96.7671 209.099 97.3129 210.227 97.0697 211.713C96.9705 212.284 96.8713 212.856 96.772 213.427C96.0527 213.908 95.3085 214.352 94.5392 214.761C94.6159 213.619 94.7813 212.475 95.0353 211.331C94.8787 210.339 94.2832 209.784 93.2491 209.664C90.9506 209.294 88.6516 208.929 86.352 208.569C85.6007 208.611 85.0715 208.961 84.7642 209.617C83.8935 214.473 83.0334 219.332 82.184 224.193C82.0659 225.253 82.5456 225.904 83.623 226.146C85.8062 226.495 87.9894 226.844 90.1727 227.194C91.1041 227.437 91.8154 227.167 92.3063 226.384C92.5581 225.41 92.7565 224.426 92.9017 223.431C92.9428 223.387 92.9924 223.355 93.0506 223.335C93.6376 223.641 94.2164 223.958 94.7873 224.288C94.7179 225.386 94.5194 226.466 94.1918 227.527C93.6605 228.408 92.8832 228.948 91.8597 229.147C91.562 229.147 91.2643 229.147 90.9666 229.147C88.207 228.657 85.4284 228.197 82.6306 227.765C81.0693 227.457 80.1761 226.552 79.9512 225.05C79.9512 224.891 79.9512 224.733 79.9512 224.574C80.9025 219.317 81.8452 214.045 82.7795 208.759C83.1517 207.751 83.8629 207.084 84.9131 206.759Z" fill="#0B1015"/>
<path opacity="0.967" fill-rule="evenodd" clip-rule="evenodd" d="M86.7961 210.855C88.0183 210.774 88.531 211.313 88.3343 212.474C87.7163 213.272 87.0216 213.336 86.2503 212.665C85.9174 211.903 86.0993 211.3 86.7961 210.855Z" fill="#0B1015"/>
<path opacity="0.992" fill-rule="evenodd" clip-rule="evenodd" d="M98.608 214.856C98.608 217.905 98.608 220.953 98.608 224.002C98.25 224.243 97.8861 224.227 97.5163 223.954C95.0023 222.557 92.4883 221.16 89.9743 219.762C89.7082 219.443 89.7744 219.189 90.1727 219C92.8238 217.505 95.5032 216.061 98.211 214.666C98.3671 214.69 98.4994 214.753 98.608 214.856Z" fill="#0B1015"/>
</g>
<path d="M105.088 224V210.672H110.873C112.335 210.672 113.463 211.037 114.257 211.768C115.051 212.499 115.448 213.52 115.448 214.831C115.448 216.142 115.051 217.169 114.257 217.912C113.463 218.643 112.335 219.009 110.873 219.009H107.507V224H105.088ZM107.507 217.099H110.495C112.234 217.099 113.104 216.343 113.104 214.831C113.104 213.331 112.234 212.581 110.495 212.581H107.507V217.099ZM119.794 224.189C119.126 224.189 118.528 224.063 117.998 223.811C117.482 223.546 117.072 223.193 116.769 222.752C116.48 222.311 116.335 221.813 116.335 221.259C116.335 220.578 116.511 220.042 116.864 219.652C117.217 219.248 117.79 218.959 118.584 218.782C119.378 218.606 120.443 218.517 121.779 218.517H122.441V218.12C122.441 217.49 122.302 217.036 122.025 216.759C121.748 216.482 121.282 216.343 120.626 216.343C120.109 216.343 119.58 216.425 119.038 216.589C118.496 216.74 117.948 216.98 117.393 217.307L116.713 215.7C117.04 215.474 117.425 215.278 117.866 215.114C118.32 214.938 118.792 214.806 119.284 214.717C119.788 214.617 120.261 214.566 120.702 214.566C122.05 214.566 123.052 214.881 123.708 215.511C124.363 216.129 124.691 217.093 124.691 218.404V224H122.479V222.525C122.265 223.042 121.924 223.452 121.458 223.754C120.992 224.044 120.437 224.189 119.794 224.189ZM120.286 222.563C120.903 222.563 121.414 222.349 121.817 221.92C122.233 221.492 122.441 220.95 122.441 220.295V219.879H121.798C120.614 219.879 119.788 219.973 119.322 220.162C118.868 220.339 118.641 220.666 118.641 221.145C118.641 221.561 118.786 221.901 119.076 222.166C119.366 222.431 119.769 222.563 120.286 222.563ZM127.829 227.403L129.531 223.622L125.693 214.755H128.207L130.797 221.221L133.444 214.755H135.826L130.268 227.403H127.829ZM140.148 224.189C139.367 224.189 138.636 224.095 137.955 223.905C137.274 223.716 136.707 223.445 136.253 223.093L136.858 221.542C137.325 221.857 137.848 222.103 138.428 222.28C139.007 222.443 139.587 222.525 140.167 222.525C140.772 222.525 141.219 222.425 141.509 222.223C141.812 222.009 141.963 221.731 141.963 221.391C141.963 220.862 141.572 220.521 140.791 220.37L138.9 220.011C137.3 219.708 136.499 218.877 136.499 217.515C136.499 216.91 136.663 216.387 136.991 215.946C137.331 215.505 137.797 215.165 138.39 214.925C138.982 214.686 139.663 214.566 140.432 214.566C141.087 214.566 141.717 214.661 142.322 214.85C142.927 215.026 143.444 215.297 143.872 215.663L143.23 217.213C142.864 216.91 142.423 216.671 141.906 216.494C141.402 216.318 140.917 216.23 140.45 216.23C139.833 216.23 139.373 216.337 139.07 216.551C138.78 216.765 138.636 217.049 138.636 217.402C138.636 217.957 138.995 218.297 139.713 218.423L141.604 218.782C142.423 218.933 143.041 219.211 143.456 219.614C143.885 220.017 144.099 220.559 144.099 221.24C144.099 222.16 143.74 222.885 143.022 223.414C142.303 223.931 141.345 224.189 140.148 224.189ZM150.268 224.189C149.297 224.189 148.453 223.994 147.734 223.603C147.016 223.2 146.461 222.632 146.071 221.901C145.68 221.17 145.485 220.313 145.485 219.33C145.485 218.347 145.68 217.503 146.071 216.797C146.461 216.079 147.016 215.53 147.734 215.152C148.453 214.761 149.297 214.566 150.268 214.566C150.86 214.566 151.446 214.661 152.026 214.85C152.606 215.039 153.085 215.303 153.463 215.644L152.763 217.289C152.436 216.999 152.064 216.778 151.648 216.627C151.245 216.476 150.854 216.4 150.476 216.4C149.656 216.4 149.02 216.658 148.566 217.175C148.125 217.679 147.905 218.404 147.905 219.349C147.905 220.282 148.125 221.019 148.566 221.561C149.02 222.091 149.656 222.355 150.476 222.355C150.841 222.355 151.232 222.28 151.648 222.128C152.064 221.977 152.436 221.75 152.763 221.448L153.463 223.111C153.085 223.439 152.599 223.704 152.007 223.905C151.427 224.095 150.848 224.189 150.268 224.189ZM154.912 224V214.755H157.219V216.381C157.673 215.285 158.643 214.68 160.13 214.566L160.849 214.509L161 216.513L159.639 216.646C158.089 216.797 157.313 217.591 157.313 219.028V224H154.912ZM162.165 212.77V210.464H164.811V212.77H162.165ZM162.316 224V214.755H164.679V224H162.316ZM172.466 224.189C171.785 224.189 171.174 224.038 170.632 223.735C170.103 223.433 169.706 223.023 169.441 222.506V224H167.135V210.672H169.498V216.116C169.775 215.65 170.172 215.278 170.689 215.001C171.218 214.711 171.811 214.566 172.466 214.566C173.285 214.566 173.997 214.761 174.602 215.152C175.207 215.543 175.68 216.097 176.02 216.816C176.361 217.522 176.531 218.372 176.531 219.368C176.531 220.351 176.361 221.208 176.02 221.939C175.68 222.658 175.201 223.212 174.583 223.603C173.978 223.994 173.273 224.189 172.466 224.189ZM171.804 222.393C172.51 222.393 173.077 222.141 173.506 221.637C173.934 221.12 174.149 220.364 174.149 219.368C174.149 218.36 173.934 217.61 173.506 217.118C173.077 216.614 172.51 216.362 171.804 216.362C171.099 216.362 170.531 216.614 170.103 217.118C169.674 217.61 169.46 218.36 169.46 219.368C169.46 220.364 169.674 221.12 170.103 221.637C170.531 222.141 171.099 222.393 171.804 222.393ZM183.027 224.189C181.981 224.189 181.08 223.994 180.323 223.603C179.567 223.212 178.981 222.658 178.565 221.939C178.162 221.221 177.96 220.37 177.96 219.387C177.96 218.429 178.156 217.591 178.546 216.873C178.95 216.154 179.498 215.593 180.191 215.19C180.897 214.774 181.697 214.566 182.592 214.566C183.903 214.566 184.936 214.982 185.693 215.814C186.461 216.646 186.846 217.78 186.846 219.217V219.916H180.229C180.405 221.567 181.351 222.393 183.065 222.393C183.581 222.393 184.098 222.317 184.615 222.166C185.132 222.002 185.604 221.75 186.033 221.41L186.695 222.998C186.253 223.364 185.699 223.653 185.031 223.868C184.363 224.082 183.695 224.189 183.027 224.189ZM182.687 216.173C181.993 216.173 181.432 216.387 181.004 216.816C180.575 217.244 180.317 217.824 180.229 218.555H184.88C184.829 217.786 184.615 217.2 184.237 216.797C183.871 216.381 183.355 216.173 182.687 216.173Z" fill="#020304"/>
<path d="M496 216C496 211.582 499.582 208 504 208H633V262H504C499.582 262 496 258.418 496 254V216Z" fill="#2540CE"/>
<path d="M522.848 243V226.08H525.92V243H522.848ZM529.598 243V226.08H531.902L540.998 237.888V226.08H543.854V243H541.574L532.454 231.144V243H529.598ZM552.975 243L545.439 226.08H548.727L554.319 239.064L559.911 226.08H563.079L555.543 243H552.975ZM571.823 243.24C570.191 243.24 568.759 242.88 567.527 242.16C566.311 241.44 565.367 240.432 564.695 239.136C564.023 237.824 563.687 236.288 563.687 234.528C563.687 232.752 564.023 231.216 564.695 229.92C565.367 228.624 566.311 227.624 567.527 226.92C568.743 226.2 570.175 225.84 571.823 225.84C573.471 225.84 574.903 226.2 576.119 226.92C577.335 227.624 578.279 228.624 578.951 229.92C579.623 231.216 579.959 232.744 579.959 234.504C579.959 236.28 579.623 237.824 578.951 239.136C578.279 240.432 577.335 241.44 576.119 242.16C574.903 242.88 573.471 243.24 571.823 243.24ZM571.823 240.6C573.375 240.6 574.583 240.064 575.447 238.992C576.311 237.92 576.743 236.432 576.743 234.528C576.743 232.608 576.311 231.12 575.447 230.064C574.599 229.008 573.391 228.48 571.823 228.48C570.271 228.48 569.063 229.008 568.199 230.064C567.335 231.12 566.903 232.608 566.903 234.528C566.903 236.432 567.335 237.92 568.199 238.992C569.063 240.064 570.271 240.6 571.823 240.6ZM583.082 243V226.08H586.154V243H583.082ZM597.704 243.24C595.944 243.24 594.432 242.888 593.168 242.184C591.92 241.464 590.96 240.456 590.288 239.16C589.616 237.848 589.28 236.304 589.28 234.528C589.28 232.752 589.616 231.216 590.288 229.92C590.96 228.624 591.92 227.624 593.168 226.92C594.432 226.2 595.944 225.84 597.704 225.84C598.84 225.84 599.912 226.016 600.92 226.368C601.944 226.72 602.784 227.224 603.44 227.88L602.432 230.328C601.712 229.72 600.976 229.28 600.224 229.008C599.472 228.72 598.664 228.576 597.8 228.576C596.088 228.576 594.784 229.096 593.888 230.136C592.992 231.16 592.544 232.624 592.544 234.528C592.544 236.432 592.992 237.904 593.888 238.944C594.784 239.984 596.088 240.504 597.8 240.504C598.664 240.504 599.472 240.368 600.224 240.096C600.976 239.808 601.712 239.36 602.432 238.752L603.44 241.2C602.784 241.84 601.944 242.344 600.92 242.712C599.912 243.064 598.84 243.24 597.704 243.24ZM606.121 243V226.08H617.377V228.528H609.073V233.184H616.849V235.632H609.073V240.552H617.377V243H606.121Z" fill="#E0E2ED"/>
<rect x="80" y="315" width="522" height="18" rx="4" fill="#BBBDC9"/>
<rect x="80" y="354" width="239" height="18" rx="4" fill="#BBBDC9"/>
<rect x="363" y="354" width="239" height="18" rx="4" fill="#BBBDC9"/>
<rect x="81" y="247" width="149" height="18" rx="4" fill="#BBBDC9"/>
</g>
<path d="M631.41 162.754L638.891 150.787M637.257 165.823C641.056 161.967 655.287 147.521 662.6 140.097M640.414 171.623L658.18 160.963" stroke="#F6C859" stroke-width="6.85377"/>
<g clip-path="url(#clip2_1740_1844)">
<rect x="22.1982" y="69" width="213" height="52" rx="6.66132" transform="rotate(6.84594 22.1982 69)" fill="#1532CB"/>
<path d="M35.7624 106.115C35.3303 106.063 35.0222 105.955 34.8383 105.792C34.6525 105.645 34.5494 105.46 34.5291 105.239C34.5087 105.017 34.5143 104.775 34.5458 104.513L36.1492 91.1559C36.2122 90.6312 36.356 90.2806 36.5807 90.1041C36.8208 89.9294 37.2187 89.8754 37.7743 89.9421L46.8021 91.0258C47.0645 91.0573 47.2923 91.116 47.4855 91.2018C47.6805 91.2722 47.8278 91.4151 47.9271 91.6305C48.0284 91.8305 48.0521 92.1543 47.9984 92.6019C47.9465 93.034 47.8391 93.342 47.6761 93.5259C47.5286 93.7117 47.344 93.8148 47.1224 93.8352C46.9162 93.8574 46.682 93.8527 46.4196 93.8212L38.7806 92.9042L38.3138 96.7932L43.5685 97.424C43.8308 97.4555 44.0509 97.5132 44.2287 97.5971C44.4237 97.6675 44.5564 97.8009 44.6268 97.9972C44.7144 98.1799 44.7342 98.4719 44.686 98.8731C44.6415 99.2435 44.5542 99.5148 44.4239 99.687C44.2955 99.8438 44.1282 99.9333 43.9221 99.9555C43.7332 99.9641 43.5075 99.9527 43.2452 99.9212L38.0136 99.2932L37.3439 104.872C37.3124 105.134 37.2529 105.37 37.1652 105.578C37.0948 105.774 36.9519 105.921 36.7365 106.02C36.5192 106.135 36.1945 106.166 35.7624 106.115ZM55.7315 108.465C55.2839 108.411 54.9623 108.286 54.7667 108.091C54.571 107.895 54.4907 107.65 54.5259 107.357L54.7797 106.613C54.6321 106.799 54.3951 107.013 54.0685 107.255C53.7438 107.483 53.3293 107.675 52.825 107.834C52.3225 107.977 51.7317 108.008 51.0527 107.927C50.3274 107.839 49.6583 107.61 49.0453 107.239C48.4496 106.855 47.9364 106.371 47.5055 105.787C47.092 105.189 46.7793 104.533 46.5676 103.819C46.3732 103.091 46.3232 102.334 46.4177 101.547C46.5085 100.79 46.7326 100.097 47.0901 99.467C47.4648 98.8232 47.9306 98.2685 48.4874 97.8031C49.0442 97.3377 49.6566 96.9964 50.3245 96.7791C51.0097 96.5483 51.7073 96.4755 52.4171 96.5607C53.0499 96.6366 53.5721 96.7854 53.9838 97.0071C54.411 97.2305 54.7631 97.492 55.0403 97.7914C55.3193 98.0753 55.5424 98.3683 55.7097 98.6701L55.6514 97.9821C55.6921 97.6426 55.8307 97.401 56.0672 97.2572C56.3055 97.0979 56.6561 97.0461 57.119 97.1016C57.5512 97.1535 57.8515 97.26 58.02 97.4211C58.1903 97.5668 58.2848 97.7582 58.3033 97.9952C58.3236 98.2168 58.3172 98.4665 58.2838 98.7443L57.2667 107.217C57.2352 107.479 57.1834 107.715 57.1111 107.926C57.0389 108.136 56.8951 108.291 56.6796 108.391C56.4796 108.492 56.1636 108.517 55.7315 108.465ZM51.7945 105.268C52.3192 105.331 52.8056 105.257 53.2538 105.044C53.702 104.832 54.0764 104.517 54.377 104.099C54.6949 103.667 54.8873 103.174 54.9539 102.618C55.0262 102.016 54.958 101.476 54.7494 100.997C54.5408 100.518 54.2352 100.129 53.8328 99.8302C53.4476 99.5179 52.9926 99.3302 52.4679 99.2672C51.8969 99.1987 51.371 99.2764 50.8901 99.5005C50.4111 99.7091 50.0126 100.029 49.6947 100.461C49.394 100.879 49.2095 101.373 49.1409 101.944C49.0742 102.5 49.1452 103.017 49.3538 103.496C49.5624 103.975 49.8748 104.372 50.2908 104.689C50.7223 105.006 51.2235 105.2 51.7945 105.268ZM63.356 109.568C62.9548 109.52 62.5359 109.422 62.0995 109.276C61.6612 109.145 61.243 108.978 60.8449 108.773C60.4486 108.554 60.1091 108.317 59.8264 108.064C59.5609 107.797 59.4063 107.52 59.3625 107.233C59.3193 107.072 59.3138 106.922 59.3459 106.785C59.3798 106.633 59.4446 106.484 59.5403 106.339C59.6379 106.178 59.774 106.023 59.9487 105.871C60.108 105.718 60.258 105.642 60.3987 105.644C60.5567 105.631 60.7441 105.701 60.9608 105.852C61.1521 105.953 61.3561 106.079 61.5728 106.231C61.8049 106.384 62.037 106.537 62.2691 106.69C62.5166 106.845 62.7669 106.977 63.02 107.085C63.2885 107.196 63.5539 107.267 63.8163 107.298C64.3873 107.367 64.8537 107.329 65.2154 107.185C65.579 107.025 65.7821 106.767 65.8247 106.412C65.8488 106.212 65.8161 106.028 65.7266 105.861C65.6371 105.693 65.5053 105.552 65.3312 105.437C65.1744 105.309 64.9772 105.191 64.7396 105.085C64.5192 104.964 64.2738 104.856 64.0035 104.761C63.7504 104.653 63.4828 104.534 63.2007 104.407C62.8278 104.252 62.4578 104.075 62.0905 103.874C61.7232 103.674 61.4001 103.431 61.1211 103.147C60.8575 102.865 60.6553 102.528 60.5146 102.135C60.3739 101.743 60.3369 101.269 60.4036 100.713C60.4869 100.019 60.7194 99.4515 61.1009 99.0121C61.4997 98.559 62.0312 98.2392 62.6954 98.0528C63.3596 97.8665 64.1393 97.827 65.0343 97.9344C65.343 97.9715 65.6334 98.0298 65.9056 98.1095C66.1933 98.191 66.4627 98.2938 66.714 98.4179C66.9825 98.5284 67.2328 98.6602 67.4649 98.8133C67.7124 98.9682 67.9427 99.1367 68.1556 99.3189C68.5155 99.5812 68.6855 99.8599 68.6658 100.155C68.6479 100.435 68.5037 100.723 68.2333 101.019C68.0376 101.215 67.8494 101.349 67.6685 101.421C67.4895 101.478 67.312 101.456 67.1361 101.357C66.904 101.204 66.6497 101.04 66.3731 100.866C66.1139 100.678 65.8364 100.512 65.5407 100.367C65.2605 100.224 64.9583 100.133 64.6342 100.094C64.3256 100.057 64.0422 100.07 63.7842 100.133C63.5262 100.196 63.3252 100.304 63.1814 100.459C63.0376 100.614 62.9518 100.808 62.924 101.039C62.898 101.255 62.9385 101.44 63.0452 101.594C63.152 101.747 63.3002 101.883 63.4897 101.999C63.6792 102.116 63.9082 102.23 64.1767 102.34C64.4471 102.435 64.7329 102.532 65.0341 102.631C65.4551 102.775 65.881 102.944 66.3119 103.136C66.7428 103.329 67.1286 103.571 67.4693 103.862C67.8255 104.156 68.0943 104.525 68.2757 104.969C68.4591 105.398 68.5118 105.937 68.434 106.585C68.2988 107.711 67.7774 108.533 66.87 109.05C65.978 109.57 64.8066 109.742 63.356 109.568ZM75.3024 110.861C74.5463 110.77 73.9074 110.615 73.3858 110.396C72.8642 110.177 72.4531 109.885 72.1524 109.52C71.8518 109.155 71.6472 108.708 71.5386 108.179C71.4473 107.635 71.4442 107.009 71.5294 106.299L72.7077 96.4839C72.741 96.2061 72.7929 95.9697 72.8633 95.7746C72.9491 95.5814 73.0911 95.4419 73.2892 95.3561C73.5047 95.2568 73.8207 95.2321 74.2374 95.2821C74.6695 95.334 74.9707 95.4328 75.1411 95.5784C75.3269 95.726 75.43 95.9106 75.4503 96.1322C75.488 96.3402 75.492 96.5677 75.4623 96.8146L74.2952 106.537C74.2563 106.861 74.248 107.126 74.2702 107.332C74.3078 107.54 74.3742 107.705 74.4692 107.826C74.5816 107.933 74.7276 108.021 74.9072 108.09C75.1041 108.145 75.3415 108.189 75.6192 108.222C75.9124 108.257 76.1566 108.31 76.3516 108.381C76.5621 108.453 76.7103 108.588 76.7961 108.786C76.8837 108.969 76.9035 109.261 76.8553 109.662C76.8034 110.094 76.696 110.402 76.533 110.586C76.3873 110.757 76.2037 110.852 75.9821 110.872C75.7759 110.894 75.5494 110.891 75.3024 110.861ZM71.4362 99.0552L73.8178 99.3646L77.0234 99.6555C77.2857 99.6869 77.5135 99.7456 77.7067 99.8314C77.9172 99.9036 78.0721 100.047 78.1715 100.263C78.2727 100.463 78.2974 100.779 78.2455 101.211C78.1974 101.612 78.0995 101.906 77.952 102.092C77.8044 102.277 77.6266 102.389 77.4186 102.427C77.2124 102.449 76.9782 102.444 76.7158 102.413L73.6195 101.994L71.0472 101.709C70.6633 101.647 70.4062 101.507 70.2759 101.288C70.163 101.055 70.1352 100.699 70.1926 100.221C70.2464 99.7734 70.3702 99.4595 70.564 99.2792C70.7751 99.0854 71.0659 99.0107 71.4362 99.0552ZM93.7998 113.035C93.3523 112.981 93.0307 112.856 92.835 112.661C92.6393 112.465 92.5591 112.22 92.5943 111.927L92.848 111.183C92.7005 111.369 92.4634 111.583 92.1369 111.825C91.8122 112.052 91.3976 112.245 90.8933 112.404C90.3908 112.547 89.8001 112.578 89.121 112.497C88.3957 112.409 87.7266 112.18 87.1136 111.809C86.518 111.425 86.0047 110.94 85.5738 110.357C85.1603 109.759 84.8477 109.103 84.636 108.389C84.4415 107.661 84.3916 106.904 84.4861 106.117C84.5768 105.36 84.8009 104.667 85.1584 104.037C85.5331 103.393 85.9989 102.838 86.5557 102.373C87.1125 101.908 87.7249 101.566 88.3928 101.349C89.078 101.118 89.7756 101.045 90.4855 101.131C91.1182 101.207 91.6404 101.355 92.0521 101.577C92.4793 101.8 92.8315 102.062 93.1086 102.361C93.3876 102.645 93.6108 102.938 93.778 103.24L93.7197 102.552C93.7605 102.213 93.8991 101.971 94.1355 101.827C94.3738 101.668 94.7244 101.616 95.1874 101.672C95.6195 101.723 95.9198 101.83 96.0883 101.991C96.2587 102.137 96.3531 102.328 96.3716 102.565C96.392 102.787 96.3855 103.036 96.3521 103.314L95.3351 111.787C95.3036 112.049 95.2517 112.285 95.1795 112.496C95.1072 112.706 94.9634 112.861 94.748 112.961C94.548 113.062 94.2319 113.087 93.7998 113.035ZM89.8628 109.838C90.3875 109.901 90.874 109.826 91.3221 109.614C91.7703 109.402 92.1447 109.087 92.4453 108.669C92.7633 108.237 92.9556 107.744 93.0223 107.188C93.0945 106.586 93.0263 106.046 92.8177 105.567C92.6091 105.088 92.3035 104.699 91.9011 104.4C91.5159 104.088 91.061 103.9 90.5363 103.837C89.9653 103.769 89.4393 103.846 88.9585 104.07C88.4794 104.279 88.0809 104.599 87.763 105.031C87.4624 105.448 87.2778 105.943 87.2092 106.514C87.1425 107.069 87.2135 107.587 87.4221 108.066C87.6308 108.545 87.9431 108.942 88.3591 109.258C88.7906 109.576 89.2918 109.77 89.8628 109.838ZM98.8512 113.665C98.4345 113.615 98.1342 113.508 97.9502 113.345C97.7799 113.199 97.6836 113.023 97.6614 112.817C97.641 112.596 97.6466 112.354 97.6781 112.091L98.7174 103.434C98.747 103.187 98.797 102.966 98.8674 102.771C98.9378 102.576 99.0798 102.436 99.2933 102.352C99.5088 102.253 99.8248 102.228 100.242 102.278C100.612 102.323 100.884 102.402 101.058 102.517C101.232 102.632 101.342 102.763 101.387 102.909C101.432 103.055 101.446 103.198 101.429 103.337C101.428 103.477 101.431 103.587 101.437 103.666L101.255 104.396C101.378 104.16 101.561 103.94 101.804 103.734C102.048 103.528 102.336 103.352 102.667 103.203C102.999 103.04 103.35 102.925 103.717 102.86C104.103 102.781 104.488 102.765 104.874 102.811C105.599 102.898 106.232 103.107 106.771 103.438C107.311 103.769 107.752 104.198 108.096 104.724C108.455 105.253 108.703 105.861 108.84 106.551C108.978 107.225 108.998 107.971 108.9 108.789L108.347 113.396C108.315 113.658 108.256 113.893 108.168 114.102C108.098 114.297 107.962 114.445 107.762 114.546C107.562 114.648 107.239 114.671 106.791 114.618C106.359 114.566 106.051 114.458 105.867 114.295C105.681 114.148 105.577 113.971 105.555 113.765C105.535 113.543 105.54 113.301 105.572 113.039L106.125 108.432C106.191 107.877 106.148 107.386 105.996 106.961C105.859 106.538 105.618 106.196 105.274 105.935C104.945 105.676 104.503 105.514 103.947 105.447C103.407 105.382 102.922 105.441 102.493 105.625C102.066 105.793 101.72 106.064 101.456 106.44C101.192 106.815 101.027 107.273 100.963 107.813L100.407 112.442C100.375 112.705 100.323 112.941 100.251 113.152C100.181 113.347 100.038 113.494 99.8225 113.593C99.6225 113.695 99.2987 113.718 98.8512 113.665ZM115.346 115.645C114.636 115.56 113.982 115.332 113.385 114.963C112.787 114.594 112.28 114.126 111.863 113.559C111.447 112.977 111.142 112.322 110.948 111.594C110.755 110.851 110.707 110.078 110.804 109.276C110.896 108.504 111.122 107.796 111.482 107.15C111.843 106.489 112.293 105.932 112.833 105.481C113.389 105.015 114.002 104.674 114.67 104.457C115.338 104.239 116.019 104.172 116.713 104.256C117.454 104.345 118.1 104.571 118.651 104.935C119.202 105.298 119.647 105.766 119.985 106.339C120.341 106.899 120.585 107.538 120.718 108.259C120.852 108.964 120.88 109.711 120.801 110.5C120.707 111.287 120.51 112.014 120.21 112.683C119.928 113.338 119.547 113.903 119.067 114.377C118.603 114.854 118.052 115.21 117.413 115.447C116.791 115.669 116.102 115.736 115.346 115.645ZM116.042 112.981C116.582 113.046 117.075 112.98 117.521 112.783C117.985 112.572 118.367 112.258 118.668 111.84C118.984 111.424 119.176 110.931 119.245 110.36C119.315 109.773 119.246 109.24 119.037 108.761C118.844 108.284 118.547 107.889 118.146 107.574C117.761 107.262 117.299 107.073 116.759 107.009C116.218 106.944 115.717 107.017 115.253 107.227C114.791 107.422 114.401 107.735 114.083 108.167C113.783 108.585 113.597 109.087 113.527 109.673C113.458 110.244 113.521 110.768 113.714 111.246C113.922 111.725 114.227 112.121 114.628 112.435C115.046 112.736 115.517 112.918 116.042 112.981ZM119.999 116.203C119.567 116.151 119.259 116.044 119.075 115.881C118.893 115.703 118.79 115.448 118.767 115.116L120.479 100.857C120.511 100.594 120.554 100.365 120.609 100.168C120.681 99.9573 120.817 99.8015 121.017 99.7003C121.235 99.5854 121.552 99.5531 121.968 99.6031C122.416 99.6568 122.725 99.7565 122.895 99.9022C123.065 100.048 123.161 100.232 123.181 100.453C123.219 100.661 123.222 100.896 123.19 101.159L121.534 114.955C121.503 115.218 121.451 115.454 121.379 115.664C121.306 115.875 121.162 116.03 120.947 116.129C120.747 116.23 120.431 116.255 119.999 116.203ZM134.985 118.167C133.982 118.046 133.122 117.779 132.405 117.364C131.703 116.951 131.131 116.436 130.688 115.819C130.263 115.189 129.961 114.511 129.782 113.785C129.62 113.045 129.584 112.298 129.675 111.541C129.809 110.43 130.182 109.473 130.795 108.67C131.408 107.867 132.192 107.272 133.146 106.886C134.116 106.501 135.187 106.379 136.36 106.52C137.193 106.62 137.91 106.839 138.512 107.178C139.113 107.516 139.596 107.926 139.961 108.408C140.343 108.877 140.611 109.379 140.766 109.914C140.937 110.451 140.993 110.959 140.936 111.437C140.837 112.255 140.566 112.825 140.12 113.147C139.69 113.471 139.181 113.598 138.595 113.528L132.484 112.794C132.436 113.321 132.543 113.796 132.806 114.218C133.084 114.643 133.449 114.992 133.901 115.266C134.371 115.526 134.86 115.686 135.37 115.747C135.755 115.794 136.098 115.811 136.396 115.8C136.711 115.791 136.98 115.768 137.203 115.733C137.428 115.681 137.623 115.626 137.786 115.568C137.965 115.511 138.128 115.46 138.274 115.415C138.421 115.37 138.556 115.347 138.682 115.346C138.853 115.351 139.018 115.41 139.177 115.523C139.336 115.636 139.455 115.815 139.535 116.059C139.609 116.225 139.654 116.379 139.668 116.522C139.699 116.651 139.708 116.777 139.693 116.9C139.656 117.209 139.435 117.48 139.032 117.713C138.63 117.931 138.079 118.084 137.38 118.172C136.694 118.278 135.896 118.276 134.985 118.167ZM132.681 111.151L137.426 111.72C137.689 111.752 137.894 111.737 138.042 111.677C138.192 111.601 138.284 111.424 138.317 111.146C138.36 110.791 138.29 110.462 138.107 110.158C137.926 109.839 137.66 109.58 137.308 109.381C136.958 109.167 136.536 109.031 136.042 108.971C135.471 108.903 134.94 108.956 134.45 109.132C133.961 109.293 133.554 109.549 133.23 109.902C132.921 110.256 132.738 110.672 132.681 111.151ZM144.633 119.184C144.216 119.134 143.916 119.027 143.732 118.865C143.562 118.719 143.459 118.534 143.423 118.311C143.403 118.089 143.408 117.847 143.44 117.585L144.293 110.478L143.292 110.405C142.906 110.359 142.649 110.218 142.521 109.984C142.392 109.749 142.358 109.385 142.417 108.891C142.474 108.413 142.601 108.076 142.797 107.88C142.992 107.684 143.283 107.61 143.669 107.656L144.612 107.816L144.787 106.358C144.856 105.787 144.996 105.271 145.208 104.812C145.421 104.336 145.719 103.941 146.101 103.627C146.501 103.3 146.983 103.068 147.547 102.932C148.111 102.796 148.779 102.775 149.551 102.867C149.798 102.897 150.026 102.948 150.237 103.02C150.447 103.092 150.602 103.236 150.702 103.452C150.803 103.652 150.827 103.968 150.776 104.4C150.724 104.832 150.616 105.14 150.453 105.324C150.308 105.494 150.124 105.59 149.902 105.61C149.696 105.632 149.462 105.628 149.2 105.596C148.829 105.552 148.532 105.547 148.309 105.583C148.087 105.603 147.92 105.693 147.807 105.852C147.694 106.01 147.615 106.275 147.571 106.645L147.387 108.173C147.713 108.196 148.047 108.221 148.388 108.246C148.745 108.273 149.109 108.309 149.479 108.353C149.741 108.385 150.041 108.429 150.379 108.485C150.734 108.528 151.073 108.576 151.395 108.63L151.57 107.172C151.638 106.601 151.779 106.086 151.99 105.626C152.204 105.15 152.502 104.756 152.884 104.442C153.268 104.112 153.742 103.879 154.306 103.743C154.87 103.608 155.538 103.586 156.31 103.679C156.557 103.708 156.786 103.759 156.996 103.832C157.207 103.904 157.361 104.048 157.461 104.263C157.562 104.463 157.587 104.779 157.535 105.211C157.483 105.643 157.383 105.952 157.236 106.138C157.09 106.308 156.906 106.404 156.685 106.424C156.463 106.445 156.221 106.439 155.959 106.407C155.589 106.363 155.292 106.359 155.068 106.394C154.847 106.415 154.679 106.504 154.566 106.663C154.453 106.822 154.375 107.086 154.33 107.456L154.147 108.984L156.007 109.137C156.269 109.169 156.498 109.22 156.693 109.29C156.904 109.362 157.058 109.506 157.158 109.721C157.274 109.923 157.307 110.24 157.255 110.672C157.205 111.089 157.106 111.39 156.959 111.576C156.813 111.746 156.628 111.85 156.405 111.885C156.197 111.923 155.962 111.926 155.699 111.895C155.47 111.851 155.177 111.808 154.823 111.766C154.469 111.708 154.139 111.653 153.833 111.6L152.968 118.799C152.939 119.046 152.88 119.274 152.792 119.483C152.722 119.678 152.579 119.825 152.364 119.924C152.148 120.024 151.825 120.047 151.392 119.995C150.976 119.945 150.675 119.839 150.492 119.676C150.321 119.53 150.226 119.347 150.205 119.125C150.185 118.903 150.191 118.661 150.222 118.399L151.075 111.292C150.936 111.276 150.75 111.261 150.517 111.249C150.285 111.221 150.045 111.2 149.797 111.186C149.565 111.158 149.364 111.134 149.195 111.114C148.979 111.088 148.655 111.041 148.225 110.974C147.795 110.907 147.411 110.845 147.073 110.789L146.209 117.988C146.179 118.235 146.121 118.462 146.033 118.671C145.963 118.866 145.82 119.013 145.604 119.113C145.389 119.212 145.065 119.236 144.633 119.184ZM158.754 120.879C158.322 120.827 158.014 120.72 157.83 120.557C157.659 120.411 157.563 120.235 157.541 120.029C157.52 119.807 157.525 119.573 157.555 119.326L158.586 110.738C158.617 110.476 158.668 110.247 158.738 110.052C158.811 109.842 158.954 109.687 159.17 109.587C159.385 109.488 159.709 109.464 160.141 109.516C160.573 109.568 160.874 109.674 161.042 109.836C161.213 109.981 161.308 110.165 161.328 110.386C161.35 110.593 161.346 110.827 161.314 111.089L160.283 119.677C160.254 119.924 160.203 120.153 160.131 120.363C160.06 120.558 159.917 120.706 159.702 120.805C159.502 120.906 159.186 120.931 158.754 120.879ZM160.385 107.291C159.922 107.235 159.591 107.125 159.391 106.96C159.207 106.797 159.098 106.596 159.064 106.358C159.046 106.121 159.052 105.871 159.084 105.608C159.119 105.315 159.181 105.064 159.268 104.856C159.356 104.647 159.507 104.493 159.723 104.394C159.956 104.281 160.304 104.252 160.766 104.308C161.214 104.361 161.53 104.47 161.714 104.633C161.913 104.797 162.022 104.998 162.041 105.235C162.076 105.459 162.077 105.717 162.041 106.01C162.01 106.273 161.949 106.516 161.86 106.74C161.772 106.949 161.62 107.11 161.402 107.225C161.187 107.325 160.848 107.347 160.385 107.291ZM168.137 122.052C167.396 121.964 166.685 121.753 166.005 121.421C165.342 121.075 164.755 120.621 164.243 120.059C163.747 119.498 163.372 118.843 163.117 118.092C162.88 117.328 162.816 116.49 162.926 115.58C163.035 114.669 163.294 113.879 163.704 113.208C164.128 112.539 164.648 111.99 165.263 111.563C165.878 111.136 166.548 110.833 167.274 110.654C168 110.475 168.733 110.43 169.474 110.519C170.014 110.584 170.514 110.722 170.974 110.934C171.449 111.147 171.852 111.384 172.181 111.642C172.51 111.901 172.738 112.148 172.867 112.382C173.045 112.591 173.194 112.789 173.312 112.976C173.431 113.162 173.452 113.376 173.376 113.617C173.311 113.766 173.224 113.904 173.115 114.032C173.007 114.145 172.876 114.262 172.72 114.384C172.3 114.756 171.919 114.867 171.577 114.716C171.389 114.584 171.202 114.444 171.017 114.297C170.831 114.149 170.636 114.009 170.433 113.875C170.247 113.727 170.051 113.602 169.844 113.499C169.638 113.396 169.403 113.328 169.141 113.297C168.554 113.226 168.014 113.295 167.519 113.501C167.042 113.695 166.646 113.999 166.329 114.415C166.029 114.833 165.843 115.335 165.773 115.922C165.703 116.508 165.763 117.048 165.954 117.54C166.163 118.019 166.475 118.417 166.891 118.733C167.309 119.034 167.804 119.218 168.375 119.287C168.652 119.32 168.919 119.321 169.173 119.289C169.444 119.243 169.687 119.178 169.901 119.094C170.116 118.995 170.293 118.891 170.431 118.782C170.614 118.695 170.78 118.613 170.93 118.537C171.08 118.461 171.232 118.432 171.387 118.451C171.572 118.473 171.741 118.564 171.894 118.723C172.065 118.869 172.241 119.093 172.424 119.397C172.597 119.653 172.678 119.889 172.667 120.107C172.672 120.327 172.601 120.53 172.453 120.716C172.321 120.903 172.114 121.066 171.831 121.204C171.624 121.367 171.323 121.527 170.928 121.683C170.551 121.826 170.115 121.938 169.62 122.019C169.14 122.103 168.646 122.114 168.137 122.052ZM175.847 122.931C175.43 122.881 175.13 122.775 174.946 122.612C174.76 122.464 174.656 122.287 174.634 122.081C174.613 121.859 174.619 121.617 174.651 121.355L175.684 112.744C175.714 112.497 175.764 112.276 175.834 112.081C175.922 111.872 176.066 111.717 176.266 111.616C176.481 111.517 176.805 111.493 177.237 111.545C177.669 111.597 177.97 111.695 178.141 111.841C178.327 111.989 178.43 112.173 178.45 112.395C178.47 112.617 178.465 112.858 178.433 113.121L177.402 121.709C177.371 121.971 177.319 122.208 177.247 122.418C177.176 122.613 177.034 122.76 176.818 122.86C176.618 122.961 176.294 122.985 175.847 122.931ZM177.484 109.297C177.036 109.243 176.712 109.141 176.51 108.992C176.326 108.829 176.217 108.628 176.184 108.389C176.165 108.152 176.172 107.895 176.206 107.617C176.241 107.324 176.295 107.072 176.367 106.861C176.455 106.653 176.614 106.5 176.845 106.402C177.077 106.289 177.418 106.26 177.865 106.313C178.328 106.369 178.652 106.478 178.836 106.641C179.019 106.804 179.128 107.005 179.162 107.244C179.198 107.467 179.198 107.726 179.163 108.019C179.132 108.281 179.071 108.524 178.982 108.749C178.892 108.973 178.74 109.134 178.524 109.234C178.309 109.333 177.962 109.354 177.484 109.297ZM185.261 124.202C184.258 124.082 183.397 123.814 182.68 123.399C181.978 122.986 181.406 122.471 180.964 121.855C180.538 121.224 180.236 120.546 180.057 119.82C179.895 119.081 179.86 118.333 179.951 117.577C180.084 116.466 180.457 115.509 181.07 114.705C181.683 113.902 182.467 113.308 183.421 112.921C184.391 112.537 185.463 112.415 186.635 112.556C187.469 112.656 188.186 112.875 188.787 113.213C189.388 113.551 189.871 113.962 190.236 114.444C190.618 114.912 190.887 115.414 191.042 115.949C191.212 116.486 191.269 116.994 191.211 117.473C191.113 118.291 190.841 118.861 190.395 119.183C189.965 119.507 189.457 119.634 188.87 119.563L182.759 118.83C182.712 119.356 182.819 119.831 183.081 120.254C183.359 120.678 183.724 121.028 184.177 121.301C184.646 121.561 185.136 121.721 185.645 121.783C186.031 121.829 186.373 121.847 186.672 121.835C186.986 121.826 187.255 121.804 187.478 121.768C187.704 121.717 187.898 121.662 188.062 121.603C188.241 121.546 188.404 121.495 188.55 121.45C188.696 121.405 188.832 121.382 188.957 121.382C189.129 121.387 189.294 121.446 189.453 121.559C189.611 121.672 189.731 121.85 189.811 122.095C189.885 122.26 189.929 122.414 189.943 122.557C189.975 122.686 189.983 122.812 189.968 122.936C189.931 123.244 189.711 123.515 189.307 123.749C188.905 123.966 188.355 124.12 187.655 124.208C186.969 124.313 186.171 124.311 185.261 124.202ZM182.956 117.186L187.702 117.756C187.964 117.787 188.169 117.773 188.318 117.712C188.468 117.636 188.559 117.46 188.593 117.182C188.635 116.827 188.565 116.497 188.382 116.194C188.202 115.875 187.935 115.616 187.583 115.417C187.233 115.203 186.811 115.066 186.318 115.007C185.747 114.938 185.216 114.992 184.725 115.168C184.236 115.328 183.83 115.585 183.506 115.937C183.197 116.291 183.014 116.708 182.956 117.186ZM193.615 125.041C193.198 124.991 192.898 124.884 192.714 124.721C192.544 124.575 192.447 124.4 192.425 124.193C192.405 123.972 192.41 123.73 192.442 123.467L193.481 114.81C193.511 114.563 193.561 114.342 193.631 114.147C193.702 113.952 193.844 113.812 194.057 113.728C194.273 113.629 194.589 113.604 195.005 113.654C195.376 113.699 195.648 113.778 195.822 113.893C195.996 114.008 196.106 114.139 196.151 114.285C196.196 114.431 196.21 114.574 196.193 114.713C196.192 114.854 196.195 114.963 196.201 115.042L196.019 115.772C196.141 115.536 196.325 115.316 196.568 115.11C196.812 114.904 197.1 114.728 197.43 114.579C197.763 114.416 198.113 114.301 198.481 114.236C198.867 114.157 199.252 114.141 199.638 114.187C200.363 114.274 200.996 114.483 201.535 114.814C202.075 115.145 202.516 115.574 202.86 116.1C203.219 116.629 203.467 117.238 203.604 117.927C203.742 118.601 203.762 119.347 203.664 120.165L203.111 124.772C203.079 125.034 203.02 125.269 202.932 125.478C202.862 125.673 202.726 125.821 202.526 125.923C202.326 126.024 202.003 126.048 201.555 125.994C201.123 125.942 200.815 125.834 200.631 125.672C200.445 125.524 200.341 125.347 200.319 125.141C200.299 124.919 200.304 124.677 200.336 124.415L200.889 119.808C200.955 119.253 200.912 118.762 200.76 118.337C200.623 117.914 200.382 117.572 200.038 117.311C199.709 117.052 199.266 116.89 198.711 116.823C198.171 116.758 197.686 116.818 197.257 117.001C196.83 117.169 196.484 117.44 196.22 117.816C195.956 118.191 195.791 118.649 195.726 119.189L195.171 123.818C195.139 124.081 195.087 124.317 195.015 124.528C194.945 124.723 194.802 124.87 194.586 124.969C194.386 125.071 194.063 125.094 193.615 125.041ZM210.599 127.103C209.843 127.012 209.204 126.857 208.682 126.638C208.16 126.419 207.749 126.127 207.449 125.762C207.148 125.397 206.944 124.95 206.835 124.42C206.744 123.877 206.741 123.251 206.826 122.541L208.004 112.726C208.037 112.448 208.089 112.211 208.16 112.016C208.245 111.823 208.387 111.684 208.586 111.598C208.801 111.499 209.117 111.474 209.534 111.524C209.966 111.576 210.267 111.675 210.437 111.82C210.623 111.968 210.726 112.152 210.747 112.374C210.784 112.582 210.788 112.809 210.759 113.056L209.591 122.779C209.553 123.103 209.544 123.368 209.566 123.574C209.604 123.782 209.67 123.947 209.766 124.068C209.878 124.175 210.024 124.263 210.203 124.332C210.4 124.387 210.638 124.431 210.916 124.464C211.209 124.499 211.453 124.552 211.648 124.622C211.858 124.695 212.007 124.83 212.092 125.028C212.18 125.211 212.2 125.503 212.152 125.904C212.1 126.336 211.992 126.644 211.829 126.828C211.684 126.998 211.5 127.094 211.278 127.114C211.072 127.136 210.846 127.133 210.599 127.103ZM206.733 115.297L209.114 115.606L212.32 115.897C212.582 115.929 212.81 115.987 213.003 116.073C213.213 116.145 213.368 116.289 213.468 116.505C213.569 116.705 213.594 117.021 213.542 117.453C213.494 117.854 213.396 118.148 213.248 118.333C213.101 118.519 212.923 118.631 212.715 118.669C212.509 118.691 212.274 118.686 212.012 118.655L208.916 118.236L206.344 117.951C205.96 117.889 205.702 117.749 205.572 117.529C205.459 117.297 205.432 116.941 205.489 116.463C205.543 116.015 205.666 115.701 205.86 115.521C206.071 115.327 206.362 115.253 206.733 115.297Z" fill="white"/>
</g>
<path d="M39.33 148.416C33.3209 153.18 25.1906 154.659 17.7534 155.96C17.7534 155.96 17.3117 156.014 17.3248 156.262C17.3379 156.511 17.7816 156.492 17.7816 156.492C23.7173 156.734 29.706 156.382 35.4731 154.694C11.8793 189.028 31.728 241.183 64.4749 262.344C64.4749 262.344 64.907 262.695 65.1611 262.37C65.4152 262.045 64.9418 261.586 64.9418 261.586C49.5951 248.852 37.0522 225.814 34.0705 210.956C29.8068 189.677 32.0759 175.902 37.4822 157.71C35.7412 163.555 39.6855 170.964 45.3651 174.017C45.3651 174.017 45.6634 174.192 45.7817 174.075C45.9 173.957 45.7582 173.631 45.7582 173.631C43.7957 169.057 43.3926 164.121 43.0496 159.23C42.577 155.411 42.5222 151.552 42.8862 147.722C42.9036 147.512 42.8582 147.302 42.7558 147.119C42.6534 146.936 42.4987 146.787 42.3114 146.692C42.1241 146.597 41.9126 146.559 41.7041 146.585C41.4956 146.611 41.2995 146.698 41.1408 146.835L39.33 148.416Z" fill="#2540CE"/>
<defs>
<clipPath id="clip0_1740_1844">
<path d="M49 194C49 185.163 56.1634 178 65 178L617 178C625.837 178 633 185.163 633 194V393H49L49 194Z" fill="white"/>
</clipPath>
<clipPath id="clip1_1740_1844">
<rect width="18.6567" height="22.3881" fill="white" transform="translate(80 206.806)"/>
</clipPath>
<clipPath id="clip2_1740_1844">
<rect x="22.1982" y="69" width="213" height="52" rx="6.66132" transform="rotate(6.84594 22.1982 69)" fill="white"/>
</clipPath>
</defs>
</svg>
