<svg xmlns="http://www.w3.org/2000/svg" version="1.1" viewBox="-5.0 -10.0 110.0 135.0">
 <g>
  <path d="m82.508 75.941h-65.016c-2.7539 0-4.9922-2.2344-4.9922-4.9922v-31.148c0-2.75 2.2344-4.9922 4.9922-4.9922h47.789c0.66797 0 1.2109 0.54297 1.2109 1.2109s-0.54297 1.2109-1.2109 1.2109h-47.789c-1.4141 0-2.5703 1.1523-2.5703 2.5703v31.148c0 1.4141 1.1523 2.5703 2.5703 2.5703h65.02c1.4141 0 2.5703-1.1523 2.5703-2.5703l-0.003906-31.148c0-1.2539-0.93359-2.3477-2.1719-2.5391-0.66016-0.10156-1.1133-0.71875-1.0117-1.3828 0.10156-0.66016 0.71875-1.1133 1.3828-1.0117 1.168 0.17969 2.2344 0.77344 3.0078 1.6719 0.78125 0.90234 1.2148 2.0664 1.2148 3.2617v31.148c0 2.7539-2.2344 4.9922-4.9922 4.9922z"/>
  <path d="m74.195 50.539c-0.25391 0-0.51172-0.082031-0.72656-0.24219-3.1406-2.3516-5.7227-5.4531-7.4805-8.9609-1.7539-3.5117-2.6797-7.4375-2.6797-11.363v-2.418c0-0.46094 0.25781-0.87891 0.66797-1.0859 3.1523-1.5781 6.6875-2.4141 10.219-2.4141s7.0625 0.83594 10.219 2.4141c0.41016 0.20312 0.66797 0.625 0.66797 1.0859v2.418c0 3.9219-0.92969 7.8516-2.6797 11.363-1.7539 3.5117-4.3398 6.6055-7.4805 8.9609-0.21875 0.16406-0.47266 0.24219-0.72656 0.24219zm-8.4688-22.223v1.6562c0 6.8906 3.1484 13.48 8.4688 17.816 5.3164-4.3359 8.4688-10.934 8.4688-17.816v-1.6562c-5.3594-2.4336-11.586-2.4336-16.938 0z"/>
  <path d="m72.984 38.441c-0.30859 0-0.62109-0.11719-0.85547-0.35547l-1.8164-1.8164c-0.47266-0.47266-0.47266-1.2422 0-1.7109 0.47266-0.47266 1.2422-0.47266 1.7109 0l0.95703 0.95703 3.9844-3.9844c0.47266-0.47266 1.2422-0.47266 1.7109 0 0.47266 0.47266 0.47266 1.2422 0 1.7109l-4.8398 4.8398c-0.23438 0.23828-0.53906 0.35938-0.85156 0.35938z"/>
  <path d="m86.289 50.539h-72.578c-0.66797 0-1.2109-0.54297-1.2109-1.2109v-4.8398c0-0.66797 0.54297-1.2109 1.2109-1.2109h55.746c0.66797 0 1.2109 0.54297 1.2109 1.2109s-0.54297 1.2109-1.2109 1.2109h-54.539v2.418h70.16v-2.418h-6.1484c-0.66797 0-1.2109-0.54297-1.2109-1.2109s0.54297-1.2109 1.2109-1.2109h7.3594c0.66797 0 1.2109 0.54297 1.2109 1.2109v4.8398c0 0.66797-0.54297 1.2109-1.2109 1.2109z"/>
  <path d="m25.805 71.102h-7.2539c-0.66797 0-1.2109-0.54297-1.2109-1.2109v-4.8398c0-0.66797 0.54297-1.2109 1.2109-1.2109h7.2578c0.66797 0 1.2109 0.54297 1.2109 1.2109v4.8398c-0.003906 0.67188-0.54297 1.2109-1.2148 1.2109zm-6.0469-2.4219h4.8398v-2.418h-4.8398z"/>
 </g>
<text x="0.0" y="117.5" font-size="5.0" font-weight="bold" font-family="Arbeit Regular, Helvetica, Arial-Unicode, Arial, Sans-serif" fill="#000000">Created by Iconbunny</text><text x="0.0" y="122.5" font-size="5.0" font-weight="bold" font-family="Arbeit Regular, Helvetica, Arial-Unicode, Arial, Sans-serif" fill="#000000">from Noun Project</text></svg>