<?xml version="1.0" standalone="yes"?>
<svg xmlns="http://www.w3.org/2000/svg" width="776" height="776">
<path style="fill:#ffffff; stroke:none;" d="M0 0L0 776L776 776L776 0L0 0z"/>
<path style="fill:#b5b4b4; stroke:none;" d="M306 118L307 119L306 118M294.667 119.333L295.333 119.667L294.667 119.333z"/>
<path style="fill:#838181; stroke:none;" d="M296 119L296 120L299 120L296 119z"/>
<path style="fill:#373535; stroke:none;" d="M473 519C472.101 530.378 469.301 541.745 467.414 553C464.079 572.885 463.438 594.99 445 607.402C431.143 616.73 416.348 613.622 401 611.08L329 599.08C311.321 596.152 293.681 593.009 276 590.08C265.76 588.384 254.457 587.749 245 583.214C231.412 576.699 220.585 561.569 221.375 546C223.115 511.697 232.481 475.801 238.576 442C248.347 387.803 256.92 333.331 265.92 279C269.675 256.331 273.164 233.586 277.389 211C279.784 198.198 280.641 185.379 289.619 175.089C305.651 156.714 325.916 161.428 347 164.92C386.682 171.492 426.321 178.348 466 184.92C484.855 188.043 503.314 189.573 514.895 207C523.373 219.758 521.267 232.829 518.92 247C515.587 267.119 509.42 288.635 509 309C521.202 304.533 532.762 295.946 544 289.424C548.438 286.849 554.982 284.526 558.258 280.471C563.238 274.307 562.966 259.688 564.247 252C569.877 218.22 569.583 186.469 539 164.159C520.261 150.489 494.163 149.751 472 146.08C431.986 139.453 392.017 132.548 352 125.92C329.357 122.169 306.668 115.575 284 122.439C236.981 136.676 235.343 186.708 228.586 227C212.654 322.01 196.519 416.99 180.586 512C174.719 546.988 168.729 582.446 200.001 607.905C205.417 612.314 211.519 615.929 218 618.547C236.117 625.864 257.822 626.904 277 630.08C313.349 636.101 349.662 642.32 386 648.414C411.285 652.654 438.072 660.846 463 651.189C498.015 637.624 504.744 606.016 510.247 573C511.478 565.615 517.12 550.342 514.357 543.329C512.917 539.673 507.146 537.673 504 535.799C494.356 530.056 483.79 522.174 473 519z"/>
<path style="fill:#838181; stroke:none;" d="M313.667 119.333L314.333 119.667L313.667 119.333z"/>
<path style="fill:#b5b4b4; stroke:none;" d="M315.667 119.333L316.333 119.667L315.667 119.333M289 120L290 121L289 120z"/>
<path style="fill:#838181; stroke:none;" d="M290.667 120.333L291.333 120.667L290.667 120.333M320 120L321 121L320 120z"/>
<path style="fill:#b5b4b4; stroke:none;" d="M321.667 120.333L322.333 120.667L321.667 120.333M285.667 121.333L286.333 121.667L285.667 121.333z"/>
<path style="fill:#838181; stroke:none;" d="M287 121L288 122L287 121M325.667 121.333L326.333 121.667L325.667 121.333z"/>
<path style="fill:#b5b4b4; stroke:none;" d="M327.667 121.333L328.333 121.667L327.667 121.333M282 122L283 123L282 122z"/>
<path style="fill:#838181; stroke:none;" d="M283 122L284 123L283 122M331.667 122.333L332.333 122.667L331.667 122.333z"/>
<path style="fill:#b5b4b4; stroke:none;" d="M333.667 122.333L334.333 122.667L333.667 122.333M280 123L281 124L280 123z"/>
<path style="fill:#838181; stroke:none;" d="M337.667 123.333L338.333 123.667L337.667 123.333z"/>
<path style="fill:#b5b4b4; stroke:none;" d="M339.667 123.333L340.333 123.667L339.667 123.333M277 124L278 125L277 124z"/>
<path style="fill:#838181; stroke:none;" d="M278 124L279 125L278 124M343.667 124.333L344.333 124.667L343.667 124.333z"/>
<path style="fill:#b5b4b4; stroke:none;" d="M345.667 124.333L346.333 124.667L345.667 124.333M275 125L276 126L275 125z"/>
<path style="fill:#838181; stroke:none;" d="M276 125L277 126L276 125M349.667 125.333L350.333 125.667L349.667 125.333z"/>
<path style="fill:#b5b4b4; stroke:none;" d="M351.667 125.333L352.333 125.667L351.667 125.333M273 126L274 127L273 126z"/>
<path style="fill:#838181; stroke:none;" d="M274 126L275 127L274 126M355.667 126.333L356.333 126.667L355.667 126.333z"/>
<path style="fill:#b5b4b4; stroke:none;" d="M357.667 126.333L358.333 126.667L357.667 126.333M271 127L272 128L271 127z"/>
<path style="fill:#838181; stroke:none;" d="M272 127L273 128L272 127M361.667 127.333L362.333 127.667L361.667 127.333z"/>
<path style="fill:#b5b4b4; stroke:none;" d="M363.667 127.333L364.333 127.667L363.667 127.333z"/>
<path style="fill:#838181; stroke:none;" d="M270 128L271 129L270 128M367.667 128.333L368.333 128.667L367.667 128.333z"/>
<path style="fill:#b5b4b4; stroke:none;" d="M369.667 128.333L370.333 128.667L369.667 128.333M268 129L269 130L268 129z"/>
<path style="fill:#838181; stroke:none;" d="M373.667 129.333L374.333 129.667L373.667 129.333z"/>
<path style="fill:#b5b4b4; stroke:none;" d="M375.667 129.333L376.333 129.667L375.667 129.333z"/>
<path style="fill:#838181; stroke:none;" d="M267 130L268 131L267 130M379.667 130.333L380.333 130.667L379.667 130.333z"/>
<path style="fill:#b5b4b4; stroke:none;" d="M381.667 130.333L382.333 130.667L381.667 130.333M265 131L266 132L265 131z"/>
<path style="fill:#838181; stroke:none;" d="M385.667 131.333L386.333 131.667L385.667 131.333z"/>
<path style="fill:#b5b4b4; stroke:none;" d="M387.667 131.333L388.333 131.667L387.667 131.333z"/>
<path style="fill:#838181; stroke:none;" d="M264 132L265 133L264 132M391.667 132.333L392.333 132.667L391.667 132.333z"/>
<path style="fill:#b5b4b4; stroke:none;" d="M393.667 132.333L394.333 132.667L393.667 132.333M262 133L263 134L262 133z"/>
<path style="fill:#838181; stroke:none;" d="M397.667 133.333L398.333 133.667L397.667 133.333z"/>
<path style="fill:#b5b4b4; stroke:none;" d="M399.667 133.333L400.333 133.667L399.667 133.333M261 134L262 135L261 134z"/>
<path style="fill:#838181; stroke:none;" d="M403.667 134.333L404.333 134.667L403.667 134.333z"/>
<path style="fill:#b5b4b4; stroke:none;" d="M405.667 134.333L406.333 134.667L405.667 134.333z"/>
<path style="fill:#838181; stroke:none;" d="M260 135L261 136L260 135M409.667 135.333L410.333 135.667L409.667 135.333z"/>
<path style="fill:#b5b4b4; stroke:none;" d="M411.667 135.333L412.333 135.667L411.667 135.333z"/>
<path style="fill:#838181; stroke:none;" d="M259 136L260 137L259 136M415.667 136.333L416.333 136.667L415.667 136.333z"/>
<path style="fill:#b5b4b4; stroke:none;" d="M417 136L418 137L417 136z"/>
<path style="fill:#838181; stroke:none;" d="M258 137L259 138L258 137M421.667 137.333L422.333 137.667L421.667 137.333z"/>
<path style="fill:#b5b4b4; stroke:none;" d="M423 137L424 138L423 137z"/>
<path style="fill:#838181; stroke:none;" d="M427 138L428 139L427 138z"/>
<path style="fill:#b5b4b4; stroke:none;" d="M428.667 138.333L429.333 138.667L428.667 138.333z"/>
<path style="fill:#838181; stroke:none;" d="M433 139L434 140L433 139z"/>
<path style="fill:#b5b4b4; stroke:none;" d="M434.667 139.333L435.333 139.667L434.667 139.333z"/>
<path style="fill:#838181; stroke:none;" d="M439 140L440 141L439 140z"/>
<path style="fill:#b5b4b4; stroke:none;" d="M440.667 140.333L441.333 140.667L440.667 140.333z"/>
<path style="fill:#838181; stroke:none;" d="M254 141L255 142L254 141M444.667 141.333L445.333 141.667L444.667 141.333z"/>
<path style="fill:#b5b4b4; stroke:none;" d="M446.667 141.333L447.333 141.667L446.667 141.333z"/>
<path style="fill:#838181; stroke:none;" d="M253 142L254 143L253 142M450.667 142.333L451.333 142.667L450.667 142.333z"/>
<path style="fill:#b5b4b4; stroke:none;" d="M452.667 142.333L453.333 142.667L452.667 142.333z"/>
<path style="fill:#838181; stroke:none;" d="M252 143L253 144L252 143M456.667 143.333L457.333 143.667L456.667 143.333z"/>
<path style="fill:#b5b4b4; stroke:none;" d="M458.667 143.333L459.333 143.667L458.667 143.333M251 144L252 145L251 144z"/>
<path style="fill:#838181; stroke:none;" d="M462.667 144.333L463.333 144.667L462.667 144.333z"/>
<path style="fill:#b5b4b4; stroke:none;" d="M464.667 144.333L465.333 144.667L464.667 144.333M250 145L251 146L250 145z"/>
<path style="fill:#838181; stroke:none;" d="M468.667 145.333L469.333 145.667L468.667 145.333z"/>
<path style="fill:#b5b4b4; stroke:none;" d="M470.667 145.333L471.333 145.667L470.667 145.333z"/>
<path style="fill:#838181; stroke:none;" d="M474.667 146.333L475.333 146.667L474.667 146.333z"/>
<path style="fill:#b5b4b4; stroke:none;" d="M476.667 146.333L477.333 146.667L476.667 146.333z"/>
<path style="fill:#838181; stroke:none;" d="M249 147L250 148L249 147M480.667 147.333L481.333 147.667L480.667 147.333z"/>
<path style="fill:#b5b4b4; stroke:none;" d="M482.667 147.333L483.333 147.667L482.667 147.333z"/>
<path style="fill:#838181; stroke:none;" d="M248 148L249 149L248 148M486.667 148.333L487.333 148.667L486.667 148.333z"/>
<path style="fill:#b5b4b4; stroke:none;" d="M488.667 148.333L489.333 148.667L488.667 148.333M247 149L248 150L247 149z"/>
<path style="fill:#838181; stroke:none;" d="M492.667 149.333L493.333 149.667L492.667 149.333z"/>
<path style="fill:#b5b4b4; stroke:none;" d="M494.667 149.333L495.333 149.667L494.667 149.333z"/>
<path style="fill:#838181; stroke:none;" d="M498.667 150.333L499.333 150.667L498.667 150.333z"/>
<path style="fill:#b5b4b4; stroke:none;" d="M500.667 150.333L501.333 150.667L500.667 150.333z"/>
<path style="fill:#838181; stroke:none;" d="M246 151L247 152L246 151M504.667 151.333L505.333 151.667L504.667 151.333z"/>
<path style="fill:#b5b4b4; stroke:none;" d="M506.667 151.333L507.333 151.667L506.667 151.333z"/>
<path style="fill:#838181; stroke:none;" d="M510.667 152.333L511.333 152.667L510.667 152.333z"/>
<path style="fill:#b5b4b4; stroke:none;" d="M512 152L513 153L512 152z"/>
<path style="fill:#838181; stroke:none;" d="M245 153L246 154L245 153M515 153L516 154L515 153z"/>
<path style="fill:#b5b4b4; stroke:none;" d="M516 153L517 154L516 153M244 154L245 155L244 154z"/>
<path style="fill:#838181; stroke:none;" d="M519 154L520 155L519 154z"/>
<path style="fill:#b5b4b4; stroke:none;" d="M520 154L521 155L520 154z"/>
<path style="fill:#838181; stroke:none;" d="M522 155L523 156L522 155z"/>
<path style="fill:#b5b4b4; stroke:none;" d="M243 156L244 157L243 156z"/>
<path style="fill:#838181; stroke:none;" d="M524 156L525 157L524 156z"/>
<path style="fill:#b5b4b4; stroke:none;" d="M525 156L526 157L525 156z"/>
<path style="fill:#838181; stroke:none;" d="M527 157L528 158L527 157z"/>
<path style="fill:#b5b4b4; stroke:none;" d="M242 158L243 159L242 158z"/>
<path style="fill:#838181; stroke:none;" d="M529 158L530 159L529 158M531 159L532 160L531 159z"/>
<path style="fill:#b5b4b4; stroke:none;" d="M241 160L242 161L241 160M533 160L534 161L533 160z"/>
<path style="fill:#838181; stroke:none;" d="M241 161L242 162L241 161M312.667 161.333L313.333 161.667L312.667 161.333z"/>
<path style="fill:#b5b4b4; stroke:none;" d="M314 161L314 162L317 162L314 161M323 161L323 162L326 162L323 161z"/>
<path style="fill:#838181; stroke:none;" d="M326.667 161.333L327.333 161.667L326.667 161.333z"/>
<path style="fill:#b5b4b4; stroke:none;" d="M535 161L536 162L535 161z"/>
<path style="fill:#838181; stroke:none;" d="M308 162L309 163L308 162z"/>
<path style="fill:#b5b4b4; stroke:none;" d="M309 162L310 163L309 162M330.667 162.333L331.333 162.667L330.667 162.333z"/>
<path style="fill:#838181; stroke:none;" d="M332.667 162.333L333.333 162.667L332.667 162.333M536 162L537 163L536 162M240 163L241 164L240 163M305 163L306 164L305 163z"/>
<path style="fill:#b5b4b4; stroke:none;" d="M306 163L307 164L306 163M336.667 163.333L337.333 163.667L336.667 163.333z"/>
<path style="fill:#838181; stroke:none;" d="M338 163L339 164L338 163z"/>
<path style="fill:#b5b4b4; stroke:none;" d="M538 163L539 164L538 163z"/>
<path style="fill:#838181; stroke:none;" d="M303 164L304 165L303 164z"/>
<path style="fill:#b5b4b4; stroke:none;" d="M342.667 164.333L343.333 164.667L342.667 164.333z"/>
<path style="fill:#838181; stroke:none;" d="M344 164L345 165L344 164M539 164L540 165L539 164z"/>
<path style="fill:#b5b4b4; stroke:none;" d="M239 165L240 166L239 165z"/>
<path style="fill:#838181; stroke:none;" d="M301 165L302 166L301 165z"/>
<path style="fill:#b5b4b4; stroke:none;" d="M348.667 165.333L349.333 165.667L348.667 165.333z"/>
<path style="fill:#838181; stroke:none;" d="M350 165L351 166L350 165M540 165L541 166L540 165M239 166L240 167L239 166M299 166L300 167L299 166z"/>
<path style="fill:#b5b4b4; stroke:none;" d="M354 166L355 167L354 166z"/>
<path style="fill:#838181; stroke:none;" d="M355.667 166.333L356.333 166.667L355.667 166.333z"/>
<path style="fill:#b5b4b4; stroke:none;" d="M542 166L543 167L542 166M298 167L299 168L298 167M360 167L361 168L360 167z"/>
<path style="fill:#838181; stroke:none;" d="M361.667 167.333L362.333 167.667L361.667 167.333z"/>
<path style="fill:#b5b4b4; stroke:none;" d="M543 167L544 168L543 167M238 168L239 169L238 168z"/>
<path style="fill:#838181; stroke:none;" d="M296 168L297 169L296 168z"/>
<path style="fill:#b5b4b4; stroke:none;" d="M366 168L367 169L366 168z"/>
<path style="fill:#838181; stroke:none;" d="M367.667 168.333L368.333 168.667L367.667 168.333M544 168L545 169L544 168M238 169L239 170L238 169z"/>
<path style="fill:#b5b4b4; stroke:none;" d="M295 169L296 170L295 169M371.667 169.333L372.333 169.667L371.667 169.333z"/>
<path style="fill:#838181; stroke:none;" d="M373.667 169.333L374.333 169.667L373.667 169.333M545 169L546 170L545 169z"/>
<path style="fill:#b5b4b4; stroke:none;" d="M377.667 170.333L378.333 170.667L377.667 170.333z"/>
<path style="fill:#838181; stroke:none;" d="M379.667 170.333L380.333 170.667L379.667 170.333M546 170L547 171L546 170z"/>
<path style="fill:#b5b4b4; stroke:none;" d="M383.667 171.333L384.333 171.667L383.667 171.333z"/>
<path style="fill:#838181; stroke:none;" d="M385.667 171.333L386.333 171.667L385.667 171.333M547 171L548 172L547 171z"/>
<path style="fill:#b5b4b4; stroke:none;" d="M237 172L238 173L237 172z"/>
<path style="fill:#838181; stroke:none;" d="M291 172L292 173L291 172z"/>
<path style="fill:#b5b4b4; stroke:none;" d="M389.667 172.333L390.333 172.667L389.667 172.333z"/>
<path style="fill:#838181; stroke:none;" d="M391.667 172.333L392.333 172.667L391.667 172.333M548 172L549 173L548 172M237 173L238 174L237 173M290 173L291 174L290 173z"/>
<path style="fill:#b5b4b4; stroke:none;" d="M395.667 173.333L396.333 173.667L395.667 173.333z"/>
<path style="fill:#838181; stroke:none;" d="M397.667 173.333L398.333 173.667L397.667 173.333M549 173L550 174L549 173z"/>
<path style="fill:#b5b4b4; stroke:none;" d="M401.667 174.333L402.333 174.667L401.667 174.333z"/>
<path style="fill:#838181; stroke:none;" d="M403.667 174.333L404.333 174.667L403.667 174.333M550 174L551 175L550 174z"/>
<path style="fill:#b5b4b4; stroke:none;" d="M407.667 175.333L408.333 175.667L407.667 175.333z"/>
<path style="fill:#838181; stroke:none;" d="M409.667 175.333L410.333 175.667L409.667 175.333M551 175L552 176L551 175z"/>
<path style="fill:#b5b4b4; stroke:none;" d="M236.333 176.667L236.667 177.333L236.333 176.667M288 176L289 177L288 176M413.667 176.333L414.333 176.667L413.667 176.333z"/>
<path style="fill:#838181; stroke:none;" d="M415.667 176.333L416.333 176.667L415.667 176.333z"/>
<path style="fill:#b5b4b4; stroke:none;" d="M552 176L553 177L552 176M287 177L288 178L287 177M419.667 177.333L420.333 177.667L419.667 177.333z"/>
<path style="fill:#838181; stroke:none;" d="M421.667 177.333L422.333 177.667L421.667 177.333z"/>
<path style="fill:#b5b4b4; stroke:none;" d="M553 177L554 178L553 177z"/>
<path style="fill:#838181; stroke:none;" d="M236.333 178.667L236.667 179.333L236.333 178.667M286 178L287 179L286 178z"/>
<path style="fill:#b5b4b4; stroke:none;" d="M425.667 178.333L426.333 178.667L425.667 178.333z"/>
<path style="fill:#838181; stroke:none;" d="M427.667 178.333L428.333 178.667L427.667 178.333z"/>
<path style="fill:#b5b4b4; stroke:none;" d="M431.667 179.333L432.333 179.667L431.667 179.333z"/>
<path style="fill:#838181; stroke:none;" d="M433.667 179.333L434.333 179.667L433.667 179.333M554 179L555 180L554 179z"/>
<path style="fill:#b5b4b4; stroke:none;" d="M285 180L286 181L285 180M437.667 180.333L438.333 180.667L437.667 180.333z"/>
<path style="fill:#838181; stroke:none;" d="M439.667 180.333L440.333 180.667L439.667 180.333z"/>
<path style="fill:#b5b4b4; stroke:none;" d="M555 180L556 181L555 180M443.667 181.333L444.333 181.667L443.667 181.333z"/>
<path style="fill:#838181; stroke:none;" d="M445.667 181.333L446.333 181.667L445.667 181.333z"/>
<path style="fill:#b5b4b4; stroke:none;" d="M556 181L557 182L556 181M235.333 182.667L235.667 183.333L235.333 182.667M284 182L285 183L284 182M449.667 182.333L450.333 182.667L449.667 182.333z"/>
<path style="fill:#838181; stroke:none;" d="M451.667 182.333L452.333 182.667L451.667 182.333z"/>
<path style="fill:#b5b4b4; stroke:none;" d="M455.667 183.333L456.333 183.667L455.667 183.333z"/>
<path style="fill:#838181; stroke:none;" d="M457 183L458 184L457 183M557 183L558 184L557 183M235.333 184.667L235.667 185.333L235.333 184.667z"/>
<path style="fill:#b5b4b4; stroke:none;" d="M283 184L284 185L283 184M461.667 184.333L462.333 184.667L461.667 184.333z"/>
<path style="fill:#838181; stroke:none;" d="M463 184L464 185L463 184z"/>
<path style="fill:#b5b4b4; stroke:none;" d="M467.667 185.333L468.333 185.667L467.667 185.333z"/>
<path style="fill:#838181; stroke:none;" d="M469 185L470 186L469 185M558 185L559 186L558 185M282 186L283 187L282 186z"/>
<path style="fill:#b5b4b4; stroke:none;" d="M473 186L474 187L473 186z"/>
<path style="fill:#838181; stroke:none;" d="M474.667 186.333L475.333 186.667L474.667 186.333z"/>
<path style="fill:#b5b4b4; stroke:none;" d="M559 186L560 187L559 186M479 187L480 188L479 187z"/>
<path style="fill:#838181; stroke:none;" d="M480.667 187.333L481.333 187.667L480.667 187.333z"/>
<path style="fill:#b5b4b4; stroke:none;" d="M234.333 188.667L234.667 189.333L234.333 188.667M485 188L486 189L485 188z"/>
<path style="fill:#838181; stroke:none;" d="M486.667 188.333L487.333 188.667L486.667 188.333z"/>
<path style="fill:#b5b4b4; stroke:none;" d="M560 188L561 189L560 188z"/>
<path style="fill:#838181; stroke:none;" d="M281 189L282 190L281 189z"/>
<path style="fill:#b5b4b4; stroke:none;" d="M490 189L491 190L490 189z"/>
<path style="fill:#838181; stroke:none;" d="M491 189L492 190L491 189M234.333 190.667L234.667 191.333L234.333 190.667z"/>
<path style="fill:#b5b4b4; stroke:none;" d="M281 190L282 191L281 190M494 190L495 191L494 190M561 190L562 191L561 190M496 191L497 192L496 191z"/>
<path style="fill:#838181; stroke:none;" d="M497 191L498 192L497 191M280.333 192.667L280.667 193.333L280.333 192.667M499 192L500 193L499 192z"/>
<path style="fill:#b5b4b4; stroke:none;" d="M562 192L563 193L562 192z"/>
<path style="fill:#838181; stroke:none;" d="M501 193L502 194L501 193z"/>
<path style="fill:#b5b4b4; stroke:none;" d="M233.333 194.667L233.667 195.333L233.333 194.667M280 194L281 195L280 194M502 194L503 195L502 194M563 194L564 195L563 194z"/>
<path style="fill:#838181; stroke:none;" d="M504 195L505 196L504 195M563 195L564 196L563 195M233.333 196.667L233.667 197.333L233.333 196.667z"/>
<path style="fill:#b5b4b4; stroke:none;" d="M505 196L506 197L505 196M506 197L507 198L506 197M564 197L565 198L564 197z"/>
<path style="fill:#838181; stroke:none;" d="M279 198L280 199L279 198z"/>
<path style="fill:#b5b4b4; stroke:none;" d="M279.333 199.667L279.667 200.333L279.333 199.667M232.333 200.667L232.667 201.333L232.333 200.667M565 200L566 201L565 200z"/>
<path style="fill:#838181; stroke:none;" d="M565 201L566 202L565 201M232.333 202.667L232.667 203.333L232.333 202.667z"/>
<path style="fill:#b5b4b4; stroke:none;" d="M512 203L513 204L512 203M566 203L567 204L566 203z"/>
<path style="fill:#838181; stroke:none;" d="M278 204L279 205L278 204M513 204L514 205L513 204M566 204L567 205L566 204z"/>
<path style="fill:#b5b4b4; stroke:none;" d="M278.333 205.667L278.667 206.333L278.333 205.667M231.333 206.667L231.667 207.333L231.333 206.667z"/>
<path style="fill:#838181; stroke:none;" d="M515 207L516 208L515 207z"/>
<path style="fill:#b5b4b4; stroke:none;" d="M567.333 207.667L567.667 208.333L567.333 207.667z"/>
<path style="fill:#838181; stroke:none;" d="M231.333 208.667L231.667 209.333L231.333 208.667z"/>
<path style="fill:#b5b4b4; stroke:none;" d="M516 209L517 210L516 209z"/>
<path style="fill:#838181; stroke:none;" d="M567.333 209.667L567.667 210.333L567.333 209.667M277 210L278 211L277 210z"/>
<path style="fill:#b5b4b4; stroke:none;" d="M277.333 211.667L277.667 212.333L277.333 211.667M517 211L518 212L517 211M230.333 212.667L230.667 213.333L230.333 212.667z"/>
<path style="fill:#838181; stroke:none;" d="M518 213L519 214L518 213z"/>
<path style="fill:#b5b4b4; stroke:none;" d="M568 213L568 217L569 217L568 213z"/>
<path style="fill:#838181; stroke:none;" d="M230.333 214.667L230.667 215.333L230.333 214.667M276.333 215.667L276.667 216.333L276.333 215.667z"/>
<path style="fill:#b5b4b4; stroke:none;" d="M519.333 216.667L519.667 217.333L519.333 216.667M276.333 217.667L276.667 218.333L276.333 217.667z"/>
<path style="fill:#838181; stroke:none;" d="M568 217L568 225L569 225L568 217z"/>
<path style="fill:#b5b4b4; stroke:none;" d="M229.333 218.667L229.667 219.333L229.333 218.667M335.667 218.333L336.333 218.667L335.667 218.333z"/>
<path style="fill:#3abfe7; stroke:none;" d="M337 218.465C303.449 224.46 311.592 276.522 345 270.38C378.238 264.27 370.086 212.552 337 218.465z"/>
<path style="fill:#b5b4b4; stroke:none;" d="M345 218L346 219L345 218M332 219L333 220L332 219M349 219L350 220L349 219z"/>
<path style="fill:#838181; stroke:none;" d="M520 219L521 220L520 219M229.333 220.667L229.667 221.333L229.333 220.667z"/>
<path style="fill:#b5b4b4; stroke:none;" d="M351 220L352 221L351 220M520.333 220.667L520.667 221.333L520.333 220.667z"/>
<path style="fill:#838181; stroke:none;" d="M275.333 221.667L275.667 222.333L275.333 221.667z"/>
<path style="fill:#b5b4b4; stroke:none;" d="M353 221L354 222L353 221M355 222L356 223L355 222M275.333 223.667L275.667 224.333L275.333 223.667M228.333 224.667L228.667 225.333L228.333 224.667M323 224L324 225L323 224M322 225L323 226L322 225M568 225L568 229L569 229L568 225z"/>
<path style="fill:#838181; stroke:none;" d="M228.333 226.667L228.667 227.333L228.333 226.667z"/>
<path style="fill:#b5b4b4; stroke:none;" d="M321 226L322 227L321 226z"/>
<path style="fill:#838181; stroke:none;" d="M521 226L521 231L522 231L521 226M274.333 227.667L274.667 228.333L274.333 227.667z"/>
<path style="fill:#b5b4b4; stroke:none;" d="M320 227L321 228L320 227M274.333 229.667L274.667 230.333L274.333 229.667M362 229L363 230L362 229M227.333 230.667L227.667 231.333L227.333 230.667M318 230L319 231L318 230z"/>
<path style="fill:#838181; stroke:none;" d="M227.333 232.667L227.667 233.333L227.333 232.667M567.333 232.667L567.667 233.333L567.333 232.667M273.333 233.667L273.667 234.333L273.333 233.667z"/>
<path style="fill:#b5b4b4; stroke:none;" d="M316 234L317 235L316 234M520.333 234.667L520.667 235.333L520.333 234.667M567.333 234.667L567.667 235.333L567.333 234.667M273.333 235.667L273.667 236.333L273.333 235.667M365 235L366 236L365 235M226.333 236.667L226.667 237.333L226.333 236.667z"/>
<path style="fill:#838181; stroke:none;" d="M520.333 236.667L520.667 237.333L520.333 236.667M226.333 238.667L226.667 239.333L226.333 238.667z"/>
<path style="fill:#b5b4b4; stroke:none;" d="M366 238L367 239L366 238z"/>
<path style="fill:#838181; stroke:none;" d="M566.333 238.667L566.667 239.333L566.333 238.667M272.333 239.667L272.667 240.333L272.333 239.667z"/>
<path style="fill:#b5b4b4; stroke:none;" d="M519.333 240.667L519.667 241.333L519.333 240.667M566 240L567 241L566 240M272.333 241.667L272.667 242.333L272.333 241.667M314 241L314 248L315 248L314 241M225.333 242.667L225.667 243.333L225.333 242.667z"/>
<path style="fill:#838181; stroke:none;" d="M519.333 242.667L519.667 243.333L519.333 242.667M225 244L226 245L225 244M565.333 244.667L565.667 245.333L565.333 244.667M271.333 245.667L271.667 246.333L271.333 245.667z"/>
<path style="fill:#b5b4b4; stroke:none;" d="M518.333 246.667L518.667 247.333L518.333 246.667M565 246L566 247L565 246M271.333 247.667L271.667 248.333L271.333 247.667M224.333 248.667L224.667 249.333L224.333 248.667z"/>
<path style="fill:#838181; stroke:none;" d="M518.333 248.667L518.667 249.333L518.333 248.667M224 250L225 251L224 250z"/>
<path style="fill:#b5b4b4; stroke:none;" d="M366 250L367 251L366 250z"/>
<path style="fill:#838181; stroke:none;" d="M564.333 250.667L564.667 251.333L564.333 250.667M270.333 251.667L270.667 252.333L270.333 251.667z"/>
<path style="fill:#b5b4b4; stroke:none;" d="M315 251L316 252L315 251M517.333 252.667L517.667 253.333L517.333 252.667M564 252L565 253L564 252M270.333 253.667L270.667 254.333L270.333 253.667M365 253L366 254L365 253M223.333 254.667L223.667 255.333L223.333 254.667M316 254L317 255L316 254z"/>
<path style="fill:#838181; stroke:none;" d="M517.333 254.667L517.667 255.333L517.333 254.667M223 256L224 257L223 256M563 256L564 257L563 256M269.333 257.667L269.667 258.333L269.333 257.667z"/>
<path style="fill:#b5b4b4; stroke:none;" d="M563.333 257.667L563.667 258.333L563.333 257.667M318 258L319 259L318 258M516.333 258.667L516.667 259.333L516.333 258.667M269.333 259.667L269.667 260.333L269.333 259.667M362 259L363 260L362 259M222 260L223 261L222 260z"/>
<path style="fill:#838181; stroke:none;" d="M516.333 260.667L516.667 261.333L516.333 260.667M222.333 261.667L222.667 262.333L222.333 261.667z"/>
<path style="fill:#b5b4b4; stroke:none;" d="M321 262L322 263L321 262z"/>
<path style="fill:#838181; stroke:none;" d="M562 262L563 263L562 262M268.333 263.667L268.667 264.333L268.333 263.667z"/>
<path style="fill:#b5b4b4; stroke:none;" d="M322 263L323 264L322 263M562.333 263.667L562.667 264.333L562.333 263.667M515.333 264.667L515.667 265.333L515.333 264.667M268.333 265.667L268.667 266.333L268.333 265.667M356 265L357 266L356 265M221 266L222 267L221 266M326 266L327 267L326 266z"/>
<path style="fill:#838181; stroke:none;" d="M515.333 266.667L515.667 267.333L515.333 266.667M221.333 267.667L221.667 268.333L221.333 267.667z"/>
<path style="fill:#b5b4b4; stroke:none;" d="M353 267L354 268L353 267M351 268L352 269L351 268z"/>
<path style="fill:#838181; stroke:none;" d="M561 268L562 269L561 268M267.333 269.667L267.667 270.333L267.333 269.667z"/>
<path style="fill:#b5b4b4; stroke:none;" d="M332 269L333 270L332 269M561.333 269.667L561.667 270.333L561.333 269.667M336.667 270.333L337.333 270.667L336.667 270.333M344 270L345 271L344 270M514.333 270.667L514.667 271.333L514.333 270.667M220.333 271.667L220.667 272.333L220.333 271.667M267.333 271.667L267.667 272.333L267.333 271.667z"/>
<path style="fill:#838181; stroke:none;" d="M514.333 272.667L514.667 273.333L514.333 272.667M220.333 273.667L220.667 274.333L220.333 273.667M560.333 273.667L560.667 274.333L560.333 273.667M266.333 275.667L266.667 276.333L266.333 275.667z"/>
<path style="fill:#b5b4b4; stroke:none;" d="M560.333 275.667L560.667 276.333L560.333 275.667M513.333 276.667L513.667 277.333L513.333 276.667M219.333 277.667L219.667 278.333L219.333 277.667M266.333 277.667L266.667 278.333L266.333 277.667z"/>
<path style="fill:#838181; stroke:none;" d="M513.333 278.667L513.667 279.333L513.333 278.667M219.333 279.667L219.667 280.333L219.333 279.667M559 279L560 280L559 279z"/>
<path style="fill:#b5b4b4; stroke:none;" d="M559 280L560 281L559 280z"/>
<path style="fill:#838181; stroke:none;" d="M265.333 281.667L265.667 282.333L265.333 281.667M557 281L558 282L557 281z"/>
<path style="fill:#b5b4b4; stroke:none;" d="M512.333 282.667L512.667 283.333L512.333 282.667M556 282L557 283L556 282M218.333 283.667L218.667 284.333L218.333 283.667M265.333 283.667L265.667 284.333L265.333 283.667M554 283L555 284L554 283z"/>
<path style="fill:#838181; stroke:none;" d="M512.333 284.667L512.667 285.333L512.333 284.667M552 284L553 285L552 284M218.333 285.667L218.667 286.333L218.333 285.667M550 285L551 286L550 285z"/>
<path style="fill:#b5b4b4; stroke:none;" d="M549 286L550 287L549 286z"/>
<path style="fill:#838181; stroke:none;" d="M264.333 287.667L264.667 288.333L264.333 287.667z"/>
<path style="fill:#b5b4b4; stroke:none;" d="M547 287L548 288L547 287M511.333 288.667L511.667 289.333L511.333 288.667z"/>
<path style="fill:#838181; stroke:none;" d="M545 288L546 289L545 288z"/>
<path style="fill:#b5b4b4; stroke:none;" d="M217.333 289.667L217.667 290.333L217.333 289.667M264.333 289.667L264.667 290.333L264.333 289.667z"/>
<path style="fill:#838181; stroke:none;" d="M543 289L544 290L543 289z"/>
<path style="fill:#b5b4b4; stroke:none;" d="M544 289L545 290L544 289z"/>
<path style="fill:#838181; stroke:none;" d="M511.333 290.667L511.667 291.333L511.333 290.667z"/>
<path style="fill:#b5b4b4; stroke:none;" d="M542 290L543 291L542 290z"/>
<path style="fill:#838181; stroke:none;" d="M217.333 291.667L217.667 292.333L217.333 291.667M540 291L541 292L540 291M538 292L539 293L538 292M263.333 293.667L263.667 294.333L263.333 293.667z"/>
<path style="fill:#b5b4b4; stroke:none;" d="M537 293L538 294L537 293M510.333 294.667L510.667 295.333L510.333 294.667M535 294L536 295L535 294M216.333 295.667L216.667 296.333L216.333 295.667M263.333 295.667L263.667 296.333L263.333 295.667z"/>
<path style="fill:#838181; stroke:none;" d="M533 295L534 296L533 295M510.333 296.667L510.667 297.333L510.333 296.667M531 296L532 297L531 296M216.333 297.667L216.667 298.333L216.333 297.667z"/>
<path style="fill:#b5b4b4; stroke:none;" d="M530 297L531 298L530 297M528 298L529 299L528 298z"/>
<path style="fill:#838181; stroke:none;" d="M262.333 299.667L262.667 300.333L262.333 299.667M526 299L527 300L526 299z"/>
<path style="fill:#b5b4b4; stroke:none;" d="M509.333 300.667L509.667 301.333L509.333 300.667z"/>
<path style="fill:#838181; stroke:none;" d="M524 300L525 301L524 300z"/>
<path style="fill:#b5b4b4; stroke:none;" d="M525 300L526 301L525 300M215.333 301.667L215.667 302.333L215.333 301.667M262 301L263 302L262 301M523 301L524 302L523 301z"/>
<path style="fill:#838181; stroke:none;" d="M509 302L510 303L509 302z"/>
<path style="fill:#b5b4b4; stroke:none;" d="M521 302L522 303L521 302z"/>
<path style="fill:#838181; stroke:none;" d="M215.333 303.667L215.667 304.333L215.333 303.667M519 303L520 304L519 303M517 304L518 305L517 304z"/>
<path style="fill:#b5b4b4; stroke:none;" d="M518 304L519 305L518 304z"/>
<path style="fill:#838181; stroke:none;" d="M261.333 305.667L261.667 306.333L261.333 305.667z"/>
<path style="fill:#b5b4b4; stroke:none;" d="M516 305L517 306L516 305M508.333 306.667L508.667 307.333L508.333 306.667z"/>
<path style="fill:#838181; stroke:none;" d="M514 306L515 307L514 306z"/>
<path style="fill:#b5b4b4; stroke:none;" d="M214.333 307.667L214.667 308.333L214.333 307.667M261 307L262 308L261 307z"/>
<path style="fill:#838181; stroke:none;" d="M512 307L513 308L512 307M508.333 308.667L508.667 309.333L508.333 308.667z"/>
<path style="fill:#b5b4b4; stroke:none;" d="M511 308L512 309L511 308z"/>
<path style="fill:#838181; stroke:none;" d="M214.333 309.667L214.667 310.333L214.333 309.667z"/>
<path style="fill:#b5b4b4; stroke:none;" d="M509 309L510 310L509 309z"/>
<path style="fill:#3abfe7; stroke:none;" d="M592 310.653C576.371 314.61 559.973 327.775 546 335.719C512.52 354.754 479.308 374.245 446 393.576C434.991 399.965 423.936 406.286 413 412.799C408.823 415.287 402.795 417.498 402.167 423.004C401.496 428.897 406.595 431.746 411 434.28C421.678 440.422 432.417 446.496 443 452.799C480.017 474.845 517.623 495.993 555 517.421L582 533C586.127 535.37 590.945 538.905 595.982 537.562C600.922 536.244 601.867 531.457 601.985 527C602.277 516.016 602 504.988 602 494L602 356C602 343.842 603.105 331.095 601.895 319C601.354 313.59 597.854 309.171 592 310.653z"/>
<path style="fill:#838181; stroke:none;" d="M260 311L261 312L260 311z"/>
<path style="fill:#b5b4b4; stroke:none;" d="M260.333 312.667L260.667 313.333L260.333 312.667M213.333 313.667L213.667 314.333L213.333 313.667M600 313L601 314L600 313z"/>
<path style="fill:#838181; stroke:none;" d="M213.333 315.667L213.667 316.333L213.333 315.667z"/>
<path style="fill:#b5b4b4; stroke:none;" d="M582 315L583 316L582 315M601 315L602 316L601 315M580 316L581 317L580 316z"/>
<path style="fill:#838181; stroke:none;" d="M259 317L260 318L259 317z"/>
<path style="fill:#b5b4b4; stroke:none;" d="M578 317L579 318L578 317M259.333 318.667L259.667 319.333L259.333 318.667M212.333 319.667L212.667 320.333L212.333 319.667z"/>
<path style="fill:#838181; stroke:none;" d="M212.333 321.667L212.667 322.333L212.333 321.667z"/>
<path style="fill:#b5b4b4; stroke:none;" d="M571 321L572 322L571 321M569 322L570 323L569 322z"/>
<path style="fill:#838181; stroke:none;" d="M258 323L259 324L258 323z"/>
<path style="fill:#b5b4b4; stroke:none;" d="M258.333 324.667L258.667 325.333L258.333 324.667M211.333 325.667L211.667 326.333L211.333 325.667M562 326L563 327L562 326z"/>
<path style="fill:#838181; stroke:none;" d="M211.333 327.667L211.667 328.333L211.333 327.667z"/>
<path style="fill:#b5b4b4; stroke:none;" d="M560 327L561 328L560 327z"/>
<path style="fill:#838181; stroke:none;" d="M257 329L258 330L257 329z"/>
<path style="fill:#b5b4b4; stroke:none;" d="M257.333 330.667L257.667 331.333L257.333 330.667M555 330L556 331L555 330M210.333 331.667L210.667 332.333L210.333 331.667M553 331L554 332L553 331z"/>
<path style="fill:#838181; stroke:none;" d="M210.333 333.667L210.667 334.333L210.333 333.667M256.333 334.667L256.667 335.333L256.333 334.667z"/>
<path style="fill:#b5b4b4; stroke:none;" d="M548 334L549 335L548 334M546 335L547 336L546 335M256.333 336.667L256.667 337.333L256.333 336.667M209.333 337.667L209.667 338.333L209.333 337.667M541 338L542 339L541 338z"/>
<path style="fill:#838181; stroke:none;" d="M209.333 339.667L209.667 340.333L209.333 339.667z"/>
<path style="fill:#b5b4b4; stroke:none;" d="M539 339L540 340L539 339z"/>
<path style="fill:#838181; stroke:none;" d="M255.333 340.667L255.667 341.333L255.333 340.667z"/>
<path style="fill:#b5b4b4; stroke:none;" d="M255.333 342.667L255.667 343.333L255.333 342.667M534 342L535 343L534 342M208.333 343.667L208.667 344.333L208.333 343.667M532 343L533 344L532 343z"/>
<path style="fill:#838181; stroke:none;" d="M208.333 345.667L208.667 346.333L208.333 345.667M254.333 346.667L254.667 347.333L254.333 346.667z"/>
<path style="fill:#b5b4b4; stroke:none;" d="M527 346L528 347L527 346M525 347L526 348L525 347M254.333 348.667L254.667 349.333L254.333 348.667M207.333 349.667L207.667 350.333L207.333 349.667M520 350L521 351L520 350z"/>
<path style="fill:#838181; stroke:none;" d="M207.333 351.667L207.667 352.333L207.333 351.667z"/>
<path style="fill:#b5b4b4; stroke:none;" d="M518 351L519 352L518 351z"/>
<path style="fill:#838181; stroke:none;" d="M253.333 352.667L253.667 353.333L253.333 352.667z"/>
<path style="fill:#b5b4b4; stroke:none;" d="M253.333 354.667L253.667 355.333L253.333 354.667M513 354L514 355L513 354M206.333 355.667L206.667 356.333L206.333 355.667z"/>
<path style="fill:#838181; stroke:none;" d="M206 357L207 358L206 357z"/>
<path style="fill:#b5b4b4; stroke:none;" d="M508 357L509 358L508 357z"/>
<path style="fill:#838181; stroke:none;" d="M252.333 358.667L252.667 359.333L252.333 358.667z"/>
<path style="fill:#b5b4b4; stroke:none;" d="M506 358L507 359L506 358M252.333 360.667L252.667 361.333L252.333 360.667M205.333 361.667L205.667 362.333L205.333 361.667M501 361L502 362L501 361M499 362L500 363L499 362z"/>
<path style="fill:#838181; stroke:none;" d="M205 363L206 364L205 363M251.333 364.667L251.667 365.333L251.333 364.667z"/>
<path style="fill:#b5b4b4; stroke:none;" d="M494 365L495 366L494 365M251.333 366.667L251.667 367.333L251.333 366.667M204.333 367.667L204.667 368.333L204.333 367.667M489 368L490 369L489 368z"/>
<path style="fill:#838181; stroke:none;" d="M204 369L205 370L204 369z"/>
<path style="fill:#b5b4b4; stroke:none;" d="M487 369L488 370L487 369z"/>
<path style="fill:#838181; stroke:none;" d="M250.333 370.667L250.667 371.333L250.333 370.667z"/>
<path style="fill:#b5b4b4; stroke:none;" d="M250.333 372.667L250.667 373.333L250.333 372.667M482 372L483 373L482 372M203.333 373.667L203.667 374.333L203.333 373.667z"/>
<path style="fill:#838181; stroke:none;" d="M203 375L204 376L203 375z"/>
<path style="fill:#b5b4b4; stroke:none;" d="M477 375L478 376L477 375z"/>
<path style="fill:#838181; stroke:none;" d="M249.333 376.667L249.667 377.333L249.333 376.667z"/>
<path style="fill:#b5b4b4; stroke:none;" d="M475 376L476 377L475 376M249.333 378.667L249.667 379.333L249.333 378.667M202 379L203 380L202 379M470 379L471 380L470 379z"/>
<path style="fill:#838181; stroke:none;" d="M202.333 380.667L202.667 381.333L202.333 380.667z"/>
<path style="fill:#b5b4b4; stroke:none;" d="M468 380L469 381L468 380z"/>
<path style="fill:#838181; stroke:none;" d="M248.333 382.667L248.667 383.333L248.333 382.667z"/>
<path style="fill:#b5b4b4; stroke:none;" d="M463 383L464 384L463 383M248.333 384.667L248.667 385.333L248.333 384.667M201 385L202 386L201 385z"/>
<path style="fill:#838181; stroke:none;" d="M201.333 386.667L201.667 387.333L201.333 386.667z"/>
<path style="fill:#b5b4b4; stroke:none;" d="M458 386L459 387L458 386M456 387L457 388L456 387z"/>
<path style="fill:#838181; stroke:none;" d="M247.333 388.667L247.667 389.333L247.333 388.667z"/>
<path style="fill:#b5b4b4; stroke:none;" d="M200.333 390.667L200.667 391.333L200.333 390.667M247.333 390.667L247.667 391.333L247.333 390.667M451 390L452 391L451 390z"/>
<path style="fill:#838181; stroke:none;" d="M200.333 392.667L200.667 393.333L200.333 392.667z"/>
<path style="fill:#b5b4b4; stroke:none;" d="M446 393L447 394L446 393z"/>
<path style="fill:#838181; stroke:none;" d="M246.333 394.667L246.667 395.333L246.333 394.667z"/>
<path style="fill:#b5b4b4; stroke:none;" d="M444 394L445 395L444 394M199.333 396.667L199.667 397.333L199.333 396.667M246.333 396.667L246.667 397.333L246.333 396.667M439 397L440 398L439 397z"/>
<path style="fill:#838181; stroke:none;" d="M199.333 398.667L199.667 399.333L199.333 398.667M245.333 400.667L245.667 401.333L245.333 400.667z"/>
<path style="fill:#b5b4b4; stroke:none;" d="M434 400L435 401L434 400M432 401L433 402L432 401M198.333 402.667L198.667 403.333L198.333 402.667M245.333 402.667L245.667 403.333L245.333 402.667z"/>
<path style="fill:#838181; stroke:none;" d="M198.333 404.667L198.667 405.333L198.333 404.667z"/>
<path style="fill:#b5b4b4; stroke:none;" d="M427 404L428 405L427 404z"/>
<path style="fill:#838181; stroke:none;" d="M244.333 406.667L244.667 407.333L244.333 406.667z"/>
<path style="fill:#b5b4b4; stroke:none;" d="M422 407L423 408L422 407M197.333 408.667L197.667 409.333L197.333 408.667M244.333 408.667L244.667 409.333L244.333 408.667M420 408L421 409L420 408z"/>
<path style="fill:#838181; stroke:none;" d="M197.333 410.667L197.667 411.333L197.333 410.667z"/>
<path style="fill:#b5b4b4; stroke:none;" d="M415 411L416 412L415 411z"/>
<path style="fill:#838181; stroke:none;" d="M243.333 412.667L243.667 413.333L243.333 412.667z"/>
<path style="fill:#b5b4b4; stroke:none;" d="M196.333 414.667L196.667 415.333L196.333 414.667M243.333 414.667L243.667 415.333L243.333 414.667M410 414L411 415L410 414M408 415L409 416L408 415z"/>
<path style="fill:#838181; stroke:none;" d="M196.333 416.667L196.667 417.333L196.333 416.667M242.333 418.667L242.667 419.333L242.333 418.667z"/>
<path style="fill:#b5b4b4; stroke:none;" d="M195.333 420.667L195.667 421.333L195.333 420.667M242 420L243 421L242 420z"/>
<path style="fill:#838181; stroke:none;" d="M195.333 422.667L195.667 423.333L195.333 422.667z"/>
<path style="fill:#b5b4b4; stroke:none;" d="M401 423L401 426L402 426L401 423z"/>
<path style="fill:#838181; stroke:none;" d="M241.333 424.667L241.667 425.333L241.333 424.667z"/>
<path style="fill:#b5b4b4; stroke:none;" d="M194.333 426.667L194.667 427.333L194.333 426.667M241 426L242 427L241 426z"/>
<path style="fill:#838181; stroke:none;" d="M194.333 428.667L194.667 429.333L194.333 428.667z"/>
<path style="fill:#b5b4b4; stroke:none;" d="M403 429L404 430L403 429z"/>
<path style="fill:#838181; stroke:none;" d="M240 430L241 431L240 430z"/>
<path style="fill:#b5b4b4; stroke:none;" d="M240.333 431.667L240.667 432.333L240.333 431.667M406 431L407 432L406 431M193.333 432.667L193.667 433.333L193.333 432.667z"/>
<path style="fill:#838181; stroke:none;" d="M193.333 434.667L193.667 435.333L193.333 434.667z"/>
<path style="fill:#b5b4b4; stroke:none;" d="M411 434L412 435L411 434M413 435L414 436L413 435z"/>
<path style="fill:#838181; stroke:none;" d="M239 436L240 437L239 436z"/>
<path style="fill:#b5b4b4; stroke:none;" d="M239.333 437.667L239.667 438.333L239.333 437.667M192.333 438.667L192.667 439.333L192.333 438.667M418 438L419 439L418 438z"/>
<path style="fill:#838181; stroke:none;" d="M192.333 440.667L192.667 441.333L192.333 440.667z"/>
<path style="fill:#b5b4b4; stroke:none;" d="M423 441L424 442L423 441z"/>
<path style="fill:#838181; stroke:none;" d="M238 442L239 443L238 442z"/>
<path style="fill:#b5b4b4; stroke:none;" d="M425 442L426 443L425 442M238.333 443.667L238.667 444.333L238.333 443.667M191.333 444.667L191.667 445.333L191.333 444.667M430 445L431 446L430 445z"/>
<path style="fill:#838181; stroke:none;" d="M191.333 446.667L191.667 447.333L191.333 446.667z"/>
<path style="fill:#b5b4b4; stroke:none;" d="M432 446L433 447L432 446z"/>
<path style="fill:#838181; stroke:none;" d="M237.333 447.667L237.667 448.333L237.333 447.667z"/>
<path style="fill:#b5b4b4; stroke:none;" d="M237.333 449.667L237.667 450.333L237.333 449.667M437 449L438 450L437 449M190.333 450.667L190.667 451.333L190.333 450.667M439 450L440 451L439 450z"/>
<path style="fill:#838181; stroke:none;" d="M190.333 452.667L190.667 453.333L190.333 452.667M236.333 453.667L236.667 454.333L236.333 453.667z"/>
<path style="fill:#b5b4b4; stroke:none;" d="M444 453L445 454L444 453M236.333 455.667L236.667 456.333L236.333 455.667M189.333 456.667L189.667 457.333L189.333 456.667M449 456L450 457L449 456M451 457L452 458L451 457z"/>
<path style="fill:#838181; stroke:none;" d="M189.333 458.667L189.667 459.333L189.333 458.667M235.333 459.667L235.667 460.333L235.333 459.667z"/>
<path style="fill:#b5b4b4; stroke:none;" d="M456 460L457 461L456 460M235.333 461.667L235.667 462.333L235.333 461.667M458 461L459 462L458 461M188.333 462.667L188.667 463.333L188.333 462.667z"/>
<path style="fill:#838181; stroke:none;" d="M188.333 464.667L188.667 465.333L188.333 464.667z"/>
<path style="fill:#b5b4b4; stroke:none;" d="M463 464L464 465L463 464z"/>
<path style="fill:#838181; stroke:none;" d="M234.333 465.667L234.667 466.333L234.333 465.667z"/>
<path style="fill:#b5b4b4; stroke:none;" d="M234.333 467.667L234.667 468.333L234.333 467.667M468 467L469 468L468 467M187.333 468.667L187.667 469.333L187.333 468.667M470 468L471 469L470 468z"/>
<path style="fill:#838181; stroke:none;" d="M187.333 470.667L187.667 471.333L187.333 470.667M233.333 471.667L233.667 472.333L233.333 471.667z"/>
<path style="fill:#b5b4b4; stroke:none;" d="M475 471L476 472L475 471M477 472L478 473L477 472M233.333 473.667L233.667 474.333L233.333 473.667M186.333 474.667L186.667 475.333L186.333 474.667M482 475L483 476L482 475z"/>
<path style="fill:#838181; stroke:none;" d="M186 476L187 477L186 476z"/>
<path style="fill:#b5b4b4; stroke:none;" d="M484 476L485 477L484 476z"/>
<path style="fill:#838181; stroke:none;" d="M232.333 477.667L232.667 478.333L232.333 477.667z"/>
<path style="fill:#b5b4b4; stroke:none;" d="M232.333 479.667L232.667 480.333L232.333 479.667M489 479L490 480L489 479M185.333 480.667L185.667 481.333L185.333 480.667z"/>
<path style="fill:#838181; stroke:none;" d="M185 482L186 483L185 482z"/>
<path style="fill:#b5b4b4; stroke:none;" d="M494 482L495 483L494 482z"/>
<path style="fill:#838181; stroke:none;" d="M231.333 483.667L231.667 484.333L231.333 483.667z"/>
<path style="fill:#b5b4b4; stroke:none;" d="M496 483L497 484L496 483M231.333 485.667L231.667 486.333L231.333 485.667M184.333 486.667L184.667 487.333L184.333 486.667M501 486L502 487L501 486M503 487L504 488L503 487z"/>
<path style="fill:#838181; stroke:none;" d="M184 488L185 489L184 488M230.333 489.667L230.667 490.333L230.333 489.667z"/>
<path style="fill:#b5b4b4; stroke:none;" d="M508 490L509 491L508 490M230.333 491.667L230.667 492.333L230.333 491.667M510 491L511 492L510 491M183 492L184 493L183 492z"/>
<path style="fill:#838181; stroke:none;" d="M183.333 493.667L183.667 494.333L183.333 493.667z"/>
<path style="fill:#b5b4b4; stroke:none;" d="M515 494L516 495L515 494z"/>
<path style="fill:#838181; stroke:none;" d="M229.333 495.667L229.667 496.333L229.333 495.667z"/>
<path style="fill:#b5b4b4; stroke:none;" d="M229.333 497.667L229.667 498.333L229.333 497.667M520 497L521 498L520 497M182 498L183 499L182 498M522 498L523 499L522 498z"/>
<path style="fill:#838181; stroke:none;" d="M182.333 499.667L182.667 500.333L182.333 499.667M228.333 501.667L228.667 502.333L228.333 501.667z"/>
<path style="fill:#b5b4b4; stroke:none;" d="M527 501L528 502L527 501M529 502L530 503L529 502M228.333 503.667L228.667 504.333L228.333 503.667M181 504L182 505L181 504z"/>
<path style="fill:#838181; stroke:none;" d="M181.333 505.667L181.667 506.333L181.333 505.667z"/>
<path style="fill:#b5b4b4; stroke:none;" d="M534 505L535 506L534 505M536 506L537 507L536 506z"/>
<path style="fill:#838181; stroke:none;" d="M227.333 507.667L227.667 508.333L227.333 507.667z"/>
<path style="fill:#b5b4b4; stroke:none;" d="M180.333 509.667L180.667 510.333L180.333 509.667M227.333 509.667L227.667 510.333L227.333 509.667M541 509L542 510L541 509z"/>
<path style="fill:#838181; stroke:none;" d="M180.333 511.667L180.667 512.333L180.333 511.667z"/>
<path style="fill:#b5b4b4; stroke:none;" d="M546 512L547 513L546 512z"/>
<path style="fill:#838181; stroke:none;" d="M226.333 513.667L226.667 514.333L226.333 513.667z"/>
<path style="fill:#b5b4b4; stroke:none;" d="M548 513L549 514L548 513M179.333 515.667L179.667 516.333L179.333 515.667M226.333 515.667L226.667 516.333L226.333 515.667M553 516L554 517L553 516z"/>
<path style="fill:#838181; stroke:none;" d="M179.333 517.667L179.667 518.333L179.333 517.667z"/>
<path style="fill:#b5b4b4; stroke:none;" d="M555 517L556 518L555 517z"/>
<path style="fill:#838181; stroke:none;" d="M473 518L474 519L473 518z"/>
<path style="fill:#b5b4b4; stroke:none;" d="M474 518L475 519L474 518z"/>
<path style="fill:#838181; stroke:none;" d="M225.333 519.667L225.667 520.333L225.333 519.667M475 519L476 520L475 519z"/>
<path style="fill:#b5b4b4; stroke:none;" d="M472.333 520.667L472.667 521.333L472.333 520.667z"/>
<path style="fill:#838181; stroke:none;" d="M477 520L478 521L477 520z"/>
<path style="fill:#b5b4b4; stroke:none;" d="M560 520L561 521L560 520M178.333 521.667L178.667 522.333L178.333 521.667M225.333 521.667L225.667 522.333L225.333 521.667M479 521L480 522L479 521M562 521L563 522L562 521z"/>
<path style="fill:#838181; stroke:none;" d="M472.333 522.667L472.667 523.333L472.333 522.667M480 522L481 523L480 522z"/>
<path style="fill:#b5b4b4; stroke:none;" d="M481 522L482 523L481 522z"/>
<path style="fill:#838181; stroke:none;" d="M178.333 523.667L178.667 524.333L178.333 523.667M482 523L483 524L482 523z"/>
<path style="fill:#b5b4b4; stroke:none;" d="M484 524L485 525L484 524M567 524L568 525L567 524z"/>
<path style="fill:#838181; stroke:none;" d="M224.333 525.667L224.667 526.333L224.333 525.667z"/>
<path style="fill:#b5b4b4; stroke:none;" d="M486 525L487 526L486 525M569 525L570 526L569 525M471.333 526.667L471.667 527.333L471.333 526.667z"/>
<path style="fill:#838181; stroke:none;" d="M487 526L488 527L487 526z"/>
<path style="fill:#b5b4b4; stroke:none;" d="M488 526L489 527L488 526M177.333 527.667L177.667 528.333L177.333 527.667M224.333 527.667L224.667 528.333L224.333 527.667z"/>
<path style="fill:#838181; stroke:none;" d="M489 527L490 528L489 527M471.333 528.667L471.667 529.333L471.333 528.667z"/>
<path style="fill:#b5b4b4; stroke:none;" d="M491 528L492 529L491 528M574 528L575 529L574 528z"/>
<path style="fill:#838181; stroke:none;" d="M177.333 529.667L177.667 530.333L177.333 529.667z"/>
<path style="fill:#b5b4b4; stroke:none;" d="M493 529L494 530L493 529z"/>
<path style="fill:#838181; stroke:none;" d="M494 530L495 531L494 530M223.333 531.667L223.667 532.333L223.333 531.667M496 531L497 532L496 531z"/>
<path style="fill:#b5b4b4; stroke:none;" d="M579 531L580 532L579 531M470.333 532.667L470.667 533.333L470.333 532.667M498 532L499 533L498 532M581 532L582 533L581 532M601 532L602 533L601 532M176.333 533.667L176.667 534.333L176.333 533.667M223.333 533.667L223.667 534.333L223.333 533.667M500 533L501 534L500 533z"/>
<path style="fill:#838181; stroke:none;" d="M470.333 534.667L470.667 535.333L470.333 534.667M501 534L502 535L501 534M176.333 535.667L176.667 536.333L176.333 535.667M503 535L504 536L503 535z"/>
<path style="fill:#b5b4b4; stroke:none;" d="M586 535L587 536L586 535M505 536L506 537L505 536M588 536L589 537L588 536z"/>
<path style="fill:#838181; stroke:none;" d="M222.333 537.667L222.667 538.333L222.333 537.667M506 537L507 538L506 537z"/>
<path style="fill:#b5b4b4; stroke:none;" d="M507 537L508 538L507 537M597 537L598 538L597 537M469.333 538.667L469.667 539.333L469.333 538.667z"/>
<path style="fill:#838181; stroke:none;" d="M508 538L509 539L508 538z"/>
<path style="fill:#b5b4b4; stroke:none;" d="M593.667 538.333L594.333 538.667L593.667 538.333M175.333 539.667L175.667 540.333L175.333 539.667M222 539L223 540L222 539M510 539L511 540L510 539z"/>
<path style="fill:#838181; stroke:none;" d="M469 540L470 541L469 540z"/>
<path style="fill:#b5b4b4; stroke:none;" d="M512 540L513 541L512 540z"/>
<path style="fill:#838181; stroke:none;" d="M175.333 541.667L175.667 542.333L175.333 541.667M513 541L514 542L513 541z"/>
<path style="fill:#b5b4b4; stroke:none;" d="M514 541L515 542L514 541M515 542L515 545L516 545L515 542z"/>
<path style="fill:#838181; stroke:none;" d="M221 544L221 550L222 550L221 544z"/>
<path style="fill:#b5b4b4; stroke:none;" d="M468.333 544.667L468.667 545.333L468.333 544.667M174 546L174 549L175 549L174 546z"/>
<path style="fill:#838181; stroke:none;" d="M468 546L469 547L468 546M514.333 547.667L514.667 548.333L514.333 547.667M174 549L174 559L175 559L174 549z"/>
<path style="fill:#b5b4b4; stroke:none;" d="M514.333 549.667L514.667 550.333L514.333 549.667M467.333 550.667L467.667 551.333L467.333 550.667z"/>
<path style="fill:#838181; stroke:none;" d="M467 552L468 553L467 552z"/>
<path style="fill:#b5b4b4; stroke:none;" d="M222.333 553.667L222.667 554.333L222.333 553.667z"/>
<path style="fill:#838181; stroke:none;" d="M513.333 553.667L513.667 554.333L513.333 553.667M222 555L223 556L222 555z"/>
<path style="fill:#b5b4b4; stroke:none;" d="M513.333 555.667L513.667 556.333L513.333 555.667M466 556L467 557L466 556z"/>
<path style="fill:#838181; stroke:none;" d="M466.333 557.667L466.667 558.333L466.333 557.667z"/>
<path style="fill:#b5b4b4; stroke:none;" d="M223 558L224 559L223 558M174 559L174 562L175 562L174 559z"/>
<path style="fill:#838181; stroke:none;" d="M223 559L224 560L223 559M512.333 559.667L512.667 560.333L512.333 559.667z"/>
<path style="fill:#b5b4b4; stroke:none;" d="M224 561L225 562L224 561M512.333 561.667L512.667 562.333L512.333 561.667M465 562L466 563L465 562M225 563L226 564L225 563z"/>
<path style="fill:#838181; stroke:none;" d="M465.333 563.667L465.667 564.333L465.333 563.667M225 564L226 565L225 564M175.333 565.667L175.667 566.333L175.333 565.667z"/>
<path style="fill:#b5b4b4; stroke:none;" d="M226 565L227 566L226 565z"/>
<path style="fill:#838181; stroke:none;" d="M511.333 565.667L511.667 566.333L511.333 565.667z"/>
<path style="fill:#b5b4b4; stroke:none;" d="M175 567L176 568L175 567M227 567L228 568L227 567M511.333 567.667L511.667 568.333L511.333 567.667M464 568L465 569L464 568z"/>
<path style="fill:#838181; stroke:none;" d="M228 569L229 570L228 569M464.333 569.667L464.667 570.333L464.333 569.667M176 570L177 571L176 570z"/>
<path style="fill:#b5b4b4; stroke:none;" d="M229 570L230 571L229 570M176 571L177 572L176 571M230 571L231 572L230 571z"/>
<path style="fill:#838181; stroke:none;" d="M510.333 571.667L510.667 572.333L510.333 571.667M231 573L232 574L231 573z"/>
<path style="fill:#b5b4b4; stroke:none;" d="M463.333 573.667L463.667 574.333L463.333 573.667M510.333 573.667L510.667 574.333L510.333 573.667z"/>
<path style="fill:#838181; stroke:none;" d="M177 574L178 575L177 574M232 574L233 575L232 574z"/>
<path style="fill:#b5b4b4; stroke:none;" d="M177 575L178 576L177 575z"/>
<path style="fill:#838181; stroke:none;" d="M233 575L234 576L233 575M463.333 575.667L463.667 576.333L463.333 575.667M234 576L235 577L234 576M178 577L179 578L178 577M235 577L236 578L235 577M509.333 577.667L509.667 578.333L509.333 577.667z"/>
<path style="fill:#b5b4b4; stroke:none;" d="M237 578L238 579L237 578z"/>
<path style="fill:#838181; stroke:none;" d="M179 579L180 580L179 579z"/>
<path style="fill:#b5b4b4; stroke:none;" d="M238 579L239 580L238 579M462.333 579.667L462.667 580.333L462.333 579.667M509.333 579.667L509.667 580.333L509.333 579.667M179 580L180 581L179 580z"/>
<path style="fill:#838181; stroke:none;" d="M239 580L240 581L239 580M241 581L242 582L241 581M462.333 581.667L462.667 582.333L462.333 581.667M180 582L181 583L180 582z"/>
<path style="fill:#b5b4b4; stroke:none;" d="M243 582L244 583L243 582z"/>
<path style="fill:#838181; stroke:none;" d="M245 583L246 584L245 583M508.333 583.667L508.667 584.333L508.333 583.667M181 584L182 585L181 584M247 584L248 585L247 584z"/>
<path style="fill:#b5b4b4; stroke:none;" d="M248 584L249 585L248 584M461 584L462 585L461 584z"/>
<path style="fill:#838181; stroke:none;" d="M250 585L251 586L250 585z"/>
<path style="fill:#b5b4b4; stroke:none;" d="M251 585L252 586L251 585z"/>
<path style="fill:#838181; stroke:none;" d="M461 585L462 586L461 585z"/>
<path style="fill:#b5b4b4; stroke:none;" d="M508.333 585.667L508.667 586.333L508.333 585.667z"/>
<path style="fill:#838181; stroke:none;" d="M182 586L183 587L182 586M254.667 586.333L255.333 586.667L254.667 586.333z"/>
<path style="fill:#b5b4b4; stroke:none;" d="M256.667 586.333L257.333 586.667L256.667 586.333z"/>
<path style="fill:#838181; stroke:none;" d="M260.667 587.333L261.333 587.667L260.667 587.333z"/>
<path style="fill:#b5b4b4; stroke:none;" d="M262.667 587.333L263.333 587.667L262.667 587.333M183 588L184 589L183 588z"/>
<path style="fill:#838181; stroke:none;" d="M266.667 588.333L267.333 588.667L266.667 588.333z"/>
<path style="fill:#b5b4b4; stroke:none;" d="M268.667 588.333L269.333 588.667L268.667 588.333z"/>
<path style="fill:#838181; stroke:none;" d="M460 588L461 589L460 588M272.667 589.333L273.333 589.667L272.667 589.333z"/>
<path style="fill:#b5b4b4; stroke:none;" d="M274.667 589.333L275.333 589.667L274.667 589.333z"/>
<path style="fill:#838181; stroke:none;" d="M507.333 589.667L507.667 590.333L507.333 589.667z"/>
<path style="fill:#b5b4b4; stroke:none;" d="M184 590L185 591L184 590z"/>
<path style="fill:#838181; stroke:none;" d="M278.667 590.333L279.333 590.667L278.667 590.333z"/>
<path style="fill:#b5b4b4; stroke:none;" d="M280 590L281 591L280 590M459 590L460 591L459 590z"/>
<path style="fill:#838181; stroke:none;" d="M185 591L186 592L185 591M284.667 591.333L285.333 591.667L284.667 591.333z"/>
<path style="fill:#b5b4b4; stroke:none;" d="M286 591L287 592L286 591M507.333 591.667L507.667 592.333L507.333 591.667z"/>
<path style="fill:#838181; stroke:none;" d="M290.667 592.333L291.333 592.667L290.667 592.333z"/>
<path style="fill:#b5b4b4; stroke:none;" d="M292 592L293 593L292 592M458 592L459 593L458 592M186 593L187 594L186 593z"/>
<path style="fill:#838181; stroke:none;" d="M296 593L297 594L296 593z"/>
<path style="fill:#b5b4b4; stroke:none;" d="M297.667 593.333L298.333 593.667L297.667 593.333z"/>
<path style="fill:#838181; stroke:none;" d="M187 594L188 595L187 594M302 594L303 595L302 594z"/>
<path style="fill:#b5b4b4; stroke:none;" d="M303.667 594.333L304.333 594.667L303.667 594.333M457 594L458 595L457 594z"/>
<path style="fill:#838181; stroke:none;" d="M308 595L309 596L308 595z"/>
<path style="fill:#b5b4b4; stroke:none;" d="M309.667 595.333L310.333 595.667L309.667 595.333z"/>
<path style="fill:#838181; stroke:none;" d="M506.333 595.667L506.667 596.333L506.333 595.667M313.667 596.333L314.333 596.667L313.667 596.333z"/>
<path style="fill:#b5b4b4; stroke:none;" d="M315.667 596.333L316.333 596.667L315.667 596.333z"/>
<path style="fill:#838181; stroke:none;" d="M456 596L457 597L456 596z"/>
<path style="fill:#b5b4b4; stroke:none;" d="M189 597L190 598L189 597z"/>
<path style="fill:#838181; stroke:none;" d="M319.667 597.333L320.333 597.667L319.667 597.333z"/>
<path style="fill:#b5b4b4; stroke:none;" d="M321.667 597.333L322.333 597.667L321.667 597.333M455 597L456 598L455 597M506 597L507 598L506 597z"/>
<path style="fill:#838181; stroke:none;" d="M190 598L191 599L190 598M325.667 598.333L326.333 598.667L325.667 598.333z"/>
<path style="fill:#b5b4b4; stroke:none;" d="M327.667 598.333L328.333 598.667L327.667 598.333M454 598L455 599L454 598z"/>
<path style="fill:#838181; stroke:none;" d="M191 599L192 600L191 599M331.667 599.333L332.333 599.667L331.667 599.333z"/>
<path style="fill:#b5b4b4; stroke:none;" d="M333.667 599.333L334.333 599.667L333.667 599.333z"/>
<path style="fill:#838181; stroke:none;" d="M192 600L193 601L192 600M337.667 600.333L338.333 600.667L337.667 600.333z"/>
<path style="fill:#b5b4b4; stroke:none;" d="M339.667 600.333L340.333 600.667L339.667 600.333z"/>
<path style="fill:#838181; stroke:none;" d="M505.333 600.667L505.667 601.333L505.333 600.667M343.667 601.333L344.333 601.667L343.667 601.333z"/>
<path style="fill:#b5b4b4; stroke:none;" d="M345.667 601.333L346.333 601.667L345.667 601.333z"/>
<path style="fill:#838181; stroke:none;" d="M452 601L453 602L452 601M349.667 602.333L350.333 602.667L349.667 602.333z"/>
<path style="fill:#b5b4b4; stroke:none;" d="M351.667 602.333L352.333 602.667L351.667 602.333z"/>
<path style="fill:#838181; stroke:none;" d="M451 602L452 603L451 602z"/>
<path style="fill:#b5b4b4; stroke:none;" d="M505 602L506 603L505 602z"/>
<path style="fill:#838181; stroke:none;" d="M355.667 603.333L356.333 603.667L355.667 603.333z"/>
<path style="fill:#b5b4b4; stroke:none;" d="M357.667 603.333L358.333 603.667L357.667 603.333z"/>
<path style="fill:#838181; stroke:none;" d="M450 603L451 604L450 603M361.667 604.333L362.333 604.667L361.667 604.333z"/>
<path style="fill:#b5b4b4; stroke:none;" d="M363.667 604.333L364.333 604.667L363.667 604.333z"/>
<path style="fill:#838181; stroke:none;" d="M197 605L198 606L197 605M367.667 605.333L368.333 605.667L367.667 605.333z"/>
<path style="fill:#b5b4b4; stroke:none;" d="M369.667 605.333L370.333 605.667L369.667 605.333M447 605L448 606L447 605z"/>
<path style="fill:#838181; stroke:none;" d="M504 605L505 606L504 605M198 606L199 607L198 606M373.667 606.333L374.333 606.667L373.667 606.333z"/>
<path style="fill:#b5b4b4; stroke:none;" d="M375.667 606.333L376.333 606.667L375.667 606.333z"/>
<path style="fill:#838181; stroke:none;" d="M446 606L447 607L446 606z"/>
<path style="fill:#b5b4b4; stroke:none;" d="M504 606L505 607L504 606z"/>
<path style="fill:#838181; stroke:none;" d="M199 607L200 608L199 607M379.667 607.333L380.333 607.667L379.667 607.333z"/>
<path style="fill:#b5b4b4; stroke:none;" d="M381.667 607.333L382.333 607.667L381.667 607.333z"/>
<path style="fill:#838181; stroke:none;" d="M445 607L446 608L445 607z"/>
<path style="fill:#b5b4b4; stroke:none;" d="M200 608L201 609L200 608z"/>
<path style="fill:#838181; stroke:none;" d="M385.667 608.333L386.333 608.667L385.667 608.333z"/>
<path style="fill:#b5b4b4; stroke:none;" d="M387.667 608.333L388.333 608.667L387.667 608.333z"/>
<path style="fill:#838181; stroke:none;" d="M443 608L444 609L443 608M503 608L504 609L503 608z"/>
<path style="fill:#b5b4b4; stroke:none;" d="M201 609L202 610L201 609z"/>
<path style="fill:#838181; stroke:none;" d="M391.667 609.333L392.333 609.667L391.667 609.333z"/>
<path style="fill:#b5b4b4; stroke:none;" d="M393.667 609.333L394.333 609.667L393.667 609.333M441 609L442 610L441 609M503 609L504 610L503 609z"/>
<path style="fill:#838181; stroke:none;" d="M203 610L204 611L203 610M397.667 610.333L398.333 610.667L397.667 610.333z"/>
<path style="fill:#b5b4b4; stroke:none;" d="M399 610L400 611L399 610M439 610L440 611L439 610M204 611L205 612L204 611z"/>
<path style="fill:#838181; stroke:none;" d="M403.667 611.333L404.333 611.667L403.667 611.333z"/>
<path style="fill:#b5b4b4; stroke:none;" d="M405 611L406 612L405 611M436 611L437 612L436 611z"/>
<path style="fill:#838181; stroke:none;" d="M437 611L438 612L437 611M502 611L503 612L502 611M206 612L207 613L206 612M409.667 612.333L410.333 612.667L409.667 612.333z"/>
<path style="fill:#b5b4b4; stroke:none;" d="M411 612L412 613L411 612M433 612L434 613L433 612z"/>
<path style="fill:#838181; stroke:none;" d="M434 612L435 613L434 612z"/>
<path style="fill:#b5b4b4; stroke:none;" d="M207 613L208 614L207 613z"/>
<path style="fill:#838181; stroke:none;" d="M415.667 613.333L416.333 613.667L415.667 613.333z"/>
<path style="fill:#b5b4b4; stroke:none;" d="M417.667 613.333L418.333 613.667L417.667 613.333M428.667 613.333L429.333 613.667L428.667 613.333z"/>
<path style="fill:#838181; stroke:none;" d="M430 613L431 614L430 613M501 613L502 614L501 613M209 614L210 615L209 614z"/>
<path style="fill:#b5b4b4; stroke:none;" d="M501 614L502 615L501 614z"/>
<path style="fill:#838181; stroke:none;" d="M211 615L212 616L211 615z"/>
<path style="fill:#b5b4b4; stroke:none;" d="M212 616L213 617L212 616z"/>
<path style="fill:#838181; stroke:none;" d="M213 616L214 617L213 616z"/>
<path style="fill:#b5b4b4; stroke:none;" d="M500 616L501 617L500 616M214 617L215 618L214 617z"/>
<path style="fill:#838181; stroke:none;" d="M215 617L216 618L215 617M217 618L218 619L217 618z"/>
<path style="fill:#b5b4b4; stroke:none;" d="M499 618L500 619L499 618M219 619L220 620L219 619z"/>
<path style="fill:#838181; stroke:none;" d="M220 619L221 620L220 619z"/>
<path style="fill:#b5b4b4; stroke:none;" d="M222 620L223 621L222 620z"/>
<path style="fill:#838181; stroke:none;" d="M223 620L224 621L223 620z"/>
<path style="fill:#b5b4b4; stroke:none;" d="M498 620L499 621L498 620M225 621L226 622L225 621z"/>
<path style="fill:#838181; stroke:none;" d="M226.667 621.333L227.333 621.667L226.667 621.333M497 621L498 622L497 621z"/>
<path style="fill:#b5b4b4; stroke:none;" d="M229.667 622.333L230.333 622.667L229.667 622.333z"/>
<path style="fill:#838181; stroke:none;" d="M231 622L232 623L231 622z"/>
<path style="fill:#b5b4b4; stroke:none;" d="M234.667 623.333L235.333 623.667L234.667 623.333z"/>
<path style="fill:#838181; stroke:none;" d="M236.667 623.333L237.333 623.667L236.667 623.333M496 623L497 624L496 623z"/>
<path style="fill:#b5b4b4; stroke:none;" d="M240.667 624.333L241.333 624.667L240.667 624.333z"/>
<path style="fill:#838181; stroke:none;" d="M242.667 624.333L243.333 624.667L242.667 624.333z"/>
<path style="fill:#b5b4b4; stroke:none;" d="M246.667 625.333L247.333 625.667L246.667 625.333z"/>
<path style="fill:#838181; stroke:none;" d="M248.667 625.333L249.333 625.667L248.667 625.333z"/>
<path style="fill:#b5b4b4; stroke:none;" d="M495 625L496 626L495 625M252.667 626.333L253.333 626.667L252.667 626.333z"/>
<path style="fill:#838181; stroke:none;" d="M254.667 626.333L255.333 626.667L254.667 626.333M494 626L495 627L494 626z"/>
<path style="fill:#b5b4b4; stroke:none;" d="M258.667 627.333L259.333 627.667L258.667 627.333z"/>
<path style="fill:#838181; stroke:none;" d="M260.667 627.333L261.333 627.667L260.667 627.333z"/>
<path style="fill:#b5b4b4; stroke:none;" d="M264.667 628.333L265.333 628.667L264.667 628.333z"/>
<path style="fill:#838181; stroke:none;" d="M266.667 628.333L267.333 628.667L266.667 628.333z"/>
<path style="fill:#b5b4b4; stroke:none;" d="M270.667 629.333L271.333 629.667L270.667 629.333z"/>
<path style="fill:#838181; stroke:none;" d="M272.667 629.333L273.333 629.667L272.667 629.333z"/>
<path style="fill:#b5b4b4; stroke:none;" d="M492 629L493 630L492 629M276.667 630.333L277.333 630.667L276.667 630.333z"/>
<path style="fill:#838181; stroke:none;" d="M278.667 630.333L279.333 630.667L278.667 630.333M491 630L492 631L491 630z"/>
<path style="fill:#b5b4b4; stroke:none;" d="M282.667 631.333L283.333 631.667L282.667 631.333z"/>
<path style="fill:#838181; stroke:none;" d="M284.667 631.333L285.333 631.667L284.667 631.333M490 631L491 632L490 631z"/>
<path style="fill:#b5b4b4; stroke:none;" d="M288.667 632.333L289.333 632.667L288.667 632.333z"/>
<path style="fill:#838181; stroke:none;" d="M290.667 632.333L291.333 632.667L290.667 632.333M489 632L490 633L489 632z"/>
<path style="fill:#b5b4b4; stroke:none;" d="M294.667 633.333L295.333 633.667L294.667 633.333z"/>
<path style="fill:#838181; stroke:none;" d="M296.667 633.333L297.333 633.667L296.667 633.333z"/>
<path style="fill:#b5b4b4; stroke:none;" d="M300.667 634.333L301.333 634.667L300.667 634.333z"/>
<path style="fill:#838181; stroke:none;" d="M302.667 634.333L303.333 634.667L302.667 634.333z"/>
<path style="fill:#b5b4b4; stroke:none;" d="M306.667 635.333L307.333 635.667L306.667 635.333z"/>
<path style="fill:#838181; stroke:none;" d="M308.667 635.333L309.333 635.667L308.667 635.333z"/>
<path style="fill:#b5b4b4; stroke:none;" d="M312.667 636.333L313.333 636.667L312.667 636.333z"/>
<path style="fill:#838181; stroke:none;" d="M314.667 636.333L315.333 636.667L314.667 636.333z"/>
<path style="fill:#b5b4b4; stroke:none;" d="M318.667 637.333L319.333 637.667L318.667 637.333z"/>
<path style="fill:#838181; stroke:none;" d="M320.667 637.333L321.333 637.667L320.667 637.333z"/>
<path style="fill:#b5b4b4; stroke:none;" d="M324.667 638.333L325.333 638.667L324.667 638.333z"/>
<path style="fill:#838181; stroke:none;" d="M326 638L327 639L326 638M483 638L484 639L483 638z"/>
<path style="fill:#b5b4b4; stroke:none;" d="M330.667 639.333L331.333 639.667L330.667 639.333z"/>
<path style="fill:#838181; stroke:none;" d="M332 639L333 640L332 639M482 639L483 640L482 639z"/>
<path style="fill:#b5b4b4; stroke:none;" d="M336.667 640.333L337.333 640.667L336.667 640.333z"/>
<path style="fill:#838181; stroke:none;" d="M338 640L339 641L338 640z"/>
<path style="fill:#b5b4b4; stroke:none;" d="M481 640L482 641L481 640M342 641L343 642L342 641z"/>
<path style="fill:#838181; stroke:none;" d="M343.667 641.333L344.333 641.667L343.667 641.333z"/>
<path style="fill:#b5b4b4; stroke:none;" d="M480 641L481 642L480 641M348 642L349 643L348 642z"/>
<path style="fill:#838181; stroke:none;" d="M349.667 642.333L350.333 642.667L349.667 642.333M478 642L479 643L478 642z"/>
<path style="fill:#b5b4b4; stroke:none;" d="M353.667 643.333L354.333 643.667L353.667 643.333z"/>
<path style="fill:#838181; stroke:none;" d="M355.667 643.333L356.333 643.667L355.667 643.333M477 643L478 644L477 643z"/>
<path style="fill:#b5b4b4; stroke:none;" d="M359.667 644.333L360.333 644.667L359.667 644.333z"/>
<path style="fill:#838181; stroke:none;" d="M361.667 644.333L362.333 644.667L361.667 644.333z"/>
<path style="fill:#b5b4b4; stroke:none;" d="M476 644L477 645L476 644M365.667 645.333L366.333 645.667L365.667 645.333z"/>
<path style="fill:#838181; stroke:none;" d="M367.667 645.333L368.333 645.667L367.667 645.333M474 645L475 646L474 645z"/>
<path style="fill:#b5b4b4; stroke:none;" d="M371.667 646.333L372.333 646.667L371.667 646.333z"/>
<path style="fill:#838181; stroke:none;" d="M373.667 646.333L374.333 646.667L373.667 646.333M472 646L473 647L472 646z"/>
<path style="fill:#b5b4b4; stroke:none;" d="M377.667 647.333L378.333 647.667L377.667 647.333z"/>
<path style="fill:#838181; stroke:none;" d="M379.667 647.333L380.333 647.667L379.667 647.333z"/>
<path style="fill:#b5b4b4; stroke:none;" d="M471 647L472 648L471 647M383.667 648.333L384.333 648.667L383.667 648.333z"/>
<path style="fill:#838181; stroke:none;" d="M385.667 648.333L386.333 648.667L385.667 648.333z"/>
<path style="fill:#b5b4b4; stroke:none;" d="M469 648L470 649L469 648M389.667 649.333L390.333 649.667L389.667 649.333z"/>
<path style="fill:#838181; stroke:none;" d="M391.667 649.333L392.333 649.667L391.667 649.333z"/>
<path style="fill:#b5b4b4; stroke:none;" d="M467 649L468 650L467 649M395.667 650.333L396.333 650.667L395.667 650.333z"/>
<path style="fill:#838181; stroke:none;" d="M397.667 650.333L398.333 650.667L397.667 650.333M464 650L465 651L464 650z"/>
<path style="fill:#b5b4b4; stroke:none;" d="M465 650L466 651L465 650M401.667 651.333L402.333 651.667L401.667 651.333z"/>
<path style="fill:#838181; stroke:none;" d="M403.667 651.333L404.333 651.667L403.667 651.333M462 651L463 652L462 651z"/>
<path style="fill:#b5b4b4; stroke:none;" d="M407.667 652.333L408.333 652.667L407.667 652.333z"/>
<path style="fill:#838181; stroke:none;" d="M409.667 652.333L410.333 652.667L409.667 652.333M459 652L460 653L459 652z"/>
<path style="fill:#b5b4b4; stroke:none;" d="M460 652L461 653L460 652M413.667 653.333L414.333 653.667L413.667 653.333z"/>
<path style="fill:#838181; stroke:none;" d="M415.667 653.333L416.333 653.667L415.667 653.333M456 653L457 654L456 653z"/>
<path style="fill:#b5b4b4; stroke:none;" d="M457 653L458 654L457 653M419.667 654.333L420.333 654.667L419.667 654.333z"/>
<path style="fill:#838181; stroke:none;" d="M421.667 654.333L422.333 654.667L421.667 654.333M452 654L453 655L452 654z"/>
<path style="fill:#b5b4b4; stroke:none;" d="M453 654L454 655L453 654M425.667 655.333L426.333 655.667L425.667 655.333z"/>
<path style="fill:#838181; stroke:none;" d="M427.667 655.333L428.333 655.667L427.667 655.333M445 655L445 656L448 656L445 655z"/>
<path style="fill:#b5b4b4; stroke:none;" d="M448.667 655.333L449.333 655.667L448.667 655.333M434 656L434 657L441 657L434 656z"/>
</svg>
