<svg xmlns="http://www.w3.org/2000/svg" xmlns:xlink="http://www.w3.org/1999/xlink" version="1.1" x="0px" y="0px" viewBox="0 0 52 65" enable-background="new 0 0 52 52" xml:space="preserve"><g><g><g><path d="M24.9802208,28.9770508h-1l0.0078125-8.1083984c-0.0605469-0.7734375,0.2099609-1.5488281,0.7626953-2.1445313     c0.5673828-0.6123047,1.3818359-0.9638672,2.2324219-0.9638672c1.6826172,0,3,1.3652344,3,3.1083984v8.1083984h-1v-8.1083984     c0-1.2021484-0.859375-2.1083984-2-2.1083984c-0.5732422,0-1.1201172,0.234375-1.4990234,0.6435547     c-0.3613281,0.3896484-0.5380859,0.8964844-0.4970703,1.4267578L24.9802208,28.9770508z"/></g><g><path d="M35.2946739,28.9770508h-1V21.847168c0-1.1630859-0.9443359-2.109375-2.1054688-2.109375     c-1.1962891,0-2.2060547,0.9658203-2.2060547,2.109375v7.1298828h-1V21.847168     c0-1.6855469,1.4677734-3.109375,3.2060547-3.109375c1.7119141,0,3.1054688,1.3945313,3.1054688,3.109375V28.9770508z"/></g><g><path d="M24.8513145,49.2592773c-0.0029297-0.0371094-0.3388672-3.6679688-2.3330078-5.1074219     c-0.3935547-0.2285156-4.1972656-2.5146484-4.3994141-4.4492188l-0.9453125-3.3193359l-4.5595713-5.8945313     c-2.0048828-1.4306641-2.5214844-2.8886719-2.5996094-3.8642578c-0.0527344-0.65625,0.2558594-1.3105469,0.8046875-1.7089844     c2.84375-2.0703125,6.1376963,0.5839844,7.6894541,2.1435547V13.2163086c0-1.7666016,1.6191406-3.5,3.2695313-3.5     c1.7480469,0,3.2255859,1.4277344,3.2255859,3.1171875l-0.0136719,16.1435547h-1l0.0136719-16.1435547     c0-1.1279297-1.0400391-2.1171875-2.2255859-2.1171875c-1.1025391,0-2.2695313,1.2851563-2.2695313,2.5v16.5546875     l-0.8896484-1.1064453c-0.0410156-0.0527344-4.1835947-5.1376953-7.211915-2.9404297     c-0.2695313,0.1953125-0.4208984,0.5097656-0.3964844,0.8203125c0.0625,0.7724609,0.5019531,1.9492188,2.2402344,3.1699219     l0.1083984,0.1035156l4.750001,6.2001953l0.9882813,3.4970703c0.1289063,1.1660156,2.4990234,2.9375,3.9667969,3.8007813     c2.4072266,1.734375,2.7695313,5.6904297,2.7832031,5.8583984L24.8513145,49.2592773z"/></g><g><path d="M39.5583458,49.2836914c-0.0820313-0.6054688-0.0849609-1.3984375-0.0087891-2.3554688     c0.0869141-1.1083984,0.2958984-2.2480469,0.6201172-3.3857422c0.5839844-2.0556641,0.859375-4.1328125,0.8173828-6.1728516     c-0.0927734-4.5087891-0.5878906-7.609375-1.3955078-8.7304688l-0.09375-0.1308594v-5.1240234     c0-1.1591797-0.9433594-2.1025391-2.1025391-2.1025391c-1.1601563,0-2.1035156,0.9433594-2.1035156,2.1025391v5.5927734h-1     v-5.5927734c0-1.7109375,1.3925781-3.1025391,3.1035156-3.1025391s3.1025391,1.3916016,3.1025391,3.1025391v4.8095703     c0.8916016,1.3935547,1.3925781,4.4716797,1.4892578,9.1542969c0.0439453,2.140625-0.2441406,4.3164063-0.8564453,6.4677734     c-0.3056641,1.0742188-0.5019531,2.1484375-0.5849609,3.1914063c-0.0703125,0.8867188-0.0693359,1.6074219,0.0029297,2.1416016     L39.5583458,49.2836914z"/></g></g><g><path d="M24.9177208,18.0288086l-0.4296875-0.9023438c2.3583984-1.1210938,3.8828125-3.6367188,3.8828125-6.4101563    c0-3.859375-2.9160156-7-6.5-7s-6.500001,3.140625-6.500001,7c0,2.7695313,1.5205088,5.2832031,3.8730478,6.4052734    l-0.4296875,0.9023438c-2.6992188-1.2861328-4.4433603-4.1552734-4.4433603-7.3076172c0-4.4111328,3.3642588-8,7.500001-8    s7.5,3.5888672,7.5,8C29.3708458,13.8735352,27.6227989,16.7446289,24.9177208,18.0288086z"/></g></g><text x="0" y="67" fill="#000000" font-size="5px" font-weight="bold" font-family="'Helvetica Neue', Helvetica, Arial-Unicode, Arial, Sans-serif">Created by DinosoftLabs</text><text x="0" y="72" fill="#000000" font-size="5px" font-weight="bold" font-family="'Helvetica Neue', Helvetica, Arial-Unicode, Arial, Sans-serif">from the Noun Project</text></svg>