<svg xmlns="http://www.w3.org/2000/svg" version="1.1" viewBox="-5.0 -10.0 110.0 135.0">
 <path d="m89.352 59.266-5.9492-3.6016c-0.19141-0.11719-0.42188-0.14453-0.64062-0.082031-0.21484 0.0625-0.39453 0.21484-0.48828 0.41797-0.17969 0.37109-0.36328 0.73438-0.54297 1.1055-3.5195-1.8633-6.1289-3.5273-7.4688-4.7656 0.23828-0.74609 0.26953-1.5703 0.039062-2.3711-0.33594-1.1758-1.3086-2.4219-3.0742-2.7695 0.046876-0.14062 0.09375-0.28516 0.14453-0.43359 0.49609-1.4492 1.3086-3.8203-1.3984-5.1172 0.22266-0.48047 0.32422-1.0586 0.28125-1.6836-0.10156-1.543-1.0078-3.082-2.2617-3.8867 0.79297-1.1328 0.96484-2.6367 0.41016-4.0469-0.61719-1.5781-2.3164-3.2422-5.2305-3.1914-0.53906 0.011718-1.0781 0.019531-1.6094 0.027344-0.90625 0.015624-1.8008 0.03125-2.6953 0.050781-0.4375-0.41016-0.82813-0.77734-1.1914-1.1133-1.9453-1.8125-2.9219-2.7227-5.0312-5.1953-1.1875-1.3945-3.1523-1.3438-5.4258-1.2852-2.5039 0.066406-5.3438 0.13672-8.1719-1.4922-0.75-0.43359-1.5977-0.39453-2.332 0.10547-1.0703 0.72656-1.6328 2.2539-1.4062 3.8047 0.023437 0.16797 0.0625 0.35547 0.11719 0.55469-0.93359 0.14844-1.9805 0.65234-2.6289 1.4727-0.52734 0.66016-1.1367 1.9609-0.22656 3.8828-0.875 0.058594-1.6016 0.32812-2.1289 0.87109-0.94922 0.97656-1.1797 2.6445-0.66406 4.8203-1.0273 0.64844-1.7266 1.5469-1.9805 2.582-0.23438 0.94922-0.09375 1.9727 0.39453 2.9648-0.91406 0.36719-1.5859 1.0508-1.875 1.957-0.41797 1.3203 0.042969 2.8164 1.2461 4.2383-1.2812 0.78516-2.1641 1.8047-3.0117 2.8008-0.91406 1.0703-1.8555 2.1719-3.3594 3.0781-0.27734 0.16797-1.3047 0.89844-3.0703 2.1641-0.12891-0.28125-0.26172-0.55469-0.38672-0.83984-0.09375-0.20703-0.26953-0.36719-0.48828-0.4375-0.21875-0.070312-0.45312-0.039062-0.64844 0.078126l-5.9492 3.6016c-0.33594 0.20312-0.47266 0.61719-0.32422 0.98047 3.0742 7.5625 6.8477 14.262 11.223 19.91 0.15625 0.20312 0.39062 0.30859 0.62891 0.30859 0.14844 0 0.30078-0.042969 0.43359-0.12891l6.2617-4.0703c0.1875-0.12109 0.31641-0.31641 0.35156-0.53906 0.035156-0.21875-0.023437-0.44531-0.16016-0.62109-0.22266-0.28125-0.4375-0.57812-0.66016-0.86328 0.77344-0.44922 1.543-0.89844 2.2891-1.332 2.2852-1.3242 4.2578-2.4688 5.4023-3.2188 2.3594-1.5469 7.1289-1.7812 11.34-1.9922 1.8594-0.09375 3.6367-0.18359 5.1523-0.37891h0.042968c2.0117 0 11.684 3.7305 14.629 5.2344 1.2109 0.61719 2.5039 1.3398 3.875 2.1016 0.32422 0.17969 0.65625 0.36328 0.98438 0.54688-0.39453 0.55859-0.78906 1.1172-1.1914 1.6562-0.12891 0.17578-0.18359 0.39844-0.14453 0.61328 0.039062 0.21484 0.16406 0.40625 0.34766 0.52344l6.2617 4.0703c0.13281 0.085938 0.28516 0.12891 0.43359 0.12891 0.24609 0 0.49219-0.11719 0.64453-0.33203 4.668-6.4844 8.332-12.988 11.203-19.883 0.15234-0.36328 0.015625-0.78125-0.32031-0.98438zm-51.742-38.012c0.13672-0.09375 0.25781-0.125 0.35938-0.125 0.11719 0 0.21094 0.042969 0.28516 0.085938 3.2188 1.8555 6.4297 1.7734 9.0078 1.707 1.9453-0.050781 3.4805-0.089844 4.1758 0.72656 2.168 2.543 3.2305 3.5312 5.1562 5.3242 0.003906 0.003906 0.007812 0.007813 0.011719 0.011719-2.7266 0.09375-5.4609 0.26562-8.3789 0.65234-1.2969-0.94531-2.7734-1.1953-4.2031-1.4336-0.78906-0.13281-1.6016-0.26562-2.4062-0.51953-2.7461-0.86328-4.4727-2.3828-4.7383-4.1719-0.15625-1.0508 0.25-1.9297 0.72656-2.2578zm-3.6016 5.5469c0.58984-0.79297 1.7422-1.0273 2.1172-0.95703 0.78125 1.1992 2.25 2.4883 5.0195 3.3594 0.90625 0.28516 1.7773 0.42969 2.6172 0.57031 1.418 0.23437 2.6406 0.44141 3.6602 1.2461 0.035156 0.027344 0.078125 0.054688 0.12109 0.078125 0.30078 0.16016 0.47656 0.37891 0.5625 0.69141 0.1875 0.70703-0.17188 1.6836-0.35547 1.9727-0.26562 0.42188-0.77734 0.65234-1.5625 0.70703-3.8164 0.26953-10.918-3.7109-11.508-4.4023-0.71484-0.94531-1.4102-2.2773-0.67578-3.2656zm-2.4258 4.832c0.39453-0.40625 1.1094-0.51172 2.1016-0.33984 1.5703 1.3711 8.1719 4.7773 12.16 4.7773 0.09375 0 0.18359 0 0.27344-0.003906 0.23828-0.011718 0.44922-0.050781 0.66406-0.085937 1.6484 0.60156 2.2148 2.2383 2.0312 3.6328-0.125 0.94531-0.65234 1.918-1.5469 1.9609-3.5625 0.16406-15.117-3.1094-15.945-6.5859-0.375-1.5781-0.28125-2.8008 0.25391-3.3516zm-2.2422 6.6758c0.14844-0.59375 0.53906-1.1094 1.1367-1.5234 1.4219 1.918 4.5273 3.3789 7.1406 4.3281 2.6797 0.97656 5.6758 1.6992 7.8906 1.9492 0.22266 0.68359 0.26172 1.5664-0.15234 2.2344-0.38281 0.61719-1.0938 0.92969-2.1172 0.92969-2.7461 0-11.758-3.4258-13.164-5.3047-0.67969-0.90625-0.92969-1.8086-0.73047-2.6133zm-1.5078 5.0234c0.17188-0.54688 0.65625-0.91406 1.3242-1.0664 2.0078 1.957 8.2344 4.4141 11.996 5.2539-0.070313 1.1055-0.45703 1.8516-1.2227 2.2227-2.6797 1.2969-8.8164-1.5352-10.25-2.7695-1.4766-1.2656-2.1641-2.625-1.8438-3.6367zm-5.4766 33.539c-3.9766-5.2539-7.4414-11.414-10.305-18.328l4.5977-2.7812c2.8242 6.2422 6.1445 11.91 9.875 16.906 0.003906 0.003906 0.003906 0.011719 0.007812 0.015625 0.007812 0.011718 0.019531 0.015625 0.027344 0.023437 0.24219 0.32031 0.47656 0.64844 0.72266 0.96484l-4.918 3.1953zm24.996-12.488c-4.625 0.23047-9.4102 0.46875-12.129 2.25-1.1094 0.72656-3.1602 1.9141-5.3281 3.1719-0.80078 0.46484-1.6328 0.94531-2.4609 1.4336-3.2148-4.3789-6.1055-9.2812-8.6328-14.633 1.5156-1.0859 2.9648-2.125 3.2148-2.2734 1.7266-1.0391 2.8008-2.2969 3.75-3.4102 0.91406-1.0703 1.7227-2.0117 2.9688-2.6758 1.1953 0.95703 5.8359 3.4062 9.4883 3.4062 0.87891 0 1.6992-0.14062 2.4023-0.48047 0.90625-0.4375 1.9492-1.3789 2.125-3.3828 0.17578 0.015626 0.34766 0.03125 0.49219 0.03125 2.0039 0 2.9922-0.91406 3.4688-1.6797 0.56641-0.91016 0.64453-2.0117 0.46094-2.9727 0.058594 0 0.12109 0 0.17969-0.003907 1.5703-0.074218 2.793-1.4141 3.0508-3.3398 0.20703-1.5781-0.3125-3.4727-1.7891-4.6289 0.1875-0.17187 0.35547-0.36328 0.49219-0.58203 0.25781-0.40625 0.91016-1.8711 0.54688-3.2305-0.027344-0.10156-0.070313-0.19141-0.10938-0.28906 4.1484-0.48047 8.0078-0.56641 12.059-0.63281 0.53516-0.007813 1.0703-0.019532 1.6133-0.027344 1.7812-0.03125 3.1719 0.78125 3.7188 2.1797 0.39844 1.0195 0.21484 2.0938-0.44922 2.8086l-7.418 0.99219c-0.43359 0.058594-0.74219 0.45703-0.68359 0.89453 0.054688 0.39844 0.39453 0.69141 0.78516 0.69141 0.035156 0 0.070312-0.003906 0.10547-0.007812l7.3125-0.97656c0.15625 0.13672 0.32422 0.26562 0.48437 0.35938 1.0234 0.60156 1.5508 1.8203 1.6094 2.6992 0.035156 0.5-0.078126 0.89844-0.29297 1.1289l-8.207 2.25c-0.42188 0.11719-0.67188 0.55469-0.55469 0.97656 0.097656 0.35156 0.41797 0.58594 0.76562 0.58594 0.070313 0 0.14062-0.007813 0.21094-0.027344l8.0586-2.207 0.089844 0.0625c0.054688 0.035156 0.10938 0.066406 0.16797 0.085938 1.7852 0.66406 1.5703 1.5508 0.96094 3.3281-0.12109 0.35547-0.23047 0.71484-0.32031 1.0703l-7.6328 3.1992c-0.40625 0.16797-0.59375 0.63672-0.42578 1.0391 0.12891 0.30469 0.42188 0.48828 0.73438 0.48828 0.10156 0 0.20703-0.019532 0.30859-0.0625l7.832-3.2812c1.7461 0.058593 2.2695 1.1953 2.4141 1.6953 0.29688 1.0508-0.089843 2.1523-0.94531 2.6797-1.3008 0.80469-2.8281 1.9102-4.4453 3.082-4.0234 2.918-9.0312 6.5469-13.453 7.582-1.6445 0.38281-4.0391 0.50391-6.5781 0.62891zm24.555 7.1562c-1.3828-0.76953-2.6875-1.4961-3.9258-2.1289-1.8711-0.95703-7.8125-3.3906-11.902-4.6406 4.2148-1.4961 8.6133-4.6875 12.238-7.3125 1.5938-1.1523 3.0938-2.2461 4.3477-3.0195 0.30078-0.1875 0.5625-0.42188 0.79297-0.67969 1.8477 1.6016 4.9492 3.3945 7.5742 4.7812-2.4766 4.9102-5.1562 9.4688-8 13.621-0.375-0.20703-0.75391-0.41797-1.1211-0.62109zm5.7148 7.0547-4.918-3.1992c3.625-4.9922 7.0039-10.637 10.066-16.793 0.007813-0.011718 0.019531-0.023437 0.027344-0.035156 0.007813-0.011718 0.003906-0.023437 0.011719-0.035156 0.17188-0.35156 0.35156-0.69531 0.52344-1.0469l4.6133 2.793c-2.6914 6.332-6.0742 12.336-10.32 18.32z"/>
<text x="0.0" y="117.5" font-size="5.0" font-weight="bold" font-family="Arbeit Regular, Helvetica, Arial-Unicode, Arial, Sans-serif" fill="#000000">Created by Nanik haq</text><text x="0.0" y="122.5" font-size="5.0" font-weight="bold" font-family="Arbeit Regular, Helvetica, Arial-Unicode, Arial, Sans-serif" fill="#000000">from Noun Project</text></svg>