<svg id="Layer_1" data-name="Layer 1" xmlns="http://www.w3.org/2000/svg" xmlns:xlink="http://www.w3.org/1999/xlink" viewBox="0 0 158.8 158.8"><defs><style>.cls-1,.cls-7,.cls-8{fill:none;}.cls-2{fill:#ecfbec;}.cls-3{clip-path:url(#clip-path);}.cls-4{fill:#cdf2ca;}.cls-5{fill:url(#Thick-Green-Horizontal-wBG);}.cls-6{fill:#0066f5;}.cls-7{stroke:#0066f5;}.cls-7,.cls-8{stroke-miterlimit:10;stroke-width:10.5px;}.cls-8{stroke:#003783;}</style><clipPath id="clip-path"><polygon class="cls-1" points="0 36.88 0 0 36.88 0 36.88 36.88 0 36.88"/></clipPath><pattern id="Thick-Green-Horizontal-wBG" data-name="Thick-Green-Horizontal-wBG" width="36.88" height="36.88" patternTransform="translate(121.57 -77.98) scale(1.63 1.72)" patternUnits="userSpaceOnUse" viewBox="0 0 36.88 36.88"><rect class="cls-1" width="36.88" height="36.88"/><polygon class="cls-2" points="0 36.88 0 0 36.88 0 36.88 36.88 0 36.88"/><g class="cls-3"><rect class="cls-4" y="-0.38" width="36.88" height="0.75"/><rect class="cls-4" y="1.79" width="36.88" height="0.75"/><rect class="cls-4" y="3.96" width="36.88" height="0.75"/><rect class="cls-4" y="6.13" width="36.88" height="0.75"/><rect class="cls-4" y="8.3" width="36.88" height="0.75"/><rect class="cls-4" y="10.47" width="36.88" height="0.75"/><rect class="cls-4" y="12.64" width="36.88" height="0.75"/><rect class="cls-4" y="14.81" width="36.88" height="0.75"/><rect class="cls-4" y="16.98" width="36.88" height="0.75"/><rect class="cls-4" y="19.15" width="36.88" height="0.75"/><rect class="cls-4" y="21.32" width="36.88" height="0.75"/><rect class="cls-4" y="23.49" width="36.88" height="0.75"/><rect class="cls-4" y="25.66" width="36.88" height="0.75"/><rect class="cls-4" y="27.82" width="36.88" height="0.75"/><rect class="cls-4" y="29.99" width="36.88" height="0.75"/><rect class="cls-4" y="32.16" width="36.88" height="0.75"/><rect class="cls-4" y="34.33" width="36.88" height="0.75"/><rect class="cls-4" y="36.5" width="36.88" height="0.75"/></g></pattern></defs><polygon class="cls-5" points="0.88 38.14 0.88 64.89 0.88 158.7 157.91 158.7 157.91 64.89 157.91 38.14 0.88 38.14"/><rect class="cls-6" x="0.88" y="13.48" width="157.03" height="24.67"/><path class="cls-7" d="M73,84.87a12,12,0,0,1,0-24H85.83a12,12,0,0,1,0,24"/><path class="cls-7" d="M73,108.84a12,12,0,0,1,0-24H85.83a12,12,0,0,1,0,24Z"/><line class="cls-8" x1="39.1" y1="13.48" x2="39.1" y2="26.85"/><line class="cls-8" x1="119.7" y1="13.48" x2="119.7" y2="26.85"/><line class="cls-7" x1="39.1" y1="0.1" x2="39.1" y2="13.48"/><line class="cls-7" x1="119.7" y1="0.1" x2="119.7" y2="13.48"/></svg>
