<svg id="Layer_1" data-name="Layer 1" xmlns="http://www.w3.org/2000/svg" xmlns:xlink="http://www.w3.org/1999/xlink" viewBox="0 0 158.8 158.8"><defs><style>.cls-1,.cls-23,.cls-25{fill:none;}.cls-2{fill:#fff0f4;}.cls-3{fill:#f4c9d2;}.cls-4{fill:#ecfbec;}.cls-5{clip-path:url(#clip-path);}.cls-6{fill:#cdf2ca;}.cls-7{isolation:isolate;}.cls-8{clip-path:url(#clip-path-2);}.cls-9{fill:#003b8d;}.cls-10{fill:#003d92;}.cls-11{fill:#003f97;}.cls-12{fill:#00419c;}.cls-13{fill:#0043a0;}.cls-14{fill:#0045a5;}.cls-15{fill:#0047aa;}.cls-16{fill:#0049af;}.cls-17{fill:#003988;}.cls-18{fill:#003783;}.cls-19{fill:#00357e;}.cls-20{fill:#0058d1;}.cls-21{clip-path:url(#clip-path-3);}.cls-22{fill:url(#Thick-Green-Horizontal-wBG);}.cls-23{stroke:#fff;}.cls-23,.cls-25{stroke-miterlimit:10;stroke-width:2px;}.cls-24{fill:#0066f3;}.cls-25{stroke:#003781;}.cls-26{fill:url(#Curved-Pink-wBG);}</style><clipPath id="clip-path"><polygon class="cls-1" points="0 36.88 0 0 36.88 0 36.88 36.88 0 36.88"/></clipPath><clipPath id="clip-path-2"><path class="cls-1" d="M38.14,26.18l-1,1.24c-1,1.28-2.84,1.89-5.27,1.56a17.14,17.14,0,0,1-12.26-9.59c-.94-2.32-.78-4.28.24-5.57l1-1.24c-1,1.29-1.17,3.25-.23,5.57a17.16,17.16,0,0,0,12.25,9.58C35.3,28.07,37.14,27.45,38.14,26.18Z"/></clipPath><clipPath id="clip-path-3"><path class="cls-1" d="M142.83,127.23l1,1.2c1,1.22,1.31,3.14.51,5.47-1.61,4.68-6.88,9.24-11.77,10.18-2.46.47-4.35-.06-5.42-1.3l-1-1.2c1.07,1.24,3,1.77,5.42,1.3a17.12,17.12,0,0,0,11.76-10.18C144.13,130.37,143.88,128.45,142.83,127.23Z"/></clipPath><pattern id="Thick-Green-Horizontal-wBG" data-name="Thick-Green-Horizontal-wBG" width="36.88" height="36.88" patternTransform="matrix(1.18, 1.18, -1.25, 1.25, 569.43, 282.38)" patternUnits="userSpaceOnUse" viewBox="0 0 36.88 36.88"><rect class="cls-1" width="36.88" height="36.88"/><polygon class="cls-4" points="0 36.88 0 0 36.88 0 36.88 36.88 0 36.88"/><g class="cls-5"><rect class="cls-6" y="-0.38" width="36.88" height="0.75"/><rect class="cls-6" y="1.79" width="36.88" height="0.75"/><rect class="cls-6" y="3.96" width="36.88" height="0.75"/><rect class="cls-6" y="6.13" width="36.88" height="0.75"/><rect class="cls-6" y="8.3" width="36.88" height="0.75"/><rect class="cls-6" y="10.47" width="36.88" height="0.75"/><rect class="cls-6" y="12.64" width="36.88" height="0.75"/><rect class="cls-6" y="14.81" width="36.88" height="0.75"/><rect class="cls-6" y="16.98" width="36.88" height="0.75"/><rect class="cls-6" y="19.15" width="36.88" height="0.75"/><rect class="cls-6" y="21.32" width="36.88" height="0.75"/><rect class="cls-6" y="23.49" width="36.88" height="0.75"/><rect class="cls-6" y="25.66" width="36.88" height="0.75"/><rect class="cls-6" y="27.82" width="36.88" height="0.75"/><rect class="cls-6" y="29.99" width="36.88" height="0.75"/><rect class="cls-6" y="32.16" width="36.88" height="0.75"/><rect class="cls-6" y="34.33" width="36.88" height="0.75"/><rect class="cls-6" y="36.5" width="36.88" height="0.75"/></g></pattern><pattern id="Curved-Pink-wBG" data-name="Curved-Pink-wBG" width="22.24" height="24.72" patternTransform="matrix(-1.18, 1.18, 1.25, 1.25, 74.74, 275.21)" patternUnits="userSpaceOnUse" viewBox="0 0 22.24 24.72"><rect class="cls-1" width="22.24" height="24.72"/><rect class="cls-2" x="16.68" width="11.12" height="24.72"/><polygon class="cls-3" points="16.68 0.35 16.68 0.66 16.68 0.66 16.68 0.35 16.68 0.35"/><polygon class="cls-3" points="16.68 24.06 16.68 24.37 16.68 24.37 16.68 24.06 16.68 24.06"/><path class="cls-3" d="M27.8,22.2v.49h0a6,6,0,0,1-1.1,1,2.39,2.39,0,0,0,1.1.32v.31a2.7,2.7,0,0,1-1.38-.43,2.76,2.76,0,0,1-1.39.43,2.73,2.73,0,0,1-1.39-.43,2.76,2.76,0,0,1-1.39.43,2.73,2.73,0,0,1-1.39-.43,2.76,2.76,0,0,1-1.39.43H19.4A3.24,3.24,0,0,1,18,24a2.59,2.59,0,0,1-1.3.39v-.31a2.21,2.21,0,0,0,1-.26,3.7,3.7,0,0,1-1-1.07V22.2a15.54,15.54,0,0,0,1.21-1.86c-.21-.38-.33-.65-.35-.7L16.68,18v-.67L17.89,15l-1.21-2.32V12l1.21-2.32L16.68,7.39V6.72l.86-1.65.35-.7a15.5,15.5,0,0,0-1.21-1.85V2a4.15,4.15,0,0,1,.75-.8L17.77,1A2.21,2.21,0,0,0,16.68.66V.35a2.71,2.71,0,0,1,1.4.44A2.75,2.75,0,0,1,19.47.35h0a2.75,2.75,0,0,1,1.4.42,2.45,2.45,0,0,1,2.76,0A2.64,2.64,0,0,1,25,.35a2.67,2.67,0,0,1,1.39.43A2.6,2.6,0,0,1,27.79.35V.66a2.28,2.28,0,0,0-1.1.32,6.35,6.35,0,0,1,1.1,1h0v.49h0a15.54,15.54,0,0,0-1.21,1.86c.21.39.33.66.35.7l.86,1.65h0v.67h0L26.58,9.71,27.79,12h0v.66h0L26.58,15l1.21,2.32h0V18h0l-.86,1.65s-.14.31-.35.69a14.1,14.1,0,0,0,1.21,1.86Zm-1.39-6.86-1.22,2.32,1,1.85a4.74,4.74,0,0,0,.25.5c.15-.29.24-.48.24-.49l1-1.86ZM20.85,10l-1.22,2.32,1.22,2.32,1.21-2.32Zm1.39,2,1.21-2.32L22.24,7.39,21,9.71ZM21,15l1.22,2.32L23.45,15l-1.21-2.32Zm2.61-.33,1.21-2.32L23.63,10l-1.22,2.32Zm.17.33L25,17.33,26.23,15,25,12.69ZM25,12l1.21-2.32L25,7.39,23.8,9.71Zm.86-7s.14-.31.35-.7A15.54,15.54,0,0,0,25,2.51a14.35,14.35,0,0,0-1.21,1.85,6.88,6.88,0,0,1,.34.72L25,6.72Zm-2.25-.38-.25.51-1,1.85,1.22,2.32,1.21-2.32-1-1.84S23.78,5,23.63,4.69Zm-.17-.33a12.77,12.77,0,0,0-1.2-1.88A14.05,14.05,0,0,0,21,4.38c.21.38.33.65.35.69l.87,1.65.86-1.65C23.12,5,23.25,4.75,23.46,4.36Zm-2.61.35c-.16.29-.24.48-.25.49l-1,1.85,1.22,2.32,1.21-2.32-1-1.84S21,5,20.85,4.71Zm-.18-.33a13.78,13.78,0,0,0-1.21-1.87,14.57,14.57,0,0,0-1.22,1.86c.21.39.33.66.35.7l.87,1.65.86-1.65S20.47,4.76,20.67,4.38Zm-1.21,3L18.24,9.71,19.46,12l1.21-2.32Zm0,5.3L18.24,15l1.22,2.32L20.67,15Zm0,5.31-.87,1.65s-.14.31-.35.69a13.3,13.3,0,0,0,1.22,1.86,13.74,13.74,0,0,0,1.21-1.86c-.21-.38-.33-.65-.35-.7Zm1.39,2c.15-.29.24-.48.24-.49l1-1.86-1.21-2.32-1.22,2.32,1,1.85S20.69,19.71,20.85,20Zm.17.33a13.3,13.3,0,0,0,1.22,1.86,13.74,13.74,0,0,0,1.21-1.86c-.21-.38-.33-.65-.35-.7L22.24,18l-.87,1.65S21.23,20,21,20.34ZM23.63,20c.15-.29.24-.48.24-.49l1-1.86-1.21-2.32-1.22,2.32,1,1.85A4.74,4.74,0,0,0,23.63,20Zm.17.33A13.3,13.3,0,0,0,25,22.2a14.78,14.78,0,0,0,1.21-1.86c-.21-.38-.33-.65-.35-.7L25,18l-.87,1.65S24,20,23.8,20.34ZM26.41,10l-1.22,2.32,1.22,2.32,1.21-2.32Zm0-5.33a5.34,5.34,0,0,0-.25.49l-1,1.85,1.22,2.32,1.21-2.32-1-1.84S26.56,5,26.41,4.71ZM25.22,2.27a14.12,14.12,0,0,1,1.19,1.78,13,13,0,0,1,1.18-1.78,6.14,6.14,0,0,0-1.18-1.11A5.91,5.91,0,0,0,25.22,2.27ZM23.91,1A6.79,6.79,0,0,1,25,2a6.35,6.35,0,0,1,1.1-1,2.07,2.07,0,0,0-2.21,0ZM22.47,2.24A13.2,13.2,0,0,1,23.64,4a13,13,0,0,1,1.17-1.76,6.14,6.14,0,0,0-1.18-1.11A5.6,5.6,0,0,0,22.47,2.24ZM21.16,1a6.29,6.29,0,0,1,1.1,1,6.41,6.41,0,0,1,1.08-1,2.28,2.28,0,0,0-1.1-.32A2.38,2.38,0,0,0,21.16,1Zm-.29.18a5.83,5.83,0,0,0-1.21,1.13,14.12,14.12,0,0,1,1.19,1.78,12.65,12.65,0,0,1,1.21-1.81A5.58,5.58,0,0,0,20.87,1.14ZM18.36,1a7.16,7.16,0,0,1,1.1,1,6.52,6.52,0,0,1,1.12-1A2.42,2.42,0,0,0,19.46.66,2.24,2.24,0,0,0,18.36,1Zm-.29,3.07a13,13,0,0,1,1.18-1.78,6,6,0,0,0-1.19-1.12l-.44.31a3.61,3.61,0,0,0-.74.8A14.17,14.17,0,0,1,18.07,4.05Zm0,5.32,1.21-2.32-1-1.84s-.1-.21-.25-.5c-.16.29-.24.48-.25.49l-1,1.85Zm0,5.31,1.21-2.32L18.07,10l-1.22,2.32Zm0,5.33c.15-.29.24-.48.24-.49l1-1.86-1.21-2.32-1.22,2.32,1,1.85A4.74,4.74,0,0,0,18.07,20Zm1.18,2.44a13,13,0,0,1-1.18-1.78,15.16,15.16,0,0,1-1.2,1.8A3.27,3.27,0,0,0,18,23.63,5.86,5.86,0,0,0,19.25,22.45Zm1.31,1.29a6,6,0,0,1-1.1-1,6.43,6.43,0,0,1-1.18,1.1,3.07,3.07,0,0,0,1.17.27A2.4,2.4,0,0,0,20.56,23.74ZM22,22.45a13,13,0,0,1-1.18-1.78,14.12,14.12,0,0,1-1.19,1.78,6.14,6.14,0,0,0,1.18,1.11A5.91,5.91,0,0,0,22,22.45Zm1.31,1.29a6,6,0,0,1-1.1-1,6.44,6.44,0,0,1-1.11,1,2.07,2.07,0,0,0,2.21,0Zm1.47-1.29a13,13,0,0,1-1.18-1.78,14.12,14.12,0,0,1-1.19,1.78,5.91,5.91,0,0,0,1.19,1.11A6.14,6.14,0,0,0,24.81,22.45Zm1.31,1.29a6,6,0,0,1-1.1-1,6.44,6.44,0,0,1-1.11,1,2.07,2.07,0,0,0,2.21,0Zm1.47-1.29a13,13,0,0,1-1.18-1.78,14.12,14.12,0,0,1-1.19,1.78,5.91,5.91,0,0,0,1.19,1.11A6.14,6.14,0,0,0,27.59,22.45Z"/><rect class="cls-2" x="5.56" width="11.12" height="24.72"/><polygon class="cls-3" points="5.56 0.35 5.56 0.66 5.56 0.66 5.56 0.35 5.56 0.35"/><polygon class="cls-3" points="5.56 24.06 5.56 24.37 5.56 24.37 5.56 24.06 5.56 24.06"/><path class="cls-3" d="M16.68,22.2v.49h0a6.44,6.44,0,0,1-1.11,1,2.4,2.4,0,0,0,1.11.32v.31a2.73,2.73,0,0,1-1.39-.43,2.76,2.76,0,0,1-1.39.43,2.73,2.73,0,0,1-1.39-.43,2.76,2.76,0,0,1-1.39.43,2.73,2.73,0,0,1-1.39-.43,2.76,2.76,0,0,1-1.39.43H8.29A3.24,3.24,0,0,1,6.86,24a2.59,2.59,0,0,1-1.3.39v-.31a2.21,2.21,0,0,0,1-.26,3.7,3.7,0,0,1-1-1.07V22.2a13.4,13.4,0,0,0,1.21-1.86c-.2-.38-.33-.65-.35-.7L5.56,18v-.67L6.77,15,5.56,12.69V12L6.77,9.71,5.56,7.39V6.72l.87-1.65s.14-.31.34-.7A15.5,15.5,0,0,0,5.56,2.52V2a4.49,4.49,0,0,1,.75-.8L6.65,1A2.21,2.21,0,0,0,5.56.66V.35A2.68,2.68,0,0,1,7,.79,2.75,2.75,0,0,1,8.35.35h0a2.7,2.7,0,0,1,1.4.42A2.68,2.68,0,0,1,11.12.35a2.67,2.67,0,0,1,1.39.43A2.64,2.64,0,0,1,13.9.35a2.67,2.67,0,0,1,1.39.43A2.64,2.64,0,0,1,16.68.35V.66A2.29,2.29,0,0,0,15.57,1a6.79,6.79,0,0,1,1.11,1h0v.49h0a14.57,14.57,0,0,0-1.22,1.86c.21.39.33.66.35.7l.87,1.65h0v.67h0L15.46,9.71,16.68,12h0v.66h0L15.46,15l1.22,2.32h0V18h0l-.87,1.65s-.14.31-.35.69a13.3,13.3,0,0,0,1.22,1.86Zm-1.39-6.86-1.22,2.32,1,1.85a4.74,4.74,0,0,0,.25.5c.15-.29.24-.48.24-.49l1-1.86ZM9.73,10,8.51,12.36l1.22,2.32,1.21-2.32Zm1.39,2,1.21-2.32L11.12,7.39,9.9,9.71ZM9.9,15l1.22,2.32L12.33,15l-1.21-2.32Zm2.61-.33,1.21-2.32L12.51,10l-1.22,2.32Zm.17.33,1.22,2.32L15.11,15,13.9,12.69Zm1.22-3,1.21-2.32L13.9,7.39,12.68,9.71Zm.86-7,.35-.7A14.39,14.39,0,0,0,13.9,2.51a14.35,14.35,0,0,0-1.21,1.85c.21.39.33.67.35.72l.86,1.64Zm-2.25-.38c-.15.3-.24.5-.25.51l-1,1.85,1.22,2.32,1.21-2.32-1-1.84S12.66,5,12.51,4.69Zm-.17-.33a12.77,12.77,0,0,0-1.2-1.88,13.89,13.89,0,0,0-1.23,1.9c.2.38.33.65.35.69l.86,1.65L12,5.07C12,5,12.13,4.75,12.34,4.36Zm-2.61.35-.25.49-1,1.85L9.73,9.37l1.21-2.32L10,5.21S9.88,5,9.73,4.71Zm-.18-.33A13.78,13.78,0,0,0,8.34,2.51,13.4,13.4,0,0,0,7.13,4.37l.35.7.86,1.65.87-1.65S9.35,4.76,9.55,4.38Zm-1.21,3L7.12,9.71,8.34,12,9.55,9.71Zm0,5.3L7.12,15l1.22,2.32L9.55,15Zm0,5.31-.87,1.65s-.14.31-.34.69A12.32,12.32,0,0,0,8.34,22.2a13.74,13.74,0,0,0,1.21-1.86c-.2-.38-.33-.65-.35-.7Zm1.39,2c.15-.29.24-.48.24-.49l1-1.86L9.73,15.34,8.51,17.66l1,1.85S9.57,19.71,9.73,20Zm.18.33a12.32,12.32,0,0,0,1.21,1.86,13.74,13.74,0,0,0,1.21-1.86c-.2-.38-.33-.65-.35-.7L11.12,18l-.87,1.65S10.11,20,9.91,20.34Zm2.6-.33c.15-.29.24-.48.24-.49l1-1.86-1.21-2.32-1.22,2.32,1,1.85A4.74,4.74,0,0,0,12.51,20Zm.18.33A12.32,12.32,0,0,0,13.9,22.2a13.74,13.74,0,0,0,1.21-1.86c-.21-.38-.33-.65-.35-.7L13.9,18,13,19.65S12.89,20,12.69,20.34ZM15.29,10l-1.22,2.32,1.22,2.32,1.21-2.32Zm0-5.33c-.16.29-.24.48-.25.49l-1,1.85,1.22,2.32L16.5,7.05l-1-1.84S15.44,5,15.29,4.71ZM14.1,2.27a14.12,14.12,0,0,1,1.19,1.78,13,13,0,0,1,1.18-1.78,6.14,6.14,0,0,0-1.18-1.11A5.91,5.91,0,0,0,14.1,2.27ZM12.8,1a7.16,7.16,0,0,1,1.1,1A6.35,6.35,0,0,1,15,1,2.25,2.25,0,0,0,13.9.66,2.22,2.22,0,0,0,12.8,1ZM11.35,2.24A12.3,12.3,0,0,1,12.52,4a13,13,0,0,1,1.17-1.76,6.14,6.14,0,0,0-1.18-1.11A5.6,5.6,0,0,0,11.35,2.24ZM10.05,1a7.08,7.08,0,0,1,1.1,1,6,6,0,0,1,1.07-1,2.25,2.25,0,0,0-1.1-.32A2.3,2.3,0,0,0,10.05,1Zm-.3.18A6.09,6.09,0,0,0,8.54,2.27,14.12,14.12,0,0,1,9.73,4.05a13.56,13.56,0,0,1,1.21-1.81A5.58,5.58,0,0,0,9.75,1.14ZM7.24,1a6.73,6.73,0,0,1,1.1,1A6.52,6.52,0,0,1,9.46,1,2.39,2.39,0,0,0,8.34.66,2.24,2.24,0,0,0,7.24,1ZM7,4.05A14,14,0,0,1,8.13,2.27,6.2,6.2,0,0,0,7,1.15a5.23,5.23,0,0,0-.45.31,3.61,3.61,0,0,0-.74.8A14.17,14.17,0,0,1,7,4.05ZM7,9.37,8.16,7.05l-1-1.84L7,4.71,6.7,5.2l-1,1.85Zm0,5.31,1.21-2.32L7,10,5.73,12.36ZM7,20c.15-.29.24-.48.24-.49l1-1.86L7,15.34,5.73,17.66l1,1.85A4.74,4.74,0,0,0,7,20Zm1.18,2.44A14,14,0,0,1,7,20.67a14,14,0,0,1-1.2,1.8,3.36,3.36,0,0,0,1.11,1.16A5.86,5.86,0,0,0,8.13,22.45Zm1.31,1.29a6,6,0,0,1-1.1-1,6.71,6.71,0,0,1-1.17,1.1,3,3,0,0,0,1.16.27A2.4,2.4,0,0,0,9.44,23.74Zm1.47-1.29a14,14,0,0,1-1.18-1.78,14.12,14.12,0,0,1-1.19,1.78,5.91,5.91,0,0,0,1.19,1.11A6.14,6.14,0,0,0,10.91,22.45Zm1.31,1.29a6,6,0,0,1-1.1-1,6.77,6.77,0,0,1-1.1,1,2.33,2.33,0,0,0,1.1.32A2.36,2.36,0,0,0,12.22,23.74Zm1.47-1.29a13,13,0,0,1-1.18-1.78,14.12,14.12,0,0,1-1.19,1.78,5.91,5.91,0,0,0,1.19,1.11A6.14,6.14,0,0,0,13.69,22.45ZM15,23.74a6,6,0,0,1-1.1-1,6.77,6.77,0,0,1-1.1,1,2.33,2.33,0,0,0,1.1.32A2.36,2.36,0,0,0,15,23.74Zm1.47-1.29a13,13,0,0,1-1.18-1.78,14.12,14.12,0,0,1-1.19,1.78,5.91,5.91,0,0,0,1.19,1.11A6.14,6.14,0,0,0,16.47,22.45Z"/><rect class="cls-2" x="-5.56" width="11.12" height="24.72"/><path class="cls-3" d="M5.56,22.2v.49h0a6.77,6.77,0,0,1-1.1,1,2.33,2.33,0,0,0,1.1.32v.31a2.73,2.73,0,0,1-1.39-.43,2.76,2.76,0,0,1-1.39.43,2.76,2.76,0,0,1-1.39-.43A2.76,2.76,0,0,1,0,24.37a2.76,2.76,0,0,1-1.39-.43,2.76,2.76,0,0,1-1.39.43h-.05A3.18,3.18,0,0,1-4.25,24a2.65,2.65,0,0,1-1.31.39v-.31a2.29,2.29,0,0,0,1-.26,3.59,3.59,0,0,1-1-1.07V22.2a13.4,13.4,0,0,0,1.21-1.86c-.2-.38-.33-.65-.35-.7L-5.56,18v-.67L-4.34,15l-1.22-2.32V12l1.22-2.32L-5.56,7.39V6.72l.87-1.65s.14-.31.34-.7A13.36,13.36,0,0,0-5.56,2.52V2a4.19,4.19,0,0,1,.76-.8A3.29,3.29,0,0,1-4.47,1,2.18,2.18,0,0,0-5.56.66V.35a2.68,2.68,0,0,1,1.4.44A2.79,2.79,0,0,1-2.77.35h0A2.76,2.76,0,0,1-1.36.77,2.64,2.64,0,0,1,0,.35,2.67,2.67,0,0,1,1.39.78,2.67,2.67,0,0,1,2.78.35,2.67,2.67,0,0,1,4.17.78,2.64,2.64,0,0,1,5.56.35V.66A2.22,2.22,0,0,0,4.46,1a7.16,7.16,0,0,1,1.1,1h0v.49h0A13.4,13.4,0,0,0,4.35,4.37l.35.7.86,1.65h0v.67h0L4.34,9.71,5.56,12h0v.66h0L4.34,15l1.22,2.32h0V18h0l-.87,1.65s-.14.31-.34.69A12.32,12.32,0,0,0,5.56,22.2ZM4.17,15.34,3,17.66l1,1.85a4.74,4.74,0,0,0,.25.5c.15-.29.24-.48.24-.49l1-1.86ZM-1.39,10l-1.22,2.32,1.22,2.32,1.22-2.32ZM0,12,1.22,9.71,0,7.39-1.22,9.71Zm-1.22,3L0,17.33,1.22,15,0,12.69Zm2.61-.33L2.6,12.36,1.39,10,.17,12.36Zm.17.33,1.22,2.32L4,15,2.78,12.69Zm1.22-3L4,9.71,2.78,7.39,1.56,9.71Zm.87-7s.14-.31.34-.7A14.39,14.39,0,0,0,2.78,2.51a13.2,13.2,0,0,0-1.2,1.85c.2.39.32.67.34.72l.86,1.64ZM1.4,4.69c-.16.3-.25.5-.26.51l-1,1.85L1.39,9.37,2.61,7.05l-1-1.84S1.55,5,1.4,4.69Zm-.18-.33A12.77,12.77,0,0,0,0,2.48a13.89,13.89,0,0,0-1.23,1.9c.2.38.33.65.35.69L0,6.72.87,5.07C.89,5,1,4.75,1.22,4.36Zm-2.61.35c-.15.29-.24.48-.24.49l-1,1.85,1.22,2.32L-.17,7.05l-1-1.84S-1.24,5-1.39,4.71Zm-.18-.33A12.88,12.88,0,0,0-2.78,2.51,13.4,13.4,0,0,0-4,4.37c.2.39.33.66.35.7l.86,1.65.87-1.65S-1.77,4.76-1.57,4.38Zm-1.21,3L-4,9.71-2.78,12l1.22-2.32Zm0,5.3L-4,15l1.22,2.32L-1.56,15Zm0,5.31-.87,1.65s-.14.31-.34.69A13.15,13.15,0,0,0-2.78,22.2a12.84,12.84,0,0,0,1.21-1.86c-.2-.38-.33-.65-.35-.7Zm1.39,2c.15-.29.24-.48.24-.49l1-1.86-1.22-2.32-1.22,2.32,1,1.85S-1.54,19.71-1.39,20Zm.18.33A12.32,12.32,0,0,0,0,22.2a12.84,12.84,0,0,0,1.21-1.86c-.2-.38-.33-.65-.35-.7L0,18l-.87,1.65S-1,20-1.21,20.34ZM1.39,20c.15-.29.24-.48.24-.49l1-1.86L1.39,15.34.17,17.66l1,1.85Zm.18.33A12.32,12.32,0,0,0,2.78,22.2,13.74,13.74,0,0,0,4,20.34c-.2-.38-.33-.65-.35-.7L2.78,18l-.87,1.65S1.77,20,1.57,20.34ZM4.17,10,3,12.36l1.22,2.32,1.21-2.32Zm0-5.33-.25.49L3,7.05,4.17,9.37,5.38,7.05l-1-1.84S4.32,5,4.17,4.71ZM3,2.27A14.12,14.12,0,0,1,4.17,4.05,14,14,0,0,1,5.35,2.27,6.14,6.14,0,0,0,4.17,1.16,5.91,5.91,0,0,0,3,2.27ZM1.68,1a7.16,7.16,0,0,1,1.1,1,6.73,6.73,0,0,1,1.1-1A2.22,2.22,0,0,0,2.78.66,2.22,2.22,0,0,0,1.68,1ZM.23,2.24A12.3,12.3,0,0,1,1.4,4,12.29,12.29,0,0,1,2.58,2.27,6.18,6.18,0,0,0,1.39,1.16,5.86,5.86,0,0,0,.23,2.24ZM-1.07,1A6.66,6.66,0,0,1,0,2,6.76,6.76,0,0,1,1.1,1,2.22,2.22,0,0,0,0,.66,2.3,2.3,0,0,0-1.07,1Zm-.3.18A6.09,6.09,0,0,0-2.58,2.27,13.11,13.11,0,0,1-1.39,4.05,13.56,13.56,0,0,1-.18,2.24,5.58,5.58,0,0,0-1.37,1.14ZM-3.88,1a6.73,6.73,0,0,1,1.1,1A6.91,6.91,0,0,1-1.66,1,2.39,2.39,0,0,0-2.78.66,2.27,2.27,0,0,0-3.88,1Zm-.29,3.07A13.11,13.11,0,0,1-3,2.27,6.56,6.56,0,0,0-4.17,1.15l-.45.31a3.87,3.87,0,0,0-.74.8A13.16,13.16,0,0,1-4.17,4.05Zm0,5.32,1.22-2.32-1-1.84a4.74,4.74,0,0,0-.25-.5c-.15.29-.24.48-.24.49l-1,1.85Zm0,5.31,1.22-2.32L-4.17,10l-1.21,2.32Zm0,5.33.25-.49,1-1.86-1.22-2.32-1.21,2.32,1,1.85S-4.32,19.72-4.17,20ZM-3,22.45a13.11,13.11,0,0,1-1.19-1.78,14,14,0,0,1-1.2,1.8,3.36,3.36,0,0,0,1.11,1.16A6.15,6.15,0,0,0-3,22.45Zm1.3,1.29a6.77,6.77,0,0,1-1.1-1,6.71,6.71,0,0,1-1.17,1.1,3,3,0,0,0,1.16.27A2.4,2.4,0,0,0-1.68,23.74ZM-.2,22.45a13.11,13.11,0,0,1-1.19-1.78,13.11,13.11,0,0,1-1.19,1.78,6.18,6.18,0,0,0,1.19,1.11A6.49,6.49,0,0,0-.2,22.45Zm1.3,1.29a6.77,6.77,0,0,1-1.1-1,6.77,6.77,0,0,1-1.1,1,2.33,2.33,0,0,0,1.1.32A2.33,2.33,0,0,0,1.1,23.74Zm1.48-1.29a13.11,13.11,0,0,1-1.19-1.78A13.11,13.11,0,0,1,.2,22.45a6.18,6.18,0,0,0,1.19,1.11A6.18,6.18,0,0,0,2.58,22.45Zm1.3,1.29a6.39,6.39,0,0,1-1.1-1,6.77,6.77,0,0,1-1.1,1,2.33,2.33,0,0,0,1.1.32A2.33,2.33,0,0,0,3.88,23.74Zm1.47-1.29a14,14,0,0,1-1.18-1.78A13.11,13.11,0,0,1,3,22.45a5.91,5.91,0,0,0,1.19,1.11A6.14,6.14,0,0,0,5.35,22.45Z"/></pattern></defs><g class="cls-7"><g class="cls-7"><g class="cls-8"><g class="cls-7"><path class="cls-9" d="M38.14,26.18l-1,1.24-.06.08,1-1.25.06-.07"/><path class="cls-10" d="M38.08,26.25l-1,1.25a3.82,3.82,0,0,1-.45.45l1-1.24a3.92,3.92,0,0,0,.45-.46"/><path class="cls-11" d="M37.63,26.71l-1,1.24a4.09,4.09,0,0,1-.52.38l1-1.25a4,4,0,0,0,.52-.37"/><path class="cls-12" d="M37.11,27.08l-1,1.25a4.37,4.37,0,0,1-.61.31l1-1.24a4,4,0,0,0,.62-.32"/><path class="cls-13" d="M36.49,27.4l-1,1.24a5.64,5.64,0,0,1-.76.25l1-1.25a5.07,5.07,0,0,0,.75-.24"/><path class="cls-14" d="M35.74,27.64l-1,1.25a7.34,7.34,0,0,1-1,.15l1-1.24a6,6,0,0,0,1-.16"/><path class="cls-15" d="M34.75,27.8l-1,1.24A8.48,8.48,0,0,1,32,29l1-1.25a8.52,8.52,0,0,0,1.73.05"/><path class="cls-16" d="M33,27.75,32,29l-.15,0a12.83,12.83,0,0,1-2.56-.65l1-1.25a12.1,12.1,0,0,0,2.55.65l.16,0"/><path class="cls-15" d="M30.31,27.08l-1,1.25a17.06,17.06,0,0,1-2-.88l1-1.24a15.42,15.42,0,0,0,2,.87"/><path class="cls-14" d="M28.35,26.21l-1,1.24c-.42-.22-.83-.46-1.23-.71l1-1.24c.4.25.81.49,1.23.71"/><path class="cls-13" d="M27.12,25.5l-1,1.24c-.34-.22-.68-.45-1-.69l1-1.24c.33.24.67.47,1,.69"/><path class="cls-12" d="M26.11,24.81l-1,1.24c-.3-.22-.6-.45-.89-.69l1-1.24c.29.24.59.47.89.69"/><path class="cls-11" d="M25.22,24.12l-1,1.24c-.28-.23-.55-.47-.82-.71l1-1.25c.26.25.54.49.82.72"/><path class="cls-10" d="M24.4,23.4l-1,1.25c-.26-.25-.52-.5-.77-.76l1-1.24c.25.26.51.51.77.75"/><path class="cls-9" d="M23.63,22.65l-1,1.24c-.26-.26-.5-.54-.74-.82l1-1.24c.24.28.48.55.74.82"/><path class="cls-17" d="M22.89,21.83l-1,1.24c-.26-.3-.5-.61-.73-.93l1-1.24c.23.32.47.63.73.93"/><path class="cls-18" d="M22.16,20.9l-1,1.24A12.4,12.4,0,0,1,20.41,21l1-1.25a12.54,12.54,0,0,0,.77,1.18"/><path class="cls-19" d="M21.39,19.72l-1,1.25a11,11,0,0,1-.78-1.58c-.94-2.32-.78-4.28.24-5.57l1-1.24c-1,1.29-1.17,3.25-.23,5.57a10.42,10.42,0,0,0,.78,1.57"/></g></g></g><path class="cls-20" d="M38.37,20.61c1.87,4.61-.6,7.8-5.51,7.12a17.16,17.16,0,0,1-12.25-9.58c-1.87-4.62.61-7.8,5.51-7.13A17.13,17.13,0,0,1,38.37,20.61Z"/></g><g class="cls-7"><g class="cls-7"><g class="cls-21"><g class="cls-7"><path class="cls-9" d="M142.83,127.23l1,1.2.06.07-1-1.2-.06-.07"/><path class="cls-10" d="M142.89,127.3l1,1.2a4.8,4.8,0,0,1,.36.52l-1-1.2a4.8,4.8,0,0,0-.36-.52"/><path class="cls-11" d="M143.25,127.82l1,1.2a5.3,5.3,0,0,1,.27.59l-1-1.2a5.3,5.3,0,0,0-.27-.59"/><path class="cls-12" d="M143.52,128.41l1,1.2a4.58,4.58,0,0,1,.19.66l-1-1.2a4.57,4.57,0,0,0-.18-.66"/><path class="cls-13" d="M143.7,129.07l1,1.2a5,5,0,0,1,.09.79l-1-1.2a5,5,0,0,0-.1-.79"/><path class="cls-14" d="M143.8,129.86l1,1.2a6.8,6.8,0,0,1,0,1l-1-1.2a6.85,6.85,0,0,0,0-1"/><path class="cls-15" d="M143.76,130.86l1,1.2a9.63,9.63,0,0,1-.38,1.69l-1-1.2a8.11,8.11,0,0,0,.38-1.69"/><path class="cls-16" d="M143.38,132.55l1,1.2a.88.88,0,0,0,0,.15,12.87,12.87,0,0,1-1.13,2.38l-1-1.2a11.7,11.7,0,0,0,1.13-2.38.88.88,0,0,0,0-.15"/><path class="cls-15" d="M142.2,135.08l1,1.2A17,17,0,0,1,142,138l-1-1.2a15.52,15.52,0,0,0,1.23-1.76"/><path class="cls-14" d="M141,136.84l1,1.2c-.3.36-.61.72-.94,1.06l-1-1.2c.33-.34.64-.7.94-1.06"/><path class="cls-13" d="M140,137.9l1,1.2a11.77,11.77,0,0,1-.87.86l-1-1.2c.3-.27.59-.56.87-.86"/><path class="cls-12" d="M139.16,138.76l1,1.2q-.41.39-.84.75l-1-1.2c.29-.24.58-.49.85-.75"/><path class="cls-11" d="M138.31,139.51l1,1.2c-.28.23-.57.45-.86.66l-1-1.2c.29-.21.57-.43.85-.66"/><path class="cls-10" d="M137.46,140.17l1,1.2c-.29.21-.59.42-.89.61l-1-1.2c.3-.19.59-.4.89-.61"/><path class="cls-9" d="M136.57,140.78l1,1.2c-.31.2-.63.39-.95.57l-1-1.2c.32-.18.64-.37.95-.57"/><path class="cls-17" d="M135.62,141.35l1,1.2c-.34.19-.7.37-1.05.54l-1-1.2q.52-.25,1.05-.54"/><path class="cls-18" d="M134.57,141.89l1,1.2c-.43.2-.87.38-1.3.53l-1-1.2c.43-.15.87-.33,1.3-.53"/><path class="cls-19" d="M133.27,142.42l1,1.2a12.28,12.28,0,0,1-1.7.46c-2.46.47-4.35-.06-5.42-1.3l-1-1.2c1.07,1.24,3,1.77,5.42,1.3a11,11,0,0,0,1.7-.46"/></g></g></g><path class="cls-20" d="M137.4,125.92c4.89-.94,7.54,2.1,5.93,6.78a17.12,17.12,0,0,1-11.76,10.18c-4.89.94-7.54-2.1-5.93-6.78A17.12,17.12,0,0,1,137.4,125.92Z"/></g><polygon class="cls-22" points="96.3 142.28 58.72 104.7 120.86 42.57 158.44 80.15 96.3 142.28"/><circle class="cls-23" cx="108.58" cy="92.42" r="15.76"/><rect class="cls-24" x="52.83" y="16.52" width="53.15" height="87.87"/><circle class="cls-25" cx="79.4" cy="60.45" r="15.76"/><polygon class="cls-26" points="62.49 142.28 100.07 104.7 37.94 42.57 0.36 80.15 62.49 142.28"/><circle class="cls-23" cx="50.22" cy="92.42" r="15.76"/></svg>
