<?xml version="1.0" standalone="yes"?>
<svg xmlns="http://www.w3.org/2000/svg" width="536" height="601">
<path style="fill:#3362b0; stroke:none;" d="M0 0L0 73L1 73C1.72409 37.9191 36.9998 2.52545 72 1L49 0L0 0z"/>
<path style="fill:#ffffff; stroke:none;" d="M375 467C396.511 466.076 418.865 458.791 438 449.247C541.584 397.582 568.541 256.037 490.83 170C476.167 153.766 458.537 140.521 439 130.753C419.568 121.037 396.969 113.014 375 113C375 94.0247 377.519 73.2008 371.135 55C368.486 47.4479 364.868 40.5533 360.279 34C334.587 -2.68359 293.611 0 254 0L156 0C108.469 0 49.6504 -10.6829 16.5139 32C-0.195621 53.5234 0 78.1385 0 104L0 174C0 289.639 -1.37162 405.371 0.00385802 521C0.115562 530.39 2.09164 540.303 5.60417 549C31.6293 613.439 107.005 601 163 601L251 601C291.84 601 333.829 603.237 360.572 566C365.418 559.252 369.022 551.878 371.645 544C379.421 520.649 375 491.355 375 467z"/>
<path style="fill:#3362b0; stroke:none;" d="M304 0L304 1C336.74 3.60577 365.86 31.6671 373.113 63C376.83 79.0593 375 96.6093 375 113C439.299 113.177 500.268 165.848 523.2 223C529.312 238.233 534.863 255.434 535 272L536 272L536 0L304 0M335 466C256.022 459.759 192.409 388.81 181.87 313C177.913 284.541 181.26 254.953 191.425 228C194.631 219.498 198.919 203.83 210 203.149C217.89 202.664 225.639 209.937 224.631 218C223.264 228.933 215.598 240.139 212.735 251C206.556 274.437 206.203 299.359 211.424 323C231.266 412.836 331.424 464.082 416 428.988C512.685 388.871 539.114 260.342 466.961 185C430.701 147.138 383.096 137.046 333 141L349 160L306 162.961L276 165L287 93L311.015 116.799L337 113C337 92.0835 338.741 73.1263 321 58.3256C304.581 44.6271 281.879 48 262 48L131 48C97.3868 48 46.6658 40.2714 38.6157 85C33.2449 114.842 38 149.657 38 180L38 374L38 437C38 451.685 37.1584 465.604 46.5147 477.996C63.4014 500.363 90.2688 496 115 496L282 496C304.391 496 327.842 490.848 335 466z"/>
<path style="fill:#ffffff; stroke:none;" d="M422 201.638C404.421 206.719 408 227.975 408 242L408 321C408 334.056 406.567 348.045 408.185 361C409.737 373.423 421.982 381.243 434 378.471C452.844 374.123 450 353.804 450 339C450 299.733 454.068 258.014 449.826 219C448.325 205.19 434.987 197.885 422 201.638M352 240.533C337.732 243.979 337 259.083 337 271C337 299.672 332.982 331.696 337.439 360C339.528 373.267 350.564 381.517 364 378.316C379.101 374.719 379 360.516 379 348L379 286C379 276.186 380.686 264.584 378.471 255C375.731 243.147 363.211 237.825 352 240.533M281 278.533C273.992 280.237 268.087 286.875 267.185 294C265.262 309.196 267 325.68 267 341C267 348.845 265.501 358.502 268.109 366C271.617 376.085 282.945 380.794 293 378.471C299.968 376.86 306.277 371.161 307.66 364C310.728 348.118 308 329.183 308 313C308 305.936 309.552 296.686 307.005 290C302.994 279.47 291.262 276.039 281 278.533z"/>
<path style="fill:#3362b0; stroke:none;" d="M535 308C534.321 390.037 452.938 460.849 375 467C375 489.518 378.272 514.958 373.335 537C365.724 570.985 332.296 599.903 297 600L297 601L536 601L536 394L536 335L535 308M184 513.44C141.432 519.938 152.296 581.638 194 574.674C233.406 568.094 222.695 507.533 184 513.44M0 527L0 601L78 601L78 600C49.8345 599.922 21.9306 580.658 9.25926 556C4.42833 546.599 4.00903 536.294 0 527z"/>
</svg>
