<?xml version="1.0" standalone="no"?>
<!DOCTYPE svg PUBLIC "-//W3C//DTD SVG 20010904//EN"
 "http://www.w3.org/TR/2001/REC-SVG-20010904/DTD/svg10.dtd">
<svg version="1.0" xmlns="http://www.w3.org/2000/svg"
  viewBox="0 0 582.000000 601.000000"
 preserveAspectRatio="xMidYMid meet">
<metadata>
Created by potrace 1.16, written by Peter Selinger 2001-2019
</metadata>
<g transform="translate(0.000000,601.000000) scale(0.100000,-0.100000)"
fill="#ffffff" stroke="none">
<path d="M1232 5984 c-29 -14 -67 -44 -86 -66 -66 -77 -66 -74 -66 -660 l0
-528 845 0 845 0 0 585 0 585 -40 39 c-75 73 -55 71 -790 71 l-656 0 -52 -26z"/>
<path d="M3182 5997 c-18 -5 -53 -28 -77 -49 l-45 -40 0 -589 0 -589 840 0
841 0 -3 548 -3 547 -27 46 c-32 54 -77 95 -133 120 -37 17 -82 19 -700 18
-432 -1 -671 -5 -693 -12z"/>
<path d="M0 3600 l0 -890 195 0 194 0 3 -1107 3 -1108 27 -73 c39 -107 84
-176 165 -251 77 -73 161 -120 264 -148 59 -17 134 -18 989 -18 l925 0 3 2243
2 2242 -1385 0 -1385 0 0 -890z"/>
<path d="M3060 2245 l0 -2246 928 3 c1026 4 970 1 1112 70 94 47 215 170 264
268 68 139 66 97 66 1293 l0 1077 195 0 195 0 0 890 0 890 -1380 0 -1380 0 0
-2245z"/>
</g>
</svg>
