<svg class="animated" id="freepik_stories-pleasant-surprise" xmlns="http://www.w3.org/2000/svg" viewBox="0 0 500 500" version="1.1" xmlns:xlink="http://www.w3.org/1999/xlink" xmlns:svgjs="http://svgjs.com/svgjs"><style>svg#freepik_stories-pleasant-surprise:not(.animated) .animable {opacity: 0;}svg#freepik_stories-pleasant-surprise.animated #freepik--speech-bubble--inject-17 {animation: 1.5s Infinite  linear heartbeat;animation-delay: 0s;}            @keyframes heartbeat {                0% {                    transform: scale(1);                }                10% {                    transform: scale(1.1);                }                30% {                    transform: scale(1);                }                40% {                    transform: scale(1);                }                50% {                    transform: scale(1.1);                }                60% {                    transform: scale(1);                }                100% {                    transform: scale(1);                }            }        </style><g id="freepik--Floor--inject-17" class="animable" style="transform-origin: 250px 347.532px;"><path d="M409,255.09c-88.41-51-231.28-51-319.12,0S2.55,388.9,91,439.94s231.28,51.05,319.12,0S497.45,306.14,409,255.09Z" style="fill: rgb(245, 245, 245); transform-origin: 250px 347.532px;" id="eld8d64rxg2q" class="animable"></path></g><g id="freepik--Shadows--inject-17" class="animable" style="transform-origin: 270.327px 339.689px;"><path d="M433.07,377c-7.42-4.29-19.41-4.29-26.78,0s-7.34,11.23.08,15.51,19.42,4.29,26.79,0S440.49,381.29,433.07,377Z" style="fill: rgb(230, 230, 230); transform-origin: 419.723px 384.753px;" id="elvg1l3qnt5t" class="animable"></path><path d="M300,237.37l138,79.68a2,2,0,0,1,0,3.46l-53.42,30.72a6,6,0,0,1-6,0l-138-79.68a2,2,0,0,1,0-3.46L294,237.37A6,6,0,0,1,300,237.37Z" style="fill: rgb(230, 230, 230); transform-origin: 339.29px 294.3px;" id="elen074dc7mdv" class="animable"></path><path d="M123.44,325.63c28.9-16.69,75.61-16.69,104.33,0,25.38,14.75,28.19,37.58,8.57,54.21,15.83-1,32.24,2,44.33,9.07,21.22,12.33,21.11,32.32-.25,44.65s-55.88,12.34-77.1,0c-16.88-9.81-20.25-24.47-10.16-36.26-24.34,3.52-51.11-.22-70.06-11.23C94.38,369.38,94.53,342.32,123.44,325.63Z" style="fill: rgb(230, 230, 230); transform-origin: 199.086px 377.962px;" id="elz9kitrsm36m" class="animable"></path></g><g id="freepik--Window--inject-17" class="animable" style="transform-origin: 369.475px 117.59px;"><polygon points="365.39 101.5 365.16 169.14 369.66 171.73 369.88 104.09 365.39 101.5" style="fill: rgb(224, 224, 224); transform-origin: 367.52px 136.615px;" id="elpixi9a9ns4" class="animable"></polygon><polygon points="369.89 104.09 369.88 104.09 369.66 171.73 373.56 169.46 373.78 106.34 369.89 104.09" style="fill: rgb(240, 240, 240); transform-origin: 371.72px 137.91px;" id="el6dab140cqc5" class="animable"></polygon><g id="elpnxfkhdp8t"><rect x="367.64" y="100.2" height="5.19" style="fill: rgb(224, 224, 224); transform-origin: 367.64px 102.795px; transform: rotate(-60deg);" class="animable"></rect></g><g id="elm85y88l4xqr"><polygon points="369.87 107.72 369.88 104.09 365.39 101.5 365.38 105.12 369.87 107.72 369.87 107.72" style="opacity: 0.2; transform-origin: 367.63px 104.61px;" class="animable"></polygon></g><g id="els6lb8esqdn9"><polygon points="369.87 107.72 373.03 105.9 369.89 104.09 369.88 104.09 369.87 107.72" style="opacity: 0.2; transform-origin: 371.45px 105.905px;" class="animable"></polygon></g><g id="eliv2tl9rqqgd"><rect x="367.64" y="100.2" height="5.19" style="fill: rgb(224, 224, 224); transform-origin: 367.64px 102.795px; transform: rotate(-60deg);" class="animable"></rect></g><polygon points="365.39 65.69 365.16 96.17 369.66 98.76 369.88 68.28 365.39 65.69" style="fill: rgb(224, 224, 224); transform-origin: 367.52px 82.225px;" id="el33dxaaxuyow" class="animable"></polygon><polygon points="369.89 68.28 369.88 68.28 369.66 98.76 373.56 96.49 373.78 70.53 369.89 68.28" style="fill: rgb(240, 240, 240); transform-origin: 371.72px 83.52px;" id="el98baps97g9d" class="animable"></polygon><g id="el6oq2rmok2iv"><rect x="367.64" y="64.39" height="5.19" style="fill: rgb(224, 224, 224); transform-origin: 367.64px 66.985px; transform: rotate(-60deg);" class="animable"></rect></g><g id="elcgrk7rzgvsr"><polygon points="369.87 71.91 369.88 68.28 365.39 65.69 365.38 69.31 369.87 71.91 369.87 71.91" style="opacity: 0.2; transform-origin: 367.63px 68.8px;" class="animable"></polygon></g><g id="el6d0t8ly34q8"><polygon points="369.87 71.91 373.03 70.1 369.89 68.28 369.88 68.28 369.87 71.91" style="opacity: 0.2; transform-origin: 371.45px 70.095px;" class="animable"></polygon></g><g id="elh5e7o8i82o"><rect x="367.64" y="64.39" height="5.19" style="fill: rgb(224, 224, 224); transform-origin: 367.64px 66.985px; transform: rotate(-60deg);" class="animable"></rect></g><polygon points="311.3 70.27 315.21 68 314.98 135.64 311.07 137.91 311.3 70.27" style="fill: rgb(240, 240, 240); transform-origin: 313.14px 102.955px;" id="elxcrsy50jk9a" class="animable"></polygon><polygon points="311.07 137.91 314.98 135.64 427.66 200.69 423.75 202.96 311.07 137.91" style="fill: rgb(245, 245, 245); transform-origin: 369.365px 169.3px;" id="el205kshy7tp4" class="animable"></polygon><path d="M306.82,62.51l121.67,70.24-.26,78L306.56,140.48ZM423.75,203l.23-67.64-112.68-65-.23,67.64L423.75,203" style="fill: rgb(224, 224, 224); transform-origin: 367.525px 136.63px;" id="elyofuhwwljwk" class="animable"></path><polygon points="306.82 62.51 310.73 60.24 432.39 130.48 428.49 132.75 306.82 62.51" style="fill: rgb(245, 245, 245); transform-origin: 369.605px 96.495px;" id="elefjmraco6as" class="animable"></polygon><polygon points="428.49 132.75 432.39 130.48 432.14 208.45 428.23 210.72 428.49 132.75" style="fill: rgb(240, 240, 240); transform-origin: 430.31px 170.6px;" id="elpytlvz4cntd" class="animable"></polygon><polygon points="311.3 34.46 315.21 32.19 314.98 62.67 311.07 64.94 311.3 34.46" style="fill: rgb(240, 240, 240); transform-origin: 313.14px 48.565px;" id="elqht4vxlcofg" class="animable"></polygon><polygon points="311.07 64.94 314.98 62.67 427.66 127.72 423.75 129.99 311.07 64.94" style="fill: rgb(245, 245, 245); transform-origin: 369.365px 96.33px;" id="elyzp5xngm4m" class="animable"></polygon><path d="M306.82,26.7,428.49,96.94l-.26,40.81L306.56,67.51ZM423.75,130,424,99.51,311.3,34.46l-.23,30.48L423.75,130" style="fill: rgb(224, 224, 224); transform-origin: 367.525px 82.225px;" id="elzcfhp3w5ndm" class="animable"></path><polygon points="306.82 26.7 310.73 24.43 432.39 94.67 428.49 96.94 306.82 26.7" style="fill: rgb(245, 245, 245); transform-origin: 369.605px 60.685px;" id="elshqr44zu9t" class="animable"></polygon><polygon points="428.49 96.94 432.39 94.67 432.14 135.48 428.23 137.75 428.49 96.94" style="fill: rgb(240, 240, 240); transform-origin: 430.31px 116.21px;" id="el4rob5l7sqtp" class="animable"></polygon></g><g id="freepik--Pictures--inject-17" class="animable" style="transform-origin: 123.775px 132.38px;"><polygon points="107.81 101.72 75.9 120.14 75.97 144.53 107.88 126.11 107.81 101.72" style="fill: none; transform-origin: 91.89px 123.125px;" id="elpy5qr40jixb" class="animable"></polygon><polygon points="107.81 101.72 107.88 126.11 110.84 127.82 110.76 100.02 107.81 101.72" style="fill: rgb(240, 240, 240); transform-origin: 109.325px 113.92px;" id="elrslzoz6t5d" class="animable"></polygon><polygon points="75.97 144.53 75.98 147.95 110.84 127.82 107.88 126.11 75.97 144.53" style="fill: rgb(245, 245, 245); transform-origin: 93.405px 137.03px;" id="eldude3x7y84k" class="animable"></polygon><path d="M114.32,93.86l-42,24.24.1,36,42-24.25ZM76,148v-3.42l-.07-24.39,31.91-18.42,3-1.7.08,27.8Z" style="fill: rgb(224, 224, 224); transform-origin: 93.37px 123.98px;" id="eljkvzzokxnn" class="animable"></path><polygon points="114.32 93.86 111.36 92.14 69.36 116.39 72.32 118.1 114.32 93.86" style="fill: rgb(245, 245, 245); transform-origin: 91.84px 105.12px;" id="el6dmo7jm88cb" class="animable"></polygon><polygon points="69.36 116.39 69.47 152.4 72.42 154.11 72.32 118.1 69.36 116.39" style="fill: rgb(240, 240, 240); transform-origin: 70.89px 135.25px;" id="eljo4jx9pj77m" class="animable"></polygon><polygon points="107.79 156.45 75.88 174.87 75.95 199.26 107.86 180.84 107.79 156.45" style="fill: none; transform-origin: 91.87px 177.855px;" id="el47wszwj7aa4" class="animable"></polygon><polygon points="107.79 156.45 107.86 180.84 110.81 182.56 110.74 154.75 107.79 156.45" style="fill: rgb(240, 240, 240); transform-origin: 109.3px 168.655px;" id="el8ab7zjrbzi" class="animable"></polygon><polygon points="75.95 199.26 75.96 202.68 110.81 182.56 107.86 180.84 75.95 199.26" style="fill: rgb(245, 245, 245); transform-origin: 93.38px 191.76px;" id="elqj2k68xfbo" class="animable"></polygon><path d="M114.3,148.59l-42,24.25.1,36,42-24.25ZM76,202.68v-3.42l-.07-24.39,31.91-18.42,2.95-1.7.07,27.81Z" style="fill: rgb(224, 224, 224); transform-origin: 93.35px 178.715px;" id="elbzfglivz1c" class="animable"></path><polygon points="114.3 148.59 111.34 146.87 69.34 171.12 72.3 172.84 114.3 148.59" style="fill: rgb(245, 245, 245); transform-origin: 91.82px 159.855px;" id="el8wmcfexl4qr" class="animable"></polygon><polygon points="69.34 171.12 69.44 207.13 72.4 208.85 72.3 172.84 69.34 171.12" style="fill: rgb(240, 240, 240); transform-origin: 70.87px 189.985px;" id="elz37kzie1d5m" class="animable"></polygon><path d="M157.11,116.76h0c.38-.19.76-.37,1.14-.57h0C157.88,116.39,157.5,116.58,157.11,116.76Z" style="fill: none; transform-origin: 157.68px 116.475px;" id="elsucazduwiqb" class="animable"></path><path d="M156.7,117h0l.42-.2h0Z" style="fill: none; transform-origin: 156.91px 116.9px;" id="elop48yxlabd" class="animable"></path><polygon points="170.13 69.24 161.41 74.28 152.54 79.4 161.41 74.28 170.13 69.24" style="fill: none; transform-origin: 161.335px 74.32px;" id="el4lkxvxnvu8s" class="animable"></polygon><polygon points="170.21 98 170.19 89.91 170.17 82.51 170.19 89.91 170.21 98" style="fill: none; transform-origin: 170.19px 90.255px;" id="elmiab17k9vmq" class="animable"></polygon><path d="M158.26,116.19l.24-.11-.24.11Z" style="fill: none; transform-origin: 158.38px 116.135px;" id="elwtu8jt0xgg" class="animable"></path><polygon points="170.31 133.49 170.29 126.72 170.28 120.8 170.29 126.72 170.31 133.49" style="fill: none; transform-origin: 170.295px 127.145px;" id="elu78jrqteg8m" class="animable"></polygon><path d="M153.31,118.35c1.12-.4,2.25-.87,3.39-1.39h0C155.56,117.48,154.43,118,153.31,118.35Z" style="fill: none; transform-origin: 155.005px 117.655px;" id="elq93uld90mwb" class="animable"></path><polygon points="144.22 94.22 144.29 120.23 144.33 135.3 144.29 120.23 144.22 94.22" style="fill: none; transform-origin: 144.275px 114.76px;" id="el4tyh51dgdbp" class="animable"></polygon><path d="M170.29,126.72V120.8L170,121l-.5.29c-4.37,2.64-8.76,6.79-12.85,11.28q-1,1.11-2,2.25c-3.44,3.95-6.82,8.12-10.28,12l0,9.57,4.18-2.41A91.9,91.9,0,0,1,170.29,126.72Z" style="fill: rgb(235, 235, 235); transform-origin: 157.33px 138.595px;" id="el3tuw7pn95cc" class="animable"></path><path d="M170.34,141.41l0-7.92a50.09,50.09,0,0,0-8.87,13.06Z" style="fill: rgb(235, 235, 235); transform-origin: 165.905px 140.02px;" id="eles2wtjilbv" class="animable"></path><path d="M161.44,146.55a50.09,50.09,0,0,1,8.87-13.06l0-6.77A91.9,91.9,0,0,0,148.57,154l12.87-7.43Z" style="fill: rgb(250, 250, 250); transform-origin: 159.44px 140.36px;" id="elb8ft886tt6" class="animable"></path><path d="M156.7,117h0" style="fill: none; stroke: gray; stroke-linecap: round; stroke-linejoin: round; stroke-width: 0px; transform-origin: 156.7px 117px;" id="elmgae1jzczs" class="animable"></path><path d="M157.11,116.76h0" style="fill: none; stroke: gray; stroke-linecap: round; stroke-linejoin: round; stroke-width: 0px; transform-origin: 157.11px 116.76px;" id="elgyn6bs3ko6w" class="animable"></path><path d="M152.71,118.56l.6-.21c1.12-.4,2.25-.87,3.39-1.39l.41-.2c.39-.18.77-.37,1.15-.57.66-.33,1.32-.68,2-1.06-.67.38-1.33.73-2,1.06l.24-.11c.58-.3,1.16-.62,1.75-1l.37-.21.3-.18a63,63,0,0,0,8.94-6.4l.38-.33,0-10c-6.35,3.25-12.6,4.26-17.64,2.69a15.42,15.42,0,0,1-8.35-6.47l.07,26A30.72,30.72,0,0,0,152.71,118.56Z" style="fill: rgb(250, 250, 250); transform-origin: 157.245px 107.18px;" id="el7gjsb6v82i5" class="animable"></path><path d="M156.66,132.53c4.09-4.49,8.48-8.64,12.85-11.28l.5-.29.27-.16,0-5.73a124.48,124.48,0,0,0-23.39,17.8c-.85.81-1.69,1.64-2.54,2.43l0,11.52c3.46-3.92,6.84-8.09,10.28-12Q155.64,133.64,156.66,132.53Z" style="fill: rgb(250, 250, 250); transform-origin: 157.315px 130.945px;" id="elvx01gq4exzn" class="animable"></path><path d="M170.26,115.07l0-7.06-.38.33a63,63,0,0,1-8.94,6.4l-.3.18-.37.21c-.59.33-1.17.65-1.75,1l-.24.11-.16.09h0l.16-.09c-.38.2-.76.38-1.14.57l-.42.2c-1.14.52-2.27,1-3.39,1.39l.64-.23-.64.23-.6.21a30.72,30.72,0,0,1-8.42,1.67l0,15.07c.85-.79,1.69-1.62,2.54-2.43A124.48,124.48,0,0,1,170.26,115.07Z" style="fill: rgb(235, 235, 235); transform-origin: 157.285px 121.68px;" id="elcutxn6cimse" class="animable"></path><path d="M170.19,89.91l0-7.4c-4-.94-7.13-3.86-8.76-8.23l-8.87,5.12A18.31,18.31,0,0,0,170.19,89.91Z" style="fill: rgb(250, 250, 250); transform-origin: 161.375px 82.1101px;" id="elfm9q1xpf71m" class="animable"></path><path d="M152.57,100.69c5,1.57,11.29.56,17.64-2.69l0-8.09A18.31,18.31,0,0,1,152.54,79.4l-8.35,4.82,0,10A15.42,15.42,0,0,0,152.57,100.69Z" style="fill: rgb(235, 235, 235); transform-origin: 157.2px 90.4082px;" id="eluf975f59en" class="animable"></path><path d="M171.59,66.72,142.72,83.39l.21,75.52,28.87-16.67Zm-27.2,89.67,0-9.57,0-11.52,0-15.07-.07-26,0-10,8.35-4.82,8.87-5.12,8.72-5,0,13.27,0,7.4,0,8.09,0,10,0,7.06,0,5.73v5.92l0,6.77,0,7.92-8.9,5.14h0L148.57,154Z" style="fill: rgb(255, 255, 255); transform-origin: 157.26px 112.815px;" id="els7bz8nqdrhs" class="animable"></path><path d="M158.08,116.29h0" style="fill: none; stroke: gray; stroke-linecap: round; stroke-linejoin: round; stroke-width: 0px; transform-origin: 158.08px 116.29px;" id="elo2m4av3lhe" class="animable"></path><path d="M158.1,116.28l.16-.09" style="fill: none; stroke: gray; stroke-linecap: round; stroke-linejoin: round; stroke-width: 0px; transform-origin: 158.18px 116.235px;" id="elfjqxlynt278" class="animable"></path><path d="M160.25,115.13c-.67.38-1.33.73-2,1.06" style="fill: none; stroke: gray; stroke-linecap: round; stroke-linejoin: round; stroke-width: 0px; transform-origin: 159.25px 115.66px;" id="elq3b1b3betrf" class="animable"></path><line x1="158.26" y1="116.19" x2="158.26" y2="116.19" style="fill: none; stroke: gray; stroke-linecap: round; stroke-linejoin: round; stroke-width: 0px; transform-origin: 158.26px 116.19px;" id="elytdnq4ja6b" class="animable"></line><path d="M153.31,118.35l.64-.23" style="fill: none; stroke: gray; stroke-linecap: round; stroke-linejoin: round; stroke-width: 0px; transform-origin: 153.63px 118.235px;" id="ellafuwbhxh5" class="animable"></path><path d="M170.17,82.51l0-13.27-8.72,5C163,78.65,166.16,81.57,170.17,82.51Z" style="fill: rgb(235, 235, 235); transform-origin: 165.81px 75.875px;" id="elffcgkpx8mzs" class="animable"></path><polygon points="171.8 142.24 142.93 158.91 142.94 160.91 173.54 143.25 171.8 142.24" style="fill: rgb(202, 202, 202); transform-origin: 158.235px 151.575px;" id="elaghs2iclm3h" class="animable"></polygon><polygon points="171.59 66.72 171.8 142.24 173.54 143.25 173.32 65.72 171.59 66.72" style="fill: rgb(240, 240, 240); transform-origin: 172.565px 104.485px;" id="ellsjujr4ezl" class="animable"></polygon><path d="M178,57.68,138.05,80.73,138.3,169l39.91-23Zm-35,103.24v-2l-.21-75.52,28.87-16.67,1.73-1,.22,77.53Z" style="fill: rgb(224, 224, 224); transform-origin: 158.13px 113.34px;" id="elthw5lmbbn69" class="animable"></path><polygon points="177.96 57.68 174.67 55.91 134.75 78.96 138.05 80.73 177.96 57.68" style="fill: rgb(245, 245, 245); transform-origin: 156.355px 68.32px;" id="elm5hoa6pgkda" class="animable"></polygon><polygon points="134.75 78.96 135 167.19 138.3 168.95 138.05 80.73 134.75 78.96" style="fill: rgb(240, 240, 240); transform-origin: 136.525px 123.955px;" id="elhxhnklgn1qa" class="animable"></polygon><polygon points="97.67 110.98 106.38 117.83 106.39 124.52 77.45 141.23 77.43 134.54 82.95 123.58 87.9 127.43 86.15 132.87 88.69 128.04 97.67 110.98" style="fill: rgb(224, 224, 224); transform-origin: 91.91px 126.105px;" id="elkuar843fi4q" class="animable"></polygon><path d="M88.17,114.35c1.36-.79,2.47-.15,2.47,1.41A5.41,5.41,0,0,1,88.18,120c-1.36.79-2.47.15-2.47-1.41A5.39,5.39,0,0,1,88.17,114.35Z" style="fill: rgb(224, 224, 224); transform-origin: 88.175px 117.175px;" id="elquru0y7yqbr" class="animable"></path><polygon points="97.65 165.71 106.35 172.56 106.37 179.25 77.43 195.97 77.41 189.27 82.93 178.32 87.88 182.16 86.13 187.6 88.67 182.77 97.65 165.71" style="fill: rgb(224, 224, 224); transform-origin: 91.89px 180.84px;" id="elc96vssvsvs4" class="animable"></polygon><path d="M88.14,169.08c1.37-.78,2.47-.15,2.48,1.41a5.42,5.42,0,0,1-2.46,4.26c-1.36.79-2.47.16-2.47-1.41A5.42,5.42,0,0,1,88.14,169.08Z" style="fill: rgb(224, 224, 224); transform-origin: 88.155px 171.918px;" id="elx6hmf5ij1t" class="animable"></path></g><g id="freepik--Furniture--inject-17" class="animable" style="transform-origin: 340.33px 251.265px;"><polygon points="246.24 192.08 246.24 271.42 381.19 348.92 381.19 269.58 246.24 192.08" style="fill: rgb(224, 224, 224); transform-origin: 313.715px 270.5px;" id="elvro0sxpj5yp" class="animable"></polygon><polygon points="434.42 238.94 434.42 318.29 381.19 348.92 381.19 269.58 434.42 238.94" style="fill: rgb(224, 224, 224); transform-origin: 407.805px 293.93px;" id="elblruxvrdcig" class="animable"></polygon><g id="elxtzd7niuqln"><polygon points="246.24 192.08 246.24 271.42 381.19 348.92 381.19 269.58 246.24 192.08" style="opacity: 0.1; transform-origin: 313.715px 270.5px;" class="animable"></polygon></g><g id="elakwhrarhdik"><polygon points="434.42 238.94 434.42 318.29 381.19 348.92 381.19 269.58 434.42 238.94" style="opacity: 0.2; transform-origin: 407.805px 293.93px;" class="animable"></polygon></g><polygon points="311.65 279.22 374.82 315.5 374.82 296.87 311.65 260.6 311.65 279.22" style="fill: rgb(224, 224, 224); transform-origin: 343.235px 288.05px;" id="el9gype34mjv" class="animable"></polygon><polygon points="374.82 292.42 374.82 273.27 311.65 237 311.65 256.14 374.82 292.42" style="fill: rgb(224, 224, 224); transform-origin: 343.235px 264.71px;" id="elns3fi6fxw58" class="animable"></polygon><polygon points="305.28 233.34 252.62 203.09 252.62 222.24 305.28 252.48 305.28 233.34" style="fill: rgb(224, 224, 224); transform-origin: 278.95px 227.785px;" id="el69trupouzv9" class="animable"></polygon><polygon points="311.65 301.64 374.82 337.91 374.82 319.95 311.65 283.67 311.65 301.64" style="fill: rgb(224, 224, 224); transform-origin: 343.235px 310.79px;" id="el8efhf3eqtdh" class="animable"></polygon><polygon points="305.28 256.94 252.62 226.69 252.62 245.32 305.28 275.56 305.28 256.94" style="fill: rgb(224, 224, 224); transform-origin: 278.95px 251.125px;" id="ellmprdrivl4" class="animable"></polygon><polygon points="252.62 249.77 252.62 267.73 305.28 297.98 305.28 280.01 252.62 249.77" style="fill: rgb(224, 224, 224); transform-origin: 278.95px 273.875px;" id="elmv9azbem8gc" class="animable"></polygon><polygon points="244.33 184.69 382.42 264 436.33 232.97 298.16 153.61 244.33 184.69" style="fill: rgb(235, 235, 235); transform-origin: 340.33px 208.805px;" id="elvoa6r62k45" class="animable"></polygon><polygon points="244.33 184.69 244.33 192.79 382.42 272.11 382.42 264 244.33 184.69" style="fill: rgb(224, 224, 224); transform-origin: 313.375px 228.4px;" id="elo032fu7426" class="animable"></polygon><polygon points="436.33 232.97 436.33 241.08 382.42 272.11 382.42 264 436.33 232.97" style="fill: rgb(224, 224, 224); transform-origin: 409.375px 252.54px;" id="elzjvhklqbmcm" class="animable"></polygon><g id="elm3a2fwjprii"><polygon points="436.33 232.97 436.33 241.08 382.42 272.11 382.42 264 436.33 232.97" style="opacity: 0.1; transform-origin: 409.375px 252.54px;" class="animable"></polygon></g></g><g id="freepik--Plant--inject-17" class="animable" style="transform-origin: 420.84px 332.242px;"><path d="M437.69,352.35l-18,.52-18-.52c-.77,12.14,1.6,24.5,4.87,30.54h0a8.14,8.14,0,0,0,3.56,3.62c5.3,3.06,13.86,3.06,19.13,0a8,8,0,0,0,3.56-3.71C436.12,376.72,438.46,364.43,437.69,352.35Z" style="fill: rgb(255, 255, 255); transform-origin: 419.691px 370.577px;" id="elgt393fakpwg" class="animable"></path><path d="M432.39,345c7,4.07,7.07,10.66.08,14.72s-18.37,4.07-25.41,0S400,349.06,407,345,425.35,340.93,432.39,345Z" style="fill: rgb(235, 235, 235); transform-origin: 419.721px 352.36px;" id="el14yvv1vxd8d" class="animable"></path><path d="M429.6,346.61c5.5,3.17,5.52,8.31.07,11.48s-14.33,3.17-19.83,0-5.52-8.31-.06-11.48S424.11,343.44,429.6,346.61Z" style="fill: rgb(224, 224, 224); transform-origin: 419.721px 352.35px;" id="elw63ykagbtn9" class="animable"></path><g id="elo7sze58zhpa"><g style="opacity: 0.15; transform-origin: 419.721px 352.35px;" class="animable"><path d="M429.6,346.61c5.5,3.17,5.52,8.31.07,11.48s-14.33,3.17-19.83,0-5.52-8.31-.06-11.48S424.11,343.44,429.6,346.61Z" id="eldlna5tz2qbf" class="animable" style="transform-origin: 419.721px 352.35px;"></path></g></g><path d="M449.26,275.68c-40.49,13.26-40.85,40.35-31.73,59.64,2.31,3.9,9.27,6,15.34-18l-10.64,1.36,12.4-6.28,3.22-9.63-10.34.77L440.63,298A194.5,194.5,0,0,1,449.26,275.68Z" style="fill: rgb(51, 98, 176); transform-origin: 430.976px 306.7px;" id="el8s9fvnlwyuo" class="animable"></path><g id="elfwoqclx5yyk"><path d="M449.26,275.68c-40.49,13.26-40.85,40.35-31.73,59.64,2.31,3.9,9.27,6,15.34-18l-10.64,1.36,12.4-6.28,3.22-9.63-10.34.77L440.63,298A194.5,194.5,0,0,1,449.26,275.68Z" style="opacity: 0.2; transform-origin: 430.976px 306.7px;" class="animable"></path></g><g id="el9t98rus8kdh"><path d="M449.26,275.68c-40.49,13.26-40.85,40.35-31.73,59.64,2.31,3.9,9.27,6,15.34-18l-10.64,1.36,12.4-6.28,3.22-9.63-10.34.77L440.63,298A194.5,194.5,0,0,1,449.26,275.68Z" style="fill: rgb(255, 255, 255); opacity: 0.2; transform-origin: 430.976px 306.7px;" class="animable"></path></g><path d="M437.81,282.45c-21.35,16.21-23.28,34.79-17.25,54.19C418.43,319.56,416.12,302.29,437.81,282.45Z" style="fill: rgb(255, 255, 255); transform-origin: 427.699px 309.545px;" id="eltne4tfvzod" class="animable"></path><path d="M380.68,303.2c39.92,5.62,44.76,30.78,39.46,50.27-1.49,4-7.63,7.13-17.27-14.21l10.13-.5L400.42,335l-4.6-8.43,9.75-1-13.13-3A182.79,182.79,0,0,0,380.68,303.2Z" style="fill: rgb(51, 98, 176); transform-origin: 401.293px 329.779px;" id="el7pha4kh5qfk" class="animable"></path><g id="elcikq60jwrft"><path d="M380.68,303.2c39.92,5.62,44.76,30.78,39.46,50.27-1.49,4-7.63,7.13-17.27-14.21l10.13-.5L400.42,335l-4.6-8.43,9.75-1-13.13-3A182.79,182.79,0,0,0,380.68,303.2Z" style="fill: rgb(255, 255, 255); opacity: 0.2; transform-origin: 401.293px 329.779px;" class="animable"></path></g><g id="elcygnhcuhqxu"><path d="M380.68,303.2c39.92,5.62,44.76,30.78,39.46,50.27-1.49,4-7.63,7.13-17.27-14.21l10.13-.5L400.42,335l-4.6-8.43,9.75-1-13.13-3A182.79,182.79,0,0,0,380.68,303.2Z" style="opacity: 0.1; transform-origin: 401.293px 329.779px;" class="animable"></path></g><path d="M392.47,307.6c22.58,11.55,27.47,28.53,25.07,47.6C416.69,338.94,416,322.47,392.47,307.6Z" style="fill: rgb(255, 255, 255); transform-origin: 405.281px 331.4px;" id="elggikdukyt99" class="animable"></path><path d="M461,312.63c-36.61.59-43.79,22.74-41.19,40.89.89,3.79,6.08,7.28,17.15-10.87l-9.08-1.58,11.77-2,5.09-7.08L436,330l12.17-1.2A165.77,165.77,0,0,1,461,312.63Z" style="fill: rgb(51, 98, 176); transform-origin: 440.165px 334.595px;" id="ell82wttsisjh" class="animable"></path><path d="M449.83,315.28c-21.65,7.88-27.95,22.64-27.92,40.09C424.49,340.81,427,326.05,449.83,315.28Z" style="fill: rgb(255, 255, 255); transform-origin: 435.87px 335.325px;" id="elism2i5ok93e" class="animable"></path><g id="ele1er25hq8v"><path d="M461,312.63c-36.61.59-43.79,22.74-41.19,40.89.89,3.79,6.08,7.28,17.15-10.87l-9.08-1.58,11.77-2,5.09-7.08L436,330l12.17-1.2A165.77,165.77,0,0,1,461,312.63Z" style="fill: rgb(255, 255, 255); opacity: 0.2; transform-origin: 440.165px 334.595px;" class="animable"></path></g></g><g id="freepik--speech-bubble--inject-17" class="animable" style="transform-origin: 302.815px 175.529px;"><path d="M282.58,158.63,325,134.3c2.87-1.65,9.67.58,9.67,5.19a2.14,2.14,0,0,0-3.2-1.85L289.05,162a6.33,6.33,0,0,0-2.5,2.68L280.2,161A6.33,6.33,0,0,1,282.58,158.63Z" style="fill: rgb(51, 98, 176); transform-origin: 307.435px 149.219px;" id="elzzaz04zv2b" class="animable"></path><path d="M286.55,164.66c-.44.88-.72,12.36-.72,13.37v34.5a2.13,2.13,0,0,0,3.19,1.85,6.31,6.31,0,0,1-9.65-5.2v-45a6.42,6.42,0,0,1,.83-3.13Z" style="fill: rgb(51, 98, 176); transform-origin: 284.195px 188.194px;" id="elqkhrrcguuq" class="animable"></path><g id="elwxplx4bz8d"><path d="M282.58,158.63,325,134.3c2.87-1.65,9.67.58,9.67,5.19a2.14,2.14,0,0,0-3.2-1.85L289.05,162a6.33,6.33,0,0,0-2.5,2.68L280.2,161A6.33,6.33,0,0,1,282.58,158.63Z" style="fill: rgb(255, 255, 255); opacity: 0.4; transform-origin: 307.435px 149.219px;" class="animable"></path></g><g id="elqezty47helk"><path d="M286.55,164.66c-.44.88-.72,12.36-.72,13.37v34.5a2.13,2.13,0,0,0,3.19,1.85,6.31,6.31,0,0,1-9.65-5.2v-45a6.42,6.42,0,0,1,.83-3.13Z" style="fill: rgb(255, 255, 255); opacity: 0.2; transform-origin: 284.195px 188.194px;" class="animable"></path></g><path d="M331.46,137.64,289.05,162a6.39,6.39,0,0,0-3.22,5.54v45a2.13,2.13,0,0,0,3.19,1.85l42.41-24.26a6.38,6.38,0,0,0,3.23-5.55V139.49A2.14,2.14,0,0,0,331.46,137.64Z" style="fill: rgb(51, 98, 176); transform-origin: 310.245px 176.016px;" id="elugitmwm939o" class="animable"></path><path d="M266.55,220.24l-.63-.14a.66.66,0,0,1-.35-.18c-.58-.5-.43-1.9.45-3l19.81-24.74-6.46-3.69-19.82,24.74c-.87,1.09-1,2.49-.44,3l6.15,3.49-16,20.05,6.47,3.69,17.42-21.82Z" style="fill: rgb(51, 98, 176); transform-origin: 267.545px 215.975px;" id="elok4zbwzy0em" class="animable"></path><path d="M285.83,201.25v-9.06L266,216.93c-.88,1.09-1,2.49-.45,3a.66.66,0,0,0,.35.18l.63.14,6.59,1.41-17.42,21.82,23.77-24.38c1.13-1.15,1.38-3,.48-3.39l-5.28-2.31.67-.73Z" style="fill: rgb(51, 98, 176); transform-origin: 270.765px 217.835px;" id="el3uabf843r2x" class="animable"></path><polygon points="279.97 215.7 275.36 212.66 274.69 213.39 279.97 215.7" style="fill: rgb(51, 98, 176); transform-origin: 277.33px 214.18px;" id="elhe6k2hx1ras" class="animable"></polygon><g id="elmy1xmaeng8o"><path d="M266.55,220.24l-.63-.14a.66.66,0,0,1-.35-.18c-.58-.5-.43-1.9.45-3l19.81-24.74-6.46-3.69-19.82,24.74c-.87,1.09-1,2.49-.44,3l6.15,3.49-16,20.05,6.47,3.69,17.42-21.82Z" style="fill: rgb(255, 255, 255); opacity: 0.4; transform-origin: 267.545px 215.975px;" class="animable"></path></g><g id="elp6o8slg1wj8"><polygon points="279.97 215.7 275.36 212.66 274.69 213.39 279.97 215.7" style="fill: rgb(255, 255, 255); opacity: 0.2; transform-origin: 277.33px 214.18px;" class="animable"></polygon></g><path d="M317.57,163.76,324.1,160l0,8.34-.81.47.05,15.52-24.1,13.92,0-15.53-.81.47,0-8.34,9.33-5.39L306,169.2a5.18,5.18,0,0,1-2.29-.76,3.23,3.23,0,0,1-1.16-3,6.8,6.8,0,0,1,2.62-4.64,1.37,1.37,0,0,1,.2-.13,2.22,2.22,0,0,1,2.25-.16,3.7,3.7,0,0,1,1.21,1.33c.68,1.09,1.33,2.27,1.94,3.45a35.87,35.87,0,0,1,4-8.21,15.51,15.51,0,0,1,2.55-3.06,6.83,6.83,0,0,1,1.05-.75,2.76,2.76,0,0,1,2.23-.44c1.44.48,1.53,2.76.87,4.76a16.24,16.24,0,0,1-3,5.1C318.19,163,317.89,163.39,317.57,163.76Zm-8.83,27.37,0-13.89-8.07,4.65,0,13.9,8.07-4.66m13.19-7.61,0-13.9-8.06,4.66,0,13.89,8.07-4.65m-5.84-25.33a31,31,0,0,0-3.72,8,29.45,29.45,0,0,0,5-5,11.68,11.68,0,0,0,2.12-3.52c.3-.9.28-2-.26-2.16a1.16,1.16,0,0,0-.91.2,3.43,3.43,0,0,0-.52.38,10.69,10.69,0,0,0-1.75,2.13m-7.39,17.42v-5.09l-8.89,5.13,0,5.08,8.88-5.12m14-8.09v-5.08l-8.88,5.13v5.08l8.88-5.13m-15.55-1,1.32.2c-.48-.91-1-1.8-1.52-2.64a2.86,2.86,0,0,0-.82-1,.75.75,0,0,0-.74,0l0,0a2.09,2.09,0,0,0-.68,1.35,1.6,1.6,0,0,0,.63,1.46,4.47,4.47,0,0,0,1.85.57" style="fill: rgb(255, 255, 255); transform-origin: 311.265px 175.504px;" id="el76x4p5bs3e4" class="animable"></path><path d="M306.66,114.26c1-.56,1.78-.11,1.78,1l0,9.38a3.93,3.93,0,0,1-1.77,3.06c-1,.57-1.78.11-1.78-1l0-9.37A3.92,3.92,0,0,1,306.66,114.26Z" style="fill: rgb(51, 98, 176); transform-origin: 306.665px 120.982px;" id="eli5a2x2x27fg" class="animable"></path><path d="M282.79,135.41c.61-.36,1.21-.33,1.53.13l4.11,5.76c.49.69.2,2.11-.64,3.16a3.16,3.16,0,0,1-.89.78,1.1,1.1,0,0,1-1.54-.13l-4.1-5.76c-.49-.69-.21-2.1.64-3.16A3,3,0,0,1,282.79,135.41Z" style="fill: rgb(51, 98, 176); transform-origin: 284.844px 140.33px;" id="elqyy7vkc4079" class="animable"></path><path d="M265.35,165.6a1.65,1.65,0,0,1,.9-.24l7.07.61c.85.07,1.14,1.15.66,2.41a3.89,3.89,0,0,1-1.54,1.91,1.49,1.49,0,0,1-.88.23l-7.08-.6c-.85-.08-1.15-1.15-.66-2.41A3.89,3.89,0,0,1,265.35,165.6Z" style="fill: rgb(51, 98, 176); transform-origin: 268.898px 167.941px;" id="elbzae404zcp" class="animable"></path><path d="M267.18,192c1-.57,1.78-.11,1.79,1a3.92,3.92,0,0,1-1.77,3.06L259,200.83c-1,.56-1.77.1-1.78-1a3.9,3.9,0,0,1,1.77-3.06Z" style="fill: rgb(51, 98, 176); transform-origin: 263.095px 196.412px;" id="el2il5es1afrh" class="animable"></path><path d="M287.12,220a1.51,1.51,0,0,1,.88-.24c.85.08,1.14,1.16.66,2.42l-4.06,10.47a3.86,3.86,0,0,1-1.53,1.9,1.62,1.62,0,0,1-.89.24c-.85-.07-1.14-1.15-.66-2.41l4.06-10.47A3.85,3.85,0,0,1,287.12,220Z" style="fill: rgb(51, 98, 176); transform-origin: 285.09px 227.275px;" id="elzenxd26gkbi" class="animable"></path><path d="M306.94,214.7c1-.57,1.78-.12,1.78,1l0,9.37a3.94,3.94,0,0,1-1.77,3.07c-1,.56-1.78.1-1.78-1l0-9.37A3.9,3.9,0,0,1,306.94,214.7Z" style="fill: rgb(51, 98, 176); transform-origin: 306.945px 221.416px;" id="eluj2gs2eynea" class="animable"></path><path d="M326.73,197.16c.62-.36,1.22-.34,1.55.13l4.1,5.76c.49.69.2,2.11-.64,3.16a3.16,3.16,0,0,1-.89.78,1.1,1.1,0,0,1-1.54-.13l-4.1-5.76c-.49-.69-.21-2.11.64-3.16A3.29,3.29,0,0,1,326.73,197.16Z" style="fill: rgb(51, 98, 176); transform-origin: 328.794px 202.078px;" id="elca0t0az2k4" class="animable"></path><path d="M341.19,172.12a1.54,1.54,0,0,1,.89-.24l7.08.6c.85.08,1.14,1.16.65,2.42a3.76,3.76,0,0,1-1.53,1.9,1.52,1.52,0,0,1-.89.24l-7.07-.61c-.85-.07-1.15-1.15-.66-2.41A3.86,3.86,0,0,1,341.19,172.12Z" style="fill: rgb(51, 98, 176); transform-origin: 344.736px 174.46px;" id="el50jn1lk0vvi" class="animable"></path><path d="M354.6,141.57c1-.56,1.77-.1,1.77,1a3.89,3.89,0,0,1-1.76,3.06l-8.16,4.71c-1,.57-1.78.11-1.78-1a3.91,3.91,0,0,1,1.77-3.07Z" style="fill: rgb(51, 98, 176); transform-origin: 350.52px 145.958px;" id="elv90c6wb2blk" class="animable"></path><path d="M348.12,117.82c.61-.35,1.2-.33,1.53.13.49.69.21,2.11-.64,3.16L342,129.87a3.18,3.18,0,0,1-.88.79c-.61.36-1.22.34-1.54-.13-.5-.69-.21-2.11.64-3.16l7.05-8.76A3.21,3.21,0,0,1,348.12,117.82Z" style="fill: rgb(51, 98, 176); transform-origin: 344.613px 124.244px;" id="elczmb9cdjcv" class="animable"></path><path d="M330.57,107.82a1.54,1.54,0,0,1,.89-.24c.84.08,1.14,1.15.65,2.41l-4.05,10.47a3.93,3.93,0,0,1-1.53,1.91,1.62,1.62,0,0,1-.89.24c-.85-.08-1.14-1.16-.66-2.41l4-10.47A3.86,3.86,0,0,1,330.57,107.82Z" style="fill: rgb(51, 98, 176); transform-origin: 328.547px 115.095px;" id="el0yi0xmxundh" class="animable"></path><g id="eli18ozhbo0mg"><g style="opacity: 0.6; transform-origin: 306.795px 171.185px;" class="animable"><path d="M306.66,114.26c1-.56,1.78-.11,1.78,1l0,9.38a3.93,3.93,0,0,1-1.77,3.06c-1,.57-1.78.11-1.78-1l0-9.37A3.92,3.92,0,0,1,306.66,114.26Z" style="fill: rgb(255, 255, 255); transform-origin: 306.665px 120.982px;" id="el62cwx0d7d4q" class="animable"></path><path d="M282.79,135.41c.61-.36,1.21-.33,1.53.13l4.11,5.76c.49.69.2,2.11-.64,3.16a3.16,3.16,0,0,1-.89.78,1.1,1.1,0,0,1-1.54-.13l-4.1-5.76c-.49-.69-.21-2.1.64-3.16A3,3,0,0,1,282.79,135.41Z" style="fill: rgb(255, 255, 255); transform-origin: 284.844px 140.33px;" id="elhwgzephots" class="animable"></path><path d="M265.35,165.6a1.65,1.65,0,0,1,.9-.24l7.07.61c.85.07,1.14,1.15.66,2.41a3.89,3.89,0,0,1-1.54,1.91,1.49,1.49,0,0,1-.88.23l-7.08-.6c-.85-.08-1.15-1.15-.66-2.41A3.89,3.89,0,0,1,265.35,165.6Z" style="fill: rgb(255, 255, 255); transform-origin: 268.898px 167.941px;" id="el0ic22hxwhi8h" class="animable"></path><path d="M267.18,192c1-.57,1.78-.11,1.79,1a3.92,3.92,0,0,1-1.77,3.06L259,200.83c-1,.56-1.77.1-1.78-1a3.9,3.9,0,0,1,1.77-3.06Z" style="fill: rgb(255, 255, 255); transform-origin: 263.095px 196.412px;" id="elrz4uaw1juyo" class="animable"></path><path d="M287.12,220a1.51,1.51,0,0,1,.88-.24c.85.08,1.14,1.16.66,2.42l-4.06,10.47a3.86,3.86,0,0,1-1.53,1.9,1.62,1.62,0,0,1-.89.24c-.85-.07-1.14-1.15-.66-2.41l4.06-10.47A3.85,3.85,0,0,1,287.12,220Z" style="fill: rgb(255, 255, 255); transform-origin: 285.09px 227.275px;" id="el7p2xlwg5qon" class="animable"></path><path d="M306.94,214.7c1-.57,1.78-.12,1.78,1l0,9.37a3.94,3.94,0,0,1-1.77,3.07c-1,.56-1.78.1-1.78-1l0-9.37A3.9,3.9,0,0,1,306.94,214.7Z" style="fill: rgb(255, 255, 255); transform-origin: 306.945px 221.416px;" id="elbbbqiwnv55h" class="animable"></path><path d="M326.73,197.16c.62-.36,1.22-.34,1.55.13l4.1,5.76c.49.69.2,2.11-.64,3.16a3.16,3.16,0,0,1-.89.78,1.1,1.1,0,0,1-1.54-.13l-4.1-5.76c-.49-.69-.21-2.11.64-3.16A3.29,3.29,0,0,1,326.73,197.16Z" style="fill: rgb(255, 255, 255); transform-origin: 328.794px 202.078px;" id="elavhch2k6xb7" class="animable"></path><path d="M341.19,172.12a1.54,1.54,0,0,1,.89-.24l7.08.6c.85.08,1.14,1.16.65,2.42a3.76,3.76,0,0,1-1.53,1.9,1.52,1.52,0,0,1-.89.24l-7.07-.61c-.85-.07-1.15-1.15-.66-2.41A3.86,3.86,0,0,1,341.19,172.12Z" style="fill: rgb(255, 255, 255); transform-origin: 344.736px 174.46px;" id="eltjue7o92x3" class="animable"></path><path d="M354.6,141.57c1-.56,1.77-.1,1.77,1a3.89,3.89,0,0,1-1.76,3.06l-8.16,4.71c-1,.57-1.78.11-1.78-1a3.91,3.91,0,0,1,1.77-3.07Z" style="fill: rgb(255, 255, 255); transform-origin: 350.52px 145.958px;" id="el6zg4a99et5j" class="animable"></path><path d="M348.12,117.82c.61-.35,1.2-.33,1.53.13.49.69.21,2.11-.64,3.16L342,129.87a3.18,3.18,0,0,1-.88.79c-.61.36-1.22.34-1.54-.13-.5-.69-.21-2.11.64-3.16l7.05-8.76A3.21,3.21,0,0,1,348.12,117.82Z" style="fill: rgb(255, 255, 255); transform-origin: 344.613px 124.244px;" id="el2iihw97whct" class="animable"></path><path d="M330.57,107.82a1.54,1.54,0,0,1,.89-.24c.84.08,1.14,1.15.65,2.41l-4.05,10.47a3.93,3.93,0,0,1-1.53,1.91,1.62,1.62,0,0,1-.89.24c-.85-.08-1.14-1.16-.66-2.41l4-10.47A3.86,3.86,0,0,1,330.57,107.82Z" style="fill: rgb(255, 255, 255); transform-origin: 328.547px 115.095px;" id="elwpbrae0ejh" class="animable"></path></g></g></g><g id="freepik--Character--inject-17" class="animable" style="transform-origin: 180.984px 282.839px;"><path d="M213.81,268.13c9.85,6.85,21,11.58,29.19,20.76,15.37,17.14,15.73,44.72,3.66,64.33s-34.54,31.39-57.41,34.08c-24,2.83-49.17-3.8-68-18.94s-30.81-38.81-30.8-63,12.39-48.22,32.62-61.41c18.47-12,45-15.48,63.52-1.7,9.36,7,15.61,17.24,25,24.23C212.29,267.07,213.05,267.61,213.81,268.13Z" style="fill: rgb(51, 98, 176); transform-origin: 172.813px 310.637px;" id="elle7lpreuve" class="animable"></path><g id="eleatcqiu2oxj"><path d="M213.81,268.13c9.85,6.85,21,11.58,29.19,20.76,15.37,17.14,15.73,44.72,3.66,64.33s-34.54,31.39-57.41,34.08c-24,2.83-49.17-3.8-68-18.94s-30.81-38.81-30.8-63,12.39-48.22,32.62-61.41c18.47-12,45-15.48,63.52-1.7,9.36,7,15.61,17.24,25,24.23C212.29,267.07,213.05,267.61,213.81,268.13Z" style="opacity: 0.2; transform-origin: 172.813px 310.637px;" class="animable"></path></g><g id="elac7lt8zcht8"><path d="M213.81,268.13c9.85,6.85,21,11.58,29.19,20.76,15.37,17.14,15.73,44.72,3.66,64.33s-34.54,31.39-57.41,34.08c-24,2.83-49.17-3.8-68-18.94s-30.81-38.81-30.8-63,12.39-48.22,32.62-61.41c18.47-12,45-15.48,63.52-1.7,9.36,7,15.61,17.24,25,24.23C212.29,267.07,213.05,267.61,213.81,268.13Z" style="fill: rgb(255, 255, 255); opacity: 0.1; transform-origin: 172.813px 310.637px;" class="animable"></path></g><g id="elxyyom35kis"><path d="M209.79,368.57c0-.16,0-.33-.07-.49a26,26,0,0,0-21-21.62,82,82,0,0,1-26.93-10.31c-5.89-3.56-11.45-7.93-18.05-9.85a29.48,29.48,0,0,0-19.46,1.12c5.55-5.82,15.06-8.38,22.67-5.75-5.26-8.05-9.89-16.73-11.71-26.18s-.52-19.81,5.17-27.57a27.73,27.73,0,0,1,42.82-2.28c5.65,6.17,8.83,14.85,12.53,22.35,2.66,5.38,5.42,10.89,9.8,15,6.62,6.19,16.14,8.42,23,14.34,7.79,6.72,11.14,17.46,11.18,27.73a81.69,81.69,0,0,1-3,20.51,77.88,77.88,0,0,1-28.15,17.21A30.5,30.5,0,0,0,209.79,368.57Z" style="opacity: 0.1; transform-origin: 182.01px 319.696px;" class="animable"></path></g><path d="M103.34,302.08a70.49,70.49,0,0,1,60.16-68.46,49,49,0,0,1,6.8,1.14,68.76,68.76,0,0,0-65.1,67.35c-.44,22.49,10.56,45.41,29.43,61.31,14.78,12.46,34.42,20.73,56,23.7l-1.38.18c-1.94.23-3.89.39-5.84.5-19.18-3.72-36.54-11.63-50-23C114.14,348.58,102.89,325.12,103.34,302.08Z" style="fill: rgb(255, 255, 255); transform-origin: 146.978px 310.71px;" id="elk90m20u10jb" class="animable"></path><path d="M218.5,385.1,216,390c-3.5-3.23-4.13-5.84-4.13-5.84,1.13-4,2.45-8.06,3.1-10,.34,2.75,2.22,5.12,3,7.8A13.16,13.16,0,0,1,218.5,385.1Z" style="fill: rgb(51, 98, 176); transform-origin: 215.185px 382.08px;" id="elstjs5fptj6h" class="animable"></path><path d="M218.38,390.12,216,390l2.47-4.9C218.57,386.76,218.43,388.44,218.38,390.12Z" style="fill: rgb(51, 98, 176); transform-origin: 217.253px 387.61px;" id="elmzktw7of9r" class="animable"></path><g id="el4trigg74k6o"><path d="M218.5,385.1,216,390c-3.5-3.23-4.13-5.84-4.13-5.84,1.13-4,2.45-8.06,3.1-10,.34,2.75,2.22,5.12,3,7.8A13.16,13.16,0,0,1,218.5,385.1Z" style="opacity: 0.1; transform-origin: 215.185px 382.08px;" class="animable"></path></g><g id="elmmqjju5fe4c"><path d="M218.38,390.12,216,390l2.47-4.9C218.57,386.76,218.43,388.44,218.38,390.12Z" style="opacity: 0.4; transform-origin: 217.253px 387.61px;" class="animable"></path></g><path d="M216.59,368.34a21.49,21.49,0,0,1,2.92-3.41,11.92,11.92,0,0,0,0,6.54c.74,2.84,2.07,5.5,2.73,8.36.81,3.47.63,7.21,2.1,10.46a11.23,11.23,0,0,0,7.85,6.26,5,5,0,0,0,3.72-.45,2.66,2.66,0,0,0,1-1.39,25.1,25.1,0,0,0,2.68,4.37c1.16,1.51,2.61,3.16,2.29,5a4,4,0,0,1-3.28,3,10.55,10.55,0,0,1-4.66-.38,29.16,29.16,0,0,1-9.34-3.81,14,14,0,0,1-5.93-7.95,17.87,17.87,0,0,1-.36-4.85c.05-1.68.19-3.36.12-5a13.16,13.16,0,0,0-.49-3.17c-.79-2.68-2.67-5.05-3-7.8,0-.15-.05-.3-.06-.45A8.9,8.9,0,0,1,216.59,368.34Z" style="fill: rgb(69, 90, 100); transform-origin: 228.402px 386.058px;" id="elccmhhjcls5" class="animable"></path><path d="M216.59,368.34a21.49,21.49,0,0,1,2.92-3.41,11.92,11.92,0,0,0,0,6.54c.74,2.84,2.07,5.5,2.73,8.36.81,3.47.63,7.21,2.1,10.46a11.23,11.23,0,0,0,7.85,6.26,5,5,0,0,0,3.72-.45,2.66,2.66,0,0,0,1-1.39,25.1,25.1,0,0,0,2.68,4.37c1.16,1.51,2.61,3.16,2.29,5a4,4,0,0,1-3.28,3,10.55,10.55,0,0,1-4.66-.38,29.16,29.16,0,0,1-9.34-3.81,14,14,0,0,1-5.93-7.95,17.87,17.87,0,0,1-.36-4.85c.05-1.68.19-3.36.12-5a13.16,13.16,0,0,0-.49-3.17c-.79-2.68-2.67-5.05-3-7.8,0-.15-.05-.3-.06-.45A8.9,8.9,0,0,1,216.59,368.34Z" style="fill: rgb(51, 98, 176); transform-origin: 228.402px 386.058px;" id="ely6mjuewxfwn" class="animable"></path><path d="M232.23,396.55a11.23,11.23,0,0,1-7.85-6.26c-1.47-3.25-1.29-7-2.1-10.46-.66-2.86-2-5.52-2.73-8.36a11.92,11.92,0,0,1,0-6.54l.85-.84c4.21,2.19,9,4,12.84,6.78a90.3,90.3,0,0,0,.93,14.7,34.68,34.68,0,0,0,2.85,9.14,2.66,2.66,0,0,1-1,1.39A5,5,0,0,1,232.23,396.55Z" style="fill: rgb(173, 87, 85); transform-origin: 228.056px 380.413px;" id="elukn1j9efnvd" class="animable"></path><path d="M246.53,383.58c.7,4.07,3.81,12.35,3.81,12.35s-14.6.59-14.92-.08l-4.29-6.63Z" style="fill: rgb(199, 115, 113); transform-origin: 240.735px 389.875px;" id="elu4okpi71i8e" class="animable"></path><path d="M202.83,286.82l37.23,20.75a18.44,18.44,0,0,1,9.16,19.48L242,366l5.92,18.83c-5.11,6.86-16.85,7.21-16.85,7.21-6.54-13.14-11.35-18.72-15.07-29.72s-6.2-18.59-6.2-18.59l-30.92-8.46a36.64,36.64,0,0,1-26.79-31.17c-.53-4.68-.55-7.87-.55-7.87Z" style="fill: rgb(55, 71, 79); transform-origin: 200.535px 339.43px;" id="el9n57ag1cs2n" class="animable"></path><g id="eloksyzoly1s8"><path d="M202.55,297.28a17.59,17.59,0,0,1-4.17,11.35l26.28,16.45a18.88,18.88,0,0,1,8,10.48L242,366l-8.39-33.86a15.34,15.34,0,0,0-6.83-9.37l-24.26-15C205,301.55,202.55,297.28,202.55,297.28Z" style="opacity: 0.2; transform-origin: 220.19px 331.64px;" class="animable"></path></g><path d="M242.42,414.8l-.34,5.47c-4.48-1.6-6.09-3.74-6.09-3.74-.53-4.12-.92-8.38-1.1-10.45,1.39,2.4,4.05,3.84,5.84,6A13.07,13.07,0,0,1,242.42,414.8Z" style="fill: rgb(51, 98, 176); transform-origin: 238.655px 413.175px;" id="eldywvtvkctqp" class="animable"></path><path d="M244.29,419.46l-2.21.81.34-5.47C243.14,416.29,243.68,417.89,244.29,419.46Z" style="fill: rgb(51, 98, 176); transform-origin: 243.185px 417.535px;" id="elfjg7owpplsu" class="animable"></path><g id="elasz9msvgqo"><path d="M244.29,419.46l-2.21.81.34-5.47C243.14,416.29,243.68,417.89,244.29,419.46Z" style="opacity: 0.3; transform-origin: 243.185px 417.535px;" class="animable"></path></g><path d="M234.08,400.14a21.56,21.56,0,0,1,1.34-4.29,11.91,11.91,0,0,0,2.61,6c1.8,2.33,4.07,4.25,5.8,6.61,2.11,2.88,3.41,6.39,6,8.8a11.21,11.21,0,0,0,9.68,2.67A4.93,4.93,0,0,0,262.8,418a2.75,2.75,0,0,0,.4-1.68,25.12,25.12,0,0,0,4.18,3c1.66.92,3.64,1.87,4.09,3.72a4.05,4.05,0,0,1-1.84,4.05,10.58,10.58,0,0,1-4.44,1.48,29,29,0,0,1-10.09.17,13.94,13.94,0,0,1-8.57-5,17.66,17.66,0,0,1-2.24-4.31c-.61-1.57-1.15-3.17-1.87-4.66a13.07,13.07,0,0,0-1.69-2.73c-1.79-2.15-4.45-3.59-5.84-6-.07-.13-.16-.25-.23-.38A9,9,0,0,1,234.08,400.14Z" style="fill: rgb(51, 98, 176); transform-origin: 252.702px 412.476px;" id="elj1s2jwckz6l" class="animable"></path><g id="el11j3mav1nbke"><path d="M234.08,400.14a21.56,21.56,0,0,1,1.34-4.29,11.91,11.91,0,0,0,2.61,6c1.8,2.33,4.07,4.25,5.8,6.61,2.11,2.88,3.41,6.39,6,8.8a11.21,11.21,0,0,0,9.68,2.67A4.93,4.93,0,0,0,262.8,418a2.75,2.75,0,0,0,.4-1.68,25.12,25.12,0,0,0,4.18,3c1.66.92,3.64,1.87,4.09,3.72a4.05,4.05,0,0,1-1.84,4.05,10.58,10.58,0,0,1-4.44,1.48,29,29,0,0,1-10.09.17,13.94,13.94,0,0,1-8.57-5,17.66,17.66,0,0,1-2.24-4.31c-.61-1.57-1.15-3.17-1.87-4.66a13.07,13.07,0,0,0-1.69-2.73c-1.79-2.15-4.45-3.59-5.84-6-.07-.13-.16-.25-.23-.38A9,9,0,0,1,234.08,400.14Z" style="fill: rgb(255, 255, 255); opacity: 0.2; transform-origin: 252.702px 412.476px;" class="animable"></path></g><path d="M259.55,419.92a11.21,11.21,0,0,1-9.68-2.67c-2.63-2.41-3.93-5.92-6-8.8-1.73-2.36-4-4.28-5.8-6.61a11.91,11.91,0,0,1-2.61-6l.45-1.1c4.73.35,9.85.12,14.47,1.18A90.9,90.9,0,0,0,257,409.07a34.21,34.21,0,0,0,6.22,7.29,2.75,2.75,0,0,1-.4,1.68A4.93,4.93,0,0,1,259.55,419.92Z" style="fill: rgb(199, 115, 113); transform-origin: 249.345px 407.437px;" id="el4xsltbya5kx" class="animable"></path><path d="M241.93,145.78a7.29,7.29,0,0,1-5.31,8.9,39.47,39.47,0,0,1-4.94-9.65,22.57,22.57,0,0,0,1.06-4C236.4,140.78,241,142.23,241.93,145.78Z" style="fill: rgb(173, 87, 85); transform-origin: 236.921px 147.841px;" id="elwd1u51fvwe" class="animable"></path><path d="M231.31,143.92c0-1.1,0-2.2,0-3.31a5.48,5.48,0,0,1,.44-2.6,2.75,2.75,0,0,1,4.48-.5,2.1,2.1,0,0,1,2.22-.3,2,2,0,0,1,1.13,1.87,2.09,2.09,0,0,1,2.08-.35,1.81,1.81,0,0,1,1.18,1.55,2,2,0,0,1,1.58,1.11,3,3,0,0,1,.2,1.76,5.73,5.73,0,0,1-1.61,3.22,2.63,2.63,0,0,1-1,.67,1.23,1.23,0,0,1-1.16-.19.83.83,0,0,1-.14-1.1,1.89,1.89,0,0,1-1.31.37,1.21,1.21,0,0,1-.77-.8,3.42,3.42,0,0,1-.13-1.15,1.61,1.61,0,0,1-1.87.82,1.56,1.56,0,0,1-.94-1.77,5.9,5.9,0,0,1-.65.9,1.12,1.12,0,0,1-1.76-.25,2.78,2.78,0,0,1-.39-1.05C232.43,143.21,231.78,143.53,231.31,143.92Z" style="fill: rgb(199, 115, 113); transform-origin: 237.983px 141.842px;" id="elv7mq9h75du" class="animable"></path><path d="M227.62,158.7,230,152V145.6a2.41,2.41,0,0,1,1.26-2.11l.94-.5a2.39,2.39,0,0,1,2.33,0l4.48,2.58h0a3,3,0,0,1-3.82,1.33L234,146.4c5.12,4.57,3.19,7.82,3.19,7.82l-3.08,7.59Z" style="fill: rgb(199, 115, 113); transform-origin: 233.315px 152.248px;" id="el4xjwjxa4lyh" class="animable"></path><path d="M197.51,221,226,156.07c7.53-1.26,10.46,3.16,11.09,6l-29,78.41Z" style="fill: rgb(51, 98, 176); transform-origin: 217.3px 198.165px;" id="elwhu0ssipocc" class="animable"></path><g id="elj1kj64qkib"><path d="M197.51,221,226,156.07c7.53-1.26,10.46,3.16,11.09,6l-29,78.41Z" style="fill: rgb(255, 255, 255); opacity: 0.3; transform-origin: 217.3px 198.165px;" class="animable"></path></g><path d="M160.06,258.11c-5.21-2.71-10.38-5.73-14.19-10s-6.1-10.12-4.71-15.56c1.27-5,5.32-8.88,9.42-12.27s8.54-6.67,11.06-11.22c3-5.45,2.83-11.89,3.23-18s1.82-12.8,6.88-16.69c3.94-3,9.45-3.76,14.47-3s9.68,2.9,14.21,5.08c3.16,1.52,8.46,4.09,11,6.41s4.46,5.48,4.39,8.82a7.75,7.75,0,0,1-6,7.38c1,6.52-1.86,14.17-8.8,19-5.47,3.78-2.88,11.47-6.7,17s-7.68,11.08-12.88,15.48S166.19,261.29,160.06,258.11Z" style="fill: rgb(38, 50, 56); transform-origin: 178.286px 215.032px;" id="el0mq93occzra" class="animable"></path><path d="M198.31,217.17c6.72,1.07,10.14,22.79,12.32,29.24,2.26,6.66-.81,11.49-4.22,15.52h0a6.88,6.88,0,0,0-1.57,5.33l7.06,26.24c-19.28,14.31-51.6,7.37-60.36,2.7a62,62,0,0,1,5.66-26.56,43.53,43.53,0,0,0,4.27-17.19l.33-9.63-1-28.11,15.41,7.51,14.75-.66S196.12,216.83,198.31,217.17Z" style="fill: rgb(51, 98, 176); transform-origin: 181.718px 258.381px;" id="elgr18293c9qb" class="animable"></path><g id="el0cqaaoxj3dia"><path d="M198.31,217.17c6.72,1.07,10.14,22.79,12.32,29.24,2.26,6.66-.81,11.49-4.22,15.52h0a6.88,6.88,0,0,0-1.57,5.33l7.06,26.24c-19.28,14.31-51.6,7.37-60.36,2.7a62,62,0,0,1,5.66-26.56,43.53,43.53,0,0,0,4.27-17.19l.33-9.63-1-28.11,15.41,7.51,14.75-.66S196.12,216.83,198.31,217.17Z" style="fill: rgb(255, 255, 255); opacity: 0.1; transform-origin: 181.718px 258.381px;" class="animable"></path></g><path d="M191,215v13.19L192.7,235a1.77,1.77,0,0,1-3,1.64l-13.48-14.43,0-14.07Z" style="fill: rgb(199, 115, 113); transform-origin: 184.485px 222.664px;" id="elsp7vtwcayz8" class="animable"></path><path d="M176.8,208.4c1.25,9.32,9.93,15.83,14.17,16.85V215Z" style="fill: rgb(173, 87, 85); transform-origin: 183.885px 216.825px;" id="elm3dqwb6m3e" class="animable"></path><path d="M181.17,197.81a14.44,14.44,0,0,1-.85,3.44,4.18,4.18,0,0,1-1.8,1.94,2.62,2.62,0,0,1-2.49,0,4.62,4.62,0,0,0-8-4.65,5.81,5.81,0,0,0-.44,4.89,11,11,0,0,0,2.78,4.18,3.92,3.92,0,0,0,5-.43c2.68,6.75,9,13.08,16.2,14.58a10.55,10.55,0,0,0,5.92-.3c3.28-1.27,4.4-4.32,5.65-7.3a45.41,45.41,0,0,0,3.38-11.73c.72-5.61-.1-11.58-3.22-16.3C197.45,197.05,185.51,198.16,181.17,197.81Z" style="fill: rgb(199, 115, 113); transform-origin: 187.004px 204.089px;" id="elvo2c03m9nyp" class="animable"></path><polygon points="195.89 203.99 198.95 211.37 194.01 211.58 195.89 203.99" style="fill: rgb(173, 87, 85); transform-origin: 196.48px 207.785px;" id="elbl2k2wo8sqt" class="animable"></polygon><path d="M195.92,215.36,189.71,213a4.58,4.58,0,0,0-.58,3,3.16,3.16,0,0,0,1.82,2.36A3.43,3.43,0,0,0,194,218,6.6,6.6,0,0,0,195.92,215.36Z" style="fill: rgb(173, 87, 85); transform-origin: 192.5px 215.782px;" id="elnuctum8blm" class="animable"></path><g id="el6kug1c0vvav"><path d="M195.92,215.36,189.71,213a4.58,4.58,0,0,0-.58,3,3.16,3.16,0,0,0,1.82,2.36A3.43,3.43,0,0,0,194,218,6.6,6.6,0,0,0,195.92,215.36Z" style="opacity: 0.3; transform-origin: 192.5px 215.782px;" class="animable"></path></g><path d="M188.88,203.26a1.4,1.4,0,1,0,1.7-1A1.4,1.4,0,0,0,188.88,203.26Z" style="fill: rgb(38, 50, 56); transform-origin: 190.234px 203.617px;" id="el2z280ccvg4x" class="animable"></path><path d="M200.37,205.65a1.4,1.4,0,0,0,2.71.67,1.4,1.4,0,0,0-2.71-.67Z" style="fill: rgb(38, 50, 56); transform-origin: 201.725px 205.985px;" id="elbu0n7jx4p67" class="animable"></path><path d="M202.12,199.2l3.33,1.75a2,2,0,0,0-.86-2.11A2.36,2.36,0,0,0,202.12,199.2Z" style="fill: rgb(38, 50, 56); transform-origin: 203.809px 199.796px;" id="elu5fyxwx6x8e" class="animable"></path><path d="M192.1,197.22l-3.72.57a2,2,0,0,1,1.5-1.71A2.37,2.37,0,0,1,192.1,197.22Z" style="fill: rgb(38, 50, 56); transform-origin: 190.24px 196.931px;" id="el7bjpdkncsqo" class="animable"></path><path d="M189.08,215.16a4,4,0,0,0,0,.84,2.94,2.94,0,0,0,4,2.35,4.21,4.21,0,0,0-1.41-2.29A4.25,4.25,0,0,0,189.08,215.16Z" style="fill: rgb(173, 87, 85); transform-origin: 191.069px 216.859px;" id="elq1tipjha22" class="animable"></path><path d="M176.56,312.79a1.37,1.37,0,0,0,.05.49v0a1.74,1.74,0,0,0,.2.38l0,0a2.25,2.25,0,0,0,.33.37l0,0a2.79,2.79,0,0,0,.5.36l27.24,15.84a4,4,0,0,0,.79.34l.3.09.39.1.49.08.11,0c.22,0,.45,0,.67,0h.11c.22,0,.44,0,.65,0h.1c.22,0,.43-.06.64-.11l.11,0a5,5,0,0,0,.55-.16l.1,0a3.67,3.67,0,0,0,.6-.28l45-26A3.3,3.3,0,0,0,256,304a.81.81,0,0,0,.12-.14,1.45,1.45,0,0,0,.24-.26.91.91,0,0,0,.09-.17,1.49,1.49,0,0,0,.13-.25,1.25,1.25,0,0,0,0-.19,1.09,1.09,0,0,0,0-.25v1.59a1.17,1.17,0,0,1,0,.26,1.13,1.13,0,0,1,0,.18,1.58,1.58,0,0,1-.13.26s0,.11-.09.17a1.89,1.89,0,0,1-.24.26l-.12.14a4.16,4.16,0,0,1-.51.36l-45,25.95a4.77,4.77,0,0,1-.6.29l-.1,0-.55.17-.11,0a4.5,4.5,0,0,1-.64.11h-.1a4.63,4.63,0,0,1-.65,0h-.11a5,5,0,0,1-.67,0h-.11l-.49-.08-.39-.1-.3-.09a4.72,4.72,0,0,1-.79-.35l-27.24-15.83a2.79,2.79,0,0,1-.5-.36l0,0a2.3,2.3,0,0,1-.33-.38.08.08,0,0,1,0,0,1.54,1.54,0,0,1-.2-.38v0a1.11,1.11,0,0,1,0-.36h0v-1.73Z" style="fill: rgb(224, 224, 224); transform-origin: 216.571px 317.616px;" id="elxutxwdifq6g" class="animable"></path><g id="elro3axc1dck8"><path d="M176.56,312.79a1.37,1.37,0,0,0,.05.49v0a1.74,1.74,0,0,0,.2.38l0,0a2.25,2.25,0,0,0,.33.37l0,0a2.79,2.79,0,0,0,.5.36l27.24,15.84a4,4,0,0,0,.79.34l.3.09.39.1.49.08.11,0c.22,0,.45,0,.67,0h.11c.22,0,.44,0,.65,0h.1c.22,0,.43-.06.64-.11l.11,0a5,5,0,0,0,.55-.16l.1,0a3.67,3.67,0,0,0,.6-.28l45-26A3.3,3.3,0,0,0,256,304a.81.81,0,0,0,.12-.14,1.45,1.45,0,0,0,.24-.26.91.91,0,0,0,.09-.17,1.49,1.49,0,0,0,.13-.25,1.25,1.25,0,0,0,0-.19,1.09,1.09,0,0,0,0-.25v1.59a1.17,1.17,0,0,1,0,.26,1.13,1.13,0,0,1,0,.18,1.58,1.58,0,0,1-.13.26s0,.11-.09.17a1.89,1.89,0,0,1-.24.26l-.12.14a4.16,4.16,0,0,1-.51.36l-45,25.95a4.77,4.77,0,0,1-.6.29l-.1,0-.55.17-.11,0a4.5,4.5,0,0,1-.64.11h-.1a4.63,4.63,0,0,1-.65,0h-.11a5,5,0,0,1-.67,0h-.11l-.49-.08-.39-.1-.3-.09a4.72,4.72,0,0,1-.79-.35l-27.24-15.83a2.79,2.79,0,0,1-.5-.36l0,0a2.3,2.3,0,0,1-.33-.38.08.08,0,0,1,0,0,1.54,1.54,0,0,1-.2-.38v0a1.11,1.11,0,0,1,0-.36h0v-1.73Z" style="opacity: 0.2; transform-origin: 216.571px 317.616px;" class="animable"></path></g><path d="M256.59,303.19a1.49,1.49,0,0,1-.13.25.91.91,0,0,1-.09.17,1.45,1.45,0,0,1-.24.26.81.81,0,0,1-.12.14,3.3,3.3,0,0,1-.51.36l-45,26a3.67,3.67,0,0,1-.6.28l-.1,0a5,5,0,0,1-.55.16l-.11,0c-.21.05-.42.08-.64.11h-.1c-.21,0-.43,0-.65,0h-.11c-.22,0-.45,0-.67,0l-.11,0-.49-.08-.39-.1-.3-.09a4,4,0,0,1-.79-.34l-27.24-15.84a2.79,2.79,0,0,1-.5-.36l0,0a2.25,2.25,0,0,1-.33-.37l0,0a1.74,1.74,0,0,1-.2-.38v0a1.37,1.37,0,0,1-.05-.49,2,2,0,0,1,1.15-1.54l45-25.95a6.12,6.12,0,0,1,5.59,0l27.25,15.83a2,2,0,0,1,1.15,1.62,1.09,1.09,0,0,1,0,.25A1.25,1.25,0,0,1,256.59,303.19Z" style="fill: rgb(224, 224, 224); transform-origin: 216.641px 307.812px;" id="elmkew8skob3" class="animable"></path><path d="M252.85,302.75,209.17,328l-.17.09-.09,0-.34.1-.24.05h-.17a4.11,4.11,0,0,1-.43,0h0l-.45,0-.29-.05-.35-.1a2.68,2.68,0,0,1-.3-.12l-14.05-8.17,45.11-26.05Z" style="fill: rgb(224, 224, 224); transform-origin: 222.57px 310.998px;" id="elu5zvdcwe8n" class="animable"></path><path d="M207.69,328.27h0Z" style="fill: rgb(38, 50, 56); transform-origin: 207.69px 328.27px;" id="el4mol41qpnl" class="animable"></path><path d="M211.3,295.81l8.22,4.84a.83.83,0,0,1,0,1.43l-12.29,7.09a1.35,1.35,0,0,1-1.37,0l-8.22-4.83a.83.83,0,0,1,0-1.44l12.28-7.09A1.36,1.36,0,0,1,211.3,295.81Z" style="fill: rgb(224, 224, 224); transform-origin: 208.576px 302.489px;" id="eloflazuxf71e" class="animable"></path><g id="eluvpboci1s9a"><path d="M252.85,302.75,209.17,328l-.17.09-.09,0-.34.1-.24.05h-.17a4.11,4.11,0,0,1-.43,0h0l-.45,0-.29-.05-.35-.1a2.68,2.68,0,0,1-.3-.12l-14.05-8.17,45.11-26.05Z" style="opacity: 0.4; transform-origin: 222.57px 310.998px;" class="animable"></path></g><g id="el3k8yyaie9f9"><path d="M211.3,295.81l8.22,4.84a.83.83,0,0,1,0,1.43l-12.29,7.09a1.35,1.35,0,0,1-1.37,0l-8.22-4.83a.83.83,0,0,1,0-1.44l12.28-7.09A1.36,1.36,0,0,1,211.3,295.81Z" style="opacity: 0.4; transform-origin: 208.576px 302.489px;" class="animable"></path></g><path d="M208,328.72l4.65-29.6a5.47,5.47,0,0,1,2.65-3.87l45.27-26.32a1.35,1.35,0,0,1,1.2-.08h0l1.08.53-.36.14a1.34,1.34,0,0,1,.11.8L258,299.92a5.46,5.46,0,0,1-2.65,3.87L210,330.11a1.48,1.48,0,0,1-.29.12l0,.43-1-.51h0A1.35,1.35,0,0,1,208,328.72Z" style="fill: rgb(224, 224, 224); transform-origin: 235.415px 299.703px;" id="elg28cyfwnjkc" class="animable"></path><g id="el5e1ub6az57m"><path d="M208,328.72l4.65-29.6a5.47,5.47,0,0,1,2.65-3.87l45.27-26.32a1.35,1.35,0,0,1,1.2-.08h0l1.08.53-.36.14a1.34,1.34,0,0,1,.11.8L258,299.92a5.46,5.46,0,0,1-2.65,3.87L210,330.11a1.48,1.48,0,0,1-.29.12l0,.43-1-.51h0A1.35,1.35,0,0,1,208,328.72Z" style="opacity: 0.3; transform-origin: 235.415px 299.703px;" class="animable"></path></g><path d="M216.22,295.7l45.27-26.31a1.36,1.36,0,0,1,2,1.39l-4.65,29.59a5.46,5.46,0,0,1-2.65,3.88L211,330.56a1.36,1.36,0,0,1-2-1.39l4.65-29.59A5.49,5.49,0,0,1,216.22,295.7Z" style="fill: rgb(224, 224, 224); transform-origin: 236.245px 299.975px;" id="elkha89hqbn88" class="animable"></path><path d="M238.16,296.47a10,10,0,0,0-4.49,6.47c-.3,2.31,1.23,3.17,3.42,1.9a10,10,0,0,0,4.49-6.47C241.88,296.06,240.34,295.21,238.16,296.47Z" style="fill: rgb(255, 255, 255); transform-origin: 237.625px 300.657px;" id="elzyq6e94a18" class="animable"></path><path d="M132.61,161.81c-7.57-3.71-14.29,4.22-12,8.32S137.57,169.62,132.61,161.81Z" style="fill: rgb(51, 98, 176); transform-origin: 126.891px 166.253px;" id="el2egywae3m3n" class="animable"></path><g id="el2yazl23jfu9"><path d="M132.61,161.81c-7.57-3.71-14.29,4.22-12,8.32S137.57,169.62,132.61,161.81Z" style="opacity: 0.3; transform-origin: 126.891px 166.253px;" class="animable"></path></g><path d="M113.79,149.87c1.44,5.86,3.58,8.69,7.72,11.95l7.62-3.54-2.82-13.69-1.92-1.83Z" style="fill: rgb(173, 87, 85); transform-origin: 121.46px 152.29px;" id="elnn5j3a6flss" class="animable"></path><path d="M123.32,138.63a2.35,2.35,0,0,0-3.65,1.21,1.86,1.86,0,0,0-2.23-.07,2,2,0,0,0-.73,2.22,1.29,1.29,0,0,0-1.43-.26,2.09,2.09,0,0,0-1,1.11,6.57,6.57,0,0,0-.45,1.51,1.55,1.55,0,0,0-1.64.34,1.57,1.57,0,0,0-.33,1.64,16.43,16.43,0,0,0,1.7,3.14,2.93,2.93,0,0,0,1.75,1.54,1.53,1.53,0,0,0,1.5-.62,1.55,1.55,0,0,0,.07-1.63,2.35,2.35,0,0,0,2.73.63,2,2,0,0,0,.74-2.45,1.58,1.58,0,0,0,1.57.86,1.82,1.82,0,0,0,1.4-1.12,2.31,2.31,0,0,0-.08-1.82,1.65,1.65,0,0,0,1.24,1.07,1.52,1.52,0,0,0,1.49-.53,2.8,2.8,0,0,0,.09-2.67A7.49,7.49,0,0,0,123.32,138.63Z" style="fill: rgb(199, 115, 113); transform-origin: 119.057px 144.599px;" id="eldmss6r5e9ej" class="animable"></path><path d="M133,166.09l-3.9-7.81,1.53-5.36a7.37,7.37,0,0,0-.78-5.85l-.92-1.54a2,2,0,0,0-2.6-.8l-7.27,3.33,0,.1a4,4,0,0,0,5.35,2.26h0c-4.83,3.77-5,6.94-3,11.4s5.11,11.52,5.11,11.52Z" style="fill: rgb(199, 115, 113); transform-origin: 126.03px 158.936px;" id="el0127iatx0vgj" class="animable"></path><path d="M169.28,218.84l-36.67-57c-1.62,9.07-12,8.32-12,8.32l41.16,72.69C167.26,252,185.9,243,169.28,218.84Z" style="fill: rgb(51, 98, 176); transform-origin: 148.318px 204.1px;" id="ell1d8nodizs8" class="animable"></path><g id="el9soc2uetb9j"><path d="M169.28,218.84l-36.67-57c-1.62,9.07-12,8.32-12,8.32l41.16,72.69C167.26,252,185.9,243,169.28,218.84Z" style="fill: rgb(255, 255, 255); opacity: 0.3; transform-origin: 148.318px 204.1px;" class="animable"></path></g><g id="elku6umlh6ua"><path d="M193.41,259a11.55,11.55,0,0,1-15.63-3.16c.19,3.72,2.47,7.3,6.12,8.08S191.72,262.3,193.41,259Z" style="opacity: 0.2; transform-origin: 185.595px 259.954px;" class="animable"></path></g></g><defs>     <filter id="active" height="200%">         <feMorphology in="SourceAlpha" result="DILATED" operator="dilate" radius="2"></feMorphology>                <feFlood flood-color="#32DFEC" flood-opacity="1" result="PINK"></feFlood>        <feComposite in="PINK" in2="DILATED" operator="in" result="OUTLINE"></feComposite>        <feMerge>            <feMergeNode in="OUTLINE"></feMergeNode>            <feMergeNode in="SourceGraphic"></feMergeNode>        </feMerge>    </filter>    <filter id="hover" height="200%">        <feMorphology in="SourceAlpha" result="DILATED" operator="dilate" radius="2"></feMorphology>                <feFlood flood-color="#ff0000" flood-opacity="0.5" result="PINK"></feFlood>        <feComposite in="PINK" in2="DILATED" operator="in" result="OUTLINE"></feComposite>        <feMerge>            <feMergeNode in="OUTLINE"></feMergeNode>            <feMergeNode in="SourceGraphic"></feMergeNode>        </feMerge>            <feColorMatrix type="matrix" values="0   0   0   0   0                0   1   0   0   0                0   0   0   0   0                0   0   0   1   0 "></feColorMatrix>    </filter></defs></svg>