<svg width="113" height="121" viewBox="0 0 113 121" fill="none" xmlns="http://www.w3.org/2000/svg">
<path d="M100.9 94.1867C101.631 84.7327 97.2273 78.6669 90.3139 72.783C81.6224 65.428 70.3883 60.9159 58.9214 60.9654H43.3332C55.8802 60.8993 68.1115 66.304 77.0856 74.8985C79.3955 77.229 81.6889 79.6751 83.2012 82.6171C85.4447 87.1292 85.8934 92.4182 84.8464 97.327C83.5502 104.153 78.3486 109.293 72.2994 112.351C62.8933 117.491 53.5536 119.921 41.2559 119.937C56.9937 120.003 71.8839 120.846 85.3782 113.657C93.9202 109.624 100.136 104.07 100.883 94.1867H100.9Z" fill="#635CFF" stroke="#0F142D" stroke-width="0.922179" stroke-miterlimit="10"/>
<path d="M43.3347 60.9823C57.8926 60.9162 72.6001 68.2547 81.5575 79.9895C86.6262 86.7329 86.6095 97.6414 81.7735 104.517C78.6492 108.947 74.3118 111.409 69.7915 113.657C51.4612 122.78 28.029 122.417 9.39957 109.608C3.10112 105.393 -0.372161 96.3357 1.00718 88.6502C2.08739 82.6505 5.42773 78.3367 9.54914 74.4857C18.9885 65.6102 30.6547 60.9989 43.3181 60.9658L43.3347 60.9823Z" fill="#E0DEFF" stroke="#0F142D" stroke-width="0.922179" stroke-miterlimit="10"/>
<path d="M83.385 27.1657C83.4847 16.5713 76.9037 6.00992 66.7165 2.39029C64.2404 1.51431 61.6146 1.01847 58.9889 1.00195H43.2012C54.2194 0.853195 63.9745 9.2494 66.7498 19.629C71.4196 35.4132 60.2519 53.2138 43.1348 53.2799C47.6052 53.0981 60.6175 53.8584 64.6558 52.5031C71.8185 50.6189 77.7845 45.2639 80.8756 38.6361C81.9392 36.3388 82.6704 33.9257 83.0692 31.4299V31.3969C83.2853 29.992 83.385 28.5706 83.385 27.1657Z" fill="#635CFF" stroke="#0F142D" stroke-width="0.922179" stroke-miterlimit="10"/>
<path d="M43.2012 1.00195C56.8949 1.00195 67.913 12.8856 67.7967 27.4798C66.0019 62.0894 19.3203 61.5935 18.4062 26.703C18.4893 12.5219 29.6238 1.00195 43.2178 1.00195H43.2012Z" fill="#E0DEFF" stroke="#0F142D" stroke-width="0.922179" stroke-miterlimit="10"/>
<path d="M112.222 60.1554C112.471 56.9985 112.072 53.7756 111.042 50.7675C110.344 48.7676 109.38 46.8834 108.183 45.1645C107.003 43.4952 105.591 41.9911 103.979 40.7185C102.666 39.6772 101.22 38.8012 99.6913 38.0905C97.3315 37.0327 94.7722 36.4212 92.1797 36.3716C91.9803 36.3551 91.7808 36.3716 91.5814 36.3716H75.9932C82.5741 36.322 88.8726 39.8425 92.5952 45.181C93.7917 46.9165 94.7556 48.8007 95.4536 50.7675C100.256 64.2874 90.9333 80.2038 75.9766 80.2534C77.7215 80.2038 92.7115 80.4021 94.0244 80.0881C98.3286 79.5757 102.384 77.5428 105.491 74.5678C109.413 70.7994 111.806 65.5765 112.238 60.1719L112.222 60.1554Z" fill="#635CFF" stroke="#0F142D" stroke-width="0.922179" stroke-miterlimit="10"/>
<path d="M75.9753 36.3545C87.4255 36.3545 96.6987 46.1886 96.6987 58.3036C95.5853 87.4094 56.3488 87.4094 55.252 58.3036C55.252 46.1886 64.5251 36.3545 75.9753 36.3545ZM86.794 53.3948C88.0072 52.2048 87.143 49.8413 85.4147 49.8744C84.9161 49.8744 84.4176 50.0727 84.0354 50.4694L73.3995 61.7249L67.9153 55.9236C67.5331 55.5269 67.0345 55.3121 66.536 55.3121C64.8076 55.279 63.9601 57.6425 65.1566 58.8325L72.0201 66.1049C72.8012 66.9478 74.1307 66.8982 74.8619 66.0057L86.794 53.3948Z" fill="#E0DEFF" stroke="#0F142D" stroke-width="0.922179" stroke-miterlimit="10"/>
<path d="M86.7939 50.4697C86.0295 49.6598 84.7997 49.6598 84.0353 50.4697L73.3994 61.7253L67.9152 55.9239C67.533 55.5273 67.0344 55.3124 66.5359 55.3124C64.8075 55.2794 63.96 57.6428 65.1565 58.8329L72.02 66.1052C72.8011 66.9481 74.1306 66.8985 74.8618 66.006L86.7939 53.3952C87.5584 52.5853 87.5584 51.2796 86.7939 50.4697Z" fill="#635CFF" stroke="#0F142D" stroke-width="0.922179" stroke-miterlimit="10"/>
</svg>
