<svg id="Layer_1" data-name="Layer 1" xmlns="http://www.w3.org/2000/svg" xmlns:xlink="http://www.w3.org/1999/xlink" viewBox="0 0 159 159"><defs><style>.cls-1,.cls-5,.cls-8{fill:none;}.cls-2{fill:#e6faff;}.cls-3{fill:#cdf2fc;}.cls-4{fill:url(#Curved-LtBlue-wBG);}.cls-5{stroke:#a0e2fa;stroke-width:5.44px;}.cls-5,.cls-8{stroke-miterlimit:10;}.cls-6{fill:#0066f3;}.cls-7{fill:#003781;}.cls-8{stroke:#003781;}</style><pattern id="Curved-LtBlue-wBG" data-name="Curved-LtBlue-wBG" width="22.24" height="24.72" patternTransform="translate(253.94 -77.98) scale(1.63 1.72)" patternUnits="userSpaceOnUse" viewBox="0 0 22.24 24.72"><rect class="cls-1" width="22.24" height="24.72"/><rect class="cls-2" x="16.68" width="11.12" height="24.72"/><polygon class="cls-3" points="16.68 0.35 16.68 0.66 16.68 0.66 16.68 0.35 16.68 0.35"/><polygon class="cls-3" points="16.68 24.06 16.68 24.37 16.68 24.37 16.68 24.06 16.68 24.06"/><path class="cls-3" d="M27.8,22.2v.49h0a6,6,0,0,1-1.1,1,2.39,2.39,0,0,0,1.1.32v.31a2.7,2.7,0,0,1-1.38-.43,2.76,2.76,0,0,1-1.39.43,2.73,2.73,0,0,1-1.39-.43,2.76,2.76,0,0,1-1.39.43,2.73,2.73,0,0,1-1.39-.43,2.76,2.76,0,0,1-1.39.43H19.4A3.24,3.24,0,0,1,18,24a2.59,2.59,0,0,1-1.3.39v-.31a2.21,2.21,0,0,0,1-.26,3.7,3.7,0,0,1-1-1.07V22.2a15.54,15.54,0,0,0,1.21-1.86c-.21-.38-.33-.65-.35-.7L16.68,18v-.67L17.89,15l-1.21-2.32V12l1.21-2.31L16.68,7.39V6.72l.86-1.65.35-.7a15.5,15.5,0,0,0-1.21-1.85V2a4.15,4.15,0,0,1,.75-.8L17.77,1A2.21,2.21,0,0,0,16.68.66V.35a2.71,2.71,0,0,1,1.4.44A2.75,2.75,0,0,1,19.47.35h0a2.75,2.75,0,0,1,1.4.42,2.45,2.45,0,0,1,2.76,0A2.64,2.64,0,0,1,25,.35a2.67,2.67,0,0,1,1.39.43A2.6,2.6,0,0,1,27.79.35V.66a2.28,2.28,0,0,0-1.1.32,6.35,6.35,0,0,1,1.1,1h0v.49h0a15.54,15.54,0,0,0-1.21,1.86c.21.39.33.66.35.7l.87,1.65h0v.67h0L26.58,9.71,27.79,12h0v.66h0L26.58,15l1.21,2.32h0V18h0l-.86,1.65s-.14.31-.35.69a14.1,14.1,0,0,0,1.21,1.86Zm-1.39-6.86-1.22,2.32,1,1.85a4.74,4.74,0,0,0,.25.5c.15-.29.24-.48.24-.49l1-1.86ZM20.85,10l-1.22,2.32,1.22,2.32,1.21-2.32Zm1.39,2,1.21-2.32L22.24,7.39,21,9.71ZM21,15l1.22,2.32L23.45,15l-1.21-2.32Zm2.61-.33,1.21-2.32L23.63,10l-1.22,2.32Zm.17.33L25,17.33,26.23,15,25,12.69ZM25,12l1.21-2.32L25,7.39,23.8,9.71Zm.86-7s.14-.31.35-.7A15.54,15.54,0,0,0,25,2.51a14.35,14.35,0,0,0-1.21,1.85,6.88,6.88,0,0,1,.34.72L25,6.72Zm-2.25-.38-.25.51-1,1.85,1.22,2.32,1.21-2.32-1-1.84S23.78,5,23.63,4.69Zm-.17-.33a12.77,12.77,0,0,0-1.2-1.88A15.09,15.09,0,0,0,21,4.38c.21.38.33.65.35.69l.87,1.65.86-1.65C23.12,5,23.25,4.75,23.46,4.36Zm-2.61.35c-.16.29-.24.48-.25.49l-1,1.85,1.22,2.32,1.21-2.32-1-1.84S21,5,20.85,4.71Zm-.18-.33a13.78,13.78,0,0,0-1.21-1.87,14.57,14.57,0,0,0-1.22,1.86c.21.39.33.66.35.7l.87,1.65.86-1.65S20.47,4.76,20.67,4.38Zm-1.21,3L18.24,9.71,19.46,12l1.21-2.32Zm0,5.3L18.24,15l1.22,2.32L20.67,15Zm0,5.31-.87,1.65s-.14.31-.35.69a13.3,13.3,0,0,0,1.22,1.86,13.74,13.74,0,0,0,1.21-1.86c-.21-.38-.33-.65-.35-.7Zm1.39,2c.15-.29.24-.48.24-.49l1-1.86-1.21-2.32-1.22,2.32,1,1.85S20.69,19.71,20.85,20Zm.17.33a13.3,13.3,0,0,0,1.22,1.86,13.74,13.74,0,0,0,1.21-1.86c-.21-.38-.33-.65-.35-.7L22.24,18l-.87,1.65S21.23,20,21,20.34ZM23.63,20c.15-.29.24-.48.24-.49l1-1.86-1.21-2.32-1.22,2.32,1,1.85A4.74,4.74,0,0,0,23.63,20Zm.17.33A13.3,13.3,0,0,0,25,22.2a14.78,14.78,0,0,0,1.21-1.86c-.21-.38-.33-.65-.35-.7L25,18l-.87,1.65S24,20,23.8,20.34ZM26.41,10l-1.22,2.32,1.22,2.32,1.21-2.32Zm0-5.33a5.34,5.34,0,0,0-.25.49l-1,1.85,1.22,2.32,1.21-2.32-1-1.84S26.56,5,26.41,4.71ZM25.22,2.27a14.12,14.12,0,0,1,1.19,1.78,13,13,0,0,1,1.18-1.78,6.53,6.53,0,0,0-1.18-1.12A6.27,6.27,0,0,0,25.22,2.27ZM23.91,1A6.79,6.79,0,0,1,25,2a6.35,6.35,0,0,1,1.1-1,2.07,2.07,0,0,0-2.21,0ZM22.47,2.24A13.2,13.2,0,0,1,23.64,4a13,13,0,0,1,1.17-1.76,6.53,6.53,0,0,0-1.18-1.12A5.94,5.94,0,0,0,22.47,2.24ZM21.16,1a6.29,6.29,0,0,1,1.1,1,6.41,6.41,0,0,1,1.08-1,2.28,2.28,0,0,0-1.1-.32A2.38,2.38,0,0,0,21.16,1Zm-.29.18a5.83,5.83,0,0,0-1.21,1.13,14.12,14.12,0,0,1,1.19,1.78,12.65,12.65,0,0,1,1.21-1.81A5.58,5.58,0,0,0,20.87,1.14ZM18.36,1a7.16,7.16,0,0,1,1.1,1,6.52,6.52,0,0,1,1.12-1A2.42,2.42,0,0,0,19.46.66,2.24,2.24,0,0,0,18.36,1Zm-.29,3.07a13,13,0,0,1,1.18-1.78,6,6,0,0,0-1.19-1.12l-.44.31a3.61,3.61,0,0,0-.74.8A14.17,14.17,0,0,1,18.07,4.05Zm0,5.32,1.21-2.32-1-1.84s-.1-.21-.25-.5c-.16.29-.24.48-.25.49l-1,1.85Zm0,5.31,1.21-2.32L18.07,10l-1.22,2.32Zm0,5.33c.15-.29.24-.48.24-.49l1-1.86-1.21-2.32-1.22,2.32,1,1.85A4.74,4.74,0,0,0,18.07,20Zm1.18,2.44a13,13,0,0,1-1.18-1.78,15.16,15.16,0,0,1-1.2,1.8A3.27,3.27,0,0,0,18,23.63,5.86,5.86,0,0,0,19.25,22.45Zm1.31,1.29a6,6,0,0,1-1.1-1,6.43,6.43,0,0,1-1.18,1.1,3.07,3.07,0,0,0,1.17.27A2.4,2.4,0,0,0,20.56,23.74ZM22,22.45a13,13,0,0,1-1.18-1.78,14.12,14.12,0,0,1-1.19,1.78,6.14,6.14,0,0,0,1.18,1.11A5.91,5.91,0,0,0,22,22.45Zm1.31,1.29a6,6,0,0,1-1.1-1,6.44,6.44,0,0,1-1.11,1,2.07,2.07,0,0,0,2.21,0Zm1.47-1.29a13,13,0,0,1-1.18-1.78,14.12,14.12,0,0,1-1.19,1.78,5.91,5.91,0,0,0,1.19,1.11A6.14,6.14,0,0,0,24.81,22.45Zm1.31,1.29a6,6,0,0,1-1.1-1,6.44,6.44,0,0,1-1.11,1,2.07,2.07,0,0,0,2.21,0Zm1.47-1.29a13,13,0,0,1-1.18-1.78,14.12,14.12,0,0,1-1.19,1.78,5.91,5.91,0,0,0,1.19,1.11A6.14,6.14,0,0,0,27.59,22.45Z"/><rect class="cls-2" x="5.56" width="11.12" height="24.72"/><polygon class="cls-3" points="5.56 0.35 5.56 0.66 5.56 0.66 5.56 0.35 5.56 0.35"/><polygon class="cls-3" points="5.56 24.06 5.56 24.37 5.56 24.37 5.56 24.06 5.56 24.06"/><path class="cls-3" d="M16.68,22.2v.49h0a6.44,6.44,0,0,1-1.11,1,2.4,2.4,0,0,0,1.11.32v.31a2.73,2.73,0,0,1-1.39-.43,2.76,2.76,0,0,1-1.39.43,2.73,2.73,0,0,1-1.39-.43,2.76,2.76,0,0,1-1.39.43,2.73,2.73,0,0,1-1.39-.43,2.76,2.76,0,0,1-1.39.43H8.29A3.24,3.24,0,0,1,6.86,24a2.59,2.59,0,0,1-1.3.39v-.31a2.21,2.21,0,0,0,1-.26,3.7,3.7,0,0,1-1-1.07V22.2a13.4,13.4,0,0,0,1.21-1.86c-.2-.38-.33-.65-.35-.7L5.56,18v-.67L6.77,15,5.56,12.69V12L6.77,9.71,5.56,7.39V6.72l.87-1.65s.14-.31.34-.7A14.35,14.35,0,0,0,5.56,2.52V2a4.49,4.49,0,0,1,.75-.8L6.65,1A2.21,2.21,0,0,0,5.56.66V.35A2.68,2.68,0,0,1,7,.79,2.75,2.75,0,0,1,8.35.35h0a2.7,2.7,0,0,1,1.4.42A2.68,2.68,0,0,1,11.12.35a2.67,2.67,0,0,1,1.39.43A2.64,2.64,0,0,1,13.9.35a2.67,2.67,0,0,1,1.39.43A2.64,2.64,0,0,1,16.68.35V.66A2.29,2.29,0,0,0,15.57,1a6.79,6.79,0,0,1,1.11,1h0v.49h0a14.57,14.57,0,0,0-1.22,1.86c.21.39.33.66.35.7l.87,1.65h0v.67h0L15.46,9.71,16.68,12h0v.66h0L15.46,15l1.22,2.32h0V18h0l-.87,1.65s-.14.31-.35.69a13.3,13.3,0,0,0,1.22,1.86Zm-1.39-6.86-1.22,2.32,1,1.85a4.74,4.74,0,0,0,.25.5c.15-.29.24-.48.24-.49l1-1.86ZM9.73,10,8.51,12.36l1.22,2.32,1.21-2.32Zm1.39,2,1.21-2.32L11.12,7.39,9.9,9.71ZM9.9,15l1.22,2.32L12.33,15l-1.21-2.32Zm2.61-.33,1.21-2.32L12.51,10l-1.22,2.32Zm.17.33,1.22,2.32L15.11,15,13.9,12.69Zm1.22-3,1.21-2.32L13.9,7.39,12.68,9.71Zm.86-7,.35-.7A14.39,14.39,0,0,0,13.9,2.51a14.35,14.35,0,0,0-1.21,1.85c.21.39.33.67.35.72l.86,1.64Zm-2.25-.38c-.15.3-.24.5-.25.51l-1,1.85,1.22,2.32,1.21-2.32-1-1.84S12.66,5,12.51,4.69Zm-.17-.33a12.77,12.77,0,0,0-1.2-1.88,13.89,13.89,0,0,0-1.23,1.9c.2.38.33.65.35.69l.86,1.65L12,5.07C12,5,12.13,4.75,12.34,4.36Zm-2.61.35-.25.49-1,1.85L9.73,9.37l1.21-2.32L10,5.21S9.88,5,9.73,4.71Zm-.18-.33A13.78,13.78,0,0,0,8.34,2.51,13.4,13.4,0,0,0,7.13,4.37l.35.7.86,1.65.87-1.65S9.35,4.76,9.55,4.38Zm-1.21,3L7.12,9.71,8.34,12,9.55,9.71Zm0,5.3L7.12,15l1.22,2.32L9.55,15Zm0,5.31-.87,1.65s-.14.31-.34.69A12.32,12.32,0,0,0,8.34,22.2a13.74,13.74,0,0,0,1.21-1.86c-.2-.38-.33-.65-.35-.7Zm1.39,2c.15-.29.24-.48.24-.49l1-1.86L9.73,15.34,8.51,17.66l1,1.85S9.57,19.71,9.73,20Zm.18.33a12.32,12.32,0,0,0,1.21,1.86,13.74,13.74,0,0,0,1.21-1.86c-.2-.38-.33-.65-.35-.7L11.12,18l-.87,1.65S10.11,20,9.91,20.34Zm2.6-.33c.15-.29.24-.48.24-.49l1-1.86-1.21-2.32-1.22,2.32,1,1.85A4.74,4.74,0,0,0,12.51,20Zm.18.33A12.32,12.32,0,0,0,13.9,22.2a13.74,13.74,0,0,0,1.21-1.86c-.21-.38-.33-.65-.35-.7L13.9,18,13,19.65S12.89,20,12.69,20.34ZM15.29,10l-1.22,2.32,1.22,2.32,1.21-2.32Zm0-5.33c-.16.29-.24.48-.25.49l-1,1.85,1.22,2.32L16.5,7.05l-1-1.84S15.44,5,15.29,4.71ZM14.1,2.27a14.12,14.12,0,0,1,1.19,1.78,13,13,0,0,1,1.18-1.78,6.53,6.53,0,0,0-1.18-1.12A6.27,6.27,0,0,0,14.1,2.27ZM12.8,1a7.16,7.16,0,0,1,1.1,1A6.35,6.35,0,0,1,15,1,2.25,2.25,0,0,0,13.9.66,2.22,2.22,0,0,0,12.8,1ZM11.35,2.24A12.3,12.3,0,0,1,12.52,4a13,13,0,0,1,1.17-1.76,6.53,6.53,0,0,0-1.18-1.12A5.94,5.94,0,0,0,11.35,2.24ZM10.05,1a7.08,7.08,0,0,1,1.1,1,6,6,0,0,1,1.07-1,2.25,2.25,0,0,0-1.1-.32A2.3,2.3,0,0,0,10.05,1Zm-.3.18A6.09,6.09,0,0,0,8.54,2.27,14.12,14.12,0,0,1,9.73,4.05a13.56,13.56,0,0,1,1.21-1.81A5.58,5.58,0,0,0,9.75,1.14ZM7.24,1a6.73,6.73,0,0,1,1.1,1A6.52,6.52,0,0,1,9.46,1,2.39,2.39,0,0,0,8.34.66,2.24,2.24,0,0,0,7.24,1ZM7,4.05A14,14,0,0,1,8.13,2.27,6.2,6.2,0,0,0,7,1.15a5.23,5.23,0,0,0-.45.31,3.61,3.61,0,0,0-.74.8A14.17,14.17,0,0,1,7,4.05ZM7,9.37,8.16,7.05l-1-1.84L7,4.71,6.7,5.2l-1,1.85Zm0,5.31,1.21-2.32L7,10,5.73,12.36ZM7,20c.15-.29.24-.48.24-.49l1-1.86L7,15.34,5.73,17.66l1,1.85A4.74,4.74,0,0,0,7,20Zm1.18,2.44A14,14,0,0,1,7,20.67a14,14,0,0,1-1.2,1.8,3.36,3.36,0,0,0,1.11,1.16A5.86,5.86,0,0,0,8.13,22.45Zm1.31,1.29a6,6,0,0,1-1.1-1,6.71,6.71,0,0,1-1.17,1.1,3,3,0,0,0,1.16.27A2.4,2.4,0,0,0,9.44,23.74Zm1.47-1.29a14,14,0,0,1-1.18-1.78,14.12,14.12,0,0,1-1.19,1.78,5.91,5.91,0,0,0,1.19,1.11A6.14,6.14,0,0,0,10.91,22.45Zm1.31,1.29a6,6,0,0,1-1.1-1,6.77,6.77,0,0,1-1.1,1,2.33,2.33,0,0,0,1.1.32A2.36,2.36,0,0,0,12.22,23.74Zm1.47-1.29a13,13,0,0,1-1.18-1.78,14.12,14.12,0,0,1-1.19,1.78,5.91,5.91,0,0,0,1.19,1.11A6.14,6.14,0,0,0,13.69,22.45ZM15,23.74a6,6,0,0,1-1.1-1,6.77,6.77,0,0,1-1.1,1,2.33,2.33,0,0,0,1.1.32A2.36,2.36,0,0,0,15,23.74Zm1.47-1.29a13,13,0,0,1-1.18-1.78,14.12,14.12,0,0,1-1.19,1.78,5.91,5.91,0,0,0,1.19,1.11A6.14,6.14,0,0,0,16.47,22.45Z"/><rect class="cls-2" x="-5.56" width="11.12" height="24.72"/><path class="cls-3" d="M5.56,22.2v.49h0a6.77,6.77,0,0,1-1.1,1,2.33,2.33,0,0,0,1.1.32v.31a2.73,2.73,0,0,1-1.39-.43,2.76,2.76,0,0,1-1.39.43,2.76,2.76,0,0,1-1.39-.43A2.76,2.76,0,0,1,0,24.37a2.76,2.76,0,0,1-1.39-.43,2.76,2.76,0,0,1-1.39.43h-.05A3.18,3.18,0,0,1-4.25,24a2.65,2.65,0,0,1-1.31.39v-.31a2.29,2.29,0,0,0,1-.26,3.59,3.59,0,0,1-1-1.07V22.2a13.4,13.4,0,0,0,1.21-1.86c-.2-.38-.33-.65-.35-.7L-5.56,18v-.67L-4.34,15l-1.22-2.32V12l1.22-2.31L-5.56,7.39V6.72l.87-1.65s.14-.31.34-.7A13.36,13.36,0,0,0-5.56,2.52V2a4.19,4.19,0,0,1,.76-.8A3.29,3.29,0,0,1-4.47,1,2.18,2.18,0,0,0-5.56.66V.35a2.68,2.68,0,0,1,1.4.44A2.79,2.79,0,0,1-2.77.35h0A2.76,2.76,0,0,1-1.36.77,2.64,2.64,0,0,1,0,.35,2.67,2.67,0,0,1,1.39.78,2.67,2.67,0,0,1,2.78.35,2.67,2.67,0,0,1,4.17.78,2.64,2.64,0,0,1,5.56.35V.66A2.22,2.22,0,0,0,4.46,1a7.16,7.16,0,0,1,1.1,1h0v.49h0A13.4,13.4,0,0,0,4.35,4.37l.35.7.86,1.65h0v.67h0L4.34,9.71,5.56,12h0v.66h0L4.34,15l1.22,2.32h0V18h0l-.87,1.65s-.14.31-.34.69A12.32,12.32,0,0,0,5.56,22.2ZM4.17,15.34,3,17.66l1,1.85a4.74,4.74,0,0,0,.25.5c.15-.29.24-.48.24-.49l1-1.86ZM-1.39,10l-1.22,2.32,1.22,2.32,1.22-2.32ZM0,12,1.22,9.71,0,7.39-1.22,9.71Zm-1.22,3L0,17.33,1.22,15,0,12.69Zm2.61-.33,1.22-2.32L1.39,10,.17,12.36Zm.17.33,1.22,2.32L4,15,2.78,12.69Zm1.22-3L4,9.71,2.78,7.39,1.56,9.71Zm.87-7s.14-.31.34-.7A14.39,14.39,0,0,0,2.78,2.51a13.2,13.2,0,0,0-1.2,1.85c.2.39.32.67.34.72l.86,1.64ZM1.4,4.69c-.16.3-.25.5-.26.51l-1,1.85L1.39,9.37,2.61,7.05l-1-1.84S1.55,5,1.4,4.69Zm-.18-.33A12.77,12.77,0,0,0,0,2.48a13.89,13.89,0,0,0-1.23,1.9c.2.38.33.65.35.69L0,6.72.87,5.07C.89,5,1,4.75,1.22,4.36Zm-2.61.35c-.15.29-.24.48-.24.49l-1,1.85,1.22,2.32L-.17,7.05l-1-1.84S-1.24,5-1.39,4.71Zm-.18-.33A12.88,12.88,0,0,0-2.78,2.51,13.4,13.4,0,0,0-4,4.37c.2.39.33.66.35.7l.86,1.65.87-1.65S-1.77,4.76-1.57,4.38Zm-1.21,3L-4,9.71-2.78,12l1.22-2.32Zm0,5.3L-4,15l1.22,2.32L-1.56,15Zm0,5.31-.87,1.65s-.14.31-.34.69A13.15,13.15,0,0,0-2.78,22.2a12.84,12.84,0,0,0,1.21-1.86c-.2-.38-.33-.65-.35-.7Zm1.39,2,.25-.49,1-1.86-1.22-2.32-1.22,2.32,1,1.85S-1.54,19.71-1.39,20Zm.18.33A12.32,12.32,0,0,0,0,22.2a12.84,12.84,0,0,0,1.21-1.86c-.2-.38-.33-.65-.35-.7L0,18l-.87,1.65S-1,20-1.21,20.34ZM1.39,20c.15-.29.24-.48.24-.49l1-1.86L1.39,15.34.17,17.66l1,1.85S1.24,19.72,1.39,20Zm.18.33A12.32,12.32,0,0,0,2.78,22.2,13.74,13.74,0,0,0,4,20.34c-.2-.38-.33-.65-.35-.7L2.78,18l-.87,1.65S1.77,20,1.57,20.34ZM4.17,10,3,12.36l1.22,2.32,1.21-2.32Zm0-5.33-.25.49L3,7.05,4.17,9.37,5.38,7.05l-1-1.84S4.32,5,4.17,4.71ZM3,2.27A13.11,13.11,0,0,1,4.17,4.05,14,14,0,0,1,5.35,2.27,6.53,6.53,0,0,0,4.17,1.15,6.27,6.27,0,0,0,3,2.27ZM1.68,1a7.16,7.16,0,0,1,1.1,1,6.73,6.73,0,0,1,1.1-1A2.22,2.22,0,0,0,2.78.66,2.22,2.22,0,0,0,1.68,1ZM.23,2.24A12.3,12.3,0,0,1,1.4,4,12.29,12.29,0,0,1,2.58,2.27,6.58,6.58,0,0,0,1.39,1.15,6.24,6.24,0,0,0,.23,2.24ZM-1.07,1A6.66,6.66,0,0,1,0,2,6.76,6.76,0,0,1,1.1,1,2.22,2.22,0,0,0,0,.66,2.3,2.3,0,0,0-1.07,1Zm-.3.18A6.09,6.09,0,0,0-2.58,2.27,13.11,13.11,0,0,1-1.39,4.05,13.56,13.56,0,0,1-.18,2.24,5.58,5.58,0,0,0-1.37,1.14ZM-3.88,1a6.35,6.35,0,0,1,1.1,1A6.91,6.91,0,0,1-1.66,1,2.39,2.39,0,0,0-2.78.66,2.27,2.27,0,0,0-3.88,1Zm-.29,3.07A13.11,13.11,0,0,1-3,2.27,6.56,6.56,0,0,0-4.17,1.15l-.45.31a3.87,3.87,0,0,0-.74.8A13.16,13.16,0,0,1-4.17,4.05Zm0,5.32,1.22-2.32-1-1.84a4.74,4.74,0,0,0-.25-.5c-.15.29-.24.48-.24.49l-1,1.85Zm0,5.31,1.22-2.32L-4.17,10l-1.21,2.32Zm0,5.33.25-.49,1-1.86-1.22-2.32-1.21,2.32,1,1.85S-4.32,19.72-4.17,20ZM-3,22.45a13.11,13.11,0,0,1-1.19-1.78,14,14,0,0,1-1.2,1.8,3.36,3.36,0,0,0,1.11,1.16A6.15,6.15,0,0,0-3,22.45Zm1.3,1.29a6.77,6.77,0,0,1-1.1-1,6.71,6.71,0,0,1-1.17,1.1,3,3,0,0,0,1.16.27A2.4,2.4,0,0,0-1.68,23.74ZM-.2,22.45a13.11,13.11,0,0,1-1.19-1.78,13.11,13.11,0,0,1-1.19,1.78,6.18,6.18,0,0,0,1.19,1.11A6.49,6.49,0,0,0-.2,22.45Zm1.3,1.29a6.77,6.77,0,0,1-1.1-1,6.77,6.77,0,0,1-1.1,1,2.33,2.33,0,0,0,1.1.32A2.33,2.33,0,0,0,1.1,23.74Zm1.48-1.29a13.11,13.11,0,0,1-1.19-1.78A13.11,13.11,0,0,1,.2,22.45a6.18,6.18,0,0,0,1.19,1.11A6.18,6.18,0,0,0,2.58,22.45Zm1.3,1.29a6.77,6.77,0,0,1-1.1-1,6.77,6.77,0,0,1-1.1,1,2.33,2.33,0,0,0,1.1.32A2.33,2.33,0,0,0,3.88,23.74Zm1.47-1.29a14,14,0,0,1-1.18-1.78A13.11,13.11,0,0,1,3,22.45a5.91,5.91,0,0,0,1.19,1.11A6.14,6.14,0,0,0,5.35,22.45Z"/></pattern></defs><rect class="cls-4" width="126" height="129"/><line class="cls-5" x1="11.17" y1="22.5" x2="112" y2="22.5"/><line class="cls-5" x1="11.17" y1="43.5" x2="112" y2="43.5"/><line class="cls-5" x1="11.17" y1="64.5" x2="112" y2="64.5"/><line class="cls-5" x1="11.17" y1="85.5" x2="112" y2="85.5"/><line class="cls-5" x1="11.17" y1="106.5" x2="44.37" y2="106.5"/><path class="cls-6" d="M70.07,142.66h0Z"/><path class="cls-6" d="M69.7,142.3h0Z"/><path class="cls-6" d="M69.86,142.5h0Z"/><path class="cls-6" d="M69.85,142.5a1,1,0,0,1-.15-.2A1,1,0,0,0,69.85,142.5Z"/><path class="cls-6" d="M69.7,142.29a.67.67,0,0,1-.1-.23A.67.67,0,0,0,69.7,142.29Z"/><path class="cls-6" d="M69.86,142.5a1,1,0,0,0,.2.16A.78.78,0,0,1,69.86,142.5Z"/><path class="cls-6" d="M109.35,60.51h15a2,2,0,0,1,2,2v100a0,0,0,0,1,0,0h-19a0,0,0,0,1,0,0v-100a2,2,0,0,1,2-2Z" transform="translate(113.07 -49.96) rotate(45)"/><path class="cls-6" d="M70.82,158.76l16.68-4.47L74.07,140.86,69.6,157.54A1,1,0,0,0,70.82,158.76Z"/><path class="cls-7" d="M142.93,74.42h15a2,2,0,0,1,2,2v5a0,0,0,0,1,0,0h-19a0,0,0,0,1,0,0v-5A2,2,0,0,1,142.93,74.42Z" transform="translate(99.16 -83.55) rotate(45)"/><line class="cls-8" x1="139.83" y1="75.1" x2="153.26" y2="88.53"/><line class="cls-8" x1="74.42" y1="140.5" x2="87.85" y2="153.94"/><path class="cls-6" d="M70.07,158.66h0Z"/><path class="cls-6" d="M69.7,158.3h0Z"/><path class="cls-6" d="M69.86,158.5h0Z"/><path class="cls-6" d="M69.85,158.5a1,1,0,0,1-.15-.2A1,1,0,0,0,69.85,158.5Z"/><path class="cls-6" d="M69.7,158.29a.67.67,0,0,1-.1-.23A.67.67,0,0,0,69.7,158.29Z"/><path class="cls-6" d="M69.86,158.5a1,1,0,0,0,.2.16A.78.78,0,0,1,69.86,158.5Z"/><path class="cls-6" d="M70.3,158.76a.67.67,0,0,1-.23-.1A.67.67,0,0,0,70.3,158.76Z"/><polygon class="cls-6" points="87.5 154.29 74.06 140.86 71.03 152.18 76.18 157.33 87.5 154.29"/><path class="cls-7" d="M70.07,158.66a.67.67,0,0,0,.23.1.92.92,0,0,0,.52,0l5.36-1.43L71,152.18l-1.43,5.36a.92.92,0,0,0,0,.52.67.67,0,0,0,.1.23h0a1,1,0,0,0,.15.2h0a.78.78,0,0,0,.2.16Z"/><path class="cls-6" d="M70.3,142.76a.67.67,0,0,1-.23-.1A.67.67,0,0,0,70.3,142.76Z"/></svg>
