<svg width="117" height="181" viewBox="0 0 117 181" fill="none" xmlns="http://www.w3.org/2000/svg">
<path d="M85.001 12.3093C91.2861 21.5001 101.926 27.047 111.681 32.0479C111.681 32.0479 112.27 32.3134 112.145 32.6521C112.02 32.9908 111.413 32.7737 111.413 32.7737C103.077 30.5574 94.9229 27.4941 87.6506 22.674C105.608 80.4341 55.6562 144.23 1.1432 159.496C1.1432 159.496 0.393213 159.796 0.180448 159.237C-0.0323177 158.677 0.821845 158.243 0.821845 158.243C27.5801 147.183 54.8806 120.626 65.4046 101.302C80.4669 73.6258 83.2431 53.5459 83.5678 25.9919C83.4686 34.8478 74.813 43.4263 65.6239 45.2177C65.6239 45.2177 65.1348 45.3328 65.0212 45.1191C64.9076 44.9054 65.2443 44.5142 65.2443 44.5142C69.9328 39.0145 72.6146 32.3415 75.1931 25.7061C77.4905 20.6134 79.2257 15.2855 80.368 9.8166C80.4339 9.5188 80.5871 9.24738 80.8079 9.03701C81.0288 8.82665 81.3073 8.68688 81.608 8.63556C81.9086 8.58423 82.2178 8.62369 82.4959 8.74886C82.7741 8.87404 83.0086 9.07926 83.1696 9.33832L85.001 12.3093Z" fill="white"/>
</svg>
