<?xml version="1.0" encoding="UTF-8"?>
<!DOCTYPE svg PUBLIC "-//W3C//DTD SVG 1.1//EN" "http://www.w3.org/Graphics/SVG/1.1/DTD/svg11.dtd">
<!-- Creator: CorelDRAW 2021 (64-Bit) -->
<svg xmlns="http://www.w3.org/2000/svg" xml:space="preserve" width="1.7605in" height="1.43948in" version="1.1" style="shape-rendering:geometricPrecision; text-rendering:geometricPrecision; image-rendering:optimizeQuality; fill-rule:evenodd; clip-rule:evenodd"
viewBox="0 0 1952.49 1596.46"
 xmlns:xlink="http://www.w3.org/1999/xlink"
 xmlns:xodm="http://www.corel.com/coreldraw/odm/2003">
 <defs>
  <style type="text/css">
   <![CDATA[
    .fil11 {fill:black;fill-rule:nonzero}
    .fil6 {fill:#061A21;fill-rule:nonzero}
    .fil13 {fill:#22407A;fill-rule:nonzero}
    .fil4 {fill:#233862;fill-rule:nonzero}
    .fil9 {fill:#2B478B;fill-rule:nonzero}
    .fil2 {fill:#3362B0;fill-rule:nonzero}
    .fil1 {fill:#39BEE7;fill-rule:nonzero}
    .fil15 {fill:#BA4C43;fill-rule:nonzero}
    .fil16 {fill:#C65447;fill-rule:nonzero}
    .fil17 {fill:#C6DCF7;fill-rule:nonzero}
    .fil0 {fill:#D5E5FB;fill-rule:nonzero}
    .fil14 {fill:#D9E9F9;fill-rule:nonzero}
    .fil5 {fill:#E2915A;fill-rule:nonzero}
    .fil12 {fill:#E9F3FE;fill-rule:nonzero}
    .fil10 {fill:#ED975D;fill-rule:nonzero}
    .fil7 {fill:#FFB27D;fill-rule:nonzero}
    .fil8 {fill:white;fill-rule:nonzero}
    .fil3 {fill:white;fill-rule:nonzero}
   ]]>
  </style>
 </defs>
 <g id="Layer_x0020_1">
  <metadata id="CorelCorpID_0Corel-Layer"/>
  <g id="_1443567227856">
   <path class="fil0" d="M1809.6 854.69l-688.12 640.06 -354.26 -335.52c-66.31,64.93 -168.74,165.15 -271.78,265.72 -70.42,68.74 -127.42,124.27 -173.63,169.22l-321.8 -0.38c89.25,-84.48 448.6,-435.58 690.69,-672.84l74.02 -72.54 358.12 339.17 525.74 -489.02 161.03 156.14z"/>
   <polygon class="fil0" points="1563.33,621.53 1887.63,962.78 1952.49,573.31 "/>
   <path class="fil1" d="M1509.63 1105.1c0,-99.01 80.28,-179.29 179.28,-179.29 99.02,0 179.3,80.28 179.3,179.29 0,99.03 -80.28,179.3 -179.3,179.3 -99,0 -179.28,-80.28 -179.28,-179.3z"/>
   <path class="fil2" d="M1493.98 1105.1c0,-99.01 80.28,-179.29 179.3,-179.29 99,0 179.28,80.28 179.28,179.29 0,99.03 -80.28,179.3 -179.28,179.3 -99.02,0 -179.3,-80.28 -179.3,-179.3z"/>
   <path class="fil1" d="M1673.28 953.61c-84.71,0 -153.6,68.91 -153.6,153.61 0,84.71 68.89,153.61 153.6,153.61 84.71,0 153.6,-68.9 153.6,-153.61 0,-84.7 -68.89,-153.61 -153.6,-153.61zm0 316.96c-43.62,0 -84.66,-16.99 -115.51,-47.85 -30.85,-30.85 -47.85,-71.87 -47.85,-115.51 0,-43.64 16.99,-84.65 47.85,-115.51 30.85,-30.85 71.89,-47.83 115.51,-47.83 43.62,0 84.66,16.99 115.51,47.83 30.85,30.86 47.84,71.87 47.84,115.51 0,43.64 -16.99,84.66 -47.84,115.51 -30.85,30.86 -71.89,47.85 -115.51,47.85z"/>
   <path class="fil3" d="M1695.77 1154.64c0.4,-3.53 0.29,-6.69 -0.4,-9.49 -0.67,-2.8 -2,-5.42 -4.01,-7.87 -2,-2.45 -4.67,-4.8 -8.01,-7.08 -3.34,-2.27 -7.48,-4.58 -12.42,-6.96 -8.5,-4.15 -16.13,-8.37 -22.97,-12.61 -6.82,-4.25 -12.53,-8.9 -17.15,-13.96 -4.62,-5.06 -7.99,-10.74 -10.13,-17.02 -2.14,-6.29 -2.72,-13.56 -1.76,-21.78 0.86,-7.13 2.89,-13.48 6.12,-19.05 3.23,-5.56 7.45,-10.25 12.66,-14.06 5.21,-3.81 11.25,-6.69 18.11,-8.64 6.87,-1.95 14.43,-2.82 22.63,-2.61l3.2 -26.93 21.69 2.58 -3.26 27.31c7.64,1.92 14.45,4.81 20.41,8.67 5.96,3.85 10.85,8.51 14.67,13.99 3.85,5.47 6.57,11.73 8.15,18.78 1.58,7.03 1.9,14.74 0.91,23.13l-39.16 -4.64c1.2,-10.07 -0.14,-17.87 -4.01,-23.39 -3.9,-5.51 -9.56,-8.72 -17.07,-9.61 -4.06,-0.48 -7.61,-0.33 -10.69,0.45 -3.07,0.78 -5.69,2.06 -7.8,3.79 -2.14,1.75 -3.82,3.91 -5.02,6.49 -1.23,2.57 -2.03,5.41 -2.41,8.52 -0.37,3.1 -0.24,5.97 0.35,8.59 0.61,2.62 1.9,5.13 3.85,7.55 1.97,2.39 4.67,4.75 8.09,7.08 3.45,2.31 7.75,4.81 12.93,7.45 8.36,4.31 15.95,8.62 22.71,12.91 6.79,4.29 12.47,8.99 17.07,14.09 4.62,5.09 7.99,10.8 10.13,17.08 2.14,6.3 2.72,13.51 1.76,21.65 -0.88,7.37 -2.94,13.85 -6.23,19.41 -3.26,5.58 -7.51,10.22 -12.71,13.94 -5.18,3.72 -11.27,6.49 -18.22,8.3 -6.95,1.81 -14.51,2.61 -22.74,2.4l-2.96 25.03 -21.53 -2.55 2.94 -24.91c-7.4,-1.65 -14.45,-4.14 -21.16,-7.49 -6.68,-3.34 -12.47,-7.71 -17.31,-13.09 -4.86,-5.37 -8.5,-11.86 -10.87,-19.47 -2.41,-7.59 -3.02,-16.42 -1.82,-26.49l39.14 4.64c-0.69,5.95 -0.45,11.02 0.75,15.21 1.2,4.17 3.05,7.63 5.58,10.35 2.51,2.73 5.48,4.79 8.95,6.17 3.45,1.38 7.03,2.3 10.72,2.73 4.24,0.51 8.04,0.4 11.38,-0.31 3.34,-0.71 6.2,-1.9 8.58,-3.58 2.41,-1.66 4.3,-3.76 5.72,-6.27 1.39,-2.52 2.27,-5.33 2.65,-8.43z"/>
   <path class="fil4" d="M1119.74 598l-47.14 89.44 -24.17 -8.79 7.85 23.87 -47.27 142.37c0,0 -26.14,-180.89 110.73,-246.87z"/>
   <path class="fil4" d="M1041.11 677.07c0,0 -52.13,192.17 -57.14,375.53 0,0 43.22,15.08 111.15,3.14 68.26,-11.99 -54,-378.67 -54,-378.67z"/>
   <path class="fil5" d="M791.51 943.54c13.99,-0.26 33.7,1.47 40.19,-5.65 7.38,-8.06 16.08,-6.88 16.08,-6.88l-1.76 -9.23 -2.11 -11.01c0,0 -0.79,-1.01 -3.67,-0.97 0,0 -10.13,0.44 -14.97,-1.29 -11.78,-4.21 -58.66,23.87 -57.08,31.67 0.6,2.92 17.36,3.48 23.31,3.37z"/>
   <path class="fil4" d="M1046.98 673.31c0,0 -79.18,163.55 -103.68,181.1 -24.5,17.56 -111.86,55.52 -111.86,55.52 0,0 -2.28,5.44 -0.16,13.4 2.21,8.29 6.56,10.64 6.56,10.64 0,0 122.13,-10.9 150.53,-28.58 28.38,-17.68 91,-88.11 91,-88.11l-32.39 -143.97z"/>
   <path class="fil4" d="M1278.74 1590.29l46.87 0c5.9,-3.2 11.15,-10.53 12.82,-21.47 2.28,-15.1 19.2,-23.33 22.87,-35.68 3.65,-12.34 -15.1,-29.73 -15.1,-29.73l-3.14 -4.04 -3.26 -4.19 -31.11 7.33c0,0 -0.77,7.4 -1.23,16.84 -0.34,6.81 -0.52,14.68 -0.14,21.57 0.92,16.47 -4.6,34.2 -19.23,37.4 -10.82,2.37 -10.34,8.78 -9.35,11.97z"/>
   <path class="fil4" d="M1006.77 1590.29l107.17 0c5.16,-6.28 3.26,-29.5 2.48,-37.07 -0.16,-1.54 -0.27,-2.42 -0.27,-2.42 0,0 -36.59,-29.28 -41.62,-6.86 -0.15,0.7 -0.34,1.38 -0.54,2.07 -6.34,20.96 -34.74,30.49 -51.15,33.15 -10.66,1.73 -14.61,7.27 -16.06,11.13z"/>
   <path class="fil2" d="M1027.19 992.08c0,0 5.57,69.32 12.09,152.67 8.88,113.21 19.55,252.27 20.61,278.62 1.83,45.75 9.15,118.92 9.15,118.92 0,0 17.37,17.38 52.13,10.06 0,0 30.98,-104.46 39.84,-214.98 0.14,-1.81 0.27,-3.64 0.41,-5.46 8.23,-112.51 21.04,-349.43 21.04,-349.43l-155.28 9.61z"/>
   <path class="fil6" d="M1027.19 992.08c0,0 5.57,69.32 12.09,152.67l121.73 192.62c0.14,-1.81 0.27,-3.64 0.41,-5.46 8.23,-112.51 21.04,-349.43 21.04,-349.43l-155.28 9.61z"/>
   <path class="fil6" d="M1052.57 1000.3c0,0 100.16,251.1 166.02,369.1 65.86,118 86.44,150.93 86.44,150.93 0,0 37.73,-15.1 41.17,-25.38 0,0 -25.19,-227.81 -69.29,-283.35 -24.92,-31.38 -54.2,-125.55 -55.57,-158.47 -1.37,-32.94 -8.92,-98.11 -8.92,-98.11l-159.84 45.27z"/>
   <path class="fil7" d="M1077.5 634.27c39.14,12.35 106.87,-20.98 106.87,-20.98 0,0 -36.1,-27.08 -34.2,-83.4l-30.26 24.39 -20.57 16.57c0,0 0.09,9.76 2.34,26.88 0.41,3.12 0.89,6.49 1.45,10.1 0.45,2.87 -0.81,5.77 -3.29,7.3 -14.26,8.82 -22.35,19.15 -22.35,19.15z"/>
   <path class="fil8" d="M1022.88 997.85c1.18,0.97 2.54,1.56 4.11,1.56 14.7,-0.19 57.56,7.97 93.83,4.25 30.57,-2.94 57.64,-12 86.7,-25.02 3.86,-1.73 12.74,-6.48 12.54,-10.79 -0.13,-4.72 -0.6,-11.57 -1.19,-20.2 -2.05,-29.99 -5.64,-81.59 -2.14,-141.11 0.63,-11.08 0.96,-22.09 1,-32.9 0.3,-80.67 -15.69,-151.63 -47.84,-175.64 0,0 -22.42,12.58 -37.92,17.53 -15.2,4.86 -23.03,3.88 -30.91,-1.34 0,0 -15.35,7.62 -21.91,14.78 -15.19,16.56 -27.05,38.54 -34.88,70.09 -6.67,26.85 -12.92,66 -15.08,116.18 -0.97,22.74 -7.28,181.83 -6.29,182.62z"/>
   <path class="fil9" d="M1212.96 731.3l-43.09 -133.29c0,0 -103.44,39.01 -108.23,185.08 -1.88,33.27 -9.86,169.68 4.58,282.71 0,0 80.59,31.4 179.39,-30.56l-32.65 -303.93z"/>
   <path class="fil10" d="M1099.35 570.84c0,0 0.09,9.76 2.34,26.88 22.77,-3.9 48.62,-40.73 48.62,-40.73 -11.6,-3.35 -21.75,-3.95 -30.39,-2.72l-20.57 16.57z"/>
   <path class="fil7" d="M1082.39 569.8c0,0 70.51,11.71 77.12,-32.31 6.62,-44.01 20.17,-72.15 -24.56,-81.49 -44.74,-9.34 -56.03,6.14 -61.81,20.29 -5.78,14.16 -8.92,89.32 9.24,93.5z"/>
   <path class="fil4" d="M1391.74 1139.21l-143.94 20.5c-18.73,2.67 -36.24,-10.47 -38.91,-29.2l-8.89 -62.38c-2.65,-18.74 10.48,-36.25 29.21,-38.92l143.94 -20.51c18.73,-2.67 36.25,10.48 38.91,29.21l8.89 62.38c2.67,18.74 -10.47,36.25 -29.21,38.92z"/>
   <path class="fil9" d="M1335.43 1013.9l-51.42 7.34 -1.92 -13.47c-0.32,-2.31 1.3,-4.47 3.61,-4.8l12.91 -1.84 23.69 -3.38 6.39 -0.91c0.44,-0.06 0.87,-0.04 1.27,0.02 1.79,0.29 3.27,1.71 3.54,3.59l1.92 13.46zm-116.46 51.48l9 63.1c1.75,12.21 9.77,22.07 20.33,26.72 3.49,1.55 7.28,2.54 11.22,2.83 0,0 0,0 0.01,0l0.01 0c2.44,0.21 4.96,0.13 7.49,-0.23l143.68 -20.49c18.8,-2.68 31.99,-20.24 29.31,-39.05l-8.98 -63.11c-2.69,-18.8 -20.26,-31.99 -39.06,-29.31l-49.48 7.06 -1.92 -13.47c-0.88,-6.22 -6.67,-10.55 -12.88,-9.67l-5.43 0.77 -30.1 4.29 -7.48 1.07c-3,0.42 -5.67,2 -7.51,4.44 -1.82,2.45 -2.59,5.44 -2.17,8.44l1.92 13.47 -28.67 4.08c-1.14,0.16 -2.24,0.37 -3.32,0.64 -0.01,0.01 -0.02,0.01 -0.02,0.01l-0.01 0c-11.08,2.72 -19.81,10.7 -23.85,20.83l0 0.01c-2.15,5.41 -2.98,11.42 -2.11,17.57z"/>
   <path class="fil7" d="M1282.29 953.47c0,0 7.56,10.07 7.86,14.09 2.03,27.27 -10.44,31.04 21.83,46.19 0,0 13.77,5.25 14.01,-5.44 0.24,-10.69 -9.56,-10.86 -7.76,-25.84 2.06,-17.26 1.85,-17.43 -9.48,-26.44l-7.51 -12.41 -18.95 9.85z"/>
   <path class="fil9" d="M1301.52 961.18c-12.16,2.36 -25.33,1.41 -25.33,1.41 0,0 -36.08,-111.46 -40.73,-121.64 -4.64,-10.19 -107.17,-130.69 -107.17,-130.69l41.59 -112.25c0,0 24.39,14.28 50.18,58.77 31.85,54.96 66.87,143.48 73.09,157.86 18.61,43.01 25.07,139.45 25.07,139.45 0,0 -7.17,5.24 -16.71,7.11z"/>
   <path class="fil9" d="M1159.57 533.26c0,0 -7.23,-1.21 -6.06,-11.17 1.16,-9.96 1.14,-22.99 -6.96,-20.56 -8.1,2.43 -8.51,8.92 -11.83,5.13 -3.34,-3.79 -3.39,-19.75 -27.49,-20.86 -24.11,-1.11 -33.9,7.28 -45.11,2.35 -11.22,-4.93 -11.81,-21.9 -11.81,-21.9 0,0 3.19,6.06 8.01,7.99 0,0 -18.71,-25.58 2.95,-43.12 21.65,-17.54 43.73,-6.06 56.26,-5.3 27.6,1.67 45.44,3.33 54.45,21.47 9.02,18.14 5.3,68.52 -12.42,85.98z"/>
   <path class="fil7" d="M1294.21 965.45c0,0 -7.28,7.59 -7.74,10.75 -1.47,10.13 -4.86,14.51 -3.17,15.61 3.53,2.3 8.2,-5.21 10.42,-11.95 2.23,-6.72 0.48,-14.41 0.48,-14.41z"/>
   <path class="fil4" d="M1169.88 598l-47.13 89.44 -24.18 -8.79 7.85 23.87 -47.26 142.37c0,0 -26.14,-180.89 110.72,-246.87z"/>
   <path class="fil8" d="M1077.5 544.82c0,0 2.75,7.26 9.61,7.45 6.86,0.2 12.16,-6.47 12.16,-6.47 0,0 -14.89,-3.45 -21.77,-0.98z"/>
   <path class="fil11" d="M709.66 1219.58l143.13 -33.16c18.63,-4.32 30.35,-23.1 26.03,-41.72l-14.37 -62.03c-4.32,-18.63 -23.1,-30.34 -41.72,-26.01l-143.13 33.15c-18.64,4.32 -30.35,23.1 -26.03,41.72l14.37 62.04c4.32,18.63 23.09,30.33 41.72,26.01z"/>
   <path class="fil6" d="M713.93 1067.57c-0.43,-1.88 0.44,-3.75 2.03,-4.67 0.36,-0.22 0.76,-0.39 1.2,-0.48l6.35 -1.48 23.56 -5.45 12.83 -2.98c2.31,-0.53 4.63,0.91 5.16,3.22l3.11 13.38 -51.13 11.84 -3.11 -13.37zm123.24 3.63l0 -0.01c-7.51,-8.06 -18.64,-12.42 -30.07,-10.94l-0.01 0.01c-0.01,0 -0.02,0 -0.03,0 -1.11,0.14 -2.23,0.34 -3.37,0.6l-28.5 6.61 -3.1 -13.38c-0.69,-2.98 -2.52,-5.53 -5.13,-7.16 -2.62,-1.63 -5.71,-2.14 -8.69,-1.45l-7.44 1.72 -29.93 6.94 -5.39 1.24c-6.17,1.44 -10.06,7.63 -8.61,13.82l3.1 13.38 -49.2 11.4c-18.7,4.33 -30.46,23.18 -26.12,41.88l14.54 62.75c4.33,18.69 23.17,30.44 41.87,26.11l142.89 -33.09c2.52,-0.59 4.91,-1.44 7.14,-2.51l0.01 -0.01c0.01,0 0.01,0 0.02,0 3.59,-1.72 6.8,-4.02 9.53,-6.77 8.26,-8.25 12.23,-20.45 9.42,-32.6l-14.54 -62.75c-1.41,-6.11 -4.39,-11.48 -8.4,-15.79z"/>
   <path class="fil7" d="M743.29 990.47c0,0 -4.32,15.33 -2.83,20.21 10.05,33.11 27.44,54.77 -19.3,49.18 0,0 1.93,-1.92 -7.01,-18.76 -10.33,-19.43 -10.14,-19.71 -0.9,-35.53l3.2 -18.05 26.85 2.96z"/>
   <path class="fil7" d="M802.11 951.05c-14.11,-0.86 -31.3,-4.56 -37.58,-12.01 -7.11,-8.46 -14.2,-10.74 -14.2,-10.74l2.17 -9.24 2.59 -11.03c0,0 0.84,-0.97 3.73,-0.81 0,0 11.07,2.5 15.19,-0.68 4.1,-3.17 11.61,-1.24 16.25,1.83 5.88,3.9 13.82,3.27 13.63,5.19 0,0 -11.67,5.73 -10.58,6.7 10.69,9.48 38.82,13.26 37,20.65 -0.73,2.92 -22.18,10.5 -28.19,10.13z"/>
   <path class="fil7" d="M605.46 590.52l-0.04 7.68c0,0 2.08,23.98 -27.45,27.49 -29.54,3.51 -53.77,3.05 -52.97,-15.46 2.67,-14.33 7.43,-36.58 7.64,-48.44 0.06,-4.41 -0.24,-9.09 -1.05,-14.37l57.24 -1.14 16.85 2.75 -0.21 41.49z"/>
   <path class="fil5" d="M605.67 549.03l-0.21 41.49c-6.09,2.83 -12.94,4.55 -20.64,4.55 -26.3,0 -43.31,-19.29 -52.19,-33.29 0.06,-4.41 -0.24,-9.09 -1.05,-14.37l57.24 -1.14 16.85 2.75z"/>
   <path class="fil7" d="M527.19 538.21c6.64,35.74 52.76,34.57 72.7,32.32 5.61,-0.62 9.13,-1.34 9.13,-1.34 6.33,-1.69 9.85,-11.65 11.48,-24.7 3.26,-25.82 -0.85,-63.73 -5.21,-73.42 -6.56,-14.59 -18.94,-30.37 -65.38,-18.98 -46.46,11.4 -31.25,40.33 -22.73,86.13z"/>
   <path class="fil4" d="M489.44 1596.46l65.36 0c-0.49,-3.42 -2.15,-13.85 -5.21,-23.45 -1.07,-3.34 -2.3,-6.59 -3.7,-9.41 -6.36,-12.7 -46.73,-4.62 -46.73,-4.62 0,0 -3.76,3.22 -6.68,15.49 -1.3,5.41 -2.44,12.58 -3.04,22z"/>
   <path class="fil4" d="M686.93 1575.84c0.18,8.89 1.3,17.31 4.53,20.62l129.27 0c-1.64,-4.68 -6.29,-11.71 -19.57,-13.86 -15.08,-2.44 -38.59,-9.69 -52.31,-24.2 -4.89,-5.16 -8.53,-11.24 -10.12,-18.35 -6.09,-27.08 -50.29,8.3 -50.29,8.3 0,0 -1.78,14.26 -1.5,27.5z"/>
   <path class="fil9" d="M600.95 1283.13c1.8,9.92 2.95,18.05 3.25,23.88 4.11,80.16 67.47,263.44 78.81,267.71 17.53,6.62 45.16,-7.44 59.6,-12.05 5.99,-1.91 10.03,-7.95 8.7,-14.07 -31.38,-144.26 -42.92,-352 -47.11,-474.97 -2.12,-61.95 -12.75,-104.74 -12.75,-104.74 0,0 -154.55,-41.23 -155.47,10.92 -0.82,46.17 51.19,227.19 64.97,303.32z"/>
   <path class="fil4" d="M600.95 1283.13l103.25 -209.5c-2.12,-61.95 -12.75,-104.74 -12.75,-104.74 0,0 -154.55,-41.23 -155.47,10.92 -0.82,46.17 51.19,227.19 64.97,303.32z"/>
   <path class="fil9" d="M635.34 980l-81.7 592.14c0,0 -35.88,8.65 -63.78,1.74 0,0 -23.92,-314.93 -21.93,-391.06 2,-76.14 -17.16,-203.72 4.38,-217.79 21.54,-14.08 163.04,14.98 163.04,14.98z"/>
   <path class="fil4" d="M617.08 476.66c-12.76,4.02 -39.75,-0.08 -51.03,9.04 -11.28,9.14 -0.53,24.18 -13.42,29.55l-0.05 0.02c-2.61,1.08 -5.64,0.35 -7.41,-1.86 -3.58,-4.46 -8.52,-8.9 -13.03,-7.06 -3.7,1.52 -3.89,6.3 -2.25,10.96 1.37,3.91 0.99,8.3 -1.4,11.7 -1.02,1.47 -1.69,3.08 -1.41,4.71 1.07,5.9 4.01,13.57 5.09,17.5l0.29 4.12c0,0 -21.6,-23.38 -30.69,-43.06 -6.24,-13.5 -6.12,-63.96 24.42,-78.71 -0.13,-0.1 -0.23,-0.21 -0.29,-0.33 -0.66,-1.18 -2.5,-0.91 -2.5,-0.91 2.63,-1.18 6.7,-0.43 6.7,-0.43 -0.1,-0.06 0.07,-0.25 0.44,-0.53 0.53,-3.57 4.13,-6.12 4.13,-6.12 -1.22,1.76 -1.74,3.53 -1.95,4.82 8.02,-4.23 32.71,-13.59 52.28,-5.08 13.23,5.75 25.36,8.82 33.62,10.42 6.79,1.31 11.61,7.37 11.36,14.28 -0.37,9.7 -3.74,23.64 -12.88,26.97z"/>
   <path class="fil12" d="M518.03 620.52l18.81 403.59c0,0 156.99,2.57 152.51,-32.96 -4.48,-35.52 -56.58,-358.27 -56.58,-358.27l-114.73 -12.36z"/>
   <path class="fil13" d="M569.78 873.33c0,0 -7.97,107.8 -23.28,175.48 0,0 -91.61,4.86 -113.36,-30.52 0,0 17.21,-145.61 17.21,-175.16 0,-10.38 -0.79,-24.49 -2.07,-40.27 -1.9,-23.9 -4.86,-51.58 -7.66,-75.7 -3.89,-33.59 -7.48,-60.28 -7.48,-60.28l75.53 -61.38 61.1 267.82z"/>
   <path class="fil13" d="M751.56 1000.88c0,0 -17.09,10.7 -44.01,7.11 -9.79,24.03 -32.9,32.19 -32.9,30.01 0,-0.26 -5.19,-45.37 -11.32,-98.54 -0.6,-5.32 -1.21,-10.7 -1.85,-16.12 -0.05,-0.46 -0.11,-0.93 -0.16,-1.4 -1.03,-8.9 -2.06,-17.91 -3.1,-26.87 -7.38,-64.03 -14.46,-125.41 -14.46,-125.41 -16.06,-98.34 -29.67,-163.34 -29.67,-163.34 34.27,3.57 57.4,15.78 66.62,31.76 27.36,47.41 47.16,166 58.78,254.78 0.02,0.23 0.04,0.45 0.08,0.68 2,15.32 3.76,29.74 5.25,42.75 0.1,0.82 0.19,1.62 0.28,2.41 4.27,37.21 6.46,62.19 6.46,62.19z"/>
   <path class="fil8" d="M592.63 544.09c0,0 1.49,4.61 13.13,2.93 0,0 9.77,-1.41 9.04,-6.55 0,0 -9.81,-2.89 -22.16,3.62z"/>
   <path class="fil14" d="M513.58 605.03c-0.2,-3.85 18.05,-9.17 18.05,-9.17 0,0 20.89,28.95 55.29,29.45 0,0 -9.8,19.08 -21.36,24.02 0,0 -50.84,-21.43 -51.97,-44.3z"/>
   <path class="fil14" d="M586.92 624.63c0,0 18.22,-10.8 18.28,-22.52 0,0 11.77,-1.47 16.91,4.24 0,0 4.32,20.07 -1.41,31.73 0,0 -26.25,-4 -33.79,-13.45z"/>
   <path class="fil15" d="M574.54 622.89l24.72 -5.93c0,0 3.23,0.28 3.13,4.31 -0.08,4.03 -6.96,15.79 -9.99,16.73 -3.05,0.94 -23.7,-6.96 -17.85,-15.11z"/>
   <path class="fil12" d="M516.45 603.03c-0.19,-3.85 12.16,-11.78 12.16,-11.78 0,0 23.9,27.93 58.3,28.43 0,0 -9.8,19.08 -21.36,24.02 0,0 -47.96,-17.79 -49.1,-40.67z"/>
   <path class="fil12" d="M586.92 619.68c0,0 18.43,-9.77 18.5,-21.48 0,0 11.12,4.89 16.27,10.6 0,0 4.75,12.67 -0.98,24.33 0,0 -26.25,-4 -33.79,-13.45z"/>
   <path class="fil16" d="M632.09 958.11c-0.95,11.57 -5.38,22.4 -12.43,30.35l-11.08 12.5c-2.78,3.14 -7.1,2.77 -9.37,-0.81l-13.37 -20.96c-3.58,-5.62 -5.22,-12.77 -4.6,-19.95 1.43,-16 4.09,-46.82 6.27,-76.57 1.77,-24.1 3.23,-47.51 3.47,-61.74 0.72,-45.45 -5.23,-190.29 -5.23,-190.29l8.88 0.47c0,0 21.53,55.99 32.35,132.4 2.67,18.81 4.68,38.84 5.57,59.59 0,0 3.84,82.72 -0.46,135.03z"/>
   <path class="fil15" d="M632.09 958.11c-0.95,11.57 -5.38,22.4 -12.43,30.35l-11.08 12.5c-2.78,3.14 -7.1,2.77 -9.37,-0.81l-13.37 -20.96c-3.58,-5.62 -5.22,-12.77 -4.6,-19.95 1.43,-16 4.09,-46.82 6.27,-76.57 24.88,-34.12 35.29,-80.98 39.47,-119.17 2.67,18.81 4.68,38.84 5.57,59.59 0,0 3.84,82.72 -0.46,135.03z"/>
   <path class="fil4" d="M528.61 591.25c0,0 48.93,204.94 41.14,282.13 0,0 -17.99,-82.49 -61.29,-150.07 0,0 15.8,-13.89 14.94,-19.02 0,0 -11.72,-3.48 -23.11,-1.13 0,0 1.27,-88.34 8.35,-97.67 7.1,-9.34 19.95,-14.24 19.95,-14.24z"/>
   <path class="fil4" d="M605.41 598.2c-7.34,0.59 48.48,200.26 52.62,264.26 0,0 -4.9,-114.21 -4.42,-147.12 0,0 -20.32,-10.76 -20.32,-14.53 0,-3.78 21.67,-13.98 21.67,-13.98 0,0 -13.72,-70.33 -21.21,-78.08 -7.49,-7.75 -28.34,-10.54 -28.34,-10.54z"/>
   <path class="fil7" d="M707.59 1016.11c0,0 -3.39,4.58 -1.24,16.11 2.16,11.51 0.96,17.88 3.94,15.88 2.98,-1.98 9.14,-15.81 9.14,-15.81l-11.85 -16.17z"/>
   <path class="fil4" d="M563.8 904.91c-56.96,-8.5 -95.05,-61.73 -115.52,-102.04 -1.9,-23.9 -4.86,-51.58 -7.66,-75.7l13.33 -38.03 109.85 215.77z"/>
   <path class="fil4" d="M745.11 938.69c-11.34,2.62 -45.76,9.06 -81.77,0.77 -0.6,-5.32 -1.21,-10.7 -1.85,-16.12 -0.05,-0.46 -0.11,-0.93 -0.16,-1.4 1.18,-4.62 2.37,-9.24 3.55,-13.86 20.39,7.3 65.94,23.28 79.96,28.21 0.1,0.82 0.19,1.62 0.28,2.41z"/>
   <path class="fil13" d="M508.66 605.49c0.02,0.01 -50.05,6.32 -72.9,38.21 -22.85,31.89 26.22,205.59 128.04,261.2 48.98,26.76 190.32,32.78 190.32,32.78 0,0 7.78,0.77 10.85,-14.86 1.07,-5.46 0,-14.75 0,-14.75 0,0 -160.88,-60.32 -175.03,-71.93 -14.14,-11.63 -81.28,-230.65 -81.28,-230.65z"/>
   <path class="fil5" d="M825.28 908.5c0,0 -16.84,-4.22 -21.66,-5.24 -5.63,-1.19 -10.79,-5.43 -12.43,-3.43 -3.05,3.71 9.83,10.23 14.92,21.7 2.49,5.63 7.51,8.68 17.57,4.55 5.07,-2.08 9.11,-12.6 1.6,-17.57z"/>
   <path class="fil0" d="M1302.46 497.22c0,-40.37 32.73,-73.09 73.09,-73.09 40.37,0 73.09,32.72 73.09,73.09 0,40.37 -32.72,73.09 -73.09,73.09 -40.36,0 -73.09,-32.73 -73.09,-73.09z"/>
   <path class="fil8" d="M1352.09 467.9c0,-12.96 10.51,-23.46 23.46,-23.46 12.95,0 23.46,10.5 23.46,23.46 0,12.95 -10.51,23.46 -23.46,23.46 -12.95,0 -23.46,-10.51 -23.46,-23.46z"/>
   <path class="fil8" d="M1375.55 491.36c-22.67,0 -41.05,18.38 -41.05,41.05l82.11 0c0,-22.67 -18.38,-41.05 -41.06,-41.05z"/>
   <path class="fil17" d="M785.98 302.76c0,-27.23 22.08,-49.31 49.31,-49.31 27.24,0 49.31,22.08 49.31,49.31 0,27.23 -22.08,49.3 -49.31,49.3 -27.23,0 -49.31,-22.08 -49.31,-49.3z"/>
   <path class="fil8" d="M819.47 282.98c0,-8.74 7.09,-15.83 15.83,-15.83 8.74,0 15.82,7.09 15.82,15.83 0,8.74 -7.09,15.82 -15.82,15.82 -8.74,0 -15.83,-7.08 -15.83,-15.82z"/>
   <path class="fil8" d="M835.29 298.8c-15.3,0 -27.69,12.4 -27.69,27.7l55.38 0c0,-15.3 -12.4,-27.7 -27.7,-27.7z"/>
   <path class="fil0" d="M1186.88 55.19c0.7,-2.27 3.1,-3.54 5.37,-2.84 2.26,0.7 3.53,3.1 2.83,5.37 -0.69,2.27 -3.1,3.54 -5.36,2.84 -2.27,-0.69 -3.54,-3.1 -2.84,-5.37z"/>
   <path class="fil0" d="M1205.87 61.04c0.69,-2.27 3.1,-3.54 5.36,-2.84 2.26,0.69 3.54,3.1 2.84,5.37 -0.7,2.26 -3.1,3.54 -5.36,2.84 -2.27,-0.7 -3.54,-3.1 -2.84,-5.36z"/>
   <path class="fil0" d="M1227.94 72.32c-2.26,-0.69 -3.54,-3.1 -2.84,-5.36 0.71,-2.27 3.1,-3.54 5.37,-2.84 2.26,0.7 3.54,3.1 2.84,5.37 -0.7,2.27 -3.1,3.54 -5.37,2.84z"/>
   <path class="fil0" d="M1244.34 72.87c0.69,-2.27 3.1,-3.54 5.37,-2.84 2.26,0.7 3.53,3.1 2.83,5.37 -0.69,2.27 -3.1,3.54 -5.36,2.84 -2.26,-0.69 -3.54,-3.1 -2.84,-5.37z"/>
   <path class="fil0" d="M1263.33 78.71c0.7,-2.27 3.1,-3.54 5.36,-2.84 2.26,0.69 3.54,3.1 2.84,5.36 -0.7,2.27 -3.1,3.54 -5.37,2.84 -2.26,-0.69 -3.53,-3.1 -2.83,-5.36z"/>
   <path class="fil0" d="M1285.4 90c-2.26,-0.7 -3.54,-3.1 -2.84,-5.37 0.69,-2.27 3.1,-3.54 5.37,-2.84 2.26,0.7 3.54,3.1 2.84,5.36 -0.71,2.27 -3.1,3.54 -5.37,2.84z"/>
   <path class="fil0" d="M1301.02 90.31c0.69,-2.27 3.1,-3.54 5.37,-2.84 2.26,0.69 3.53,3.1 2.83,5.37 -0.69,2.27 -3.1,3.54 -5.36,2.84 -2.26,-0.7 -3.54,-3.1 -2.84,-5.36z"/>
   <path class="fil0" d="M1320.01 96.15c0.7,-2.27 3.1,-3.54 5.36,-2.84 2.26,0.7 3.54,3.1 2.84,5.36 -0.7,2.27 -3.1,3.54 -5.37,2.84 -2.27,-0.69 -3.54,-3.1 -2.84,-5.37z"/>
   <path class="fil0" d="M1342.08 107.44c-2.26,-0.7 -3.54,-3.1 -2.84,-5.37 0.7,-2.27 3.1,-3.54 5.37,-2.84 2.26,0.7 3.54,3.1 2.84,5.37 -0.69,2.27 -3.1,3.54 -5.37,2.84z"/>
   <path class="fil0" d="M1358.48 107.99c0.7,-2.27 3.1,-3.54 5.36,-2.84 2.27,0.69 3.54,3.1 2.84,5.37 -0.7,2.26 -3.1,3.53 -5.36,2.84 -2.26,-0.7 -3.54,-3.1 -2.84,-5.37z"/>
   <path class="fil0" d="M1377.47 113.83c0.69,-2.27 3.1,-3.54 5.36,-2.84 2.26,0.7 3.54,3.1 2.84,5.37 -0.7,2.27 -3.1,3.54 -5.37,2.84 -2.26,-0.7 -3.53,-3.1 -2.83,-5.37z"/>
   <path class="fil0" d="M1399.54 125.11c-2.26,-0.7 -3.54,-3.1 -2.84,-5.37 0.69,-2.27 3.1,-3.54 5.37,-2.84 2.26,0.69 3.53,3.1 2.83,5.37 -0.7,2.26 -3.1,3.54 -5.36,2.84z"/>
   <path class="fil0" d="M1415.99 125.69c0.7,-2.27 3.1,-3.54 5.36,-2.84 2.26,0.69 3.54,3.1 2.84,5.36 -0.7,2.27 -3.1,3.54 -5.37,2.84 -2.26,-0.7 -3.53,-3.1 -2.83,-5.36z"/>
   <path class="fil0" d="M1434.97 131.52c0.7,-2.27 3.1,-3.54 5.36,-2.84 2.27,0.7 3.54,3.1 2.84,5.37 -0.7,2.27 -3.1,3.54 -5.36,2.84 -2.26,-0.7 -3.54,-3.1 -2.84,-5.37z"/>
   <path class="fil0" d="M1457.05 142.81c-2.27,-0.7 -3.54,-3.1 -2.84,-5.37 0.7,-2.26 3.1,-3.54 5.37,-2.84 2.27,0.69 3.53,3.1 2.83,5.37 -0.68,2.27 -3.09,3.54 -5.35,2.84z"/>
   <path class="fil0" d="M1473.44 143.36c0.7,-2.27 3.09,-3.54 5.35,-2.84 2.27,0.7 3.56,3.1 2.86,5.37 -0.7,2.27 -3.11,3.54 -5.38,2.84 -2.27,-0.69 -3.53,-3.1 -2.83,-5.36z"/>
   <path class="fil0" d="M1492.44 149.2c0.68,-2.27 3.09,-3.54 5.35,-2.84 2.27,0.7 3.53,3.1 2.83,5.37 -0.7,2.26 -3.09,3.54 -5.36,2.84 -2.27,-0.69 -3.53,-3.1 -2.83,-5.36z"/>
   <path class="fil0" d="M1514.49 160.49c-2.27,-0.7 -3.53,-3.1 -2.83,-5.37 0.7,-2.27 3.09,-3.54 5.36,-2.84 2.27,0.7 3.53,3.1 2.86,5.37 -0.7,2.27 -3.11,3.54 -5.38,2.84z"/>
   <path class="fil0" d="M1530.12 160.8c0.7,-2.27 3.09,-3.54 5.38,-2.84 2.24,0.7 3.53,3.1 2.83,5.37 -0.7,2.27 -3.09,3.54 -5.38,2.84 -2.24,-0.7 -3.53,-3.1 -2.83,-5.37z"/>
   <path class="fil0" d="M1549.11 166.64c0.7,-2.27 3.09,-3.54 5.36,-2.84 2.27,0.7 3.53,3.1 2.85,5.37 -0.7,2.27 -3.11,3.54 -5.38,2.84 -2.27,-0.69 -3.53,-3.1 -2.83,-5.36z"/>
   <path class="fil0" d="M1571.19 177.92c-2.27,-0.7 -3.55,-3.1 -2.85,-5.37 0.7,-2.27 3.11,-3.54 5.35,-2.84 2.27,0.69 3.56,3.1 2.86,5.36 -0.7,2.27 -3.11,3.54 -5.36,2.84z"/>
   <path class="fil0" d="M1587.57 178.48c0.7,-2.27 3.11,-3.54 5.38,-2.84 2.27,0.69 3.53,3.1 2.83,5.37 -0.68,2.27 -3.09,3.54 -5.35,2.84 -2.27,-0.7 -3.56,-3.1 -2.86,-5.37z"/>
   <path class="fil0" d="M1606.56 184.32c0.7,-2.27 3.11,-3.54 5.36,-2.84 2.27,0.7 3.55,3.1 2.85,5.37 -0.7,2.27 -3.11,3.54 -5.35,2.84 -2.29,-0.69 -3.56,-3.1 -2.86,-5.36z"/>
   <path class="fil0" d="M1628.64 195.6c-2.27,-0.7 -3.53,-3.1 -2.85,-5.37 0.7,-2.27 3.11,-3.54 5.38,-2.84 2.27,0.69 3.53,3.1 2.83,5.36 -0.7,2.27 -3.09,3.54 -5.36,2.84z"/>
   <path class="fil0" d="M1426.76 422.44c-1.91,-1.4 -2.33,-4.09 -0.92,-6 1.41,-1.91 4.09,-2.33 6.01,-0.93 1.91,1.4 2.33,4.09 0.92,6 -1.41,1.91 -4.09,2.33 -6.01,0.93z"/>
   <path class="fil0" d="M1438.51 406.41c-1.91,-1.4 -2.33,-4.09 -0.92,-6 1.39,-1.91 4.08,-2.33 5.99,-0.92 1.92,1.4 2.33,4.08 0.93,6 -1.41,1.91 -4.1,2.33 -6,0.93z"/>
   <path class="fil0" d="M1456.4 389.25c-1.4,1.91 -4.1,2.33 -6,0.93 -1.91,-1.4 -2.33,-4.09 -0.92,-6 1.39,-1.91 4.09,-2.33 6,-0.93 1.92,1.4 2.33,4.09 0.93,6z"/>
   <path class="fil0" d="M1462.28 373.94c-1.9,-1.4 -2.31,-4.09 -0.91,-6 1.38,-1.91 4.1,-2.32 5.99,-0.93 1.92,1.4 2.34,4.09 0.93,6 -1.4,1.91 -4.09,2.33 -6.01,0.93z"/>
   <path class="fil0" d="M1474.03 357.92c-1.9,-1.4 -2.32,-4.08 -0.94,-6 1.41,-1.91 4.12,-2.33 6.01,-0.93 1.92,1.4 2.34,4.09 0.93,6 -1.4,1.91 -4.09,2.33 -6.01,0.93z"/>
   <path class="fil0" d="M1491.92 340.76c-1.41,1.91 -4.1,2.33 -5.99,0.93 -1.92,-1.4 -2.34,-4.09 -0.93,-6 1.4,-1.91 4.1,-2.33 6.01,-0.93 1.9,1.4 2.31,4.09 0.91,6z"/>
   <path class="fil0" d="M1497.84 325.41c-1.92,-1.4 -2.31,-4.09 -0.91,-6 1.41,-1.91 4.1,-2.33 5.99,-0.93 1.92,1.4 2.34,4.09 0.93,6 -1.41,1.92 -4.1,2.33 -6.01,0.93z"/>
   <path class="fil0" d="M1509.58 309.39c-1.92,-1.4 -2.31,-4.09 -0.91,-6 1.41,-1.91 4.07,-2.33 5.99,-0.93 1.92,1.4 2.34,4.09 0.93,6 -1.4,1.91 -4.09,2.33 -6.01,0.93z"/>
   <path class="fil0" d="M1527.48 292.22c-1.41,1.92 -4.1,2.33 -6.01,0.93 -1.9,-1.4 -2.32,-4.09 -0.91,-6 1.4,-1.91 4.09,-2.33 6.01,-0.93 1.9,1.4 2.31,4.08 0.91,6z"/>
   <path class="fil0" d="M1533.37 276.92c-1.92,-1.4 -2.32,-4.09 -0.94,-6 1.41,-1.92 4.1,-2.33 6.01,-0.93 1.92,1.4 2.34,4.09 0.93,6 -1.4,1.91 -4.09,2.32 -6.01,0.93z"/>
   <path class="fil0" d="M1545.11 260.89c-1.92,-1.4 -2.34,-4.09 -0.93,-6 1.4,-1.91 4.09,-2.32 6.01,-0.92 1.92,1.4 2.32,4.09 0.94,6 -1.41,1.91 -4.12,2.32 -6.01,0.93z"/>
   <path class="fil0" d="M1563.01 243.73c-1.4,1.91 -4.09,2.33 -6.01,0.93 -1.9,-1.4 -2.31,-4.09 -0.91,-6 1.41,-1.92 4.07,-2.33 5.99,-0.93 1.92,1.4 2.34,4.09 0.93,6z"/>
   <path class="fil0" d="M1568.41 229.08c-1.9,-1.41 -2.32,-4.09 -0.91,-6 1.4,-1.91 4.09,-2.32 5.99,-0.93 1.92,1.4 2.34,4.09 0.93,6 -1.4,1.91 -4.09,2.33 -6.01,0.93z"/>
   <path class="fil0" d="M1580.15 213.05c-1.92,-1.4 -2.32,-4.09 -0.91,-6 1.4,-1.91 4.07,-2.33 5.99,-0.93 1.92,1.4 2.34,4.09 0.94,6 -1.41,1.92 -4.1,2.33 -6.01,0.93z"/>
   <path class="fil0" d="M1598.05 195.89c-1.4,1.91 -4.09,2.33 -5.99,0.93 -1.92,-1.4 -2.34,-4.09 -0.94,-6 1.41,-1.91 4.1,-2.32 6.01,-0.93 1.9,1.4 2.31,4.09 0.91,6z"/>
   <path class="fil0" d="M1603.94 180.58c-1.92,-1.4 -2.31,-4.09 -0.93,-6 1.4,-1.91 4.09,-2.33 6.01,-0.93 1.92,1.4 2.34,4.09 0.93,6 -1.43,1.91 -4.1,2.33 -6.01,0.93z"/>
   <path class="fil0" d="M1615.68 164.56c-1.92,-1.41 -2.34,-4.09 -0.93,-6 1.4,-1.92 4.1,-2.33 6.01,-0.93 1.92,1.4 2.31,4.09 0.93,6 -1.43,1.91 -4.09,2.33 -6.01,0.93z"/>
   <path class="fil0" d="M1633.58 147.4c-1.41,1.91 -4.1,2.33 -6.01,0.93 -1.9,-1.4 -2.32,-4.09 -0.91,-6 1.4,-1.91 4.07,-2.32 5.99,-0.93 1.92,1.4 2.34,4.09 0.94,6z"/>
   <path class="fil0" d="M1462.28 489.71c-0.37,-2.34 1.22,-4.55 3.55,-4.93 2.34,-0.38 4.54,1.2 4.91,3.54 0.4,2.34 -1.19,4.55 -3.53,4.93 -2.34,0.38 -4.54,-1.2 -4.94,-3.54z"/>
   <path class="fil0" d="M1481.89 486.5c-0.38,-2.34 1.21,-4.55 3.55,-4.93 2.34,-0.38 4.54,1.21 4.91,3.54 0.4,2.34 -1.19,4.55 -3.53,4.93 -2.34,0.38 -4.54,-1.21 -4.93,-3.54z"/>
   <path class="fil0" d="M1506.68 486.78c-2.34,0.38 -4.54,-1.2 -4.93,-3.54 -0.38,-2.34 1.21,-4.55 3.55,-4.93 2.34,-0.38 4.54,1.2 4.93,3.54 0.38,2.34 -1.21,4.55 -3.55,4.93z"/>
   <path class="fil0" d="M1521.6 479.98c-0.38,-2.34 1.22,-4.55 3.55,-4.93 2.34,-0.38 4.56,1.2 4.94,3.54 0.37,2.34 -1.22,4.55 -3.56,4.93 -2.34,0.38 -4.54,-1.2 -4.93,-3.54z"/>
   <path class="fil0" d="M1541.2 476.77c-0.38,-2.34 1.22,-4.55 3.55,-4.93 2.34,-0.38 4.54,1.21 4.94,3.54 0.38,2.34 -1.22,4.55 -3.55,4.93 -2.34,0.38 -4.54,-1.21 -4.94,-3.54z"/>
   <path class="fil0" d="M1566 477.06c-2.34,0.38 -4.54,-1.2 -4.94,-3.54 -0.37,-2.34 1.22,-4.55 3.56,-4.93 2.34,-0.38 4.54,1.2 4.93,3.54 0.38,2.34 -1.21,4.55 -3.55,4.93z"/>
   <path class="fil0" d="M1580.99 470.25c-0.4,-2.34 1.19,-4.55 3.53,-4.93 2.34,-0.38 4.54,1.21 4.93,3.54 0.38,2.34 -1.19,4.55 -3.53,4.93 -2.34,0.38 -4.56,-1.2 -4.93,-3.54z"/>
   <path class="fil0" d="M1600.6 467.03c-0.4,-2.34 1.19,-4.55 3.53,-4.93 2.34,-0.38 4.54,1.21 4.93,3.54 0.38,2.34 -1.19,4.55 -3.53,4.93 -2.36,0.38 -4.56,-1.21 -4.93,-3.55z"/>
   <path class="fil0" d="M1625.39 467.32c-2.37,0.38 -4.56,-1.2 -4.94,-3.54 -0.4,-2.34 1.19,-4.55 3.53,-4.93 2.34,-0.38 4.54,1.21 4.94,3.55 0.37,2.34 -1.2,4.55 -3.53,4.93z"/>
   <path class="fil0" d="M1640.31 460.52c-0.4,-2.34 1.2,-4.55 3.53,-4.93 2.34,-0.38 4.56,1.21 4.94,3.54 0.4,2.34 -1.2,4.55 -3.53,4.93 -2.36,0.38 -4.56,-1.2 -4.94,-3.54z"/>
   <path class="fil0" d="M1659.92 457.31c-0.4,-2.34 1.19,-4.55 3.53,-4.93 2.34,-0.38 4.56,1.21 4.93,3.54 0.4,2.34 -1.19,4.55 -3.55,4.93 -2.34,0.38 -4.54,-1.21 -4.91,-3.55z"/>
   <path class="fil0" d="M1684.71 457.6c-2.36,0.38 -4.56,-1.2 -4.93,-3.54 -0.4,-2.34 1.19,-4.55 3.53,-4.93 2.34,-0.38 4.56,1.2 4.93,3.54 0.4,2.34 -1.19,4.55 -3.53,4.93z"/>
   <path class="fil0" d="M1698.84 450.93c-0.38,-2.34 1.19,-4.55 3.53,-4.93 2.34,-0.38 4.56,1.2 4.93,3.54 0.38,2.34 -1.19,4.55 -3.55,4.93 -2.34,0.38 -4.54,-1.2 -4.91,-3.54z"/>
   <path class="fil0" d="M1718.44 447.72c-0.37,-2.34 1.19,-4.55 3.53,-4.93 2.34,-0.38 4.56,1.21 4.94,3.54 0.37,2.34 -1.22,4.55 -3.56,4.93 -2.31,0.38 -4.54,-1.2 -4.91,-3.54z"/>
   <path class="fil0" d="M1743.21 448.01c-2.31,0.38 -4.54,-1.21 -4.91,-3.54 -0.37,-2.34 1.2,-4.55 3.53,-4.93 2.34,-0.38 4.56,1.2 4.94,3.54 0.37,2.34 -1.22,4.55 -3.56,4.93z"/>
   <path class="fil0" d="M1758.16 441.21c-0.38,-2.34 1.19,-4.55 3.53,-4.93 2.34,-0.38 4.56,1.2 4.93,3.54 0.38,2.34 -1.22,4.55 -3.55,4.93 -2.32,0.38 -4.54,-1.2 -4.91,-3.54z"/>
   <path class="fil0" d="M1777.76 437.99c-0.38,-2.34 1.19,-4.55 3.53,-4.93 2.34,-0.38 4.56,1.21 4.93,3.54 0.38,2.34 -1.21,4.55 -3.53,4.93 -2.34,0.38 -4.56,-1.2 -4.93,-3.54z"/>
   <path class="fil0" d="M1802.56 438.28c-2.34,0.38 -4.56,-1.2 -4.94,-3.54 -0.38,-2.34 1.19,-4.55 3.53,-4.93 2.34,-0.38 4.56,1.2 4.93,3.54 0.38,2.34 -1.21,4.55 -3.53,4.93z"/>
   <path class="fil0" d="M1349.47 411.41c-2.26,0.72 -4.68,-0.52 -5.39,-2.78 -0.73,-2.26 0.52,-4.68 2.78,-5.4 2.26,-0.72 4.68,0.52 5.39,2.78 0.73,2.26 -0.52,4.68 -2.78,5.4z"/>
   <path class="fil0" d="M1343.42 392.49c-2.26,0.72 -4.68,-0.52 -5.39,-2.78 -0.73,-2.26 0.51,-4.68 2.78,-5.4 2.26,-0.72 4.67,0.52 5.39,2.78 0.73,2.26 -0.52,4.67 -2.78,5.4z"/>
   <path class="fil0" d="M1340.08 367.92c0.72,2.26 -0.53,4.67 -2.79,5.4 -2.25,0.72 -4.68,-0.52 -5.39,-2.78 -0.72,-2.26 0.52,-4.68 2.79,-5.4 2.25,-0.72 4.67,0.52 5.4,2.78z"/>
   <path class="fil0" d="M1331.16 354.15c-2.26,0.72 -4.68,-0.52 -5.39,-2.78 -0.73,-2.26 0.52,-4.67 2.78,-5.39 2.26,-0.72 4.68,0.52 5.39,2.78 0.73,2.26 -0.52,4.67 -2.78,5.39z"/>
   <path class="fil0" d="M1325.12 335.23c-2.27,0.72 -4.68,-0.52 -5.39,-2.79 -0.73,-2.26 0.51,-4.67 2.78,-5.39 2.26,-0.72 4.67,0.52 5.39,2.78 0.72,2.26 -0.53,4.67 -2.78,5.4z"/>
   <path class="fil0" d="M1321.77 310.66c0.72,2.26 -0.52,4.68 -2.79,5.4 -2.25,0.72 -4.66,-0.52 -5.39,-2.78 -0.72,-2.26 0.52,-4.67 2.79,-5.4 2.25,-0.72 4.66,0.53 5.39,2.78z"/>
   <path class="fil0" d="M1312.84 296.84c-2.25,0.72 -4.66,-0.52 -5.39,-2.78 -0.72,-2.26 0.52,-4.67 2.79,-5.4 2.25,-0.72 4.66,0.52 5.4,2.78 0.72,2.26 -0.53,4.68 -2.79,5.4z"/>
   <path class="fil0" d="M1306.79 277.92c-2.25,0.72 -4.68,-0.52 -5.4,-2.78 -0.72,-2.26 0.53,-4.68 2.79,-5.4 2.25,-0.72 4.66,0.52 5.39,2.78 0.72,2.26 -0.52,4.68 -2.79,5.4z"/>
   <path class="fil0" d="M1303.45 253.36c0.72,2.26 -0.53,4.67 -2.78,5.39 -2.27,0.72 -4.68,-0.52 -5.4,-2.78 -0.73,-2.26 0.52,-4.68 2.78,-5.4 2.26,-0.72 4.68,0.52 5.4,2.78z"/>
   <path class="fil0" d="M1294.53 239.58c-2.25,0.72 -4.67,-0.52 -5.4,-2.78 -0.72,-2.26 0.53,-4.68 2.79,-5.4 2.25,-0.72 4.66,0.52 5.39,2.78 0.72,2.26 -0.52,4.67 -2.79,5.39z"/>
   <path class="fil0" d="M1288.49 220.66c-2.25,0.72 -4.67,-0.52 -5.4,-2.78 -0.72,-2.26 0.52,-4.67 2.79,-5.4 2.25,-0.72 4.66,0.52 5.39,2.78 0.72,2.26 -0.52,4.68 -2.79,5.4z"/>
   <path class="fil0" d="M1285.14 196.1c0.73,2.26 -0.52,4.68 -2.78,5.4 -2.26,0.72 -4.68,-0.52 -5.39,-2.78 -0.73,-2.26 0.52,-4.67 2.78,-5.4 2.26,-0.72 4.68,0.52 5.39,2.78z"/>
   <path class="fil0" d="M1276.48 183.09c-2.25,0.72 -4.66,-0.52 -5.4,-2.78 -0.72,-2.26 0.53,-4.68 2.79,-5.4 2.25,-0.72 4.66,0.52 5.39,2.78 0.72,2.26 -0.52,4.68 -2.79,5.4z"/>
   <path class="fil0" d="M1270.42 164.18c-2.25,0.72 -4.67,-0.52 -5.39,-2.79 -0.72,-2.26 0.52,-4.67 2.78,-5.39 2.26,-0.72 4.67,0.52 5.4,2.78 0.72,2.26 -0.52,4.67 -2.79,5.4z"/>
   <path class="fil0" d="M1267.08 139.61c0.73,2.26 -0.52,4.67 -2.78,5.4 -2.26,0.72 -4.67,-0.52 -5.39,-2.79 -0.73,-2.26 0.52,-4.67 2.78,-5.39 2.27,-0.72 4.68,0.52 5.39,2.78z"/>
   <path class="fil0" d="M1258.17 125.84c-2.25,0.72 -4.67,-0.53 -5.4,-2.79 -0.72,-2.26 0.52,-4.67 2.79,-5.39 2.25,-0.72 4.66,0.52 5.39,2.78 0.72,2.26 -0.52,4.67 -2.79,5.4z"/>
   <path class="fil0" d="M1252.12 106.91c-2.25,0.72 -4.67,-0.52 -5.39,-2.78 -0.72,-2.26 0.53,-4.67 2.79,-5.4 2.25,-0.72 4.66,0.52 5.39,2.78 0.72,2.26 -0.52,4.68 -2.79,5.4z"/>
   <path class="fil0" d="M1248.78 82.35c0.73,2.26 -0.52,4.68 -2.78,5.4 -2.26,0.72 -4.67,-0.52 -5.39,-2.78 -0.73,-2.26 0.52,-4.67 2.78,-5.4 2.26,-0.72 4.68,0.52 5.39,2.78z"/>
   <path class="fil0" d="M862.75 278.69c-1.35,-1.95 -0.86,-4.62 1.1,-5.97 1.95,-1.34 4.62,-0.86 5.97,1.09 1.34,1.96 0.86,4.63 -1.09,5.97 -1.95,1.35 -4.62,0.86 -5.97,-1.09z"/>
   <path class="fil0" d="M879.1 267.4c-1.34,-1.95 -0.85,-4.62 1.1,-5.97 1.94,-1.35 4.62,-0.86 5.96,1.1 1.35,1.95 0.86,4.62 -1.09,5.97 -1.95,1.34 -4.62,0.86 -5.97,-1.1z"/>
   <path class="fil0" d="M901.64 257.07c-1.95,1.34 -4.62,0.86 -5.97,-1.1 -1.35,-1.95 -0.86,-4.62 1.09,-5.97 1.95,-1.35 4.62,-0.86 5.97,1.1 1.34,1.95 0.86,4.62 -1.1,5.97z"/>
   <path class="fil0" d="M912.23 244.54c-1.35,-1.95 -0.86,-4.62 1.09,-5.97 1.94,-1.35 4.62,-0.86 5.96,1.09 1.35,1.95 0.86,4.63 -1.09,5.97 -1.96,1.34 -4.63,0.86 -5.96,-1.1z"/>
   <path class="fil0" d="M928.58 233.26c-1.35,-1.95 -0.86,-4.63 1.09,-5.97 1.95,-1.34 4.62,-0.86 5.97,1.1 1.34,1.95 0.86,4.62 -1.09,5.97 -1.96,1.35 -4.62,0.86 -5.97,-1.09z"/>
   <path class="fil0" d="M951.11 222.92c-1.95,1.35 -4.62,0.86 -5.97,-1.09 -1.34,-1.95 -0.85,-4.62 1.1,-5.97 1.94,-1.34 4.62,-0.86 5.96,1.1 1.35,1.95 0.86,4.62 -1.09,5.97z"/>
   <path class="fil0" d="M961.74 210.37c-1.35,-1.95 -0.86,-4.62 1.09,-5.97 1.95,-1.34 4.62,-0.86 5.97,1.1 1.34,1.95 0.86,4.62 -1.09,5.97 -1.95,1.34 -4.63,0.86 -5.97,-1.1z"/>
   <path class="fil0" d="M978.08 199.08c-1.34,-1.95 -0.84,-4.62 1.1,-5.97 1.95,-1.34 4.63,-0.86 5.97,1.1 1.35,1.95 0.86,4.62 -1.09,5.97 -1.96,1.34 -4.62,0.86 -5.98,-1.1z"/>
   <path class="fil0" d="M1000.63 188.74c-1.95,1.35 -4.62,0.86 -5.97,-1.09 -1.35,-1.95 -0.86,-4.62 1.1,-5.97 1.95,-1.34 4.62,-0.86 5.97,1.1 1.34,1.95 0.86,4.62 -1.09,5.97z"/>
   <path class="fil0" d="M1011.21 176.22c-1.34,-1.95 -0.86,-4.62 1.1,-5.97 1.94,-1.35 4.62,-0.86 5.96,1.09 1.35,1.95 0.86,4.63 -1.1,5.97 -1.95,1.35 -4.62,0.86 -5.97,-1.09z"/>
   <path class="fil0" d="M1027.56 164.93c-1.35,-1.95 -0.86,-4.62 1.1,-5.97 1.95,-1.34 4.62,-0.86 5.97,1.09 1.34,1.95 0.86,4.63 -1.1,5.97 -1.95,1.34 -4.63,0.86 -5.97,-1.1z"/>
   <path class="fil0" d="M1050.09 154.6c-1.95,1.34 -4.62,0.86 -5.97,-1.1 -1.34,-1.95 -0.85,-4.62 1.1,-5.97 1.95,-1.35 4.63,-0.86 5.97,1.09 1.35,1.95 0.86,4.63 -1.1,5.97z"/>
   <path class="fil0" d="M1060.02 142.53c-1.34,-1.95 -0.86,-4.62 1.1,-5.97 1.95,-1.34 4.62,-0.86 5.97,1.1 1.35,1.95 0.86,4.62 -1.1,5.97 -1.95,1.34 -4.62,0.86 -5.97,-1.1z"/>
   <path class="fil0" d="M1076.37 131.25c-1.35,-1.95 -0.86,-4.63 1.1,-5.97 1.95,-1.34 4.62,-0.86 5.96,1.1 1.35,1.95 0.86,4.62 -1.09,5.97 -1.95,1.34 -4.62,0.86 -5.96,-1.09z"/>
   <path class="fil0" d="M1098.91 120.91c-1.96,1.35 -4.62,0.86 -5.98,-1.09 -1.35,-1.95 -0.86,-4.63 1.1,-5.97 1.95,-1.34 4.62,-0.86 5.97,1.1 1.35,1.95 0.86,4.62 -1.09,5.97z"/>
   <path class="fil0" d="M1109.5 108.39c-1.35,-1.96 -0.86,-4.63 1.09,-5.97 1.95,-1.35 4.62,-0.86 5.96,1.1 1.35,1.95 0.86,4.62 -1.1,5.97 -1.94,1.34 -4.62,0.86 -5.96,-1.09z"/>
   <path class="fil0" d="M1125.84 97.1c-1.34,-1.95 -0.86,-4.62 1.09,-5.97 1.95,-1.34 4.62,-0.86 5.97,1.09 1.34,1.96 0.86,4.62 -1.09,5.97 -1.95,1.34 -4.62,0.86 -5.97,-1.1z"/>
   <path class="fil0" d="M1148.37 86.76c-1.95,1.34 -4.62,0.85 -5.96,-1.1 -1.35,-1.95 -0.86,-4.62 1.1,-5.97 1.95,-1.34 4.62,-0.86 5.96,1.1 1.35,1.95 0.86,4.62 -1.1,5.97z"/>
   <path class="fil0" d="M1683.47 219.99c1.71,-1.64 4.42,-1.58 6.08,0.13 1.64,1.71 1.57,4.43 -0.14,6.07 -1.71,1.64 -4.42,1.58 -6.06,-0.13 -1.66,-1.71 -1.59,-4.43 0.11,-6.07z"/>
   <path class="fil0" d="M1697.2 234.33c1.73,-1.64 4.44,-1.58 6.08,0.13 1.64,1.72 1.59,4.43 -0.14,6.07 -1.71,1.64 -4.42,1.58 -6.06,-0.13 -1.64,-1.72 -1.59,-4.43 0.12,-6.07z"/>
   <path class="fil0" d="M1711 254.93c-1.64,-1.71 -1.59,-4.43 0.14,-6.07 1.71,-1.64 4.42,-1.58 6.06,0.13 1.64,1.71 1.59,4.43 -0.11,6.06 -1.73,1.64 -4.44,1.58 -6.08,-0.13z"/>
   <path class="fil0" d="M1725.06 263.39c1.71,-1.64 4.42,-1.58 6.06,0.13 1.64,1.71 1.59,4.43 -0.12,6.07 -1.71,1.64 -4.44,1.58 -6.08,-0.13 -1.64,-1.71 -1.57,-4.43 0.14,-6.07z"/>
   <path class="fil0" d="M1738.81 277.74c1.69,-1.64 4.42,-1.58 6.06,0.13 1.64,1.71 1.57,4.43 -0.14,6.07 -1.71,1.64 -4.42,1.58 -6.06,-0.13 -1.64,-1.71 -1.59,-4.43 0.14,-6.07z"/>
   <path class="fil0" d="M1752.59 298.34c-1.64,-1.71 -1.59,-4.43 0.14,-6.07 1.71,-1.64 4.42,-1.58 6.06,0.13 1.64,1.71 1.57,4.43 -0.11,6.07 -1.73,1.64 -4.44,1.58 -6.08,-0.13z"/>
   <path class="fil0" d="M1766.7 306.83c1.69,-1.64 4.42,-1.58 6.06,0.13 1.64,1.71 1.56,4.43 -0.14,6.07 -1.71,1.64 -4.42,1.58 -6.06,-0.13 -1.64,-1.71 -1.59,-4.43 0.14,-6.07z"/>
   <path class="fil0" d="M1780.43 321.18c1.71,-1.64 4.42,-1.58 6.06,0.13 1.64,1.71 1.59,4.43 -0.12,6.07 -1.73,1.64 -4.44,1.58 -6.08,-0.13 -1.64,-1.71 -1.59,-4.43 0.14,-6.07z"/>
   <path class="fil0" d="M1794.2 341.78c-1.64,-1.72 -1.57,-4.43 0.14,-6.07 1.71,-1.64 4.42,-1.58 6.06,0.13 1.64,1.71 1.59,4.43 -0.12,6.07 -1.71,1.64 -4.44,1.58 -6.08,-0.13z"/>
   <path class="fil0" d="M1808.26 350.24c1.71,-1.64 4.44,-1.58 6.08,0.13 1.64,1.71 1.56,4.43 -0.14,6.07 -1.71,1.64 -4.42,1.58 -6.06,-0.13 -1.64,-1.71 -1.59,-4.43 0.12,-6.06z"/>
   <path class="fil0" d="M1822.02 364.58c1.71,-1.64 4.42,-1.58 6.06,0.13 1.64,1.71 1.59,4.43 -0.12,6.07 -1.73,1.64 -4.44,1.58 -6.08,-0.13 -1.64,-1.71 -1.57,-4.43 0.14,-6.07z"/>
   <path class="fil0" d="M1835.79 385.18c-1.64,-1.71 -1.57,-4.43 0.14,-6.06 1.71,-1.64 4.42,-1.58 6.06,0.13 1.64,1.71 1.59,4.42 -0.12,6.06 -1.71,1.64 -4.44,1.58 -6.08,-0.13z"/>
   <path class="fil0" d="M1160.88 60.75c0,-33.55 27.2,-60.75 60.75,-60.75 33.54,0 60.74,27.2 60.74,60.75 0,33.55 -27.2,60.75 -60.74,60.75 -33.55,0 -60.75,-27.2 -60.75,-60.75z"/>
   <path class="fil8" d="M1202.12 36.38c0,-10.77 8.73,-19.5 19.5,-19.5 10.77,0 19.5,8.73 19.5,19.5 0,10.77 -8.73,19.5 -19.5,19.5 -10.78,0 -19.5,-8.73 -19.5,-19.5z"/>
   <path class="fil8" d="M1221.63 55.87c-18.85,0 -34.12,15.28 -34.12,34.12l68.25 0c0,-18.85 -15.28,-34.12 -34.12,-34.12z"/>
   <path class="fil17" d="M1548.92 167.9c0,-51.7 41.9,-93.61 93.59,-93.61 51.72,0 93.61,41.91 93.61,93.61 0,51.7 -41.89,93.61 -93.61,93.61 -51.69,0 -93.59,-41.91 -93.59,-93.61z"/>
   <path class="fil8" d="M1612.48 130.35c0,-16.59 13.45,-30.04 30.04,-30.04 16.61,0 30.06,13.45 30.06,30.04 0,16.59 -13.45,30.04 -30.06,30.04 -16.58,0 -30.04,-13.45 -30.04,-30.04z"/>
   <path class="fil8" d="M1642.51 160.39c-29.03,0 -52.56,23.53 -52.56,52.58l105.15 0c0,-29.04 -23.53,-52.58 -52.58,-52.58z"/>
   <path class="fil0" d="M1813.66 424.41c0,-34.9 28.3,-63.19 63.2,-63.19 34.9,0 63.2,28.29 63.2,63.19 0,34.9 -28.3,63.2 -63.2,63.2 -34.9,0 -63.2,-28.29 -63.2,-63.2z"/>
   <path class="fil8" d="M1884.35 439.45c0.03,-1.3 -0.14,-2.44 -0.49,-3.43 -0.35,-0.99 -0.93,-1.89 -1.76,-2.7 -0.82,-0.81 -1.87,-1.57 -3.18,-2.26 -1.29,-0.7 -2.88,-1.38 -4.77,-2.06 -3.23,-1.18 -6.15,-2.42 -8.77,-3.71 -2.65,-1.29 -4.91,-2.76 -6.76,-4.41 -1.87,-1.66 -3.3,-3.59 -4.33,-5.79 -1,-2.2 -1.47,-4.81 -1.42,-7.83 0.02,-2.62 0.52,-5 1.47,-7.14 0.98,-2.14 2.32,-4 4.07,-5.57 1.73,-1.58 3.84,-2.85 6.25,-3.82 2.41,-0.96 5.1,-1.56 8.09,-1.79l0.14 -9.88 7.98 0.11 -0.16 10.02c2.85,0.41 5.43,1.2 7.72,2.38 2.31,1.17 4.26,2.68 5.85,4.52 1.61,1.84 2.83,4 3.67,6.49 0.84,2.49 1.24,5.28 1.19,8.36l-14.36 -0.21c0.05,-3.69 -0.72,-6.47 -2.34,-8.32 -1.61,-1.86 -3.79,-2.81 -6.55,-2.85 -1.5,-0.02 -2.78,0.17 -3.86,0.57 -1.1,0.4 -1.99,0.96 -2.69,1.67 -0.7,0.72 -1.24,1.56 -1.57,2.54 -0.35,0.98 -0.54,2.04 -0.56,3.18 0,1.14 0.14,2.17 0.47,3.1 0.3,0.93 0.86,1.79 1.69,2.59 0.79,0.79 1.85,1.55 3.18,2.26 1.33,0.71 3,1.45 4.96,2.22 3.2,1.25 6.1,2.52 8.72,3.82 2.62,1.3 4.86,2.79 6.74,4.46 1.85,1.68 3.3,3.62 4.31,5.82 1,2.2 1.49,4.79 1.45,7.78 -0.05,2.71 -0.54,5.13 -1.52,7.27 -0.98,2.14 -2.34,3.98 -4.1,5.53 -1.73,1.55 -3.84,2.78 -6.29,3.69 -2.43,0.92 -5.17,1.5 -8.14,1.73l-0.14 9.19 -7.91 -0.12 0.14 -9.14c-2.74,-0.31 -5.41,-0.96 -7.95,-1.92 -2.55,-0.96 -4.82,-2.32 -6.79,-4.09 -1.96,-1.77 -3.51,-3.99 -4.68,-6.65 -1.14,-2.66 -1.71,-5.84 -1.63,-9.54l14.36 0.21c-0.03,2.18 0.26,4.01 0.84,5.48 0.59,1.48 1.38,2.65 2.41,3.55 1.03,0.9 2.18,1.53 3.49,1.9 1.28,0.38 2.62,0.57 3.97,0.59 1.57,0.03 2.95,-0.16 4.12,-0.54 1.19,-0.38 2.17,-0.93 3,-1.62 0.79,-0.69 1.4,-1.52 1.8,-2.49 0.42,-0.96 0.63,-2.01 0.65,-3.15z"/>
  </g>
 </g>
</svg>
