<?xml version="1.0" encoding="UTF-8"?>
<!DOCTYPE svg PUBLIC "-//W3C//DTD SVG 1.1//EN" "http://www.w3.org/Graphics/SVG/1.1/DTD/svg11.dtd">
<!-- Creator: CorelDRAW 2021 (64-Bit) -->
<svg xmlns="http://www.w3.org/2000/svg" xml:space="preserve" width="1.15265in" height="1.14227in" version="1.1" style="shape-rendering:geometricPrecision; text-rendering:geometricPrecision; image-rendering:optimizeQuality; fill-rule:evenodd; clip-rule:evenodd"
viewBox="0 0 260.5 258.15"
 xmlns:xlink="http://www.w3.org/1999/xlink"
 xmlns:xodm="http://www.corel.com/coreldraw/odm/2003">
 <defs>
  <style type="text/css">
   <![CDATA[
    .fil0 {fill:#3362B0}
   ]]>
  </style>
 </defs>
 <g id="Layer_x0020_1">
  <metadata id="CorelCorpID_0Corel-Layer"/>
  <path class="fil0" d="M23.33 0l70.16 0c12.83,0 23.33,10.5 23.33,23.33l0 70.16c0,12.83 -10.5,23.33 -23.33,23.33l-70.16 0c-12.83,0 -23.33,-10.5 -23.33,-23.33l0 -70.16c0,-12.83 10.5,-23.33 23.33,-23.33zm28.41 61.4c-0.45,-0.26 -0.74,-0.78 -1.85,-0.93 -0.22,0.9 -0.39,1.72 -0.83,2.42 -0.44,-1.49 -0.55,-2.14 -1.27,-3.39 -0.5,-0.87 -1.5,-2.06 -2.2,-2.39l0 24.37c1.4,0.12 16.74,0.02 18.59,0.02 6.21,0 12.42,0 18.63,0 2.03,0 7.52,0.25 9.14,-0.11 1.22,-0.27 2.28,-1.15 2.76,-1.9 0.77,-1.22 0.76,-2.25 0.76,-3.9 0,-1.48 0.1,-17.71 -0.04,-18.71l-0.44 -0.01c-15.04,-0.1 -30.67,-0.03 -45.75,0l-0.56 0 0.9 0.93c0.9,0.86 1.85,2.35 2.14,3.58zm-6.14 -20.8l0 11.4c0.51,-0.54 0.88,-3.2 2.94,-5.67 1.41,-1.7 4.8,-2.1 3.96,1.53 3.32,-0.61 3.09,2.56 1.35,3.91 -2.27,1.75 -4.39,1.77 -5.7,2.42l47.3 0 0.03 -9.29c-0.05,-1.54 -0.54,-2.26 -1.44,-3.21 -0.88,-0.92 -1.96,-1.24 -3.57,-1.25l-44.86 0.16zm-2.75 40.9l0.05 -24.44c-1.3,0.69 -2.47,2.58 -3.01,4.04 -0.23,0.61 -0.3,1.25 -0.5,1.79 -0.44,-0.69 -0.63,-1.52 -0.82,-2.41 -0.92,0.03 -1.35,0.61 -1.85,0.91 0.4,-1.83 2.08,-3.62 3.04,-4.49l-13.04 -0.02c-0.17,1.16 -0.07,19.69 -0.03,20.38 0.1,1.58 0.88,2.61 1.8,3.33 1.14,0.89 2.45,0.91 4.16,0.91 3.31,0 6.93,0.14 10.2,-0.01zm-16.14 -27.32l13.72 0c-1,-0.44 -7.54,-1.75 -7,-5.05 0.22,-1.34 1.29,-1.43 2.63,-1.3 -0.39,-1.28 -0.15,-2.39 0.99,-2.72 2.07,-0.59 3.86,2.22 4.59,3.79 0.34,0.73 0.96,2.64 1.25,3.07l0 -11.53c-2.13,-0.2 -5.15,-0.03 -7.38,-0.03 -3.08,0 -7.08,-0.67 -8.49,2.78 -0.46,1.12 -0.35,2.19 -0.35,3.47 0,2.22 -0.18,5.38 0.03,7.49zm11.28 -4.55c-2.32,-1.03 -2.47,2.59 3.65,3.31 -0.91,-5.23 -4.75,-6.11 -3.65,-3.31zm8.93 3.3c5.81,-0.66 6.19,-4.29 3.67,-3.31 0.21,-0.78 0.35,-0.62 0.04,-1.43 -1.94,-0.6 -3.37,2.79 -3.7,4.74z"/>
  <path class="fil0" d="M23.33 141.33l70.16 0c12.83,0 23.33,10.5 23.33,23.33l0 70.16c0,12.83 -10.5,23.33 -23.33,23.33l-70.16 0c-12.83,0 -23.33,-10.5 -23.33,-23.33l0 -70.16c0,-12.83 10.5,-23.33 23.33,-23.33zm17.24 37.18l12.08 0 0 30.32 10.12 0 -15.85 21.3 -16.46 -21.3 10.12 0 0 -30.32zm26.88 49.28l12.08 0 0 -30.32 10.12 0 -15.85 -21.3 -16.46 21.3 10.11 0 0 30.32z"/>
  <path class="fil0" d="M167.01 0l70.16 0c12.83,0 23.33,10.5 23.33,23.33l0 70.16c0,12.83 -10.5,23.33 -23.33,23.33l-70.16 0c-12.83,0 -23.33,-10.5 -23.33,-23.33l0 -70.16c0,-12.83 10.5,-23.33 23.33,-23.33zm7.44 58.95l7.31 0 0 -13.7 8.33 0 10.78 13.7 10.31 0 0 -13.7 10.51 0 0 13.7 7.32 0 0 9.06 -7.32 0 0 7.49 7.32 0 0 9.06 -7.32 0 0 6.21 -8.59 0 -4.97 -6.21 -15.86 0 0 6.21 -10.51 0 0 -6.21 -7.31 0 0 -9.06 7.31 0 0 -7.49 -7.31 0 0 -9.06zm36.74 9.06l-3.18 0 3.18 4.04 0 -4.04zm-16.3 0l-2.62 0 0 7.49 8.61 0 -5.99 -7.49zm-13.01 -28.85c-0.53,-0.63 -1.26,-1.59 -2.2,-2.9 -0.37,-2.36 -0.18,-4.71 0.55,-7.05 4.31,-2.36 10.42,-4.16 18.33,-5.39 2.93,-0.46 6.39,-0.79 10.38,-0.98 4.7,-0.22 8.12,-0.12 10.24,0.3 1.41,2.01 2.31,4.19 2.7,6.54 -0.19,0.76 -0.6,1.91 -1.24,3.44l-8.72 0.66 -3.6 -4.03c-1.6,-0.73 -3.15,-1.09 -4.66,-1.07 -0.73,-0.01 -2.35,0.18 -4.84,0.56 -2.79,0.44 -4.67,1.22 -5.66,2.35 -0.46,0.5 -1.37,2.35 -2.74,5.54l-8.54 2.03z"/>
  <path class="fil0" d="M167.01 141.33l70.16 0c12.83,0 23.33,10.5 23.33,23.33l0 70.16c0,12.83 -10.5,23.33 -23.33,23.33l-70.16 0c-12.83,0 -23.33,-10.5 -23.33,-23.33l0 -70.16c0,-12.83 10.5,-23.33 23.33,-23.33zm5.28 42.3l0 41.61c0,3.64 0.96,4.57 4.48,4.57l42.08 0.02 -3.25 -4.96 -34.66 0c-4.01,-0.07 -3.54,-0.71 -3.54,-4.38 0,-6.61 -0.29,-18.93 0.26,-24.91 6.69,-0.94 39.86,-0.33 49.16,-0.32 3.33,0 3.35,0.9 3.36,4.13 0,2.44 -0.03,4.93 -0.06,7.38l5.07 1.69c-0.11,-5.98 -0.03,-12.01 -0.03,-17.99 0,-7.16 2.02,-12.59 -7.09,-10.92 -0.01,5.62 -0.42,9.97 -6.04,10.14 -5.9,0.17 -6.5,-4.79 -6.51,-10.09l-23.53 -0.29 0.01 3.26c0.03,9.62 -12.53,9.63 -12.52,0l0.02 -3.24c-4.73,0 -7.19,-0.82 -7.19,4.29zm53.39 26.07c-5.04,1.15 -9.61,6.3 -8.13,12.66 1.19,5.1 6.72,9.27 13.19,7.82 13.27,-2.97 9.48,-23.8 -5.06,-20.48zm-0.79 -23.68c0.57,-2.41 0.99,-7.53 0.46,-10.3 -0.6,-3.12 -4.72,-4.2 -6.48,-1.6 -1.56,2.32 -2.86,16.93 6.02,11.9zm-42.79 -7.66l0 4.21c0,5.02 7.28,8.56 7.28,-2.63 0,-3.6 0.55,-6.56 -2.79,-7.21 -3.96,-0.77 -4.48,2.15 -4.49,5.63zm1.67 20.69l5.14 0c0.87,0 1.59,0.71 1.59,1.58l0 3.28c0,0.87 -0.71,1.59 -1.59,1.59l-5.14 0c-0.87,0 -1.59,-0.71 -1.59,-1.59l0 -3.28c0,-0.87 0.71,-1.58 1.59,-1.58zm11.23 0l5.14 0c0.87,0 1.59,0.71 1.59,1.58l0 3.28c0,0.87 -0.71,1.59 -1.59,1.59l-5.14 0c-0.87,0 -1.59,-0.71 -1.59,-1.59l0 -3.28c0,-0.87 0.71,-1.58 1.59,-1.58zm11.23 0l5.14 0c0.87,0 1.59,0.71 1.59,1.58l0 3.28c0,0.87 -0.71,1.59 -1.59,1.59l-5.14 0c-0.87,0 -1.59,-0.71 -1.59,-1.59l0 -3.28c0,-0.87 0.71,-1.58 1.59,-1.58zm11.23 0l5.14 0c0.87,0 1.59,0.71 1.59,1.58l0 3.28c0,0.87 -0.71,1.59 -1.59,1.59l-5.14 0c-0.87,0 -1.59,-0.71 -1.59,-1.59l0 -3.28c0,-0.87 0.71,-1.58 1.59,-1.58zm-33.68 8.29l5.14 0c0.87,0 1.59,0.71 1.59,1.59l0 3.28c0,0.87 -0.71,1.58 -1.59,1.58l-5.14 0c-0.87,0 -1.59,-0.71 -1.59,-1.58l0 -3.28c0,-0.87 0.71,-1.59 1.59,-1.59zm11.23 0l5.14 0c0.87,0 1.59,0.71 1.59,1.59l0 3.28c0,0.87 -0.71,1.58 -1.59,1.58l-5.14 0c-0.87,0 -1.59,-0.71 -1.59,-1.58l0 -3.28c0,-0.87 0.71,-1.59 1.59,-1.59zm11.23 0l5.14 0c0.87,0 1.59,0.71 1.59,1.59l0 3.28c0,0.87 -0.71,1.58 -1.59,1.58l-5.14 0c-0.87,0 -1.59,-0.71 -1.59,-1.58l0 -3.28c0,-0.87 0.71,-1.59 1.59,-1.59zm-22.45 8.2l5.14 0c0.87,0 1.59,0.71 1.59,1.58l0 3.28c0,0.87 -0.71,1.59 -1.59,1.59l-5.14 0c-0.87,0 -1.59,-0.71 -1.59,-1.59l0 -3.28c0,-0.87 0.71,-1.58 1.59,-1.58zm11.23 0l5.14 0c0.87,0 1.59,0.71 1.59,1.58l0 3.28c0,0.87 -0.71,1.59 -1.59,1.59l-5.14 0c-0.87,0 -1.59,-0.71 -1.59,-1.59l0 -3.28c0,-0.87 0.71,-1.58 1.59,-1.58zm11.23 0l5.14 0c0.87,0 1.59,0.71 1.59,1.58l0 3.28c0,0.87 -0.71,1.59 -1.59,1.59l-5.14 0c-0.87,0 -1.59,-0.71 -1.59,-1.59l0 -3.28c0,-0.87 0.71,-1.58 1.59,-1.58z"/>
 </g>
</svg>
