<?xml version="1.0" encoding="UTF-8"?>
<!DOCTYPE svg PUBLIC "-//W3C//DTD SVG 1.1//EN" "http://www.w3.org/Graphics/SVG/1.1/DTD/svg11.dtd">
<!-- Creator: CorelDRAW 2021 (64-Bit) -->
<svg xmlns="http://www.w3.org/2000/svg" xml:space="preserve" width="1.387in" height="2.03826in" version="1.1" style="shape-rendering:geometricPrecision; text-rendering:geometricPrecision; image-rendering:optimizeQuality; fill-rule:evenodd; clip-rule:evenodd"
viewBox="0 0 359.79 528.73"
 xmlns:xlink="http://www.w3.org/1999/xlink"
 xmlns:xodm="http://www.corel.com/coreldraw/odm/2003">
 <defs>
  <style type="text/css">
   <![CDATA[
    .fil0 {fill:#336699}
   ]]>
  </style>
   <clipPath id="id0">
    <rect x="52.95" y="8.05" width="273.94" height="520.69"/>
   </clipPath>
 </defs>
 <g id="Layer_x0020_1">
  <metadata id="CorelCorpID_0Corel-Layer"/>
  <path class="fil0" d="M214.15 88.13c0,-31.77 25.75,-57.52 57.52,-57.52 31.77,0 57.52,25.75 57.52,57.52 0,31.77 -25.75,57.52 -57.52,57.52 -31.77,0 -57.52,-25.75 -57.52,-57.52zm57.52 -88.13c-48.67,0 -88.13,39.46 -88.13,88.13 0,48.67 39.46,88.13 88.13,88.13 48.67,0 88.13,-39.46 88.13,-88.13 0,-48.67 -39.46,-88.13 -88.13,-88.13z"/>
  <path class="fil0" d="M47.3 306.3c0,-49.08 39.78,-88.86 88.86,-88.86 49.08,0 88.86,39.78 88.86,88.86 0,49.08 -39.78,88.86 -88.86,88.86 -49.08,0 -88.86,-39.78 -88.86,-88.86zm88.86 -136.16c-75.2,0 -136.16,60.96 -136.16,136.16 0,75.2 60.96,136.16 136.16,136.16 75.2,0 136.16,-60.96 136.16,-136.16 0,-75.2 -60.96,-136.16 -136.16,-136.16z"/>
  <g style="clip-path:url(#id0)">
   <image x="52.95" y="8.05" width="273.94" height="520.69" xlink:href="phone mockup1_Images\phone mockup1_ImgID1.png"/>
  </g>
 </g>
</svg>
