<svg width="512" height="512" viewBox="0 0 512 512" fill="none" xmlns="http://www.w3.org/2000/svg">
<path d="M497 16H256H15C6.709 16 0 22.709 0 31V346L30 376H256H482L512 346V31C512 22.709 505.291 16 497 16Z" fill="#FF7B4A"/>
<path d="M512 346V31C512 22.709 505.291 16 497 16H256V376H482L512 346Z" fill="#FF435B"/>
<path d="M256 346H0V481C0 489.291 6.709 496 15 496H256H497C505.291 496 512 489.291 512 481V346H256Z" fill="#6AA9FF"/>
<path d="M512 481V346H256V496H497C505.291 496 512 489.291 512 481Z" fill="#4895FF"/>
<path d="M436 406H256H75C66.709 406 60 412.709 60 421C60 429.291 66.709 436 75 436H256H436C444.291 436 451 429.291 451 421C451 412.709 444.291 406 436 406Z" fill="#47568C"/>
<path d="M451 421C451 412.709 444.291 406 436 406H256V436H436C444.291 436 451 429.291 451 421Z" fill="#29376D"/>
<path d="M353.72 168.139L256 109.506L203.72 78.1381C199.076 75.3551 193.305 75.2821 188.603 77.9481C183.901 80.6141 181 85.5951 181 91.0001V271C181 276.405 183.9 281.386 188.603 284.052C193.301 286.716 199.075 286.643 203.72 283.862L256 252.494L353.72 193.862C358.232 191.152 361 186.274 361 181.001C361 175.728 358.231 170.849 353.72 168.139V168.139Z" fill="#EDF5FF"/>
<path d="M361 181C361 175.727 358.231 170.849 353.72 168.139L256 109.506V252.493L353.72 193.861C358.231 191.151 361 186.273 361 181Z" fill="#D5E8FE"/>
<path d="M376 466C367.709 466 361 459.291 361 451V391C361 382.709 367.709 376 376 376C384.291 376 391 382.709 391 391V451C391 459.291 384.291 466 376 466Z" fill="#D5E8FE"/>
</svg>
