<?xml version="1.0" standalone="yes"?>
<svg xmlns="http://www.w3.org/2000/svg" width="661" height="847">
<path style="fill:#3362b0; stroke:none;" d="M0 0L0 847L661 847L661 379L220 379L220 0L0 0z"/>
<path style="fill:#ffffff; stroke:none;" d="M220 0L220 379L661 379L661 299L306 299L306 0L220 0z"/>
<path style="fill:#3362b0; stroke:none;" d="M306 0L306 299L661 299C653.979 289.82 642.858 282.657 634 275.246C617.612 261.537 601.404 247.612 585 233.92C532.128 189.788 479.405 145.414 427 100.728C399.801 77.5358 372.474 54.4531 345 31.5864C333.006 21.6038 320.182 6.49634 306 0z"/>
<path style="fill:#ffffff; stroke:none;" d="M308 0C318.665 14.4904 337.262 25.8167 351 37.4244L434 107.424C485.614 151.033 537.125 194.781 589 238.08C612.412 257.622 635.153 281.835 661 298L661 0L308 0z"/>
</svg>
