<?xml version="1.0" standalone="no"?>
<!DOCTYPE svg PUBLIC "-//W3C//DTD SVG 20010904//EN"
 "http://www.w3.org/TR/2001/REC-SVG-20010904/DTD/svg10.dtd">
<svg version="1.0" xmlns="http://www.w3.org/2000/svg"
  viewBox="0 0 601.000000 601.000000"
 preserveAspectRatio="xMidYMid meet">
<metadata>
Created by potrace 1.16, written by Peter Selinger 2001-2019
</metadata>
<g transform="translate(0.000000,601.000000) scale(0.100000,-0.100000)"
fill="#39BEE7" stroke="none">
<path d="M2745 5999 c-416 -37 -850 -169 -1200 -366 -838 -472 -1389 -1281
-1522 -2233 -22 -157 -25 -593 -5 -750 72 -568 291 -1089 647 -1535 101 -127
320 -346 450 -450 431 -345 939 -563 1496 -642 197 -28 615 -25 819 6 655 98
1238 389 1695 846 784 783 1070 1908 760 2986 -98 338 -305 736 -531 1019 -92
114 -307 334 -423 431 -603 505 -1401 756 -2186 688z m2555 -1551 c175 -281
298 -591 364 -917 14 -69 24 -126 23 -126 -11 -8 -351 71 -448 103 -158 52
-240 66 -348 59 -102 -6 -185 -31 -341 -100 l-115 -52 -175 -5 c-211 -7 -196
0 -435 -180 -336 -251 -481 -340 -556 -340 -51 0 -104 31 -125 73 -25 47 -6
88 98 213 51 61 149 179 217 263 68 83 192 225 277 314 84 89 154 165 154 169
0 4 -44 37 -97 73 -105 70 -131 77 -200 51 -21 -8 -144 -24 -273 -35 -129 -12
-246 -24 -260 -27 -22 -4 -19 1 20 38 173 164 377 347 408 366 171 104 644
156 1452 160 l296 2 64 -102z m-2565 -637 c12 -20 95 -22 227 -7 87 10 221 16
368 16 l231 0 -83 -92 c-46 -51 -128 -148 -182 -215 l-98 -123 -769 0 -769 0
0 103 c0 136 18 195 75 252 72 73 79 74 567 74 257 1 429 -3 433 -8z m285
-642 c-96 -149 -68 -301 74 -396 100 -67 212 -71 338 -11 84 40 224 129 356
227 45 34 84 61 87 61 3 0 5 -134 5 -297 0 -332 -3 -345 -70 -410 -75 -73 -2
-68 -1018 -71 -611 -1 -927 1 -952 8 -57 15 -120 68 -149 125 l-26 49 -3 388
-3 388 700 0 701 0 -40 -61z m610 -1239 l0 -110 -1100 0 -1100 0 0 110 0 110
1100 0 1100 0 0 -110z"/>
</g>
</svg>
