<?xml version="1.0" standalone="no"?>
<!DOCTYPE svg PUBLIC "-//W3C//DTD SVG 20010904//EN"
 "http://www.w3.org/TR/2001/REC-SVG-20010904/DTD/svg10.dtd">
<svg version="1.0" xmlns="http://www.w3.org/2000/svg"
 viewBox="0 0 482.000000 601.000000"
 preserveAspectRatio="xMidYMid meet">
<metadata>
Created by potrace 1.16, written by Peter Selinger 2001-2019
</metadata>
<g transform="translate(0.000000,601.000000) scale(0.100000,-0.100000)"
fill="#39BEE7" stroke="none">
<path d="M1993 5917 c-133 -51 -245 -95 -249 -100 -4 -4 3 -15 17 -24 44 -31
141 -127 186 -186 85 -110 163 -275 208 -442 21 -76 67 -326 62 -332 -1 -1
-27 28 -57 64 -108 128 -275 254 -415 312 -270 113 -598 69 -769 -102 -100
-102 -146 -216 -146 -367 0 -168 58 -307 181 -431 64 -65 91 -84 180 -127 107
-51 177 -72 310 -92 87 -12 355 -28 382 -22 16 4 17 16 15 115 l-3 110 -120
-2 c-100 -2 -136 2 -219 23 -372 96 -547 354 -393 582 73 109 171 148 308 121
206 -40 466 -212 595 -393 56 -78 108 -188 136 -289 l23 -80 5 -2125 5 -2125
188 -3 187 -2 0 2170 c0 2168 0 2171 21 2232 23 70 56 121 145 228 171 206
331 315 512 351 237 46 431 -81 432 -282 0 -56 -5 -77 -35 -136 -41 -81 -116
-158 -194 -198 -101 -51 -189 -67 -393 -72 l-188 -5 0 -113 c0 -134 -14 -125
170 -113 380 23 591 103 762 287 136 147 193 337 153 509 -33 140 -125 256
-256 321 -115 58 -205 75 -353 68 -186 -9 -313 -51 -476 -158 -99 -66 -262
-216 -331 -306 l-44 -56 -22 201 c-27 251 -53 401 -103 610 -77 319 -129 472
-159 471 -9 0 -125 -41 -258 -92z"/>
<path d="M230 3901 c-83 -26 -159 -90 -201 -171 l-24 -45 0 -1705 0 -1705 24
-48 c34 -69 101 -132 166 -156 55 -21 71 -21 920 -21 l865 0 0 1930 0 1930
-862 -1 c-475 0 -874 -4 -888 -8z"/>
<path d="M2850 1980 l0 -1930 878 2 877 3 44 23 c64 35 127 104 151 168 20 55
20 57 18 1747 l-3 1692 -23 47 c-30 60 -90 120 -150 150 l-47 23 -872 3 -873
2 0 -1930z"/>
</g>
</svg>
