<?xml version="1.0" standalone="no"?>
<!DOCTYPE svg PUBLIC "-//W3C//DTD SVG 20010904//EN"
 "http://www.w3.org/TR/2001/REC-SVG-20010904/DTD/svg10.dtd">
<svg version="1.0" xmlns="http://www.w3.org/2000/svg"
viewBox="0 0 601.000000 519.000000"
 preserveAspectRatio="xMidYMid meet">
<metadata>
Created by potrace 1.16, written by Peter Selinger 2001-2019
</metadata>
<g transform="translate(0.000000,519.000000) scale(0.100000,-0.100000)"
fill="#39BEE7" stroke="none">
<path d="M4655 5185 c-5 -2 -941 -245 -2080 -540 -2327 -603 -2171 -557 -2316
-693 -135 -127 -223 -287 -249 -452 -8 -55 -10 -471 -8 -1555 l3 -1480 26 -66
c39 -101 76 -158 148 -229 72 -71 173 -127 271 -151 45 -12 489 -14 2565 -14
l2510 0 80 27 c184 63 313 192 377 378 l23 65 0 1515 c0 1454 -1 1517 -19
1570 -67 197 -215 342 -406 396 -35 10 -116 18 -227 21 l-173 6 0 402 c0 414
-3 460 -40 559 -31 81 -119 174 -202 212 -55 24 -77 29 -168 31 -58 1 -109 1
-115 -2z m-15 -885 l0 -320 -1442 1 c-794 1 -1436 3 -1428 6 52 14 2829 631
2848 632 l22 1 0 -320z m431 -2560 c108 -34 189 -112 229 -218 30 -80 25 -194
-12 -274 -33 -71 -101 -138 -176 -175 -49 -23 -69 -27 -147 -28 -80 0 -97 3
-149 29 -298 146 -270 567 43 667 74 24 135 23 212 -1z"/>
</g>
</svg>
