<?xml version="1.0" standalone="yes"?>
<svg xmlns="http://www.w3.org/2000/svg" width="375" height="601">
<path style="fill:#ffffff; stroke:none;" d="M0 0L0 71L1 71C2.4852 36.9348 36.384 3.74597 70 1L48 0L0 0z"/>
<path style="fill:#010101; stroke:none;" d="M70 0.439026C36.8101 5.62292 9.4483 30.1634 1.88735 63C-4.2289 89.5623 0 120.814 0 148L0 314L0 477C0 505.824 -3.8688 536.368 12.0656 562C24.7593 582.419 46.3876 595.873 70 599.561C109.859 605.786 153.683 601 194 601C230.236 601 270.272 605.698 306 599.385C338.304 593.677 365.31 570.344 373.101 538C379.527 511.324 375 479.343 375 452L375 283L375 122C375 92.9786 378.771 62.6178 362.302 37C349.523 17.123 328.232 4.06757 305 0.439026C292.149 -1.56818 277.998 0 265 0L187 0L110 0C97.0016 0 82.8509 -1.56818 70 0.439026z"/>
<path style="fill:#ffffff; stroke:none;" d="M305 0L305 1C338.692 3.7522 372.529 36.8296 374 71L375 71L375 0L305 0M38 280L39 280C60.7381 228.063 115.75 180.461 166 157L136 108L245 129.8L272 135.4L282.226 138.589L281.789 149L275.6 178L258.003 261L248 304L216 240C135.06 260.95 63.8078 315.047 47.0008 401C42.6922 423.035 43.0026 446.231 48.7346 468C50.6782 475.382 52.2361 485.072 59.0432 489.532C75.9477 500.607 101.784 496 121 496L267 496C289.634 496 313.496 498.558 328.711 477.996C337.749 465.781 337 452.417 337 438L337 381L337 163L337 107C337 94.3659 337.996 82.454 331.687 71C318.581 47.2057 294.536 48 271 48L113 48C88.8998 48 63.136 44.4556 46.5293 66C33.2052 83.2859 38 109.533 38 130L38 280M183 513.44C141.44 520.102 152.145 580.733 193 574.699C233.533 568.712 222.744 507.069 183 513.44M0 529L0 601L83 601L83 600C53.7061 600 25.6264 584.787 10.8727 559C5.33207 549.316 4.39683 538.791 0 529M374 529C373.148 570.05 329.848 600 292 600L292 601L375 601L375 552L374 529z"/>
</svg>
