<?xml version="1.0" standalone="yes"?>
<svg xmlns="http://www.w3.org/2000/svg" width="375" height="601">
<path style="fill:#7b9fd8; stroke:none;" d="M0 0L0 73L1 73C1.72409 37.9191 36.9998 2.52545 72 1L49 0L0 0z"/>
<path style="fill:#ffffff; stroke:none;" d="M72 0.428223C39.035 5.15094 10.8398 28.3194 2.47839 61C-4.51757 88.3439 0 120.924 0 149L0 320L0 478C0 506.401 -3.63662 536.741 12.0656 562C24.4317 581.892 45.859 595.909 69 599.561C106.939 605.547 148.617 601 187 601C225.703 601 267.745 605.597 306 599.561C337.748 594.551 365.422 570.457 373.102 539C379.597 512.397 375 480.302 375 453L375 282L375 121C375 92.7513 378.839 62.9794 362.946 38C349.735 17.2358 328.155 4.20398 304 0.439026C291.779 -1.46576 278.359 0 266 0L193 0L114 0C100.296 0 85.5714 -1.51605 72 0.428223z"/>
<path style="fill:#7b9fd8; stroke:none;" d="M304 0L304 1C337.385 3.65717 372.502 35.6459 374 70L375 70L375 0L304 0M77 48.439C31.8726 55.5423 38 101.861 38 136L38 374L38 435C38 448.116 36.7592 461.099 43.3133 473C57.2803 498.361 83.1741 496 108 496L237 496C257.463 496 280.868 499.165 301 495.535C344.929 487.615 337 438.889 337 406L337 170L337 107C337 95.1242 338.403 82.8232 332.482 72C318.468 46.3802 292.129 48 267 48L141 48C120.327 48 97.4176 45.2252 77 48.439z"/>
<path style="fill:#ffffff; stroke:none;" d="M92 208L134 208L149.258 209.603L153.13 228L160.13 275L187 454L188 454C191.269 443.243 191.7 431.121 193.424 420C197.505 393.687 201.391 367.343 205.272 341C211.701 297.356 223.109 252.052 225 208L283 208C279.118 200.034 269.289 193.279 263 187C245.99 170.017 228.047 153.966 211 137.001C206.601 132.623 193.338 116.173 187 116.921C179.069 117.857 168.776 133.604 163 138.83C146.899 153.399 131.545 168.821 116 183.985C107.954 191.835 98.5223 198.741 92 208z"/>
<path style="fill:#ffffff; stroke:none;" d="M184 513.44C141.432 519.938 152.296 581.638 194 574.674C233.406 568.094 222.695 507.533 184 513.44M0 527L0 601L78 601L78 600C49.7922 599.922 21.949 580.694 9.25926 556C4.42833 546.599 4.00903 536.294 0 527M374 531C372.397 567.774 332.356 599.902 297 600L297 601L375 601L375 553L374 531z"/>
</svg>
