<?xml version="1.0" standalone="no"?>
<!DOCTYPE svg PUBLIC "-//W3C//DTD SVG 20010904//EN"
 "http://www.w3.org/TR/2001/REC-SVG-20010904/DTD/svg10.dtd">
<svg version="1.0" xmlns="http://www.w3.org/2000/svg"
  viewBox="0 0 541.000000 601.000000"
 preserveAspectRatio="xMidYMid meet">
<metadata>
Created by potrace 1.16, written by Peter Selinger 2001-2019
</metadata>
<g transform="translate(0.000000,601.000000) scale(0.100000,-0.100000)"
fill="#ffffff" stroke="none">
<path d="M635 5990 c-151 -40 -266 -100 -377 -199 -100 -89 -189 -235 -230
-378 l-23 -78 0 -2325 0 -2325 23 -79 c83 -286 311 -504 607 -578 l90 -23
1150 0 1150 0 90 23 c292 73 513 280 606 567 21 64 23 93 27 348 l4 277 -240
0 -240 0 -15 -24 c-25 -37 -133 -104 -204 -126 -64 -20 -92 -20 -1178 -20
-1078 0 -1115 1 -1176 20 -124 38 -217 119 -277 239 l-37 75 0 1906 0 1906 38
76 c60 122 179 218 308 247 28 7 439 11 1144 11 959 0 1108 -2 1160 -15 61
-16 153 -64 175 -90 10 -13 53 -15 262 -15 l250 0 -6 28 c-12 49 -75 174 -121
237 -108 152 -286 269 -478 315 -79 19 -121 20 -1247 19 -1101 0 -1169 -1
-1235 -19z m1370 -5139 c24 -10 64 -38 89 -61 161 -148 122 -395 -77 -497
-199 -101 -456 47 -459 266 -2 147 98 274 246 312 47 12 151 2 201 -20z"/>
<path d="M1330 4766 c-129 -28 -236 -113 -293 -233 -32 -68 -32 -68 -35 -255
l-4 -188 2206 0 2206 0 0 158 c0 86 -5 177 -11 201 -37 161 -180 294 -344 321
-93 15 -3654 12 -3725 -4z"/>
<path d="M1002 2777 l3 -683 38 -76 c59 -121 167 -204 296 -228 79 -15 3662
-14 3733 1 160 34 291 162 327 320 7 27 11 293 11 697 l0 652 -2205 0 -2206 0
3 -683z m1596 377 c20 -14 22 -23 22 -115 0 -154 64 -139 -593 -139 -484 0
-555 2 -575 16 -20 14 -22 23 -22 119 0 96 2 105 22 119 20 14 91 16 573 16
482 0 553 -2 573 -16z m889 -6 c21 -19 23 -30 23 -110 0 -81 -2 -91 -25 -113
l-24 -25 -291 0 c-287 0 -322 3 -342 34 -4 6 -8 53 -8 104 0 141 -24 132 342
132 296 0 302 0 325 -22z"/>
</g>
</svg>
