<?xml version="1.0" standalone="yes"?>
<svg xmlns="http://www.w3.org/2000/svg" width="601" height="601">
<path style="fill:#7b9fd8; stroke:none;" d="M0 0L0 297L1 297C1 148.052 128.712 1 283 1L257 0L200 0L0 0z"/>
<path style="fill:#ffffff; stroke:none;" d="M283 0.424377C264.156 2.89868 245.574 4.25153 227 8.89508C179.136 20.861 134.543 45.107 98 78.1697C70.7253 102.847 48.1864 133.133 31.7531 166C-48.7945 327.095 35.3526 532.955 209 586.975C250.926 600.017 295.458 604.133 339 598.715C479.265 581.263 591.251 463.054 600.911 322C610.923 175.797 511.465 39.811 368 7.34949C341.214 1.2887 310.44 -3.17859 283 0.424377z"/>
<path style="fill:#7b9fd8; stroke:none;" d="M319 0L319 1C428.497 1 531.647 81.1555 575.306 178C588.736 207.791 599.978 243.008 600 276L601 276L601 0L319 0M104 220L498 220C498 197.798 500.533 173.309 476 162.677C466.946 158.753 456.637 160 447 160L396 160L213 160L156 160C145.795 160 134.551 158.572 125 162.904C101.116 173.739 104 198.316 104 220M104 278L104 383C104 398.964 101.299 416.321 113.093 428.996C131.358 448.625 168.602 441 193 441L405 441C429.938 441 470.337 449.224 488.896 428.996C500.788 416.034 498 398.199 498 382L498 278L104 278z"/>
<path style="fill:#ffffff; stroke:none;" d="M144.109 302.742C137.713 305.493 137.713 324.507 144.109 327.258C150.486 330 161.132 328 168 328L222 328C228.62 328 240.982 330.361 246.772 326.821C252.621 323.245 251.958 304.477 244.956 302.434C238.178 300.456 229.033 302 222 302L172 302C164.087 302 151.434 299.592 144.109 302.742M270.059 302.742C264.264 305.167 263.383 324.527 269.228 327.258C279.583 332.095 300.571 328 312 328C316.051 328 322.228 329.118 325.852 326.972C331.321 323.734 330.954 305.258 324.941 302.742C314.636 298.43 296.15 302 285 302C280.465 302 274.323 300.958 270.059 302.742z"/>
<path style="fill:#7b9fd8; stroke:none;" d="M0 304L0 601L284 601L284 600C172.533 600 65.5344 517.635 24.0108 417C14.1766 393.166 7.20547 368.524 3.42747 343C1.71816 331.452 4.37536 314.427 0 304M600 325C599.978 358.752 588.211 394.637 574.309 425C530.162 521.415 427.046 600 318 600L318 601L601 601L601 406L601 350L600 325z"/>
</svg>
